<?xml version="1.0" encoding="UTF-8" standalone="no"?>
<!DOCTYPE svg PUBLIC "-//W3C//DTD SVG 1.1//EN"
 "http://www.w3.org/Graphics/SVG/1.1/DTD/svg11.dtd">
<!-- Generated by graphviz version 2.47.1 (20210417.1919)
 -->
<!-- Title: GameManager.GameManager.PlayerWin Pages: 1 -->
<svg width="485pt" height="78pt"
 viewBox="0.00 0.00 485.00 77.50" xmlns="http://www.w3.org/2000/svg" xmlns:xlink="http://www.w3.org/1999/xlink">
<g id="graph0" class="graph" transform="scale(1 1) rotate(0) translate(4 73.5)">
<title>GameManager.GameManager.PlayerWin</title>
<polygon fill="white" stroke="transparent" points="-4,4 -4,-73.5 481,-73.5 481,4 -4,4"/>
<!-- Node1 -->
<g id="node1" class="node">
<title>Node1</title>
<g id="a_node1"><a xlink:title="我方胜利">
<polygon fill="#bfbfbf" stroke="black" points="0,-22.5 0,-52.5 150,-52.5 150,-22.5 0,-22.5"/>
<text text-anchor="start" x="8" y="-40.5" font-family="Helvetica,sans-Serif" font-size="10.00">GameManager.GameManager.</text>
<text text-anchor="middle" x="75" y="-29.5" font-family="Helvetica,sans-Serif" font-size="10.00">PlayerWin</text>
</a>
</g>
</g>
<!-- Node2 -->
<g id="node2" class="node">
<title>Node2</title>
<g id="a_node2"><a xlink:href="class_saver_1_1_x_m_l_saver.html#a293075c8032703755a711c16005c517d" target="_top" xlink:title="存档">
<polygon fill="white" stroke="black" points="186,-50 186,-69 317,-69 317,-50 186,-50"/>
<text text-anchor="middle" x="251.5" y="-57" font-family="Helvetica,sans-Serif" font-size="10.00">Saver.XMLSaver.SaveData</text>
</a>
</g>
</g>
<!-- Node1&#45;&gt;Node2 -->
<g id="edge1" class="edge">
<title>Node1&#45;&gt;Node2</title>
<path fill="none" stroke="midnightblue" d="M150,-46.83C158.55,-47.91 167.27,-49.01 175.82,-50.09"/>
<polygon fill="midnightblue" stroke="midnightblue" points="175.41,-53.56 185.77,-51.34 176.29,-46.62 175.41,-53.56"/>
</g>
<!-- Node3 -->
<g id="node3" class="node">
<title>Node3</title>
<g id="a_node3"><a xlink:href="class_u_i_1_1_chinese_sports_1_1_battle_1_1_result_u_i.html#aee0048338efe9f7d4867ec3a61e7aae4" target="_top" xlink:title=" ">
<polygon fill="white" stroke="black" points="189.5,-0.5 189.5,-30.5 313.5,-30.5 313.5,-0.5 189.5,-0.5"/>
<text text-anchor="start" x="197.5" y="-18.5" font-family="Helvetica,sans-Serif" font-size="10.00">UI.ChineseSports.Battle.</text>
<text text-anchor="middle" x="251.5" y="-7.5" font-family="Helvetica,sans-Serif" font-size="10.00">ResultUI.ShowResult</text>
</a>
</g>
</g>
<!-- Node1&#45;&gt;Node3 -->
<g id="edge2" class="edge">
<title>Node1&#45;&gt;Node3</title>
<path fill="none" stroke="midnightblue" d="M150,-28.17C159.72,-26.94 169.67,-25.69 179.34,-24.47"/>
<polygon fill="midnightblue" stroke="midnightblue" points="179.82,-27.94 189.3,-23.22 178.94,-20.99 179.82,-27.94"/>
</g>
<!-- Node4 -->
<g id="node4" class="node">
<title>Node4</title>
<g id="a_node4"><a xlink:href="class_u_i_1_1_chinese_sports_1_1_battle_1_1_result_u_i.html#a64e79da353dfd6c9d0cb12581041077f" target="_top" xlink:title=" ">
<polygon fill="white" stroke="black" points="353,-0.5 353,-30.5 477,-30.5 477,-0.5 353,-0.5"/>
<text text-anchor="start" x="361" y="-18.5" font-family="Helvetica,sans-Serif" font-size="10.00">UI.ChineseSports.Battle.</text>
<text text-anchor="middle" x="415" y="-7.5" font-family="Helvetica,sans-Serif" font-size="10.00">ResultUI.ShowButton</text>
</a>
</g>
</g>
<!-- Node3&#45;&gt;Node4 -->
<g id="edge3" class="edge">
<title>Node3&#45;&gt;Node4</title>
<path fill="none" stroke="midnightblue" d="M313.56,-15.5C323.1,-15.5 333.04,-15.5 342.79,-15.5"/>
<polygon fill="midnightblue" stroke="midnightblue" points="342.86,-19 352.86,-15.5 342.86,-12 342.86,-19"/>
</g>
</g>
</svg>
