<?xml version="1.0" encoding="UTF-8" standalone="no"?>
<!DOCTYPE svg PUBLIC "-//W3C//DTD SVG 1.1//EN"
 "http://www.w3.org/Graphics/SVG/1.1/DTD/svg11.dtd">
<!-- Generated by graphviz version 2.47.1 (20210417.1919)
 -->
<!-- Title: Gameplay.ScienceTree.ScienceTreeNode.Activate Pages: 1 -->
<svg width="369pt" height="88pt"
 viewBox="0.00 0.00 369.00 88.00" xmlns="http://www.w3.org/2000/svg" xmlns:xlink="http://www.w3.org/1999/xlink">
<g id="graph0" class="graph" transform="scale(1 1) rotate(0) translate(4 84)">
<title>Gameplay.ScienceTree.ScienceTreeNode.Activate</title>
<polygon fill="white" stroke="transparent" points="-4,4 -4,-84 365,-84 365,4 -4,4"/>
<!-- Node1 -->
<g id="node1" class="node">
<title>Node1</title>
<g id="a_node1"><a xlink:title="激活">
<polygon fill="#bfbfbf" stroke="black" points="0,-24.5 0,-54.5 156,-54.5 156,-24.5 0,-24.5"/>
<text text-anchor="start" x="8" y="-42.5" font-family="Helvetica,sans-Serif" font-size="10.00">Gameplay.ScienceTree.Science</text>
<text text-anchor="middle" x="78" y="-31.5" font-family="Helvetica,sans-Serif" font-size="10.00">TreeNode.Activate</text>
</a>
</g>
</g>
<!-- Node2 -->
<g id="node2" class="node">
<title>Node2</title>
<g id="a_node2"><a xlink:href="class_gameplay_1_1_science_tree_1_1_science_tree_node.html#ae2fd35a63291789f2e086cd1f6e3ab8f" target="_top" xlink:title="该节点是否可被激活">
<polygon fill="white" stroke="black" points="198.5,-49.5 198.5,-79.5 354.5,-79.5 354.5,-49.5 198.5,-49.5"/>
<text text-anchor="start" x="206.5" y="-67.5" font-family="Helvetica,sans-Serif" font-size="10.00">Gameplay.ScienceTree.Science</text>
<text text-anchor="middle" x="276.5" y="-56.5" font-family="Helvetica,sans-Serif" font-size="10.00">TreeNode.IsActivatable</text>
</a>
</g>
</g>
<!-- Node1&#45;&gt;Node2 -->
<g id="edge1" class="edge">
<title>Node1&#45;&gt;Node2</title>
<path fill="none" stroke="midnightblue" d="M156.1,-49.31C166.61,-50.65 177.46,-52.03 188.14,-53.38"/>
<polygon fill="midnightblue" stroke="midnightblue" points="187.94,-56.89 198.3,-54.68 188.82,-49.94 187.94,-56.89"/>
</g>
<!-- Node3 -->
<g id="node3" class="node">
<title>Node3</title>
<g id="a_node3"><a xlink:href="class_gameplay_1_1_event_system_1_1_global_event_manager.html#ab69dde7bfc1fa1c712fdb3564150a716" target="_top" xlink:title="注册全局事件">
<polygon fill="white" stroke="black" points="192,-0.5 192,-30.5 361,-30.5 361,-0.5 192,-0.5"/>
<text text-anchor="start" x="200" y="-18.5" font-family="Helvetica,sans-Serif" font-size="10.00">Gameplay.EventSystem.Global</text>
<text text-anchor="middle" x="276.5" y="-7.5" font-family="Helvetica,sans-Serif" font-size="10.00">EventManager.RegisterGlobalEvent</text>
</a>
</g>
</g>
<!-- Node1&#45;&gt;Node3 -->
<g id="edge2" class="edge">
<title>Node1&#45;&gt;Node3</title>
<path fill="none" stroke="midnightblue" d="M156.1,-30.08C164.52,-29.05 173.16,-28 181.76,-26.95"/>
<polygon fill="midnightblue" stroke="midnightblue" points="182.31,-30.41 191.81,-25.72 181.46,-23.46 182.31,-30.41"/>
</g>
</g>
</svg>
