<?xml version="1.0" encoding="UTF-8" standalone="no"?>
<!DOCTYPE svg PUBLIC "-//W3C//DTD SVG 1.1//EN"
 "http://www.w3.org/Graphics/SVG/1.1/DTD/svg11.dtd">
<!-- Generated by graphviz version 2.47.1 (20210417.1919)
 -->
<!-- Title: UI.Local.FarmerDispatchUI Pages: 1 -->
<svg width="141pt" height="215pt"
 viewBox="0.00 0.00 141.00 215.00" xmlns="http://www.w3.org/2000/svg" xmlns:xlink="http://www.w3.org/1999/xlink">
<g id="graph0" class="graph" transform="scale(1 1) rotate(0) translate(4 211)">
<title>UI.Local.FarmerDispatchUI</title>
<polygon fill="white" stroke="transparent" points="-4,4 -4,-211 137,-211 137,4 -4,4"/>
<!-- Node1 -->
<g id="node1" class="node">
<title>Node1</title>
<g id="a_node1"><a xlink:title=" ">
<polygon fill="#bfbfbf" stroke="black" points="0,-0.5 0,-112.5 133,-112.5 133,-0.5 0,-0.5"/>
<text text-anchor="middle" x="66.5" y="-100.5" font-family="Helvetica,sans-Serif" font-size="10.00">UI.Local.FarmerDispatchUI</text>
<polyline fill="none" stroke="black" points="0,-93.5 133,-93.5 "/>
<text text-anchor="start" x="8" y="-81.5" font-family="Helvetica,sans-Serif" font-size="10.00">+ Player.Player player</text>
<polyline fill="none" stroke="black" points="0,-74.5 133,-74.5 "/>
<text text-anchor="start" x="8" y="-62.5" font-family="Helvetica,sans-Serif" font-size="10.00">+ void DispatchFood(bool</text>
<text text-anchor="start" x="8" y="-51.5" font-family="Helvetica,sans-Serif" font-size="10.00"> isAdd)</text>
<text text-anchor="start" x="8" y="-40.5" font-family="Helvetica,sans-Serif" font-size="10.00">+ void DispatchGold(bool</text>
<text text-anchor="start" x="8" y="-29.5" font-family="Helvetica,sans-Serif" font-size="10.00"> isAdd)</text>
<text text-anchor="start" x="8" y="-18.5" font-family="Helvetica,sans-Serif" font-size="10.00">+ void DispatchWood(bool</text>
<text text-anchor="start" x="8" y="-7.5" font-family="Helvetica,sans-Serif" font-size="10.00"> isAdd)</text>
</a>
</g>
</g>
<!-- Node2 -->
<g id="node2" class="node">
<title>Node2</title>
<g id="a_node2"><a xlink:title=" ">
<polygon fill="white" stroke="#bfbfbf" points="25,-149.5 25,-206.5 108,-206.5 108,-149.5 25,-149.5"/>
<text text-anchor="middle" x="66.5" y="-194.5" font-family="Helvetica,sans-Serif" font-size="10.00">MonoBehaviour</text>
<polyline fill="none" stroke="#bfbfbf" points="25,-187.5 108,-187.5 "/>
<text text-anchor="middle" x="66.5" y="-175.5" font-family="Helvetica,sans-Serif" font-size="10.00"> </text>
<polyline fill="none" stroke="#bfbfbf" points="25,-168.5 108,-168.5 "/>
<text text-anchor="middle" x="66.5" y="-156.5" font-family="Helvetica,sans-Serif" font-size="10.00"> </text>
</a>
</g>
</g>
<!-- Node2&#45;&gt;Node1 -->
<g id="edge1" class="edge">
<title>Node2&#45;&gt;Node1</title>
<path fill="none" stroke="midnightblue" d="M66.5,-139.11C66.5,-130.75 66.5,-121.73 66.5,-112.83"/>
<polygon fill="none" stroke="midnightblue" points="63,-139.28 66.5,-149.28 70,-139.28 63,-139.28"/>
</g>
</g>
</svg>
