<?xml version="1.0" encoding="UTF-8" standalone="no"?>
<!DOCTYPE svg PUBLIC "-//W3C//DTD SVG 1.1//EN"
 "http://www.w3.org/Graphics/SVG/1.1/DTD/svg11.dtd">
<!-- Generated by graphviz version 2.47.1 (20210417.1919)
 -->
<!-- Title: Player.PlayerOnline_BSide.UpdateRemotePlayerProperties Pages: 1 -->
<svg width="390pt" height="88pt"
 viewBox="0.00 0.00 390.00 88.00" xmlns="http://www.w3.org/2000/svg" xmlns:xlink="http://www.w3.org/1999/xlink">
<g id="graph0" class="graph" transform="scale(1 1) rotate(0) translate(4 84)">
<title>Player.PlayerOnline_BSide.UpdateRemotePlayerProperties</title>
<polygon fill="white" stroke="transparent" points="-4,4 -4,-84 386,-84 386,4 -4,4"/>
<!-- Node1 -->
<g id="node1" class="node">
<title>Node1</title>
<g id="a_node1"><a xlink:title="更新远程玩家信息">
<polygon fill="#bfbfbf" stroke="black" points="194,-24.5 194,-54.5 382,-54.5 382,-24.5 194,-24.5"/>
<text text-anchor="start" x="202" y="-42.5" font-family="Helvetica,sans-Serif" font-size="10.00">Player.PlayerOnline</text>
<text text-anchor="middle" x="288" y="-31.5" font-family="Helvetica,sans-Serif" font-size="10.00">_BSide.UpdateRemotePlayerProperties</text>
</a>
</g>
</g>
<!-- Node2 -->
<g id="node2" class="node">
<title>Node2</title>
<g id="a_node2"><a xlink:href="class_network_1_1_network_player_manager.html#ad53c25c8f56590bee091f5f2858d0a1f" target="_top" xlink:title="玩家数值更新">
<polygon fill="white" stroke="black" points="0,-49.5 0,-79.5 158,-79.5 158,-49.5 0,-49.5"/>
<text text-anchor="start" x="8" y="-67.5" font-family="Helvetica,sans-Serif" font-size="10.00">Network.NetworkPlayerManager.</text>
<text text-anchor="middle" x="79" y="-56.5" font-family="Helvetica,sans-Serif" font-size="10.00">OnPlayerPropertiesUpdate</text>
</a>
</g>
</g>
<!-- Node1&#45;&gt;Node2 -->
<g id="edge1" class="edge">
<title>Node1&#45;&gt;Node2</title>
<path fill="none" stroke="midnightblue" d="M183.71,-51.97C175.12,-53.01 166.51,-54.05 158.15,-55.06"/>
<polygon fill="midnightblue" stroke="midnightblue" points="184.29,-55.43 193.79,-50.76 183.45,-48.48 184.29,-55.43"/>
</g>
<!-- Node3 -->
<g id="node3" class="node">
<title>Node3</title>
<g id="a_node3"><a xlink:href="class_player_1_1_player_online___b_side.html#afa4870049ee6f87dfc1406de6d1c653d" target="_top" xlink:title=" ">
<polygon fill="white" stroke="black" points="27.5,-0.5 27.5,-30.5 130.5,-30.5 130.5,-0.5 27.5,-0.5"/>
<text text-anchor="start" x="35.5" y="-18.5" font-family="Helvetica,sans-Serif" font-size="10.00">Player.PlayerOnline</text>
<text text-anchor="middle" x="79" y="-7.5" font-family="Helvetica,sans-Serif" font-size="10.00">_BSide.Start</text>
</a>
</g>
</g>
<!-- Node1&#45;&gt;Node3 -->
<g id="edge2" class="edge">
<title>Node1&#45;&gt;Node3</title>
<path fill="none" stroke="midnightblue" d="M183.81,-27.54C165.26,-25.39 146.7,-23.23 130.51,-21.36"/>
<polygon fill="midnightblue" stroke="midnightblue" points="183.46,-31.02 193.79,-28.69 184.26,-24.07 183.46,-31.02"/>
</g>
</g>
</svg>
