<?xml version="1.0" encoding="UTF-8" standalone="no"?>
<!DOCTYPE svg PUBLIC "-//W3C//DTD SVG 1.1//EN"
 "http://www.w3.org/Graphics/SVG/1.1/DTD/svg11.dtd">
<!-- Generated by graphviz version 2.47.1 (20210417.1919)
 -->
<!-- Title: UI.Online.UnitDIspatchManagerUIOnline Pages: 1 -->
<svg width="955pt" height="1733pt"
 viewBox="0.00 0.00 954.61 1733.00" xmlns="http://www.w3.org/2000/svg" xmlns:xlink="http://www.w3.org/1999/xlink">
<g id="graph0" class="graph" transform="scale(1 1) rotate(0) translate(4 1729)">
<title>UI.Online.UnitDIspatchManagerUIOnline</title>
<polygon fill="white" stroke="transparent" points="-4,4 -4,-1729 950.61,-1729 950.61,4 -4,4"/>
<!-- Node1 -->
<g id="node1" class="node">
<title>Node1</title>
<g id="a_node1"><a xlink:title=" ">
<polygon fill="#bfbfbf" stroke="black" points="188.61,-11.5 188.61,-79.5 340.61,-79.5 340.61,-11.5 188.61,-11.5"/>
<text text-anchor="start" x="196.61" y="-67.5" font-family="Helvetica,sans-Serif" font-size="10.00">UI.Online.UnitDIspatchManager</text>
<text text-anchor="middle" x="264.61" y="-56.5" font-family="Helvetica,sans-Serif" font-size="10.00">UIOnline</text>
<polyline fill="none" stroke="black" points="188.61,-49.5 340.61,-49.5 "/>
<text text-anchor="start" x="196.61" y="-37.5" font-family="Helvetica,sans-Serif" font-size="10.00">+ Player.Player player</text>
<polyline fill="none" stroke="black" points="188.61,-30.5 340.61,-30.5 "/>
<text text-anchor="middle" x="264.61" y="-18.5" font-family="Helvetica,sans-Serif" font-size="10.00"> </text>
</a>
</g>
</g>
<!-- Node2 -->
<g id="node2" class="node">
<title>Node2</title>
<g id="a_node2"><a xlink:title=" ">
<polygon fill="white" stroke="#bfbfbf" points="193.61,-210 193.61,-267 293.61,-267 293.61,-210 193.61,-210"/>
<text text-anchor="middle" x="243.61" y="-255" font-family="Helvetica,sans-Serif" font-size="10.00">MonoBehaviourPun</text>
<polyline fill="none" stroke="#bfbfbf" points="193.61,-248 293.61,-248 "/>
<text text-anchor="middle" x="243.61" y="-236" font-family="Helvetica,sans-Serif" font-size="10.00"> </text>
<polyline fill="none" stroke="#bfbfbf" points="193.61,-229 293.61,-229 "/>
<text text-anchor="middle" x="243.61" y="-217" font-family="Helvetica,sans-Serif" font-size="10.00"> </text>
</a>
</g>
</g>
<!-- Node2&#45;&gt;Node1 -->
<g id="edge1" class="edge">
<title>Node2&#45;&gt;Node1</title>
<path fill="none" stroke="midnightblue" d="M247.8,-199.44C251.64,-164.46 257.29,-113.14 260.95,-79.77"/>
<polygon fill="none" stroke="midnightblue" points="244.28,-199.4 246.67,-209.73 251.24,-200.17 244.28,-199.4"/>
</g>
<!-- Node3 -->
<g id="node3" class="node">
<title>Node3</title>
<g id="a_node3"><a xlink:href="class_u_i_1_1_local_1_1_unit_dispatch_u_i.html" target="_top" xlink:title=" ">
<polygon fill="white" stroke="black" points="312.11,-166 312.11,-311 463.11,-311 463.11,-166 312.11,-166"/>
<text text-anchor="middle" x="387.61" y="-299" font-family="Helvetica,sans-Serif" font-size="10.00">UI.Local.UnitDispatchUI</text>
<polyline fill="none" stroke="black" points="312.11,-292 463.11,-292 "/>
<text text-anchor="start" x="320.11" y="-280" font-family="Helvetica,sans-Serif" font-size="10.00">+ Button unitRemoveButton</text>
<text text-anchor="start" x="320.11" y="-269" font-family="Helvetica,sans-Serif" font-size="10.00">+ GameObject unitSetIndicator</text>
<text text-anchor="start" x="320.11" y="-258" font-family="Helvetica,sans-Serif" font-size="10.00">+ int unitNumber</text>
<text text-anchor="start" x="320.11" y="-247" font-family="Helvetica,sans-Serif" font-size="10.00">+ int onceMax</text>
<text text-anchor="start" x="320.11" y="-236" font-family="Helvetica,sans-Serif" font-size="10.00">+ readonly Stack&lt; bool</text>
<text text-anchor="start" x="320.11" y="-225" font-family="Helvetica,sans-Serif" font-size="10.00"> &gt; UnitSelectStack</text>
<text text-anchor="start" x="320.11" y="-214" font-family="Helvetica,sans-Serif" font-size="10.00">+ int UnitDispatchNumber</text>
<polyline fill="none" stroke="black" points="312.11,-207 463.11,-207 "/>
<text text-anchor="start" x="320.11" y="-195" font-family="Helvetica,sans-Serif" font-size="10.00">+ void AddClick(bool</text>
<text text-anchor="start" x="320.11" y="-184" font-family="Helvetica,sans-Serif" font-size="10.00"> isFoodAndWood)</text>
<text text-anchor="start" x="320.11" y="-173" font-family="Helvetica,sans-Serif" font-size="10.00">+ void RemoveClick()</text>
</a>
</g>
</g>
<!-- Node3&#45;&gt;Node1 -->
<g id="edge2" class="edge">
<title>Node3&#45;&gt;Node1</title>
<path fill="none" stroke="#404040" d="M341.46,-165.84C324.98,-140.25 306.94,-112.22 292.47,-89.76"/>
<polygon fill="none" stroke="#404040" points="292.39,-89.63 285.78,-86.76 285.89,-79.54 292.5,-82.42 292.39,-89.63"/>
<text text-anchor="middle" x="350.11" y="-112" font-family="Helvetica,sans-Serif" font-size="10.00"> +UnitDispatchUIs</text>
</g>
<!-- Node13 -->
<g id="node13" class="node">
<title>Node13</title>
<g id="a_node13"><a xlink:href="class_u_i_1_1_local_1_1_unit_dispatch_manager_u_i.html" target="_top" xlink:title=" ">
<polygon fill="white" stroke="black" points="677.11,-0.5 677.11,-90.5 834.11,-90.5 834.11,-0.5 677.11,-0.5"/>
<text text-anchor="middle" x="755.61" y="-78.5" font-family="Helvetica,sans-Serif" font-size="10.00">UI.Local.UnitDispatchManagerUI</text>
<polyline fill="none" stroke="black" points="677.11,-71.5 834.11,-71.5 "/>
<text text-anchor="start" x="685.11" y="-59.5" font-family="Helvetica,sans-Serif" font-size="10.00">+ Player.Player player</text>
<text text-anchor="start" x="685.11" y="-48.5" font-family="Helvetica,sans-Serif" font-size="10.00">+ bool IsInDispatching</text>
<polyline fill="none" stroke="black" points="677.11,-41.5 834.11,-41.5 "/>
<text text-anchor="start" x="685.11" y="-29.5" font-family="Helvetica,sans-Serif" font-size="10.00">+ void SetClick(int rdInt)</text>
<text text-anchor="start" x="685.11" y="-18.5" font-family="Helvetica,sans-Serif" font-size="10.00">+ void SetClickWithVelocity</text>
<text text-anchor="start" x="685.11" y="-7.5" font-family="Helvetica,sans-Serif" font-size="10.00">(int rdInt)</text>
</a>
</g>
</g>
<!-- Node3&#45;&gt;Node13 -->
<g id="edge22" class="edge">
<title>Node3&#45;&gt;Node13</title>
<path fill="none" stroke="#404040" d="M406.14,-165.81C414.89,-144.7 427.52,-123.42 445.61,-109 478.95,-82.43 585.9,-65.1 664.89,-55.57"/>
<polygon fill="none" stroke="#404040" points="664.91,-55.57 670.4,-50.9 676.82,-54.17 671.33,-58.84 664.91,-55.57"/>
<text text-anchor="middle" x="485.11" y="-112" font-family="Helvetica,sans-Serif" font-size="10.00"> +UnitDispatchUIs</text>
</g>
<!-- Node4 -->
<g id="node4" class="node">
<title>Node4</title>
<g id="a_node4"><a xlink:title=" ">
<polygon fill="white" stroke="#bfbfbf" points="464.11,-1667.5 464.11,-1724.5 547.11,-1724.5 547.11,-1667.5 464.11,-1667.5"/>
<text text-anchor="middle" x="505.61" y="-1712.5" font-family="Helvetica,sans-Serif" font-size="10.00">MonoBehaviour</text>
<polyline fill="none" stroke="#bfbfbf" points="464.11,-1705.5 547.11,-1705.5 "/>
<text text-anchor="middle" x="505.61" y="-1693.5" font-family="Helvetica,sans-Serif" font-size="10.00"> </text>
<polyline fill="none" stroke="#bfbfbf" points="464.11,-1686.5 547.11,-1686.5 "/>
<text text-anchor="middle" x="505.61" y="-1674.5" font-family="Helvetica,sans-Serif" font-size="10.00"> </text>
</a>
</g>
</g>
<!-- Node4&#45;&gt;Node3 -->
<g id="edge3" class="edge">
<title>Node4&#45;&gt;Node3</title>
<path fill="none" stroke="midnightblue" d="M454.58,-1677.71C432.68,-1667.47 409.26,-1652.08 396.61,-1630 363.63,-1572.43 380.67,-588 386.13,-311.31"/>
<polygon fill="none" stroke="midnightblue" points="453.28,-1680.96 463.84,-1681.79 456.1,-1674.55 453.28,-1680.96"/>
</g>
<!-- Node5 -->
<g id="node5" class="node">
<title>Node5</title>
<g id="a_node5"><a xlink:href="class_player_1_1_player.html" target="_top" xlink:title="玩家">
<polygon fill="white" stroke="black" points="405.61,-967.5 405.61,-1629.5 605.61,-1629.5 605.61,-967.5 405.61,-967.5"/>
<text text-anchor="middle" x="505.61" y="-1617.5" font-family="Helvetica,sans-Serif" font-size="10.00">Player.Player</text>
<polyline fill="none" stroke="black" points="405.61,-1610.5 605.61,-1610.5 "/>
<text text-anchor="start" x="413.61" y="-1598.5" font-family="Helvetica,sans-Serif" font-size="10.00">+ UnityEvent playerDeadEvent</text>
<text text-anchor="start" x="413.61" y="-1587.5" font-family="Helvetica,sans-Serif" font-size="10.00">+ UnityAction updateEventHandler</text>
<text text-anchor="start" x="413.61" y="-1576.5" font-family="Helvetica,sans-Serif" font-size="10.00">+ bool enableFarmer</text>
<text text-anchor="start" x="413.61" y="-1565.5" font-family="Helvetica,sans-Serif" font-size="10.00">+ Transform[] resourceTransform</text>
<text text-anchor="start" x="413.61" y="-1554.5" font-family="Helvetica,sans-Serif" font-size="10.00">+ int[] resourceProduct</text>
<text text-anchor="start" x="413.61" y="-1543.5" font-family="Helvetica,sans-Serif" font-size="10.00">+ float resourceProducingTime</text>
<text text-anchor="start" x="413.61" y="-1532.5" font-family="Helvetica,sans-Serif" font-size="10.00">+ bool isEnemy</text>
<text text-anchor="start" x="413.61" y="-1521.5" font-family="Helvetica,sans-Serif" font-size="10.00">+ int[] availableUnits</text>
<text text-anchor="start" x="413.61" y="-1510.5" font-family="Helvetica,sans-Serif" font-size="10.00">+ List&lt; Unit &gt; UnitsList</text>
<text text-anchor="start" x="413.61" y="-1499.5" font-family="Helvetica,sans-Serif" font-size="10.00">+ int HP</text>
<text text-anchor="start" x="413.61" y="-1488.5" font-family="Helvetica,sans-Serif" font-size="10.00">+ int Food</text>
<text text-anchor="start" x="413.61" y="-1477.5" font-family="Helvetica,sans-Serif" font-size="10.00">+ int Wood</text>
<text text-anchor="start" x="413.61" y="-1466.5" font-family="Helvetica,sans-Serif" font-size="10.00">+ int Gold</text>
<text text-anchor="start" x="413.61" y="-1455.5" font-family="Helvetica,sans-Serif" font-size="10.00">+ Transform Top</text>
<text text-anchor="start" x="413.61" y="-1444.5" font-family="Helvetica,sans-Serif" font-size="10.00">+ Transform Mid</text>
<text text-anchor="start" x="413.61" y="-1433.5" font-family="Helvetica,sans-Serif" font-size="10.00">+ Transform Bot</text>
<text text-anchor="start" x="413.61" y="-1422.5" font-family="Helvetica,sans-Serif" font-size="10.00">+ int MaxFarmerNumber</text>
<text text-anchor="start" x="413.61" y="-1411.5" font-family="Helvetica,sans-Serif" font-size="10.00">+ int FarmerCount</text>
<text text-anchor="start" x="413.61" y="-1400.5" font-family="Helvetica,sans-Serif" font-size="10.00">+ int DispatchableFarmer</text>
<text text-anchor="start" x="413.61" y="-1389.5" font-family="Helvetica,sans-Serif" font-size="10.00">+ int[] RoadFarmers</text>
<text text-anchor="start" x="413.61" y="-1378.5" font-family="Helvetica,sans-Serif" font-size="10.00">+ int[] RoadWorkingFarmers</text>
<polyline fill="none" stroke="black" points="405.61,-1371.5 605.61,-1371.5 "/>
<text text-anchor="start" x="413.61" y="-1359.5" font-family="Helvetica,sans-Serif" font-size="10.00">+ virtual void UpdateLocal</text>
<text text-anchor="start" x="413.61" y="-1348.5" font-family="Helvetica,sans-Serif" font-size="10.00">PlayerProperties()</text>
<text text-anchor="start" x="413.61" y="-1337.5" font-family="Helvetica,sans-Serif" font-size="10.00">+ virtual void ChangeResource</text>
<text text-anchor="start" x="413.61" y="-1326.5" font-family="Helvetica,sans-Serif" font-size="10.00">(GameResourceType gameResourceType,</text>
<text text-anchor="start" x="413.61" y="-1315.5" font-family="Helvetica,sans-Serif" font-size="10.00"> int count)</text>
<text text-anchor="start" x="413.61" y="-1304.5" font-family="Helvetica,sans-Serif" font-size="10.00">+ bool IsEnoughForUnit</text>
<text text-anchor="start" x="413.61" y="-1293.5" font-family="Helvetica,sans-Serif" font-size="10.00">(Unit unit)</text>
<text text-anchor="start" x="413.61" y="-1282.5" font-family="Helvetica,sans-Serif" font-size="10.00">+ bool IsEnoughForUnit</text>
<text text-anchor="start" x="413.61" y="-1271.5" font-family="Helvetica,sans-Serif" font-size="10.00">(Unit unit, GameResourceType</text>
<text text-anchor="start" x="413.61" y="-1260.5" font-family="Helvetica,sans-Serif" font-size="10.00"> gameResourceType)</text>
<text text-anchor="start" x="413.61" y="-1249.5" font-family="Helvetica,sans-Serif" font-size="10.00">+ virtual void AddFarmer</text>
<text text-anchor="start" x="413.61" y="-1238.5" font-family="Helvetica,sans-Serif" font-size="10.00">(GameResourceType rs)</text>
<text text-anchor="start" x="413.61" y="-1227.5" font-family="Helvetica,sans-Serif" font-size="10.00">+ virtual void SubtractFarmer</text>
<text text-anchor="start" x="413.61" y="-1216.5" font-family="Helvetica,sans-Serif" font-size="10.00">(GameResourceType rs)</text>
<text text-anchor="start" x="413.61" y="-1205.5" font-family="Helvetica,sans-Serif" font-size="10.00">+ void InstantiateFarmer</text>
<text text-anchor="start" x="413.61" y="-1194.5" font-family="Helvetica,sans-Serif" font-size="10.00">(Road rd, Transform transform,</text>
<text text-anchor="start" x="413.61" y="-1183.5" font-family="Helvetica,sans-Serif" font-size="10.00"> int resourceCarried)</text>
<text text-anchor="start" x="413.61" y="-1172.5" font-family="Helvetica,sans-Serif" font-size="10.00">+ void FarmerBack(Farmer</text>
<text text-anchor="start" x="413.61" y="-1161.5" font-family="Helvetica,sans-Serif" font-size="10.00"> farmer, Transform tr)</text>
<text text-anchor="start" x="413.61" y="-1150.5" font-family="Helvetica,sans-Serif" font-size="10.00">+ int CountUnits(UnitType</text>
<text text-anchor="start" x="413.61" y="-1139.5" font-family="Helvetica,sans-Serif" font-size="10.00"> type)</text>
<text text-anchor="start" x="413.61" y="-1128.5" font-family="Helvetica,sans-Serif" font-size="10.00">+ void SetUnits(Vector3</text>
<text text-anchor="start" x="413.61" y="-1117.5" font-family="Helvetica,sans-Serif" font-size="10.00"> tr, int chosenUnit,</text>
<text text-anchor="start" x="413.61" y="-1106.5" font-family="Helvetica,sans-Serif" font-size="10.00"> Road rd, int number)</text>
<text text-anchor="start" x="413.61" y="-1095.5" font-family="Helvetica,sans-Serif" font-size="10.00">+ void SetUnits(Vector3</text>
<text text-anchor="start" x="413.61" y="-1084.5" font-family="Helvetica,sans-Serif" font-size="10.00"> tr, int chosenUnit,</text>
<text text-anchor="start" x="413.61" y="-1073.5" font-family="Helvetica,sans-Serif" font-size="10.00"> Road rd, int number,</text>
<text text-anchor="start" x="413.61" y="-1062.5" font-family="Helvetica,sans-Serif" font-size="10.00"> Vector3 oriVelocity)</text>
<text text-anchor="start" x="413.61" y="-1051.5" font-family="Helvetica,sans-Serif" font-size="10.00">+ virtual void Instantiate</text>
<text text-anchor="start" x="413.61" y="-1040.5" font-family="Helvetica,sans-Serif" font-size="10.00">Unit(int chosenUnit, Road</text>
<text text-anchor="start" x="413.61" y="-1029.5" font-family="Helvetica,sans-Serif" font-size="10.00"> rd, Vector3 oriPoint)</text>
<text text-anchor="start" x="413.61" y="-1018.5" font-family="Helvetica,sans-Serif" font-size="10.00">+ virtual void Instantiate</text>
<text text-anchor="start" x="413.61" y="-1007.5" font-family="Helvetica,sans-Serif" font-size="10.00">Unit(int chosenUnit, Road</text>
<text text-anchor="start" x="413.61" y="-996.5" font-family="Helvetica,sans-Serif" font-size="10.00"> rd, Vector3 oriPoint, Vector3</text>
<text text-anchor="start" x="413.61" y="-985.5" font-family="Helvetica,sans-Serif" font-size="10.00"> oriVelocity)</text>
<text text-anchor="start" x="413.61" y="-974.5" font-family="Helvetica,sans-Serif" font-size="10.00"># virtual void Start()</text>
</a>
</g>
</g>
<!-- Node4&#45;&gt;Node5 -->
<g id="edge5" class="edge">
<title>Node4&#45;&gt;Node5</title>
<path fill="none" stroke="midnightblue" d="M505.61,-1657.12C505.61,-1648.98 505.61,-1639.75 505.61,-1629.68"/>
<polygon fill="none" stroke="midnightblue" points="502.11,-1657.19 505.61,-1667.19 509.11,-1657.19 502.11,-1657.19"/>
</g>
<!-- Node7 -->
<g id="node7" class="node">
<title>Node7</title>
<g id="a_node7"><a xlink:href="class_units_1_1_unit.html" target="_top" xlink:title="单位">
<polygon fill="white" stroke="black" points="551.61,-397.5 551.61,-795.5 717.61,-795.5 717.61,-397.5 551.61,-397.5"/>
<text text-anchor="middle" x="634.61" y="-783.5" font-family="Helvetica,sans-Serif" font-size="10.00">Unit</text>
<polyline fill="none" stroke="black" points="551.61,-776.5 717.61,-776.5 "/>
<text text-anchor="start" x="559.61" y="-764.5" font-family="Helvetica,sans-Serif" font-size="10.00">+ int defence</text>
<text text-anchor="start" x="559.61" y="-753.5" font-family="Helvetica,sans-Serif" font-size="10.00">+ bool isUnmovable</text>
<text text-anchor="start" x="559.61" y="-742.5" font-family="Helvetica,sans-Serif" font-size="10.00">+ int playerOwnMax</text>
<text text-anchor="start" x="559.61" y="-731.5" font-family="Helvetica,sans-Serif" font-size="10.00">+ Rigidbody unitRigidbody</text>
<text text-anchor="start" x="559.61" y="-720.5" font-family="Helvetica,sans-Serif" font-size="10.00">+ Road road</text>
<text text-anchor="start" x="559.61" y="-709.5" font-family="Helvetica,sans-Serif" font-size="10.00">+ UnitType unitType</text>
<text text-anchor="start" x="559.61" y="-698.5" font-family="Helvetica,sans-Serif" font-size="10.00">+ int costFood</text>
<text text-anchor="start" x="559.61" y="-687.5" font-family="Helvetica,sans-Serif" font-size="10.00">+ int costWood</text>
<text text-anchor="start" x="559.61" y="-676.5" font-family="Helvetica,sans-Serif" font-size="10.00">+ int costGold</text>
<text text-anchor="start" x="559.61" y="-665.5" font-family="Helvetica,sans-Serif" font-size="10.00">+ bool isDieImmediately</text>
<text text-anchor="start" x="559.61" y="-654.5" font-family="Helvetica,sans-Serif" font-size="10.00">+ int deathReward</text>
<text text-anchor="start" x="559.61" y="-643.5" font-family="Helvetica,sans-Serif" font-size="10.00">+ UnityEvent&lt; GameObject,</text>
<text text-anchor="start" x="559.61" y="-632.5" font-family="Helvetica,sans-Serif" font-size="10.00"> Transform &gt; navStopEventHandler</text>
<text text-anchor="start" x="559.61" y="-621.5" font-family="Helvetica,sans-Serif" font-size="10.00">+ UnityEvent&lt; Player.Player,</text>
<text text-anchor="start" x="559.61" y="-610.5" font-family="Helvetica,sans-Serif" font-size="10.00"> IMilitaryUnit &gt; UnitDeathEvent</text>
<text text-anchor="start" x="559.61" y="-599.5" font-family="Helvetica,sans-Serif" font-size="10.00">Handler</text>
<text text-anchor="start" x="559.61" y="-588.5" font-family="Helvetica,sans-Serif" font-size="10.00">+ int??? HP</text>
<text text-anchor="start" x="559.61" y="-577.5" font-family="Helvetica,sans-Serif" font-size="10.00">+ float Speed</text>
<text text-anchor="start" x="559.61" y="-566.5" font-family="Helvetica,sans-Serif" font-size="10.00">+ Transform InitTarget</text>
<text text-anchor="start" x="559.61" y="-555.5" font-family="Helvetica,sans-Serif" font-size="10.00">+ bool IsAtEnemyDoor</text>
<text text-anchor="start" x="559.61" y="-544.5" font-family="Helvetica,sans-Serif" font-size="10.00"># bool Death</text>
<text text-anchor="start" x="559.61" y="-533.5" font-family="Helvetica,sans-Serif" font-size="10.00"># UnityEvent StartEventHandler</text>
<text text-anchor="start" x="559.61" y="-522.5" font-family="Helvetica,sans-Serif" font-size="10.00"># UnityEvent&lt; IMilitaryUnit</text>
<text text-anchor="start" x="559.61" y="-511.5" font-family="Helvetica,sans-Serif" font-size="10.00"> &gt; BeAttackedEventHandler</text>
<polyline fill="none" stroke="black" points="551.61,-504.5 717.61,-504.5 "/>
<text text-anchor="start" x="559.61" y="-492.5" font-family="Helvetica,sans-Serif" font-size="10.00">+ virtual void Start()</text>
<text text-anchor="start" x="559.61" y="-481.5" font-family="Helvetica,sans-Serif" font-size="10.00">+ virtual void Update()</text>
<text text-anchor="start" x="559.61" y="-470.5" font-family="Helvetica,sans-Serif" font-size="10.00">+ virtual void BeAttacked</text>
<text text-anchor="start" x="559.61" y="-459.5" font-family="Helvetica,sans-Serif" font-size="10.00">(IMilitaryUnit attacker)</text>
<text text-anchor="start" x="559.61" y="-448.5" font-family="Helvetica,sans-Serif" font-size="10.00"># virtual void Awake()</text>
<text text-anchor="start" x="559.61" y="-437.5" font-family="Helvetica,sans-Serif" font-size="10.00"># void Goto(Transform tr)</text>
<text text-anchor="start" x="559.61" y="-426.5" font-family="Helvetica,sans-Serif" font-size="10.00"># static float GetTwoPoint</text>
<text text-anchor="start" x="559.61" y="-415.5" font-family="Helvetica,sans-Serif" font-size="10.00">DistanceOnNav(Vector3</text>
<text text-anchor="start" x="559.61" y="-404.5" font-family="Helvetica,sans-Serif" font-size="10.00"> oriPoint, Vector3 targetPoint)</text>
</a>
</g>
</g>
<!-- Node4&#45;&gt;Node7 -->
<g id="edge8" class="edge">
<title>Node4&#45;&gt;Node7</title>
<path fill="none" stroke="midnightblue" d="M556.45,-1677.07C578.07,-1666.74 601.31,-1651.47 614.61,-1630 774.47,-1371.96 655.05,-1252.33 666.61,-949 668.9,-889.04 671.01,-873.84 666.61,-814 666.17,-807.94 665.65,-801.79 665.08,-795.58"/>
<polygon fill="none" stroke="midnightblue" points="555,-1673.89 547.32,-1681.19 557.88,-1680.26 555,-1673.89"/>
</g>
<!-- Node10 -->
<g id="node10" class="node">
<title>Node10</title>
<g id="a_node10"><a xlink:href="class_units_1_1_unit.html" target="_top" xlink:title="单位">
<polygon fill="white" stroke="black" points="24.61,-397.5 24.61,-795.5 190.61,-795.5 190.61,-397.5 24.61,-397.5"/>
<text text-anchor="middle" x="107.61" y="-783.5" font-family="Helvetica,sans-Serif" font-size="10.00">Units.Unit</text>
<polyline fill="none" stroke="black" points="24.61,-776.5 190.61,-776.5 "/>
<text text-anchor="start" x="32.61" y="-764.5" font-family="Helvetica,sans-Serif" font-size="10.00">+ int defence</text>
<text text-anchor="start" x="32.61" y="-753.5" font-family="Helvetica,sans-Serif" font-size="10.00">+ bool isUnmovable</text>
<text text-anchor="start" x="32.61" y="-742.5" font-family="Helvetica,sans-Serif" font-size="10.00">+ int playerOwnMax</text>
<text text-anchor="start" x="32.61" y="-731.5" font-family="Helvetica,sans-Serif" font-size="10.00">+ Rigidbody unitRigidbody</text>
<text text-anchor="start" x="32.61" y="-720.5" font-family="Helvetica,sans-Serif" font-size="10.00">+ Road road</text>
<text text-anchor="start" x="32.61" y="-709.5" font-family="Helvetica,sans-Serif" font-size="10.00">+ UnitType unitType</text>
<text text-anchor="start" x="32.61" y="-698.5" font-family="Helvetica,sans-Serif" font-size="10.00">+ int costFood</text>
<text text-anchor="start" x="32.61" y="-687.5" font-family="Helvetica,sans-Serif" font-size="10.00">+ int costWood</text>
<text text-anchor="start" x="32.61" y="-676.5" font-family="Helvetica,sans-Serif" font-size="10.00">+ int costGold</text>
<text text-anchor="start" x="32.61" y="-665.5" font-family="Helvetica,sans-Serif" font-size="10.00">+ bool isDieImmediately</text>
<text text-anchor="start" x="32.61" y="-654.5" font-family="Helvetica,sans-Serif" font-size="10.00">+ int deathReward</text>
<text text-anchor="start" x="32.61" y="-643.5" font-family="Helvetica,sans-Serif" font-size="10.00">+ UnityEvent&lt; GameObject,</text>
<text text-anchor="start" x="32.61" y="-632.5" font-family="Helvetica,sans-Serif" font-size="10.00"> Transform &gt; navStopEventHandler</text>
<text text-anchor="start" x="32.61" y="-621.5" font-family="Helvetica,sans-Serif" font-size="10.00">+ UnityEvent&lt; Player.Player,</text>
<text text-anchor="start" x="32.61" y="-610.5" font-family="Helvetica,sans-Serif" font-size="10.00"> IMilitaryUnit &gt; UnitDeathEvent</text>
<text text-anchor="start" x="32.61" y="-599.5" font-family="Helvetica,sans-Serif" font-size="10.00">Handler</text>
<text text-anchor="start" x="32.61" y="-588.5" font-family="Helvetica,sans-Serif" font-size="10.00">+ int??? HP</text>
<text text-anchor="start" x="32.61" y="-577.5" font-family="Helvetica,sans-Serif" font-size="10.00">+ float Speed</text>
<text text-anchor="start" x="32.61" y="-566.5" font-family="Helvetica,sans-Serif" font-size="10.00">+ Transform InitTarget</text>
<text text-anchor="start" x="32.61" y="-555.5" font-family="Helvetica,sans-Serif" font-size="10.00">+ bool IsAtEnemyDoor</text>
<text text-anchor="start" x="32.61" y="-544.5" font-family="Helvetica,sans-Serif" font-size="10.00"># bool Death</text>
<text text-anchor="start" x="32.61" y="-533.5" font-family="Helvetica,sans-Serif" font-size="10.00"># UnityEvent StartEventHandler</text>
<text text-anchor="start" x="32.61" y="-522.5" font-family="Helvetica,sans-Serif" font-size="10.00"># UnityEvent&lt; IMilitaryUnit</text>
<text text-anchor="start" x="32.61" y="-511.5" font-family="Helvetica,sans-Serif" font-size="10.00"> &gt; BeAttackedEventHandler</text>
<polyline fill="none" stroke="black" points="24.61,-504.5 190.61,-504.5 "/>
<text text-anchor="start" x="32.61" y="-492.5" font-family="Helvetica,sans-Serif" font-size="10.00">+ virtual void Start()</text>
<text text-anchor="start" x="32.61" y="-481.5" font-family="Helvetica,sans-Serif" font-size="10.00">+ virtual void Update()</text>
<text text-anchor="start" x="32.61" y="-470.5" font-family="Helvetica,sans-Serif" font-size="10.00">+ virtual void BeAttacked</text>
<text text-anchor="start" x="32.61" y="-459.5" font-family="Helvetica,sans-Serif" font-size="10.00">(IMilitaryUnit attacker)</text>
<text text-anchor="start" x="32.61" y="-448.5" font-family="Helvetica,sans-Serif" font-size="10.00"># virtual void Awake()</text>
<text text-anchor="start" x="32.61" y="-437.5" font-family="Helvetica,sans-Serif" font-size="10.00"># void Goto(Transform tr)</text>
<text text-anchor="start" x="32.61" y="-426.5" font-family="Helvetica,sans-Serif" font-size="10.00"># static float GetTwoPoint</text>
<text text-anchor="start" x="32.61" y="-415.5" font-family="Helvetica,sans-Serif" font-size="10.00">DistanceOnNav(Vector3</text>
<text text-anchor="start" x="32.61" y="-404.5" font-family="Helvetica,sans-Serif" font-size="10.00"> oriPoint, Vector3 targetPoint)</text>
</a>
</g>
</g>
<!-- Node4&#45;&gt;Node10 -->
<g id="edge14" class="edge">
<title>Node4&#45;&gt;Node10</title>
<path fill="none" stroke="midnightblue" d="M453.8,-1693.38C363.77,-1689.36 184.23,-1675.69 144.61,-1630 -53.73,-1401.21 -6.58,-1025.19 48.55,-795.6"/>
<polygon fill="none" stroke="midnightblue" points="453.66,-1696.87 463.8,-1693.8 453.96,-1689.88 453.66,-1696.87"/>
</g>
<!-- Node12 -->
<g id="node12" class="node">
<title>Node12</title>
<g id="a_node12"><a xlink:href="class_u_i_1_1_chinese_sports_1_1_battle_1_1_sprite_indicator_u_i.html" target="_top" xlink:title=" ">
<polygon fill="white" stroke="black" points="205.61,-842 205.61,-921 361.61,-921 361.61,-842 205.61,-842"/>
<text text-anchor="start" x="213.61" y="-909" font-family="Helvetica,sans-Serif" font-size="10.00">UI.ChineseSports.Battle.</text>
<text text-anchor="middle" x="283.61" y="-898" font-family="Helvetica,sans-Serif" font-size="10.00">SpriteIndicatorUI</text>
<polyline fill="none" stroke="black" points="205.61,-891 361.61,-891 "/>
<text text-anchor="start" x="213.61" y="-879" font-family="Helvetica,sans-Serif" font-size="10.00">+ SpriteRenderer spriteRenderer</text>
<text text-anchor="start" x="213.61" y="-868" font-family="Helvetica,sans-Serif" font-size="10.00">+ Sprite UnitSprite</text>
<polyline fill="none" stroke="black" points="205.61,-861 361.61,-861 "/>
<text text-anchor="middle" x="283.61" y="-849" font-family="Helvetica,sans-Serif" font-size="10.00"> </text>
</a>
</g>
</g>
<!-- Node4&#45;&gt;Node12 -->
<g id="edge19" class="edge">
<title>Node4&#45;&gt;Node12</title>
<path fill="none" stroke="midnightblue" d="M453.63,-1692C422.58,-1687.3 385.1,-1675.94 363.61,-1649 268.72,-1530.05 326.13,-1117.33 302.61,-967 300.27,-952 296.81,-935.68 293.49,-921.42"/>
<polygon fill="none" stroke="midnightblue" points="453.52,-1695.52 463.89,-1693.35 454.43,-1688.58 453.52,-1695.52"/>
</g>
<!-- Node4&#45;&gt;Node13 -->
<g id="edge21" class="edge">
<title>Node4&#45;&gt;Node13</title>
<path fill="none" stroke="midnightblue" d="M557.37,-1689.37C632.18,-1680.31 765.65,-1660.36 802.61,-1630 926.42,-1528.3 946.61,-1459.73 946.61,-1299.5 946.61,-1299.5 946.61,-1299.5 946.61,-237.5 946.61,-170.32 886.81,-118.52 834.13,-85.92"/>
<polygon fill="none" stroke="midnightblue" points="556.73,-1685.92 547.21,-1690.58 557.56,-1692.88 556.73,-1685.92"/>
</g>
<!-- Node14 -->
<g id="node14" class="node">
<title>Node14</title>
<g id="a_node14"><a xlink:href="class_u_i_1_1_chinese_sports_1_1_battle_1_1_shoot_calculator_u_i.html" target="_top" xlink:title=" ">
<polygon fill="white" stroke="black" points="767.61,-814.5 767.61,-948.5 931.61,-948.5 931.61,-814.5 767.61,-814.5"/>
<text text-anchor="start" x="775.61" y="-936.5" font-family="Helvetica,sans-Serif" font-size="10.00">UI.ChineseSports.Battle.</text>
<text text-anchor="middle" x="849.61" y="-925.5" font-family="Helvetica,sans-Serif" font-size="10.00">ShootCalculatorUI</text>
<polyline fill="none" stroke="black" points="767.61,-918.5 931.61,-918.5 "/>
<text text-anchor="start" x="775.61" y="-906.5" font-family="Helvetica,sans-Serif" font-size="10.00">+ Rigidbody shootRigidbody</text>
<text text-anchor="start" x="775.61" y="-895.5" font-family="Helvetica,sans-Serif" font-size="10.00">+ Vector3 oriVelocity</text>
<text text-anchor="start" x="775.61" y="-884.5" font-family="Helvetica,sans-Serif" font-size="10.00">+ Vector3 oriPos</text>
<text text-anchor="start" x="775.61" y="-873.5" font-family="Helvetica,sans-Serif" font-size="10.00">+ Vector3 oriScreenPos</text>
<text text-anchor="start" x="775.61" y="-862.5" font-family="Helvetica,sans-Serif" font-size="10.00">+ PhysicMaterial groundMaterial</text>
<text text-anchor="start" x="775.61" y="-851.5" font-family="Helvetica,sans-Serif" font-size="10.00">+ PhysicMaterial wallMaterial</text>
<polyline fill="none" stroke="black" points="767.61,-844.5 931.61,-844.5 "/>
<text text-anchor="start" x="775.61" y="-832.5" font-family="Helvetica,sans-Serif" font-size="10.00">+ void CalculateShootLine</text>
<text text-anchor="start" x="775.61" y="-821.5" font-family="Helvetica,sans-Serif" font-size="10.00">(Vector3 oriPos, int sampleTimes)</text>
</a>
</g>
</g>
<!-- Node4&#45;&gt;Node14 -->
<g id="edge24" class="edge">
<title>Node4&#45;&gt;Node14</title>
<path fill="none" stroke="midnightblue" d="M557.41,-1688.68C606.64,-1681.59 675.87,-1668.49 694.61,-1649 882.7,-1453.39 871.57,-1095.98 857.65,-948.67"/>
<polygon fill="none" stroke="midnightblue" points="556.65,-1685.25 547.23,-1690.1 557.62,-1692.18 556.65,-1685.25"/>
</g>
<!-- Node5&#45;&gt;Node3 -->
<g id="edge4" class="edge">
<title>Node5&#45;&gt;Node3</title>
<path fill="none" stroke="#404040" d="M489.68,-967.32C484.12,-915.71 476.64,-863.2 466.61,-814 464.93,-805.74 462.5,-804.22 460.61,-796 450.26,-750.99 415.2,-467.4 397.71,-323.31"/>
<polygon fill="none" stroke="#404040" points="397.67,-322.99 392.98,-317.52 396.23,-311.08 400.92,-316.55 397.67,-322.99"/>
<text text-anchor="middle" x="478.61" y="-594" font-family="Helvetica,sans-Serif" font-size="10.00"> +player</text>
</g>
<!-- Node5&#45;&gt;Node7 -->
<g id="edge9" class="edge">
<title>Node5&#45;&gt;Node7</title>
<path fill="none" stroke="#404040" d="M585.12,-967.5C586.32,-961.29 587.49,-955.12 588.61,-949 596.99,-903.48 604.41,-854.37 610.72,-807.71"/>
<polygon fill="none" stroke="#404040" points="610.75,-807.48 607.58,-801 612.34,-795.58 615.51,-802.06 610.75,-807.48"/>
<text text-anchor="middle" x="637.11" y="-879" font-family="Helvetica,sans-Serif" font-size="10.00"> +sidePlayer</text>
</g>
<!-- Node5&#45;&gt;Node10 -->
<g id="edge15" class="edge">
<title>Node5&#45;&gt;Node10</title>
<path fill="none" stroke="#404040" d="M415.21,-967.31C391.84,-883.21 372.6,-815.68 370.61,-814 312.6,-764.94 262.49,-840.09 200.61,-796 200.51,-795.92 200.4,-795.85 200.29,-795.77"/>
<polygon fill="none" stroke="#404040" points="200.17,-795.68 192.99,-795.11 190.74,-788.26 197.93,-788.82 200.17,-795.68"/>
<text text-anchor="middle" x="436.11" y="-879" font-family="Helvetica,sans-Serif" font-size="10.00"> +sidePlayer</text>
</g>
<!-- Node6 -->
<g id="node6" class="node">
<title>Node6</title>
<g id="a_node6"><a xlink:href="class_units_1_1_farmer.html" target="_top" xlink:title="农民">
<polygon fill="white" stroke="black" points="654.11,-138.5 654.11,-338.5 805.11,-338.5 805.11,-138.5 654.11,-138.5"/>
<text text-anchor="middle" x="729.61" y="-326.5" font-family="Helvetica,sans-Serif" font-size="10.00">Units.Farmer</text>
<polyline fill="none" stroke="black" points="654.11,-319.5 805.11,-319.5 "/>
<text text-anchor="start" x="662.11" y="-307.5" font-family="Helvetica,sans-Serif" font-size="10.00">+ float workTime</text>
<text text-anchor="start" x="662.11" y="-296.5" font-family="Helvetica,sans-Serif" font-size="10.00">+ int[] maxLoad</text>
<text text-anchor="start" x="662.11" y="-285.5" font-family="Helvetica,sans-Serif" font-size="10.00">+ UnityAction&lt; Farmer,</text>
<text text-anchor="start" x="662.11" y="-274.5" font-family="Helvetica,sans-Serif" font-size="10.00"> Transform &gt; farmerBackEvent</text>
<text text-anchor="start" x="662.11" y="-263.5" font-family="Helvetica,sans-Serif" font-size="10.00">Handler</text>
<text text-anchor="start" x="662.11" y="-252.5" font-family="Helvetica,sans-Serif" font-size="10.00">+ int ResouceCarried</text>
<text text-anchor="start" x="662.11" y="-241.5" font-family="Helvetica,sans-Serif" font-size="10.00"># Transform _home</text>
<text text-anchor="start" x="662.11" y="-230.5" font-family="Helvetica,sans-Serif" font-size="10.00"># Transform _targerResource</text>
<polyline fill="none" stroke="black" points="654.11,-223.5 805.11,-223.5 "/>
<text text-anchor="start" x="662.11" y="-211.5" font-family="Helvetica,sans-Serif" font-size="10.00">+ override void Start()</text>
<text text-anchor="start" x="662.11" y="-200.5" font-family="Helvetica,sans-Serif" font-size="10.00"># void OnNavStop(GameObject</text>
<text text-anchor="start" x="662.11" y="-189.5" font-family="Helvetica,sans-Serif" font-size="10.00"> gm, Transform tr)</text>
<text text-anchor="start" x="662.11" y="-178.5" font-family="Helvetica,sans-Serif" font-size="10.00"># void GenerateWorkPath()</text>
<text text-anchor="start" x="662.11" y="-167.5" font-family="Helvetica,sans-Serif" font-size="10.00"># virtual void Work()</text>
<text text-anchor="start" x="662.11" y="-156.5" font-family="Helvetica,sans-Serif" font-size="10.00"># void Drop(Farmer farmer,</text>
<text text-anchor="start" x="662.11" y="-145.5" font-family="Helvetica,sans-Serif" font-size="10.00"> Transform tr)</text>
</a>
</g>
</g>
<!-- Node6&#45;&gt;Node5 -->
<g id="edge6" class="edge">
<title>Node6&#45;&gt;Node5</title>
<path fill="none" stroke="#404040" d="M739.59,-338.51C748.47,-450.58 755.98,-638.08 726.61,-796 713.32,-867.5 696.93,-882.02 668.61,-949 650.73,-991.31 630.69,-1036.03 610.95,-1078.82"/>
<polygon fill="none" stroke="#404040" points="610.84,-1079.06 611.95,-1086.18 605.8,-1089.95 604.69,-1082.82 610.84,-1079.06"/>
<text text-anchor="middle" x="778.61" y="-594" font-family="Helvetica,sans-Serif" font-size="10.00"> +farmerPrefab</text>
</g>
<!-- Node7&#45;&gt;Node6 -->
<g id="edge7" class="edge">
<title>Node7&#45;&gt;Node6</title>
<path fill="none" stroke="midnightblue" d="M690.12,-387.5C694.61,-370.65 699.01,-354.17 703.14,-338.69"/>
<polygon fill="none" stroke="midnightblue" points="686.66,-386.9 687.46,-397.46 693.42,-388.7 686.66,-386.9"/>
</g>
<!-- Node9 -->
<g id="node9" class="node">
<title>Node9</title>
<g id="a_node9"><a xlink:href="class_units_1_1_door.html" target="_top" xlink:title="基地门">
<polygon fill="white" stroke="black" points="493.61,-204.5 493.61,-272.5 611.61,-272.5 611.61,-204.5 493.61,-204.5"/>
<text text-anchor="middle" x="552.61" y="-260.5" font-family="Helvetica,sans-Serif" font-size="10.00">Units.Door</text>
<polyline fill="none" stroke="black" points="493.61,-253.5 611.61,-253.5 "/>
<text text-anchor="middle" x="552.61" y="-241.5" font-family="Helvetica,sans-Serif" font-size="10.00"> </text>
<polyline fill="none" stroke="black" points="493.61,-234.5 611.61,-234.5 "/>
<text text-anchor="start" x="501.61" y="-222.5" font-family="Helvetica,sans-Serif" font-size="10.00">+ override void Start()</text>
<text text-anchor="start" x="501.61" y="-211.5" font-family="Helvetica,sans-Serif" font-size="10.00">+ override void Update()</text>
</a>
</g>
</g>
<!-- Node7&#45;&gt;Node9 -->
<g id="edge12" class="edge">
<title>Node7&#45;&gt;Node9</title>
<path fill="none" stroke="midnightblue" d="M586.72,-387.56C576.4,-342.76 566.68,-300.56 560.27,-272.76"/>
<polygon fill="none" stroke="midnightblue" points="583.34,-388.5 589,-397.46 590.16,-386.93 583.34,-388.5"/>
</g>
<!-- Node8 -->
<g id="node8" class="node">
<title>Node8</title>
<g id="a_node8"><a xlink:href="interface_units_1_1_i_military_unit.html" target="_top" xlink:title="攻击性单位接口">
<polygon fill="white" stroke="black" points="153.61,-1209.5 153.61,-1387.5 293.61,-1387.5 293.61,-1209.5 153.61,-1209.5"/>
<text text-anchor="middle" x="223.61" y="-1375.5" font-family="Helvetica,sans-Serif" font-size="10.00">Units.IMilitaryUnit</text>
<polyline fill="none" stroke="black" points="153.61,-1368.5 293.61,-1368.5 "/>
<text text-anchor="start" x="161.61" y="-1356.5" font-family="Helvetica,sans-Serif" font-size="10.00">+ int AttackValue</text>
<text text-anchor="start" x="161.61" y="-1345.5" font-family="Helvetica,sans-Serif" font-size="10.00">+ float AttackColdDownTime</text>
<text text-anchor="start" x="161.61" y="-1334.5" font-family="Helvetica,sans-Serif" font-size="10.00">+ float AttackRange</text>
<text text-anchor="start" x="161.61" y="-1323.5" font-family="Helvetica,sans-Serif" font-size="10.00">+ int DefenceValue</text>
<text text-anchor="start" x="161.61" y="-1312.5" font-family="Helvetica,sans-Serif" font-size="10.00">+ float SpeedValue</text>
<text text-anchor="start" x="161.61" y="-1301.5" font-family="Helvetica,sans-Serif" font-size="10.00">+ Vector3 OriginalVelocity</text>
<text text-anchor="start" x="161.61" y="-1290.5" font-family="Helvetica,sans-Serif" font-size="10.00">+ Player.Player SidePlayer</text>
<text text-anchor="start" x="161.61" y="-1279.5" font-family="Helvetica,sans-Serif" font-size="10.00">+ UnityEvent&lt; Unit &gt;</text>
<text text-anchor="start" x="161.61" y="-1268.5" font-family="Helvetica,sans-Serif" font-size="10.00"> AttackEvent</text>
<text text-anchor="start" x="161.61" y="-1257.5" font-family="Helvetica,sans-Serif" font-size="10.00">+ UnityEvent&lt; IMilitaryUnit</text>
<text text-anchor="start" x="161.61" y="-1246.5" font-family="Helvetica,sans-Serif" font-size="10.00"> &gt; UnderAttackedEvent</text>
<polyline fill="none" stroke="black" points="153.61,-1239.5 293.61,-1239.5 "/>
<text text-anchor="start" x="161.61" y="-1227.5" font-family="Helvetica,sans-Serif" font-size="10.00">+ void Attack()</text>
<text text-anchor="start" x="161.61" y="-1216.5" font-family="Helvetica,sans-Serif" font-size="10.00">+ Unit GetUnit()</text>
</a>
</g>
</g>
<!-- Node8&#45;&gt;Node7 -->
<g id="edge10" class="edge">
<title>Node8&#45;&gt;Node7</title>
<path fill="none" stroke="#404040" d="M247.57,-1209.13C272.55,-1133.78 319.1,-1028.21 396.61,-967 422.16,-946.82 442.46,-969.67 467.61,-949 471.52,-945.79 508.31,-868.67 546.37,-787.49"/>
<polygon fill="none" stroke="#404040" points="546.41,-787.41 545.33,-780.28 551.5,-776.54 552.58,-783.67 546.41,-787.41"/>
<text text-anchor="middle" x="554.11" y="-879" font-family="Helvetica,sans-Serif" font-size="10.00"> #_attacker</text>
</g>
<!-- Node8&#45;&gt;Node10 -->
<g id="edge16" class="edge">
<title>Node8&#45;&gt;Node10</title>
<path fill="none" stroke="#404040" d="M201.75,-1209.17C185.02,-1139.01 162.37,-1038.2 147.61,-949 140.07,-903.43 133.51,-854.3 128,-807.64"/>
<polygon fill="none" stroke="#404040" points="127.98,-807.43 123.31,-801.93 126.59,-795.51 131.25,-801.01 127.98,-807.43"/>
<text text-anchor="middle" x="172.11" y="-879" font-family="Helvetica,sans-Serif" font-size="10.00"> #_attacker</text>
</g>
<!-- Node9&#45;&gt;Node5 -->
<g id="edge11" class="edge">
<title>Node9&#45;&gt;Node5</title>
<path fill="none" stroke="#404040" d="M542.31,-272.58C533.02,-304.18 520.03,-353.31 514.61,-397 501.61,-501.88 499.83,-747.11 501.05,-955.21"/>
<polygon fill="none" stroke="#404040" points="501.05,-955.28 505.08,-961.26 501.12,-967.28 497.08,-961.31 501.05,-955.28"/>
<text text-anchor="middle" x="528.61" y="-594" font-family="Helvetica,sans-Serif" font-size="10.00"> +door</text>
</g>
<!-- Node10&#45;&gt;Node3 -->
<g id="edge13" class="edge">
<title>Node10&#45;&gt;Node3</title>
<path fill="none" stroke="#404040" d="M143.1,-397.38C151.78,-382.26 162.47,-368.46 175.61,-357 218.59,-319.54 252.65,-366.45 302.61,-339 312.12,-333.78 321.03,-327.05 329.25,-319.54"/>
<polygon fill="none" stroke="#404040" points="329.29,-319.51 330.79,-312.46 337.88,-311.14 336.37,-318.19 329.29,-319.51"/>
<text text-anchor="middle" x="188.11" y="-365.5" font-family="Helvetica,sans-Serif" font-size="10.00"> +unit</text>
</g>
<!-- Node11 -->
<g id="node11" class="node">
<title>Node11</title>
<g id="a_node11"><a xlink:title=" ">
<polygon fill="white" stroke="#bfbfbf" points="209.11,-568 209.11,-625 244.11,-625 244.11,-568 209.11,-568"/>
<text text-anchor="middle" x="226.61" y="-613" font-family="Helvetica,sans-Serif" font-size="10.00">Text</text>
<polyline fill="none" stroke="#bfbfbf" points="209.11,-606 244.11,-606 "/>
<text text-anchor="middle" x="226.61" y="-594" font-family="Helvetica,sans-Serif" font-size="10.00"> </text>
<polyline fill="none" stroke="#bfbfbf" points="209.11,-587 244.11,-587 "/>
<text text-anchor="middle" x="226.61" y="-575" font-family="Helvetica,sans-Serif" font-size="10.00"> </text>
</a>
</g>
</g>
<!-- Node11&#45;&gt;Node3 -->
<g id="edge17" class="edge">
<title>Node11&#45;&gt;Node3</title>
<path fill="none" stroke="#404040" d="M222.5,-567.66C214.03,-508.21 196.47,-372.93 209.61,-357 236.4,-324.53 266.24,-360.19 302.61,-339 311.74,-333.68 320.36,-327.01 328.35,-319.66"/>
<polygon fill="none" stroke="#404040" points="328.52,-319.49 330.01,-312.44 337.1,-311.1 335.6,-318.16 328.52,-319.49"/>
<text text-anchor="middle" x="247.11" y="-371" font-family="Helvetica,sans-Serif" font-size="10.00"> +resourceText</text>
<text text-anchor="middle" x="247.11" y="-360" font-family="Helvetica,sans-Serif" font-size="10.00">+unitNumberText</text>
</g>
<!-- Node12&#45;&gt;Node3 -->
<g id="edge18" class="edge">
<title>Node12&#45;&gt;Node3</title>
<path fill="none" stroke="#404040" d="M278.02,-841.91C267.35,-758.67 248.98,-556.86 294.61,-397 302.02,-371.05 314.76,-344.97 328.47,-321.71"/>
<polygon fill="none" stroke="#404040" points="328.6,-321.49 328.29,-314.29 334.83,-311.23 335.14,-318.44 328.6,-321.49"/>
<text text-anchor="middle" x="334.11" y="-594" font-family="Helvetica,sans-Serif" font-size="10.00"> +spriteIndicatorUI</text>
</g>
<!-- Node13&#45;&gt;Node3 -->
<g id="edge20" class="edge">
<title>Node13&#45;&gt;Node3</title>
<path fill="none" stroke="#404040" d="M676.96,-70.99C603.08,-94.32 501.42,-127.42 484.61,-138 475.47,-143.76 466.55,-150.55 458.07,-157.83"/>
<polygon fill="none" stroke="#404040" points="457.98,-157.91 456.18,-164.89 449.04,-165.9 450.84,-158.92 457.98,-157.91"/>
<text text-anchor="middle" x="601.11" y="-112" font-family="Helvetica,sans-Serif" font-size="10.00"> +dispatchManagerUI</text>
</g>
<!-- Node14&#45;&gt;Node13 -->
<g id="edge23" class="edge">
<title>Node14&#45;&gt;Node13</title>
<path fill="none" stroke="#404040" d="M850.87,-814.24C853.16,-656.54 854.56,-262.75 814.61,-138 810.55,-125.32 804.26,-112.69 797.27,-101.04"/>
<polygon fill="none" stroke="#404040" points="797.11,-100.8 790.53,-97.86 790.7,-90.65 797.29,-93.59 797.11,-100.8"/>
<text text-anchor="middle" x="887.61" y="-365.5" font-family="Helvetica,sans-Serif" font-size="10.00"> +shootCalculatorUI</text>
</g>
</g>
</svg>
