<?xml version="1.0" encoding="UTF-8" standalone="no"?>
<!DOCTYPE svg PUBLIC "-//W3C//DTD SVG 1.1//EN"
 "http://www.w3.org/Graphics/SVG/1.1/DTD/svg11.dtd">
<!-- Generated by graphviz version 2.47.1 (20210417.1919)
 -->
<!-- Title: UI.ChineseSports.Start.StartVideoUI Pages: 1 -->
<svg width="167pt" height="226pt"
 viewBox="0.00 0.00 167.00 226.00" xmlns="http://www.w3.org/2000/svg" xmlns:xlink="http://www.w3.org/1999/xlink">
<g id="graph0" class="graph" transform="scale(1 1) rotate(0) translate(4 222)">
<title>UI.ChineseSports.Start.StartVideoUI</title>
<polygon fill="white" stroke="transparent" points="-4,4 -4,-222 163,-222 163,4 -4,4"/>
<!-- Node1 -->
<g id="node1" class="node">
<title>Node1</title>
<g id="a_node1"><a xlink:title=" ">
<polygon fill="#bfbfbf" stroke="black" points="0,-0.5 0,-123.5 159,-123.5 159,-0.5 0,-0.5"/>
<text text-anchor="start" x="8" y="-111.5" font-family="Helvetica,sans-Serif" font-size="10.00">UI.ChineseSports.Start.Start</text>
<text text-anchor="middle" x="79.5" y="-100.5" font-family="Helvetica,sans-Serif" font-size="10.00">VideoUI</text>
<polyline fill="none" stroke="black" points="0,-93.5 159,-93.5 "/>
<text text-anchor="start" x="8" y="-81.5" font-family="Helvetica,sans-Serif" font-size="10.00">+ VideoClip formerVideo</text>
<text text-anchor="start" x="8" y="-70.5" font-family="Helvetica,sans-Serif" font-size="10.00">+ VideoClip loopVideo</text>
<text text-anchor="start" x="8" y="-59.5" font-family="Helvetica,sans-Serif" font-size="10.00">+ VideoPlayer videoPlayer</text>
<text text-anchor="start" x="8" y="-48.5" font-family="Helvetica,sans-Serif" font-size="10.00">+ GameObject[] startUIElements</text>
<text text-anchor="start" x="8" y="-37.5" font-family="Helvetica,sans-Serif" font-size="10.00">+ UnityEvent videoEndEvent</text>
<polyline fill="none" stroke="black" points="0,-30.5 159,-30.5 "/>
<text text-anchor="start" x="8" y="-18.5" font-family="Helvetica,sans-Serif" font-size="10.00">+ void Start()</text>
<text text-anchor="start" x="8" y="-7.5" font-family="Helvetica,sans-Serif" font-size="10.00">+ void ForceStop()</text>
</a>
</g>
</g>
<!-- Node2 -->
<g id="node2" class="node">
<title>Node2</title>
<g id="a_node2"><a xlink:title=" ">
<polygon fill="white" stroke="#bfbfbf" points="38,-160.5 38,-217.5 121,-217.5 121,-160.5 38,-160.5"/>
<text text-anchor="middle" x="79.5" y="-205.5" font-family="Helvetica,sans-Serif" font-size="10.00">MonoBehaviour</text>
<polyline fill="none" stroke="#bfbfbf" points="38,-198.5 121,-198.5 "/>
<text text-anchor="middle" x="79.5" y="-186.5" font-family="Helvetica,sans-Serif" font-size="10.00"> </text>
<polyline fill="none" stroke="#bfbfbf" points="38,-179.5 121,-179.5 "/>
<text text-anchor="middle" x="79.5" y="-167.5" font-family="Helvetica,sans-Serif" font-size="10.00"> </text>
</a>
</g>
</g>
<!-- Node2&#45;&gt;Node1 -->
<g id="edge1" class="edge">
<title>Node2&#45;&gt;Node1</title>
<path fill="none" stroke="midnightblue" d="M79.5,-150.1C79.5,-141.74 79.5,-132.68 79.5,-123.67"/>
<polygon fill="none" stroke="midnightblue" points="76,-150.26 79.5,-160.26 83,-150.26 76,-150.26"/>
</g>
</g>
</svg>
