<?xml version="1.0" encoding="UTF-8" standalone="no"?>
<!DOCTYPE svg PUBLIC "-//W3C//DTD SVG 1.1//EN"
 "http://www.w3.org/Graphics/SVG/1.1/DTD/svg11.dtd">
<!-- Generated by graphviz version 2.47.1 (20210417.1919)
 -->
<!-- Title: UI.ChineseSports.Main.ScrollUI Pages: 1 -->
<!--zoomable 813 -->
<svg id="main" version="1.1" xmlns="http://www.w3.org/2000/svg" xmlns:xlink="http://www.w3.org/1999/xlink" xml:space="preserve" onload="init(evt)">
<style type="text/css"><![CDATA[
.edge:hover path { stroke: red; }
.edge:hover polygon { stroke: red; fill: red; }
]]></style>
<script type="text/javascript"><![CDATA[
var edges = document.getElementsByTagName('g');
if (edges && edges.length) {
  for (var i=0;i<edges.length;i++) {
    if (edges[i].id.substr(0,4)=='edge') {
      edges[i].setAttribute('class','edge');
    }
  }
}
]]></script>
        <defs>
                <circle id="rim" cx="0" cy="0" r="7"/>
                <circle id="rim2" cx="0" cy="0" r="3.5"/>
                <g id="zoomPlus">
                        <use xlink:href="#rim" fill="#404040">
                                <set attributeName="fill" to="#808080" begin="zoomplus.mouseover" end="zoomplus.mouseout"/>
                        </use>
                        <path d="M-4,0h8M0,-4v8" fill="none" stroke="white" stroke-width="1.5" pointer-events="none"/>
                </g>
                <g id="zoomMin">
                        <use xlink:href="#rim" fill="#404040">
                                <set attributeName="fill" to="#808080" begin="zoomminus.mouseover" end="zoomminus.mouseout"/>
                        </use>
                        <path d="M-4,0h8" fill="none" stroke="white" stroke-width="1.5" pointer-events="none"/>
                </g>
                <g id="dirArrow">
                        <path fill="none" stroke="white" stroke-width="1.5" d="M0,-3.0v7 M-2.5,-0.5L0,-3.0L2.5,-0.5"/>
                </g>
               <g id="resetDef">
                       <use xlink:href="#rim2" fill="#404040">
                               <set attributeName="fill" to="#808080" begin="reset.mouseover" end="reset.mouseout"/>
                       </use>
               </g>
        </defs>

<script type="text/javascript">
var viewWidth = 413;
var viewHeight = 813;
var sectionId = 'dynsection-1';
</script>
<script xlink:href="svgpan.js"/>
<svg id="graph" class="graph">
<g id="viewport">
<title>UI.ChineseSports.Main.ScrollUI</title>
<polygon fill="white" stroke="transparent" points="-4,4 -4,-809 408.82,-809 408.82,4 -4,4"/>
<!-- Node1 -->
<g id="node1" class="node">
<title>Node1</title>
<g id="a_node1"><a xlink:title=" ">
<polygon fill="#bfbfbf" stroke="black" points="44.32,-0.5 44.32,-167.5 197.32,-167.5 197.32,-0.5 44.32,-0.5"/>
<text text-anchor="middle" x="120.82" y="-155.5" font-family="Helvetica,sans-Serif" font-size="10.00">UI.ChineseSports.Main.ScrollUI</text>
<polyline fill="none" stroke="black" points="44.32,-148.5 197.32,-148.5 "/>
<text text-anchor="start" x="52.32" y="-136.5" font-family="Helvetica,sans-Serif" font-size="10.00">+ Animator scrollAnimator</text>
<text text-anchor="start" x="52.32" y="-125.5" font-family="Helvetica,sans-Serif" font-size="10.00">+ float fillAmount</text>
<text text-anchor="start" x="52.32" y="-114.5" font-family="Helvetica,sans-Serif" font-size="10.00">+ string sceneName</text>
<text text-anchor="start" x="52.32" y="-103.5" font-family="Helvetica,sans-Serif" font-size="10.00">+ Image titleImage</text>
<text text-anchor="start" x="52.32" y="-92.5" font-family="Helvetica,sans-Serif" font-size="10.00">+ Sprite titleSprite</text>
<text text-anchor="start" x="52.32" y="-81.5" font-family="Helvetica,sans-Serif" font-size="10.00">+ string TitleName</text>
<text text-anchor="start" x="52.32" y="-70.5" font-family="Helvetica,sans-Serif" font-size="10.00">+ Sprite TitleSprite</text>
<polyline fill="none" stroke="black" points="44.32,-63.5 197.32,-63.5 "/>
<text text-anchor="start" x="52.32" y="-51.5" font-family="Helvetica,sans-Serif" font-size="10.00">+ void SetFillBar()</text>
<text text-anchor="start" x="52.32" y="-40.5" font-family="Helvetica,sans-Serif" font-size="10.00">+ void Close()</text>
<text text-anchor="start" x="52.32" y="-29.5" font-family="Helvetica,sans-Serif" font-size="10.00">+ void LoadBattle()</text>
<text text-anchor="start" x="52.32" y="-18.5" font-family="Helvetica,sans-Serif" font-size="10.00">+ void ShowVideo()</text>
<text text-anchor="start" x="52.32" y="-7.5" font-family="Helvetica,sans-Serif" font-size="10.00">+ void StopVideo()</text>
</a>
</g>
</g>
<!-- Node2 -->
<g id="node2" class="node">
<title>Node2</title>
<g id="a_node2"><a xlink:title=" ">
<polygon fill="white" stroke="#bfbfbf" points="100.32,-747.5 100.32,-804.5 183.32,-804.5 183.32,-747.5 100.32,-747.5"/>
<text text-anchor="middle" x="141.82" y="-792.5" font-family="Helvetica,sans-Serif" font-size="10.00">MonoBehaviour</text>
<polyline fill="none" stroke="#bfbfbf" points="100.32,-785.5 183.32,-785.5 "/>
<text text-anchor="middle" x="141.82" y="-773.5" font-family="Helvetica,sans-Serif" font-size="10.00"> </text>
<polyline fill="none" stroke="#bfbfbf" points="100.32,-766.5 183.32,-766.5 "/>
<text text-anchor="middle" x="141.82" y="-754.5" font-family="Helvetica,sans-Serif" font-size="10.00"> </text>
</a>
</g>
</g>
<!-- Node2&#45;&gt;Node1 -->
<g id="edge1" class="edge">
<title>Node2&#45;&gt;Node1</title>
<path fill="none" stroke="midnightblue" d="M115.29,-738.87C107.32,-726.91 99.05,-713.26 92.82,-700 22.24,-549.57 -22.1,-497.67 11.82,-335 24,-276.6 50.6,-215.12 74.47,-167.75"/>
<polygon fill="none" stroke="midnightblue" points="112.48,-740.96 121.01,-747.25 118.27,-737.02 112.48,-740.96"/>
</g>
<!-- Node3 -->
<g id="node3" class="node">
<title>Node3</title>
<g id="a_node3"><a xlink:href="class_u_i_1_1_fill_bar_u_i.html" target="_top" xlink:title=" ">
<polygon fill="white" stroke="black" points="13.32,-335.5 13.32,-436.5 158.32,-436.5 158.32,-335.5 13.32,-335.5"/>
<text text-anchor="middle" x="85.82" y="-424.5" font-family="Helvetica,sans-Serif" font-size="10.00">UI.FillBarUI</text>
<polyline fill="none" stroke="black" points="13.32,-417.5 158.32,-417.5 "/>
<text text-anchor="start" x="21.32" y="-405.5" font-family="Helvetica,sans-Serif" font-size="10.00">+ Image fillImage</text>
<text text-anchor="start" x="21.32" y="-394.5" font-family="Helvetica,sans-Serif" font-size="10.00">+ RectTransform flag</text>
<text text-anchor="start" x="21.32" y="-383.5" font-family="Helvetica,sans-Serif" font-size="10.00">+ RectTransform flagStartPos</text>
<text text-anchor="start" x="21.32" y="-372.5" font-family="Helvetica,sans-Serif" font-size="10.00">+ RectTransform flagEndPos</text>
<text text-anchor="start" x="21.32" y="-361.5" font-family="Helvetica,sans-Serif" font-size="10.00">+ float? FillAmount</text>
<polyline fill="none" stroke="black" points="13.32,-354.5 158.32,-354.5 "/>
<text text-anchor="start" x="21.32" y="-342.5" font-family="Helvetica,sans-Serif" font-size="10.00">+ void SetFill()</text>
</a>
</g>
</g>
<!-- Node2&#45;&gt;Node3 -->
<g id="edge3" class="edge">
<title>Node2&#45;&gt;Node3</title>
<path fill="none" stroke="midnightblue" d="M136.37,-737.21C126.2,-666.74 104.34,-515.29 92.99,-436.66"/>
<polygon fill="none" stroke="midnightblue" points="132.95,-738.01 137.84,-747.41 139.88,-737.01 132.95,-738.01"/>
</g>
<!-- Node5 -->
<g id="node5" class="node">
<title>Node5</title>
<g id="a_node5"><a xlink:href="class_video_1_1_video_player_manager.html" target="_top" xlink:title="视频播放管理">
<polygon fill="white" stroke="black" points="126.82,-215.5 126.82,-316.5 260.82,-316.5 260.82,-215.5 126.82,-215.5"/>
<text text-anchor="middle" x="193.82" y="-304.5" font-family="Helvetica,sans-Serif" font-size="10.00">Video.VideoPlayerManager</text>
<polyline fill="none" stroke="black" points="126.82,-297.5 260.82,-297.5 "/>
<text text-anchor="start" x="134.82" y="-285.5" font-family="Helvetica,sans-Serif" font-size="10.00">+ VideoPlayer videoPlayer</text>
<text text-anchor="start" x="134.82" y="-274.5" font-family="Helvetica,sans-Serif" font-size="10.00">+ RawImage rawImage</text>
<text text-anchor="start" x="134.82" y="-263.5" font-family="Helvetica,sans-Serif" font-size="10.00">+ string videoClipName</text>
<polyline fill="none" stroke="black" points="126.82,-256.5 260.82,-256.5 "/>
<text text-anchor="start" x="134.82" y="-244.5" font-family="Helvetica,sans-Serif" font-size="10.00">+ void Play()</text>
<text text-anchor="start" x="134.82" y="-233.5" font-family="Helvetica,sans-Serif" font-size="10.00">+ void Pause()</text>
<text text-anchor="start" x="134.82" y="-222.5" font-family="Helvetica,sans-Serif" font-size="10.00">+ void Stop()</text>
</a>
</g>
</g>
<!-- Node2&#45;&gt;Node5 -->
<g id="edge6" class="edge">
<title>Node2&#45;&gt;Node5</title>
<path fill="none" stroke="midnightblue" d="M145.95,-737.23C146.25,-734.45 146.54,-731.68 146.82,-729 162.62,-578.86 180.45,-401.18 188.89,-316.58"/>
<polygon fill="none" stroke="midnightblue" points="142.46,-736.96 144.87,-747.27 149.42,-737.71 142.46,-736.96"/>
</g>
<!-- Node6 -->
<g id="node6" class="node">
<title>Node6</title>
<g id="a_node6"><a xlink:href="class_u_i_1_1_chinese_sports_1_1_battle_1_1_result_u_i.html" target="_top" xlink:title=" ">
<polygon fill="white" stroke="black" points="188.82,-455.5 188.82,-699.5 336.82,-699.5 336.82,-455.5 188.82,-455.5"/>
<text text-anchor="start" x="196.82" y="-687.5" font-family="Helvetica,sans-Serif" font-size="10.00">UI.ChineseSports.Battle.</text>
<text text-anchor="middle" x="262.82" y="-676.5" font-family="Helvetica,sans-Serif" font-size="10.00">ResultUI</text>
<polyline fill="none" stroke="black" points="188.82,-669.5 336.82,-669.5 "/>
<text text-anchor="start" x="196.82" y="-657.5" font-family="Helvetica,sans-Serif" font-size="10.00">+ bool isWin</text>
<text text-anchor="start" x="196.82" y="-646.5" font-family="Helvetica,sans-Serif" font-size="10.00">+ GameObject resultPanel</text>
<text text-anchor="start" x="196.82" y="-635.5" font-family="Helvetica,sans-Serif" font-size="10.00">+ GameObject winPanel</text>
<text text-anchor="start" x="196.82" y="-624.5" font-family="Helvetica,sans-Serif" font-size="10.00">+ GameObject losePanel</text>
<text text-anchor="start" x="196.82" y="-613.5" font-family="Helvetica,sans-Serif" font-size="10.00">+ List&lt; ItemDict &gt; itemDicts</text>
<text text-anchor="start" x="196.82" y="-602.5" font-family="Helvetica,sans-Serif" font-size="10.00">+ Image itemImage</text>
<text text-anchor="start" x="196.82" y="-591.5" font-family="Helvetica,sans-Serif" font-size="10.00">+ GameObject itemPanel</text>
<text text-anchor="start" x="196.82" y="-580.5" font-family="Helvetica,sans-Serif" font-size="10.00">+ GameObject root</text>
<text text-anchor="start" x="196.82" y="-569.5" font-family="Helvetica,sans-Serif" font-size="10.00">+ GameObject nextButton</text>
<text text-anchor="start" x="196.82" y="-558.5" font-family="Helvetica,sans-Serif" font-size="10.00">+ GameObject backButton</text>
<text text-anchor="start" x="196.82" y="-547.5" font-family="Helvetica,sans-Serif" font-size="10.00">+ GameObject videoManager</text>
<text text-anchor="start" x="196.82" y="-536.5" font-family="Helvetica,sans-Serif" font-size="10.00">+ UnityEvent onWinResultEnd</text>
<text text-anchor="start" x="196.82" y="-525.5" font-family="Helvetica,sans-Serif" font-size="10.00">+ int? CurState</text>
<polyline fill="none" stroke="black" points="188.82,-518.5 336.82,-518.5 "/>
<text text-anchor="start" x="196.82" y="-506.5" font-family="Helvetica,sans-Serif" font-size="10.00">+ void ShowResult()</text>
<text text-anchor="start" x="196.82" y="-495.5" font-family="Helvetica,sans-Serif" font-size="10.00">+ void BackToLobby()</text>
<text text-anchor="start" x="196.82" y="-484.5" font-family="Helvetica,sans-Serif" font-size="10.00">+ void BackToMap()</text>
<text text-anchor="start" x="196.82" y="-473.5" font-family="Helvetica,sans-Serif" font-size="10.00">+ void OnNextClick()</text>
<text text-anchor="start" x="196.82" y="-462.5" font-family="Helvetica,sans-Serif" font-size="10.00">+ void ShowButton()</text>
</a>
</g>
</g>
<!-- Node2&#45;&gt;Node6 -->
<g id="edge8" class="edge">
<title>Node2&#45;&gt;Node6</title>
<path fill="none" stroke="midnightblue" d="M168.39,-738.62C170.61,-735.39 172.78,-732.15 174.82,-729 180.92,-719.61 187.09,-709.78 193.19,-699.85"/>
<polygon fill="none" stroke="midnightblue" points="165.35,-736.87 162.49,-747.07 171.09,-740.87 165.35,-736.87"/>
</g>
<!-- Node3&#45;&gt;Node1 -->
<g id="edge2" class="edge">
<title>Node3&#45;&gt;Node1</title>
<path fill="none" stroke="#404040" d="M86.56,-335.36C87.53,-301.37 89.75,-255.32 94.82,-215 96.28,-203.44 98.18,-191.37 100.28,-179.44"/>
<polygon fill="none" stroke="#404040" points="100.29,-179.38 97.43,-172.76 102.45,-167.58 105.3,-174.2 100.29,-179.38"/>
<text text-anchor="middle" x="106.32" y="-263.5" font-family="Helvetica,sans-Serif" font-size="10.00"> +bar</text>
</g>
<!-- Node4 -->
<g id="node4" class="node">
<title>Node4</title>
<g id="a_node4"><a xlink:title=" ">
<polygon fill="white" stroke="#bfbfbf" points="299.32,-747.5 299.32,-804.5 334.32,-804.5 334.32,-747.5 299.32,-747.5"/>
<text text-anchor="middle" x="316.82" y="-792.5" font-family="Helvetica,sans-Serif" font-size="10.00">Text</text>
<polyline fill="none" stroke="#bfbfbf" points="299.32,-785.5 334.32,-785.5 "/>
<text text-anchor="middle" x="316.82" y="-773.5" font-family="Helvetica,sans-Serif" font-size="10.00"> </text>
<polyline fill="none" stroke="#bfbfbf" points="299.32,-766.5 334.32,-766.5 "/>
<text text-anchor="middle" x="316.82" y="-754.5" font-family="Helvetica,sans-Serif" font-size="10.00"> </text>
</a>
</g>
</g>
<!-- Node4&#45;&gt;Node1 -->
<g id="edge4" class="edge">
<title>Node4&#45;&gt;Node1</title>
<path fill="none" stroke="#404040" d="M334.41,-756.87C340.89,-748.97 347.47,-739.19 350.82,-729 352.35,-724.36 350.87,-722.89 350.82,-718 348.55,-478.71 407.94,-380 267.82,-186 252.02,-164.12 229.94,-145.44 207.69,-130.3"/>
<polygon fill="none" stroke="#404040" points="207.51,-130.18 200.3,-130.24 197.48,-123.6 204.69,-123.55 207.51,-130.18"/>
<text text-anchor="middle" x="382.82" y="-383.5" font-family="Helvetica,sans-Serif" font-size="10.00"> +titleText</text>
</g>
<!-- Node4&#45;&gt;Node6 -->
<g id="edge9" class="edge">
<title>Node4&#45;&gt;Node6</title>
<path fill="none" stroke="#404040" d="M299.25,-759.22C291.31,-751.04 282.65,-740.37 277.82,-729 275.42,-723.33 273.33,-717.43 271.51,-711.4"/>
<polygon fill="none" stroke="#404040" points="271.47,-711.25 266.05,-706.49 268.36,-699.66 273.78,-704.42 271.47,-711.25"/>
<text text-anchor="middle" x="314.32" y="-721" font-family="Helvetica,sans-Serif" font-size="10.00"> +itemNameText</text>
</g>
<!-- Node5&#45;&gt;Node1 -->
<g id="edge5" class="edge">
<title>Node5&#45;&gt;Node1</title>
<path fill="none" stroke="#404040" d="M173.68,-215.34C169.1,-204.02 164.07,-191.64 159.01,-179.15"/>
<polygon fill="none" stroke="#404040" points="158.86,-178.79 152.9,-174.74 154.35,-167.67 160.31,-171.73 158.86,-178.79"/>
<text text-anchor="middle" x="215.32" y="-189" font-family="Helvetica,sans-Serif" font-size="10.00"> +videoPlayerManager</text>
</g>
<!-- Node6&#45;&gt;Node5 -->
<g id="edge7" class="edge">
<title>Node6&#45;&gt;Node5</title>
<path fill="none" stroke="#404040" d="M235.75,-455.07C226.08,-411.7 215.6,-364.68 207.53,-328.49"/>
<polygon fill="none" stroke="#404040" points="207.51,-328.37 202.3,-323.39 204.9,-316.66 210.11,-321.65 207.51,-328.37"/>
<text text-anchor="middle" x="252.32" y="-383.5" font-family="Helvetica,sans-Serif" font-size="10.00"> +resultUI</text>
</g>
</g>
</svg>
        <g id="navigator" transform="translate(0 0)" fill="#404254">
                <rect fill="#f2f5e9" fill-opacity="0.5" stroke="#606060" stroke-width=".5" x="0" y="0" width="60" height="60"/>
                <use id="zoomplus" xlink:href="#zoomPlus" x="17" y="9" onmousedown="handleZoom(evt,'in')"/>
                <use id="zoomminus" xlink:href="#zoomMin" x="42" y="9" onmousedown="handleZoom(evt,'out')"/>
                <use id="reset" xlink:href="#resetDef" x="30" y="36" onmousedown="handleReset()"/>
                <g id="arrowUp" xlink:href="#dirArrow" transform="translate(30 24)" onmousedown="handlePan(0,-1)">
                  <use xlink:href="#rim" fill="#404040">
                        <set attributeName="fill" to="#808080" begin="arrowUp.mouseover" end="arrowUp.mouseout"/>
                  </use>
                  <path fill="none" stroke="white" stroke-width="1.5" d="M0,-3.0v7 M-2.5,-0.5L0,-3.0L2.5,-0.5"/>
                </g>
                <g id="arrowRight" xlink:href="#dirArrow" transform="rotate(90) translate(36 -43)" onmousedown="handlePan(1,0)">
                  <use xlink:href="#rim" fill="#404040">
                        <set attributeName="fill" to="#808080" begin="arrowRight.mouseover" end="arrowRight.mouseout"/>
                  </use>
                  <path fill="none" stroke="white" stroke-width="1.5" d="M0,-3.0v7 M-2.5,-0.5L0,-3.0L2.5,-0.5"/>
                </g>
                <g id="arrowDown" xlink:href="#dirArrow" transform="rotate(180) translate(-30 -48)" onmousedown="handlePan(0,1)">
                  <use xlink:href="#rim" fill="#404040">
                        <set attributeName="fill" to="#808080" begin="arrowDown.mouseover" end="arrowDown.mouseout"/>
                  </use>
                  <path fill="none" stroke="white" stroke-width="1.5" d="M0,-3.0v7 M-2.5,-0.5L0,-3.0L2.5,-0.5"/>
                </g>
                <g id="arrowLeft" xlink:href="#dirArrow" transform="rotate(270) translate(-36 17)" onmousedown="handlePan(-1,0)">
                  <use xlink:href="#rim" fill="#404040">
                        <set attributeName="fill" to="#808080" begin="arrowLeft.mouseover" end="arrowLeft.mouseout"/>
                  </use>
                  <path fill="none" stroke="white" stroke-width="1.5" d="M0,-3.0v7 M-2.5,-0.5L0,-3.0L2.5,-0.5"/>
                </g>
        </g>
        <svg viewBox="0 0 15 15" width="100%" height="30px" preserveAspectRatio="xMaxYMin meet">
         <g id="arrow_out" transform="scale(0.3 0.3)">
          <a xlink:href="class_u_i_1_1_chinese_sports_1_1_main_1_1_scroll_u_i__coll__graph_org.svg" target="_base">
           <rect id="button" ry="5" rx="5" y="6" x="6" height="38" width="38"
                fill="#f2f5e9" fill-opacity="0.5" stroke="#606060" stroke-width="1.0"/>
           <path id="arrow"
             d="M 11.500037,31.436501 C 11.940474,20.09759 22.043105,11.32322 32.158766,21.979434 L 37.068811,17.246167 C 37.068811,17.246167 37.088388,32 37.088388,32 L 22.160133,31.978069 C 22.160133,31.978069 26.997745,27.140456 26.997745,27.140456 C 18.528582,18.264221 13.291696,25.230495 11.500037,31.436501 z"
             style="fill:#404040;"/>
          </a>
         </g>
        </svg>
</svg>
