<?xml version="1.0" encoding="UTF-8" standalone="no"?>
<!DOCTYPE svg PUBLIC "-//W3C//DTD SVG 1.1//EN"
 "http://www.w3.org/Graphics/SVG/1.1/DTD/svg11.dtd">
<!-- Generated by graphviz version 2.47.1 (20210417.1919)
 -->
<!-- Title: UI.ChineseSports.Start.StartUI Pages: 1 -->
<svg width="254pt" height="343pt"
 viewBox="0.00 0.00 254.00 343.00" xmlns="http://www.w3.org/2000/svg" xmlns:xlink="http://www.w3.org/1999/xlink">
<g id="graph0" class="graph" transform="scale(1 1) rotate(0) translate(4 339)">
<title>UI.ChineseSports.Start.StartUI</title>
<polygon fill="white" stroke="transparent" points="-4,4 -4,-339 250,-339 250,4 -4,4"/>
<!-- Node1 -->
<g id="node1" class="node">
<title>Node1</title>
<g id="a_node1"><a xlink:title=" ">
<polygon fill="#bfbfbf" stroke="black" points="0,-0.5 0,-68.5 149,-68.5 149,-0.5 0,-0.5"/>
<text text-anchor="middle" x="74.5" y="-56.5" font-family="Helvetica,sans-Serif" font-size="10.00">UI.ChineseSports.Start.StartUI</text>
<polyline fill="none" stroke="black" points="0,-49.5 149,-49.5 "/>
<text text-anchor="start" x="8" y="-37.5" font-family="Helvetica,sans-Serif" font-size="10.00">+ Button skipButton</text>
<polyline fill="none" stroke="black" points="0,-30.5 149,-30.5 "/>
<text text-anchor="start" x="8" y="-18.5" font-family="Helvetica,sans-Serif" font-size="10.00">+ void InitToMap()</text>
<text text-anchor="start" x="8" y="-7.5" font-family="Helvetica,sans-Serif" font-size="10.00">+ void SkipVideo()</text>
</a>
</g>
</g>
<!-- Node2 -->
<g id="node2" class="node">
<title>Node2</title>
<g id="a_node2"><a xlink:title=" ">
<polygon fill="white" stroke="#bfbfbf" points="29,-277.5 29,-334.5 112,-334.5 112,-277.5 29,-277.5"/>
<text text-anchor="middle" x="70.5" y="-322.5" font-family="Helvetica,sans-Serif" font-size="10.00">MonoBehaviour</text>
<polyline fill="none" stroke="#bfbfbf" points="29,-315.5 112,-315.5 "/>
<text text-anchor="middle" x="70.5" y="-303.5" font-family="Helvetica,sans-Serif" font-size="10.00"> </text>
<polyline fill="none" stroke="#bfbfbf" points="29,-296.5 112,-296.5 "/>
<text text-anchor="middle" x="70.5" y="-284.5" font-family="Helvetica,sans-Serif" font-size="10.00"> </text>
</a>
</g>
</g>
<!-- Node2&#45;&gt;Node1 -->
<g id="edge1" class="edge">
<title>Node2&#45;&gt;Node1</title>
<path fill="none" stroke="midnightblue" d="M71.06,-267.12C71.85,-214.19 73.26,-118.96 74.01,-68.68"/>
<polygon fill="none" stroke="midnightblue" points="67.56,-267.37 70.91,-277.43 74.56,-267.48 67.56,-267.37"/>
</g>
<!-- Node3 -->
<g id="node3" class="node">
<title>Node3</title>
<g id="a_node3"><a xlink:href="class_u_i_1_1_chinese_sports_1_1_start_1_1_start_video_u_i.html" target="_top" xlink:title=" ">
<polygon fill="white" stroke="black" points="87,-116.5 87,-239.5 246,-239.5 246,-116.5 87,-116.5"/>
<text text-anchor="start" x="95" y="-227.5" font-family="Helvetica,sans-Serif" font-size="10.00">UI.ChineseSports.Start.Start</text>
<text text-anchor="middle" x="166.5" y="-216.5" font-family="Helvetica,sans-Serif" font-size="10.00">VideoUI</text>
<polyline fill="none" stroke="black" points="87,-209.5 246,-209.5 "/>
<text text-anchor="start" x="95" y="-197.5" font-family="Helvetica,sans-Serif" font-size="10.00">+ VideoClip formerVideo</text>
<text text-anchor="start" x="95" y="-186.5" font-family="Helvetica,sans-Serif" font-size="10.00">+ VideoClip loopVideo</text>
<text text-anchor="start" x="95" y="-175.5" font-family="Helvetica,sans-Serif" font-size="10.00">+ VideoPlayer videoPlayer</text>
<text text-anchor="start" x="95" y="-164.5" font-family="Helvetica,sans-Serif" font-size="10.00">+ GameObject[] startUIElements</text>
<text text-anchor="start" x="95" y="-153.5" font-family="Helvetica,sans-Serif" font-size="10.00">+ UnityEvent videoEndEvent</text>
<polyline fill="none" stroke="black" points="87,-146.5 246,-146.5 "/>
<text text-anchor="start" x="95" y="-134.5" font-family="Helvetica,sans-Serif" font-size="10.00">+ void Start()</text>
<text text-anchor="start" x="95" y="-123.5" font-family="Helvetica,sans-Serif" font-size="10.00">+ void ForceStop()</text>
</a>
</g>
</g>
<!-- Node2&#45;&gt;Node3 -->
<g id="edge3" class="edge">
<title>Node2&#45;&gt;Node3</title>
<path fill="none" stroke="midnightblue" d="M97.8,-269.17C104.83,-259.95 112.59,-249.76 120.29,-239.65"/>
<polygon fill="none" stroke="midnightblue" points="94.84,-267.27 91.57,-277.35 100.41,-271.52 94.84,-267.27"/>
</g>
<!-- Node3&#45;&gt;Node1 -->
<g id="edge2" class="edge">
<title>Node3&#45;&gt;Node1</title>
<path fill="none" stroke="#404040" d="M126.95,-116.17C118.82,-103.67 110.42,-90.74 102.78,-79"/>
<polygon fill="none" stroke="#404040" points="102.56,-78.66 95.94,-75.81 96.02,-68.6 102.64,-71.45 102.56,-78.66"/>
<text text-anchor="middle" x="146" y="-90" font-family="Helvetica,sans-Serif" font-size="10.00"> +startVideoUI</text>
</g>
</g>
</svg>
