<?xml version="1.0" encoding="UTF-8" standalone="no"?>
<!DOCTYPE svg PUBLIC "-//W3C//DTD SVG 1.1//EN"
 "http://www.w3.org/Graphics/SVG/1.1/DTD/svg11.dtd">
<!-- Generated by graphviz version 2.47.1 (20210417.1919)
 -->
<!-- Title: UI.ChineseSports.Main.ItemUI Pages: 1 -->
<svg width="292pt" height="485pt"
 viewBox="0.00 0.00 291.50 485.00" xmlns="http://www.w3.org/2000/svg" xmlns:xlink="http://www.w3.org/1999/xlink">
<g id="graph0" class="graph" transform="scale(1 1) rotate(0) translate(4 481)">
<title>UI.ChineseSports.Main.ItemUI</title>
<polygon fill="white" stroke="transparent" points="-4,4 -4,-481 287.5,-481 287.5,4 -4,4"/>
<!-- Node1 -->
<g id="node1" class="node">
<title>Node1</title>
<g id="a_node1"><a xlink:title=" ">
<polygon fill="#bfbfbf" stroke="black" points="22,-0.5 22,-178.5 177,-178.5 177,-0.5 22,-0.5"/>
<text text-anchor="middle" x="99.5" y="-166.5" font-family="Helvetica,sans-Serif" font-size="10.00">UI.ChineseSports.Main.ItemUI</text>
<polyline fill="none" stroke="black" points="22,-159.5 177,-159.5 "/>
<text text-anchor="start" x="30" y="-147.5" font-family="Helvetica,sans-Serif" font-size="10.00">+ Sprite itemSprite</text>
<text text-anchor="start" x="30" y="-136.5" font-family="Helvetica,sans-Serif" font-size="10.00">+ Image itemImage</text>
<text text-anchor="start" x="30" y="-125.5" font-family="Helvetica,sans-Serif" font-size="10.00">+ Color unrevealedColor</text>
<text text-anchor="start" x="30" y="-114.5" font-family="Helvetica,sans-Serif" font-size="10.00">+ Button button</text>
<text text-anchor="start" x="30" y="-103.5" font-family="Helvetica,sans-Serif" font-size="10.00">+ GameObject unrevealedGame</text>
<text text-anchor="start" x="30" y="-92.5" font-family="Helvetica,sans-Serif" font-size="10.00">Object</text>
<text text-anchor="start" x="30" y="-81.5" font-family="Helvetica,sans-Serif" font-size="10.00">+ ObjectType objectType</text>
<text text-anchor="start" x="30" y="-70.5" font-family="Helvetica,sans-Serif" font-size="10.00">+ int itemIndex</text>
<text text-anchor="start" x="30" y="-59.5" font-family="Helvetica,sans-Serif" font-size="10.00">+ AudioClip logAudio</text>
<text text-anchor="start" x="30" y="-48.5" font-family="Helvetica,sans-Serif" font-size="10.00">+ bool? IsRevealed</text>
<text text-anchor="start" x="30" y="-37.5" font-family="Helvetica,sans-Serif" font-size="10.00">+ string???? ItemName</text>
<polyline fill="none" stroke="black" points="22,-30.5 177,-30.5 "/>
<text text-anchor="start" x="30" y="-18.5" font-family="Helvetica,sans-Serif" font-size="10.00">+ void Set()</text>
<text text-anchor="start" x="30" y="-7.5" font-family="Helvetica,sans-Serif" font-size="10.00">+ void ShowContent()</text>
</a>
</g>
</g>
<!-- Node2 -->
<g id="node2" class="node">
<title>Node2</title>
<g id="a_node2"><a xlink:title=" ">
<polygon fill="white" stroke="#bfbfbf" points="0,-419.5 0,-476.5 83,-476.5 83,-419.5 0,-419.5"/>
<text text-anchor="middle" x="41.5" y="-464.5" font-family="Helvetica,sans-Serif" font-size="10.00">MonoBehaviour</text>
<polyline fill="none" stroke="#bfbfbf" points="0,-457.5 83,-457.5 "/>
<text text-anchor="middle" x="41.5" y="-445.5" font-family="Helvetica,sans-Serif" font-size="10.00"> </text>
<polyline fill="none" stroke="#bfbfbf" points="0,-438.5 83,-438.5 "/>
<text text-anchor="middle" x="41.5" y="-426.5" font-family="Helvetica,sans-Serif" font-size="10.00"> </text>
</a>
</g>
</g>
<!-- Node2&#45;&gt;Node1 -->
<g id="edge1" class="edge">
<title>Node2&#45;&gt;Node1</title>
<path fill="none" stroke="midnightblue" d="M26.97,-409.41C21.96,-394.57 16.99,-377.21 14.5,-361 5.41,-301.69 -2.09,-283.66 14.5,-226 19.15,-209.85 26.34,-193.77 34.63,-178.63"/>
<polygon fill="none" stroke="midnightblue" points="23.81,-410.96 30.42,-419.24 30.41,-408.64 23.81,-410.96"/>
</g>
<!-- Node4 -->
<g id="node4" class="node">
<title>Node4</title>
<g id="a_node4"><a xlink:href="class_u_i_1_1_chinese_sports_1_1_main_1_1_item_content_u_i.html" target="_top" xlink:title=" ">
<polygon fill="white" stroke="black" points="23.5,-226.5 23.5,-360.5 175.5,-360.5 175.5,-226.5 23.5,-226.5"/>
<text text-anchor="start" x="31.5" y="-348.5" font-family="Helvetica,sans-Serif" font-size="10.00">UI.ChineseSports.Main.Item</text>
<text text-anchor="middle" x="99.5" y="-337.5" font-family="Helvetica,sans-Serif" font-size="10.00">ContentUI</text>
<polyline fill="none" stroke="black" points="23.5,-330.5 175.5,-330.5 "/>
<text text-anchor="start" x="31.5" y="-318.5" font-family="Helvetica,sans-Serif" font-size="10.00">+ Image itemImage</text>
<text text-anchor="start" x="31.5" y="-307.5" font-family="Helvetica,sans-Serif" font-size="10.00">+ AudioSource logAudioSource</text>
<text text-anchor="start" x="31.5" y="-296.5" font-family="Helvetica,sans-Serif" font-size="10.00">+ AudioClip logAudio</text>
<text text-anchor="start" x="31.5" y="-285.5" font-family="Helvetica,sans-Serif" font-size="10.00">+ string ItemName</text>
<text text-anchor="start" x="31.5" y="-274.5" font-family="Helvetica,sans-Serif" font-size="10.00">+ string ItemContent</text>
<text text-anchor="start" x="31.5" y="-263.5" font-family="Helvetica,sans-Serif" font-size="10.00">+ Sprite ItemSprite</text>
<polyline fill="none" stroke="black" points="23.5,-256.5 175.5,-256.5 "/>
<text text-anchor="start" x="31.5" y="-244.5" font-family="Helvetica,sans-Serif" font-size="10.00">+ void SetContent()</text>
<text text-anchor="start" x="31.5" y="-233.5" font-family="Helvetica,sans-Serif" font-size="10.00">+ void Close()</text>
</a>
</g>
</g>
<!-- Node2&#45;&gt;Node4 -->
<g id="edge4" class="edge">
<title>Node2&#45;&gt;Node4</title>
<path fill="none" stroke="midnightblue" d="M55.56,-410.03C61.22,-395.14 67.93,-377.51 74.38,-360.56"/>
<polygon fill="none" stroke="midnightblue" points="52.29,-408.79 52,-419.38 58.83,-411.28 52.29,-408.79"/>
</g>
<!-- Node3 -->
<g id="node3" class="node">
<title>Node3</title>
<g id="a_node3"><a xlink:title=" ">
<polygon fill="white" stroke="#bfbfbf" points="122,-419.5 122,-476.5 157,-476.5 157,-419.5 122,-419.5"/>
<text text-anchor="middle" x="139.5" y="-464.5" font-family="Helvetica,sans-Serif" font-size="10.00">Text</text>
<polyline fill="none" stroke="#bfbfbf" points="122,-457.5 157,-457.5 "/>
<text text-anchor="middle" x="139.5" y="-445.5" font-family="Helvetica,sans-Serif" font-size="10.00"> </text>
<polyline fill="none" stroke="#bfbfbf" points="122,-438.5 157,-438.5 "/>
<text text-anchor="middle" x="139.5" y="-426.5" font-family="Helvetica,sans-Serif" font-size="10.00"> </text>
</a>
</g>
</g>
<!-- Node3&#45;&gt;Node1 -->
<g id="edge2" class="edge">
<title>Node3&#45;&gt;Node1</title>
<path fill="none" stroke="#404040" d="M157.06,-438.65C170.89,-431 189.17,-418.24 197.5,-401 209.16,-376.87 247.71,-524.91 184.5,-226 181.91,-213.75 177.59,-201.61 172.24,-189.92"/>
<polygon fill="none" stroke="#404040" points="172.1,-189.64 165.87,-186.02 166.82,-178.87 173.05,-182.49 172.1,-189.64"/>
<text text-anchor="middle" x="247" y="-291" font-family="Helvetica,sans-Serif" font-size="10.00"> +itemNameText</text>
</g>
<!-- Node3&#45;&gt;Node4 -->
<g id="edge5" class="edge">
<title>Node3&#45;&gt;Node4</title>
<path fill="none" stroke="#404040" d="M123.98,-419.35C121.15,-413.44 118.47,-407.12 116.5,-401 113.57,-391.88 111.13,-382.14 109.1,-372.41"/>
<polygon fill="none" stroke="#404040" points="109.09,-372.36 104.03,-367.22 106.83,-360.57 111.89,-365.71 109.09,-372.36"/>
<text text-anchor="middle" x="157" y="-393" font-family="Helvetica,sans-Serif" font-size="10.00"> +itemContentText</text>
<text text-anchor="middle" x="157" y="-382" font-family="Helvetica,sans-Serif" font-size="10.00">+itemNameText</text>
</g>
<!-- Node4&#45;&gt;Node1 -->
<g id="edge3" class="edge">
<title>Node4&#45;&gt;Node1</title>
<path fill="none" stroke="#404040" d="M99.5,-226.36C99.5,-214.97 99.5,-202.9 99.5,-190.85"/>
<polygon fill="none" stroke="#404040" points="99.5,-190.82 95.5,-184.82 99.5,-178.82 103.5,-184.82 99.5,-190.82"/>
<text text-anchor="middle" x="135" y="-200" font-family="Helvetica,sans-Serif" font-size="10.00"> +itemContentUI</text>
</g>
</g>
</svg>
