<?xml version="1.0" encoding="UTF-8" standalone="no"?>
<!DOCTYPE svg PUBLIC "-//W3C//DTD SVG 1.1//EN"
 "http://www.w3.org/Graphics/SVG/1.1/DTD/svg11.dtd">
<!-- Generated by graphviz version 2.47.1 (20210417.1919)
 -->
<!-- Title: UI.Online.FarmerDispatchUIOnline.DispatchWood Pages: 1 -->
<svg width="318pt" height="66pt"
 viewBox="0.00 0.00 318.00 66.00" xmlns="http://www.w3.org/2000/svg" xmlns:xlink="http://www.w3.org/1999/xlink">
<g id="graph0" class="graph" transform="scale(1 1) rotate(0) translate(4 62)">
<title>UI.Online.FarmerDispatchUIOnline.DispatchWood</title>
<polygon fill="white" stroke="transparent" points="-4,4 -4,-62 314,-62 314,4 -4,4"/>
<!-- Node1 -->
<g id="node1" class="node">
<title>Node1</title>
<g id="a_node1"><a xlink:title=" ">
<polygon fill="#bfbfbf" stroke="black" points="0,-14 0,-44 128,-44 128,-14 0,-14"/>
<text text-anchor="start" x="8" y="-32" font-family="Helvetica,sans-Serif" font-size="10.00">UI.Online.FarmerDispatch</text>
<text text-anchor="middle" x="64" y="-21" font-family="Helvetica,sans-Serif" font-size="10.00">UIOnline.DispatchWood</text>
</a>
</g>
</g>
<!-- Node2 -->
<g id="node2" class="node">
<title>Node2</title>
<g id="a_node2"><a xlink:href="class_player_1_1_player.html#ae903d2ee26dd2ecdaed6e580eb89348d" target="_top" xlink:title="增加一条路的农民分配">
<polygon fill="white" stroke="black" points="174,-38.5 174,-57.5 300,-57.5 300,-38.5 174,-38.5"/>
<text text-anchor="middle" x="237" y="-45.5" font-family="Helvetica,sans-Serif" font-size="10.00">Player.Player.AddFarmer</text>
</a>
</g>
</g>
<!-- Node1&#45;&gt;Node2 -->
<g id="edge1" class="edge">
<title>Node1&#45;&gt;Node2</title>
<path fill="none" stroke="midnightblue" d="M128.19,-36.02C139.74,-37.3 151.88,-38.65 163.67,-39.96"/>
<polygon fill="midnightblue" stroke="midnightblue" points="163.6,-43.48 173.93,-41.1 164.37,-36.52 163.6,-43.48"/>
</g>
<!-- Node3 -->
<g id="node3" class="node">
<title>Node3</title>
<g id="a_node3"><a xlink:href="class_player_1_1_player.html#a5afc99ce48af004fdcbd060eb57509a5" target="_top" xlink:title="减少一条路的农民分配">
<polygon fill="white" stroke="black" points="164,-0.5 164,-19.5 310,-19.5 310,-0.5 164,-0.5"/>
<text text-anchor="middle" x="237" y="-7.5" font-family="Helvetica,sans-Serif" font-size="10.00">Player.Player.SubtractFarmer</text>
</a>
</g>
</g>
<!-- Node1&#45;&gt;Node3 -->
<g id="edge2" class="edge">
<title>Node1&#45;&gt;Node3</title>
<path fill="none" stroke="midnightblue" d="M128.19,-21.98C136.53,-21.05 145.18,-20.09 153.78,-19.14"/>
<polygon fill="midnightblue" stroke="midnightblue" points="154.29,-22.6 163.84,-18.02 153.51,-15.64 154.29,-22.6"/>
</g>
</g>
</svg>
