<?xml version="1.0" encoding="UTF-8" standalone="no"?>
<!DOCTYPE svg PUBLIC "-//W3C//DTD SVG 1.1//EN"
 "http://www.w3.org/Graphics/SVG/1.1/DTD/svg11.dtd">
<!-- Generated by graphviz version 2.47.1 (20210417.1919)
 -->
<!-- Title: Saver.DataTransfer Pages: 1 -->
<svg width="185pt" height="336pt"
 viewBox="0.00 0.00 185.00 336.00" xmlns="http://www.w3.org/2000/svg" xmlns:xlink="http://www.w3.org/1999/xlink">
<g id="graph0" class="graph" transform="scale(1 1) rotate(0) translate(4 332)">
<title>Saver.DataTransfer</title>
<polygon fill="white" stroke="transparent" points="-4,4 -4,-332 181,-332 181,4 -4,4"/>
<!-- Node1 -->
<g id="node1" class="node">
<title>Node1</title>
<g id="a_node1"><a xlink:title="数据传输">
<polygon fill="#bfbfbf" stroke="black" points="0,-0.5 0,-233.5 177,-233.5 177,-0.5 0,-0.5"/>
<text text-anchor="middle" x="88.5" y="-221.5" font-family="Helvetica,sans-Serif" font-size="10.00">Saver.DataTransfer</text>
<polyline fill="none" stroke="black" points="0,-214.5 177,-214.5 "/>
<text text-anchor="start" x="8" y="-202.5" font-family="Helvetica,sans-Serif" font-size="10.00">+ TutorialManager tutorial</text>
<text text-anchor="start" x="8" y="-191.5" font-family="Helvetica,sans-Serif" font-size="10.00">Manager</text>
<text text-anchor="start" x="8" y="-180.5" font-family="Helvetica,sans-Serif" font-size="10.00">+ List&lt; bool &gt; itemRevealedList</text>
<text text-anchor="start" x="8" y="-169.5" font-family="Helvetica,sans-Serif" font-size="10.00">+ List&lt; UnitDict &gt; unitList</text>
<text text-anchor="start" x="8" y="-158.5" font-family="Helvetica,sans-Serif" font-size="10.00">+ List&lt; bool &gt; characterRevealedList</text>
<text text-anchor="start" x="8" y="-147.5" font-family="Helvetica,sans-Serif" font-size="10.00">+ List&lt; bool &gt; characterUnlockedList</text>
<text text-anchor="start" x="8" y="-136.5" font-family="Helvetica,sans-Serif" font-size="10.00">+ List&lt; bool &gt; levelRevealedList</text>
<text text-anchor="start" x="8" y="-125.5" font-family="Helvetica,sans-Serif" font-size="10.00">+ List&lt; Quiz.Quiz &gt; quizList</text>
<text text-anchor="start" x="8" y="-114.5" font-family="Helvetica,sans-Serif" font-size="10.00">+ XMLSaver xmlSaver</text>
<text text-anchor="start" x="8" y="-103.5" font-family="Helvetica,sans-Serif" font-size="10.00">+ XMLReader xmlReader</text>
<text text-anchor="start" x="8" y="-92.5" font-family="Helvetica,sans-Serif" font-size="10.00">+ string nextLoadingSceneName</text>
<text text-anchor="start" x="8" y="-81.5" font-family="Helvetica,sans-Serif" font-size="10.00">+ static DataTransfer</text>
<text text-anchor="start" x="8" y="-70.5" font-family="Helvetica,sans-Serif" font-size="10.00"> GetDataTransfer</text>
<text text-anchor="start" x="8" y="-59.5" font-family="Helvetica,sans-Serif" font-size="10.00">+ bool isSoundsActive</text>
<polyline fill="none" stroke="black" points="0,-52.5 177,-52.5 "/>
<text text-anchor="start" x="8" y="-40.5" font-family="Helvetica,sans-Serif" font-size="10.00">+ void LoadSceneInLoadingScene</text>
<text text-anchor="start" x="8" y="-29.5" font-family="Helvetica,sans-Serif" font-size="10.00">(string sceneName)</text>
<text text-anchor="start" x="8" y="-18.5" font-family="Helvetica,sans-Serif" font-size="10.00">+ List&lt; UnitDict &gt; GetAvailable</text>
<text text-anchor="start" x="8" y="-7.5" font-family="Helvetica,sans-Serif" font-size="10.00">Units()</text>
</a>
</g>
</g>
<!-- Node2 -->
<g id="node2" class="node">
<title>Node2</title>
<g id="a_node2"><a xlink:title=" ">
<polygon fill="white" stroke="#bfbfbf" points="47,-270.5 47,-327.5 130,-327.5 130,-270.5 47,-270.5"/>
<text text-anchor="middle" x="88.5" y="-315.5" font-family="Helvetica,sans-Serif" font-size="10.00">MonoBehaviour</text>
<polyline fill="none" stroke="#bfbfbf" points="47,-308.5 130,-308.5 "/>
<text text-anchor="middle" x="88.5" y="-296.5" font-family="Helvetica,sans-Serif" font-size="10.00"> </text>
<polyline fill="none" stroke="#bfbfbf" points="47,-289.5 130,-289.5 "/>
<text text-anchor="middle" x="88.5" y="-277.5" font-family="Helvetica,sans-Serif" font-size="10.00"> </text>
</a>
</g>
</g>
<!-- Node2&#45;&gt;Node1 -->
<g id="edge1" class="edge">
<title>Node2&#45;&gt;Node1</title>
<path fill="none" stroke="midnightblue" d="M88.5,-260.14C88.5,-252.03 88.5,-243.05 88.5,-233.67"/>
<polygon fill="none" stroke="midnightblue" points="85,-260.27 88.5,-270.27 92,-260.27 85,-260.27"/>
</g>
</g>
</svg>
