<?xml version="1.0" encoding="UTF-8" standalone="no"?>
<!DOCTYPE svg PUBLIC "-//W3C//DTD SVG 1.1//EN"
 "http://www.w3.org/Graphics/SVG/1.1/DTD/svg11.dtd">
<!-- Generated by graphviz version 2.47.1 (20210417.1919)
 -->
<!-- Title: UI.ChineseSports.Battle.DispatchUnitChineseUI Pages: 1 -->
<!--zoomable 1904 -->
<svg id="main" version="1.1" xmlns="http://www.w3.org/2000/svg" xmlns:xlink="http://www.w3.org/1999/xlink" xml:space="preserve" onload="init(evt)">
<style type="text/css"><![CDATA[
.edge:hover path { stroke: red; }
.edge:hover polygon { stroke: red; fill: red; }
]]></style>
<script type="text/javascript"><![CDATA[
var edges = document.getElementsByTagName('g');
if (edges && edges.length) {
  for (var i=0;i<edges.length;i++) {
    if (edges[i].id.substr(0,4)=='edge') {
      edges[i].setAttribute('class','edge');
    }
  }
}
]]></script>
        <defs>
                <circle id="rim" cx="0" cy="0" r="7"/>
                <circle id="rim2" cx="0" cy="0" r="3.5"/>
                <g id="zoomPlus">
                        <use xlink:href="#rim" fill="#404040">
                                <set attributeName="fill" to="#808080" begin="zoomplus.mouseover" end="zoomplus.mouseout"/>
                        </use>
                        <path d="M-4,0h8M0,-4v8" fill="none" stroke="white" stroke-width="1.5" pointer-events="none"/>
                </g>
                <g id="zoomMin">
                        <use xlink:href="#rim" fill="#404040">
                                <set attributeName="fill" to="#808080" begin="zoomminus.mouseover" end="zoomminus.mouseout"/>
                        </use>
                        <path d="M-4,0h8" fill="none" stroke="white" stroke-width="1.5" pointer-events="none"/>
                </g>
                <g id="dirArrow">
                        <path fill="none" stroke="white" stroke-width="1.5" d="M0,-3.0v7 M-2.5,-0.5L0,-3.0L2.5,-0.5"/>
                </g>
               <g id="resetDef">
                       <use xlink:href="#rim2" fill="#404040">
                               <set attributeName="fill" to="#808080" begin="reset.mouseover" end="reset.mouseout"/>
                       </use>
               </g>
        </defs>

<script type="text/javascript">
var viewWidth = 1079;
var viewHeight = 1904;
var sectionId = 'dynsection-1';
</script>
<script xlink:href="svgpan.js"/>
<svg id="graph" class="graph">
<g id="viewport">
<title>UI.ChineseSports.Battle.DispatchUnitChineseUI</title>
<polygon fill="white" stroke="transparent" points="-4,4 -4,-1900 1075.34,-1900 1075.34,4 -4,4"/>
<!-- Node1 -->
<g id="node1" class="node">
<title>Node1</title>
<g id="a_node1"><a xlink:title=" ">
<polygon fill="#bfbfbf" stroke="black" points="491.5,-0.5 491.5,-123.5 642.5,-123.5 642.5,-0.5 491.5,-0.5"/>
<text text-anchor="start" x="499.5" y="-111.5" font-family="Helvetica,sans-Serif" font-size="10.00">UI.ChineseSports.Battle.</text>
<text text-anchor="middle" x="567" y="-100.5" font-family="Helvetica,sans-Serif" font-size="10.00">DispatchUnitChineseUI</text>
<polyline fill="none" stroke="black" points="491.5,-93.5 642.5,-93.5 "/>
<text text-anchor="start" x="499.5" y="-81.5" font-family="Helvetica,sans-Serif" font-size="10.00">+ Button unitRemoveButton</text>
<text text-anchor="start" x="499.5" y="-70.5" font-family="Helvetica,sans-Serif" font-size="10.00">+ GameObject unitSetIndicator</text>
<text text-anchor="start" x="499.5" y="-59.5" font-family="Helvetica,sans-Serif" font-size="10.00">+ int unitNumber</text>
<text text-anchor="start" x="499.5" y="-48.5" font-family="Helvetica,sans-Serif" font-size="10.00">+ int UnitDispatchNumber</text>
<polyline fill="none" stroke="black" points="491.5,-41.5 642.5,-41.5 "/>
<text text-anchor="start" x="499.5" y="-29.5" font-family="Helvetica,sans-Serif" font-size="10.00">+ void AddClick(bool</text>
<text text-anchor="start" x="499.5" y="-18.5" font-family="Helvetica,sans-Serif" font-size="10.00"> isFoodAndWood)</text>
<text text-anchor="start" x="499.5" y="-7.5" font-family="Helvetica,sans-Serif" font-size="10.00">+ void RemoveClick()</text>
</a>
</g>
</g>
<!-- Node2 -->
<g id="node2" class="node">
<title>Node2</title>
<g id="a_node2"><a xlink:title=" ">
<polygon fill="white" stroke="#bfbfbf" points="626.5,-1838.5 626.5,-1895.5 709.5,-1895.5 709.5,-1838.5 626.5,-1838.5"/>
<text text-anchor="middle" x="668" y="-1883.5" font-family="Helvetica,sans-Serif" font-size="10.00">MonoBehaviour</text>
<polyline fill="none" stroke="#bfbfbf" points="626.5,-1876.5 709.5,-1876.5 "/>
<text text-anchor="middle" x="668" y="-1864.5" font-family="Helvetica,sans-Serif" font-size="10.00"> </text>
<polyline fill="none" stroke="#bfbfbf" points="626.5,-1857.5 709.5,-1857.5 "/>
<text text-anchor="middle" x="668" y="-1845.5" font-family="Helvetica,sans-Serif" font-size="10.00"> </text>
</a>
</g>
</g>
<!-- Node2&#45;&gt;Node1 -->
<g id="edge1" class="edge">
<title>Node2&#45;&gt;Node1</title>
<path fill="none" stroke="midnightblue" d="M616.26,-1865.84C499.62,-1864.52 220.55,-1855.56 147,-1801 17.88,-1705.22 0,-1631.26 0,-1470.5 0,-1470.5 0,-1470.5 0,-215.5 0,-114.9 337.04,-78.77 491.41,-67.5"/>
<polygon fill="none" stroke="midnightblue" points="616.34,-1869.35 626.37,-1865.94 616.41,-1862.35 616.34,-1869.35"/>
</g>
<!-- Node3 -->
<g id="node3" class="node">
<title>Node3</title>
<g id="a_node3"><a xlink:href="class_player_1_1_player.html" target="_top" xlink:title="玩家">
<polygon fill="white" stroke="black" points="156,-1138.5 156,-1800.5 356,-1800.5 356,-1138.5 156,-1138.5"/>
<text text-anchor="middle" x="256" y="-1788.5" font-family="Helvetica,sans-Serif" font-size="10.00">Player.Player</text>
<polyline fill="none" stroke="black" points="156,-1781.5 356,-1781.5 "/>
<text text-anchor="start" x="164" y="-1769.5" font-family="Helvetica,sans-Serif" font-size="10.00">+ UnityEvent playerDeadEvent</text>
<text text-anchor="start" x="164" y="-1758.5" font-family="Helvetica,sans-Serif" font-size="10.00">+ UnityAction updateEventHandler</text>
<text text-anchor="start" x="164" y="-1747.5" font-family="Helvetica,sans-Serif" font-size="10.00">+ bool enableFarmer</text>
<text text-anchor="start" x="164" y="-1736.5" font-family="Helvetica,sans-Serif" font-size="10.00">+ Transform[] resourceTransform</text>
<text text-anchor="start" x="164" y="-1725.5" font-family="Helvetica,sans-Serif" font-size="10.00">+ int[] resourceProduct</text>
<text text-anchor="start" x="164" y="-1714.5" font-family="Helvetica,sans-Serif" font-size="10.00">+ float resourceProducingTime</text>
<text text-anchor="start" x="164" y="-1703.5" font-family="Helvetica,sans-Serif" font-size="10.00">+ bool isEnemy</text>
<text text-anchor="start" x="164" y="-1692.5" font-family="Helvetica,sans-Serif" font-size="10.00">+ int[] availableUnits</text>
<text text-anchor="start" x="164" y="-1681.5" font-family="Helvetica,sans-Serif" font-size="10.00">+ List&lt; Unit &gt; UnitsList</text>
<text text-anchor="start" x="164" y="-1670.5" font-family="Helvetica,sans-Serif" font-size="10.00">+ int HP</text>
<text text-anchor="start" x="164" y="-1659.5" font-family="Helvetica,sans-Serif" font-size="10.00">+ int Food</text>
<text text-anchor="start" x="164" y="-1648.5" font-family="Helvetica,sans-Serif" font-size="10.00">+ int Wood</text>
<text text-anchor="start" x="164" y="-1637.5" font-family="Helvetica,sans-Serif" font-size="10.00">+ int Gold</text>
<text text-anchor="start" x="164" y="-1626.5" font-family="Helvetica,sans-Serif" font-size="10.00">+ Transform Top</text>
<text text-anchor="start" x="164" y="-1615.5" font-family="Helvetica,sans-Serif" font-size="10.00">+ Transform Mid</text>
<text text-anchor="start" x="164" y="-1604.5" font-family="Helvetica,sans-Serif" font-size="10.00">+ Transform Bot</text>
<text text-anchor="start" x="164" y="-1593.5" font-family="Helvetica,sans-Serif" font-size="10.00">+ int MaxFarmerNumber</text>
<text text-anchor="start" x="164" y="-1582.5" font-family="Helvetica,sans-Serif" font-size="10.00">+ int FarmerCount</text>
<text text-anchor="start" x="164" y="-1571.5" font-family="Helvetica,sans-Serif" font-size="10.00">+ int DispatchableFarmer</text>
<text text-anchor="start" x="164" y="-1560.5" font-family="Helvetica,sans-Serif" font-size="10.00">+ int[] RoadFarmers</text>
<text text-anchor="start" x="164" y="-1549.5" font-family="Helvetica,sans-Serif" font-size="10.00">+ int[] RoadWorkingFarmers</text>
<polyline fill="none" stroke="black" points="156,-1542.5 356,-1542.5 "/>
<text text-anchor="start" x="164" y="-1530.5" font-family="Helvetica,sans-Serif" font-size="10.00">+ virtual void UpdateLocal</text>
<text text-anchor="start" x="164" y="-1519.5" font-family="Helvetica,sans-Serif" font-size="10.00">PlayerProperties()</text>
<text text-anchor="start" x="164" y="-1508.5" font-family="Helvetica,sans-Serif" font-size="10.00">+ virtual void ChangeResource</text>
<text text-anchor="start" x="164" y="-1497.5" font-family="Helvetica,sans-Serif" font-size="10.00">(GameResourceType gameResourceType,</text>
<text text-anchor="start" x="164" y="-1486.5" font-family="Helvetica,sans-Serif" font-size="10.00"> int count)</text>
<text text-anchor="start" x="164" y="-1475.5" font-family="Helvetica,sans-Serif" font-size="10.00">+ bool IsEnoughForUnit</text>
<text text-anchor="start" x="164" y="-1464.5" font-family="Helvetica,sans-Serif" font-size="10.00">(Unit unit)</text>
<text text-anchor="start" x="164" y="-1453.5" font-family="Helvetica,sans-Serif" font-size="10.00">+ bool IsEnoughForUnit</text>
<text text-anchor="start" x="164" y="-1442.5" font-family="Helvetica,sans-Serif" font-size="10.00">(Unit unit, GameResourceType</text>
<text text-anchor="start" x="164" y="-1431.5" font-family="Helvetica,sans-Serif" font-size="10.00"> gameResourceType)</text>
<text text-anchor="start" x="164" y="-1420.5" font-family="Helvetica,sans-Serif" font-size="10.00">+ virtual void AddFarmer</text>
<text text-anchor="start" x="164" y="-1409.5" font-family="Helvetica,sans-Serif" font-size="10.00">(GameResourceType rs)</text>
<text text-anchor="start" x="164" y="-1398.5" font-family="Helvetica,sans-Serif" font-size="10.00">+ virtual void SubtractFarmer</text>
<text text-anchor="start" x="164" y="-1387.5" font-family="Helvetica,sans-Serif" font-size="10.00">(GameResourceType rs)</text>
<text text-anchor="start" x="164" y="-1376.5" font-family="Helvetica,sans-Serif" font-size="10.00">+ void InstantiateFarmer</text>
<text text-anchor="start" x="164" y="-1365.5" font-family="Helvetica,sans-Serif" font-size="10.00">(Road rd, Transform transform,</text>
<text text-anchor="start" x="164" y="-1354.5" font-family="Helvetica,sans-Serif" font-size="10.00"> int resourceCarried)</text>
<text text-anchor="start" x="164" y="-1343.5" font-family="Helvetica,sans-Serif" font-size="10.00">+ void FarmerBack(Farmer</text>
<text text-anchor="start" x="164" y="-1332.5" font-family="Helvetica,sans-Serif" font-size="10.00"> farmer, Transform tr)</text>
<text text-anchor="start" x="164" y="-1321.5" font-family="Helvetica,sans-Serif" font-size="10.00">+ int CountUnits(UnitType</text>
<text text-anchor="start" x="164" y="-1310.5" font-family="Helvetica,sans-Serif" font-size="10.00"> type)</text>
<text text-anchor="start" x="164" y="-1299.5" font-family="Helvetica,sans-Serif" font-size="10.00">+ void SetUnits(Vector3</text>
<text text-anchor="start" x="164" y="-1288.5" font-family="Helvetica,sans-Serif" font-size="10.00"> tr, int chosenUnit,</text>
<text text-anchor="start" x="164" y="-1277.5" font-family="Helvetica,sans-Serif" font-size="10.00"> Road rd, int number)</text>
<text text-anchor="start" x="164" y="-1266.5" font-family="Helvetica,sans-Serif" font-size="10.00">+ void SetUnits(Vector3</text>
<text text-anchor="start" x="164" y="-1255.5" font-family="Helvetica,sans-Serif" font-size="10.00"> tr, int chosenUnit,</text>
<text text-anchor="start" x="164" y="-1244.5" font-family="Helvetica,sans-Serif" font-size="10.00"> Road rd, int number,</text>
<text text-anchor="start" x="164" y="-1233.5" font-family="Helvetica,sans-Serif" font-size="10.00"> Vector3 oriVelocity)</text>
<text text-anchor="start" x="164" y="-1222.5" font-family="Helvetica,sans-Serif" font-size="10.00">+ virtual void Instantiate</text>
<text text-anchor="start" x="164" y="-1211.5" font-family="Helvetica,sans-Serif" font-size="10.00">Unit(int chosenUnit, Road</text>
<text text-anchor="start" x="164" y="-1200.5" font-family="Helvetica,sans-Serif" font-size="10.00"> rd, Vector3 oriPoint)</text>
<text text-anchor="start" x="164" y="-1189.5" font-family="Helvetica,sans-Serif" font-size="10.00">+ virtual void Instantiate</text>
<text text-anchor="start" x="164" y="-1178.5" font-family="Helvetica,sans-Serif" font-size="10.00">Unit(int chosenUnit, Road</text>
<text text-anchor="start" x="164" y="-1167.5" font-family="Helvetica,sans-Serif" font-size="10.00"> rd, Vector3 oriPoint, Vector3</text>
<text text-anchor="start" x="164" y="-1156.5" font-family="Helvetica,sans-Serif" font-size="10.00"> oriVelocity)</text>
<text text-anchor="start" x="164" y="-1145.5" font-family="Helvetica,sans-Serif" font-size="10.00"># virtual void Start()</text>
</a>
</g>
</g>
<!-- Node2&#45;&gt;Node3 -->
<g id="edge3" class="edge">
<title>Node2&#45;&gt;Node3</title>
<path fill="none" stroke="midnightblue" d="M616.06,-1863.95C543.04,-1860.04 415.01,-1849.14 380,-1820 371.46,-1812.9 363.51,-1805.16 356.11,-1796.91"/>
<polygon fill="none" stroke="midnightblue" points="616.26,-1867.46 626.42,-1864.47 616.61,-1860.47 616.26,-1867.46"/>
</g>
<!-- Node5 -->
<g id="node5" class="node">
<title>Node5</title>
<g id="a_node5"><a xlink:href="class_units_1_1_unit.html" target="_top" xlink:title="单位">
<polygon fill="white" stroke="black" points="310,-568.5 310,-966.5 476,-966.5 476,-568.5 310,-568.5"/>
<text text-anchor="middle" x="393" y="-954.5" font-family="Helvetica,sans-Serif" font-size="10.00">Unit</text>
<polyline fill="none" stroke="black" points="310,-947.5 476,-947.5 "/>
<text text-anchor="start" x="318" y="-935.5" font-family="Helvetica,sans-Serif" font-size="10.00">+ int defence</text>
<text text-anchor="start" x="318" y="-924.5" font-family="Helvetica,sans-Serif" font-size="10.00">+ bool isUnmovable</text>
<text text-anchor="start" x="318" y="-913.5" font-family="Helvetica,sans-Serif" font-size="10.00">+ int playerOwnMax</text>
<text text-anchor="start" x="318" y="-902.5" font-family="Helvetica,sans-Serif" font-size="10.00">+ Rigidbody unitRigidbody</text>
<text text-anchor="start" x="318" y="-891.5" font-family="Helvetica,sans-Serif" font-size="10.00">+ Road road</text>
<text text-anchor="start" x="318" y="-880.5" font-family="Helvetica,sans-Serif" font-size="10.00">+ UnitType unitType</text>
<text text-anchor="start" x="318" y="-869.5" font-family="Helvetica,sans-Serif" font-size="10.00">+ int costFood</text>
<text text-anchor="start" x="318" y="-858.5" font-family="Helvetica,sans-Serif" font-size="10.00">+ int costWood</text>
<text text-anchor="start" x="318" y="-847.5" font-family="Helvetica,sans-Serif" font-size="10.00">+ int costGold</text>
<text text-anchor="start" x="318" y="-836.5" font-family="Helvetica,sans-Serif" font-size="10.00">+ bool isDieImmediately</text>
<text text-anchor="start" x="318" y="-825.5" font-family="Helvetica,sans-Serif" font-size="10.00">+ int deathReward</text>
<text text-anchor="start" x="318" y="-814.5" font-family="Helvetica,sans-Serif" font-size="10.00">+ UnityEvent&lt; GameObject,</text>
<text text-anchor="start" x="318" y="-803.5" font-family="Helvetica,sans-Serif" font-size="10.00"> Transform &gt; navStopEventHandler</text>
<text text-anchor="start" x="318" y="-792.5" font-family="Helvetica,sans-Serif" font-size="10.00">+ UnityEvent&lt; Player.Player,</text>
<text text-anchor="start" x="318" y="-781.5" font-family="Helvetica,sans-Serif" font-size="10.00"> IMilitaryUnit &gt; UnitDeathEvent</text>
<text text-anchor="start" x="318" y="-770.5" font-family="Helvetica,sans-Serif" font-size="10.00">Handler</text>
<text text-anchor="start" x="318" y="-759.5" font-family="Helvetica,sans-Serif" font-size="10.00">+ int??? HP</text>
<text text-anchor="start" x="318" y="-748.5" font-family="Helvetica,sans-Serif" font-size="10.00">+ float Speed</text>
<text text-anchor="start" x="318" y="-737.5" font-family="Helvetica,sans-Serif" font-size="10.00">+ Transform InitTarget</text>
<text text-anchor="start" x="318" y="-726.5" font-family="Helvetica,sans-Serif" font-size="10.00">+ bool IsAtEnemyDoor</text>
<text text-anchor="start" x="318" y="-715.5" font-family="Helvetica,sans-Serif" font-size="10.00"># bool Death</text>
<text text-anchor="start" x="318" y="-704.5" font-family="Helvetica,sans-Serif" font-size="10.00"># UnityEvent StartEventHandler</text>
<text text-anchor="start" x="318" y="-693.5" font-family="Helvetica,sans-Serif" font-size="10.00"># UnityEvent&lt; IMilitaryUnit</text>
<text text-anchor="start" x="318" y="-682.5" font-family="Helvetica,sans-Serif" font-size="10.00"> &gt; BeAttackedEventHandler</text>
<polyline fill="none" stroke="black" points="310,-675.5 476,-675.5 "/>
<text text-anchor="start" x="318" y="-663.5" font-family="Helvetica,sans-Serif" font-size="10.00">+ virtual void Start()</text>
<text text-anchor="start" x="318" y="-652.5" font-family="Helvetica,sans-Serif" font-size="10.00">+ virtual void Update()</text>
<text text-anchor="start" x="318" y="-641.5" font-family="Helvetica,sans-Serif" font-size="10.00">+ virtual void BeAttacked</text>
<text text-anchor="start" x="318" y="-630.5" font-family="Helvetica,sans-Serif" font-size="10.00">(IMilitaryUnit attacker)</text>
<text text-anchor="start" x="318" y="-619.5" font-family="Helvetica,sans-Serif" font-size="10.00"># virtual void Awake()</text>
<text text-anchor="start" x="318" y="-608.5" font-family="Helvetica,sans-Serif" font-size="10.00"># void Goto(Transform tr)</text>
<text text-anchor="start" x="318" y="-597.5" font-family="Helvetica,sans-Serif" font-size="10.00"># static float GetTwoPoint</text>
<text text-anchor="start" x="318" y="-586.5" font-family="Helvetica,sans-Serif" font-size="10.00">DistanceOnNav(Vector3</text>
<text text-anchor="start" x="318" y="-575.5" font-family="Helvetica,sans-Serif" font-size="10.00"> oriPoint, Vector3 targetPoint)</text>
</a>
</g>
</g>
<!-- Node2&#45;&gt;Node5 -->
<g id="edge6" class="edge">
<title>Node2&#45;&gt;Node5</title>
<path fill="none" stroke="midnightblue" d="M616.32,-1858.12C556.82,-1847.89 464.49,-1828.1 443,-1801 392.58,-1737.41 388.45,-1248.25 390.36,-966.63"/>
<polygon fill="none" stroke="midnightblue" points="615.85,-1861.59 626.3,-1859.8 617.01,-1854.69 615.85,-1861.59"/>
</g>
<!-- Node8 -->
<g id="node8" class="node">
<title>Node8</title>
<g id="a_node8"><a xlink:href="class_units_1_1_unit.html" target="_top" xlink:title="单位">
<polygon fill="white" stroke="black" points="494,-568.5 494,-966.5 660,-966.5 660,-568.5 494,-568.5"/>
<text text-anchor="middle" x="577" y="-954.5" font-family="Helvetica,sans-Serif" font-size="10.00">Units.Unit</text>
<polyline fill="none" stroke="black" points="494,-947.5 660,-947.5 "/>
<text text-anchor="start" x="502" y="-935.5" font-family="Helvetica,sans-Serif" font-size="10.00">+ int defence</text>
<text text-anchor="start" x="502" y="-924.5" font-family="Helvetica,sans-Serif" font-size="10.00">+ bool isUnmovable</text>
<text text-anchor="start" x="502" y="-913.5" font-family="Helvetica,sans-Serif" font-size="10.00">+ int playerOwnMax</text>
<text text-anchor="start" x="502" y="-902.5" font-family="Helvetica,sans-Serif" font-size="10.00">+ Rigidbody unitRigidbody</text>
<text text-anchor="start" x="502" y="-891.5" font-family="Helvetica,sans-Serif" font-size="10.00">+ Road road</text>
<text text-anchor="start" x="502" y="-880.5" font-family="Helvetica,sans-Serif" font-size="10.00">+ UnitType unitType</text>
<text text-anchor="start" x="502" y="-869.5" font-family="Helvetica,sans-Serif" font-size="10.00">+ int costFood</text>
<text text-anchor="start" x="502" y="-858.5" font-family="Helvetica,sans-Serif" font-size="10.00">+ int costWood</text>
<text text-anchor="start" x="502" y="-847.5" font-family="Helvetica,sans-Serif" font-size="10.00">+ int costGold</text>
<text text-anchor="start" x="502" y="-836.5" font-family="Helvetica,sans-Serif" font-size="10.00">+ bool isDieImmediately</text>
<text text-anchor="start" x="502" y="-825.5" font-family="Helvetica,sans-Serif" font-size="10.00">+ int deathReward</text>
<text text-anchor="start" x="502" y="-814.5" font-family="Helvetica,sans-Serif" font-size="10.00">+ UnityEvent&lt; GameObject,</text>
<text text-anchor="start" x="502" y="-803.5" font-family="Helvetica,sans-Serif" font-size="10.00"> Transform &gt; navStopEventHandler</text>
<text text-anchor="start" x="502" y="-792.5" font-family="Helvetica,sans-Serif" font-size="10.00">+ UnityEvent&lt; Player.Player,</text>
<text text-anchor="start" x="502" y="-781.5" font-family="Helvetica,sans-Serif" font-size="10.00"> IMilitaryUnit &gt; UnitDeathEvent</text>
<text text-anchor="start" x="502" y="-770.5" font-family="Helvetica,sans-Serif" font-size="10.00">Handler</text>
<text text-anchor="start" x="502" y="-759.5" font-family="Helvetica,sans-Serif" font-size="10.00">+ int??? HP</text>
<text text-anchor="start" x="502" y="-748.5" font-family="Helvetica,sans-Serif" font-size="10.00">+ float Speed</text>
<text text-anchor="start" x="502" y="-737.5" font-family="Helvetica,sans-Serif" font-size="10.00">+ Transform InitTarget</text>
<text text-anchor="start" x="502" y="-726.5" font-family="Helvetica,sans-Serif" font-size="10.00">+ bool IsAtEnemyDoor</text>
<text text-anchor="start" x="502" y="-715.5" font-family="Helvetica,sans-Serif" font-size="10.00"># bool Death</text>
<text text-anchor="start" x="502" y="-704.5" font-family="Helvetica,sans-Serif" font-size="10.00"># UnityEvent StartEventHandler</text>
<text text-anchor="start" x="502" y="-693.5" font-family="Helvetica,sans-Serif" font-size="10.00"># UnityEvent&lt; IMilitaryUnit</text>
<text text-anchor="start" x="502" y="-682.5" font-family="Helvetica,sans-Serif" font-size="10.00"> &gt; BeAttackedEventHandler</text>
<polyline fill="none" stroke="black" points="494,-675.5 660,-675.5 "/>
<text text-anchor="start" x="502" y="-663.5" font-family="Helvetica,sans-Serif" font-size="10.00">+ virtual void Start()</text>
<text text-anchor="start" x="502" y="-652.5" font-family="Helvetica,sans-Serif" font-size="10.00">+ virtual void Update()</text>
<text text-anchor="start" x="502" y="-641.5" font-family="Helvetica,sans-Serif" font-size="10.00">+ virtual void BeAttacked</text>
<text text-anchor="start" x="502" y="-630.5" font-family="Helvetica,sans-Serif" font-size="10.00">(IMilitaryUnit attacker)</text>
<text text-anchor="start" x="502" y="-619.5" font-family="Helvetica,sans-Serif" font-size="10.00"># virtual void Awake()</text>
<text text-anchor="start" x="502" y="-608.5" font-family="Helvetica,sans-Serif" font-size="10.00"># void Goto(Transform tr)</text>
<text text-anchor="start" x="502" y="-597.5" font-family="Helvetica,sans-Serif" font-size="10.00"># static float GetTwoPoint</text>
<text text-anchor="start" x="502" y="-586.5" font-family="Helvetica,sans-Serif" font-size="10.00">DistanceOnNav(Vector3</text>
<text text-anchor="start" x="502" y="-575.5" font-family="Helvetica,sans-Serif" font-size="10.00"> oriPoint, Vector3 targetPoint)</text>
</a>
</g>
</g>
<!-- Node2&#45;&gt;Node8 -->
<g id="edge12" class="edge">
<title>Node2&#45;&gt;Node8</title>
<path fill="none" stroke="midnightblue" d="M667.38,-1828.17C665.02,-1705.82 654.71,-1309.91 616,-985 615.28,-978.93 614.49,-972.78 613.66,-966.57"/>
<polygon fill="none" stroke="midnightblue" points="663.88,-1828.56 667.57,-1838.49 670.88,-1828.43 663.88,-1828.56"/>
</g>
<!-- Node10 -->
<g id="node10" class="node">
<title>Node10</title>
<g id="a_node10"><a xlink:href="class_u_i_1_1_local_1_1_unit_dispatch_manager_u_i.html" target="_top" xlink:title=" ">
<polygon fill="white" stroke="black" points="595.5,-171.5 595.5,-261.5 752.5,-261.5 752.5,-171.5 595.5,-171.5"/>
<text text-anchor="middle" x="674" y="-249.5" font-family="Helvetica,sans-Serif" font-size="10.00">UI.Local.UnitDispatchManagerUI</text>
<polyline fill="none" stroke="black" points="595.5,-242.5 752.5,-242.5 "/>
<text text-anchor="start" x="603.5" y="-230.5" font-family="Helvetica,sans-Serif" font-size="10.00">+ Player.Player player</text>
<text text-anchor="start" x="603.5" y="-219.5" font-family="Helvetica,sans-Serif" font-size="10.00">+ bool IsInDispatching</text>
<polyline fill="none" stroke="black" points="595.5,-212.5 752.5,-212.5 "/>
<text text-anchor="start" x="603.5" y="-200.5" font-family="Helvetica,sans-Serif" font-size="10.00">+ void SetClick(int rdInt)</text>
<text text-anchor="start" x="603.5" y="-189.5" font-family="Helvetica,sans-Serif" font-size="10.00">+ void SetClickWithVelocity</text>
<text text-anchor="start" x="603.5" y="-178.5" font-family="Helvetica,sans-Serif" font-size="10.00">(int rdInt)</text>
</a>
</g>
</g>
<!-- Node2&#45;&gt;Node10 -->
<g id="edge17" class="edge">
<title>Node2&#45;&gt;Node10</title>
<path fill="none" stroke="midnightblue" d="M673.32,-1828.27C673.59,-1825.47 673.82,-1822.69 674,-1820 674.03,-1819.56 674,-1819.44 674,-1819 673.44,-1541 717.59,-841.72 669,-568 664.21,-541.01 652.74,-537 648,-510 632.56,-422.01 635.67,-397.48 648,-309 650.19,-293.3 654.39,-276.51 658.79,-261.65"/>
<polygon fill="none" stroke="midnightblue" points="669.83,-1828 672.2,-1838.33 676.79,-1828.78 669.83,-1828"/>
</g>
<!-- Node11 -->
<g id="node11" class="node">
<title>Node11</title>
<g id="a_node11"><a xlink:href="class_u_i_1_1_local_1_1_unit_dispatch_u_i.html" target="_top" xlink:title=" ">
<polygon fill="white" stroke="black" points="656.5,-337 656.5,-482 807.5,-482 807.5,-337 656.5,-337"/>
<text text-anchor="middle" x="732" y="-470" font-family="Helvetica,sans-Serif" font-size="10.00">UI.Local.UnitDispatchUI</text>
<polyline fill="none" stroke="black" points="656.5,-463 807.5,-463 "/>
<text text-anchor="start" x="664.5" y="-451" font-family="Helvetica,sans-Serif" font-size="10.00">+ Button unitRemoveButton</text>
<text text-anchor="start" x="664.5" y="-440" font-family="Helvetica,sans-Serif" font-size="10.00">+ GameObject unitSetIndicator</text>
<text text-anchor="start" x="664.5" y="-429" font-family="Helvetica,sans-Serif" font-size="10.00">+ int unitNumber</text>
<text text-anchor="start" x="664.5" y="-418" font-family="Helvetica,sans-Serif" font-size="10.00">+ int onceMax</text>
<text text-anchor="start" x="664.5" y="-407" font-family="Helvetica,sans-Serif" font-size="10.00">+ readonly Stack&lt; bool</text>
<text text-anchor="start" x="664.5" y="-396" font-family="Helvetica,sans-Serif" font-size="10.00"> &gt; UnitSelectStack</text>
<text text-anchor="start" x="664.5" y="-385" font-family="Helvetica,sans-Serif" font-size="10.00">+ int UnitDispatchNumber</text>
<polyline fill="none" stroke="black" points="656.5,-378 807.5,-378 "/>
<text text-anchor="start" x="664.5" y="-366" font-family="Helvetica,sans-Serif" font-size="10.00">+ void AddClick(bool</text>
<text text-anchor="start" x="664.5" y="-355" font-family="Helvetica,sans-Serif" font-size="10.00"> isFoodAndWood)</text>
<text text-anchor="start" x="664.5" y="-344" font-family="Helvetica,sans-Serif" font-size="10.00">+ void RemoveClick()</text>
</a>
</g>
</g>
<!-- Node2&#45;&gt;Node11 -->
<g id="edge19" class="edge">
<title>Node2&#45;&gt;Node11</title>
<path fill="none" stroke="midnightblue" d="M697.75,-1829.72C699.42,-1826.55 700.88,-1823.3 702,-1820 745.28,-1693.18 736.47,-751.83 733.01,-482.37"/>
<polygon fill="none" stroke="midnightblue" points="694.71,-1827.98 692.55,-1838.35 700.7,-1831.59 694.71,-1827.98"/>
</g>
<!-- Node12 -->
<g id="node12" class="node">
<title>Node12</title>
<g id="a_node12"><a xlink:href="class_u_i_1_1_chinese_sports_1_1_battle_1_1_sprite_indicator_u_i.html" target="_top" xlink:title=" ">
<polygon fill="white" stroke="black" points="741,-1013 741,-1092 897,-1092 897,-1013 741,-1013"/>
<text text-anchor="start" x="749" y="-1080" font-family="Helvetica,sans-Serif" font-size="10.00">UI.ChineseSports.Battle.</text>
<text text-anchor="middle" x="819" y="-1069" font-family="Helvetica,sans-Serif" font-size="10.00">SpriteIndicatorUI</text>
<polyline fill="none" stroke="black" points="741,-1062 897,-1062 "/>
<text text-anchor="start" x="749" y="-1050" font-family="Helvetica,sans-Serif" font-size="10.00">+ SpriteRenderer spriteRenderer</text>
<text text-anchor="start" x="749" y="-1039" font-family="Helvetica,sans-Serif" font-size="10.00">+ Sprite UnitSprite</text>
<polyline fill="none" stroke="black" points="741,-1032 897,-1032 "/>
<text text-anchor="middle" x="819" y="-1020" font-family="Helvetica,sans-Serif" font-size="10.00"> </text>
</a>
</g>
</g>
<!-- Node2&#45;&gt;Node12 -->
<g id="edge24" class="edge">
<title>Node2&#45;&gt;Node12</title>
<path fill="none" stroke="midnightblue" d="M717.99,-1842.56C726.59,-1836.38 734.51,-1828.9 740,-1820 888.84,-1578.59 845.34,-1211.36 825.99,-1092.25"/>
<polygon fill="none" stroke="midnightblue" points="716.02,-1839.66 709.59,-1848.08 719.87,-1845.51 716.02,-1839.66"/>
</g>
<!-- Node13 -->
<g id="node13" class="node">
<title>Node13</title>
<g id="a_node13"><a xlink:href="class_u_i_1_1_chinese_sports_1_1_battle_1_1_shoot_calculator_u_i.html" target="_top" xlink:title=" ">
<polygon fill="white" stroke="black" points="902,-985.5 902,-1119.5 1066,-1119.5 1066,-985.5 902,-985.5"/>
<text text-anchor="start" x="910" y="-1107.5" font-family="Helvetica,sans-Serif" font-size="10.00">UI.ChineseSports.Battle.</text>
<text text-anchor="middle" x="984" y="-1096.5" font-family="Helvetica,sans-Serif" font-size="10.00">ShootCalculatorUI</text>
<polyline fill="none" stroke="black" points="902,-1089.5 1066,-1089.5 "/>
<text text-anchor="start" x="910" y="-1077.5" font-family="Helvetica,sans-Serif" font-size="10.00">+ Rigidbody shootRigidbody</text>
<text text-anchor="start" x="910" y="-1066.5" font-family="Helvetica,sans-Serif" font-size="10.00">+ Vector3 oriVelocity</text>
<text text-anchor="start" x="910" y="-1055.5" font-family="Helvetica,sans-Serif" font-size="10.00">+ Vector3 oriPos</text>
<text text-anchor="start" x="910" y="-1044.5" font-family="Helvetica,sans-Serif" font-size="10.00">+ Vector3 oriScreenPos</text>
<text text-anchor="start" x="910" y="-1033.5" font-family="Helvetica,sans-Serif" font-size="10.00">+ PhysicMaterial groundMaterial</text>
<text text-anchor="start" x="910" y="-1022.5" font-family="Helvetica,sans-Serif" font-size="10.00">+ PhysicMaterial wallMaterial</text>
<polyline fill="none" stroke="black" points="902,-1015.5 1066,-1015.5 "/>
<text text-anchor="start" x="910" y="-1003.5" font-family="Helvetica,sans-Serif" font-size="10.00">+ void CalculateShootLine</text>
<text text-anchor="start" x="910" y="-992.5" font-family="Helvetica,sans-Serif" font-size="10.00">(Vector3 oriPos, int sampleTimes)</text>
</a>
</g>
</g>
<!-- Node2&#45;&gt;Node13 -->
<g id="edge27" class="edge">
<title>Node2&#45;&gt;Node13</title>
<path fill="none" stroke="midnightblue" d="M719.79,-1855.36C751.5,-1846.19 790.4,-1829.73 814,-1801 981.39,-1597.26 991.51,-1261.16 987.53,-1119.6"/>
<polygon fill="none" stroke="midnightblue" points="718.51,-1852.08 709.78,-1858.08 720.34,-1858.83 718.51,-1852.08"/>
</g>
<!-- Node3&#45;&gt;Node1 -->
<g id="edge2" class="edge">
<title>Node3&#45;&gt;Node1</title>
<path fill="none" stroke="#404040" d="M155.97,-1258.14C137.34,-1213.27 119.51,-1165.63 106,-1120 61.02,-968.03 46,-926.98 46,-768.5 46,-768.5 46,-768.5 46,-215.5 46,-126.35 330.52,-85.68 479.05,-70.52"/>
<polygon fill="none" stroke="#404040" points="479.3,-70.5 484.87,-65.92 491.24,-69.31 485.67,-73.88 479.3,-70.5"/>
<text text-anchor="middle" x="64" y="-407" font-family="Helvetica,sans-Serif" font-size="10.00"> +player</text>
</g>
<!-- Node3&#45;&gt;Node5 -->
<g id="edge7" class="edge">
<title>Node3&#45;&gt;Node5</title>
<path fill="none" stroke="#404040" d="M295.83,-1138.18C304.14,-1086.65 313.84,-1034.2 325,-985 325.49,-982.83 326,-980.64 326.51,-978.45"/>
<polygon fill="none" stroke="#404040" points="326.55,-978.32 324.07,-971.54 329.37,-966.65 331.84,-973.43 326.55,-978.32"/>
<text text-anchor="middle" x="352.5" y="-1050" font-family="Helvetica,sans-Serif" font-size="10.00"> +sidePlayer</text>
</g>
<!-- Node3&#45;&gt;Node8 -->
<g id="edge13" class="edge">
<title>Node3&#45;&gt;Node8</title>
<path fill="none" stroke="#404040" d="M356.04,-1250C380.73,-1209.74 409.8,-1170.29 443,-1138 455.26,-1126.08 467.18,-1134 477,-1120 511.8,-1070.4 481.07,-1043.72 496,-985 496.55,-982.83 497.12,-980.66 497.69,-978.48"/>
<polygon fill="none" stroke="#404040" points="497.74,-978.33 495.47,-971.48 500.91,-966.75 503.18,-973.6 497.74,-978.33"/>
<text text-anchor="middle" x="523.5" y="-1050" font-family="Helvetica,sans-Serif" font-size="10.00"> +sidePlayer</text>
</g>
<!-- Node3&#45;&gt;Node11 -->
<g id="edge20" class="edge">
<title>Node3&#45;&gt;Node11</title>
<path fill="none" stroke="#404040" d="M241,-1138.49C233.27,-900.83 231.47,-614.21 265,-568 276.56,-552.07 512.93,-477.62 644.85,-437.04"/>
<polygon fill="none" stroke="#404040" points="645.03,-436.99 649.59,-431.4 656.5,-433.46 651.94,-439.05 645.03,-436.99"/>
<text text-anchor="middle" x="283" y="-765" font-family="Helvetica,sans-Serif" font-size="10.00"> +player</text>
</g>
<!-- Node4 -->
<g id="node4" class="node">
<title>Node4</title>
<g id="a_node4"><a xlink:href="class_units_1_1_farmer.html" target="_top" xlink:title="农民">
<polygon fill="white" stroke="black" points="100.5,-309.5 100.5,-509.5 251.5,-509.5 251.5,-309.5 100.5,-309.5"/>
<text text-anchor="middle" x="176" y="-497.5" font-family="Helvetica,sans-Serif" font-size="10.00">Units.Farmer</text>
<polyline fill="none" stroke="black" points="100.5,-490.5 251.5,-490.5 "/>
<text text-anchor="start" x="108.5" y="-478.5" font-family="Helvetica,sans-Serif" font-size="10.00">+ float workTime</text>
<text text-anchor="start" x="108.5" y="-467.5" font-family="Helvetica,sans-Serif" font-size="10.00">+ int[] maxLoad</text>
<text text-anchor="start" x="108.5" y="-456.5" font-family="Helvetica,sans-Serif" font-size="10.00">+ UnityAction&lt; Farmer,</text>
<text text-anchor="start" x="108.5" y="-445.5" font-family="Helvetica,sans-Serif" font-size="10.00"> Transform &gt; farmerBackEvent</text>
<text text-anchor="start" x="108.5" y="-434.5" font-family="Helvetica,sans-Serif" font-size="10.00">Handler</text>
<text text-anchor="start" x="108.5" y="-423.5" font-family="Helvetica,sans-Serif" font-size="10.00">+ int ResouceCarried</text>
<text text-anchor="start" x="108.5" y="-412.5" font-family="Helvetica,sans-Serif" font-size="10.00"># Transform _home</text>
<text text-anchor="start" x="108.5" y="-401.5" font-family="Helvetica,sans-Serif" font-size="10.00"># Transform _targerResource</text>
<polyline fill="none" stroke="black" points="100.5,-394.5 251.5,-394.5 "/>
<text text-anchor="start" x="108.5" y="-382.5" font-family="Helvetica,sans-Serif" font-size="10.00">+ override void Start()</text>
<text text-anchor="start" x="108.5" y="-371.5" font-family="Helvetica,sans-Serif" font-size="10.00"># void OnNavStop(GameObject</text>
<text text-anchor="start" x="108.5" y="-360.5" font-family="Helvetica,sans-Serif" font-size="10.00"> gm, Transform tr)</text>
<text text-anchor="start" x="108.5" y="-349.5" font-family="Helvetica,sans-Serif" font-size="10.00"># void GenerateWorkPath()</text>
<text text-anchor="start" x="108.5" y="-338.5" font-family="Helvetica,sans-Serif" font-size="10.00"># virtual void Work()</text>
<text text-anchor="start" x="108.5" y="-327.5" font-family="Helvetica,sans-Serif" font-size="10.00"># void Drop(Farmer farmer,</text>
<text text-anchor="start" x="108.5" y="-316.5" font-family="Helvetica,sans-Serif" font-size="10.00"> Transform tr)</text>
</a>
</g>
</g>
<!-- Node4&#45;&gt;Node3 -->
<g id="edge4" class="edge">
<title>Node4&#45;&gt;Node3</title>
<path fill="none" stroke="#404040" d="M124.51,-509.64C116.84,-528.55 110.13,-548.53 106,-568 62.94,-770.91 103.11,-1001.71 152.67,-1178.84"/>
<polygon fill="none" stroke="#404040" points="152.68,-1178.89 158.16,-1183.57 155.94,-1190.43 150.46,-1185.75 152.68,-1178.89"/>
<text text-anchor="middle" x="138" y="-765" font-family="Helvetica,sans-Serif" font-size="10.00"> +farmerPrefab</text>
</g>
<!-- Node5&#45;&gt;Node4 -->
<g id="edge5" class="edge">
<title>Node5&#45;&gt;Node4</title>
<path fill="none" stroke="midnightblue" d="M304.71,-582.51C301.83,-577.59 298.93,-572.74 296,-568 282.73,-546.5 267.19,-524.36 251.78,-503.72"/>
<polygon fill="none" stroke="midnightblue" points="301.84,-584.52 309.87,-591.44 307.9,-581.02 301.84,-584.52"/>
</g>
<!-- Node7 -->
<g id="node7" class="node">
<title>Node7</title>
<g id="a_node7"><a xlink:href="class_units_1_1_door.html" target="_top" xlink:title="基地门">
<polygon fill="white" stroke="black" points="286,-375.5 286,-443.5 404,-443.5 404,-375.5 286,-375.5"/>
<text text-anchor="middle" x="345" y="-431.5" font-family="Helvetica,sans-Serif" font-size="10.00">Units.Door</text>
<polyline fill="none" stroke="black" points="286,-424.5 404,-424.5 "/>
<text text-anchor="middle" x="345" y="-412.5" font-family="Helvetica,sans-Serif" font-size="10.00"> </text>
<polyline fill="none" stroke="black" points="286,-405.5 404,-405.5 "/>
<text text-anchor="start" x="294" y="-393.5" font-family="Helvetica,sans-Serif" font-size="10.00">+ override void Start()</text>
<text text-anchor="start" x="294" y="-382.5" font-family="Helvetica,sans-Serif" font-size="10.00">+ override void Update()</text>
</a>
</g>
</g>
<!-- Node5&#45;&gt;Node7 -->
<g id="edge10" class="edge">
<title>Node5&#45;&gt;Node7</title>
<path fill="none" stroke="midnightblue" d="M364.93,-558.28C358.9,-513.58 353.22,-471.5 349.48,-443.76"/>
<polygon fill="none" stroke="midnightblue" points="361.49,-559.02 366.3,-568.46 368.43,-558.08 361.49,-559.02"/>
</g>
<!-- Node6 -->
<g id="node6" class="node">
<title>Node6</title>
<g id="a_node6"><a xlink:href="interface_units_1_1_i_military_unit.html" target="_top" xlink:title="攻击性单位接口">
<polygon fill="white" stroke="black" points="452,-1380.5 452,-1558.5 592,-1558.5 592,-1380.5 452,-1380.5"/>
<text text-anchor="middle" x="522" y="-1546.5" font-family="Helvetica,sans-Serif" font-size="10.00">Units.IMilitaryUnit</text>
<polyline fill="none" stroke="black" points="452,-1539.5 592,-1539.5 "/>
<text text-anchor="start" x="460" y="-1527.5" font-family="Helvetica,sans-Serif" font-size="10.00">+ int AttackValue</text>
<text text-anchor="start" x="460" y="-1516.5" font-family="Helvetica,sans-Serif" font-size="10.00">+ float AttackColdDownTime</text>
<text text-anchor="start" x="460" y="-1505.5" font-family="Helvetica,sans-Serif" font-size="10.00">+ float AttackRange</text>
<text text-anchor="start" x="460" y="-1494.5" font-family="Helvetica,sans-Serif" font-size="10.00">+ int DefenceValue</text>
<text text-anchor="start" x="460" y="-1483.5" font-family="Helvetica,sans-Serif" font-size="10.00">+ float SpeedValue</text>
<text text-anchor="start" x="460" y="-1472.5" font-family="Helvetica,sans-Serif" font-size="10.00">+ Vector3 OriginalVelocity</text>
<text text-anchor="start" x="460" y="-1461.5" font-family="Helvetica,sans-Serif" font-size="10.00">+ Player.Player SidePlayer</text>
<text text-anchor="start" x="460" y="-1450.5" font-family="Helvetica,sans-Serif" font-size="10.00">+ UnityEvent&lt; Unit &gt;</text>
<text text-anchor="start" x="460" y="-1439.5" font-family="Helvetica,sans-Serif" font-size="10.00"> AttackEvent</text>
<text text-anchor="start" x="460" y="-1428.5" font-family="Helvetica,sans-Serif" font-size="10.00">+ UnityEvent&lt; IMilitaryUnit</text>
<text text-anchor="start" x="460" y="-1417.5" font-family="Helvetica,sans-Serif" font-size="10.00"> &gt; UnderAttackedEvent</text>
<polyline fill="none" stroke="black" points="452,-1410.5 592,-1410.5 "/>
<text text-anchor="start" x="460" y="-1398.5" font-family="Helvetica,sans-Serif" font-size="10.00">+ void Attack()</text>
<text text-anchor="start" x="460" y="-1387.5" font-family="Helvetica,sans-Serif" font-size="10.00">+ Unit GetUnit()</text>
</a>
</g>
</g>
<!-- Node6&#45;&gt;Node5 -->
<g id="edge8" class="edge">
<title>Node6&#45;&gt;Node5</title>
<path fill="none" stroke="#404040" d="M493.88,-1380.25C472.66,-1310.34 444.47,-1209.84 428,-1120 419.68,-1074.64 413.23,-1025.59 408.27,-978.94"/>
<polygon fill="none" stroke="#404040" points="408.25,-978.76 403.65,-973.2 407,-966.82 411.6,-972.37 408.25,-978.76"/>
<text text-anchor="middle" x="452.5" y="-1050" font-family="Helvetica,sans-Serif" font-size="10.00"> #_attacker</text>
</g>
<!-- Node6&#45;&gt;Node8 -->
<g id="edge14" class="edge">
<title>Node6&#45;&gt;Node8</title>
<path fill="none" stroke="#404040" d="M531.12,-1380.48C538.22,-1310.06 548.02,-1208.76 555,-1120 558.59,-1074.3 561.97,-1025.22 564.95,-978.66"/>
<polygon fill="none" stroke="#404040" points="564.95,-978.54 561.34,-972.29 565.71,-966.56 569.33,-972.8 564.95,-978.54"/>
<text text-anchor="middle" x="587.5" y="-1050" font-family="Helvetica,sans-Serif" font-size="10.00"> #_attacker</text>
</g>
<!-- Node7&#45;&gt;Node3 -->
<g id="edge9" class="edge">
<title>Node7&#45;&gt;Node3</title>
<path fill="none" stroke="#404040" d="M317.4,-443.52C300.94,-463.03 279.51,-488.13 260,-510 236.56,-536.28 218.9,-535.22 206,-568 166.99,-667.16 183.59,-915.43 207.7,-1126.22"/>
<polygon fill="none" stroke="#404040" points="207.74,-1126.53 212.4,-1132.03 209.11,-1138.45 204.45,-1132.95 207.74,-1126.53"/>
<text text-anchor="middle" x="220" y="-765" font-family="Helvetica,sans-Serif" font-size="10.00"> +door</text>
</g>
<!-- Node8&#45;&gt;Node1 -->
<g id="edge11" class="edge">
<title>Node8&#45;&gt;Node1</title>
<path fill="none" stroke="#404040" d="M574.18,-568.2C572.13,-424.06 569.48,-237.16 568.04,-135.93"/>
<polygon fill="none" stroke="#404040" points="568.03,-135.72 563.95,-129.78 567.86,-123.72 571.95,-129.67 568.03,-135.72"/>
<text text-anchor="middle" x="582.5" y="-283" font-family="Helvetica,sans-Serif" font-size="10.00"> +unit</text>
</g>
<!-- Node8&#45;&gt;Node11 -->
<g id="edge21" class="edge">
<title>Node8&#45;&gt;Node11</title>
<path fill="none" stroke="#404040" d="M660.06,-575.73C672.65,-546.81 685.05,-518.33 695.91,-493.39"/>
<polygon fill="none" stroke="#404040" points="696,-493.19 694.73,-486.09 700.79,-482.18 702.06,-489.28 696,-493.19"/>
<text text-anchor="middle" x="689.5" y="-536.5" font-family="Helvetica,sans-Serif" font-size="10.00"> +unit</text>
</g>
<!-- Node9 -->
<g id="node9" class="node">
<title>Node9</title>
<g id="a_node9"><a xlink:title=" ">
<polygon fill="white" stroke="#bfbfbf" points="1015.5,-739 1015.5,-796 1050.5,-796 1050.5,-739 1015.5,-739"/>
<text text-anchor="middle" x="1033" y="-784" font-family="Helvetica,sans-Serif" font-size="10.00">Text</text>
<polyline fill="none" stroke="#bfbfbf" points="1015.5,-777 1050.5,-777 "/>
<text text-anchor="middle" x="1033" y="-765" font-family="Helvetica,sans-Serif" font-size="10.00"> </text>
<polyline fill="none" stroke="#bfbfbf" points="1015.5,-758 1050.5,-758 "/>
<text text-anchor="middle" x="1033" y="-746" font-family="Helvetica,sans-Serif" font-size="10.00"> </text>
</a>
</g>
</g>
<!-- Node9&#45;&gt;Node1 -->
<g id="edge15" class="edge">
<title>Node9&#45;&gt;Node1</title>
<path fill="none" stroke="#404040" d="M1043.79,-738.81C1059.79,-693.44 1085.36,-601.02 1060,-528 992.19,-332.76 924.37,-298.88 762,-171 728.94,-144.96 688.77,-121.55 653.51,-103.24"/>
<polygon fill="none" stroke="#404040" points="653.42,-103.2 646.26,-104.02 642.74,-97.73 649.9,-96.9 653.42,-103.2"/>
<text text-anchor="middle" x="949" y="-283" font-family="Helvetica,sans-Serif" font-size="10.00"> +unitNumberText</text>
</g>
<!-- Node9&#45;&gt;Node11 -->
<g id="edge22" class="edge">
<title>Node9&#45;&gt;Node11</title>
<path fill="none" stroke="#404040" d="M1032.26,-738.93C1029.59,-690.82 1017.72,-590.71 966,-528 928.43,-482.45 868.75,-452.87 819.07,-434.79"/>
<polygon fill="none" stroke="#404040" points="818.97,-434.76 811.98,-436.54 807.65,-430.77 814.64,-428.99 818.97,-434.76"/>
<text text-anchor="middle" x="1018.5" y="-542" font-family="Helvetica,sans-Serif" font-size="10.00"> +resourceText</text>
<text text-anchor="middle" x="1018.5" y="-531" font-family="Helvetica,sans-Serif" font-size="10.00">+unitNumberText</text>
</g>
<!-- Node10&#45;&gt;Node1 -->
<g id="edge16" class="edge">
<title>Node10&#45;&gt;Node1</title>
<path fill="none" stroke="#404040" d="M643.05,-171.39C634.82,-159.66 625.72,-146.69 616.76,-133.92"/>
<polygon fill="none" stroke="#404040" points="616.51,-133.57 609.79,-130.95 609.62,-123.74 616.34,-126.36 616.51,-133.57"/>
<text text-anchor="middle" x="658" y="-145" font-family="Helvetica,sans-Serif" font-size="10.00"> +managerUI</text>
</g>
<!-- Node10&#45;&gt;Node11 -->
<g id="edge25" class="edge">
<title>Node10&#45;&gt;Node11</title>
<path fill="none" stroke="#404040" d="M733.31,-261.55C737.97,-267.25 742.02,-273.42 745,-280 751.23,-293.78 753.27,-309.23 752.91,-324.5"/>
<polygon fill="none" stroke="#404040" points="752.89,-324.7 756.5,-330.94 752.13,-336.67 748.52,-330.43 752.89,-324.7"/>
<text text-anchor="middle" x="794.5" y="-283" font-family="Helvetica,sans-Serif" font-size="10.00"> +dispatchManagerUI</text>
</g>
<!-- Node11&#45;&gt;Node10 -->
<g id="edge18" class="edge">
<title>Node11&#45;&gt;Node10</title>
<path fill="none" stroke="#404040" d="M684.18,-336.69C676.67,-322.13 670.06,-306.51 666,-291 664.59,-285.62 663.89,-279.95 663.7,-274.24"/>
<polygon fill="none" stroke="#404040" points="663.71,-273.8 659.86,-267.7 664,-261.8 667.85,-267.9 663.71,-273.8"/>
<text text-anchor="middle" x="705.5" y="-283" font-family="Helvetica,sans-Serif" font-size="10.00"> +UnitDispatchUIs</text>
</g>
<!-- Node12&#45;&gt;Node11 -->
<g id="edge23" class="edge">
<title>Node12&#45;&gt;Node11</title>
<path fill="none" stroke="#404040" d="M801.25,-1012.67C795.5,-998.56 789.66,-982.32 786,-967 775.31,-922.25 750.83,-638.53 738.86,-494.37"/>
<polygon fill="none" stroke="#404040" points="738.83,-494.08 734.35,-488.43 737.84,-482.12 742.32,-487.77 738.83,-494.08"/>
<text text-anchor="middle" x="825.5" y="-765" font-family="Helvetica,sans-Serif" font-size="10.00"> +spriteIndicatorUI</text>
</g>
<!-- Node13&#45;&gt;Node10 -->
<g id="edge26" class="edge">
<title>Node13&#45;&gt;Node10</title>
<path fill="none" stroke="#404040" d="M967.6,-985.38C944.39,-889.81 901.9,-707.3 876,-550 856.37,-430.82 919.76,-374.88 845,-280 825.31,-255.01 794.68,-240.01 764.74,-231.01"/>
<polygon fill="none" stroke="#404040" points="764.45,-230.93 757.6,-233.19 752.89,-227.73 759.74,-225.48 764.45,-230.93"/>
<text text-anchor="middle" x="919" y="-536.5" font-family="Helvetica,sans-Serif" font-size="10.00"> +shootCalculatorUI</text>
</g>
</g>
</svg>
        <g id="navigator" transform="translate(0 0)" fill="#404254">
                <rect fill="#f2f5e9" fill-opacity="0.5" stroke="#606060" stroke-width=".5" x="0" y="0" width="60" height="60"/>
                <use id="zoomplus" xlink:href="#zoomPlus" x="17" y="9" onmousedown="handleZoom(evt,'in')"/>
                <use id="zoomminus" xlink:href="#zoomMin" x="42" y="9" onmousedown="handleZoom(evt,'out')"/>
                <use id="reset" xlink:href="#resetDef" x="30" y="36" onmousedown="handleReset()"/>
                <g id="arrowUp" xlink:href="#dirArrow" transform="translate(30 24)" onmousedown="handlePan(0,-1)">
                  <use xlink:href="#rim" fill="#404040">
                        <set attributeName="fill" to="#808080" begin="arrowUp.mouseover" end="arrowUp.mouseout"/>
                  </use>
                  <path fill="none" stroke="white" stroke-width="1.5" d="M0,-3.0v7 M-2.5,-0.5L0,-3.0L2.5,-0.5"/>
                </g>
                <g id="arrowRight" xlink:href="#dirArrow" transform="rotate(90) translate(36 -43)" onmousedown="handlePan(1,0)">
                  <use xlink:href="#rim" fill="#404040">
                        <set attributeName="fill" to="#808080" begin="arrowRight.mouseover" end="arrowRight.mouseout"/>
                  </use>
                  <path fill="none" stroke="white" stroke-width="1.5" d="M0,-3.0v7 M-2.5,-0.5L0,-3.0L2.5,-0.5"/>
                </g>
                <g id="arrowDown" xlink:href="#dirArrow" transform="rotate(180) translate(-30 -48)" onmousedown="handlePan(0,1)">
                  <use xlink:href="#rim" fill="#404040">
                        <set attributeName="fill" to="#808080" begin="arrowDown.mouseover" end="arrowDown.mouseout"/>
                  </use>
                  <path fill="none" stroke="white" stroke-width="1.5" d="M0,-3.0v7 M-2.5,-0.5L0,-3.0L2.5,-0.5"/>
                </g>
                <g id="arrowLeft" xlink:href="#dirArrow" transform="rotate(270) translate(-36 17)" onmousedown="handlePan(-1,0)">
                  <use xlink:href="#rim" fill="#404040">
                        <set attributeName="fill" to="#808080" begin="arrowLeft.mouseover" end="arrowLeft.mouseout"/>
                  </use>
                  <path fill="none" stroke="white" stroke-width="1.5" d="M0,-3.0v7 M-2.5,-0.5L0,-3.0L2.5,-0.5"/>
                </g>
        </g>
        <svg viewBox="0 0 15 15" width="100%" height="30px" preserveAspectRatio="xMaxYMin meet">
         <g id="arrow_out" transform="scale(0.3 0.3)">
          <a xlink:href="class_u_i_1_1_chinese_sports_1_1_battle_1_1_dispatch_unit_chinese_u_i__coll__graph_org.svg" target="_base">
           <rect id="button" ry="5" rx="5" y="6" x="6" height="38" width="38"
                fill="#f2f5e9" fill-opacity="0.5" stroke="#606060" stroke-width="1.0"/>
           <path id="arrow"
             d="M 11.500037,31.436501 C 11.940474,20.09759 22.043105,11.32322 32.158766,21.979434 L 37.068811,17.246167 C 37.068811,17.246167 37.088388,32 37.088388,32 L 22.160133,31.978069 C 22.160133,31.978069 26.997745,27.140456 26.997745,27.140456 C 18.528582,18.264221 13.291696,25.230495 11.500037,31.436501 z"
             style="fill:#404040;"/>
          </a>
         </g>
        </svg>
</svg>
