<?xml version="1.0" encoding="UTF-8" standalone="no"?>
<!DOCTYPE svg PUBLIC "-//W3C//DTD SVG 1.1//EN"
 "http://www.w3.org/Graphics/SVG/1.1/DTD/svg11.dtd">
<!-- Generated by graphviz version 2.47.1 (20210417.1919)
 -->
<!-- Title: Network.NetworkPlayerManager.SendAddFarmer Pages: 1 -->
<svg width="321pt" height="88pt"
 viewBox="0.00 0.00 321.00 88.00" xmlns="http://www.w3.org/2000/svg" xmlns:xlink="http://www.w3.org/1999/xlink">
<g id="graph0" class="graph" transform="scale(1 1) rotate(0) translate(4 84)">
<title>Network.NetworkPlayerManager.SendAddFarmer</title>
<polygon fill="white" stroke="transparent" points="-4,4 -4,-84 317,-84 317,4 -4,4"/>
<!-- Node1 -->
<g id="node1" class="node">
<title>Node1</title>
<g id="a_node1"><a xlink:title="A发送过来，传输给另一个端的B 添加农民">
<polygon fill="#bfbfbf" stroke="black" points="155,-24.5 155,-54.5 313,-54.5 313,-24.5 155,-24.5"/>
<text text-anchor="start" x="163" y="-42.5" font-family="Helvetica,sans-Serif" font-size="10.00">Network.NetworkPlayerManager.</text>
<text text-anchor="middle" x="234" y="-31.5" font-family="Helvetica,sans-Serif" font-size="10.00">SendAddFarmer</text>
</a>
</g>
</g>
<!-- Node2 -->
<g id="node2" class="node">
<title>Node2</title>
<g id="a_node2"><a xlink:href="class_player_1_1_player_online___a_side.html#a8e3143c35eddb5818b8f06a85cae1b36" target="_top" xlink:title="增加农民">
<polygon fill="white" stroke="black" points="8,-49.5 8,-79.5 111,-79.5 111,-49.5 8,-49.5"/>
<text text-anchor="start" x="16" y="-67.5" font-family="Helvetica,sans-Serif" font-size="10.00">Player.PlayerOnline</text>
<text text-anchor="middle" x="59.5" y="-56.5" font-family="Helvetica,sans-Serif" font-size="10.00">_ASide.AddFarmer</text>
</a>
</g>
</g>
<!-- Node1&#45;&gt;Node2 -->
<g id="edge1" class="edge">
<title>Node1&#45;&gt;Node2</title>
<path fill="none" stroke="midnightblue" d="M144.74,-52.29C133.25,-53.96 121.81,-55.61 111.24,-57.15"/>
<polygon fill="midnightblue" stroke="midnightblue" points="145.43,-55.73 154.83,-50.83 144.43,-48.8 145.43,-55.73"/>
</g>
<!-- Node3 -->
<g id="node3" class="node">
<title>Node3</title>
<g id="a_node3"><a xlink:href="class_player_1_1_player_online___a_side.html#a801e3815c18c820b970508e72e678b52" target="_top" xlink:title="减少农民">
<polygon fill="white" stroke="black" points="0,-0.5 0,-30.5 119,-30.5 119,-0.5 0,-0.5"/>
<text text-anchor="start" x="8" y="-18.5" font-family="Helvetica,sans-Serif" font-size="10.00">Player.PlayerOnline</text>
<text text-anchor="middle" x="59.5" y="-7.5" font-family="Helvetica,sans-Serif" font-size="10.00">_ASide.SubtractFarmer</text>
</a>
</g>
</g>
<!-- Node1&#45;&gt;Node3 -->
<g id="edge2" class="edge">
<title>Node1&#45;&gt;Node3</title>
<path fill="none" stroke="midnightblue" d="M144.64,-27.21C135.96,-26 127.31,-24.8 119.04,-23.64"/>
<polygon fill="midnightblue" stroke="midnightblue" points="144.44,-30.71 154.83,-28.62 145.4,-23.78 144.44,-30.71"/>
</g>
</g>
</svg>
