<?xml version="1.0" encoding="UTF-8" standalone="no"?>
<!DOCTYPE svg PUBLIC "-//W3C//DTD SVG 1.1//EN"
 "http://www.w3.org/Graphics/SVG/1.1/DTD/svg11.dtd">
<!-- Generated by graphviz version 2.47.1 (20210417.1919)
 -->
<!-- Title: UI.Local.UnitDispatchManagerUI Pages: 1 -->
<svg width="191pt" height="215pt"
 viewBox="0.00 0.00 191.00 215.00" xmlns="http://www.w3.org/2000/svg" xmlns:xlink="http://www.w3.org/1999/xlink">
<g id="graph0" class="graph" transform="scale(1 1) rotate(0) translate(4 211)">
<title>UI.Local.UnitDispatchManagerUI</title>
<polygon fill="white" stroke="transparent" points="-4,4 -4,-211 187,-211 187,4 -4,4"/>
<!-- Node1 -->
<g id="node1" class="node">
<title>Node1</title>
<g id="a_node1"><a xlink:title=" ">
<polygon fill="#bfbfbf" stroke="black" points="0,-0.5 0,-112.5 183,-112.5 183,-0.5 0,-0.5"/>
<text text-anchor="middle" x="91.5" y="-100.5" font-family="Helvetica,sans-Serif" font-size="10.00">UI.Local.UnitDispatchManagerUI</text>
<polyline fill="none" stroke="black" points="0,-93.5 183,-93.5 "/>
<text text-anchor="start" x="8" y="-81.5" font-family="Helvetica,sans-Serif" font-size="10.00">+ UnitDispatchUI[] UnitDispatchUIs</text>
<text text-anchor="start" x="8" y="-70.5" font-family="Helvetica,sans-Serif" font-size="10.00">+ Player.Player player</text>
<text text-anchor="start" x="8" y="-59.5" font-family="Helvetica,sans-Serif" font-size="10.00">+ ShootCalculatorUI shootCalculatorUI</text>
<text text-anchor="start" x="8" y="-48.5" font-family="Helvetica,sans-Serif" font-size="10.00">+ bool IsInDispatching</text>
<polyline fill="none" stroke="black" points="0,-41.5 183,-41.5 "/>
<text text-anchor="start" x="8" y="-29.5" font-family="Helvetica,sans-Serif" font-size="10.00">+ void SetClick(int rdInt)</text>
<text text-anchor="start" x="8" y="-18.5" font-family="Helvetica,sans-Serif" font-size="10.00">+ void SetClickWithVelocity</text>
<text text-anchor="start" x="8" y="-7.5" font-family="Helvetica,sans-Serif" font-size="10.00">(int rdInt)</text>
</a>
</g>
</g>
<!-- Node2 -->
<g id="node2" class="node">
<title>Node2</title>
<g id="a_node2"><a xlink:title=" ">
<polygon fill="white" stroke="#bfbfbf" points="50,-149.5 50,-206.5 133,-206.5 133,-149.5 50,-149.5"/>
<text text-anchor="middle" x="91.5" y="-194.5" font-family="Helvetica,sans-Serif" font-size="10.00">MonoBehaviour</text>
<polyline fill="none" stroke="#bfbfbf" points="50,-187.5 133,-187.5 "/>
<text text-anchor="middle" x="91.5" y="-175.5" font-family="Helvetica,sans-Serif" font-size="10.00"> </text>
<polyline fill="none" stroke="#bfbfbf" points="50,-168.5 133,-168.5 "/>
<text text-anchor="middle" x="91.5" y="-156.5" font-family="Helvetica,sans-Serif" font-size="10.00"> </text>
</a>
</g>
</g>
<!-- Node2&#45;&gt;Node1 -->
<g id="edge1" class="edge">
<title>Node2&#45;&gt;Node1</title>
<path fill="none" stroke="midnightblue" d="M91.5,-139.11C91.5,-130.75 91.5,-121.73 91.5,-112.83"/>
<polygon fill="none" stroke="midnightblue" points="88,-139.28 91.5,-149.28 95,-139.28 88,-139.28"/>
</g>
</g>
</svg>
