<?xml version="1.0" encoding="UTF-8" standalone="no"?>
<!DOCTYPE svg PUBLIC "-//W3C//DTD SVG 1.1//EN"
 "http://www.w3.org/Graphics/SVG/1.1/DTD/svg11.dtd">
<!-- Generated by graphviz version 2.47.1 (20210417.1919)
 -->
<!-- Title: UI.Tutorial.TutorialManager.RegisterTutorialClip Pages: 1 -->
<svg width="314pt" height="39pt"
 viewBox="0.00 0.00 314.00 39.00" xmlns="http://www.w3.org/2000/svg" xmlns:xlink="http://www.w3.org/1999/xlink">
<g id="graph0" class="graph" transform="scale(1 1) rotate(0) translate(4 35)">
<title>UI.Tutorial.TutorialManager.RegisterTutorialClip</title>
<polygon fill="white" stroke="transparent" points="-4,4 -4,-35 310,-35 310,4 -4,4"/>
<!-- Node1 -->
<g id="node1" class="node">
<title>Node1</title>
<g id="a_node1"><a xlink:title=" ">
<polygon fill="#bfbfbf" stroke="black" points="0,-0.5 0,-30.5 135,-30.5 135,-0.5 0,-0.5"/>
<text text-anchor="start" x="8" y="-18.5" font-family="Helvetica,sans-Serif" font-size="10.00">UI.Tutorial.TutorialManager.</text>
<text text-anchor="middle" x="67.5" y="-7.5" font-family="Helvetica,sans-Serif" font-size="10.00">RegisterTutorialClip</text>
</a>
</g>
</g>
<!-- Node2 -->
<g id="node2" class="node">
<title>Node2</title>
<g id="a_node2"><a xlink:href="class_u_i_1_1_tutorial_1_1_tutorial_manager.html#ae1c746e2925b345c396c4f742e646bf2" target="_top" xlink:title=" ">
<polygon fill="white" stroke="black" points="171,-0.5 171,-30.5 306,-30.5 306,-0.5 171,-0.5"/>
<text text-anchor="start" x="179" y="-18.5" font-family="Helvetica,sans-Serif" font-size="10.00">UI.Tutorial.TutorialManager.</text>
<text text-anchor="middle" x="238.5" y="-7.5" font-family="Helvetica,sans-Serif" font-size="10.00">RemoveTutorialClip</text>
</a>
</g>
</g>
<!-- Node1&#45;&gt;Node2 -->
<g id="edge1" class="edge">
<title>Node1&#45;&gt;Node2</title>
<path fill="none" stroke="midnightblue" d="M135.29,-15.5C143.62,-15.5 152.19,-15.5 160.66,-15.5"/>
<polygon fill="midnightblue" stroke="midnightblue" points="160.92,-19 170.92,-15.5 160.92,-12 160.92,-19"/>
</g>
</g>
</svg>
