<?xml version="1.0" encoding="UTF-8" standalone="no"?>
<!DOCTYPE svg PUBLIC "-//W3C//DTD SVG 1.1//EN"
 "http://www.w3.org/Graphics/SVG/1.1/DTD/svg11.dtd">
<!-- Generated by graphviz version 2.47.1 (20210417.1919)
 -->
<!-- Title: Saver.DataTransfer.LoadSceneInLoadingScene Pages: 1 -->
<svg width="341pt" height="176pt"
 viewBox="0.00 0.00 341.00 175.50" xmlns="http://www.w3.org/2000/svg" xmlns:xlink="http://www.w3.org/1999/xlink">
<g id="graph0" class="graph" transform="scale(1 1) rotate(0) translate(4 171.5)">
<title>Saver.DataTransfer.LoadSceneInLoadingScene</title>
<polygon fill="white" stroke="transparent" points="-4,4 -4,-171.5 337,-171.5 337,4 -4,4"/>
<!-- Node1 -->
<g id="node1" class="node">
<title>Node1</title>
<g id="a_node1"><a xlink:title="使用进度条加载">
<polygon fill="#bfbfbf" stroke="black" points="183,-73.5 183,-103.5 333,-103.5 333,-73.5 183,-73.5"/>
<text text-anchor="start" x="191" y="-91.5" font-family="Helvetica,sans-Serif" font-size="10.00">Saver.DataTransfer.LoadScene</text>
<text text-anchor="middle" x="258" y="-80.5" font-family="Helvetica,sans-Serif" font-size="10.00">InLoadingScene</text>
</a>
</g>
</g>
<!-- Node2 -->
<g id="node2" class="node">
<title>Node2</title>
<g id="a_node2"><a xlink:href="class_u_i_1_1_pause_panel_u_i.html#af327155267d92d2efe5c786808e31d8a" target="_top" xlink:title=" ">
<polygon fill="white" stroke="black" points="0,-148 0,-167 147,-167 147,-148 0,-148"/>
<text text-anchor="middle" x="73.5" y="-155" font-family="Helvetica,sans-Serif" font-size="10.00">UI.PausePanelUI.BackToMain</text>
</a>
</g>
</g>
<!-- Node1&#45;&gt;Node2 -->
<g id="edge1" class="edge">
<title>Node1&#45;&gt;Node2</title>
<path fill="none" stroke="midnightblue" d="M218.1,-108.15C197.34,-118.12 171.17,-129.91 147,-138.5 137.07,-142.03 126.16,-145.23 115.9,-147.95"/>
<polygon fill="midnightblue" stroke="midnightblue" points="219.76,-111.23 227.22,-103.71 216.7,-104.93 219.76,-111.23"/>
</g>
<!-- Node3 -->
<g id="node3" class="node">
<title>Node3</title>
<g id="a_node3"><a xlink:href="class_u_i_1_1_chinese_sports_1_1_battle_1_1_result_u_i.html#a0a4f51cd801e68a4f52e05f2c6cdf662" target="_top" xlink:title=" ">
<polygon fill="white" stroke="black" points="11.5,-98.5 11.5,-128.5 135.5,-128.5 135.5,-98.5 11.5,-98.5"/>
<text text-anchor="start" x="19.5" y="-116.5" font-family="Helvetica,sans-Serif" font-size="10.00">UI.ChineseSports.Battle.</text>
<text text-anchor="middle" x="73.5" y="-105.5" font-family="Helvetica,sans-Serif" font-size="10.00">ResultUI.BackToMap</text>
</a>
</g>
</g>
<!-- Node1&#45;&gt;Node3 -->
<g id="edge2" class="edge">
<title>Node1&#45;&gt;Node3</title>
<path fill="none" stroke="midnightblue" d="M172.77,-100.04C160.22,-101.76 147.5,-103.5 135.56,-105.14"/>
<polygon fill="midnightblue" stroke="midnightblue" points="173.34,-103.49 182.77,-98.67 172.39,-96.56 173.34,-103.49"/>
</g>
<!-- Node4 -->
<g id="node4" class="node">
<title>Node4</title>
<g id="a_node4"><a xlink:href="class_u_i_1_1_chinese_sports_1_1_start_1_1_start_u_i.html#a6a2679139d6fa3f62d3af7dbcb1965a7" target="_top" xlink:title=" ">
<polygon fill="white" stroke="black" points="3.5,-49.5 3.5,-79.5 143.5,-79.5 143.5,-49.5 3.5,-49.5"/>
<text text-anchor="start" x="11.5" y="-67.5" font-family="Helvetica,sans-Serif" font-size="10.00">UI.ChineseSports.Start.Start</text>
<text text-anchor="middle" x="73.5" y="-56.5" font-family="Helvetica,sans-Serif" font-size="10.00">UI.InitToMap</text>
</a>
</g>
</g>
<!-- Node1&#45;&gt;Node4 -->
<g id="edge3" class="edge">
<title>Node1&#45;&gt;Node4</title>
<path fill="none" stroke="midnightblue" d="M172.7,-77.41C162.97,-76.13 153.15,-74.84 143.66,-73.59"/>
<polygon fill="midnightblue" stroke="midnightblue" points="172.4,-80.9 182.77,-78.74 173.31,-73.96 172.4,-80.9"/>
</g>
<!-- Node5 -->
<g id="node5" class="node">
<title>Node5</title>
<g id="a_node5"><a xlink:href="class_u_i_1_1_chinese_sports_1_1_main_1_1_scroll_u_i.html#a3df0fcef27cb6132fe2105f3f1cc4742" target="_top" xlink:title=" ">
<polygon fill="white" stroke="black" points="1.5,-0.5 1.5,-30.5 145.5,-30.5 145.5,-0.5 1.5,-0.5"/>
<text text-anchor="start" x="9.5" y="-18.5" font-family="Helvetica,sans-Serif" font-size="10.00">UI.ChineseSports.Main.Scroll</text>
<text text-anchor="middle" x="73.5" y="-7.5" font-family="Helvetica,sans-Serif" font-size="10.00">UI.LoadBattle</text>
</a>
</g>
</g>
<!-- Node1&#45;&gt;Node5 -->
<g id="edge4" class="edge">
<title>Node1&#45;&gt;Node5</title>
<path fill="none" stroke="midnightblue" d="M214.78,-69.14C194.45,-60.06 169.62,-49.32 147,-40.5 138.32,-37.11 128.96,-33.71 119.95,-30.55"/>
<polygon fill="midnightblue" stroke="midnightblue" points="213.52,-72.41 224.07,-73.31 216.38,-66.02 213.52,-72.41"/>
</g>
</g>
</svg>
