<?xml version="1.0" encoding="UTF-8" standalone="no"?>
<!DOCTYPE svg PUBLIC "-//W3C//DTD SVG 1.1//EN"
 "http://www.w3.org/Graphics/SVG/1.1/DTD/svg11.dtd">
<!-- Generated by graphviz version 2.47.1 (20210417.1919)
 -->
<!-- Title: UI.ChineseSports.Main.MainUIManager Pages: 1 -->
<!--zoomable 1207 -->
<svg id="main" version="1.1" xmlns="http://www.w3.org/2000/svg" xmlns:xlink="http://www.w3.org/1999/xlink" xml:space="preserve" onload="init(evt)">
<style type="text/css"><![CDATA[
.edge:hover path { stroke: red; }
.edge:hover polygon { stroke: red; fill: red; }
]]></style>
<script type="text/javascript"><![CDATA[
var edges = document.getElementsByTagName('g');
if (edges && edges.length) {
  for (var i=0;i<edges.length;i++) {
    if (edges[i].id.substr(0,4)=='edge') {
      edges[i].setAttribute('class','edge');
    }
  }
}
]]></script>
        <defs>
                <circle id="rim" cx="0" cy="0" r="7"/>
                <circle id="rim2" cx="0" cy="0" r="3.5"/>
                <g id="zoomPlus">
                        <use xlink:href="#rim" fill="#404040">
                                <set attributeName="fill" to="#808080" begin="zoomplus.mouseover" end="zoomplus.mouseout"/>
                        </use>
                        <path d="M-4,0h8M0,-4v8" fill="none" stroke="white" stroke-width="1.5" pointer-events="none"/>
                </g>
                <g id="zoomMin">
                        <use xlink:href="#rim" fill="#404040">
                                <set attributeName="fill" to="#808080" begin="zoomminus.mouseover" end="zoomminus.mouseout"/>
                        </use>
                        <path d="M-4,0h8" fill="none" stroke="white" stroke-width="1.5" pointer-events="none"/>
                </g>
                <g id="dirArrow">
                        <path fill="none" stroke="white" stroke-width="1.5" d="M0,-3.0v7 M-2.5,-0.5L0,-3.0L2.5,-0.5"/>
                </g>
               <g id="resetDef">
                       <use xlink:href="#rim2" fill="#404040">
                               <set attributeName="fill" to="#808080" begin="reset.mouseover" end="reset.mouseout"/>
                       </use>
               </g>
        </defs>

<script type="text/javascript">
var viewWidth = 737;
var viewHeight = 1207;
var sectionId = 'dynsection-1';
</script>
<script xlink:href="svgpan.js"/>
<svg id="graph" class="graph">
<g id="viewport">
<title>UI.ChineseSports.Main.MainUIManager</title>
<polygon fill="white" stroke="transparent" points="-4,4 -4,-1203 732.5,-1203 732.5,4 -4,4"/>
<!-- Node1 -->
<g id="node1" class="node">
<title>Node1</title>
<g id="a_node1"><a xlink:title=" ">
<polygon fill="#bfbfbf" stroke="black" points="112,-0.5 112,-266.5 260,-266.5 260,-0.5 112,-0.5"/>
<text text-anchor="start" x="120" y="-254.5" font-family="Helvetica,sans-Serif" font-size="10.00">UI.ChineseSports.Main.Main</text>
<text text-anchor="middle" x="186" y="-243.5" font-family="Helvetica,sans-Serif" font-size="10.00">UIManager</text>
<polyline fill="none" stroke="black" points="112,-236.5 260,-236.5 "/>
<text text-anchor="start" x="120" y="-224.5" font-family="Helvetica,sans-Serif" font-size="10.00">+ GameObject itemUI</text>
<text text-anchor="start" x="120" y="-213.5" font-family="Helvetica,sans-Serif" font-size="10.00">+ RectTransform backGround</text>
<text text-anchor="start" x="120" y="-202.5" font-family="Helvetica,sans-Serif" font-size="10.00">+ float rollSpeed</text>
<text text-anchor="start" x="120" y="-191.5" font-family="Helvetica,sans-Serif" font-size="10.00">+ float bound</text>
<text text-anchor="start" x="120" y="-180.5" font-family="Helvetica,sans-Serif" font-size="10.00">+ float threshold</text>
<text text-anchor="start" x="120" y="-169.5" font-family="Helvetica,sans-Serif" font-size="10.00">+ List&lt; LevelUI &gt; LevelMap</text>
<text text-anchor="start" x="120" y="-158.5" font-family="Helvetica,sans-Serif" font-size="10.00">Dicts</text>
<text text-anchor="start" x="120" y="-147.5" font-family="Helvetica,sans-Serif" font-size="10.00">+ List&lt; string &gt; titles</text>
<text text-anchor="start" x="120" y="-136.5" font-family="Helvetica,sans-Serif" font-size="10.00">+ List&lt; Sprite &gt; titleSprites</text>
<text text-anchor="start" x="120" y="-125.5" font-family="Helvetica,sans-Serif" font-size="10.00">+ List&lt; string &gt; battleScene</text>
<text text-anchor="start" x="120" y="-114.5" font-family="Helvetica,sans-Serif" font-size="10.00">Names</text>
<polyline fill="none" stroke="black" points="112,-107.5 260,-107.5 "/>
<text text-anchor="start" x="120" y="-95.5" font-family="Helvetica,sans-Serif" font-size="10.00">+ void ShowItemUI()</text>
<text text-anchor="start" x="120" y="-84.5" font-family="Helvetica,sans-Serif" font-size="10.00">+ void CloseItemUI()</text>
<text text-anchor="start" x="120" y="-73.5" font-family="Helvetica,sans-Serif" font-size="10.00">+ void ShowCharacterViewUI()</text>
<text text-anchor="start" x="120" y="-62.5" font-family="Helvetica,sans-Serif" font-size="10.00">+ void CloseCharacterViewUI()</text>
<text text-anchor="start" x="120" y="-51.5" font-family="Helvetica,sans-Serif" font-size="10.00">+ void ShowScrollUI(int</text>
<text text-anchor="start" x="120" y="-40.5" font-family="Helvetica,sans-Serif" font-size="10.00"> index)</text>
<text text-anchor="start" x="120" y="-29.5" font-family="Helvetica,sans-Serif" font-size="10.00">+ void CloseScrollUI()</text>
<text text-anchor="start" x="120" y="-18.5" font-family="Helvetica,sans-Serif" font-size="10.00">+ void ShowSettingUI()</text>
<text text-anchor="start" x="120" y="-7.5" font-family="Helvetica,sans-Serif" font-size="10.00">+ void CloseSettingUI()</text>
</a>
</g>
</g>
<!-- Node2 -->
<g id="node2" class="node">
<title>Node2</title>
<g id="a_node2"><a xlink:title=" ">
<polygon fill="white" stroke="#bfbfbf" points="255.5,-1141.5 255.5,-1198.5 338.5,-1198.5 338.5,-1141.5 255.5,-1141.5"/>
<text text-anchor="middle" x="297" y="-1186.5" font-family="Helvetica,sans-Serif" font-size="10.00">MonoBehaviour</text>
<polyline fill="none" stroke="#bfbfbf" points="255.5,-1179.5 338.5,-1179.5 "/>
<text text-anchor="middle" x="297" y="-1167.5" font-family="Helvetica,sans-Serif" font-size="10.00"> </text>
<polyline fill="none" stroke="#bfbfbf" points="255.5,-1160.5 338.5,-1160.5 "/>
<text text-anchor="middle" x="297" y="-1148.5" font-family="Helvetica,sans-Serif" font-size="10.00"> </text>
</a>
</g>
</g>
<!-- Node2&#45;&gt;Node1 -->
<g id="edge1" class="edge">
<title>Node2&#45;&gt;Node1</title>
<path fill="none" stroke="midnightblue" d="M247.02,-1137.88C199.1,-1103.76 134,-1044.21 134,-972.5 134,-972.5 134,-972.5 134,-397 134,-354.14 140.75,-308.09 149.39,-266.7"/>
<polygon fill="none" stroke="midnightblue" points="245.24,-1140.91 255.45,-1143.75 249.24,-1135.17 245.24,-1140.91"/>
</g>
<!-- Node3 -->
<g id="node3" class="node">
<title>Node3</title>
<g id="a_node3"><a xlink:href="class_u_i_1_1_chinese_sports_1_1_main_1_1_character_view_u_i.html" target="_top" xlink:title=" ">
<polygon fill="white" stroke="black" points="567.5,-893.5 567.5,-1049.5 728.5,-1049.5 728.5,-893.5 567.5,-893.5"/>
<text text-anchor="start" x="575.5" y="-1037.5" font-family="Helvetica,sans-Serif" font-size="10.00">UI.ChineseSports.Main.Character</text>
<text text-anchor="middle" x="648" y="-1026.5" font-family="Helvetica,sans-Serif" font-size="10.00">ViewUI</text>
<polyline fill="none" stroke="black" points="567.5,-1019.5 728.5,-1019.5 "/>
<text text-anchor="start" x="575.5" y="-1007.5" font-family="Helvetica,sans-Serif" font-size="10.00">+ List&lt; Sprite &gt; character</text>
<text text-anchor="start" x="575.5" y="-996.5" font-family="Helvetica,sans-Serif" font-size="10.00">Sprites</text>
<text text-anchor="start" x="575.5" y="-985.5" font-family="Helvetica,sans-Serif" font-size="10.00">+ List&lt; String &gt; character</text>
<text text-anchor="start" x="575.5" y="-974.5" font-family="Helvetica,sans-Serif" font-size="10.00">Descriptions</text>
<text text-anchor="start" x="575.5" y="-963.5" font-family="Helvetica,sans-Serif" font-size="10.00">+ List&lt; Unit &gt; militaryUnits</text>
<text text-anchor="start" x="575.5" y="-952.5" font-family="Helvetica,sans-Serif" font-size="10.00">+ List&lt; PropertyLine</text>
<text text-anchor="start" x="575.5" y="-941.5" font-family="Helvetica,sans-Serif" font-size="10.00"> &gt; propertyLines</text>
<text text-anchor="start" x="575.5" y="-930.5" font-family="Helvetica,sans-Serif" font-size="10.00">+ Image characterAvater</text>
<text text-anchor="start" x="575.5" y="-919.5" font-family="Helvetica,sans-Serif" font-size="10.00">+ int CurCharacterSpriteIndex</text>
<polyline fill="none" stroke="black" points="567.5,-912.5 728.5,-912.5 "/>
<text text-anchor="start" x="575.5" y="-900.5" font-family="Helvetica,sans-Serif" font-size="10.00">+ void Set(int index)</text>
</a>
</g>
</g>
<!-- Node2&#45;&gt;Node3 -->
<g id="edge3" class="edge">
<title>Node2&#45;&gt;Node3</title>
<path fill="none" stroke="midnightblue" d="M348.92,-1165.36C391.75,-1160.52 452.9,-1149.24 500,-1123 532.97,-1104.63 563.37,-1076.68 587.93,-1049.83"/>
<polygon fill="none" stroke="midnightblue" points="348.3,-1161.91 338.72,-1166.43 349.03,-1168.87 348.3,-1161.91"/>
</g>
<!-- Node5 -->
<g id="node5" class="node">
<title>Node5</title>
<g id="a_node5"><a xlink:href="class_u_i_1_1_chinese_sports_1_1_main_1_1_scroll_u_i.html" target="_top" xlink:title=" ">
<polygon fill="white" stroke="black" points="233.5,-314.5 233.5,-481.5 386.5,-481.5 386.5,-314.5 233.5,-314.5"/>
<text text-anchor="middle" x="310" y="-469.5" font-family="Helvetica,sans-Serif" font-size="10.00">UI.ChineseSports.Main.ScrollUI</text>
<polyline fill="none" stroke="black" points="233.5,-462.5 386.5,-462.5 "/>
<text text-anchor="start" x="241.5" y="-450.5" font-family="Helvetica,sans-Serif" font-size="10.00">+ Animator scrollAnimator</text>
<text text-anchor="start" x="241.5" y="-439.5" font-family="Helvetica,sans-Serif" font-size="10.00">+ float fillAmount</text>
<text text-anchor="start" x="241.5" y="-428.5" font-family="Helvetica,sans-Serif" font-size="10.00">+ string sceneName</text>
<text text-anchor="start" x="241.5" y="-417.5" font-family="Helvetica,sans-Serif" font-size="10.00">+ Image titleImage</text>
<text text-anchor="start" x="241.5" y="-406.5" font-family="Helvetica,sans-Serif" font-size="10.00">+ Sprite titleSprite</text>
<text text-anchor="start" x="241.5" y="-395.5" font-family="Helvetica,sans-Serif" font-size="10.00">+ string TitleName</text>
<text text-anchor="start" x="241.5" y="-384.5" font-family="Helvetica,sans-Serif" font-size="10.00">+ Sprite TitleSprite</text>
<polyline fill="none" stroke="black" points="233.5,-377.5 386.5,-377.5 "/>
<text text-anchor="start" x="241.5" y="-365.5" font-family="Helvetica,sans-Serif" font-size="10.00">+ void SetFillBar()</text>
<text text-anchor="start" x="241.5" y="-354.5" font-family="Helvetica,sans-Serif" font-size="10.00">+ void Close()</text>
<text text-anchor="start" x="241.5" y="-343.5" font-family="Helvetica,sans-Serif" font-size="10.00">+ void LoadBattle()</text>
<text text-anchor="start" x="241.5" y="-332.5" font-family="Helvetica,sans-Serif" font-size="10.00">+ void ShowVideo()</text>
<text text-anchor="start" x="241.5" y="-321.5" font-family="Helvetica,sans-Serif" font-size="10.00">+ void StopVideo()</text>
</a>
</g>
</g>
<!-- Node2&#45;&gt;Node5 -->
<g id="edge6" class="edge">
<title>Node2&#45;&gt;Node5</title>
<path fill="none" stroke="midnightblue" d="M297.64,-1131.09C299.64,-1012.51 305.82,-646.74 308.61,-481.51"/>
<polygon fill="none" stroke="midnightblue" points="294.14,-1131.08 297.47,-1141.14 301.14,-1131.2 294.14,-1131.08"/>
</g>
<!-- Node6 -->
<g id="node6" class="node">
<title>Node6</title>
<g id="a_node6"><a xlink:href="class_u_i_1_1_fill_bar_u_i.html" target="_top" xlink:title=" ">
<polygon fill="white" stroke="black" points="149.5,-729.5 149.5,-830.5 294.5,-830.5 294.5,-729.5 149.5,-729.5"/>
<text text-anchor="middle" x="222" y="-818.5" font-family="Helvetica,sans-Serif" font-size="10.00">UI.FillBarUI</text>
<polyline fill="none" stroke="black" points="149.5,-811.5 294.5,-811.5 "/>
<text text-anchor="start" x="157.5" y="-799.5" font-family="Helvetica,sans-Serif" font-size="10.00">+ Image fillImage</text>
<text text-anchor="start" x="157.5" y="-788.5" font-family="Helvetica,sans-Serif" font-size="10.00">+ RectTransform flag</text>
<text text-anchor="start" x="157.5" y="-777.5" font-family="Helvetica,sans-Serif" font-size="10.00">+ RectTransform flagStartPos</text>
<text text-anchor="start" x="157.5" y="-766.5" font-family="Helvetica,sans-Serif" font-size="10.00">+ RectTransform flagEndPos</text>
<text text-anchor="start" x="157.5" y="-755.5" font-family="Helvetica,sans-Serif" font-size="10.00">+ float? FillAmount</text>
<polyline fill="none" stroke="black" points="149.5,-748.5 294.5,-748.5 "/>
<text text-anchor="start" x="157.5" y="-736.5" font-family="Helvetica,sans-Serif" font-size="10.00">+ void SetFill()</text>
</a>
</g>
</g>
<!-- Node2&#45;&gt;Node6 -->
<g id="edge8" class="edge">
<title>Node2&#45;&gt;Node6</title>
<path fill="none" stroke="midnightblue" d="M285.22,-1131.62C284.43,-1128.71 283.68,-1125.82 283,-1123 258.25,-1020.09 238.77,-897.55 228.96,-830.66"/>
<polygon fill="none" stroke="midnightblue" points="281.91,-1132.76 288.02,-1141.42 288.64,-1130.84 281.91,-1132.76"/>
</g>
<!-- Node7 -->
<g id="node7" class="node">
<title>Node7</title>
<g id="a_node7"><a xlink:href="class_video_1_1_video_player_manager.html" target="_top" xlink:title="视频播放管理">
<polygon fill="white" stroke="black" points="338,-609.5 338,-710.5 472,-710.5 472,-609.5 338,-609.5"/>
<text text-anchor="middle" x="405" y="-698.5" font-family="Helvetica,sans-Serif" font-size="10.00">Video.VideoPlayerManager</text>
<polyline fill="none" stroke="black" points="338,-691.5 472,-691.5 "/>
<text text-anchor="start" x="346" y="-679.5" font-family="Helvetica,sans-Serif" font-size="10.00">+ VideoPlayer videoPlayer</text>
<text text-anchor="start" x="346" y="-668.5" font-family="Helvetica,sans-Serif" font-size="10.00">+ RawImage rawImage</text>
<text text-anchor="start" x="346" y="-657.5" font-family="Helvetica,sans-Serif" font-size="10.00">+ string videoClipName</text>
<polyline fill="none" stroke="black" points="338,-650.5 472,-650.5 "/>
<text text-anchor="start" x="346" y="-638.5" font-family="Helvetica,sans-Serif" font-size="10.00">+ void Play()</text>
<text text-anchor="start" x="346" y="-627.5" font-family="Helvetica,sans-Serif" font-size="10.00">+ void Pause()</text>
<text text-anchor="start" x="346" y="-616.5" font-family="Helvetica,sans-Serif" font-size="10.00">+ void Stop()</text>
</a>
</g>
</g>
<!-- Node2&#45;&gt;Node7 -->
<g id="edge11" class="edge">
<title>Node2&#45;&gt;Node7</title>
<path fill="none" stroke="midnightblue" d="M308.85,-1131.63C309.62,-1128.72 310.35,-1125.82 311,-1123 338.57,-1002.85 328.27,-969.55 354,-849 364.13,-801.54 378.93,-748.21 389.98,-710.51"/>
<polygon fill="none" stroke="midnightblue" points="305.43,-1130.86 306.07,-1141.44 312.16,-1132.77 305.43,-1130.86"/>
</g>
<!-- Node8 -->
<g id="node8" class="node">
<title>Node8</title>
<g id="a_node8"><a xlink:href="class_u_i_1_1_chinese_sports_1_1_battle_1_1_result_u_i.html" target="_top" xlink:title=" ">
<polygon fill="white" stroke="black" points="363,-849.5 363,-1093.5 511,-1093.5 511,-849.5 363,-849.5"/>
<text text-anchor="start" x="371" y="-1081.5" font-family="Helvetica,sans-Serif" font-size="10.00">UI.ChineseSports.Battle.</text>
<text text-anchor="middle" x="437" y="-1070.5" font-family="Helvetica,sans-Serif" font-size="10.00">ResultUI</text>
<polyline fill="none" stroke="black" points="363,-1063.5 511,-1063.5 "/>
<text text-anchor="start" x="371" y="-1051.5" font-family="Helvetica,sans-Serif" font-size="10.00">+ bool isWin</text>
<text text-anchor="start" x="371" y="-1040.5" font-family="Helvetica,sans-Serif" font-size="10.00">+ GameObject resultPanel</text>
<text text-anchor="start" x="371" y="-1029.5" font-family="Helvetica,sans-Serif" font-size="10.00">+ GameObject winPanel</text>
<text text-anchor="start" x="371" y="-1018.5" font-family="Helvetica,sans-Serif" font-size="10.00">+ GameObject losePanel</text>
<text text-anchor="start" x="371" y="-1007.5" font-family="Helvetica,sans-Serif" font-size="10.00">+ List&lt; ItemDict &gt; itemDicts</text>
<text text-anchor="start" x="371" y="-996.5" font-family="Helvetica,sans-Serif" font-size="10.00">+ Image itemImage</text>
<text text-anchor="start" x="371" y="-985.5" font-family="Helvetica,sans-Serif" font-size="10.00">+ GameObject itemPanel</text>
<text text-anchor="start" x="371" y="-974.5" font-family="Helvetica,sans-Serif" font-size="10.00">+ GameObject root</text>
<text text-anchor="start" x="371" y="-963.5" font-family="Helvetica,sans-Serif" font-size="10.00">+ GameObject nextButton</text>
<text text-anchor="start" x="371" y="-952.5" font-family="Helvetica,sans-Serif" font-size="10.00">+ GameObject backButton</text>
<text text-anchor="start" x="371" y="-941.5" font-family="Helvetica,sans-Serif" font-size="10.00">+ GameObject videoManager</text>
<text text-anchor="start" x="371" y="-930.5" font-family="Helvetica,sans-Serif" font-size="10.00">+ UnityEvent onWinResultEnd</text>
<text text-anchor="start" x="371" y="-919.5" font-family="Helvetica,sans-Serif" font-size="10.00">+ int? CurState</text>
<polyline fill="none" stroke="black" points="363,-912.5 511,-912.5 "/>
<text text-anchor="start" x="371" y="-900.5" font-family="Helvetica,sans-Serif" font-size="10.00">+ void ShowResult()</text>
<text text-anchor="start" x="371" y="-889.5" font-family="Helvetica,sans-Serif" font-size="10.00">+ void BackToLobby()</text>
<text text-anchor="start" x="371" y="-878.5" font-family="Helvetica,sans-Serif" font-size="10.00">+ void BackToMap()</text>
<text text-anchor="start" x="371" y="-867.5" font-family="Helvetica,sans-Serif" font-size="10.00">+ void OnNextClick()</text>
<text text-anchor="start" x="371" y="-856.5" font-family="Helvetica,sans-Serif" font-size="10.00">+ void ShowButton()</text>
</a>
</g>
</g>
<!-- Node2&#45;&gt;Node8 -->
<g id="edge13" class="edge">
<title>Node2&#45;&gt;Node8</title>
<path fill="none" stroke="midnightblue" d="M338.95,-1134.07C342.5,-1130.48 345.91,-1126.76 349,-1123 356.59,-1113.76 363.93,-1103.79 370.92,-1093.54"/>
<polygon fill="none" stroke="midnightblue" points="336.28,-1131.79 331.52,-1141.26 341.15,-1136.82 336.28,-1131.79"/>
</g>
<!-- Node9 -->
<g id="node9" class="node">
<title>Node9</title>
<g id="a_node9"><a xlink:href="class_setting_u_i.html" target="_top" xlink:title=" ">
<polygon fill="white" stroke="black" points="0,-500.5 0,-590.5 118,-590.5 118,-500.5 0,-500.5"/>
<text text-anchor="middle" x="59" y="-578.5" font-family="Helvetica,sans-Serif" font-size="10.00">SettingUI</text>
<polyline fill="none" stroke="black" points="0,-571.5 118,-571.5 "/>
<text text-anchor="start" x="8" y="-559.5" font-family="Helvetica,sans-Serif" font-size="10.00">+ Sprite disableSounds</text>
<text text-anchor="start" x="8" y="-548.5" font-family="Helvetica,sans-Serif" font-size="10.00">+ Sprite enableSounds</text>
<text text-anchor="start" x="8" y="-537.5" font-family="Helvetica,sans-Serif" font-size="10.00">+ Image sounds</text>
<polyline fill="none" stroke="black" points="0,-530.5 118,-530.5 "/>
<text text-anchor="start" x="8" y="-518.5" font-family="Helvetica,sans-Serif" font-size="10.00">+ void SetSounds()</text>
<text text-anchor="start" x="8" y="-507.5" font-family="Helvetica,sans-Serif" font-size="10.00">+ void QuitGame()</text>
</a>
</g>
</g>
<!-- Node2&#45;&gt;Node9 -->
<g id="edge16" class="edge">
<title>Node2&#45;&gt;Node9</title>
<path fill="none" stroke="midnightblue" d="M245.05,-1162.11C198.87,-1154.85 136.23,-1141.84 120,-1123 -13.16,-968.38 26.34,-697.06 48.54,-590.88"/>
<polygon fill="none" stroke="midnightblue" points="244.81,-1165.61 255.22,-1163.66 245.86,-1158.69 244.81,-1165.61"/>
</g>
<!-- Node3&#45;&gt;Node1 -->
<g id="edge2" class="edge">
<title>Node3&#45;&gt;Node1</title>
<path fill="none" stroke="#404040" d="M635.63,-893.42C610.98,-761.3 544.79,-488.96 396,-314 358.89,-270.37 310.7,-228.38 269.85,-196"/>
<polygon fill="none" stroke="#404040" points="269.61,-195.81 262.42,-195.25 260.18,-188.4 267.37,-188.96 269.61,-195.81"/>
<text text-anchor="middle" x="590" y="-543" font-family="Helvetica,sans-Serif" font-size="10.00"> +characterViewUI</text>
</g>
<!-- Node4 -->
<g id="node4" class="node">
<title>Node4</title>
<g id="a_node4"><a xlink:title=" ">
<polygon fill="white" stroke="#bfbfbf" points="521.5,-1141.5 521.5,-1198.5 556.5,-1198.5 556.5,-1141.5 521.5,-1141.5"/>
<text text-anchor="middle" x="539" y="-1186.5" font-family="Helvetica,sans-Serif" font-size="10.00">Text</text>
<polyline fill="none" stroke="#bfbfbf" points="521.5,-1179.5 556.5,-1179.5 "/>
<text text-anchor="middle" x="539" y="-1167.5" font-family="Helvetica,sans-Serif" font-size="10.00"> </text>
<polyline fill="none" stroke="#bfbfbf" points="521.5,-1160.5 556.5,-1160.5 "/>
<text text-anchor="middle" x="539" y="-1148.5" font-family="Helvetica,sans-Serif" font-size="10.00"> </text>
</a>
</g>
</g>
<!-- Node4&#45;&gt;Node3 -->
<g id="edge4" class="edge">
<title>Node4&#45;&gt;Node3</title>
<path fill="none" stroke="#404040" d="M554.39,-1141.26C566.15,-1120.06 583.04,-1089.61 599.25,-1060.39"/>
<polygon fill="none" stroke="#404040" points="599.36,-1060.19 598.77,-1053 605.18,-1049.7 605.77,-1056.88 599.36,-1060.19"/>
<text text-anchor="middle" x="606" y="-1115" font-family="Helvetica,sans-Serif" font-size="10.00"> +descriptionText</text>
</g>
<!-- Node4&#45;&gt;Node5 -->
<g id="edge9" class="edge">
<title>Node4&#45;&gt;Node5</title>
<path fill="none" stroke="#404040" d="M539.91,-1141.35C543.1,-1029.1 550.08,-608.28 480,-500 460.48,-469.84 428.5,-447.46 397.52,-431.53"/>
<polygon fill="none" stroke="#404040" points="397.39,-431.47 390.24,-432.41 386.63,-426.17 393.78,-425.23 397.39,-431.47"/>
<text text-anchor="middle" x="559" y="-777.5" font-family="Helvetica,sans-Serif" font-size="10.00"> +titleText</text>
</g>
<!-- Node4&#45;&gt;Node8 -->
<g id="edge14" class="edge">
<title>Node4&#45;&gt;Node8</title>
<path fill="none" stroke="#404040" d="M521.27,-1164.98C500.86,-1159.33 468.11,-1146.96 452,-1123 448.25,-1117.42 445.09,-1111.44 442.46,-1105.21"/>
<polygon fill="none" stroke="#404040" points="442.39,-1105.02 436.57,-1100.76 438.26,-1093.75 444.08,-1098.01 442.39,-1105.02"/>
<text text-anchor="middle" x="488.5" y="-1115" font-family="Helvetica,sans-Serif" font-size="10.00"> +itemNameText</text>
</g>
<!-- Node5&#45;&gt;Node1 -->
<g id="edge5" class="edge">
<title>Node5&#45;&gt;Node1</title>
<path fill="none" stroke="#404040" d="M270.94,-314.3C265.39,-302.56 259.56,-290.22 253.66,-277.73"/>
<polygon fill="none" stroke="#404040" points="253.59,-277.58 247.41,-273.87 248.46,-266.73 254.64,-270.45 253.59,-277.58"/>
<text text-anchor="middle" x="280" y="-288" font-family="Helvetica,sans-Serif" font-size="10.00"> +scrollUI</text>
</g>
<!-- Node6&#45;&gt;Node5 -->
<g id="edge7" class="edge">
<title>Node6&#45;&gt;Node5</title>
<path fill="none" stroke="#404040" d="M233.5,-729.32C247.32,-669.65 270.81,-568.24 288.12,-493.49"/>
<polygon fill="none" stroke="#404040" points="288.13,-493.43 285.59,-486.68 290.84,-481.74 293.38,-488.48 288.13,-493.43"/>
<text text-anchor="middle" x="271.5" y="-657.5" font-family="Helvetica,sans-Serif" font-size="10.00"> +bar</text>
</g>
<!-- Node7&#45;&gt;Node5 -->
<g id="edge10" class="edge">
<title>Node7&#45;&gt;Node5</title>
<path fill="none" stroke="#404040" d="M386.91,-609.48C374.9,-576.63 358.77,-532.47 344.38,-493.08"/>
<polygon fill="none" stroke="#404040" points="344.29,-492.84 338.47,-488.58 340.17,-481.57 345.99,-485.83 344.29,-492.84"/>
<text text-anchor="middle" x="427.5" y="-543" font-family="Helvetica,sans-Serif" font-size="10.00"> +videoPlayerManager</text>
</g>
<!-- Node8&#45;&gt;Node7 -->
<g id="edge12" class="edge">
<title>Node8&#45;&gt;Node7</title>
<path fill="none" stroke="#404040" d="M424.44,-849.07C419.98,-805.89 415.14,-759.08 411.41,-722.97"/>
<polygon fill="none" stroke="#404040" points="411.37,-722.6 406.77,-717.04 410.13,-710.66 414.73,-716.22 411.37,-722.6"/>
<text text-anchor="middle" x="442.5" y="-777.5" font-family="Helvetica,sans-Serif" font-size="10.00"> +resultUI</text>
</g>
<!-- Node9&#45;&gt;Node1 -->
<g id="edge15" class="edge">
<title>Node9&#45;&gt;Node1</title>
<path fill="none" stroke="#404040" d="M55.01,-500.4C52.2,-453.11 51.94,-376.39 72,-314 79.94,-289.31 92.1,-264.66 105.58,-241.88"/>
<polygon fill="none" stroke="#404040" points="105.62,-241.81 105.31,-234.6 111.85,-231.55 112.15,-238.76 105.62,-241.81"/>
<text text-anchor="middle" x="96" y="-395.5" font-family="Helvetica,sans-Serif" font-size="10.00"> +settingUI</text>
</g>
</g>
</svg>
        <g id="navigator" transform="translate(0 0)" fill="#404254">
                <rect fill="#f2f5e9" fill-opacity="0.5" stroke="#606060" stroke-width=".5" x="0" y="0" width="60" height="60"/>
                <use id="zoomplus" xlink:href="#zoomPlus" x="17" y="9" onmousedown="handleZoom(evt,'in')"/>
                <use id="zoomminus" xlink:href="#zoomMin" x="42" y="9" onmousedown="handleZoom(evt,'out')"/>
                <use id="reset" xlink:href="#resetDef" x="30" y="36" onmousedown="handleReset()"/>
                <g id="arrowUp" xlink:href="#dirArrow" transform="translate(30 24)" onmousedown="handlePan(0,-1)">
                  <use xlink:href="#rim" fill="#404040">
                        <set attributeName="fill" to="#808080" begin="arrowUp.mouseover" end="arrowUp.mouseout"/>
                  </use>
                  <path fill="none" stroke="white" stroke-width="1.5" d="M0,-3.0v7 M-2.5,-0.5L0,-3.0L2.5,-0.5"/>
                </g>
                <g id="arrowRight" xlink:href="#dirArrow" transform="rotate(90) translate(36 -43)" onmousedown="handlePan(1,0)">
                  <use xlink:href="#rim" fill="#404040">
                        <set attributeName="fill" to="#808080" begin="arrowRight.mouseover" end="arrowRight.mouseout"/>
                  </use>
                  <path fill="none" stroke="white" stroke-width="1.5" d="M0,-3.0v7 M-2.5,-0.5L0,-3.0L2.5,-0.5"/>
                </g>
                <g id="arrowDown" xlink:href="#dirArrow" transform="rotate(180) translate(-30 -48)" onmousedown="handlePan(0,1)">
                  <use xlink:href="#rim" fill="#404040">
                        <set attributeName="fill" to="#808080" begin="arrowDown.mouseover" end="arrowDown.mouseout"/>
                  </use>
                  <path fill="none" stroke="white" stroke-width="1.5" d="M0,-3.0v7 M-2.5,-0.5L0,-3.0L2.5,-0.5"/>
                </g>
                <g id="arrowLeft" xlink:href="#dirArrow" transform="rotate(270) translate(-36 17)" onmousedown="handlePan(-1,0)">
                  <use xlink:href="#rim" fill="#404040">
                        <set attributeName="fill" to="#808080" begin="arrowLeft.mouseover" end="arrowLeft.mouseout"/>
                  </use>
                  <path fill="none" stroke="white" stroke-width="1.5" d="M0,-3.0v7 M-2.5,-0.5L0,-3.0L2.5,-0.5"/>
                </g>
        </g>
        <svg viewBox="0 0 15 15" width="100%" height="30px" preserveAspectRatio="xMaxYMin meet">
         <g id="arrow_out" transform="scale(0.3 0.3)">
          <a xlink:href="class_u_i_1_1_chinese_sports_1_1_main_1_1_main_u_i_manager__coll__graph_org.svg" target="_base">
           <rect id="button" ry="5" rx="5" y="6" x="6" height="38" width="38"
                fill="#f2f5e9" fill-opacity="0.5" stroke="#606060" stroke-width="1.0"/>
           <path id="arrow"
             d="M 11.500037,31.436501 C 11.940474,20.09759 22.043105,11.32322 32.158766,21.979434 L 37.068811,17.246167 C 37.068811,17.246167 37.088388,32 37.088388,32 L 22.160133,31.978069 C 22.160133,31.978069 26.997745,27.140456 26.997745,27.140456 C 18.528582,18.264221 13.291696,25.230495 11.500037,31.436501 z"
             style="fill:#404040;"/>
          </a>
         </g>
        </svg>
</svg>
