<?xml version="1.0" encoding="UTF-8" standalone="no"?>
<!DOCTYPE svg PUBLIC "-//W3C//DTD SVG 1.1//EN"
 "http://www.w3.org/Graphics/SVG/1.1/DTD/svg11.dtd">
<!-- Generated by graphviz version 2.47.1 (20210417.1919)
 -->
<!-- Title: UnitHPUI Pages: 1 -->
<svg width="676pt" height="1460pt"
 viewBox="0.00 0.00 676.05 1460.00" xmlns="http://www.w3.org/2000/svg" xmlns:xlink="http://www.w3.org/1999/xlink">
<g id="graph0" class="graph" transform="scale(1 1) rotate(0) translate(4 1456)">
<title>UnitHPUI</title>
<polygon fill="white" stroke="transparent" points="-4,4 -4,-1456 672.05,-1456 672.05,4 -4,4"/>
<!-- Node1 -->
<g id="node1" class="node">
<title>Node1</title>
<g id="a_node1"><a xlink:title=" ">
<polygon fill="#bfbfbf" stroke="black" points="104.05,-72 104.05,-129 160.05,-129 160.05,-72 104.05,-72"/>
<text text-anchor="middle" x="132.05" y="-117" font-family="Helvetica,sans-Serif" font-size="10.00">UnitHPUI</text>
<polyline fill="none" stroke="black" points="104.05,-110 160.05,-110 "/>
<text text-anchor="middle" x="132.05" y="-98" font-family="Helvetica,sans-Serif" font-size="10.00"> </text>
<polyline fill="none" stroke="black" points="104.05,-91 160.05,-91 "/>
<text text-anchor="middle" x="132.05" y="-79" font-family="Helvetica,sans-Serif" font-size="10.00"> </text>
</a>
</g>
</g>
<!-- Node2 -->
<g id="node2" class="node">
<title>Node2</title>
<g id="a_node2"><a xlink:title=" ">
<polygon fill="white" stroke="#bfbfbf" points="196.55,-1394.5 196.55,-1451.5 279.55,-1451.5 279.55,-1394.5 196.55,-1394.5"/>
<text text-anchor="middle" x="238.05" y="-1439.5" font-family="Helvetica,sans-Serif" font-size="10.00">MonoBehaviour</text>
<polyline fill="none" stroke="#bfbfbf" points="196.55,-1432.5 279.55,-1432.5 "/>
<text text-anchor="middle" x="238.05" y="-1420.5" font-family="Helvetica,sans-Serif" font-size="10.00"> </text>
<polyline fill="none" stroke="#bfbfbf" points="196.55,-1413.5 279.55,-1413.5 "/>
<text text-anchor="middle" x="238.05" y="-1401.5" font-family="Helvetica,sans-Serif" font-size="10.00"> </text>
</a>
</g>
</g>
<!-- Node2&#45;&gt;Node1 -->
<g id="edge1" class="edge">
<title>Node2&#45;&gt;Node1</title>
<path fill="none" stroke="midnightblue" d="M186.93,-1406.17C163.46,-1396.07 137.83,-1380.37 124.05,-1357 -127.49,-930.28 73.86,-271.82 122.25,-129.3"/>
<polygon fill="none" stroke="midnightblue" points="185.89,-1409.52 196.48,-1410.03 188.52,-1403.03 185.89,-1409.52"/>
</g>
<!-- Node3 -->
<g id="node3" class="node">
<title>Node3</title>
<g id="a_node3"><a xlink:href="class_units_1_1_unit.html" target="_top" xlink:title="单位">
<polygon fill="white" stroke="black" points="124.05,-248.5 124.05,-646.5 290.05,-646.5 290.05,-248.5 124.05,-248.5"/>
<text text-anchor="middle" x="207.05" y="-634.5" font-family="Helvetica,sans-Serif" font-size="10.00">Units.Unit</text>
<polyline fill="none" stroke="black" points="124.05,-627.5 290.05,-627.5 "/>
<text text-anchor="start" x="132.05" y="-615.5" font-family="Helvetica,sans-Serif" font-size="10.00">+ int defence</text>
<text text-anchor="start" x="132.05" y="-604.5" font-family="Helvetica,sans-Serif" font-size="10.00">+ bool isUnmovable</text>
<text text-anchor="start" x="132.05" y="-593.5" font-family="Helvetica,sans-Serif" font-size="10.00">+ int playerOwnMax</text>
<text text-anchor="start" x="132.05" y="-582.5" font-family="Helvetica,sans-Serif" font-size="10.00">+ Rigidbody unitRigidbody</text>
<text text-anchor="start" x="132.05" y="-571.5" font-family="Helvetica,sans-Serif" font-size="10.00">+ Road road</text>
<text text-anchor="start" x="132.05" y="-560.5" font-family="Helvetica,sans-Serif" font-size="10.00">+ UnitType unitType</text>
<text text-anchor="start" x="132.05" y="-549.5" font-family="Helvetica,sans-Serif" font-size="10.00">+ int costFood</text>
<text text-anchor="start" x="132.05" y="-538.5" font-family="Helvetica,sans-Serif" font-size="10.00">+ int costWood</text>
<text text-anchor="start" x="132.05" y="-527.5" font-family="Helvetica,sans-Serif" font-size="10.00">+ int costGold</text>
<text text-anchor="start" x="132.05" y="-516.5" font-family="Helvetica,sans-Serif" font-size="10.00">+ bool isDieImmediately</text>
<text text-anchor="start" x="132.05" y="-505.5" font-family="Helvetica,sans-Serif" font-size="10.00">+ int deathReward</text>
<text text-anchor="start" x="132.05" y="-494.5" font-family="Helvetica,sans-Serif" font-size="10.00">+ UnityEvent&lt; GameObject,</text>
<text text-anchor="start" x="132.05" y="-483.5" font-family="Helvetica,sans-Serif" font-size="10.00"> Transform &gt; navStopEventHandler</text>
<text text-anchor="start" x="132.05" y="-472.5" font-family="Helvetica,sans-Serif" font-size="10.00">+ UnityEvent&lt; Player.Player,</text>
<text text-anchor="start" x="132.05" y="-461.5" font-family="Helvetica,sans-Serif" font-size="10.00"> IMilitaryUnit &gt; UnitDeathEvent</text>
<text text-anchor="start" x="132.05" y="-450.5" font-family="Helvetica,sans-Serif" font-size="10.00">Handler</text>
<text text-anchor="start" x="132.05" y="-439.5" font-family="Helvetica,sans-Serif" font-size="10.00">+ int??? HP</text>
<text text-anchor="start" x="132.05" y="-428.5" font-family="Helvetica,sans-Serif" font-size="10.00">+ float Speed</text>
<text text-anchor="start" x="132.05" y="-417.5" font-family="Helvetica,sans-Serif" font-size="10.00">+ Transform InitTarget</text>
<text text-anchor="start" x="132.05" y="-406.5" font-family="Helvetica,sans-Serif" font-size="10.00">+ bool IsAtEnemyDoor</text>
<text text-anchor="start" x="132.05" y="-395.5" font-family="Helvetica,sans-Serif" font-size="10.00"># bool Death</text>
<text text-anchor="start" x="132.05" y="-384.5" font-family="Helvetica,sans-Serif" font-size="10.00"># UnityEvent StartEventHandler</text>
<text text-anchor="start" x="132.05" y="-373.5" font-family="Helvetica,sans-Serif" font-size="10.00"># UnityEvent&lt; IMilitaryUnit</text>
<text text-anchor="start" x="132.05" y="-362.5" font-family="Helvetica,sans-Serif" font-size="10.00"> &gt; BeAttackedEventHandler</text>
<polyline fill="none" stroke="black" points="124.05,-355.5 290.05,-355.5 "/>
<text text-anchor="start" x="132.05" y="-343.5" font-family="Helvetica,sans-Serif" font-size="10.00">+ virtual void Start()</text>
<text text-anchor="start" x="132.05" y="-332.5" font-family="Helvetica,sans-Serif" font-size="10.00">+ virtual void Update()</text>
<text text-anchor="start" x="132.05" y="-321.5" font-family="Helvetica,sans-Serif" font-size="10.00">+ virtual void BeAttacked</text>
<text text-anchor="start" x="132.05" y="-310.5" font-family="Helvetica,sans-Serif" font-size="10.00">(IMilitaryUnit attacker)</text>
<text text-anchor="start" x="132.05" y="-299.5" font-family="Helvetica,sans-Serif" font-size="10.00"># virtual void Awake()</text>
<text text-anchor="start" x="132.05" y="-288.5" font-family="Helvetica,sans-Serif" font-size="10.00"># void Goto(Transform tr)</text>
<text text-anchor="start" x="132.05" y="-277.5" font-family="Helvetica,sans-Serif" font-size="10.00"># static float GetTwoPoint</text>
<text text-anchor="start" x="132.05" y="-266.5" font-family="Helvetica,sans-Serif" font-size="10.00">DistanceOnNav(Vector3</text>
<text text-anchor="start" x="132.05" y="-255.5" font-family="Helvetica,sans-Serif" font-size="10.00"> oriPoint, Vector3 targetPoint)</text>
</a>
</g>
</g>
<!-- Node2&#45;&gt;Node3 -->
<g id="edge3" class="edge">
<title>Node2&#45;&gt;Node3</title>
<path fill="none" stroke="midnightblue" d="M188.15,-1392.12C176.45,-1382.49 165.52,-1370.7 159.05,-1357 96.14,-1223.77 144.85,-840.65 159.05,-694 160.55,-678.55 162.56,-662.62 164.92,-646.66"/>
<polygon fill="none" stroke="midnightblue" points="186.28,-1395.09 196.33,-1398.44 190.56,-1389.55 186.28,-1395.09"/>
</g>
<!-- Node4 -->
<g id="node4" class="node">
<title>Node4</title>
<g id="a_node4"><a xlink:href="class_player_1_1_player.html" target="_top" xlink:title="玩家">
<polygon fill="white" stroke="black" points="364.05,-694.5 364.05,-1356.5 564.05,-1356.5 564.05,-694.5 364.05,-694.5"/>
<text text-anchor="middle" x="464.05" y="-1344.5" font-family="Helvetica,sans-Serif" font-size="10.00">Player.Player</text>
<polyline fill="none" stroke="black" points="364.05,-1337.5 564.05,-1337.5 "/>
<text text-anchor="start" x="372.05" y="-1325.5" font-family="Helvetica,sans-Serif" font-size="10.00">+ UnityEvent playerDeadEvent</text>
<text text-anchor="start" x="372.05" y="-1314.5" font-family="Helvetica,sans-Serif" font-size="10.00">+ UnityAction updateEventHandler</text>
<text text-anchor="start" x="372.05" y="-1303.5" font-family="Helvetica,sans-Serif" font-size="10.00">+ bool enableFarmer</text>
<text text-anchor="start" x="372.05" y="-1292.5" font-family="Helvetica,sans-Serif" font-size="10.00">+ Transform[] resourceTransform</text>
<text text-anchor="start" x="372.05" y="-1281.5" font-family="Helvetica,sans-Serif" font-size="10.00">+ int[] resourceProduct</text>
<text text-anchor="start" x="372.05" y="-1270.5" font-family="Helvetica,sans-Serif" font-size="10.00">+ float resourceProducingTime</text>
<text text-anchor="start" x="372.05" y="-1259.5" font-family="Helvetica,sans-Serif" font-size="10.00">+ bool isEnemy</text>
<text text-anchor="start" x="372.05" y="-1248.5" font-family="Helvetica,sans-Serif" font-size="10.00">+ int[] availableUnits</text>
<text text-anchor="start" x="372.05" y="-1237.5" font-family="Helvetica,sans-Serif" font-size="10.00">+ List&lt; Unit &gt; UnitsList</text>
<text text-anchor="start" x="372.05" y="-1226.5" font-family="Helvetica,sans-Serif" font-size="10.00">+ int HP</text>
<text text-anchor="start" x="372.05" y="-1215.5" font-family="Helvetica,sans-Serif" font-size="10.00">+ int Food</text>
<text text-anchor="start" x="372.05" y="-1204.5" font-family="Helvetica,sans-Serif" font-size="10.00">+ int Wood</text>
<text text-anchor="start" x="372.05" y="-1193.5" font-family="Helvetica,sans-Serif" font-size="10.00">+ int Gold</text>
<text text-anchor="start" x="372.05" y="-1182.5" font-family="Helvetica,sans-Serif" font-size="10.00">+ Transform Top</text>
<text text-anchor="start" x="372.05" y="-1171.5" font-family="Helvetica,sans-Serif" font-size="10.00">+ Transform Mid</text>
<text text-anchor="start" x="372.05" y="-1160.5" font-family="Helvetica,sans-Serif" font-size="10.00">+ Transform Bot</text>
<text text-anchor="start" x="372.05" y="-1149.5" font-family="Helvetica,sans-Serif" font-size="10.00">+ int MaxFarmerNumber</text>
<text text-anchor="start" x="372.05" y="-1138.5" font-family="Helvetica,sans-Serif" font-size="10.00">+ int FarmerCount</text>
<text text-anchor="start" x="372.05" y="-1127.5" font-family="Helvetica,sans-Serif" font-size="10.00">+ int DispatchableFarmer</text>
<text text-anchor="start" x="372.05" y="-1116.5" font-family="Helvetica,sans-Serif" font-size="10.00">+ int[] RoadFarmers</text>
<text text-anchor="start" x="372.05" y="-1105.5" font-family="Helvetica,sans-Serif" font-size="10.00">+ int[] RoadWorkingFarmers</text>
<polyline fill="none" stroke="black" points="364.05,-1098.5 564.05,-1098.5 "/>
<text text-anchor="start" x="372.05" y="-1086.5" font-family="Helvetica,sans-Serif" font-size="10.00">+ virtual void UpdateLocal</text>
<text text-anchor="start" x="372.05" y="-1075.5" font-family="Helvetica,sans-Serif" font-size="10.00">PlayerProperties()</text>
<text text-anchor="start" x="372.05" y="-1064.5" font-family="Helvetica,sans-Serif" font-size="10.00">+ virtual void ChangeResource</text>
<text text-anchor="start" x="372.05" y="-1053.5" font-family="Helvetica,sans-Serif" font-size="10.00">(GameResourceType gameResourceType,</text>
<text text-anchor="start" x="372.05" y="-1042.5" font-family="Helvetica,sans-Serif" font-size="10.00"> int count)</text>
<text text-anchor="start" x="372.05" y="-1031.5" font-family="Helvetica,sans-Serif" font-size="10.00">+ bool IsEnoughForUnit</text>
<text text-anchor="start" x="372.05" y="-1020.5" font-family="Helvetica,sans-Serif" font-size="10.00">(Unit unit)</text>
<text text-anchor="start" x="372.05" y="-1009.5" font-family="Helvetica,sans-Serif" font-size="10.00">+ bool IsEnoughForUnit</text>
<text text-anchor="start" x="372.05" y="-998.5" font-family="Helvetica,sans-Serif" font-size="10.00">(Unit unit, GameResourceType</text>
<text text-anchor="start" x="372.05" y="-987.5" font-family="Helvetica,sans-Serif" font-size="10.00"> gameResourceType)</text>
<text text-anchor="start" x="372.05" y="-976.5" font-family="Helvetica,sans-Serif" font-size="10.00">+ virtual void AddFarmer</text>
<text text-anchor="start" x="372.05" y="-965.5" font-family="Helvetica,sans-Serif" font-size="10.00">(GameResourceType rs)</text>
<text text-anchor="start" x="372.05" y="-954.5" font-family="Helvetica,sans-Serif" font-size="10.00">+ virtual void SubtractFarmer</text>
<text text-anchor="start" x="372.05" y="-943.5" font-family="Helvetica,sans-Serif" font-size="10.00">(GameResourceType rs)</text>
<text text-anchor="start" x="372.05" y="-932.5" font-family="Helvetica,sans-Serif" font-size="10.00">+ void InstantiateFarmer</text>
<text text-anchor="start" x="372.05" y="-921.5" font-family="Helvetica,sans-Serif" font-size="10.00">(Road rd, Transform transform,</text>
<text text-anchor="start" x="372.05" y="-910.5" font-family="Helvetica,sans-Serif" font-size="10.00"> int resourceCarried)</text>
<text text-anchor="start" x="372.05" y="-899.5" font-family="Helvetica,sans-Serif" font-size="10.00">+ void FarmerBack(Farmer</text>
<text text-anchor="start" x="372.05" y="-888.5" font-family="Helvetica,sans-Serif" font-size="10.00"> farmer, Transform tr)</text>
<text text-anchor="start" x="372.05" y="-877.5" font-family="Helvetica,sans-Serif" font-size="10.00">+ int CountUnits(UnitType</text>
<text text-anchor="start" x="372.05" y="-866.5" font-family="Helvetica,sans-Serif" font-size="10.00"> type)</text>
<text text-anchor="start" x="372.05" y="-855.5" font-family="Helvetica,sans-Serif" font-size="10.00">+ void SetUnits(Vector3</text>
<text text-anchor="start" x="372.05" y="-844.5" font-family="Helvetica,sans-Serif" font-size="10.00"> tr, int chosenUnit,</text>
<text text-anchor="start" x="372.05" y="-833.5" font-family="Helvetica,sans-Serif" font-size="10.00"> Road rd, int number)</text>
<text text-anchor="start" x="372.05" y="-822.5" font-family="Helvetica,sans-Serif" font-size="10.00">+ void SetUnits(Vector3</text>
<text text-anchor="start" x="372.05" y="-811.5" font-family="Helvetica,sans-Serif" font-size="10.00"> tr, int chosenUnit,</text>
<text text-anchor="start" x="372.05" y="-800.5" font-family="Helvetica,sans-Serif" font-size="10.00"> Road rd, int number,</text>
<text text-anchor="start" x="372.05" y="-789.5" font-family="Helvetica,sans-Serif" font-size="10.00"> Vector3 oriVelocity)</text>
<text text-anchor="start" x="372.05" y="-778.5" font-family="Helvetica,sans-Serif" font-size="10.00">+ virtual void Instantiate</text>
<text text-anchor="start" x="372.05" y="-767.5" font-family="Helvetica,sans-Serif" font-size="10.00">Unit(int chosenUnit, Road</text>
<text text-anchor="start" x="372.05" y="-756.5" font-family="Helvetica,sans-Serif" font-size="10.00"> rd, Vector3 oriPoint)</text>
<text text-anchor="start" x="372.05" y="-745.5" font-family="Helvetica,sans-Serif" font-size="10.00">+ virtual void Instantiate</text>
<text text-anchor="start" x="372.05" y="-734.5" font-family="Helvetica,sans-Serif" font-size="10.00">Unit(int chosenUnit, Road</text>
<text text-anchor="start" x="372.05" y="-723.5" font-family="Helvetica,sans-Serif" font-size="10.00"> rd, Vector3 oriPoint, Vector3</text>
<text text-anchor="start" x="372.05" y="-712.5" font-family="Helvetica,sans-Serif" font-size="10.00"> oriVelocity)</text>
<text text-anchor="start" x="372.05" y="-701.5" font-family="Helvetica,sans-Serif" font-size="10.00"># virtual void Start()</text>
</a>
</g>
</g>
<!-- Node2&#45;&gt;Node4 -->
<g id="edge5" class="edge">
<title>Node2&#45;&gt;Node4</title>
<path fill="none" stroke="midnightblue" d="M289.37,-1411.06C310.65,-1404.19 334.05,-1393.23 350.05,-1376 355.81,-1369.8 361.27,-1363.31 366.46,-1356.57"/>
<polygon fill="none" stroke="midnightblue" points="288.35,-1407.72 279.78,-1413.94 290.36,-1414.42 288.35,-1407.72"/>
</g>
<!-- Node6 -->
<g id="node6" class="node">
<title>Node6</title>
<g id="a_node6"><a xlink:href="class_units_1_1_unit.html" target="_top" xlink:title="单位">
<polygon fill="white" stroke="black" points="315.05,-248.5 315.05,-646.5 481.05,-646.5 481.05,-248.5 315.05,-248.5"/>
<text text-anchor="middle" x="398.05" y="-634.5" font-family="Helvetica,sans-Serif" font-size="10.00">Unit</text>
<polyline fill="none" stroke="black" points="315.05,-627.5 481.05,-627.5 "/>
<text text-anchor="start" x="323.05" y="-615.5" font-family="Helvetica,sans-Serif" font-size="10.00">+ int defence</text>
<text text-anchor="start" x="323.05" y="-604.5" font-family="Helvetica,sans-Serif" font-size="10.00">+ bool isUnmovable</text>
<text text-anchor="start" x="323.05" y="-593.5" font-family="Helvetica,sans-Serif" font-size="10.00">+ int playerOwnMax</text>
<text text-anchor="start" x="323.05" y="-582.5" font-family="Helvetica,sans-Serif" font-size="10.00">+ Rigidbody unitRigidbody</text>
<text text-anchor="start" x="323.05" y="-571.5" font-family="Helvetica,sans-Serif" font-size="10.00">+ Road road</text>
<text text-anchor="start" x="323.05" y="-560.5" font-family="Helvetica,sans-Serif" font-size="10.00">+ UnitType unitType</text>
<text text-anchor="start" x="323.05" y="-549.5" font-family="Helvetica,sans-Serif" font-size="10.00">+ int costFood</text>
<text text-anchor="start" x="323.05" y="-538.5" font-family="Helvetica,sans-Serif" font-size="10.00">+ int costWood</text>
<text text-anchor="start" x="323.05" y="-527.5" font-family="Helvetica,sans-Serif" font-size="10.00">+ int costGold</text>
<text text-anchor="start" x="323.05" y="-516.5" font-family="Helvetica,sans-Serif" font-size="10.00">+ bool isDieImmediately</text>
<text text-anchor="start" x="323.05" y="-505.5" font-family="Helvetica,sans-Serif" font-size="10.00">+ int deathReward</text>
<text text-anchor="start" x="323.05" y="-494.5" font-family="Helvetica,sans-Serif" font-size="10.00">+ UnityEvent&lt; GameObject,</text>
<text text-anchor="start" x="323.05" y="-483.5" font-family="Helvetica,sans-Serif" font-size="10.00"> Transform &gt; navStopEventHandler</text>
<text text-anchor="start" x="323.05" y="-472.5" font-family="Helvetica,sans-Serif" font-size="10.00">+ UnityEvent&lt; Player.Player,</text>
<text text-anchor="start" x="323.05" y="-461.5" font-family="Helvetica,sans-Serif" font-size="10.00"> IMilitaryUnit &gt; UnitDeathEvent</text>
<text text-anchor="start" x="323.05" y="-450.5" font-family="Helvetica,sans-Serif" font-size="10.00">Handler</text>
<text text-anchor="start" x="323.05" y="-439.5" font-family="Helvetica,sans-Serif" font-size="10.00">+ int??? HP</text>
<text text-anchor="start" x="323.05" y="-428.5" font-family="Helvetica,sans-Serif" font-size="10.00">+ float Speed</text>
<text text-anchor="start" x="323.05" y="-417.5" font-family="Helvetica,sans-Serif" font-size="10.00">+ Transform InitTarget</text>
<text text-anchor="start" x="323.05" y="-406.5" font-family="Helvetica,sans-Serif" font-size="10.00">+ bool IsAtEnemyDoor</text>
<text text-anchor="start" x="323.05" y="-395.5" font-family="Helvetica,sans-Serif" font-size="10.00"># bool Death</text>
<text text-anchor="start" x="323.05" y="-384.5" font-family="Helvetica,sans-Serif" font-size="10.00"># UnityEvent StartEventHandler</text>
<text text-anchor="start" x="323.05" y="-373.5" font-family="Helvetica,sans-Serif" font-size="10.00"># UnityEvent&lt; IMilitaryUnit</text>
<text text-anchor="start" x="323.05" y="-362.5" font-family="Helvetica,sans-Serif" font-size="10.00"> &gt; BeAttackedEventHandler</text>
<polyline fill="none" stroke="black" points="315.05,-355.5 481.05,-355.5 "/>
<text text-anchor="start" x="323.05" y="-343.5" font-family="Helvetica,sans-Serif" font-size="10.00">+ virtual void Start()</text>
<text text-anchor="start" x="323.05" y="-332.5" font-family="Helvetica,sans-Serif" font-size="10.00">+ virtual void Update()</text>
<text text-anchor="start" x="323.05" y="-321.5" font-family="Helvetica,sans-Serif" font-size="10.00">+ virtual void BeAttacked</text>
<text text-anchor="start" x="323.05" y="-310.5" font-family="Helvetica,sans-Serif" font-size="10.00">(IMilitaryUnit attacker)</text>
<text text-anchor="start" x="323.05" y="-299.5" font-family="Helvetica,sans-Serif" font-size="10.00"># virtual void Awake()</text>
<text text-anchor="start" x="323.05" y="-288.5" font-family="Helvetica,sans-Serif" font-size="10.00"># void Goto(Transform tr)</text>
<text text-anchor="start" x="323.05" y="-277.5" font-family="Helvetica,sans-Serif" font-size="10.00"># static float GetTwoPoint</text>
<text text-anchor="start" x="323.05" y="-266.5" font-family="Helvetica,sans-Serif" font-size="10.00">DistanceOnNav(Vector3</text>
<text text-anchor="start" x="323.05" y="-255.5" font-family="Helvetica,sans-Serif" font-size="10.00"> oriPoint, Vector3 targetPoint)</text>
</a>
</g>
</g>
<!-- Node2&#45;&gt;Node6 -->
<g id="edge8" class="edge">
<title>Node2&#45;&gt;Node6</title>
<path fill="none" stroke="midnightblue" d="M287.85,-1391.63C299.43,-1382.06 310.32,-1370.41 317.05,-1357 386.09,-1219.39 329.65,-817.59 350.05,-665 350.86,-658.99 351.74,-652.9 352.7,-646.76"/>
<polygon fill="none" stroke="midnightblue" points="285.51,-1389.02 279.77,-1397.93 289.81,-1394.54 285.51,-1389.02"/>
</g>
<!-- Node3&#45;&gt;Node1 -->
<g id="edge2" class="edge">
<title>Node3&#45;&gt;Node1</title>
<path fill="none" stroke="#404040" d="M163.97,-248.31C155.08,-207.42 146.62,-168.5 140.64,-141.02"/>
<polygon fill="none" stroke="#404040" points="140.63,-140.96 135.45,-135.94 138.08,-129.23 143.26,-134.24 140.63,-140.96"/>
<text text-anchor="middle" x="171.55" y="-222" font-family="Helvetica,sans-Serif" font-size="10.00"> +unit</text>
</g>
<!-- Node4&#45;&gt;Node3 -->
<g id="edge4" class="edge">
<title>Node4&#45;&gt;Node3</title>
<path fill="none" stroke="#404040" d="M363.92,-728.73C352.39,-706.49 339.78,-684.97 326.05,-665 319.28,-655.15 313.29,-656.52 306.05,-647 302.97,-642.95 299.94,-638.79 296.97,-634.54"/>
<polygon fill="none" stroke="#404040" points="296.88,-634.4 290.2,-631.68 290.14,-624.47 296.82,-627.19 296.88,-634.4"/>
<text text-anchor="middle" x="359.55" y="-668" font-family="Helvetica,sans-Serif" font-size="10.00"> +sidePlayer</text>
</g>
<!-- Node4&#45;&gt;Node6 -->
<g id="edge9" class="edge">
<title>Node4&#45;&gt;Node6</title>
<path fill="none" stroke="#404040" d="M428.45,-694.39C427.31,-684.48 426.18,-674.67 425.05,-665 424.81,-662.93 424.57,-660.85 424.32,-658.76"/>
<polygon fill="none" stroke="#404040" points="424.3,-658.61 419.63,-653.12 422.9,-646.7 427.57,-652.19 424.3,-658.61"/>
<text text-anchor="middle" x="453.55" y="-668" font-family="Helvetica,sans-Serif" font-size="10.00"> +sidePlayer</text>
</g>
<!-- Node5 -->
<g id="node5" class="node">
<title>Node5</title>
<g id="a_node5"><a xlink:href="class_units_1_1_farmer.html" target="_top" xlink:title="农民">
<polygon fill="white" stroke="black" points="347.55,-0.5 347.55,-200.5 498.55,-200.5 498.55,-0.5 347.55,-0.5"/>
<text text-anchor="middle" x="423.05" y="-188.5" font-family="Helvetica,sans-Serif" font-size="10.00">Units.Farmer</text>
<polyline fill="none" stroke="black" points="347.55,-181.5 498.55,-181.5 "/>
<text text-anchor="start" x="355.55" y="-169.5" font-family="Helvetica,sans-Serif" font-size="10.00">+ float workTime</text>
<text text-anchor="start" x="355.55" y="-158.5" font-family="Helvetica,sans-Serif" font-size="10.00">+ int[] maxLoad</text>
<text text-anchor="start" x="355.55" y="-147.5" font-family="Helvetica,sans-Serif" font-size="10.00">+ UnityAction&lt; Farmer,</text>
<text text-anchor="start" x="355.55" y="-136.5" font-family="Helvetica,sans-Serif" font-size="10.00"> Transform &gt; farmerBackEvent</text>
<text text-anchor="start" x="355.55" y="-125.5" font-family="Helvetica,sans-Serif" font-size="10.00">Handler</text>
<text text-anchor="start" x="355.55" y="-114.5" font-family="Helvetica,sans-Serif" font-size="10.00">+ int ResouceCarried</text>
<text text-anchor="start" x="355.55" y="-103.5" font-family="Helvetica,sans-Serif" font-size="10.00"># Transform _home</text>
<text text-anchor="start" x="355.55" y="-92.5" font-family="Helvetica,sans-Serif" font-size="10.00"># Transform _targerResource</text>
<polyline fill="none" stroke="black" points="347.55,-85.5 498.55,-85.5 "/>
<text text-anchor="start" x="355.55" y="-73.5" font-family="Helvetica,sans-Serif" font-size="10.00">+ override void Start()</text>
<text text-anchor="start" x="355.55" y="-62.5" font-family="Helvetica,sans-Serif" font-size="10.00"># void OnNavStop(GameObject</text>
<text text-anchor="start" x="355.55" y="-51.5" font-family="Helvetica,sans-Serif" font-size="10.00"> gm, Transform tr)</text>
<text text-anchor="start" x="355.55" y="-40.5" font-family="Helvetica,sans-Serif" font-size="10.00"># void GenerateWorkPath()</text>
<text text-anchor="start" x="355.55" y="-29.5" font-family="Helvetica,sans-Serif" font-size="10.00"># virtual void Work()</text>
<text text-anchor="start" x="355.55" y="-18.5" font-family="Helvetica,sans-Serif" font-size="10.00"># void Drop(Farmer farmer,</text>
<text text-anchor="start" x="355.55" y="-7.5" font-family="Helvetica,sans-Serif" font-size="10.00"> Transform tr)</text>
</a>
</g>
</g>
<!-- Node5&#45;&gt;Node4 -->
<g id="edge6" class="edge">
<title>Node5&#45;&gt;Node4</title>
<path fill="none" stroke="#404040" d="M475.26,-200.81C481.36,-216.24 486.63,-232.29 490.05,-248 520.57,-388.09 521.26,-545.71 511.63,-682.15"/>
<polygon fill="none" stroke="#404040" points="511.61,-682.48 515.16,-688.76 510.73,-694.45 507.18,-688.17 511.61,-682.48"/>
<text text-anchor="middle" x="549.05" y="-445" font-family="Helvetica,sans-Serif" font-size="10.00"> +farmerPrefab</text>
</g>
<!-- Node6&#45;&gt;Node5 -->
<g id="edge7" class="edge">
<title>Node6&#45;&gt;Node5</title>
<path fill="none" stroke="midnightblue" d="M413.16,-238C414.09,-225.21 414.99,-212.7 415.86,-200.76"/>
<polygon fill="none" stroke="midnightblue" points="409.65,-238.08 412.41,-248.31 416.63,-238.59 409.65,-238.08"/>
</g>
<!-- Node8 -->
<g id="node8" class="node">
<title>Node8</title>
<g id="a_node8"><a xlink:href="class_units_1_1_door.html" target="_top" xlink:title="基地门">
<polygon fill="white" stroke="black" points="550.05,-66.5 550.05,-134.5 668.05,-134.5 668.05,-66.5 550.05,-66.5"/>
<text text-anchor="middle" x="609.05" y="-122.5" font-family="Helvetica,sans-Serif" font-size="10.00">Units.Door</text>
<polyline fill="none" stroke="black" points="550.05,-115.5 668.05,-115.5 "/>
<text text-anchor="middle" x="609.05" y="-103.5" font-family="Helvetica,sans-Serif" font-size="10.00"> </text>
<polyline fill="none" stroke="black" points="550.05,-96.5 668.05,-96.5 "/>
<text text-anchor="start" x="558.05" y="-84.5" font-family="Helvetica,sans-Serif" font-size="10.00">+ override void Start()</text>
<text text-anchor="start" x="558.05" y="-73.5" font-family="Helvetica,sans-Serif" font-size="10.00">+ override void Update()</text>
</a>
</g>
</g>
<!-- Node6&#45;&gt;Node8 -->
<g id="edge12" class="edge">
<title>Node6&#45;&gt;Node8</title>
<path fill="none" stroke="midnightblue" d="M486.27,-262.47C489.17,-257.56 492.1,-252.73 495.05,-248 520.73,-206.85 555.62,-163.45 580.01,-134.67"/>
<polygon fill="none" stroke="midnightblue" points="483.09,-260.97 481.09,-271.38 489.14,-264.49 483.09,-260.97"/>
</g>
<!-- Node7 -->
<g id="node7" class="node">
<title>Node7</title>
<g id="a_node7"><a xlink:href="interface_units_1_1_i_military_unit.html" target="_top" xlink:title="攻击性单位接口">
<polygon fill="white" stroke="black" points="168.05,-936.5 168.05,-1114.5 308.05,-1114.5 308.05,-936.5 168.05,-936.5"/>
<text text-anchor="middle" x="238.05" y="-1102.5" font-family="Helvetica,sans-Serif" font-size="10.00">Units.IMilitaryUnit</text>
<polyline fill="none" stroke="black" points="168.05,-1095.5 308.05,-1095.5 "/>
<text text-anchor="start" x="176.05" y="-1083.5" font-family="Helvetica,sans-Serif" font-size="10.00">+ int AttackValue</text>
<text text-anchor="start" x="176.05" y="-1072.5" font-family="Helvetica,sans-Serif" font-size="10.00">+ float AttackColdDownTime</text>
<text text-anchor="start" x="176.05" y="-1061.5" font-family="Helvetica,sans-Serif" font-size="10.00">+ float AttackRange</text>
<text text-anchor="start" x="176.05" y="-1050.5" font-family="Helvetica,sans-Serif" font-size="10.00">+ int DefenceValue</text>
<text text-anchor="start" x="176.05" y="-1039.5" font-family="Helvetica,sans-Serif" font-size="10.00">+ float SpeedValue</text>
<text text-anchor="start" x="176.05" y="-1028.5" font-family="Helvetica,sans-Serif" font-size="10.00">+ Vector3 OriginalVelocity</text>
<text text-anchor="start" x="176.05" y="-1017.5" font-family="Helvetica,sans-Serif" font-size="10.00">+ Player.Player SidePlayer</text>
<text text-anchor="start" x="176.05" y="-1006.5" font-family="Helvetica,sans-Serif" font-size="10.00">+ UnityEvent&lt; Unit &gt;</text>
<text text-anchor="start" x="176.05" y="-995.5" font-family="Helvetica,sans-Serif" font-size="10.00"> AttackEvent</text>
<text text-anchor="start" x="176.05" y="-984.5" font-family="Helvetica,sans-Serif" font-size="10.00">+ UnityEvent&lt; IMilitaryUnit</text>
<text text-anchor="start" x="176.05" y="-973.5" font-family="Helvetica,sans-Serif" font-size="10.00"> &gt; UnderAttackedEvent</text>
<polyline fill="none" stroke="black" points="168.05,-966.5 308.05,-966.5 "/>
<text text-anchor="start" x="176.05" y="-954.5" font-family="Helvetica,sans-Serif" font-size="10.00">+ void Attack()</text>
<text text-anchor="start" x="176.05" y="-943.5" font-family="Helvetica,sans-Serif" font-size="10.00">+ Unit GetUnit()</text>
</a>
</g>
</g>
<!-- Node7&#45;&gt;Node3 -->
<g id="edge13" class="edge">
<title>Node7&#45;&gt;Node3</title>
<path fill="none" stroke="#404040" d="M223.22,-936.48C212.38,-863.85 199.76,-758.01 201.05,-665 201.08,-662.93 201.11,-660.85 201.14,-658.76"/>
<polygon fill="none" stroke="#404040" points="201.14,-658.71 197.24,-652.64 201.34,-646.71 205.24,-652.77 201.14,-658.71"/>
<text text-anchor="middle" x="225.55" y="-668" font-family="Helvetica,sans-Serif" font-size="10.00"> #_attacker</text>
</g>
<!-- Node7&#45;&gt;Node6 -->
<g id="edge10" class="edge">
<title>Node7&#45;&gt;Node6</title>
<path fill="none" stroke="#404040" d="M226.84,-936.16C221.46,-859.25 224.61,-747.45 273.05,-665 280.17,-652.88 289.85,-657.62 299.05,-647 302,-643.6 304.88,-640.09 307.7,-636.5"/>
<polygon fill="none" stroke="#404040" points="307.8,-636.38 308.22,-629.18 315.03,-626.8 314.6,-634 307.8,-636.38"/>
<text text-anchor="middle" x="297.55" y="-668" font-family="Helvetica,sans-Serif" font-size="10.00"> #_attacker</text>
</g>
<!-- Node8&#45;&gt;Node4 -->
<g id="edge11" class="edge">
<title>Node8&#45;&gt;Node4</title>
<path fill="none" stroke="#404040" d="M610.64,-134.73C614.07,-220.41 619.33,-455.47 585.05,-647 580.29,-673.6 574.15,-700.92 567.15,-728.12"/>
<polygon fill="none" stroke="#404040" points="567.14,-728.15 569.49,-734.97 564.1,-739.76 561.75,-732.95 567.14,-728.15"/>
<text text-anchor="middle" x="627.05" y="-445" font-family="Helvetica,sans-Serif" font-size="10.00"> +door</text>
</g>
</g>
</svg>
