<?xml version="1.0" encoding="UTF-8" standalone="no"?>
<!DOCTYPE svg PUBLIC "-//W3C//DTD SVG 1.1//EN"
 "http://www.w3.org/Graphics/SVG/1.1/DTD/svg11.dtd">
<!-- Generated by graphviz version 2.47.1 (20210417.1919)
 -->
<!-- Title: Player.Player.AddFarmer Pages: 1 -->
<svg width="328pt" height="333pt"
 viewBox="0.00 0.00 328.00 333.00" xmlns="http://www.w3.org/2000/svg" xmlns:xlink="http://www.w3.org/1999/xlink">
<g id="graph0" class="graph" transform="scale(1 1) rotate(0) translate(4 329)">
<title>Player.Player.AddFarmer</title>
<polygon fill="white" stroke="transparent" points="-4,4 -4,-329 324,-329 324,4 -4,4"/>
<!-- Node1 -->
<g id="node1" class="node">
<title>Node1</title>
<g id="a_node1"><a xlink:title="增加一条路的农民分配">
<polygon fill="#bfbfbf" stroke="black" points="194,-153 194,-172 320,-172 320,-153 194,-153"/>
<text text-anchor="middle" x="257" y="-160" font-family="Helvetica,sans-Serif" font-size="10.00">Player.Player.AddFarmer</text>
</a>
</g>
</g>
<!-- Node2 -->
<g id="node2" class="node">
<title>Node2</title>
<g id="a_node2"><a xlink:href="class_u_i_1_1_local_1_1_farmer_dispatch_u_i.html#ab46372945945767f1d1d527d27792eb0" target="_top" xlink:title=" ">
<polygon fill="white" stroke="black" points="11,-294.5 11,-324.5 147,-324.5 147,-294.5 11,-294.5"/>
<text text-anchor="start" x="19" y="-312.5" font-family="Helvetica,sans-Serif" font-size="10.00">UI.Local.FarmerDispatchUI.</text>
<text text-anchor="middle" x="79" y="-301.5" font-family="Helvetica,sans-Serif" font-size="10.00">DispatchFood</text>
</a>
</g>
</g>
<!-- Node1&#45;&gt;Node2 -->
<g id="edge1" class="edge">
<title>Node1&#45;&gt;Node2</title>
<path fill="none" stroke="midnightblue" d="M246.16,-180.91C230.84,-207.82 198.79,-257.7 158,-285.5 152.97,-288.93 147.42,-291.89 141.68,-294.43"/>
<polygon fill="midnightblue" stroke="midnightblue" points="249.24,-182.56 251.03,-172.12 243.12,-179.17 249.24,-182.56"/>
</g>
<!-- Node3 -->
<g id="node3" class="node">
<title>Node3</title>
<g id="a_node3"><a xlink:href="class_u_i_1_1_online_1_1_farmer_dispatch_u_i_online.html#a321a336f4b26dd44045e32576fe14b35" target="_top" xlink:title=" ">
<polygon fill="white" stroke="black" points="15,-245.5 15,-275.5 143,-275.5 143,-245.5 15,-245.5"/>
<text text-anchor="start" x="23" y="-263.5" font-family="Helvetica,sans-Serif" font-size="10.00">UI.Online.FarmerDispatch</text>
<text text-anchor="middle" x="79" y="-252.5" font-family="Helvetica,sans-Serif" font-size="10.00">UIOnline.DispatchFood</text>
</a>
</g>
</g>
<!-- Node1&#45;&gt;Node3 -->
<g id="edge2" class="edge">
<title>Node1&#45;&gt;Node3</title>
<path fill="none" stroke="midnightblue" d="M238.51,-178.74C219.84,-195.31 188.76,-220.78 158,-236.5 151.44,-239.85 144.33,-242.84 137.16,-245.46"/>
<polygon fill="midnightblue" stroke="midnightblue" points="240.87,-181.32 245.94,-172.02 236.18,-176.13 240.87,-181.32"/>
</g>
<!-- Node4 -->
<g id="node4" class="node">
<title>Node4</title>
<g id="a_node4"><a xlink:href="class_u_i_1_1_local_1_1_farmer_dispatch_u_i.html#a2dafec05b54f79babf5d42be188b88b8" target="_top" xlink:title=" ">
<polygon fill="white" stroke="black" points="11,-196.5 11,-226.5 147,-226.5 147,-196.5 11,-196.5"/>
<text text-anchor="start" x="19" y="-214.5" font-family="Helvetica,sans-Serif" font-size="10.00">UI.Local.FarmerDispatchUI.</text>
<text text-anchor="middle" x="79" y="-203.5" font-family="Helvetica,sans-Serif" font-size="10.00">DispatchGold</text>
</a>
</g>
</g>
<!-- Node1&#45;&gt;Node4 -->
<g id="edge3" class="edge">
<title>Node1&#45;&gt;Node4</title>
<path fill="none" stroke="midnightblue" d="M211.9,-174.78C188.28,-181.35 158.99,-189.51 134.01,-196.46"/>
<polygon fill="midnightblue" stroke="midnightblue" points="212.95,-178.12 221.65,-172.06 211.08,-171.37 212.95,-178.12"/>
</g>
<!-- Node5 -->
<g id="node5" class="node">
<title>Node5</title>
<g id="a_node5"><a xlink:href="class_u_i_1_1_online_1_1_farmer_dispatch_u_i_online.html#a19fba7d5fbbe04e76acaa4296890a9a0" target="_top" xlink:title=" ">
<polygon fill="white" stroke="black" points="15,-147.5 15,-177.5 143,-177.5 143,-147.5 15,-147.5"/>
<text text-anchor="start" x="23" y="-165.5" font-family="Helvetica,sans-Serif" font-size="10.00">UI.Online.FarmerDispatch</text>
<text text-anchor="middle" x="79" y="-154.5" font-family="Helvetica,sans-Serif" font-size="10.00">UIOnline.DispatchGold</text>
</a>
</g>
</g>
<!-- Node1&#45;&gt;Node5 -->
<g id="edge4" class="edge">
<title>Node1&#45;&gt;Node5</title>
<path fill="none" stroke="midnightblue" d="M183.8,-162.5C170.36,-162.5 156.42,-162.5 143.27,-162.5"/>
<polygon fill="midnightblue" stroke="midnightblue" points="183.95,-166 193.95,-162.5 183.95,-159 183.95,-166"/>
</g>
<!-- Node6 -->
<g id="node6" class="node">
<title>Node6</title>
<g id="a_node6"><a xlink:href="class_u_i_1_1_local_1_1_farmer_dispatch_u_i.html#ab0549fff8328d9bd60943a206cb36212" target="_top" xlink:title=" ">
<polygon fill="white" stroke="black" points="11,-98.5 11,-128.5 147,-128.5 147,-98.5 11,-98.5"/>
<text text-anchor="start" x="19" y="-116.5" font-family="Helvetica,sans-Serif" font-size="10.00">UI.Local.FarmerDispatchUI.</text>
<text text-anchor="middle" x="79" y="-105.5" font-family="Helvetica,sans-Serif" font-size="10.00">DispatchWood</text>
</a>
</g>
</g>
<!-- Node1&#45;&gt;Node6 -->
<g id="edge5" class="edge">
<title>Node1&#45;&gt;Node6</title>
<path fill="none" stroke="midnightblue" d="M211.9,-150.22C188.28,-143.65 158.99,-135.49 134.01,-128.54"/>
<polygon fill="midnightblue" stroke="midnightblue" points="211.08,-153.63 221.65,-152.94 212.95,-146.88 211.08,-153.63"/>
</g>
<!-- Node7 -->
<g id="node7" class="node">
<title>Node7</title>
<g id="a_node7"><a xlink:href="class_u_i_1_1_online_1_1_farmer_dispatch_u_i_online.html#a380db9abc967e9ef5f02e94ad6435372" target="_top" xlink:title=" ">
<polygon fill="white" stroke="black" points="15,-49.5 15,-79.5 143,-79.5 143,-49.5 15,-49.5"/>
<text text-anchor="start" x="23" y="-67.5" font-family="Helvetica,sans-Serif" font-size="10.00">UI.Online.FarmerDispatch</text>
<text text-anchor="middle" x="79" y="-56.5" font-family="Helvetica,sans-Serif" font-size="10.00">UIOnline.DispatchWood</text>
</a>
</g>
</g>
<!-- Node1&#45;&gt;Node7 -->
<g id="edge6" class="edge">
<title>Node1&#45;&gt;Node7</title>
<path fill="none" stroke="midnightblue" d="M237.88,-146.09C219.08,-129.8 188.26,-105.07 158,-89.5 150.79,-85.79 142.93,-82.5 135.06,-79.61"/>
<polygon fill="midnightblue" stroke="midnightblue" points="235.8,-148.92 245.62,-152.91 240.43,-143.67 235.8,-148.92"/>
</g>
<!-- Node8 -->
<g id="node8" class="node">
<title>Node8</title>
<g id="a_node8"><a xlink:href="class_network_1_1_network_player_manager.html#af9d3d595857baa8819665c4e3d8e963a" target="_top" xlink:title=" ">
<polygon fill="white" stroke="black" points="0,-0.5 0,-30.5 158,-30.5 158,-0.5 0,-0.5"/>
<text text-anchor="start" x="8" y="-18.5" font-family="Helvetica,sans-Serif" font-size="10.00">Network.NetworkPlayerManager.</text>
<text text-anchor="middle" x="79" y="-7.5" font-family="Helvetica,sans-Serif" font-size="10.00">RPC_AddFarmer</text>
</a>
</g>
</g>
<!-- Node1&#45;&gt;Node8 -->
<g id="edge7" class="edge">
<title>Node1&#45;&gt;Node8</title>
<path fill="none" stroke="midnightblue" d="M245.87,-143.95C230.38,-117.26 198.3,-68.2 158,-40.5 152.37,-36.63 146.12,-33.34 139.66,-30.54"/>
<polygon fill="midnightblue" stroke="midnightblue" points="243.02,-146.01 250.98,-152.99 249.11,-142.57 243.02,-146.01"/>
</g>
</g>
</svg>
