<?xml version="1.0" encoding="UTF-8" standalone="no"?>
<!DOCTYPE svg PUBLIC "-//W3C//DTD SVG 1.1//EN"
 "http://www.w3.org/Graphics/SVG/1.1/DTD/svg11.dtd">
<!-- Generated by graphviz version 2.47.1 (20210417.1919)
 -->
<!-- Title: Saver.XMLSaver.SaveData Pages: 1 -->
<svg width="325pt" height="88pt"
 viewBox="0.00 0.00 325.00 88.00" xmlns="http://www.w3.org/2000/svg" xmlns:xlink="http://www.w3.org/1999/xlink">
<g id="graph0" class="graph" transform="scale(1 1) rotate(0) translate(4 84)">
<title>Saver.XMLSaver.SaveData</title>
<polygon fill="white" stroke="transparent" points="-4,4 -4,-84 321,-84 321,4 -4,4"/>
<!-- Node1 -->
<g id="node1" class="node">
<title>Node1</title>
<g id="a_node1"><a xlink:title="存档">
<polygon fill="#bfbfbf" stroke="black" points="186,-30 186,-49 317,-49 317,-30 186,-30"/>
<text text-anchor="middle" x="251.5" y="-37" font-family="Helvetica,sans-Serif" font-size="10.00">Saver.XMLSaver.SaveData</text>
</a>
</g>
</g>
<!-- Node2 -->
<g id="node2" class="node">
<title>Node2</title>
<g id="a_node2"><a xlink:href="class_u_i_1_1_chinese_sports_1_1_battle_1_1_result_u_i.html#a0a4f51cd801e68a4f52e05f2c6cdf662" target="_top" xlink:title=" ">
<polygon fill="white" stroke="black" points="13,-49.5 13,-79.5 137,-79.5 137,-49.5 13,-49.5"/>
<text text-anchor="start" x="21" y="-67.5" font-family="Helvetica,sans-Serif" font-size="10.00">UI.ChineseSports.Battle.</text>
<text text-anchor="middle" x="75" y="-56.5" font-family="Helvetica,sans-Serif" font-size="10.00">ResultUI.BackToMap</text>
</a>
</g>
</g>
<!-- Node1&#45;&gt;Node2 -->
<g id="edge1" class="edge">
<title>Node1&#45;&gt;Node2</title>
<path fill="none" stroke="midnightblue" d="M175.41,-50.26C162.68,-52.08 149.6,-53.96 137.27,-55.72"/>
<polygon fill="midnightblue" stroke="midnightblue" points="176.12,-53.69 185.52,-48.81 175.13,-46.76 176.12,-53.69"/>
</g>
<!-- Node3 -->
<g id="node3" class="node">
<title>Node3</title>
<g id="a_node3"><a xlink:href="class_game_manager_1_1_game_manager.html#a64e64a516bea6f6aecaca4c3148b4e43" target="_top" xlink:title="我方胜利">
<polygon fill="white" stroke="black" points="0,-0.5 0,-30.5 150,-30.5 150,-0.5 0,-0.5"/>
<text text-anchor="start" x="8" y="-18.5" font-family="Helvetica,sans-Serif" font-size="10.00">GameManager.GameManager.</text>
<text text-anchor="middle" x="75" y="-7.5" font-family="Helvetica,sans-Serif" font-size="10.00">PlayerWin</text>
</a>
</g>
</g>
<!-- Node1&#45;&gt;Node3 -->
<g id="edge2" class="edge">
<title>Node1&#45;&gt;Node3</title>
<path fill="none" stroke="midnightblue" d="M175.4,-29.17C167.03,-28.02 158.5,-26.85 150.14,-25.7"/>
<polygon fill="midnightblue" stroke="midnightblue" points="175.14,-32.67 185.52,-30.56 176.09,-25.73 175.14,-32.67"/>
</g>
</g>
</svg>
