<?xml version="1.0" encoding="UTF-8" standalone="no"?>
<!DOCTYPE svg PUBLIC "-//W3C//DTD SVG 1.1//EN"
 "http://www.w3.org/Graphics/SVG/1.1/DTD/svg11.dtd">
<!-- Generated by graphviz version 2.47.1 (20210417.1919)
 -->
<!-- Title: Gameplay.ScienceTree.ScienceTreeBasic Pages: 1 -->
<svg width="266pt" height="354pt"
 viewBox="0.00 0.00 265.50 354.00" xmlns="http://www.w3.org/2000/svg" xmlns:xlink="http://www.w3.org/1999/xlink">
<g id="graph0" class="graph" transform="scale(1 1) rotate(0) translate(4 350)">
<title>Gameplay.ScienceTree.ScienceTreeBasic</title>
<polygon fill="white" stroke="transparent" points="-4,4 -4,-350 261.5,-350 261.5,4 -4,4"/>
<!-- Node1 -->
<g id="node1" class="node">
<title>Node1</title>
<g id="a_node1"><a xlink:title="科技树">
<polygon fill="#bfbfbf" stroke="black" points="0,-0.5 0,-68.5 156,-68.5 156,-0.5 0,-0.5"/>
<text text-anchor="start" x="8" y="-56.5" font-family="Helvetica,sans-Serif" font-size="10.00">Gameplay.ScienceTree.Science</text>
<text text-anchor="middle" x="78" y="-45.5" font-family="Helvetica,sans-Serif" font-size="10.00">TreeBasic</text>
<polyline fill="none" stroke="black" points="0,-38.5 156,-38.5 "/>
<text text-anchor="middle" x="78" y="-26.5" font-family="Helvetica,sans-Serif" font-size="10.00"> </text>
<polyline fill="none" stroke="black" points="0,-19.5 156,-19.5 "/>
<text text-anchor="middle" x="78" y="-7.5" font-family="Helvetica,sans-Serif" font-size="10.00"> </text>
</a>
</g>
</g>
<!-- Node2 -->
<g id="node2" class="node">
<title>Node2</title>
<g id="a_node2"><a xlink:title=" ">
<polygon fill="white" stroke="#bfbfbf" points="32.5,-288.5 32.5,-345.5 115.5,-345.5 115.5,-288.5 32.5,-288.5"/>
<text text-anchor="middle" x="74" y="-333.5" font-family="Helvetica,sans-Serif" font-size="10.00">MonoBehaviour</text>
<polyline fill="none" stroke="#bfbfbf" points="32.5,-326.5 115.5,-326.5 "/>
<text text-anchor="middle" x="74" y="-314.5" font-family="Helvetica,sans-Serif" font-size="10.00"> </text>
<polyline fill="none" stroke="#bfbfbf" points="32.5,-307.5 115.5,-307.5 "/>
<text text-anchor="middle" x="74" y="-295.5" font-family="Helvetica,sans-Serif" font-size="10.00"> </text>
</a>
</g>
</g>
<!-- Node2&#45;&gt;Node1 -->
<g id="edge1" class="edge">
<title>Node2&#45;&gt;Node1</title>
<path fill="none" stroke="midnightblue" d="M74.54,-278.26C75.33,-223.01 76.78,-120.99 77.53,-68.54"/>
<polygon fill="none" stroke="midnightblue" points="71.04,-278.29 74.39,-288.34 78.04,-278.39 71.04,-278.29"/>
</g>
<!-- Node3 -->
<g id="node3" class="node">
<title>Node3</title>
<g id="a_node3"><a xlink:href="class_gameplay_1_1_event_system_1_1_global_event_manager.html" target="_top" xlink:title="全局事件管理">
<polygon fill="white" stroke="black" points="90.5,-116.5 90.5,-250.5 257.5,-250.5 257.5,-116.5 90.5,-116.5"/>
<text text-anchor="start" x="98.5" y="-238.5" font-family="Helvetica,sans-Serif" font-size="10.00">Gameplay.EventSystem.Global</text>
<text text-anchor="middle" x="174" y="-227.5" font-family="Helvetica,sans-Serif" font-size="10.00">EventManager</text>
<polyline fill="none" stroke="black" points="90.5,-220.5 257.5,-220.5 "/>
<text text-anchor="start" x="98.5" y="-208.5" font-family="Helvetica,sans-Serif" font-size="10.00">+ Player.Player aSide</text>
<text text-anchor="start" x="98.5" y="-197.5" font-family="Helvetica,sans-Serif" font-size="10.00">+ Player.Player bSide</text>
<text text-anchor="start" x="98.5" y="-186.5" font-family="Helvetica,sans-Serif" font-size="10.00">+ List&lt; GlobalEventArgs</text>
<text text-anchor="start" x="98.5" y="-175.5" font-family="Helvetica,sans-Serif" font-size="10.00"> &gt; globalEventArgsList</text>
<text text-anchor="start" x="98.5" y="-164.5" font-family="Helvetica,sans-Serif" font-size="10.00">+ static GlobalEventManager</text>
<text text-anchor="start" x="98.5" y="-153.5" font-family="Helvetica,sans-Serif" font-size="10.00"> GetManager</text>
<polyline fill="none" stroke="black" points="90.5,-146.5 257.5,-146.5 "/>
<text text-anchor="start" x="98.5" y="-134.5" font-family="Helvetica,sans-Serif" font-size="10.00">+ void RegisterGlobalEvent</text>
<text text-anchor="start" x="98.5" y="-123.5" font-family="Helvetica,sans-Serif" font-size="10.00">(GlobalEventArgs globalEventArgs)</text>
</a>
</g>
</g>
<!-- Node2&#45;&gt;Node3 -->
<g id="edge3" class="edge">
<title>Node2&#45;&gt;Node3</title>
<path fill="none" stroke="midnightblue" d="M101.14,-280.31C108.12,-271.14 115.85,-260.96 123.6,-250.77"/>
<polygon fill="none" stroke="midnightblue" points="98.23,-278.35 94.96,-288.43 103.8,-282.59 98.23,-278.35"/>
</g>
<!-- Node3&#45;&gt;Node1 -->
<g id="edge2" class="edge">
<title>Node3&#45;&gt;Node1</title>
<path fill="none" stroke="#404040" d="M130.77,-116.31C122.54,-103.71 114.12,-90.82 106.5,-79.14"/>
<polygon fill="none" stroke="#404040" points="106.3,-78.84 99.67,-76 99.74,-68.79 106.37,-71.63 106.3,-78.84"/>
<text text-anchor="middle" x="165.5" y="-90" font-family="Helvetica,sans-Serif" font-size="10.00"> +globalEventManager</text>
</g>
</g>
</svg>
