<?xml version="1.0" encoding="UTF-8" standalone="no"?>
<!DOCTYPE svg PUBLIC "-//W3C//DTD SVG 1.1//EN"
 "http://www.w3.org/Graphics/SVG/1.1/DTD/svg11.dtd">
<!-- Generated by graphviz version 2.47.1 (20210417.1919)
 -->
<!-- Title: Player.PlayerAI.AIGaming Pages: 1 -->
<svg width="505pt" height="91pt"
 viewBox="0.00 0.00 505.00 91.00" xmlns="http://www.w3.org/2000/svg" xmlns:xlink="http://www.w3.org/1999/xlink">
<g id="graph0" class="graph" transform="scale(1 1) rotate(0) translate(4 87)">
<title>Player.PlayerAI.AIGaming</title>
<polygon fill="white" stroke="transparent" points="-4,4 -4,-87 501,-87 501,4 -4,4"/>
<!-- Node1 -->
<g id="node1" class="node">
<title>Node1</title>
<g id="a_node1"><a xlink:title="AI决策">
<polygon fill="#bfbfbf" stroke="black" points="0,-41.5 0,-60.5 130,-60.5 130,-41.5 0,-41.5"/>
<text text-anchor="middle" x="65" y="-48.5" font-family="Helvetica,sans-Serif" font-size="10.00">Player.PlayerAI.AIGaming</text>
</a>
</g>
</g>
<!-- Node2 -->
<g id="node2" class="node">
<title>Node2</title>
<g id="a_node2"><a xlink:href="class_player_1_1_player_a_i.html#ac772b0dc62609d2aecd2718277612b86" target="_top" xlink:title="路危险权重决策">
<polygon fill="white" stroke="black" points="166,-63.5 166,-82.5 309,-82.5 309,-63.5 166,-63.5"/>
<text text-anchor="middle" x="237.5" y="-70.5" font-family="Helvetica,sans-Serif" font-size="10.00">Player.PlayerAI.CountEnemy</text>
</a>
</g>
</g>
<!-- Node1&#45;&gt;Node2 -->
<g id="edge1" class="edge">
<title>Node1&#45;&gt;Node2</title>
<path fill="none" stroke="midnightblue" d="M130.46,-59.32C138.8,-60.39 147.42,-61.51 155.97,-62.61"/>
<polygon fill="midnightblue" stroke="midnightblue" points="155.6,-66.09 165.96,-63.9 156.49,-59.15 155.6,-66.09"/>
</g>
<!-- Node3 -->
<g id="node3" class="node">
<title>Node3</title>
<g id="a_node3"><a xlink:href="class_player_1_1_player_a_i.html#ab8e53c5b988195ceea6001484ae26869" target="_top" xlink:title="派遣单位">
<polygon fill="white" stroke="black" points="175,-14 175,-44 300,-44 300,-14 175,-14"/>
<text text-anchor="start" x="183" y="-32" font-family="Helvetica,sans-Serif" font-size="10.00">Player.PlayerAI.Dispatch</text>
<text text-anchor="middle" x="237.5" y="-21" font-family="Helvetica,sans-Serif" font-size="10.00">Units</text>
</a>
</g>
</g>
<!-- Node1&#45;&gt;Node3 -->
<g id="edge2" class="edge">
<title>Node1&#45;&gt;Node3</title>
<path fill="none" stroke="midnightblue" d="M130.46,-42.68C141.69,-41.23 153.44,-39.72 164.85,-38.25"/>
<polygon fill="midnightblue" stroke="midnightblue" points="165.3,-41.72 174.77,-36.97 164.4,-34.77 165.3,-41.72"/>
</g>
<!-- Node4 -->
<g id="node4" class="node">
<title>Node4</title>
<g id="a_node4"><a xlink:href="class_player_1_1_player.html#a5dc06c6cb394474907fbcde1ed4c5e93" target="_top" xlink:title="增减资源">
<polygon fill="white" stroke="black" points="345,-38.5 345,-57.5 497,-57.5 497,-38.5 345,-38.5"/>
<text text-anchor="middle" x="421" y="-45.5" font-family="Helvetica,sans-Serif" font-size="10.00">Player.Player.ChangeResource</text>
</a>
</g>
</g>
<!-- Node3&#45;&gt;Node4 -->
<g id="edge3" class="edge">
<title>Node3&#45;&gt;Node4</title>
<path fill="none" stroke="midnightblue" d="M300.2,-35.46C311.33,-36.62 323.11,-37.86 334.77,-39.08"/>
<polygon fill="midnightblue" stroke="midnightblue" points="334.65,-42.58 344.96,-40.14 335.38,-35.62 334.65,-42.58"/>
</g>
<!-- Node5 -->
<g id="node5" class="node">
<title>Node5</title>
<g id="a_node5"><a xlink:href="class_player_1_1_player.html#a7bafb34edc1a7b368ec8d554d3885e26" target="_top" xlink:title="派遣单位">
<polygon fill="white" stroke="black" points="363,-0.5 363,-19.5 479,-19.5 479,-0.5 363,-0.5"/>
<text text-anchor="middle" x="421" y="-7.5" font-family="Helvetica,sans-Serif" font-size="10.00">Player.Player.SetUnits</text>
</a>
</g>
</g>
<!-- Node3&#45;&gt;Node5 -->
<g id="edge4" class="edge">
<title>Node3&#45;&gt;Node5</title>
<path fill="none" stroke="midnightblue" d="M300.2,-22.54C317.12,-20.77 335.56,-18.84 352.77,-17.04"/>
<polygon fill="midnightblue" stroke="midnightblue" points="353.17,-20.52 362.75,-15.99 352.44,-13.55 353.17,-20.52"/>
</g>
</g>
</svg>
