<?xml version="1.0" encoding="UTF-8" standalone="no"?>
<!DOCTYPE svg PUBLIC "-//W3C//DTD SVG 1.1//EN"
 "http://www.w3.org/Graphics/SVG/1.1/DTD/svg11.dtd">
<!-- Generated by graphviz version 2.47.1 (20210417.1919)
 -->
<!-- Title: Controllers.Camera.CameraScreenShot Pages: 1 -->
<svg width="175pt" height="292pt"
 viewBox="0.00 0.00 175.00 292.00" xmlns="http://www.w3.org/2000/svg" xmlns:xlink="http://www.w3.org/1999/xlink">
<g id="graph0" class="graph" transform="scale(1 1) rotate(0) translate(4 288)">
<title>Controllers.Camera.CameraScreenShot</title>
<polygon fill="white" stroke="transparent" points="-4,4 -4,-288 171,-288 171,4 -4,4"/>
<!-- Node1 -->
<g id="node1" class="node">
<title>Node1</title>
<g id="a_node1"><a xlink:title="截屏">
<polygon fill="#bfbfbf" stroke="black" points="0,-0.5 0,-189.5 167,-189.5 167,-0.5 0,-0.5"/>
<text text-anchor="start" x="8" y="-177.5" font-family="Helvetica,sans-Serif" font-size="10.00">Controllers.Camera.Camera</text>
<text text-anchor="middle" x="83.5" y="-166.5" font-family="Helvetica,sans-Serif" font-size="10.00">ScreenShot</text>
<polyline fill="none" stroke="black" points="0,-159.5 167,-159.5 "/>
<text text-anchor="start" x="8" y="-147.5" font-family="Helvetica,sans-Serif" font-size="10.00">+ Texture mixTexture</text>
<text text-anchor="start" x="8" y="-136.5" font-family="Helvetica,sans-Serif" font-size="10.00">+ Shader mixShader</text>
<text text-anchor="start" x="8" y="-125.5" font-family="Helvetica,sans-Serif" font-size="10.00">+ Color baseColor</text>
<text text-anchor="start" x="8" y="-114.5" font-family="Helvetica,sans-Serif" font-size="10.00">+ Color mixColor</text>
<text text-anchor="start" x="8" y="-103.5" font-family="Helvetica,sans-Serif" font-size="10.00">+ List&lt; GameObject &gt;</text>
<text text-anchor="start" x="8" y="-92.5" font-family="Helvetica,sans-Serif" font-size="10.00"> unusedUis</text>
<text text-anchor="start" x="8" y="-81.5" font-family="Helvetica,sans-Serif" font-size="10.00">+ Texture2D screenShot</text>
<text text-anchor="start" x="8" y="-70.5" font-family="Helvetica,sans-Serif" font-size="10.00">+ Texture2D renderResultTex</text>
<text text-anchor="start" x="8" y="-59.5" font-family="Helvetica,sans-Serif" font-size="10.00">+ bool isShotDone</text>
<text text-anchor="start" x="8" y="-48.5" font-family="Helvetica,sans-Serif" font-size="10.00">+ Material MixMaterial</text>
<polyline fill="none" stroke="black" points="0,-41.5 167,-41.5 "/>
<text text-anchor="start" x="8" y="-29.5" font-family="Helvetica,sans-Serif" font-size="10.00">+ Texture2D CaptureCamera</text>
<text text-anchor="start" x="8" y="-18.5" font-family="Helvetica,sans-Serif" font-size="10.00">(Rect rect)</text>
<text text-anchor="start" x="8" y="-7.5" font-family="Helvetica,sans-Serif" font-size="10.00">+ IEnumerator GetCaptureScreen()</text>
</a>
</g>
</g>
<!-- Node2 -->
<g id="node2" class="node">
<title>Node2</title>
<g id="a_node2"><a xlink:title=" ">
<polygon fill="white" stroke="#bfbfbf" points="42,-226.5 42,-283.5 125,-283.5 125,-226.5 42,-226.5"/>
<text text-anchor="middle" x="83.5" y="-271.5" font-family="Helvetica,sans-Serif" font-size="10.00">MonoBehaviour</text>
<polyline fill="none" stroke="#bfbfbf" points="42,-264.5 125,-264.5 "/>
<text text-anchor="middle" x="83.5" y="-252.5" font-family="Helvetica,sans-Serif" font-size="10.00"> </text>
<polyline fill="none" stroke="#bfbfbf" points="42,-245.5 125,-245.5 "/>
<text text-anchor="middle" x="83.5" y="-233.5" font-family="Helvetica,sans-Serif" font-size="10.00"> </text>
</a>
</g>
</g>
<!-- Node2&#45;&gt;Node1 -->
<g id="edge1" class="edge">
<title>Node2&#45;&gt;Node1</title>
<path fill="none" stroke="midnightblue" d="M83.5,-216.22C83.5,-208.01 83.5,-198.99 83.5,-189.68"/>
<polygon fill="none" stroke="midnightblue" points="80,-216.48 83.5,-226.48 87,-216.48 80,-216.48"/>
</g>
</g>
</svg>
