<?xml version="1.0" encoding="UTF-8" standalone="no"?>
<!DOCTYPE svg PUBLIC "-//W3C//DTD SVG 1.1//EN"
 "http://www.w3.org/Graphics/SVG/1.1/DTD/svg11.dtd">
<!-- Generated by graphviz version 2.47.1 (20210417.1919)
 -->
<!-- Title: GameManager.GameManager Pages: 1 -->
<svg width="281pt" height="595pt"
 viewBox="0.00 0.00 280.50 595.00" xmlns="http://www.w3.org/2000/svg" xmlns:xlink="http://www.w3.org/1999/xlink">
<g id="graph0" class="graph" transform="scale(1 1) rotate(0) translate(4 591)">
<title>GameManager.GameManager</title>
<polygon fill="white" stroke="transparent" points="-4,4 -4,-591 276.5,-591 276.5,4 -4,4"/>
<!-- Node1 -->
<g id="node1" class="node">
<title>Node1</title>
<g id="a_node1"><a xlink:title="关卡全局管理控制器">
<polygon fill="#bfbfbf" stroke="black" points="57,-0.5 57,-189.5 204,-189.5 204,-0.5 57,-0.5"/>
<text text-anchor="middle" x="130.5" y="-177.5" font-family="Helvetica,sans-Serif" font-size="10.00">GameManager.GameManager</text>
<polyline fill="none" stroke="black" points="57,-170.5 204,-170.5 "/>
<text text-anchor="start" x="65" y="-158.5" font-family="Helvetica,sans-Serif" font-size="10.00">+ Player.Player aSide</text>
<text text-anchor="start" x="65" y="-147.5" font-family="Helvetica,sans-Serif" font-size="10.00">+ Player.Player bSide</text>
<text text-anchor="start" x="65" y="-136.5" font-family="Helvetica,sans-Serif" font-size="10.00">+ Seeker seeker</text>
<text text-anchor="start" x="65" y="-125.5" font-family="Helvetica,sans-Serif" font-size="10.00">+ List&lt; UnitDict &gt; unitsList</text>
<text text-anchor="start" x="65" y="-114.5" font-family="Helvetica,sans-Serif" font-size="10.00">+ UnityEvent winEvent</text>
<text text-anchor="start" x="65" y="-103.5" font-family="Helvetica,sans-Serif" font-size="10.00">+ UnityEvent loseEvent</text>
<text text-anchor="start" x="65" y="-92.5" font-family="Helvetica,sans-Serif" font-size="10.00">+ int unlockLevel</text>
<text text-anchor="start" x="65" y="-81.5" font-family="Helvetica,sans-Serif" font-size="10.00">+ int unlockCharacter</text>
<text text-anchor="start" x="65" y="-70.5" font-family="Helvetica,sans-Serif" font-size="10.00">+ int[] unlockItem</text>
<text text-anchor="start" x="65" y="-59.5" font-family="Helvetica,sans-Serif" font-size="10.00">+ AudioSource audioSource</text>
<text text-anchor="start" x="65" y="-48.5" font-family="Helvetica,sans-Serif" font-size="10.00">+ static GameManager</text>
<text text-anchor="start" x="65" y="-37.5" font-family="Helvetica,sans-Serif" font-size="10.00"> GetManager</text>
<polyline fill="none" stroke="black" points="57,-30.5 204,-30.5 "/>
<text text-anchor="start" x="65" y="-18.5" font-family="Helvetica,sans-Serif" font-size="10.00">+ void PlayerWin()</text>
<text text-anchor="start" x="65" y="-7.5" font-family="Helvetica,sans-Serif" font-size="10.00">+ void PlayerLose()</text>
</a>
</g>
</g>
<!-- Node2 -->
<g id="node2" class="node">
<title>Node2</title>
<g id="a_node2"><a xlink:title=" ">
<polygon fill="white" stroke="#bfbfbf" points="0,-529.5 0,-586.5 83,-586.5 83,-529.5 0,-529.5"/>
<text text-anchor="middle" x="41.5" y="-574.5" font-family="Helvetica,sans-Serif" font-size="10.00">MonoBehaviour</text>
<polyline fill="none" stroke="#bfbfbf" points="0,-567.5 83,-567.5 "/>
<text text-anchor="middle" x="41.5" y="-555.5" font-family="Helvetica,sans-Serif" font-size="10.00"> </text>
<polyline fill="none" stroke="#bfbfbf" points="0,-548.5 83,-548.5 "/>
<text text-anchor="middle" x="41.5" y="-536.5" font-family="Helvetica,sans-Serif" font-size="10.00"> </text>
</a>
</g>
</g>
<!-- Node2&#45;&gt;Node1 -->
<g id="edge1" class="edge">
<title>Node2&#45;&gt;Node1</title>
<path fill="none" stroke="midnightblue" d="M36.11,-519.07C28.8,-458.22 19.63,-335.62 47.5,-237 52.02,-221.01 58.81,-204.96 66.59,-189.72"/>
<polygon fill="none" stroke="midnightblue" points="32.68,-519.86 37.4,-529.35 39.63,-518.99 32.68,-519.86"/>
</g>
<!-- Node3 -->
<g id="node3" class="node">
<title>Node3</title>
<g id="a_node3"><a xlink:href="class_u_i_1_1_chinese_sports_1_1_battle_1_1_result_u_i.html" target="_top" xlink:title=" ">
<polygon fill="white" stroke="black" points="56.5,-237.5 56.5,-481.5 204.5,-481.5 204.5,-237.5 56.5,-237.5"/>
<text text-anchor="start" x="64.5" y="-469.5" font-family="Helvetica,sans-Serif" font-size="10.00">UI.ChineseSports.Battle.</text>
<text text-anchor="middle" x="130.5" y="-458.5" font-family="Helvetica,sans-Serif" font-size="10.00">ResultUI</text>
<polyline fill="none" stroke="black" points="56.5,-451.5 204.5,-451.5 "/>
<text text-anchor="start" x="64.5" y="-439.5" font-family="Helvetica,sans-Serif" font-size="10.00">+ bool isWin</text>
<text text-anchor="start" x="64.5" y="-428.5" font-family="Helvetica,sans-Serif" font-size="10.00">+ GameObject resultPanel</text>
<text text-anchor="start" x="64.5" y="-417.5" font-family="Helvetica,sans-Serif" font-size="10.00">+ GameObject winPanel</text>
<text text-anchor="start" x="64.5" y="-406.5" font-family="Helvetica,sans-Serif" font-size="10.00">+ GameObject losePanel</text>
<text text-anchor="start" x="64.5" y="-395.5" font-family="Helvetica,sans-Serif" font-size="10.00">+ List&lt; ItemDict &gt; itemDicts</text>
<text text-anchor="start" x="64.5" y="-384.5" font-family="Helvetica,sans-Serif" font-size="10.00">+ Image itemImage</text>
<text text-anchor="start" x="64.5" y="-373.5" font-family="Helvetica,sans-Serif" font-size="10.00">+ GameObject itemPanel</text>
<text text-anchor="start" x="64.5" y="-362.5" font-family="Helvetica,sans-Serif" font-size="10.00">+ GameObject root</text>
<text text-anchor="start" x="64.5" y="-351.5" font-family="Helvetica,sans-Serif" font-size="10.00">+ GameObject nextButton</text>
<text text-anchor="start" x="64.5" y="-340.5" font-family="Helvetica,sans-Serif" font-size="10.00">+ GameObject backButton</text>
<text text-anchor="start" x="64.5" y="-329.5" font-family="Helvetica,sans-Serif" font-size="10.00">+ GameObject videoManager</text>
<text text-anchor="start" x="64.5" y="-318.5" font-family="Helvetica,sans-Serif" font-size="10.00">+ UnityEvent onWinResultEnd</text>
<text text-anchor="start" x="64.5" y="-307.5" font-family="Helvetica,sans-Serif" font-size="10.00">+ int? CurState</text>
<polyline fill="none" stroke="black" points="56.5,-300.5 204.5,-300.5 "/>
<text text-anchor="start" x="64.5" y="-288.5" font-family="Helvetica,sans-Serif" font-size="10.00">+ void ShowResult()</text>
<text text-anchor="start" x="64.5" y="-277.5" font-family="Helvetica,sans-Serif" font-size="10.00">+ void BackToLobby()</text>
<text text-anchor="start" x="64.5" y="-266.5" font-family="Helvetica,sans-Serif" font-size="10.00">+ void BackToMap()</text>
<text text-anchor="start" x="64.5" y="-255.5" font-family="Helvetica,sans-Serif" font-size="10.00">+ void OnNextClick()</text>
<text text-anchor="start" x="64.5" y="-244.5" font-family="Helvetica,sans-Serif" font-size="10.00">+ void ShowButton()</text>
</a>
</g>
</g>
<!-- Node2&#45;&gt;Node3 -->
<g id="edge3" class="edge">
<title>Node2&#45;&gt;Node3</title>
<path fill="none" stroke="midnightblue" d="M58.34,-519.83C63.45,-508.54 69.37,-495.47 75.58,-481.76"/>
<polygon fill="none" stroke="midnightblue" points="55,-518.71 54.06,-529.26 61.38,-521.6 55,-518.71"/>
</g>
<!-- Node3&#45;&gt;Node1 -->
<g id="edge2" class="edge">
<title>Node3&#45;&gt;Node1</title>
<path fill="none" stroke="#404040" d="M130.5,-237.24C130.5,-225.37 130.5,-213.4 130.5,-201.71"/>
<polygon fill="none" stroke="#404040" points="130.5,-201.64 126.5,-195.64 130.5,-189.64 134.5,-195.64 130.5,-201.64"/>
<text text-anchor="middle" x="152" y="-211" font-family="Helvetica,sans-Serif" font-size="10.00"> +resultUI</text>
</g>
<!-- Node4 -->
<g id="node4" class="node">
<title>Node4</title>
<g id="a_node4"><a xlink:title=" ">
<polygon fill="white" stroke="#bfbfbf" points="113,-529.5 113,-586.5 148,-586.5 148,-529.5 113,-529.5"/>
<text text-anchor="middle" x="130.5" y="-574.5" font-family="Helvetica,sans-Serif" font-size="10.00">Text</text>
<polyline fill="none" stroke="#bfbfbf" points="113,-567.5 148,-567.5 "/>
<text text-anchor="middle" x="130.5" y="-555.5" font-family="Helvetica,sans-Serif" font-size="10.00"> </text>
<polyline fill="none" stroke="#bfbfbf" points="113,-548.5 148,-548.5 "/>
<text text-anchor="middle" x="130.5" y="-536.5" font-family="Helvetica,sans-Serif" font-size="10.00"> </text>
</a>
</g>
</g>
<!-- Node4&#45;&gt;Node3 -->
<g id="edge4" class="edge">
<title>Node4&#45;&gt;Node3</title>
<path fill="none" stroke="#404040" d="M130.5,-529.26C130.5,-519.22 130.5,-507.1 130.5,-494.01"/>
<polygon fill="none" stroke="#404040" points="130.5,-493.76 126.5,-487.76 130.5,-481.76 134.5,-487.76 130.5,-493.76"/>
<text text-anchor="middle" x="167" y="-503" font-family="Helvetica,sans-Serif" font-size="10.00"> +itemNameText</text>
</g>
<!-- Node5 -->
<g id="node5" class="node">
<title>Node5</title>
<g id="a_node5"><a xlink:title=" ">
<polygon fill="white" stroke="#bfbfbf" points="222.5,-331 222.5,-388 272.5,-388 272.5,-331 222.5,-331"/>
<text text-anchor="middle" x="247.5" y="-376" font-family="Helvetica,sans-Serif" font-size="10.00">Camera</text>
<polyline fill="none" stroke="#bfbfbf" points="222.5,-369 272.5,-369 "/>
<text text-anchor="middle" x="247.5" y="-357" font-family="Helvetica,sans-Serif" font-size="10.00"> </text>
<polyline fill="none" stroke="#bfbfbf" points="222.5,-350 272.5,-350 "/>
<text text-anchor="middle" x="247.5" y="-338" font-family="Helvetica,sans-Serif" font-size="10.00"> </text>
</a>
</g>
</g>
<!-- Node5&#45;&gt;Node1 -->
<g id="edge5" class="edge">
<title>Node5&#45;&gt;Node1</title>
<path fill="none" stroke="#404040" d="M241.9,-330.79C236.33,-305.7 226.71,-268.04 213.5,-237 208.34,-224.87 202.32,-212.51 195.92,-200.39"/>
<polygon fill="none" stroke="#404040" points="195.92,-200.38 189.55,-197 190.22,-189.82 196.59,-193.2 195.92,-200.38"/>
<text text-anchor="middle" x="235.5" y="-211" font-family="Helvetica,sans-Serif" font-size="10.00"> +mainCamera</text>
</g>
</g>
</svg>
