<?xml version="1.0" encoding="UTF-8" standalone="no"?>
<!DOCTYPE svg PUBLIC "-//W3C//DTD SVG 1.1//EN"
 "http://www.w3.org/Graphics/SVG/1.1/DTD/svg11.dtd">
<!-- Generated by graphviz version 2.47.1 (20210417.1919)
 -->
<!-- Title: TutorialUI Pages: 1 -->
<!--zoomable 486 -->
<svg id="main" version="1.1" xmlns="http://www.w3.org/2000/svg" xmlns:xlink="http://www.w3.org/1999/xlink" xml:space="preserve" onload="init(evt)">
<style type="text/css"><![CDATA[
.edge:hover path { stroke: red; }
.edge:hover polygon { stroke: red; fill: red; }
]]></style>
<script type="text/javascript"><![CDATA[
var edges = document.getElementsByTagName('g');
if (edges && edges.length) {
  for (var i=0;i<edges.length;i++) {
    if (edges[i].id.substr(0,4)=='edge') {
      edges[i].setAttribute('class','edge');
    }
  }
}
]]></script>
        <defs>
                <circle id="rim" cx="0" cy="0" r="7"/>
                <circle id="rim2" cx="0" cy="0" r="3.5"/>
                <g id="zoomPlus">
                        <use xlink:href="#rim" fill="#404040">
                                <set attributeName="fill" to="#808080" begin="zoomplus.mouseover" end="zoomplus.mouseout"/>
                        </use>
                        <path d="M-4,0h8M0,-4v8" fill="none" stroke="white" stroke-width="1.5" pointer-events="none"/>
                </g>
                <g id="zoomMin">
                        <use xlink:href="#rim" fill="#404040">
                                <set attributeName="fill" to="#808080" begin="zoomminus.mouseover" end="zoomminus.mouseout"/>
                        </use>
                        <path d="M-4,0h8" fill="none" stroke="white" stroke-width="1.5" pointer-events="none"/>
                </g>
                <g id="dirArrow">
                        <path fill="none" stroke="white" stroke-width="1.5" d="M0,-3.0v7 M-2.5,-0.5L0,-3.0L2.5,-0.5"/>
                </g>
               <g id="resetDef">
                       <use xlink:href="#rim2" fill="#404040">
                               <set attributeName="fill" to="#808080" begin="reset.mouseover" end="reset.mouseout"/>
                       </use>
               </g>
        </defs>

<script type="text/javascript">
var viewWidth = 447;
var viewHeight = 486;
var sectionId = 'dynsection-1';
</script>
<script xlink:href="svgpan.js"/>
<svg id="graph" class="graph">
<g id="viewport">
<title>TutorialUI</title>
<polygon fill="white" stroke="transparent" points="-4,4 -4,-482 443,-482 443,4 -4,4"/>
<!-- Node1 -->
<g id="node1" class="node">
<title>Node1</title>
<g id="a_node1"><a xlink:title=" ">
<polygon fill="#bfbfbf" stroke="black" points="122,-0.5 122,-156.5 273,-156.5 273,-0.5 122,-0.5"/>
<text text-anchor="middle" x="197.5" y="-144.5" font-family="Helvetica,sans-Serif" font-size="10.00">TutorialUI</text>
<polyline fill="none" stroke="black" points="122,-137.5 273,-137.5 "/>
<text text-anchor="start" x="130" y="-125.5" font-family="Helvetica,sans-Serif" font-size="10.00">+ List&lt; string &gt; tutorialNames</text>
<text text-anchor="start" x="130" y="-114.5" font-family="Helvetica,sans-Serif" font-size="10.00">+ List&lt; string &gt; tutorialTexts</text>
<text text-anchor="start" x="130" y="-103.5" font-family="Helvetica,sans-Serif" font-size="10.00">+ List&lt; Sprite &gt; tutorialAvatars</text>
<text text-anchor="start" x="130" y="-92.5" font-family="Helvetica,sans-Serif" font-size="10.00">+ Button nextButton</text>
<text text-anchor="start" x="130" y="-81.5" font-family="Helvetica,sans-Serif" font-size="10.00">+ Button previousButton</text>
<text text-anchor="start" x="130" y="-70.5" font-family="Helvetica,sans-Serif" font-size="10.00">+ Image image</text>
<text text-anchor="start" x="130" y="-59.5" font-family="Helvetica,sans-Serif" font-size="10.00">+ int CurStage</text>
<polyline fill="none" stroke="black" points="122,-52.5 273,-52.5 "/>
<text text-anchor="start" x="130" y="-40.5" font-family="Helvetica,sans-Serif" font-size="10.00">+ void SetStage(int index)</text>
<text text-anchor="start" x="130" y="-29.5" font-family="Helvetica,sans-Serif" font-size="10.00">+ void OnNextClick()</text>
<text text-anchor="start" x="130" y="-18.5" font-family="Helvetica,sans-Serif" font-size="10.00">+ void OnPreviousButtonClick()</text>
<text text-anchor="start" x="130" y="-7.5" font-family="Helvetica,sans-Serif" font-size="10.00">+ void Quit()</text>
</a>
</g>
</g>
<!-- Node2 -->
<g id="node2" class="node">
<title>Node2</title>
<g id="a_node2"><a xlink:title=" ">
<polygon fill="white" stroke="#bfbfbf" points="0,-420.5 0,-477.5 83,-477.5 83,-420.5 0,-420.5"/>
<text text-anchor="middle" x="41.5" y="-465.5" font-family="Helvetica,sans-Serif" font-size="10.00">MonoBehaviour</text>
<polyline fill="none" stroke="#bfbfbf" points="0,-458.5 83,-458.5 "/>
<text text-anchor="middle" x="41.5" y="-446.5" font-family="Helvetica,sans-Serif" font-size="10.00"> </text>
<polyline fill="none" stroke="#bfbfbf" points="0,-439.5 83,-439.5 "/>
<text text-anchor="middle" x="41.5" y="-427.5" font-family="Helvetica,sans-Serif" font-size="10.00"> </text>
</a>
</g>
</g>
<!-- Node2&#45;&gt;Node1 -->
<g id="edge1" class="edge">
<title>Node2&#45;&gt;Node1</title>
<path fill="none" stroke="midnightblue" d="M27.94,-410.41C12.29,-360.34 -7.27,-270.35 26.5,-204 46.65,-164.4 85.96,-134.42 121.81,-113.81"/>
<polygon fill="none" stroke="midnightblue" points="24.69,-411.74 31.1,-420.17 31.35,-409.58 24.69,-411.74"/>
</g>
<!-- Node5 -->
<g id="node5" class="node">
<title>Node5</title>
<g id="a_node5"><a xlink:href="class_u_i_1_1_tutorial_1_1_tutorial_clip_u_i.html" target="_top" xlink:title=" ">
<polygon fill="white" stroke="black" points="35.5,-204.5 35.5,-382.5 201.5,-382.5 201.5,-204.5 35.5,-204.5"/>
<text text-anchor="middle" x="118.5" y="-370.5" font-family="Helvetica,sans-Serif" font-size="10.00">UI.Tutorial.TutorialClipUI</text>
<polyline fill="none" stroke="black" points="35.5,-363.5 201.5,-363.5 "/>
<text text-anchor="start" x="43.5" y="-351.5" font-family="Helvetica,sans-Serif" font-size="10.00">+ GameObject awakeGameObject</text>
<text text-anchor="start" x="43.5" y="-340.5" font-family="Helvetica,sans-Serif" font-size="10.00">+ UnityEvent tutorialStart</text>
<text text-anchor="start" x="43.5" y="-329.5" font-family="Helvetica,sans-Serif" font-size="10.00">Event</text>
<text text-anchor="start" x="43.5" y="-318.5" font-family="Helvetica,sans-Serif" font-size="10.00">+ UnityEvent clickEvent</text>
<text text-anchor="start" x="43.5" y="-307.5" font-family="Helvetica,sans-Serif" font-size="10.00">+ UnityEvent closeEvent</text>
<text text-anchor="start" x="43.5" y="-296.5" font-family="Helvetica,sans-Serif" font-size="10.00">+ int tutorialIndex</text>
<text text-anchor="start" x="43.5" y="-285.5" font-family="Helvetica,sans-Serif" font-size="10.00">+ float maxStayTime</text>
<text text-anchor="start" x="43.5" y="-274.5" font-family="Helvetica,sans-Serif" font-size="10.00">+ GameObject tutorialPanel</text>
<polyline fill="none" stroke="black" points="35.5,-267.5 201.5,-267.5 "/>
<text text-anchor="start" x="43.5" y="-255.5" font-family="Helvetica,sans-Serif" font-size="10.00">+ void OnClick()</text>
<text text-anchor="start" x="43.5" y="-244.5" font-family="Helvetica,sans-Serif" font-size="10.00">+ void ShowTutorialClip()</text>
<text text-anchor="start" x="43.5" y="-233.5" font-family="Helvetica,sans-Serif" font-size="10.00">+ void FinishTutorialClip()</text>
<text text-anchor="start" x="43.5" y="-222.5" font-family="Helvetica,sans-Serif" font-size="10.00">+ void ChangeTimeScale</text>
<text text-anchor="start" x="43.5" y="-211.5" font-family="Helvetica,sans-Serif" font-size="10.00">(float timeScale)</text>
</a>
</g>
</g>
<!-- Node2&#45;&gt;Node5 -->
<g id="edge5" class="edge">
<title>Node2&#45;&gt;Node5</title>
<path fill="none" stroke="midnightblue" d="M60.02,-411.08C64.42,-402.3 69.31,-392.56 74.33,-382.55"/>
<polygon fill="none" stroke="midnightblue" points="56.8,-409.69 55.44,-420.2 63.06,-412.83 56.8,-409.69"/>
</g>
<!-- Node3 -->
<g id="node3" class="node">
<title>Node3</title>
<g id="a_node3"><a xlink:href="class_text_u_i.html" target="_top" xlink:title=" ">
<polygon fill="white" stroke="black" points="308,-259.5 308,-327.5 439,-327.5 439,-259.5 308,-259.5"/>
<text text-anchor="middle" x="373.5" y="-315.5" font-family="Helvetica,sans-Serif" font-size="10.00">TextUI</text>
<polyline fill="none" stroke="black" points="308,-308.5 439,-308.5 "/>
<text text-anchor="middle" x="373.5" y="-296.5" font-family="Helvetica,sans-Serif" font-size="10.00"> </text>
<polyline fill="none" stroke="black" points="308,-289.5 439,-289.5 "/>
<text text-anchor="start" x="316" y="-277.5" font-family="Helvetica,sans-Serif" font-size="10.00"># override void OnPopulate</text>
<text text-anchor="start" x="316" y="-266.5" font-family="Helvetica,sans-Serif" font-size="10.00">Mesh(VertexHelper toFill)</text>
</a>
</g>
</g>
<!-- Node3&#45;&gt;Node1 -->
<g id="edge2" class="edge">
<title>Node3&#45;&gt;Node1</title>
<path fill="none" stroke="#404040" d="M346,-259.22C325.41,-234.3 296.25,-199.01 269.22,-166.3"/>
<polygon fill="none" stroke="#404040" points="268.93,-165.95 262.03,-163.87 261.29,-156.7 268.19,-158.78 268.93,-165.95"/>
<text text-anchor="middle" x="316" y="-178" font-family="Helvetica,sans-Serif" font-size="10.00"> +contentText</text>
</g>
<!-- Node4 -->
<g id="node4" class="node">
<title>Node4</title>
<g id="a_node4"><a xlink:title=" ">
<polygon fill="white" stroke="#bfbfbf" points="260,-420.5 260,-477.5 295,-477.5 295,-420.5 260,-420.5"/>
<text text-anchor="middle" x="277.5" y="-465.5" font-family="Helvetica,sans-Serif" font-size="10.00">Text</text>
<polyline fill="none" stroke="#bfbfbf" points="260,-458.5 295,-458.5 "/>
<text text-anchor="middle" x="277.5" y="-446.5" font-family="Helvetica,sans-Serif" font-size="10.00"> </text>
<polyline fill="none" stroke="#bfbfbf" points="260,-439.5 295,-439.5 "/>
<text text-anchor="middle" x="277.5" y="-427.5" font-family="Helvetica,sans-Serif" font-size="10.00"> </text>
</a>
</g>
</g>
<!-- Node4&#45;&gt;Node1 -->
<g id="edge6" class="edge">
<title>Node4&#45;&gt;Node1</title>
<path fill="none" stroke="#404040" d="M261.78,-420.33C256.07,-409.08 250.13,-395.75 246.5,-383 221.01,-293.55 240.88,-266.37 223.5,-175 223.09,-172.85 222.66,-170.67 222.2,-168.48"/>
<polygon fill="none" stroke="#404040" points="222.18,-168.38 216.99,-163.38 219.6,-156.66 224.8,-161.66 222.18,-168.38"/>
<text text-anchor="middle" x="272.5" y="-291" font-family="Helvetica,sans-Serif" font-size="10.00"> +nameText</text>
</g>
<!-- Node4&#45;&gt;Node3 -->
<g id="edge3" class="edge">
<title>Node4&#45;&gt;Node3</title>
<path fill="none" stroke="midnightblue" d="M300.28,-411.57C316.2,-386.12 337.28,-352.41 352.74,-327.7"/>
<polygon fill="none" stroke="midnightblue" points="297.22,-409.87 294.88,-420.2 303.15,-413.58 297.22,-409.87"/>
</g>
<!-- Node5&#45;&gt;Node1 -->
<g id="edge4" class="edge">
<title>Node5&#45;&gt;Node1</title>
<path fill="none" stroke="#404040" d="M148.76,-204.45C152.32,-194.49 155.95,-184.51 159.5,-175 160.38,-172.65 161.27,-170.27 162.18,-167.87"/>
<polygon fill="none" stroke="#404040" points="162.23,-167.74 160.64,-160.71 166.52,-156.53 168.11,-163.56 162.23,-167.74"/>
<text text-anchor="middle" x="191.5" y="-178" font-family="Helvetica,sans-Serif" font-size="10.00"> +tutorialClipUI</text>
</g>
</g>
</svg>
        <g id="navigator" transform="translate(0 0)" fill="#404254">
                <rect fill="#f2f5e9" fill-opacity="0.5" stroke="#606060" stroke-width=".5" x="0" y="0" width="60" height="60"/>
                <use id="zoomplus" xlink:href="#zoomPlus" x="17" y="9" onmousedown="handleZoom(evt,'in')"/>
                <use id="zoomminus" xlink:href="#zoomMin" x="42" y="9" onmousedown="handleZoom(evt,'out')"/>
                <use id="reset" xlink:href="#resetDef" x="30" y="36" onmousedown="handleReset()"/>
                <g id="arrowUp" xlink:href="#dirArrow" transform="translate(30 24)" onmousedown="handlePan(0,-1)">
                  <use xlink:href="#rim" fill="#404040">
                        <set attributeName="fill" to="#808080" begin="arrowUp.mouseover" end="arrowUp.mouseout"/>
                  </use>
                  <path fill="none" stroke="white" stroke-width="1.5" d="M0,-3.0v7 M-2.5,-0.5L0,-3.0L2.5,-0.5"/>
                </g>
                <g id="arrowRight" xlink:href="#dirArrow" transform="rotate(90) translate(36 -43)" onmousedown="handlePan(1,0)">
                  <use xlink:href="#rim" fill="#404040">
                        <set attributeName="fill" to="#808080" begin="arrowRight.mouseover" end="arrowRight.mouseout"/>
                  </use>
                  <path fill="none" stroke="white" stroke-width="1.5" d="M0,-3.0v7 M-2.5,-0.5L0,-3.0L2.5,-0.5"/>
                </g>
                <g id="arrowDown" xlink:href="#dirArrow" transform="rotate(180) translate(-30 -48)" onmousedown="handlePan(0,1)">
                  <use xlink:href="#rim" fill="#404040">
                        <set attributeName="fill" to="#808080" begin="arrowDown.mouseover" end="arrowDown.mouseout"/>
                  </use>
                  <path fill="none" stroke="white" stroke-width="1.5" d="M0,-3.0v7 M-2.5,-0.5L0,-3.0L2.5,-0.5"/>
                </g>
                <g id="arrowLeft" xlink:href="#dirArrow" transform="rotate(270) translate(-36 17)" onmousedown="handlePan(-1,0)">
                  <use xlink:href="#rim" fill="#404040">
                        <set attributeName="fill" to="#808080" begin="arrowLeft.mouseover" end="arrowLeft.mouseout"/>
                  </use>
                  <path fill="none" stroke="white" stroke-width="1.5" d="M0,-3.0v7 M-2.5,-0.5L0,-3.0L2.5,-0.5"/>
                </g>
        </g>
        <svg viewBox="0 0 15 15" width="100%" height="30px" preserveAspectRatio="xMaxYMin meet">
         <g id="arrow_out" transform="scale(0.3 0.3)">
          <a xlink:href="class_tutorial_u_i__coll__graph_org.svg" target="_base">
           <rect id="button" ry="5" rx="5" y="6" x="6" height="38" width="38"
                fill="#f2f5e9" fill-opacity="0.5" stroke="#606060" stroke-width="1.0"/>
           <path id="arrow"
             d="M 11.500037,31.436501 C 11.940474,20.09759 22.043105,11.32322 32.158766,21.979434 L 37.068811,17.246167 C 37.068811,17.246167 37.088388,32 37.088388,32 L 22.160133,31.978069 C 22.160133,31.978069 26.997745,27.140456 26.997745,27.140456 C 18.528582,18.264221 13.291696,25.230495 11.500037,31.436501 z"
             style="fill:#404040;"/>
          </a>
         </g>
        </svg>
</svg>
