<?xml version="1.0" encoding="UTF-8" standalone="no"?>
<!DOCTYPE svg PUBLIC "-//W3C//DTD SVG 1.1//EN"
 "http://www.w3.org/Graphics/SVG/1.1/DTD/svg11.dtd">
<!-- Generated by graphviz version 2.47.1 (20210417.1919)
 -->
<!-- Title: UI.ChineseSports.Main.QuizUI.QuizFinishUI Pages: 1 -->
<svg width="252pt" height="397pt"
 viewBox="0.00 0.00 251.50 397.00" xmlns="http://www.w3.org/2000/svg" xmlns:xlink="http://www.w3.org/1999/xlink">
<g id="graph0" class="graph" transform="scale(1 1) rotate(0) translate(4 393)">
<title>UI.ChineseSports.Main.QuizUI.QuizFinishUI</title>
<polygon fill="white" stroke="transparent" points="-4,4 -4,-393 247.5,-393 247.5,4 -4,4"/>
<!-- Node1 -->
<g id="node1" class="node">
<title>Node1</title>
<g id="a_node1"><a xlink:title=" ">
<polygon fill="#bfbfbf" stroke="black" points="0,-0.5 0,-79.5 140,-79.5 140,-0.5 0,-0.5"/>
<text text-anchor="start" x="8" y="-67.5" font-family="Helvetica,sans-Serif" font-size="10.00">UI.ChineseSports.Main.Quiz</text>
<text text-anchor="middle" x="70" y="-56.5" font-family="Helvetica,sans-Serif" font-size="10.00">UI.QuizFinishUI</text>
<polyline fill="none" stroke="black" points="0,-49.5 140,-49.5 "/>
<text text-anchor="start" x="8" y="-37.5" font-family="Helvetica,sans-Serif" font-size="10.00">+ int unlockedUnitIndex</text>
<text text-anchor="start" x="8" y="-26.5" font-family="Helvetica,sans-Serif" font-size="10.00">+ Image unitImage</text>
<polyline fill="none" stroke="black" points="0,-19.5 140,-19.5 "/>
<text text-anchor="middle" x="70" y="-7.5" font-family="Helvetica,sans-Serif" font-size="10.00"> </text>
</a>
</g>
</g>
<!-- Node2 -->
<g id="node2" class="node">
<title>Node2</title>
<g id="a_node2"><a xlink:title=" ">
<polygon fill="white" stroke="#bfbfbf" points="28.5,-331.5 28.5,-388.5 111.5,-388.5 111.5,-331.5 28.5,-331.5"/>
<text text-anchor="middle" x="70" y="-376.5" font-family="Helvetica,sans-Serif" font-size="10.00">MonoBehaviour</text>
<polyline fill="none" stroke="#bfbfbf" points="28.5,-369.5 111.5,-369.5 "/>
<text text-anchor="middle" x="70" y="-357.5" font-family="Helvetica,sans-Serif" font-size="10.00"> </text>
<polyline fill="none" stroke="#bfbfbf" points="28.5,-350.5 111.5,-350.5 "/>
<text text-anchor="middle" x="70" y="-338.5" font-family="Helvetica,sans-Serif" font-size="10.00"> </text>
</a>
</g>
</g>
<!-- Node2&#45;&gt;Node1 -->
<g id="edge1" class="edge">
<title>Node2&#45;&gt;Node1</title>
<path fill="none" stroke="midnightblue" d="M70,-321C70,-260.01 70,-140.89 70,-79.55"/>
<polygon fill="none" stroke="midnightblue" points="66.5,-321.34 70,-331.34 73.5,-321.34 66.5,-321.34"/>
</g>
<!-- Node3 -->
<g id="node3" class="node">
<title>Node3</title>
<g id="a_node3"><a xlink:href="class_u_i_1_1_chinese_sports_1_1_main_1_1_character_view_u_i.html" target="_top" xlink:title=" ">
<polygon fill="white" stroke="black" points="82.5,-127.5 82.5,-283.5 243.5,-283.5 243.5,-127.5 82.5,-127.5"/>
<text text-anchor="start" x="90.5" y="-271.5" font-family="Helvetica,sans-Serif" font-size="10.00">UI.ChineseSports.Main.Character</text>
<text text-anchor="middle" x="163" y="-260.5" font-family="Helvetica,sans-Serif" font-size="10.00">ViewUI</text>
<polyline fill="none" stroke="black" points="82.5,-253.5 243.5,-253.5 "/>
<text text-anchor="start" x="90.5" y="-241.5" font-family="Helvetica,sans-Serif" font-size="10.00">+ List&lt; Sprite &gt; character</text>
<text text-anchor="start" x="90.5" y="-230.5" font-family="Helvetica,sans-Serif" font-size="10.00">Sprites</text>
<text text-anchor="start" x="90.5" y="-219.5" font-family="Helvetica,sans-Serif" font-size="10.00">+ List&lt; String &gt; character</text>
<text text-anchor="start" x="90.5" y="-208.5" font-family="Helvetica,sans-Serif" font-size="10.00">Descriptions</text>
<text text-anchor="start" x="90.5" y="-197.5" font-family="Helvetica,sans-Serif" font-size="10.00">+ List&lt; Unit &gt; militaryUnits</text>
<text text-anchor="start" x="90.5" y="-186.5" font-family="Helvetica,sans-Serif" font-size="10.00">+ List&lt; PropertyLine</text>
<text text-anchor="start" x="90.5" y="-175.5" font-family="Helvetica,sans-Serif" font-size="10.00"> &gt; propertyLines</text>
<text text-anchor="start" x="90.5" y="-164.5" font-family="Helvetica,sans-Serif" font-size="10.00">+ Image characterAvater</text>
<text text-anchor="start" x="90.5" y="-153.5" font-family="Helvetica,sans-Serif" font-size="10.00">+ int CurCharacterSpriteIndex</text>
<polyline fill="none" stroke="black" points="82.5,-146.5 243.5,-146.5 "/>
<text text-anchor="start" x="90.5" y="-134.5" font-family="Helvetica,sans-Serif" font-size="10.00">+ void Set(int index)</text>
</a>
</g>
</g>
<!-- Node2&#45;&gt;Node3 -->
<g id="edge3" class="edge">
<title>Node2&#45;&gt;Node3</title>
<path fill="none" stroke="midnightblue" d="M92.13,-322.71C99.35,-310.88 107.65,-297.26 115.98,-283.6"/>
<polygon fill="none" stroke="midnightblue" points="89.06,-321.02 86.84,-331.38 95.04,-324.67 89.06,-321.02"/>
</g>
<!-- Node3&#45;&gt;Node1 -->
<g id="edge2" class="edge">
<title>Node3&#45;&gt;Node1</title>
<path fill="none" stroke="#404040" d="M118.95,-127.06C111.84,-114.55 104.64,-101.9 98.04,-90.3"/>
<polygon fill="none" stroke="#404040" points="97.85,-89.96 91.41,-86.73 91.92,-79.53 98.36,-82.77 97.85,-89.96"/>
<text text-anchor="middle" x="149" y="-101" font-family="Helvetica,sans-Serif" font-size="10.00"> +characterViewUI</text>
</g>
<!-- Node4 -->
<g id="node4" class="node">
<title>Node4</title>
<g id="a_node4"><a xlink:title=" ">
<polygon fill="white" stroke="#bfbfbf" points="145.5,-331.5 145.5,-388.5 180.5,-388.5 180.5,-331.5 145.5,-331.5"/>
<text text-anchor="middle" x="163" y="-376.5" font-family="Helvetica,sans-Serif" font-size="10.00">Text</text>
<polyline fill="none" stroke="#bfbfbf" points="145.5,-369.5 180.5,-369.5 "/>
<text text-anchor="middle" x="163" y="-357.5" font-family="Helvetica,sans-Serif" font-size="10.00"> </text>
<polyline fill="none" stroke="#bfbfbf" points="145.5,-350.5 180.5,-350.5 "/>
<text text-anchor="middle" x="163" y="-338.5" font-family="Helvetica,sans-Serif" font-size="10.00"> </text>
</a>
</g>
</g>
<!-- Node4&#45;&gt;Node3 -->
<g id="edge4" class="edge">
<title>Node4&#45;&gt;Node3</title>
<path fill="none" stroke="#404040" d="M163,-331.38C163,-321.11 163,-308.81 163,-295.99"/>
<polygon fill="none" stroke="#404040" points="163,-295.6 159,-289.6 163,-283.6 167,-289.6 163,-295.6"/>
<text text-anchor="middle" x="201" y="-305" font-family="Helvetica,sans-Serif" font-size="10.00"> +descriptionText</text>
</g>
</g>
</svg>
