<?xml version="1.0" encoding="UTF-8" standalone="no"?>
<!DOCTYPE svg PUBLIC "-//W3C//DTD SVG 1.1//EN"
 "http://www.w3.org/Graphics/SVG/1.1/DTD/svg11.dtd">
<!-- Generated by graphviz version 2.47.1 (20210417.1919)
 -->
<!-- Title: Player.PlayerAI.Update Pages: 1 -->
<svg width="659pt" height="91pt"
 viewBox="0.00 0.00 659.00 91.00" xmlns="http://www.w3.org/2000/svg" xmlns:xlink="http://www.w3.org/1999/xlink">
<g id="graph0" class="graph" transform="scale(1 1) rotate(0) translate(4 87)">
<title>Player.PlayerAI.Update</title>
<polygon fill="white" stroke="transparent" points="-4,4 -4,-87 655,-87 655,4 -4,4"/>
<!-- Node1 -->
<g id="node1" class="node">
<title>Node1</title>
<g id="a_node1"><a xlink:title=" ">
<polygon fill="#bfbfbf" stroke="black" points="0,-41.5 0,-60.5 118,-60.5 118,-41.5 0,-41.5"/>
<text text-anchor="middle" x="59" y="-48.5" font-family="Helvetica,sans-Serif" font-size="10.00">Player.PlayerAI.Update</text>
</a>
</g>
</g>
<!-- Node2 -->
<g id="node2" class="node">
<title>Node2</title>
<g id="a_node2"><a xlink:href="class_player_1_1_player_a_i.html#ab3a9572e4b157a2a9117c83c5e460a8c" target="_top" xlink:title="AI决策">
<polygon fill="white" stroke="black" points="154,-41.5 154,-60.5 284,-60.5 284,-41.5 154,-41.5"/>
<text text-anchor="middle" x="219" y="-48.5" font-family="Helvetica,sans-Serif" font-size="10.00">Player.PlayerAI.AIGaming</text>
</a>
</g>
</g>
<!-- Node1&#45;&gt;Node2 -->
<g id="edge1" class="edge">
<title>Node1&#45;&gt;Node2</title>
<path fill="none" stroke="midnightblue" d="M118.38,-51C126.57,-51 135.08,-51 143.51,-51"/>
<polygon fill="midnightblue" stroke="midnightblue" points="143.74,-54.5 153.74,-51 143.74,-47.5 143.74,-54.5"/>
</g>
<!-- Node3 -->
<g id="node3" class="node">
<title>Node3</title>
<g id="a_node3"><a xlink:href="class_player_1_1_player_a_i.html#ac772b0dc62609d2aecd2718277612b86" target="_top" xlink:title="路危险权重决策">
<polygon fill="white" stroke="black" points="320,-63.5 320,-82.5 463,-82.5 463,-63.5 320,-63.5"/>
<text text-anchor="middle" x="391.5" y="-70.5" font-family="Helvetica,sans-Serif" font-size="10.00">Player.PlayerAI.CountEnemy</text>
</a>
</g>
</g>
<!-- Node2&#45;&gt;Node3 -->
<g id="edge2" class="edge">
<title>Node2&#45;&gt;Node3</title>
<path fill="none" stroke="midnightblue" d="M284.46,-59.32C292.8,-60.39 301.42,-61.51 309.97,-62.61"/>
<polygon fill="midnightblue" stroke="midnightblue" points="309.6,-66.09 319.96,-63.9 310.49,-59.15 309.6,-66.09"/>
</g>
<!-- Node4 -->
<g id="node4" class="node">
<title>Node4</title>
<g id="a_node4"><a xlink:href="class_player_1_1_player_a_i.html#ab8e53c5b988195ceea6001484ae26869" target="_top" xlink:title="派遣单位">
<polygon fill="white" stroke="black" points="329,-14 329,-44 454,-44 454,-14 329,-14"/>
<text text-anchor="start" x="337" y="-32" font-family="Helvetica,sans-Serif" font-size="10.00">Player.PlayerAI.Dispatch</text>
<text text-anchor="middle" x="391.5" y="-21" font-family="Helvetica,sans-Serif" font-size="10.00">Units</text>
</a>
</g>
</g>
<!-- Node2&#45;&gt;Node4 -->
<g id="edge3" class="edge">
<title>Node2&#45;&gt;Node4</title>
<path fill="none" stroke="midnightblue" d="M284.46,-42.68C295.69,-41.23 307.44,-39.72 318.85,-38.25"/>
<polygon fill="midnightblue" stroke="midnightblue" points="319.3,-41.72 328.77,-36.97 318.4,-34.77 319.3,-41.72"/>
</g>
<!-- Node5 -->
<g id="node5" class="node">
<title>Node5</title>
<g id="a_node5"><a xlink:href="class_player_1_1_player.html#a5dc06c6cb394474907fbcde1ed4c5e93" target="_top" xlink:title="增减资源">
<polygon fill="white" stroke="black" points="499,-38.5 499,-57.5 651,-57.5 651,-38.5 499,-38.5"/>
<text text-anchor="middle" x="575" y="-45.5" font-family="Helvetica,sans-Serif" font-size="10.00">Player.Player.ChangeResource</text>
</a>
</g>
</g>
<!-- Node4&#45;&gt;Node5 -->
<g id="edge4" class="edge">
<title>Node4&#45;&gt;Node5</title>
<path fill="none" stroke="midnightblue" d="M454.2,-35.46C465.33,-36.62 477.11,-37.86 488.77,-39.08"/>
<polygon fill="midnightblue" stroke="midnightblue" points="488.65,-42.58 498.96,-40.14 489.38,-35.62 488.65,-42.58"/>
</g>
<!-- Node6 -->
<g id="node6" class="node">
<title>Node6</title>
<g id="a_node6"><a xlink:href="class_player_1_1_player.html#a7bafb34edc1a7b368ec8d554d3885e26" target="_top" xlink:title="派遣单位">
<polygon fill="white" stroke="black" points="517,-0.5 517,-19.5 633,-19.5 633,-0.5 517,-0.5"/>
<text text-anchor="middle" x="575" y="-7.5" font-family="Helvetica,sans-Serif" font-size="10.00">Player.Player.SetUnits</text>
</a>
</g>
</g>
<!-- Node4&#45;&gt;Node6 -->
<g id="edge5" class="edge">
<title>Node4&#45;&gt;Node6</title>
<path fill="none" stroke="midnightblue" d="M454.2,-22.54C471.12,-20.77 489.56,-18.84 506.77,-17.04"/>
<polygon fill="midnightblue" stroke="midnightblue" points="507.17,-20.52 516.75,-15.99 506.44,-13.55 507.17,-20.52"/>
</g>
</g>
</svg>
