<?xml version="1.0" encoding="UTF-8" standalone="no"?>
<!DOCTYPE svg PUBLIC "-//W3C//DTD SVG 1.1//EN"
 "http://www.w3.org/Graphics/SVG/1.1/DTD/svg11.dtd">
<!-- Generated by graphviz version 2.47.1 (20210417.1919)
 -->
<!-- Title: UI.ChineseSports.Main.QuizUI.QuizUIManager Pages: 1 -->
<svg width="442pt" height="860pt"
 viewBox="0.00 0.00 441.50 860.00" xmlns="http://www.w3.org/2000/svg" xmlns:xlink="http://www.w3.org/1999/xlink">
<g id="graph0" class="graph" transform="scale(1 1) rotate(0) translate(4 856)">
<title>UI.ChineseSports.Main.QuizUI.QuizUIManager</title>
<polygon fill="white" stroke="transparent" points="-4,4 -4,-856 437.5,-856 437.5,4 -4,4"/>
<!-- Node1 -->
<g id="node1" class="node">
<title>Node1</title>
<g id="a_node1"><a xlink:title=" ">
<polygon fill="#bfbfbf" stroke="black" points="45.5,-204.5 45.5,-415.5 204.5,-415.5 204.5,-204.5 45.5,-204.5"/>
<text text-anchor="start" x="53.5" y="-403.5" font-family="Helvetica,sans-Serif" font-size="10.00">UI.ChineseSports.Main.Quiz</text>
<text text-anchor="middle" x="125" y="-392.5" font-family="Helvetica,sans-Serif" font-size="10.00">UI.QuizUIManager</text>
<polyline fill="none" stroke="black" points="45.5,-385.5 204.5,-385.5 "/>
<text text-anchor="start" x="53.5" y="-373.5" font-family="Helvetica,sans-Serif" font-size="10.00">+ GameObject quizConfirmPanel</text>
<text text-anchor="start" x="53.5" y="-362.5" font-family="Helvetica,sans-Serif" font-size="10.00">+ List&lt; QuizTextTypeSet</text>
<text text-anchor="start" x="53.5" y="-351.5" font-family="Helvetica,sans-Serif" font-size="10.00"> &gt; quizNumberTextList</text>
<text text-anchor="start" x="53.5" y="-340.5" font-family="Helvetica,sans-Serif" font-size="10.00">+ List&lt; GameObject &gt;</text>
<text text-anchor="start" x="53.5" y="-329.5" font-family="Helvetica,sans-Serif" font-size="10.00"> quizPackList</text>
<text text-anchor="start" x="53.5" y="-318.5" font-family="Helvetica,sans-Serif" font-size="10.00">+ List&lt; ItemUI &gt; ItemUis</text>
<polyline fill="none" stroke="black" points="45.5,-311.5 204.5,-311.5 "/>
<text text-anchor="start" x="53.5" y="-299.5" font-family="Helvetica,sans-Serif" font-size="10.00">+ void ShowQuiz(Quiz</text>
<text text-anchor="start" x="53.5" y="-288.5" font-family="Helvetica,sans-Serif" font-size="10.00"> quiz)</text>
<text text-anchor="start" x="53.5" y="-277.5" font-family="Helvetica,sans-Serif" font-size="10.00">+ void EnterQuiz()</text>
<text text-anchor="start" x="53.5" y="-266.5" font-family="Helvetica,sans-Serif" font-size="10.00">+ void Next(bool result)</text>
<text text-anchor="start" x="53.5" y="-255.5" font-family="Helvetica,sans-Serif" font-size="10.00">+ void EnterQuizConfirm</text>
<text text-anchor="start" x="53.5" y="-244.5" font-family="Helvetica,sans-Serif" font-size="10.00">(int unitIndex)</text>
<text text-anchor="start" x="53.5" y="-233.5" font-family="Helvetica,sans-Serif" font-size="10.00">+ void QuitQuizConfirm()</text>
<text text-anchor="start" x="53.5" y="-222.5" font-family="Helvetica,sans-Serif" font-size="10.00">+ void Close()</text>
<text text-anchor="start" x="53.5" y="-211.5" font-family="Helvetica,sans-Serif" font-size="10.00">+ void CloseFinishPanel()</text>
</a>
</g>
</g>
<!-- Node6 -->
<g id="node6" class="node">
<title>Node6</title>
<g id="a_node6"><a xlink:href="class_u_i_1_1_chinese_sports_1_1_main_1_1_quiz_u_i_1_1_quiz_show_u_i.html" target="_top" xlink:title=" ">
<polygon fill="white" stroke="black" points="129.5,-0.5 129.5,-156.5 280.5,-156.5 280.5,-0.5 129.5,-0.5"/>
<text text-anchor="start" x="137.5" y="-144.5" font-family="Helvetica,sans-Serif" font-size="10.00">UI.ChineseSports.Main.Quiz</text>
<text text-anchor="middle" x="205" y="-133.5" font-family="Helvetica,sans-Serif" font-size="10.00">UI.QuizShowUI</text>
<polyline fill="none" stroke="black" points="129.5,-126.5 280.5,-126.5 "/>
<text text-anchor="start" x="137.5" y="-114.5" font-family="Helvetica,sans-Serif" font-size="10.00">+ List&lt; GameObject &gt;</text>
<text text-anchor="start" x="137.5" y="-103.5" font-family="Helvetica,sans-Serif" font-size="10.00"> quizOptionsButtons</text>
<text text-anchor="start" x="137.5" y="-92.5" font-family="Helvetica,sans-Serif" font-size="10.00">+ GameObject ansResultTrue</text>
<text text-anchor="start" x="137.5" y="-81.5" font-family="Helvetica,sans-Serif" font-size="10.00">+ GameObject ansResultFalse</text>
<text text-anchor="start" x="137.5" y="-70.5" font-family="Helvetica,sans-Serif" font-size="10.00">+ GameObject ansButton</text>
<polyline fill="none" stroke="black" points="129.5,-63.5 280.5,-63.5 "/>
<text text-anchor="start" x="137.5" y="-51.5" font-family="Helvetica,sans-Serif" font-size="10.00">+ void ShowQuiz()</text>
<text text-anchor="start" x="137.5" y="-40.5" font-family="Helvetica,sans-Serif" font-size="10.00">+ void SelectOption(int</text>
<text text-anchor="start" x="137.5" y="-29.5" font-family="Helvetica,sans-Serif" font-size="10.00"> index)</text>
<text text-anchor="start" x="137.5" y="-18.5" font-family="Helvetica,sans-Serif" font-size="10.00">+ void Answer()</text>
<text text-anchor="start" x="137.5" y="-7.5" font-family="Helvetica,sans-Serif" font-size="10.00">+ void Next()</text>
</a>
</g>
</g>
<!-- Node1&#45;&gt;Node6 -->
<g id="edge11" class="edge">
<title>Node1&#45;&gt;Node6</title>
<path fill="none" stroke="#404040" d="M176.36,-204.33C178.74,-198.19 180.98,-192.05 183,-186 184.91,-180.27 186.69,-174.31 188.34,-168.27"/>
<polygon fill="none" stroke="#404040" points="188.36,-168.2 185.98,-161.39 191.35,-156.58 193.72,-163.38 188.36,-168.2"/>
<text text-anchor="middle" x="222" y="-178" font-family="Helvetica,sans-Serif" font-size="10.00"> +quizUIManager</text>
</g>
<!-- Node2 -->
<g id="node2" class="node">
<title>Node2</title>
<g id="a_node2"><a xlink:title=" ">
<polygon fill="white" stroke="#bfbfbf" points="15.5,-794.5 15.5,-851.5 98.5,-851.5 98.5,-794.5 15.5,-794.5"/>
<text text-anchor="middle" x="57" y="-839.5" font-family="Helvetica,sans-Serif" font-size="10.00">MonoBehaviour</text>
<polyline fill="none" stroke="#bfbfbf" points="15.5,-832.5 98.5,-832.5 "/>
<text text-anchor="middle" x="57" y="-820.5" font-family="Helvetica,sans-Serif" font-size="10.00"> </text>
<polyline fill="none" stroke="#bfbfbf" points="15.5,-813.5 98.5,-813.5 "/>
<text text-anchor="middle" x="57" y="-801.5" font-family="Helvetica,sans-Serif" font-size="10.00"> </text>
</a>
</g>
</g>
<!-- Node2&#45;&gt;Node1 -->
<g id="edge1" class="edge">
<title>Node2&#45;&gt;Node1</title>
<path fill="none" stroke="midnightblue" d="M51.87,-784.17C44.05,-718.11 32.48,-577.85 57,-463 60.35,-447.31 65.44,-431.28 71.37,-415.79"/>
<polygon fill="none" stroke="midnightblue" points="48.4,-784.61 53.09,-794.11 55.35,-783.76 48.4,-784.61"/>
</g>
<!-- Node3 -->
<g id="node3" class="node">
<title>Node3</title>
<g id="a_node3"><a xlink:href="class_u_i_1_1_chinese_sports_1_1_main_1_1_quiz_u_i_1_1_quiz_finish_u_i.html" target="_top" xlink:title=" ">
<polygon fill="white" stroke="black" points="66,-463.5 66,-542.5 206,-542.5 206,-463.5 66,-463.5"/>
<text text-anchor="start" x="74" y="-530.5" font-family="Helvetica,sans-Serif" font-size="10.00">UI.ChineseSports.Main.Quiz</text>
<text text-anchor="middle" x="136" y="-519.5" font-family="Helvetica,sans-Serif" font-size="10.00">UI.QuizFinishUI</text>
<polyline fill="none" stroke="black" points="66,-512.5 206,-512.5 "/>
<text text-anchor="start" x="74" y="-500.5" font-family="Helvetica,sans-Serif" font-size="10.00">+ int unlockedUnitIndex</text>
<text text-anchor="start" x="74" y="-489.5" font-family="Helvetica,sans-Serif" font-size="10.00">+ Image unitImage</text>
<polyline fill="none" stroke="black" points="66,-482.5 206,-482.5 "/>
<text text-anchor="middle" x="136" y="-470.5" font-family="Helvetica,sans-Serif" font-size="10.00"> </text>
</a>
</g>
</g>
<!-- Node2&#45;&gt;Node3 -->
<g id="edge3" class="edge">
<title>Node2&#45;&gt;Node3</title>
<path fill="none" stroke="midnightblue" d="M59.91,-784.04C64.22,-737.46 74.17,-656.49 95,-590 99.99,-574.06 107.43,-557.31 114.6,-542.87"/>
<polygon fill="none" stroke="midnightblue" points="56.4,-784 59,-794.27 63.37,-784.62 56.4,-784"/>
</g>
<!-- Node4 -->
<g id="node4" class="node">
<title>Node4</title>
<g id="a_node4"><a xlink:href="class_u_i_1_1_chinese_sports_1_1_main_1_1_character_view_u_i.html" target="_top" xlink:title=" ">
<polygon fill="white" stroke="black" points="104.5,-590.5 104.5,-746.5 265.5,-746.5 265.5,-590.5 104.5,-590.5"/>
<text text-anchor="start" x="112.5" y="-734.5" font-family="Helvetica,sans-Serif" font-size="10.00">UI.ChineseSports.Main.Character</text>
<text text-anchor="middle" x="185" y="-723.5" font-family="Helvetica,sans-Serif" font-size="10.00">ViewUI</text>
<polyline fill="none" stroke="black" points="104.5,-716.5 265.5,-716.5 "/>
<text text-anchor="start" x="112.5" y="-704.5" font-family="Helvetica,sans-Serif" font-size="10.00">+ List&lt; Sprite &gt; character</text>
<text text-anchor="start" x="112.5" y="-693.5" font-family="Helvetica,sans-Serif" font-size="10.00">Sprites</text>
<text text-anchor="start" x="112.5" y="-682.5" font-family="Helvetica,sans-Serif" font-size="10.00">+ List&lt; String &gt; character</text>
<text text-anchor="start" x="112.5" y="-671.5" font-family="Helvetica,sans-Serif" font-size="10.00">Descriptions</text>
<text text-anchor="start" x="112.5" y="-660.5" font-family="Helvetica,sans-Serif" font-size="10.00">+ List&lt; Unit &gt; militaryUnits</text>
<text text-anchor="start" x="112.5" y="-649.5" font-family="Helvetica,sans-Serif" font-size="10.00">+ List&lt; PropertyLine</text>
<text text-anchor="start" x="112.5" y="-638.5" font-family="Helvetica,sans-Serif" font-size="10.00"> &gt; propertyLines</text>
<text text-anchor="start" x="112.5" y="-627.5" font-family="Helvetica,sans-Serif" font-size="10.00">+ Image characterAvater</text>
<text text-anchor="start" x="112.5" y="-616.5" font-family="Helvetica,sans-Serif" font-size="10.00">+ int CurCharacterSpriteIndex</text>
<polyline fill="none" stroke="black" points="104.5,-609.5 265.5,-609.5 "/>
<text text-anchor="start" x="112.5" y="-597.5" font-family="Helvetica,sans-Serif" font-size="10.00">+ void Set(int index)</text>
</a>
</g>
</g>
<!-- Node2&#45;&gt;Node4 -->
<g id="edge5" class="edge">
<title>Node2&#45;&gt;Node4</title>
<path fill="none" stroke="midnightblue" d="M86.88,-786.41C96.94,-774.41 108.6,-760.52 120.29,-746.6"/>
<polygon fill="none" stroke="midnightblue" points="83.93,-784.47 80.18,-794.38 89.29,-788.97 83.93,-784.47"/>
</g>
<!-- Node2&#45;&gt;Node6 -->
<g id="edge8" class="edge">
<title>Node2&#45;&gt;Node6</title>
<path fill="none" stroke="midnightblue" d="M35.03,-785.64C18.98,-755.6 0,-711.25 0,-669.5 0,-669.5 0,-669.5 0,-309 0,-259.67 6.81,-243.77 36,-204 60.58,-170.51 96.78,-142.15 129.38,-121.01"/>
<polygon fill="none" stroke="midnightblue" points="32.01,-787.41 39.9,-794.49 38.15,-784.04 32.01,-787.41"/>
</g>
<!-- Node3&#45;&gt;Node1 -->
<g id="edge2" class="edge">
<title>Node3&#45;&gt;Node1</title>
<path fill="none" stroke="#404040" d="M133.77,-463.35C133.16,-452.69 132.46,-440.55 131.73,-427.88"/>
<polygon fill="none" stroke="#404040" points="131.71,-427.58 127.38,-421.82 131.02,-415.6 135.36,-421.36 131.71,-427.58"/>
<text text-anchor="middle" x="161.5" y="-437" font-family="Helvetica,sans-Serif" font-size="10.00"> +finishPanel</text>
</g>
<!-- Node4&#45;&gt;Node3 -->
<g id="edge4" class="edge">
<title>Node4&#45;&gt;Node3</title>
<path fill="none" stroke="#404040" d="M161.79,-590.06C158.16,-577.94 154.49,-565.69 151.1,-554.38"/>
<polygon fill="none" stroke="#404040" points="150.99,-554.03 145.44,-549.43 147.55,-542.53 153.1,-547.13 150.99,-554.03"/>
<text text-anchor="middle" x="196" y="-564" font-family="Helvetica,sans-Serif" font-size="10.00"> +characterViewUI</text>
</g>
<!-- Node5 -->
<g id="node5" class="node">
<title>Node5</title>
<g id="a_node5"><a xlink:title=" ">
<polygon fill="white" stroke="#bfbfbf" points="226.5,-794.5 226.5,-851.5 261.5,-851.5 261.5,-794.5 226.5,-794.5"/>
<text text-anchor="middle" x="244" y="-839.5" font-family="Helvetica,sans-Serif" font-size="10.00">Text</text>
<polyline fill="none" stroke="#bfbfbf" points="226.5,-832.5 261.5,-832.5 "/>
<text text-anchor="middle" x="244" y="-820.5" font-family="Helvetica,sans-Serif" font-size="10.00"> </text>
<polyline fill="none" stroke="#bfbfbf" points="226.5,-813.5 261.5,-813.5 "/>
<text text-anchor="middle" x="244" y="-801.5" font-family="Helvetica,sans-Serif" font-size="10.00"> </text>
</a>
</g>
</g>
<!-- Node5&#45;&gt;Node4 -->
<g id="edge6" class="edge">
<title>Node5&#45;&gt;Node4</title>
<path fill="none" stroke="#404040" d="M226.36,-806.13C218.31,-797.92 209.39,-787.27 204,-776 201.33,-770.42 199.04,-764.52 197.06,-758.47"/>
<polygon fill="none" stroke="#404040" points="196.99,-758.22 191.48,-753.57 193.65,-746.69 199.16,-751.34 196.99,-758.22"/>
<text text-anchor="middle" x="242" y="-768" font-family="Helvetica,sans-Serif" font-size="10.00"> +descriptionText</text>
</g>
<!-- Node5&#45;&gt;Node6 -->
<g id="edge9" class="edge">
<title>Node5&#45;&gt;Node6</title>
<path fill="none" stroke="#404040" d="M261.56,-804.22C268.43,-796.23 275.68,-786.29 280,-776 298.48,-731.98 294,-717.24 294,-669.5 294,-669.5 294,-669.5 294,-309 294,-247.87 286.05,-231.62 263,-175 261.99,-172.52 260.92,-170.03 259.8,-167.53"/>
<polygon fill="none" stroke="#404040" points="259.76,-167.44 253.56,-163.75 254.59,-156.61 260.79,-160.31 259.76,-167.44"/>
<text text-anchor="middle" x="324.5" y="-506" font-family="Helvetica,sans-Serif" font-size="10.00"> +quizContent</text>
<text text-anchor="middle" x="324.5" y="-495" font-family="Helvetica,sans-Serif" font-size="10.00">+resultText</text>
</g>
<!-- Node6&#45;&gt;Node1 -->
<g id="edge7" class="edge">
<title>Node6&#45;&gt;Node1</title>
<path fill="none" stroke="#404040" d="M130.71,-156.65C127.31,-162.59 124.35,-168.72 122,-175 119.94,-180.5 118.32,-186.22 117.07,-192.06"/>
<polygon fill="none" stroke="#404040" points="117.02,-192.35 119.95,-198.94 114.99,-204.18 112.06,-197.59 117.02,-192.35"/>
<text text-anchor="middle" x="152.5" y="-178" font-family="Helvetica,sans-Serif" font-size="10.00"> +quizShowUI</text>
</g>
<!-- Node7 -->
<g id="node7" class="node">
<title>Node7</title>
<g id="a_node7"><a xlink:href="class_saver_1_1_quiz_1_1_quiz.html" target="_top" xlink:title=" ">
<polygon fill="white" stroke="black" points="322.5,-259.5 322.5,-360.5 433.5,-360.5 433.5,-259.5 322.5,-259.5"/>
<text text-anchor="middle" x="378" y="-348.5" font-family="Helvetica,sans-Serif" font-size="10.00">Saver.Quiz.Quiz</text>
<polyline fill="none" stroke="black" points="322.5,-341.5 433.5,-341.5 "/>
<text text-anchor="start" x="330.5" y="-329.5" font-family="Helvetica,sans-Serif" font-size="10.00">+ int QuizIndex</text>
<text text-anchor="start" x="330.5" y="-318.5" font-family="Helvetica,sans-Serif" font-size="10.00">+ QuizType QuizType</text>
<text text-anchor="start" x="330.5" y="-307.5" font-family="Helvetica,sans-Serif" font-size="10.00">+ string QuizContent</text>
<text text-anchor="start" x="330.5" y="-296.5" font-family="Helvetica,sans-Serif" font-size="10.00">+ List&lt; QuizOption &gt;</text>
<text text-anchor="start" x="330.5" y="-285.5" font-family="Helvetica,sans-Serif" font-size="10.00"> QuizOptions</text>
<polyline fill="none" stroke="black" points="322.5,-278.5 433.5,-278.5 "/>
<text text-anchor="middle" x="378" y="-266.5" font-family="Helvetica,sans-Serif" font-size="10.00"> </text>
</a>
</g>
</g>
<!-- Node7&#45;&gt;Node6 -->
<g id="edge10" class="edge">
<title>Node7&#45;&gt;Node6</title>
<path fill="none" stroke="#404040" d="M357.12,-259.49C344.8,-233.11 327.76,-200.86 308,-175 302.28,-167.51 295.93,-160.1 289.28,-152.92"/>
<polygon fill="none" stroke="#404040" points="289.01,-152.63 281.98,-151.06 280.72,-143.96 287.76,-145.53 289.01,-152.63"/>
<text text-anchor="middle" x="329" y="-178" font-family="Helvetica,sans-Serif" font-size="10.00"> +quiz</text>
</g>
</g>
</svg>
