<?xml version="1.0" encoding="UTF-8" standalone="no"?>
<!DOCTYPE svg PUBLIC "-//W3C//DTD SVG 1.1//EN"
 "http://www.w3.org/Graphics/SVG/1.1/DTD/svg11.dtd">
<!-- Generated by graphviz version 2.47.1 (20210417.1919)
 -->
<!-- Title: Video.VideoPlayerManager Pages: 1 -->
<svg width="142pt" height="215pt"
 viewBox="0.00 0.00 142.00 215.00" xmlns="http://www.w3.org/2000/svg" xmlns:xlink="http://www.w3.org/1999/xlink">
<g id="graph0" class="graph" transform="scale(1 1) rotate(0) translate(4 211)">
<title>Video.VideoPlayerManager</title>
<polygon fill="white" stroke="transparent" points="-4,4 -4,-211 138,-211 138,4 -4,4"/>
<!-- Node1 -->
<g id="node1" class="node">
<title>Node1</title>
<g id="a_node1"><a xlink:title="视频播放管理">
<polygon fill="#bfbfbf" stroke="black" points="0,-0.5 0,-112.5 134,-112.5 134,-0.5 0,-0.5"/>
<text text-anchor="middle" x="67" y="-100.5" font-family="Helvetica,sans-Serif" font-size="10.00">Video.VideoPlayerManager</text>
<polyline fill="none" stroke="black" points="0,-93.5 134,-93.5 "/>
<text text-anchor="start" x="8" y="-81.5" font-family="Helvetica,sans-Serif" font-size="10.00">+ VideoPlayer videoPlayer</text>
<text text-anchor="start" x="8" y="-70.5" font-family="Helvetica,sans-Serif" font-size="10.00">+ RawImage rawImage</text>
<text text-anchor="start" x="8" y="-59.5" font-family="Helvetica,sans-Serif" font-size="10.00">+ ResultUI resultUI</text>
<text text-anchor="start" x="8" y="-48.5" font-family="Helvetica,sans-Serif" font-size="10.00">+ string videoClipName</text>
<polyline fill="none" stroke="black" points="0,-41.5 134,-41.5 "/>
<text text-anchor="start" x="8" y="-29.5" font-family="Helvetica,sans-Serif" font-size="10.00">+ void Play()</text>
<text text-anchor="start" x="8" y="-18.5" font-family="Helvetica,sans-Serif" font-size="10.00">+ void Pause()</text>
<text text-anchor="start" x="8" y="-7.5" font-family="Helvetica,sans-Serif" font-size="10.00">+ void Stop()</text>
</a>
</g>
</g>
<!-- Node2 -->
<g id="node2" class="node">
<title>Node2</title>
<g id="a_node2"><a xlink:title=" ">
<polygon fill="white" stroke="#bfbfbf" points="25.5,-149.5 25.5,-206.5 108.5,-206.5 108.5,-149.5 25.5,-149.5"/>
<text text-anchor="middle" x="67" y="-194.5" font-family="Helvetica,sans-Serif" font-size="10.00">MonoBehaviour</text>
<polyline fill="none" stroke="#bfbfbf" points="25.5,-187.5 108.5,-187.5 "/>
<text text-anchor="middle" x="67" y="-175.5" font-family="Helvetica,sans-Serif" font-size="10.00"> </text>
<polyline fill="none" stroke="#bfbfbf" points="25.5,-168.5 108.5,-168.5 "/>
<text text-anchor="middle" x="67" y="-156.5" font-family="Helvetica,sans-Serif" font-size="10.00"> </text>
</a>
</g>
</g>
<!-- Node2&#45;&gt;Node1 -->
<g id="edge1" class="edge">
<title>Node2&#45;&gt;Node1</title>
<path fill="none" stroke="midnightblue" d="M67,-139.11C67,-130.75 67,-121.73 67,-112.83"/>
<polygon fill="none" stroke="midnightblue" points="63.5,-139.28 67,-149.28 70.5,-139.28 63.5,-139.28"/>
</g>
</g>
</svg>
