<?xml version="1.0" encoding="UTF-8" standalone="no"?>
<!DOCTYPE svg PUBLIC "-//W3C//DTD SVG 1.1//EN"
 "http://www.w3.org/Graphics/SVG/1.1/DTD/svg11.dtd">
<!-- Generated by graphviz version 2.47.1 (20210417.1919)
 -->
<!-- Title: Units.Farmer.Drop Pages: 1 -->
<svg width="292pt" height="66pt"
 viewBox="0.00 0.00 292.00 66.00" xmlns="http://www.w3.org/2000/svg" xmlns:xlink="http://www.w3.org/1999/xlink">
<g id="graph0" class="graph" transform="scale(1 1) rotate(0) translate(4 62)">
<title>Units.Farmer.Drop</title>
<polygon fill="white" stroke="transparent" points="-4,4 -4,-62 288,-62 288,4 -4,4"/>
<!-- Node1 -->
<g id="node1" class="node">
<title>Node1</title>
<g id="a_node1"><a xlink:title="放下资源">
<polygon fill="#bfbfbf" stroke="black" points="0,-19.5 0,-38.5 96,-38.5 96,-19.5 0,-19.5"/>
<text text-anchor="middle" x="48" y="-26.5" font-family="Helvetica,sans-Serif" font-size="10.00">Units.Farmer.Drop</text>
</a>
</g>
</g>
<!-- Node2 -->
<g id="node2" class="node">
<title>Node2</title>
<g id="a_node2"><a xlink:href="class_player_1_1_player.html#a5dc06c6cb394474907fbcde1ed4c5e93" target="_top" xlink:title="增减资源">
<polygon fill="white" stroke="black" points="132,-38.5 132,-57.5 284,-57.5 284,-38.5 132,-38.5"/>
<text text-anchor="middle" x="208" y="-45.5" font-family="Helvetica,sans-Serif" font-size="10.00">Player.Player.ChangeResource</text>
</a>
</g>
</g>
<!-- Node1&#45;&gt;Node2 -->
<g id="edge1" class="edge">
<title>Node1&#45;&gt;Node2</title>
<path fill="none" stroke="midnightblue" d="M96.41,-34.7C104.44,-35.67 113,-36.7 121.66,-37.74"/>
<polygon fill="midnightblue" stroke="midnightblue" points="121.5,-41.24 131.85,-38.96 122.34,-34.29 121.5,-41.24"/>
</g>
<!-- Node3 -->
<g id="node3" class="node">
<title>Node3</title>
<g id="a_node3"><a xlink:href="class_units_1_1_unit.html#a95ec056c0363f891ce233fa6e4125cd8" target="_top" xlink:title="前往目的地">
<polygon fill="white" stroke="black" points="166.5,-0.5 166.5,-19.5 249.5,-19.5 249.5,-0.5 166.5,-0.5"/>
<text text-anchor="middle" x="208" y="-7.5" font-family="Helvetica,sans-Serif" font-size="10.00">Units.Unit.Goto</text>
</a>
</g>
</g>
<!-- Node1&#45;&gt;Node3 -->
<g id="edge2" class="edge">
<title>Node1&#45;&gt;Node3</title>
<path fill="none" stroke="midnightblue" d="M96.41,-23.3C115.28,-21.03 137.04,-18.41 156.24,-16.1"/>
<polygon fill="midnightblue" stroke="midnightblue" points="156.8,-19.56 166.31,-14.89 155.96,-12.61 156.8,-19.56"/>
</g>
</g>
</svg>
