<?xml version="1.0" encoding="UTF-8" standalone="no"?>
<!DOCTYPE svg PUBLIC "-//W3C//DTD SVG 1.1//EN"
 "http://www.w3.org/Graphics/SVG/1.1/DTD/svg11.dtd">
<!-- Generated by graphviz version 2.47.1 (20210417.1919)
 -->
<!-- Title: UI.ScienceTree.ScienceTreeNodeUI Pages: 1 -->
<!--zoomable 707 -->
<svg id="main" version="1.1" xmlns="http://www.w3.org/2000/svg" xmlns:xlink="http://www.w3.org/1999/xlink" xml:space="preserve" onload="init(evt)">
<style type="text/css"><![CDATA[
.edge:hover path { stroke: red; }
.edge:hover polygon { stroke: red; fill: red; }
]]></style>
<script type="text/javascript"><![CDATA[
var edges = document.getElementsByTagName('g');
if (edges && edges.length) {
  for (var i=0;i<edges.length;i++) {
    if (edges[i].id.substr(0,4)=='edge') {
      edges[i].setAttribute('class','edge');
    }
  }
}
]]></script>
        <defs>
                <circle id="rim" cx="0" cy="0" r="7"/>
                <circle id="rim2" cx="0" cy="0" r="3.5"/>
                <g id="zoomPlus">
                        <use xlink:href="#rim" fill="#404040">
                                <set attributeName="fill" to="#808080" begin="zoomplus.mouseover" end="zoomplus.mouseout"/>
                        </use>
                        <path d="M-4,0h8M0,-4v8" fill="none" stroke="white" stroke-width="1.5" pointer-events="none"/>
                </g>
                <g id="zoomMin">
                        <use xlink:href="#rim" fill="#404040">
                                <set attributeName="fill" to="#808080" begin="zoomminus.mouseover" end="zoomminus.mouseout"/>
                        </use>
                        <path d="M-4,0h8" fill="none" stroke="white" stroke-width="1.5" pointer-events="none"/>
                </g>
                <g id="dirArrow">
                        <path fill="none" stroke="white" stroke-width="1.5" d="M0,-3.0v7 M-2.5,-0.5L0,-3.0L2.5,-0.5"/>
                </g>
               <g id="resetDef">
                       <use xlink:href="#rim2" fill="#404040">
                               <set attributeName="fill" to="#808080" begin="reset.mouseover" end="reset.mouseout"/>
                       </use>
               </g>
        </defs>

<script type="text/javascript">
var viewWidth = 366;
var viewHeight = 707;
var sectionId = 'dynsection-1';
</script>
<script xlink:href="svgpan.js"/>
<svg id="graph" class="graph">
<g id="viewport">
<title>UI.ScienceTree.ScienceTreeNodeUI</title>
<polygon fill="white" stroke="transparent" points="-4,4 -4,-703 361.5,-703 361.5,4 -4,4"/>
<!-- Node1 -->
<g id="node1" class="node">
<title>Node1</title>
<g id="a_node1"><a xlink:title=" ">
<polygon fill="#bfbfbf" stroke="black" points="36,-0.5 36,-90.5 176,-90.5 176,-0.5 36,-0.5"/>
<text text-anchor="start" x="44" y="-78.5" font-family="Helvetica,sans-Serif" font-size="10.00">UI.ScienceTree.ScienceTree</text>
<text text-anchor="middle" x="106" y="-67.5" font-family="Helvetica,sans-Serif" font-size="10.00">NodeUI</text>
<polyline fill="none" stroke="black" points="36,-60.5 176,-60.5 "/>
<text text-anchor="start" x="44" y="-48.5" font-family="Helvetica,sans-Serif" font-size="10.00">+ Button nodeButton</text>
<text text-anchor="start" x="44" y="-37.5" font-family="Helvetica,sans-Serif" font-size="10.00">+ ColorBlock selectedColor</text>
<polyline fill="none" stroke="black" points="36,-30.5 176,-30.5 "/>
<text text-anchor="start" x="44" y="-18.5" font-family="Helvetica,sans-Serif" font-size="10.00">+ void CheckActivatable()</text>
<text text-anchor="start" x="44" y="-7.5" font-family="Helvetica,sans-Serif" font-size="10.00">+ void OnClick()</text>
</a>
</g>
</g>
<!-- Node2 -->
<g id="node2" class="node">
<title>Node2</title>
<g id="a_node2"><a xlink:title=" ">
<polygon fill="white" stroke="#bfbfbf" points="34.5,-641.5 34.5,-698.5 117.5,-698.5 117.5,-641.5 34.5,-641.5"/>
<text text-anchor="middle" x="76" y="-686.5" font-family="Helvetica,sans-Serif" font-size="10.00">MonoBehaviour</text>
<polyline fill="none" stroke="#bfbfbf" points="34.5,-679.5 117.5,-679.5 "/>
<text text-anchor="middle" x="76" y="-667.5" font-family="Helvetica,sans-Serif" font-size="10.00"> </text>
<polyline fill="none" stroke="#bfbfbf" points="34.5,-660.5 117.5,-660.5 "/>
<text text-anchor="middle" x="76" y="-648.5" font-family="Helvetica,sans-Serif" font-size="10.00"> </text>
</a>
</g>
</g>
<!-- Node2&#45;&gt;Node1 -->
<g id="edge1" class="edge">
<title>Node2&#45;&gt;Node1</title>
<path fill="none" stroke="midnightblue" d="M42.07,-633.68C21.82,-608.83 0,-573.67 0,-537.5 0,-537.5 0,-537.5 0,-221 0,-183.16 1.1,-171.34 19,-138 28.23,-120.81 41.55,-104.51 55.01,-90.57"/>
<polygon fill="none" stroke="midnightblue" points="39.44,-635.98 48.56,-641.37 44.79,-631.47 39.44,-635.98"/>
</g>
<!-- Node3 -->
<g id="node3" class="node">
<title>Node3</title>
<g id="a_node3"><a xlink:href="class_gameplay_1_1_science_tree_1_1_science_tree_node.html" target="_top" xlink:title="科技树节点">
<polygon fill="white" stroke="black" points="28,-138.5 28,-305.5 184,-305.5 184,-138.5 28,-138.5"/>
<text text-anchor="start" x="36" y="-293.5" font-family="Helvetica,sans-Serif" font-size="10.00">Gameplay.ScienceTree.Science</text>
<text text-anchor="middle" x="106" y="-282.5" font-family="Helvetica,sans-Serif" font-size="10.00">TreeNode</text>
<polyline fill="none" stroke="black" points="28,-275.5 184,-275.5 "/>
<text text-anchor="start" x="36" y="-263.5" font-family="Helvetica,sans-Serif" font-size="10.00">+ List&lt; ScienceTreeNode</text>
<text text-anchor="start" x="36" y="-252.5" font-family="Helvetica,sans-Serif" font-size="10.00"> &gt; previousNodes</text>
<text text-anchor="start" x="36" y="-241.5" font-family="Helvetica,sans-Serif" font-size="10.00">+ List&lt; ScienceTreeNode</text>
<text text-anchor="start" x="36" y="-230.5" font-family="Helvetica,sans-Serif" font-size="10.00"> &gt; afterwardNodes</text>
<text text-anchor="start" x="36" y="-219.5" font-family="Helvetica,sans-Serif" font-size="10.00">+ string nodeName</text>
<text text-anchor="start" x="36" y="-208.5" font-family="Helvetica,sans-Serif" font-size="10.00">+ int woodCost</text>
<text text-anchor="start" x="36" y="-197.5" font-family="Helvetica,sans-Serif" font-size="10.00">+ int foodCost</text>
<text text-anchor="start" x="36" y="-186.5" font-family="Helvetica,sans-Serif" font-size="10.00">+ int goldCost</text>
<text text-anchor="start" x="36" y="-175.5" font-family="Helvetica,sans-Serif" font-size="10.00">+ bool isActive</text>
<polyline fill="none" stroke="black" points="28,-168.5 184,-168.5 "/>
<text text-anchor="start" x="36" y="-156.5" font-family="Helvetica,sans-Serif" font-size="10.00">+ bool IsActivatable()</text>
<text text-anchor="start" x="36" y="-145.5" font-family="Helvetica,sans-Serif" font-size="10.00">+ bool Activate()</text>
</a>
</g>
</g>
<!-- Node2&#45;&gt;Node3 -->
<g id="edge3" class="edge">
<title>Node2&#45;&gt;Node3</title>
<path fill="none" stroke="midnightblue" d="M69.79,-631.28C69.48,-628.48 69.2,-625.7 69,-623 59.94,-503.26 61.6,-471.82 79,-353 81.25,-337.6 84.2,-321.29 87.31,-305.61"/>
<polygon fill="none" stroke="midnightblue" points="66.34,-631.88 71.1,-641.35 73.28,-630.98 66.34,-631.88"/>
</g>
<!-- Node4 -->
<g id="node4" class="node">
<title>Node4</title>
<g id="a_node4"><a xlink:href="class_gameplay_1_1_science_tree_1_1_science_tree_basic.html" target="_top" xlink:title="科技树">
<polygon fill="white" stroke="black" points="88,-353.5 88,-421.5 244,-421.5 244,-353.5 88,-353.5"/>
<text text-anchor="start" x="96" y="-409.5" font-family="Helvetica,sans-Serif" font-size="10.00">Gameplay.ScienceTree.Science</text>
<text text-anchor="middle" x="166" y="-398.5" font-family="Helvetica,sans-Serif" font-size="10.00">TreeBasic</text>
<polyline fill="none" stroke="black" points="88,-391.5 244,-391.5 "/>
<text text-anchor="middle" x="166" y="-379.5" font-family="Helvetica,sans-Serif" font-size="10.00"> </text>
<polyline fill="none" stroke="black" points="88,-372.5 244,-372.5 "/>
<text text-anchor="middle" x="166" y="-360.5" font-family="Helvetica,sans-Serif" font-size="10.00"> </text>
</a>
</g>
</g>
<!-- Node2&#45;&gt;Node4 -->
<g id="edge5" class="edge">
<title>Node2&#45;&gt;Node4</title>
<path fill="none" stroke="midnightblue" d="M72.83,-631.27C70.84,-589.73 72.11,-521.85 95,-469 102.63,-451.39 115.61,-434.92 128.41,-421.52"/>
<polygon fill="none" stroke="midnightblue" points="69.35,-631.7 73.41,-641.49 76.34,-631.3 69.35,-631.7"/>
</g>
<!-- Node5 -->
<g id="node5" class="node">
<title>Node5</title>
<g id="a_node5"><a xlink:href="class_gameplay_1_1_event_system_1_1_global_event_manager.html" target="_top" xlink:title="全局事件管理">
<polygon fill="white" stroke="black" points="104.5,-469.5 104.5,-603.5 271.5,-603.5 271.5,-469.5 104.5,-469.5"/>
<text text-anchor="start" x="112.5" y="-591.5" font-family="Helvetica,sans-Serif" font-size="10.00">Gameplay.EventSystem.Global</text>
<text text-anchor="middle" x="188" y="-580.5" font-family="Helvetica,sans-Serif" font-size="10.00">EventManager</text>
<polyline fill="none" stroke="black" points="104.5,-573.5 271.5,-573.5 "/>
<text text-anchor="start" x="112.5" y="-561.5" font-family="Helvetica,sans-Serif" font-size="10.00">+ Player.Player aSide</text>
<text text-anchor="start" x="112.5" y="-550.5" font-family="Helvetica,sans-Serif" font-size="10.00">+ Player.Player bSide</text>
<text text-anchor="start" x="112.5" y="-539.5" font-family="Helvetica,sans-Serif" font-size="10.00">+ List&lt; GlobalEventArgs</text>
<text text-anchor="start" x="112.5" y="-528.5" font-family="Helvetica,sans-Serif" font-size="10.00"> &gt; globalEventArgsList</text>
<text text-anchor="start" x="112.5" y="-517.5" font-family="Helvetica,sans-Serif" font-size="10.00">+ static GlobalEventManager</text>
<text text-anchor="start" x="112.5" y="-506.5" font-family="Helvetica,sans-Serif" font-size="10.00"> GetManager</text>
<polyline fill="none" stroke="black" points="104.5,-499.5 271.5,-499.5 "/>
<text text-anchor="start" x="112.5" y="-487.5" font-family="Helvetica,sans-Serif" font-size="10.00">+ void RegisterGlobalEvent</text>
<text text-anchor="start" x="112.5" y="-476.5" font-family="Helvetica,sans-Serif" font-size="10.00">(GlobalEventArgs globalEventArgs)</text>
</a>
</g>
</g>
<!-- Node2&#45;&gt;Node5 -->
<g id="edge7" class="edge">
<title>Node2&#45;&gt;Node5</title>
<path fill="none" stroke="midnightblue" d="M106.16,-633.59C114.03,-624.34 122.79,-614.07 131.56,-603.77"/>
<polygon fill="none" stroke="midnightblue" points="103.3,-631.55 99.48,-641.43 108.63,-636.09 103.3,-631.55"/>
</g>
<!-- Node6 -->
<g id="node6" class="node">
<title>Node6</title>
<g id="a_node6"><a xlink:href="class_u_i_1_1_science_tree_1_1_science_tree_u_i.html" target="_top" xlink:title=" ">
<polygon fill="white" stroke="black" points="202.5,-188 202.5,-256 357.5,-256 357.5,-188 202.5,-188"/>
<text text-anchor="middle" x="280" y="-244" font-family="Helvetica,sans-Serif" font-size="10.00">UI.ScienceTree.ScienceTreeUI</text>
<polyline fill="none" stroke="black" points="202.5,-237 357.5,-237 "/>
<text text-anchor="middle" x="280" y="-225" font-family="Helvetica,sans-Serif" font-size="10.00"> </text>
<polyline fill="none" stroke="black" points="202.5,-218 357.5,-218 "/>
<text text-anchor="start" x="210.5" y="-206" font-family="Helvetica,sans-Serif" font-size="10.00">+ ScienceTreeNodeUI FindNode</text>
<text text-anchor="start" x="210.5" y="-195" font-family="Helvetica,sans-Serif" font-size="10.00">UI(ScienceTreeNode node)</text>
</a>
</g>
</g>
<!-- Node2&#45;&gt;Node6 -->
<g id="edge9" class="edge">
<title>Node2&#45;&gt;Node6</title>
<path fill="none" stroke="midnightblue" d="M128.12,-668.46C176.38,-664.86 245.84,-651.11 281,-604 359.53,-498.78 315.68,-327.66 292.01,-256.1"/>
<polygon fill="none" stroke="midnightblue" points="127.62,-664.99 117.86,-669.1 128.06,-671.97 127.62,-664.99"/>
</g>
<!-- Node3&#45;&gt;Node1 -->
<g id="edge2" class="edge">
<title>Node3&#45;&gt;Node1</title>
<path fill="none" stroke="#404040" d="M106,-138.35C106,-126.44 106,-114.43 106,-103.18"/>
<polygon fill="none" stroke="#404040" points="106,-102.86 102,-96.86 106,-90.86 110,-96.86 106,-102.86"/>
<text text-anchor="middle" x="148.5" y="-112" font-family="Helvetica,sans-Serif" font-size="10.00"> +scienceTreeNode</text>
</g>
<!-- Node4&#45;&gt;Node3 -->
<g id="edge4" class="edge">
<title>Node4&#45;&gt;Node3</title>
<path fill="none" stroke="#404040" d="M122.26,-353.31C117.36,-347.74 113.04,-341.6 110,-335 107.42,-329.4 105.42,-323.47 103.89,-317.38"/>
<polygon fill="none" stroke="#404040" points="103.87,-317.27 98.77,-312.18 101.51,-305.51 106.61,-310.6 103.87,-317.27"/>
<text text-anchor="middle" x="141" y="-327" font-family="Helvetica,sans-Serif" font-size="10.00"> +scienceTree</text>
</g>
<!-- Node4&#45;&gt;Node6 -->
<g id="edge10" class="edge">
<title>Node4&#45;&gt;Node6</title>
<path fill="none" stroke="#404040" d="M181.36,-353.34C186.28,-343.65 192.01,-333.19 198,-324 211.11,-303.88 227.47,-283.06 242.13,-265.58"/>
<polygon fill="none" stroke="#404040" points="242.29,-265.38 243.13,-258.22 250.06,-256.24 249.22,-263.4 242.29,-265.38"/>
<text text-anchor="middle" x="242" y="-327" font-family="Helvetica,sans-Serif" font-size="10.00"> +ScienceTreeBasic</text>
</g>
<!-- Node5&#45;&gt;Node4 -->
<g id="edge6" class="edge">
<title>Node5&#45;&gt;Node4</title>
<path fill="none" stroke="#404040" d="M178.09,-469.31C176.3,-457.35 174.48,-445.13 172.8,-433.93"/>
<polygon fill="none" stroke="#404040" points="172.76,-433.66 167.91,-428.32 170.98,-421.79 175.83,-427.14 172.76,-433.66"/>
<text text-anchor="middle" x="223.5" y="-443" font-family="Helvetica,sans-Serif" font-size="10.00"> +globalEventManager</text>
</g>
<!-- Node6&#45;&gt;Node1 -->
<g id="edge8" class="edge">
<title>Node6&#45;&gt;Node1</title>
<path fill="none" stroke="#404040" d="M258.96,-187.96C243.05,-164.43 219.78,-132.88 195,-109 191.33,-105.46 187.44,-101.98 183.43,-98.57"/>
<polygon fill="none" stroke="#404040" points="183.17,-98.36 175.99,-97.67 173.86,-90.78 181.04,-91.47 183.17,-98.36"/>
<text text-anchor="middle" x="240.5" y="-112" font-family="Helvetica,sans-Serif" font-size="10.00"> +scienceTreeUI</text>
</g>
</g>
</svg>
        <g id="navigator" transform="translate(0 0)" fill="#404254">
                <rect fill="#f2f5e9" fill-opacity="0.5" stroke="#606060" stroke-width=".5" x="0" y="0" width="60" height="60"/>
                <use id="zoomplus" xlink:href="#zoomPlus" x="17" y="9" onmousedown="handleZoom(evt,'in')"/>
                <use id="zoomminus" xlink:href="#zoomMin" x="42" y="9" onmousedown="handleZoom(evt,'out')"/>
                <use id="reset" xlink:href="#resetDef" x="30" y="36" onmousedown="handleReset()"/>
                <g id="arrowUp" xlink:href="#dirArrow" transform="translate(30 24)" onmousedown="handlePan(0,-1)">
                  <use xlink:href="#rim" fill="#404040">
                        <set attributeName="fill" to="#808080" begin="arrowUp.mouseover" end="arrowUp.mouseout"/>
                  </use>
                  <path fill="none" stroke="white" stroke-width="1.5" d="M0,-3.0v7 M-2.5,-0.5L0,-3.0L2.5,-0.5"/>
                </g>
                <g id="arrowRight" xlink:href="#dirArrow" transform="rotate(90) translate(36 -43)" onmousedown="handlePan(1,0)">
                  <use xlink:href="#rim" fill="#404040">
                        <set attributeName="fill" to="#808080" begin="arrowRight.mouseover" end="arrowRight.mouseout"/>
                  </use>
                  <path fill="none" stroke="white" stroke-width="1.5" d="M0,-3.0v7 M-2.5,-0.5L0,-3.0L2.5,-0.5"/>
                </g>
                <g id="arrowDown" xlink:href="#dirArrow" transform="rotate(180) translate(-30 -48)" onmousedown="handlePan(0,1)">
                  <use xlink:href="#rim" fill="#404040">
                        <set attributeName="fill" to="#808080" begin="arrowDown.mouseover" end="arrowDown.mouseout"/>
                  </use>
                  <path fill="none" stroke="white" stroke-width="1.5" d="M0,-3.0v7 M-2.5,-0.5L0,-3.0L2.5,-0.5"/>
                </g>
                <g id="arrowLeft" xlink:href="#dirArrow" transform="rotate(270) translate(-36 17)" onmousedown="handlePan(-1,0)">
                  <use xlink:href="#rim" fill="#404040">
                        <set attributeName="fill" to="#808080" begin="arrowLeft.mouseover" end="arrowLeft.mouseout"/>
                  </use>
                  <path fill="none" stroke="white" stroke-width="1.5" d="M0,-3.0v7 M-2.5,-0.5L0,-3.0L2.5,-0.5"/>
                </g>
        </g>
        <svg viewBox="0 0 15 15" width="100%" height="30px" preserveAspectRatio="xMaxYMin meet">
         <g id="arrow_out" transform="scale(0.3 0.3)">
          <a xlink:href="class_u_i_1_1_science_tree_1_1_science_tree_node_u_i__coll__graph_org.svg" target="_base">
           <rect id="button" ry="5" rx="5" y="6" x="6" height="38" width="38"
                fill="#f2f5e9" fill-opacity="0.5" stroke="#606060" stroke-width="1.0"/>
           <path id="arrow"
             d="M 11.500037,31.436501 C 11.940474,20.09759 22.043105,11.32322 32.158766,21.979434 L 37.068811,17.246167 C 37.068811,17.246167 37.088388,32 37.088388,32 L 22.160133,31.978069 C 22.160133,31.978069 26.997745,27.140456 26.997745,27.140456 C 18.528582,18.264221 13.291696,25.230495 11.500037,31.436501 z"
             style="fill:#404040;"/>
          </a>
         </g>
        </svg>
</svg>
