<?xml version="1.0" encoding="UTF-8" standalone="no"?>
<!DOCTYPE svg PUBLIC "-//W3C//DTD SVG 1.1//EN"
 "http://www.w3.org/Graphics/SVG/1.1/DTD/svg11.dtd">
<!-- Generated by graphviz version 2.47.1 (20210417.1919)
 -->
<!-- Title: Player.PlayerOnline_ASide Pages: 1 -->
<svg width="697pt" height="2238pt"
 viewBox="0.00 0.00 696.57 2238.00" xmlns="http://www.w3.org/2000/svg" xmlns:xlink="http://www.w3.org/1999/xlink">
<g id="graph0" class="graph" transform="scale(1 1) rotate(0) translate(4 2234)">
<title>Player.PlayerOnline_ASide</title>
<polygon fill="white" stroke="transparent" points="-4,4 -4,-2234 692.57,-2234 692.57,4 -4,4"/>
<!-- Node1 -->
<g id="node1" class="node">
<title>Node1</title>
<g id="a_node1"><a xlink:title=" ">
<polygon fill="#bfbfbf" stroke="black" points="524.07,-463.5 524.07,-619.5 673.07,-619.5 673.07,-463.5 524.07,-463.5"/>
<text text-anchor="start" x="532.07" y="-607.5" font-family="Helvetica,sans-Serif" font-size="10.00">Player.PlayerOnline</text>
<text text-anchor="middle" x="598.57" y="-596.5" font-family="Helvetica,sans-Serif" font-size="10.00">_ASide</text>
<polyline fill="none" stroke="black" points="524.07,-589.5 673.07,-589.5 "/>
<text text-anchor="middle" x="598.57" y="-577.5" font-family="Helvetica,sans-Serif" font-size="10.00"> </text>
<polyline fill="none" stroke="black" points="524.07,-570.5 673.07,-570.5 "/>
<text text-anchor="start" x="532.07" y="-558.5" font-family="Helvetica,sans-Serif" font-size="10.00">+ override void UpdateLocal</text>
<text text-anchor="start" x="532.07" y="-547.5" font-family="Helvetica,sans-Serif" font-size="10.00">PlayerProperties()</text>
<text text-anchor="start" x="532.07" y="-536.5" font-family="Helvetica,sans-Serif" font-size="10.00">+ override void AddFarmer</text>
<text text-anchor="start" x="532.07" y="-525.5" font-family="Helvetica,sans-Serif" font-size="10.00">(GameResourceType rs)</text>
<text text-anchor="start" x="532.07" y="-514.5" font-family="Helvetica,sans-Serif" font-size="10.00">+ override void SubtractFarmer</text>
<text text-anchor="start" x="532.07" y="-503.5" font-family="Helvetica,sans-Serif" font-size="10.00">(GameResourceType rs)</text>
<text text-anchor="start" x="532.07" y="-492.5" font-family="Helvetica,sans-Serif" font-size="10.00">+ override void Instantiate</text>
<text text-anchor="start" x="532.07" y="-481.5" font-family="Helvetica,sans-Serif" font-size="10.00">Unit(int chosenUnit, Road</text>
<text text-anchor="start" x="532.07" y="-470.5" font-family="Helvetica,sans-Serif" font-size="10.00"> rd, Vector3 oriPoint)</text>
</a>
</g>
</g>
<!-- Node9 -->
<g id="node9" class="node">
<title>Node9</title>
<g id="a_node9"><a xlink:href="class_network_1_1_network_player_manager.html" target="_top" xlink:title="网络玩家管理">
<polygon fill="white" stroke="black" points="386.57,-182.5 386.57,-415.5 576.57,-415.5 576.57,-182.5 386.57,-182.5"/>
<text text-anchor="middle" x="481.57" y="-403.5" font-family="Helvetica,sans-Serif" font-size="10.00">Network.NetworkPlayerManager</text>
<polyline fill="none" stroke="black" points="386.57,-396.5 576.57,-396.5 "/>
<text text-anchor="middle" x="481.57" y="-384.5" font-family="Helvetica,sans-Serif" font-size="10.00"> </text>
<polyline fill="none" stroke="black" points="386.57,-377.5 576.57,-377.5 "/>
<text text-anchor="start" x="394.57" y="-365.5" font-family="Helvetica,sans-Serif" font-size="10.00">+ override void OnPlayerProperties</text>
<text text-anchor="start" x="394.57" y="-354.5" font-family="Helvetica,sans-Serif" font-size="10.00">Update(Photon.Realtime.Player</text>
<text text-anchor="start" x="394.57" y="-343.5" font-family="Helvetica,sans-Serif" font-size="10.00"> targetPlayer, Hashtable changedProps)</text>
<text text-anchor="start" x="394.57" y="-332.5" font-family="Helvetica,sans-Serif" font-size="10.00">+ void SendAddFarmer</text>
<text text-anchor="start" x="394.57" y="-321.5" font-family="Helvetica,sans-Serif" font-size="10.00">(GameResourceType rs)</text>
<text text-anchor="start" x="394.57" y="-310.5" font-family="Helvetica,sans-Serif" font-size="10.00">+ void RPC_AddFarmer</text>
<text text-anchor="start" x="394.57" y="-299.5" font-family="Helvetica,sans-Serif" font-size="10.00">(GameResourceType rs)</text>
<text text-anchor="start" x="394.57" y="-288.5" font-family="Helvetica,sans-Serif" font-size="10.00">+ void SendSubtractFarmer</text>
<text text-anchor="start" x="394.57" y="-277.5" font-family="Helvetica,sans-Serif" font-size="10.00">(GameResourceType rs)</text>
<text text-anchor="start" x="394.57" y="-266.5" font-family="Helvetica,sans-Serif" font-size="10.00">+ void RPC_SubtractFarmer</text>
<text text-anchor="start" x="394.57" y="-255.5" font-family="Helvetica,sans-Serif" font-size="10.00">(GameResourceType rs)</text>
<text text-anchor="start" x="394.57" y="-244.5" font-family="Helvetica,sans-Serif" font-size="10.00">+ void SendInstantiateUnit</text>
<text text-anchor="start" x="394.57" y="-233.5" font-family="Helvetica,sans-Serif" font-size="10.00">(int chosenUnit, Road rd,</text>
<text text-anchor="start" x="394.57" y="-222.5" font-family="Helvetica,sans-Serif" font-size="10.00"> Vector3 oriPoint)</text>
<text text-anchor="start" x="394.57" y="-211.5" font-family="Helvetica,sans-Serif" font-size="10.00">+ void RPC_SendInstantiate</text>
<text text-anchor="start" x="394.57" y="-200.5" font-family="Helvetica,sans-Serif" font-size="10.00">Unit(int chosenUnit, Road</text>
<text text-anchor="start" x="394.57" y="-189.5" font-family="Helvetica,sans-Serif" font-size="10.00"> rd, Vector3 oriPoint)</text>
</a>
</g>
</g>
<!-- Node1&#45;&gt;Node9 -->
<g id="edge15" class="edge">
<title>Node1&#45;&gt;Node9</title>
<path fill="none" stroke="#404040" d="M523.75,-469.06C521.03,-466.97 518.3,-464.94 515.57,-463 501.64,-453.08 490.39,-459.65 481.57,-445 478.24,-439.48 475.59,-433.62 473.49,-427.53"/>
<polygon fill="none" stroke="#404040" points="473.38,-427.14 467.91,-422.44 470.13,-415.58 475.61,-420.28 473.38,-427.14"/>
<text text-anchor="middle" x="526.57" y="-437" font-family="Helvetica,sans-Serif" font-size="10.00"> +playerASideOnline</text>
</g>
<!-- Node2 -->
<g id="node2" class="node">
<title>Node2</title>
<g id="a_node2"><a xlink:href="class_player_1_1_player.html" target="_top" xlink:title="玩家">
<polygon fill="white" stroke="black" points="306.57,-657.5 306.57,-1319.5 506.57,-1319.5 506.57,-657.5 306.57,-657.5"/>
<text text-anchor="middle" x="406.57" y="-1307.5" font-family="Helvetica,sans-Serif" font-size="10.00">Player</text>
<polyline fill="none" stroke="black" points="306.57,-1300.5 506.57,-1300.5 "/>
<text text-anchor="start" x="314.57" y="-1288.5" font-family="Helvetica,sans-Serif" font-size="10.00">+ UnityEvent playerDeadEvent</text>
<text text-anchor="start" x="314.57" y="-1277.5" font-family="Helvetica,sans-Serif" font-size="10.00">+ UnityAction updateEventHandler</text>
<text text-anchor="start" x="314.57" y="-1266.5" font-family="Helvetica,sans-Serif" font-size="10.00">+ bool enableFarmer</text>
<text text-anchor="start" x="314.57" y="-1255.5" font-family="Helvetica,sans-Serif" font-size="10.00">+ Transform[] resourceTransform</text>
<text text-anchor="start" x="314.57" y="-1244.5" font-family="Helvetica,sans-Serif" font-size="10.00">+ int[] resourceProduct</text>
<text text-anchor="start" x="314.57" y="-1233.5" font-family="Helvetica,sans-Serif" font-size="10.00">+ float resourceProducingTime</text>
<text text-anchor="start" x="314.57" y="-1222.5" font-family="Helvetica,sans-Serif" font-size="10.00">+ bool isEnemy</text>
<text text-anchor="start" x="314.57" y="-1211.5" font-family="Helvetica,sans-Serif" font-size="10.00">+ int[] availableUnits</text>
<text text-anchor="start" x="314.57" y="-1200.5" font-family="Helvetica,sans-Serif" font-size="10.00">+ List&lt; Unit &gt; UnitsList</text>
<text text-anchor="start" x="314.57" y="-1189.5" font-family="Helvetica,sans-Serif" font-size="10.00">+ int HP</text>
<text text-anchor="start" x="314.57" y="-1178.5" font-family="Helvetica,sans-Serif" font-size="10.00">+ int Food</text>
<text text-anchor="start" x="314.57" y="-1167.5" font-family="Helvetica,sans-Serif" font-size="10.00">+ int Wood</text>
<text text-anchor="start" x="314.57" y="-1156.5" font-family="Helvetica,sans-Serif" font-size="10.00">+ int Gold</text>
<text text-anchor="start" x="314.57" y="-1145.5" font-family="Helvetica,sans-Serif" font-size="10.00">+ Transform Top</text>
<text text-anchor="start" x="314.57" y="-1134.5" font-family="Helvetica,sans-Serif" font-size="10.00">+ Transform Mid</text>
<text text-anchor="start" x="314.57" y="-1123.5" font-family="Helvetica,sans-Serif" font-size="10.00">+ Transform Bot</text>
<text text-anchor="start" x="314.57" y="-1112.5" font-family="Helvetica,sans-Serif" font-size="10.00">+ int MaxFarmerNumber</text>
<text text-anchor="start" x="314.57" y="-1101.5" font-family="Helvetica,sans-Serif" font-size="10.00">+ int FarmerCount</text>
<text text-anchor="start" x="314.57" y="-1090.5" font-family="Helvetica,sans-Serif" font-size="10.00">+ int DispatchableFarmer</text>
<text text-anchor="start" x="314.57" y="-1079.5" font-family="Helvetica,sans-Serif" font-size="10.00">+ int[] RoadFarmers</text>
<text text-anchor="start" x="314.57" y="-1068.5" font-family="Helvetica,sans-Serif" font-size="10.00">+ int[] RoadWorkingFarmers</text>
<polyline fill="none" stroke="black" points="306.57,-1061.5 506.57,-1061.5 "/>
<text text-anchor="start" x="314.57" y="-1049.5" font-family="Helvetica,sans-Serif" font-size="10.00">+ virtual void UpdateLocal</text>
<text text-anchor="start" x="314.57" y="-1038.5" font-family="Helvetica,sans-Serif" font-size="10.00">PlayerProperties()</text>
<text text-anchor="start" x="314.57" y="-1027.5" font-family="Helvetica,sans-Serif" font-size="10.00">+ virtual void ChangeResource</text>
<text text-anchor="start" x="314.57" y="-1016.5" font-family="Helvetica,sans-Serif" font-size="10.00">(GameResourceType gameResourceType,</text>
<text text-anchor="start" x="314.57" y="-1005.5" font-family="Helvetica,sans-Serif" font-size="10.00"> int count)</text>
<text text-anchor="start" x="314.57" y="-994.5" font-family="Helvetica,sans-Serif" font-size="10.00">+ bool IsEnoughForUnit</text>
<text text-anchor="start" x="314.57" y="-983.5" font-family="Helvetica,sans-Serif" font-size="10.00">(Unit unit)</text>
<text text-anchor="start" x="314.57" y="-972.5" font-family="Helvetica,sans-Serif" font-size="10.00">+ bool IsEnoughForUnit</text>
<text text-anchor="start" x="314.57" y="-961.5" font-family="Helvetica,sans-Serif" font-size="10.00">(Unit unit, GameResourceType</text>
<text text-anchor="start" x="314.57" y="-950.5" font-family="Helvetica,sans-Serif" font-size="10.00"> gameResourceType)</text>
<text text-anchor="start" x="314.57" y="-939.5" font-family="Helvetica,sans-Serif" font-size="10.00">+ virtual void AddFarmer</text>
<text text-anchor="start" x="314.57" y="-928.5" font-family="Helvetica,sans-Serif" font-size="10.00">(GameResourceType rs)</text>
<text text-anchor="start" x="314.57" y="-917.5" font-family="Helvetica,sans-Serif" font-size="10.00">+ virtual void SubtractFarmer</text>
<text text-anchor="start" x="314.57" y="-906.5" font-family="Helvetica,sans-Serif" font-size="10.00">(GameResourceType rs)</text>
<text text-anchor="start" x="314.57" y="-895.5" font-family="Helvetica,sans-Serif" font-size="10.00">+ void InstantiateFarmer</text>
<text text-anchor="start" x="314.57" y="-884.5" font-family="Helvetica,sans-Serif" font-size="10.00">(Road rd, Transform transform,</text>
<text text-anchor="start" x="314.57" y="-873.5" font-family="Helvetica,sans-Serif" font-size="10.00"> int resourceCarried)</text>
<text text-anchor="start" x="314.57" y="-862.5" font-family="Helvetica,sans-Serif" font-size="10.00">+ void FarmerBack(Farmer</text>
<text text-anchor="start" x="314.57" y="-851.5" font-family="Helvetica,sans-Serif" font-size="10.00"> farmer, Transform tr)</text>
<text text-anchor="start" x="314.57" y="-840.5" font-family="Helvetica,sans-Serif" font-size="10.00">+ int CountUnits(UnitType</text>
<text text-anchor="start" x="314.57" y="-829.5" font-family="Helvetica,sans-Serif" font-size="10.00"> type)</text>
<text text-anchor="start" x="314.57" y="-818.5" font-family="Helvetica,sans-Serif" font-size="10.00">+ void SetUnits(Vector3</text>
<text text-anchor="start" x="314.57" y="-807.5" font-family="Helvetica,sans-Serif" font-size="10.00"> tr, int chosenUnit,</text>
<text text-anchor="start" x="314.57" y="-796.5" font-family="Helvetica,sans-Serif" font-size="10.00"> Road rd, int number)</text>
<text text-anchor="start" x="314.57" y="-785.5" font-family="Helvetica,sans-Serif" font-size="10.00">+ void SetUnits(Vector3</text>
<text text-anchor="start" x="314.57" y="-774.5" font-family="Helvetica,sans-Serif" font-size="10.00"> tr, int chosenUnit,</text>
<text text-anchor="start" x="314.57" y="-763.5" font-family="Helvetica,sans-Serif" font-size="10.00"> Road rd, int number,</text>
<text text-anchor="start" x="314.57" y="-752.5" font-family="Helvetica,sans-Serif" font-size="10.00"> Vector3 oriVelocity)</text>
<text text-anchor="start" x="314.57" y="-741.5" font-family="Helvetica,sans-Serif" font-size="10.00">+ virtual void Instantiate</text>
<text text-anchor="start" x="314.57" y="-730.5" font-family="Helvetica,sans-Serif" font-size="10.00">Unit(int chosenUnit, Road</text>
<text text-anchor="start" x="314.57" y="-719.5" font-family="Helvetica,sans-Serif" font-size="10.00"> rd, Vector3 oriPoint)</text>
<text text-anchor="start" x="314.57" y="-708.5" font-family="Helvetica,sans-Serif" font-size="10.00">+ virtual void Instantiate</text>
<text text-anchor="start" x="314.57" y="-697.5" font-family="Helvetica,sans-Serif" font-size="10.00">Unit(int chosenUnit, Road</text>
<text text-anchor="start" x="314.57" y="-686.5" font-family="Helvetica,sans-Serif" font-size="10.00"> rd, Vector3 oriPoint, Vector3</text>
<text text-anchor="start" x="314.57" y="-675.5" font-family="Helvetica,sans-Serif" font-size="10.00"> oriVelocity)</text>
<text text-anchor="start" x="314.57" y="-664.5" font-family="Helvetica,sans-Serif" font-size="10.00"># virtual void Start()</text>
</a>
</g>
</g>
<!-- Node2&#45;&gt;Node1 -->
<g id="edge1" class="edge">
<title>Node2&#45;&gt;Node1</title>
<path fill="none" stroke="midnightblue" d="M510.62,-746.34C530.45,-700.37 549.83,-655.46 565.32,-619.56"/>
<polygon fill="none" stroke="midnightblue" points="507.39,-744.98 506.64,-755.55 513.82,-747.76 507.39,-744.98"/>
</g>
<!-- Node11 -->
<g id="node11" class="node">
<title>Node11</title>
<g id="a_node11"><a xlink:href="class_player_1_1_player_online___b_side.html" target="_top" xlink:title=" ">
<polygon fill="white" stroke="black" points="274.57,-0.5 274.57,-134.5 462.57,-134.5 462.57,-0.5 274.57,-0.5"/>
<text text-anchor="start" x="282.57" y="-122.5" font-family="Helvetica,sans-Serif" font-size="10.00">Player.PlayerOnline</text>
<text text-anchor="middle" x="368.57" y="-111.5" font-family="Helvetica,sans-Serif" font-size="10.00">_BSide</text>
<polyline fill="none" stroke="black" points="274.57,-104.5 462.57,-104.5 "/>
<text text-anchor="start" x="282.57" y="-92.5" font-family="Helvetica,sans-Serif" font-size="10.00">+ int PlayerID</text>
<text text-anchor="start" x="282.57" y="-81.5" font-family="Helvetica,sans-Serif" font-size="10.00">+ Photon.Realtime.Player</text>
<text text-anchor="start" x="282.57" y="-70.5" font-family="Helvetica,sans-Serif" font-size="10.00"> PlayerPhoton</text>
<polyline fill="none" stroke="black" points="274.57,-63.5 462.57,-63.5 "/>
<text text-anchor="start" x="282.57" y="-51.5" font-family="Helvetica,sans-Serif" font-size="10.00">+ void UpdateRemotePlayerProperties()</text>
<text text-anchor="start" x="282.57" y="-40.5" font-family="Helvetica,sans-Serif" font-size="10.00">+ void UpdateSingleRemotePlayer</text>
<text text-anchor="start" x="282.57" y="-29.5" font-family="Helvetica,sans-Serif" font-size="10.00">Property(string propertyName,</text>
<text text-anchor="start" x="282.57" y="-18.5" font-family="Helvetica,sans-Serif" font-size="10.00"> object value)</text>
<text text-anchor="start" x="282.57" y="-7.5" font-family="Helvetica,sans-Serif" font-size="10.00"># override void Start()</text>
</a>
</g>
</g>
<!-- Node2&#45;&gt;Node11 -->
<g id="edge17" class="edge">
<title>Node2&#45;&gt;Node11</title>
<path fill="none" stroke="midnightblue" d="M355.75,-647.22C354.94,-638.06 354.21,-628.97 353.57,-620 346.36,-519.53 362.36,-157.24 362.57,-153 362.86,-147.12 363.21,-141.02 363.59,-134.91"/>
<polygon fill="none" stroke="midnightblue" points="352.26,-647.54 356.65,-657.18 359.23,-646.91 352.26,-647.54"/>
</g>
<!-- Node3 -->
<g id="node3" class="node">
<title>Node3</title>
<g id="a_node3"><a xlink:title=" ">
<polygon fill="white" stroke="#bfbfbf" points="358.07,-2112 358.07,-2169 441.07,-2169 441.07,-2112 358.07,-2112"/>
<text text-anchor="middle" x="399.57" y="-2157" font-family="Helvetica,sans-Serif" font-size="10.00">MonoBehaviour</text>
<polyline fill="none" stroke="#bfbfbf" points="358.07,-2150 441.07,-2150 "/>
<text text-anchor="middle" x="399.57" y="-2138" font-family="Helvetica,sans-Serif" font-size="10.00"> </text>
<polyline fill="none" stroke="#bfbfbf" points="358.07,-2131 441.07,-2131 "/>
<text text-anchor="middle" x="399.57" y="-2119" font-family="Helvetica,sans-Serif" font-size="10.00"> </text>
</a>
</g>
</g>
<!-- Node3&#45;&gt;Node2 -->
<g id="edge2" class="edge">
<title>Node3&#45;&gt;Node2</title>
<path fill="none" stroke="midnightblue" d="M405.66,-2101.47C408.63,-2081.2 411.91,-2055.81 413.57,-2033 435.99,-1724.89 431.1,-1646.83 423.57,-1338 423.42,-1331.94 423.26,-1325.83 423.08,-1319.67"/>
<polygon fill="none" stroke="midnightblue" points="402.16,-2101.15 404.14,-2111.56 409.09,-2102.19 402.16,-2101.15"/>
</g>
<!-- Node5 -->
<g id="node5" class="node">
<title>Node5</title>
<g id="a_node5"><a xlink:href="class_units_1_1_unit.html" target="_top" xlink:title="单位">
<polygon fill="white" stroke="black" points="125.57,-1605.5 125.57,-2003.5 291.57,-2003.5 291.57,-1605.5 125.57,-1605.5"/>
<text text-anchor="middle" x="208.57" y="-1991.5" font-family="Helvetica,sans-Serif" font-size="10.00">Unit</text>
<polyline fill="none" stroke="black" points="125.57,-1984.5 291.57,-1984.5 "/>
<text text-anchor="start" x="133.57" y="-1972.5" font-family="Helvetica,sans-Serif" font-size="10.00">+ int defence</text>
<text text-anchor="start" x="133.57" y="-1961.5" font-family="Helvetica,sans-Serif" font-size="10.00">+ bool isUnmovable</text>
<text text-anchor="start" x="133.57" y="-1950.5" font-family="Helvetica,sans-Serif" font-size="10.00">+ int playerOwnMax</text>
<text text-anchor="start" x="133.57" y="-1939.5" font-family="Helvetica,sans-Serif" font-size="10.00">+ Rigidbody unitRigidbody</text>
<text text-anchor="start" x="133.57" y="-1928.5" font-family="Helvetica,sans-Serif" font-size="10.00">+ Road road</text>
<text text-anchor="start" x="133.57" y="-1917.5" font-family="Helvetica,sans-Serif" font-size="10.00">+ UnitType unitType</text>
<text text-anchor="start" x="133.57" y="-1906.5" font-family="Helvetica,sans-Serif" font-size="10.00">+ int costFood</text>
<text text-anchor="start" x="133.57" y="-1895.5" font-family="Helvetica,sans-Serif" font-size="10.00">+ int costWood</text>
<text text-anchor="start" x="133.57" y="-1884.5" font-family="Helvetica,sans-Serif" font-size="10.00">+ int costGold</text>
<text text-anchor="start" x="133.57" y="-1873.5" font-family="Helvetica,sans-Serif" font-size="10.00">+ bool isDieImmediately</text>
<text text-anchor="start" x="133.57" y="-1862.5" font-family="Helvetica,sans-Serif" font-size="10.00">+ int deathReward</text>
<text text-anchor="start" x="133.57" y="-1851.5" font-family="Helvetica,sans-Serif" font-size="10.00">+ UnityEvent&lt; GameObject,</text>
<text text-anchor="start" x="133.57" y="-1840.5" font-family="Helvetica,sans-Serif" font-size="10.00"> Transform &gt; navStopEventHandler</text>
<text text-anchor="start" x="133.57" y="-1829.5" font-family="Helvetica,sans-Serif" font-size="10.00">+ UnityEvent&lt; Player.Player,</text>
<text text-anchor="start" x="133.57" y="-1818.5" font-family="Helvetica,sans-Serif" font-size="10.00"> IMilitaryUnit &gt; UnitDeathEvent</text>
<text text-anchor="start" x="133.57" y="-1807.5" font-family="Helvetica,sans-Serif" font-size="10.00">Handler</text>
<text text-anchor="start" x="133.57" y="-1796.5" font-family="Helvetica,sans-Serif" font-size="10.00">+ int??? HP</text>
<text text-anchor="start" x="133.57" y="-1785.5" font-family="Helvetica,sans-Serif" font-size="10.00">+ float Speed</text>
<text text-anchor="start" x="133.57" y="-1774.5" font-family="Helvetica,sans-Serif" font-size="10.00">+ Transform InitTarget</text>
<text text-anchor="start" x="133.57" y="-1763.5" font-family="Helvetica,sans-Serif" font-size="10.00">+ bool IsAtEnemyDoor</text>
<text text-anchor="start" x="133.57" y="-1752.5" font-family="Helvetica,sans-Serif" font-size="10.00"># bool Death</text>
<text text-anchor="start" x="133.57" y="-1741.5" font-family="Helvetica,sans-Serif" font-size="10.00"># UnityEvent StartEventHandler</text>
<text text-anchor="start" x="133.57" y="-1730.5" font-family="Helvetica,sans-Serif" font-size="10.00"># UnityEvent&lt; IMilitaryUnit</text>
<text text-anchor="start" x="133.57" y="-1719.5" font-family="Helvetica,sans-Serif" font-size="10.00"> &gt; BeAttackedEventHandler</text>
<polyline fill="none" stroke="black" points="125.57,-1712.5 291.57,-1712.5 "/>
<text text-anchor="start" x="133.57" y="-1700.5" font-family="Helvetica,sans-Serif" font-size="10.00">+ virtual void Start()</text>
<text text-anchor="start" x="133.57" y="-1689.5" font-family="Helvetica,sans-Serif" font-size="10.00">+ virtual void Update()</text>
<text text-anchor="start" x="133.57" y="-1678.5" font-family="Helvetica,sans-Serif" font-size="10.00">+ virtual void BeAttacked</text>
<text text-anchor="start" x="133.57" y="-1667.5" font-family="Helvetica,sans-Serif" font-size="10.00">(IMilitaryUnit attacker)</text>
<text text-anchor="start" x="133.57" y="-1656.5" font-family="Helvetica,sans-Serif" font-size="10.00"># virtual void Awake()</text>
<text text-anchor="start" x="133.57" y="-1645.5" font-family="Helvetica,sans-Serif" font-size="10.00"># void Goto(Transform tr)</text>
<text text-anchor="start" x="133.57" y="-1634.5" font-family="Helvetica,sans-Serif" font-size="10.00"># static float GetTwoPoint</text>
<text text-anchor="start" x="133.57" y="-1623.5" font-family="Helvetica,sans-Serif" font-size="10.00">DistanceOnNav(Vector3</text>
<text text-anchor="start" x="133.57" y="-1612.5" font-family="Helvetica,sans-Serif" font-size="10.00"> oriPoint, Vector3 targetPoint)</text>
</a>
</g>
</g>
<!-- Node3&#45;&gt;Node5 -->
<g id="edge5" class="edge">
<title>Node3&#45;&gt;Node5</title>
<path fill="none" stroke="midnightblue" d="M378.7,-2103.02C357.63,-2066.17 323.71,-2006.85 291.68,-1950.83"/>
<polygon fill="none" stroke="midnightblue" points="375.77,-2104.94 383.77,-2111.88 381.85,-2101.46 375.77,-2104.94"/>
</g>
<!-- Node6 -->
<g id="node6" class="node">
<title>Node6</title>
<g id="a_node6"><a xlink:href="class_player_1_1_player.html" target="_top" xlink:title="玩家">
<polygon fill="white" stroke="black" points="76.57,-657.5 76.57,-1319.5 276.57,-1319.5 276.57,-657.5 76.57,-657.5"/>
<text text-anchor="middle" x="176.57" y="-1307.5" font-family="Helvetica,sans-Serif" font-size="10.00">Player.Player</text>
<polyline fill="none" stroke="black" points="76.57,-1300.5 276.57,-1300.5 "/>
<text text-anchor="start" x="84.57" y="-1288.5" font-family="Helvetica,sans-Serif" font-size="10.00">+ UnityEvent playerDeadEvent</text>
<text text-anchor="start" x="84.57" y="-1277.5" font-family="Helvetica,sans-Serif" font-size="10.00">+ UnityAction updateEventHandler</text>
<text text-anchor="start" x="84.57" y="-1266.5" font-family="Helvetica,sans-Serif" font-size="10.00">+ bool enableFarmer</text>
<text text-anchor="start" x="84.57" y="-1255.5" font-family="Helvetica,sans-Serif" font-size="10.00">+ Transform[] resourceTransform</text>
<text text-anchor="start" x="84.57" y="-1244.5" font-family="Helvetica,sans-Serif" font-size="10.00">+ int[] resourceProduct</text>
<text text-anchor="start" x="84.57" y="-1233.5" font-family="Helvetica,sans-Serif" font-size="10.00">+ float resourceProducingTime</text>
<text text-anchor="start" x="84.57" y="-1222.5" font-family="Helvetica,sans-Serif" font-size="10.00">+ bool isEnemy</text>
<text text-anchor="start" x="84.57" y="-1211.5" font-family="Helvetica,sans-Serif" font-size="10.00">+ int[] availableUnits</text>
<text text-anchor="start" x="84.57" y="-1200.5" font-family="Helvetica,sans-Serif" font-size="10.00">+ List&lt; Unit &gt; UnitsList</text>
<text text-anchor="start" x="84.57" y="-1189.5" font-family="Helvetica,sans-Serif" font-size="10.00">+ int HP</text>
<text text-anchor="start" x="84.57" y="-1178.5" font-family="Helvetica,sans-Serif" font-size="10.00">+ int Food</text>
<text text-anchor="start" x="84.57" y="-1167.5" font-family="Helvetica,sans-Serif" font-size="10.00">+ int Wood</text>
<text text-anchor="start" x="84.57" y="-1156.5" font-family="Helvetica,sans-Serif" font-size="10.00">+ int Gold</text>
<text text-anchor="start" x="84.57" y="-1145.5" font-family="Helvetica,sans-Serif" font-size="10.00">+ Transform Top</text>
<text text-anchor="start" x="84.57" y="-1134.5" font-family="Helvetica,sans-Serif" font-size="10.00">+ Transform Mid</text>
<text text-anchor="start" x="84.57" y="-1123.5" font-family="Helvetica,sans-Serif" font-size="10.00">+ Transform Bot</text>
<text text-anchor="start" x="84.57" y="-1112.5" font-family="Helvetica,sans-Serif" font-size="10.00">+ int MaxFarmerNumber</text>
<text text-anchor="start" x="84.57" y="-1101.5" font-family="Helvetica,sans-Serif" font-size="10.00">+ int FarmerCount</text>
<text text-anchor="start" x="84.57" y="-1090.5" font-family="Helvetica,sans-Serif" font-size="10.00">+ int DispatchableFarmer</text>
<text text-anchor="start" x="84.57" y="-1079.5" font-family="Helvetica,sans-Serif" font-size="10.00">+ int[] RoadFarmers</text>
<text text-anchor="start" x="84.57" y="-1068.5" font-family="Helvetica,sans-Serif" font-size="10.00">+ int[] RoadWorkingFarmers</text>
<polyline fill="none" stroke="black" points="76.57,-1061.5 276.57,-1061.5 "/>
<text text-anchor="start" x="84.57" y="-1049.5" font-family="Helvetica,sans-Serif" font-size="10.00">+ virtual void UpdateLocal</text>
<text text-anchor="start" x="84.57" y="-1038.5" font-family="Helvetica,sans-Serif" font-size="10.00">PlayerProperties()</text>
<text text-anchor="start" x="84.57" y="-1027.5" font-family="Helvetica,sans-Serif" font-size="10.00">+ virtual void ChangeResource</text>
<text text-anchor="start" x="84.57" y="-1016.5" font-family="Helvetica,sans-Serif" font-size="10.00">(GameResourceType gameResourceType,</text>
<text text-anchor="start" x="84.57" y="-1005.5" font-family="Helvetica,sans-Serif" font-size="10.00"> int count)</text>
<text text-anchor="start" x="84.57" y="-994.5" font-family="Helvetica,sans-Serif" font-size="10.00">+ bool IsEnoughForUnit</text>
<text text-anchor="start" x="84.57" y="-983.5" font-family="Helvetica,sans-Serif" font-size="10.00">(Unit unit)</text>
<text text-anchor="start" x="84.57" y="-972.5" font-family="Helvetica,sans-Serif" font-size="10.00">+ bool IsEnoughForUnit</text>
<text text-anchor="start" x="84.57" y="-961.5" font-family="Helvetica,sans-Serif" font-size="10.00">(Unit unit, GameResourceType</text>
<text text-anchor="start" x="84.57" y="-950.5" font-family="Helvetica,sans-Serif" font-size="10.00"> gameResourceType)</text>
<text text-anchor="start" x="84.57" y="-939.5" font-family="Helvetica,sans-Serif" font-size="10.00">+ virtual void AddFarmer</text>
<text text-anchor="start" x="84.57" y="-928.5" font-family="Helvetica,sans-Serif" font-size="10.00">(GameResourceType rs)</text>
<text text-anchor="start" x="84.57" y="-917.5" font-family="Helvetica,sans-Serif" font-size="10.00">+ virtual void SubtractFarmer</text>
<text text-anchor="start" x="84.57" y="-906.5" font-family="Helvetica,sans-Serif" font-size="10.00">(GameResourceType rs)</text>
<text text-anchor="start" x="84.57" y="-895.5" font-family="Helvetica,sans-Serif" font-size="10.00">+ void InstantiateFarmer</text>
<text text-anchor="start" x="84.57" y="-884.5" font-family="Helvetica,sans-Serif" font-size="10.00">(Road rd, Transform transform,</text>
<text text-anchor="start" x="84.57" y="-873.5" font-family="Helvetica,sans-Serif" font-size="10.00"> int resourceCarried)</text>
<text text-anchor="start" x="84.57" y="-862.5" font-family="Helvetica,sans-Serif" font-size="10.00">+ void FarmerBack(Farmer</text>
<text text-anchor="start" x="84.57" y="-851.5" font-family="Helvetica,sans-Serif" font-size="10.00"> farmer, Transform tr)</text>
<text text-anchor="start" x="84.57" y="-840.5" font-family="Helvetica,sans-Serif" font-size="10.00">+ int CountUnits(UnitType</text>
<text text-anchor="start" x="84.57" y="-829.5" font-family="Helvetica,sans-Serif" font-size="10.00"> type)</text>
<text text-anchor="start" x="84.57" y="-818.5" font-family="Helvetica,sans-Serif" font-size="10.00">+ void SetUnits(Vector3</text>
<text text-anchor="start" x="84.57" y="-807.5" font-family="Helvetica,sans-Serif" font-size="10.00"> tr, int chosenUnit,</text>
<text text-anchor="start" x="84.57" y="-796.5" font-family="Helvetica,sans-Serif" font-size="10.00"> Road rd, int number)</text>
<text text-anchor="start" x="84.57" y="-785.5" font-family="Helvetica,sans-Serif" font-size="10.00">+ void SetUnits(Vector3</text>
<text text-anchor="start" x="84.57" y="-774.5" font-family="Helvetica,sans-Serif" font-size="10.00"> tr, int chosenUnit,</text>
<text text-anchor="start" x="84.57" y="-763.5" font-family="Helvetica,sans-Serif" font-size="10.00"> Road rd, int number,</text>
<text text-anchor="start" x="84.57" y="-752.5" font-family="Helvetica,sans-Serif" font-size="10.00"> Vector3 oriVelocity)</text>
<text text-anchor="start" x="84.57" y="-741.5" font-family="Helvetica,sans-Serif" font-size="10.00">+ virtual void Instantiate</text>
<text text-anchor="start" x="84.57" y="-730.5" font-family="Helvetica,sans-Serif" font-size="10.00">Unit(int chosenUnit, Road</text>
<text text-anchor="start" x="84.57" y="-719.5" font-family="Helvetica,sans-Serif" font-size="10.00"> rd, Vector3 oriPoint)</text>
<text text-anchor="start" x="84.57" y="-708.5" font-family="Helvetica,sans-Serif" font-size="10.00">+ virtual void Instantiate</text>
<text text-anchor="start" x="84.57" y="-697.5" font-family="Helvetica,sans-Serif" font-size="10.00">Unit(int chosenUnit, Road</text>
<text text-anchor="start" x="84.57" y="-686.5" font-family="Helvetica,sans-Serif" font-size="10.00"> rd, Vector3 oriPoint, Vector3</text>
<text text-anchor="start" x="84.57" y="-675.5" font-family="Helvetica,sans-Serif" font-size="10.00"> oriVelocity)</text>
<text text-anchor="start" x="84.57" y="-664.5" font-family="Helvetica,sans-Serif" font-size="10.00"># virtual void Start()</text>
</a>
</g>
</g>
<!-- Node3&#45;&gt;Node6 -->
<g id="edge7" class="edge">
<title>Node3&#45;&gt;Node6</title>
<path fill="none" stroke="midnightblue" d="M400.69,-2101.26C404.71,-1954.31 416.31,-1430.89 379.57,-1367 367.33,-1345.72 353.94,-1350.07 332.57,-1338 317.33,-1329.4 309.15,-1333.11 297.57,-1320 290.19,-1311.64 283.24,-1302.79 276.71,-1293.57"/>
<polygon fill="none" stroke="midnightblue" points="397.18,-2101.48 400.4,-2111.58 404.18,-2101.68 397.18,-2101.48"/>
</g>
<!-- Node4 -->
<g id="node4" class="node">
<title>Node4</title>
<g id="a_node4"><a xlink:href="class_units_1_1_farmer.html" target="_top" xlink:title="农民">
<polygon fill="white" stroke="black" points="220.07,-1367.5 220.07,-1567.5 371.07,-1567.5 371.07,-1367.5 220.07,-1367.5"/>
<text text-anchor="middle" x="295.57" y="-1555.5" font-family="Helvetica,sans-Serif" font-size="10.00">Units.Farmer</text>
<polyline fill="none" stroke="black" points="220.07,-1548.5 371.07,-1548.5 "/>
<text text-anchor="start" x="228.07" y="-1536.5" font-family="Helvetica,sans-Serif" font-size="10.00">+ float workTime</text>
<text text-anchor="start" x="228.07" y="-1525.5" font-family="Helvetica,sans-Serif" font-size="10.00">+ int[] maxLoad</text>
<text text-anchor="start" x="228.07" y="-1514.5" font-family="Helvetica,sans-Serif" font-size="10.00">+ UnityAction&lt; Farmer,</text>
<text text-anchor="start" x="228.07" y="-1503.5" font-family="Helvetica,sans-Serif" font-size="10.00"> Transform &gt; farmerBackEvent</text>
<text text-anchor="start" x="228.07" y="-1492.5" font-family="Helvetica,sans-Serif" font-size="10.00">Handler</text>
<text text-anchor="start" x="228.07" y="-1481.5" font-family="Helvetica,sans-Serif" font-size="10.00">+ int ResouceCarried</text>
<text text-anchor="start" x="228.07" y="-1470.5" font-family="Helvetica,sans-Serif" font-size="10.00"># Transform _home</text>
<text text-anchor="start" x="228.07" y="-1459.5" font-family="Helvetica,sans-Serif" font-size="10.00"># Transform _targerResource</text>
<polyline fill="none" stroke="black" points="220.07,-1452.5 371.07,-1452.5 "/>
<text text-anchor="start" x="228.07" y="-1440.5" font-family="Helvetica,sans-Serif" font-size="10.00">+ override void Start()</text>
<text text-anchor="start" x="228.07" y="-1429.5" font-family="Helvetica,sans-Serif" font-size="10.00"># void OnNavStop(GameObject</text>
<text text-anchor="start" x="228.07" y="-1418.5" font-family="Helvetica,sans-Serif" font-size="10.00"> gm, Transform tr)</text>
<text text-anchor="start" x="228.07" y="-1407.5" font-family="Helvetica,sans-Serif" font-size="10.00"># void GenerateWorkPath()</text>
<text text-anchor="start" x="228.07" y="-1396.5" font-family="Helvetica,sans-Serif" font-size="10.00"># virtual void Work()</text>
<text text-anchor="start" x="228.07" y="-1385.5" font-family="Helvetica,sans-Serif" font-size="10.00"># void Drop(Farmer farmer,</text>
<text text-anchor="start" x="228.07" y="-1374.5" font-family="Helvetica,sans-Serif" font-size="10.00"> Transform tr)</text>
</a>
</g>
</g>
<!-- Node4&#45;&gt;Node2 -->
<g id="edge3" class="edge">
<title>Node4&#45;&gt;Node2</title>
<path fill="none" stroke="#404040" d="M346.2,-1367.34C348.54,-1361.21 350.69,-1355.06 352.57,-1349 354.39,-1343.12 356.15,-1337.17 357.85,-1331.16"/>
<polygon fill="none" stroke="#404040" points="357.87,-1331.1 355.6,-1324.25 361.05,-1319.53 363.32,-1326.38 357.87,-1331.1"/>
<text text-anchor="middle" x="387.57" y="-1341" font-family="Helvetica,sans-Serif" font-size="10.00"> +farmerPrefab</text>
</g>
<!-- Node4&#45;&gt;Node6 -->
<g id="edge8" class="edge">
<title>Node4&#45;&gt;Node6</title>
<path fill="none" stroke="#404040" d="M270.84,-1367.38C268.03,-1356.1 265.05,-1344.19 261.97,-1331.81"/>
<polygon fill="none" stroke="#404040" points="261.88,-1331.45 256.54,-1326.6 258.97,-1319.81 264.3,-1324.66 261.88,-1331.45"/>
<text text-anchor="middle" x="296.57" y="-1341" font-family="Helvetica,sans-Serif" font-size="10.00"> +farmerPrefab</text>
</g>
<!-- Node5&#45;&gt;Node4 -->
<g id="edge4" class="edge">
<title>Node5&#45;&gt;Node4</title>
<path fill="none" stroke="midnightblue" d="M262.62,-1595.35C265.07,-1585.92 267.47,-1576.68 269.79,-1567.74"/>
<polygon fill="none" stroke="midnightblue" points="259.18,-1594.68 260.06,-1605.24 265.96,-1596.44 259.18,-1594.68"/>
</g>
<!-- Node7 -->
<g id="node7" class="node">
<title>Node7</title>
<g id="a_node7"><a xlink:href="class_units_1_1_door.html" target="_top" xlink:title="基地门">
<polygon fill="white" stroke="black" points="83.57,-1433.5 83.57,-1501.5 201.57,-1501.5 201.57,-1433.5 83.57,-1433.5"/>
<text text-anchor="middle" x="142.57" y="-1489.5" font-family="Helvetica,sans-Serif" font-size="10.00">Units.Door</text>
<polyline fill="none" stroke="black" points="83.57,-1482.5 201.57,-1482.5 "/>
<text text-anchor="middle" x="142.57" y="-1470.5" font-family="Helvetica,sans-Serif" font-size="10.00"> </text>
<polyline fill="none" stroke="black" points="83.57,-1463.5 201.57,-1463.5 "/>
<text text-anchor="start" x="91.57" y="-1451.5" font-family="Helvetica,sans-Serif" font-size="10.00">+ override void Start()</text>
<text text-anchor="start" x="91.57" y="-1440.5" font-family="Helvetica,sans-Serif" font-size="10.00">+ override void Update()</text>
</a>
</g>
</g>
<!-- Node5&#45;&gt;Node7 -->
<g id="edge10" class="edge">
<title>Node5&#45;&gt;Node7</title>
<path fill="none" stroke="midnightblue" d="M167.57,-1595.39C160.37,-1558.86 153.71,-1525.07 149.08,-1501.56"/>
<polygon fill="none" stroke="midnightblue" points="164.14,-1596.11 169.51,-1605.24 171.01,-1594.75 164.14,-1596.11"/>
</g>
<!-- Node6&#45;&gt;Node5 -->
<g id="edge6" class="edge">
<title>Node6&#45;&gt;Node5</title>
<path fill="none" stroke="#404040" d="M76.43,-1159.52C21,-1275.86 -27.95,-1432.89 19.57,-1568 39.42,-1624.44 79.13,-1677.36 117.05,-1718.69"/>
<polygon fill="none" stroke="#404040" points="117.17,-1718.82 124.19,-1720.48 125.36,-1727.59 118.34,-1725.93 117.17,-1718.82"/>
<text text-anchor="middle" x="47.07" y="-1465" font-family="Helvetica,sans-Serif" font-size="10.00"> +sidePlayer</text>
</g>
<!-- Node7&#45;&gt;Node2 -->
<g id="edge12" class="edge">
<title>Node7&#45;&gt;Node2</title>
<path fill="none" stroke="#404040" d="M157.84,-1433.24C172.88,-1404.05 198.54,-1362.53 232.57,-1338 252.75,-1323.45 267.77,-1337.38 285.57,-1320 290.1,-1315.58 294.46,-1310.97 298.65,-1306.2"/>
<polygon fill="none" stroke="#404040" points="298.8,-1306.03 299.6,-1298.86 306.53,-1296.84 305.73,-1304.01 298.8,-1306.03"/>
<text text-anchor="middle" x="246.57" y="-1341" font-family="Helvetica,sans-Serif" font-size="10.00"> +door</text>
</g>
<!-- Node7&#45;&gt;Node6 -->
<g id="edge9" class="edge">
<title>Node7&#45;&gt;Node6</title>
<path fill="none" stroke="#404040" d="M144.93,-1433.34C146.67,-1408.91 149.24,-1372.89 152.17,-1331.75"/>
<polygon fill="none" stroke="#404040" points="152.18,-1331.69 148.61,-1325.42 153.03,-1319.72 156.59,-1325.99 152.18,-1331.69"/>
<text text-anchor="middle" x="166.57" y="-1341" font-family="Helvetica,sans-Serif" font-size="10.00"> +door</text>
</g>
<!-- Node8 -->
<g id="node8" class="node">
<title>Node8</title>
<g id="a_node8"><a xlink:href="interface_units_1_1_i_military_unit.html" target="_top" xlink:title="攻击性单位接口">
<polygon fill="white" stroke="black" points="138.57,-2051.5 138.57,-2229.5 278.57,-2229.5 278.57,-2051.5 138.57,-2051.5"/>
<text text-anchor="middle" x="208.57" y="-2217.5" font-family="Helvetica,sans-Serif" font-size="10.00">Units.IMilitaryUnit</text>
<polyline fill="none" stroke="black" points="138.57,-2210.5 278.57,-2210.5 "/>
<text text-anchor="start" x="146.57" y="-2198.5" font-family="Helvetica,sans-Serif" font-size="10.00">+ int AttackValue</text>
<text text-anchor="start" x="146.57" y="-2187.5" font-family="Helvetica,sans-Serif" font-size="10.00">+ float AttackColdDownTime</text>
<text text-anchor="start" x="146.57" y="-2176.5" font-family="Helvetica,sans-Serif" font-size="10.00">+ float AttackRange</text>
<text text-anchor="start" x="146.57" y="-2165.5" font-family="Helvetica,sans-Serif" font-size="10.00">+ int DefenceValue</text>
<text text-anchor="start" x="146.57" y="-2154.5" font-family="Helvetica,sans-Serif" font-size="10.00">+ float SpeedValue</text>
<text text-anchor="start" x="146.57" y="-2143.5" font-family="Helvetica,sans-Serif" font-size="10.00">+ Vector3 OriginalVelocity</text>
<text text-anchor="start" x="146.57" y="-2132.5" font-family="Helvetica,sans-Serif" font-size="10.00">+ Player.Player SidePlayer</text>
<text text-anchor="start" x="146.57" y="-2121.5" font-family="Helvetica,sans-Serif" font-size="10.00">+ UnityEvent&lt; Unit &gt;</text>
<text text-anchor="start" x="146.57" y="-2110.5" font-family="Helvetica,sans-Serif" font-size="10.00"> AttackEvent</text>
<text text-anchor="start" x="146.57" y="-2099.5" font-family="Helvetica,sans-Serif" font-size="10.00">+ UnityEvent&lt; IMilitaryUnit</text>
<text text-anchor="start" x="146.57" y="-2088.5" font-family="Helvetica,sans-Serif" font-size="10.00"> &gt; UnderAttackedEvent</text>
<polyline fill="none" stroke="black" points="138.57,-2081.5 278.57,-2081.5 "/>
<text text-anchor="start" x="146.57" y="-2069.5" font-family="Helvetica,sans-Serif" font-size="10.00">+ void Attack()</text>
<text text-anchor="start" x="146.57" y="-2058.5" font-family="Helvetica,sans-Serif" font-size="10.00">+ Unit GetUnit()</text>
</a>
</g>
</g>
<!-- Node8&#45;&gt;Node5 -->
<g id="edge11" class="edge">
<title>Node8&#45;&gt;Node5</title>
<path fill="none" stroke="#404040" d="M208.57,-2051.31C208.57,-2040.07 208.57,-2028.22 208.57,-2016.04"/>
<polygon fill="none" stroke="#404040" points="208.57,-2015.76 204.57,-2009.76 208.57,-2003.76 212.57,-2009.76 208.57,-2015.76"/>
<text text-anchor="middle" x="233.07" y="-2025" font-family="Helvetica,sans-Serif" font-size="10.00"> #_attacker</text>
</g>
<!-- Node9&#45;&gt;Node1 -->
<g id="edge13" class="edge">
<title>Node9&#45;&gt;Node1</title>
<path fill="none" stroke="#404040" d="M566.72,-415.68C569.92,-421.76 572.89,-427.88 575.57,-434 578.04,-439.65 580.25,-445.59 582.24,-451.65"/>
<polygon fill="none" stroke="#404040" points="582.32,-451.92 587.88,-456.52 585.77,-463.42 580.21,-458.82 582.32,-451.92"/>
<text text-anchor="middle" x="634.07" y="-437" font-family="Helvetica,sans-Serif" font-size="10.00"> +networkPlayerManager</text>
</g>
<!-- Node9&#45;&gt;Node11 -->
<g id="edge18" class="edge">
<title>Node9&#45;&gt;Node11</title>
<path fill="none" stroke="#404040" d="M471.41,-182.49C468.33,-172.22 464.45,-162.23 459.57,-153 458.04,-150.11 456.37,-147.26 454.58,-144.46"/>
<polygon fill="none" stroke="#404040" points="454.54,-144.4 447.82,-141.78 447.65,-134.57 454.37,-137.19 454.54,-144.4"/>
<text text-anchor="middle" x="519.07" y="-156" font-family="Helvetica,sans-Serif" font-size="10.00"> +networkPlayerManager</text>
</g>
<!-- Node10 -->
<g id="node10" class="node">
<title>Node10</title>
<g id="a_node10"><a xlink:title=" ">
<polygon fill="white" stroke="#bfbfbf" points="363.07,-513 363.07,-570 506.07,-570 506.07,-513 363.07,-513"/>
<text text-anchor="middle" x="434.57" y="-558" font-family="Helvetica,sans-Serif" font-size="10.00">MonoBehaviourPunCallbacks</text>
<polyline fill="none" stroke="#bfbfbf" points="363.07,-551 506.07,-551 "/>
<text text-anchor="middle" x="434.57" y="-539" font-family="Helvetica,sans-Serif" font-size="10.00"> </text>
<polyline fill="none" stroke="#bfbfbf" points="363.07,-532 506.07,-532 "/>
<text text-anchor="middle" x="434.57" y="-520" font-family="Helvetica,sans-Serif" font-size="10.00"> </text>
</a>
</g>
</g>
<!-- Node10&#45;&gt;Node9 -->
<g id="edge14" class="edge">
<title>Node10&#45;&gt;Node9</title>
<path fill="none" stroke="midnightblue" d="M441.9,-502.96C446.54,-479.23 452.8,-447.18 458.98,-415.56"/>
<polygon fill="none" stroke="midnightblue" points="438.44,-502.43 439.96,-512.91 445.31,-503.77 438.44,-502.43"/>
</g>
<!-- Node11&#45;&gt;Node9 -->
<g id="edge16" class="edge">
<title>Node11&#45;&gt;Node9</title>
<path fill="none" stroke="#404040" d="M363.4,-134.56C364.27,-144.63 366.15,-154.74 369.57,-164 372.49,-171.93 376.11,-179.72 380.23,-187.3"/>
<polygon fill="none" stroke="#404040" points="380.35,-187.51 386.82,-190.69 386.37,-197.89 379.9,-194.71 380.35,-187.51"/>
<text text-anchor="middle" x="414.57" y="-156" font-family="Helvetica,sans-Serif" font-size="10.00"> +playerBSideOnline</text>
</g>
</g>
</svg>
