<?xml version="1.0" encoding="UTF-8" standalone="no"?>
<!DOCTYPE svg PUBLIC "-//W3C//DTD SVG 1.1//EN"
 "http://www.w3.org/Graphics/SVG/1.1/DTD/svg11.dtd">
<!-- Generated by graphviz version 2.47.1 (20210417.1919)
 -->
<!-- Title: PlayerResouceUI Pages: 1 -->
<svg width="702pt" height="1494pt"
 viewBox="0.00 0.00 701.53 1494.00" xmlns="http://www.w3.org/2000/svg" xmlns:xlink="http://www.w3.org/1999/xlink">
<g id="graph0" class="graph" transform="scale(1 1) rotate(0) translate(4 1490)">
<title>PlayerResouceUI</title>
<polygon fill="white" stroke="transparent" points="-4,4 -4,-1490 697.53,-1490 697.53,4 -4,4"/>
<!-- Node1 -->
<g id="node1" class="node">
<title>Node1</title>
<g id="a_node1"><a xlink:title=" ">
<polygon fill="#bfbfbf" stroke="black" points="76.53,-409 76.53,-466 182.53,-466 182.53,-409 76.53,-409"/>
<text text-anchor="middle" x="129.53" y="-454" font-family="Helvetica,sans-Serif" font-size="10.00">PlayerResouceUI</text>
<polyline fill="none" stroke="black" points="76.53,-447 182.53,-447 "/>
<text text-anchor="middle" x="129.53" y="-435" font-family="Helvetica,sans-Serif" font-size="10.00"> </text>
<polyline fill="none" stroke="black" points="76.53,-428 182.53,-428 "/>
<text text-anchor="start" x="84.53" y="-416" font-family="Helvetica,sans-Serif" font-size="10.00">+ void FixedUpdate()</text>
</a>
</g>
</g>
<!-- Node2 -->
<g id="node2" class="node">
<title>Node2</title>
<g id="a_node2"><a xlink:title=" ">
<polygon fill="white" stroke="#bfbfbf" points="318.03,-1428.5 318.03,-1485.5 401.03,-1485.5 401.03,-1428.5 318.03,-1428.5"/>
<text text-anchor="middle" x="359.53" y="-1473.5" font-family="Helvetica,sans-Serif" font-size="10.00">MonoBehaviour</text>
<polyline fill="none" stroke="#bfbfbf" points="318.03,-1466.5 401.03,-1466.5 "/>
<text text-anchor="middle" x="359.53" y="-1454.5" font-family="Helvetica,sans-Serif" font-size="10.00"> </text>
<polyline fill="none" stroke="#bfbfbf" points="318.03,-1447.5 401.03,-1447.5 "/>
<text text-anchor="middle" x="359.53" y="-1435.5" font-family="Helvetica,sans-Serif" font-size="10.00"> </text>
</a>
</g>
</g>
<!-- Node2&#45;&gt;Node1 -->
<g id="edge1" class="edge">
<title>Node2&#45;&gt;Node1</title>
<path fill="none" stroke="midnightblue" d="M307.85,-1449.91C242.17,-1440.98 134.45,-1421.96 110.53,-1391 -115.7,-1098.13 68.04,-589.58 117.93,-466.1"/>
<polygon fill="none" stroke="midnightblue" points="307.63,-1453.41 318.01,-1451.25 308.55,-1446.47 307.63,-1453.41"/>
</g>
<!-- Node3 -->
<g id="node3" class="node">
<title>Node3</title>
<g id="a_node3"><a xlink:href="class_player_1_1_player.html" target="_top" xlink:title="玩家">
<polygon fill="white" stroke="black" points="259.53,-728.5 259.53,-1390.5 459.53,-1390.5 459.53,-728.5 259.53,-728.5"/>
<text text-anchor="middle" x="359.53" y="-1378.5" font-family="Helvetica,sans-Serif" font-size="10.00">Player.Player</text>
<polyline fill="none" stroke="black" points="259.53,-1371.5 459.53,-1371.5 "/>
<text text-anchor="start" x="267.53" y="-1359.5" font-family="Helvetica,sans-Serif" font-size="10.00">+ UnityEvent playerDeadEvent</text>
<text text-anchor="start" x="267.53" y="-1348.5" font-family="Helvetica,sans-Serif" font-size="10.00">+ UnityAction updateEventHandler</text>
<text text-anchor="start" x="267.53" y="-1337.5" font-family="Helvetica,sans-Serif" font-size="10.00">+ bool enableFarmer</text>
<text text-anchor="start" x="267.53" y="-1326.5" font-family="Helvetica,sans-Serif" font-size="10.00">+ Transform[] resourceTransform</text>
<text text-anchor="start" x="267.53" y="-1315.5" font-family="Helvetica,sans-Serif" font-size="10.00">+ int[] resourceProduct</text>
<text text-anchor="start" x="267.53" y="-1304.5" font-family="Helvetica,sans-Serif" font-size="10.00">+ float resourceProducingTime</text>
<text text-anchor="start" x="267.53" y="-1293.5" font-family="Helvetica,sans-Serif" font-size="10.00">+ bool isEnemy</text>
<text text-anchor="start" x="267.53" y="-1282.5" font-family="Helvetica,sans-Serif" font-size="10.00">+ int[] availableUnits</text>
<text text-anchor="start" x="267.53" y="-1271.5" font-family="Helvetica,sans-Serif" font-size="10.00">+ List&lt; Unit &gt; UnitsList</text>
<text text-anchor="start" x="267.53" y="-1260.5" font-family="Helvetica,sans-Serif" font-size="10.00">+ int HP</text>
<text text-anchor="start" x="267.53" y="-1249.5" font-family="Helvetica,sans-Serif" font-size="10.00">+ int Food</text>
<text text-anchor="start" x="267.53" y="-1238.5" font-family="Helvetica,sans-Serif" font-size="10.00">+ int Wood</text>
<text text-anchor="start" x="267.53" y="-1227.5" font-family="Helvetica,sans-Serif" font-size="10.00">+ int Gold</text>
<text text-anchor="start" x="267.53" y="-1216.5" font-family="Helvetica,sans-Serif" font-size="10.00">+ Transform Top</text>
<text text-anchor="start" x="267.53" y="-1205.5" font-family="Helvetica,sans-Serif" font-size="10.00">+ Transform Mid</text>
<text text-anchor="start" x="267.53" y="-1194.5" font-family="Helvetica,sans-Serif" font-size="10.00">+ Transform Bot</text>
<text text-anchor="start" x="267.53" y="-1183.5" font-family="Helvetica,sans-Serif" font-size="10.00">+ int MaxFarmerNumber</text>
<text text-anchor="start" x="267.53" y="-1172.5" font-family="Helvetica,sans-Serif" font-size="10.00">+ int FarmerCount</text>
<text text-anchor="start" x="267.53" y="-1161.5" font-family="Helvetica,sans-Serif" font-size="10.00">+ int DispatchableFarmer</text>
<text text-anchor="start" x="267.53" y="-1150.5" font-family="Helvetica,sans-Serif" font-size="10.00">+ int[] RoadFarmers</text>
<text text-anchor="start" x="267.53" y="-1139.5" font-family="Helvetica,sans-Serif" font-size="10.00">+ int[] RoadWorkingFarmers</text>
<polyline fill="none" stroke="black" points="259.53,-1132.5 459.53,-1132.5 "/>
<text text-anchor="start" x="267.53" y="-1120.5" font-family="Helvetica,sans-Serif" font-size="10.00">+ virtual void UpdateLocal</text>
<text text-anchor="start" x="267.53" y="-1109.5" font-family="Helvetica,sans-Serif" font-size="10.00">PlayerProperties()</text>
<text text-anchor="start" x="267.53" y="-1098.5" font-family="Helvetica,sans-Serif" font-size="10.00">+ virtual void ChangeResource</text>
<text text-anchor="start" x="267.53" y="-1087.5" font-family="Helvetica,sans-Serif" font-size="10.00">(GameResourceType gameResourceType,</text>
<text text-anchor="start" x="267.53" y="-1076.5" font-family="Helvetica,sans-Serif" font-size="10.00"> int count)</text>
<text text-anchor="start" x="267.53" y="-1065.5" font-family="Helvetica,sans-Serif" font-size="10.00">+ bool IsEnoughForUnit</text>
<text text-anchor="start" x="267.53" y="-1054.5" font-family="Helvetica,sans-Serif" font-size="10.00">(Unit unit)</text>
<text text-anchor="start" x="267.53" y="-1043.5" font-family="Helvetica,sans-Serif" font-size="10.00">+ bool IsEnoughForUnit</text>
<text text-anchor="start" x="267.53" y="-1032.5" font-family="Helvetica,sans-Serif" font-size="10.00">(Unit unit, GameResourceType</text>
<text text-anchor="start" x="267.53" y="-1021.5" font-family="Helvetica,sans-Serif" font-size="10.00"> gameResourceType)</text>
<text text-anchor="start" x="267.53" y="-1010.5" font-family="Helvetica,sans-Serif" font-size="10.00">+ virtual void AddFarmer</text>
<text text-anchor="start" x="267.53" y="-999.5" font-family="Helvetica,sans-Serif" font-size="10.00">(GameResourceType rs)</text>
<text text-anchor="start" x="267.53" y="-988.5" font-family="Helvetica,sans-Serif" font-size="10.00">+ virtual void SubtractFarmer</text>
<text text-anchor="start" x="267.53" y="-977.5" font-family="Helvetica,sans-Serif" font-size="10.00">(GameResourceType rs)</text>
<text text-anchor="start" x="267.53" y="-966.5" font-family="Helvetica,sans-Serif" font-size="10.00">+ void InstantiateFarmer</text>
<text text-anchor="start" x="267.53" y="-955.5" font-family="Helvetica,sans-Serif" font-size="10.00">(Road rd, Transform transform,</text>
<text text-anchor="start" x="267.53" y="-944.5" font-family="Helvetica,sans-Serif" font-size="10.00"> int resourceCarried)</text>
<text text-anchor="start" x="267.53" y="-933.5" font-family="Helvetica,sans-Serif" font-size="10.00">+ void FarmerBack(Farmer</text>
<text text-anchor="start" x="267.53" y="-922.5" font-family="Helvetica,sans-Serif" font-size="10.00"> farmer, Transform tr)</text>
<text text-anchor="start" x="267.53" y="-911.5" font-family="Helvetica,sans-Serif" font-size="10.00">+ int CountUnits(UnitType</text>
<text text-anchor="start" x="267.53" y="-900.5" font-family="Helvetica,sans-Serif" font-size="10.00"> type)</text>
<text text-anchor="start" x="267.53" y="-889.5" font-family="Helvetica,sans-Serif" font-size="10.00">+ void SetUnits(Vector3</text>
<text text-anchor="start" x="267.53" y="-878.5" font-family="Helvetica,sans-Serif" font-size="10.00"> tr, int chosenUnit,</text>
<text text-anchor="start" x="267.53" y="-867.5" font-family="Helvetica,sans-Serif" font-size="10.00"> Road rd, int number)</text>
<text text-anchor="start" x="267.53" y="-856.5" font-family="Helvetica,sans-Serif" font-size="10.00">+ void SetUnits(Vector3</text>
<text text-anchor="start" x="267.53" y="-845.5" font-family="Helvetica,sans-Serif" font-size="10.00"> tr, int chosenUnit,</text>
<text text-anchor="start" x="267.53" y="-834.5" font-family="Helvetica,sans-Serif" font-size="10.00"> Road rd, int number,</text>
<text text-anchor="start" x="267.53" y="-823.5" font-family="Helvetica,sans-Serif" font-size="10.00"> Vector3 oriVelocity)</text>
<text text-anchor="start" x="267.53" y="-812.5" font-family="Helvetica,sans-Serif" font-size="10.00">+ virtual void Instantiate</text>
<text text-anchor="start" x="267.53" y="-801.5" font-family="Helvetica,sans-Serif" font-size="10.00">Unit(int chosenUnit, Road</text>
<text text-anchor="start" x="267.53" y="-790.5" font-family="Helvetica,sans-Serif" font-size="10.00"> rd, Vector3 oriPoint)</text>
<text text-anchor="start" x="267.53" y="-779.5" font-family="Helvetica,sans-Serif" font-size="10.00">+ virtual void Instantiate</text>
<text text-anchor="start" x="267.53" y="-768.5" font-family="Helvetica,sans-Serif" font-size="10.00">Unit(int chosenUnit, Road</text>
<text text-anchor="start" x="267.53" y="-757.5" font-family="Helvetica,sans-Serif" font-size="10.00"> rd, Vector3 oriPoint, Vector3</text>
<text text-anchor="start" x="267.53" y="-746.5" font-family="Helvetica,sans-Serif" font-size="10.00"> oriVelocity)</text>
<text text-anchor="start" x="267.53" y="-735.5" font-family="Helvetica,sans-Serif" font-size="10.00"># virtual void Start()</text>
</a>
</g>
</g>
<!-- Node2&#45;&gt;Node3 -->
<g id="edge3" class="edge">
<title>Node2&#45;&gt;Node3</title>
<path fill="none" stroke="midnightblue" d="M359.53,-1418.12C359.53,-1409.98 359.53,-1400.75 359.53,-1390.68"/>
<polygon fill="none" stroke="midnightblue" points="356.03,-1418.19 359.53,-1428.19 363.03,-1418.19 356.03,-1418.19"/>
</g>
<!-- Node5 -->
<g id="node5" class="node">
<title>Node5</title>
<g id="a_node5"><a xlink:href="class_units_1_1_unit.html" target="_top" xlink:title="单位">
<polygon fill="white" stroke="black" points="468.53,-238.5 468.53,-636.5 634.53,-636.5 634.53,-238.5 468.53,-238.5"/>
<text text-anchor="middle" x="551.53" y="-624.5" font-family="Helvetica,sans-Serif" font-size="10.00">Unit</text>
<polyline fill="none" stroke="black" points="468.53,-617.5 634.53,-617.5 "/>
<text text-anchor="start" x="476.53" y="-605.5" font-family="Helvetica,sans-Serif" font-size="10.00">+ int defence</text>
<text text-anchor="start" x="476.53" y="-594.5" font-family="Helvetica,sans-Serif" font-size="10.00">+ bool isUnmovable</text>
<text text-anchor="start" x="476.53" y="-583.5" font-family="Helvetica,sans-Serif" font-size="10.00">+ int playerOwnMax</text>
<text text-anchor="start" x="476.53" y="-572.5" font-family="Helvetica,sans-Serif" font-size="10.00">+ Rigidbody unitRigidbody</text>
<text text-anchor="start" x="476.53" y="-561.5" font-family="Helvetica,sans-Serif" font-size="10.00">+ Road road</text>
<text text-anchor="start" x="476.53" y="-550.5" font-family="Helvetica,sans-Serif" font-size="10.00">+ UnitType unitType</text>
<text text-anchor="start" x="476.53" y="-539.5" font-family="Helvetica,sans-Serif" font-size="10.00">+ int costFood</text>
<text text-anchor="start" x="476.53" y="-528.5" font-family="Helvetica,sans-Serif" font-size="10.00">+ int costWood</text>
<text text-anchor="start" x="476.53" y="-517.5" font-family="Helvetica,sans-Serif" font-size="10.00">+ int costGold</text>
<text text-anchor="start" x="476.53" y="-506.5" font-family="Helvetica,sans-Serif" font-size="10.00">+ bool isDieImmediately</text>
<text text-anchor="start" x="476.53" y="-495.5" font-family="Helvetica,sans-Serif" font-size="10.00">+ int deathReward</text>
<text text-anchor="start" x="476.53" y="-484.5" font-family="Helvetica,sans-Serif" font-size="10.00">+ UnityEvent&lt; GameObject,</text>
<text text-anchor="start" x="476.53" y="-473.5" font-family="Helvetica,sans-Serif" font-size="10.00"> Transform &gt; navStopEventHandler</text>
<text text-anchor="start" x="476.53" y="-462.5" font-family="Helvetica,sans-Serif" font-size="10.00">+ UnityEvent&lt; Player.Player,</text>
<text text-anchor="start" x="476.53" y="-451.5" font-family="Helvetica,sans-Serif" font-size="10.00"> IMilitaryUnit &gt; UnitDeathEvent</text>
<text text-anchor="start" x="476.53" y="-440.5" font-family="Helvetica,sans-Serif" font-size="10.00">Handler</text>
<text text-anchor="start" x="476.53" y="-429.5" font-family="Helvetica,sans-Serif" font-size="10.00">+ int??? HP</text>
<text text-anchor="start" x="476.53" y="-418.5" font-family="Helvetica,sans-Serif" font-size="10.00">+ float Speed</text>
<text text-anchor="start" x="476.53" y="-407.5" font-family="Helvetica,sans-Serif" font-size="10.00">+ Transform InitTarget</text>
<text text-anchor="start" x="476.53" y="-396.5" font-family="Helvetica,sans-Serif" font-size="10.00">+ bool IsAtEnemyDoor</text>
<text text-anchor="start" x="476.53" y="-385.5" font-family="Helvetica,sans-Serif" font-size="10.00"># bool Death</text>
<text text-anchor="start" x="476.53" y="-374.5" font-family="Helvetica,sans-Serif" font-size="10.00"># UnityEvent StartEventHandler</text>
<text text-anchor="start" x="476.53" y="-363.5" font-family="Helvetica,sans-Serif" font-size="10.00"># UnityEvent&lt; IMilitaryUnit</text>
<text text-anchor="start" x="476.53" y="-352.5" font-family="Helvetica,sans-Serif" font-size="10.00"> &gt; BeAttackedEventHandler</text>
<polyline fill="none" stroke="black" points="468.53,-345.5 634.53,-345.5 "/>
<text text-anchor="start" x="476.53" y="-333.5" font-family="Helvetica,sans-Serif" font-size="10.00">+ virtual void Start()</text>
<text text-anchor="start" x="476.53" y="-322.5" font-family="Helvetica,sans-Serif" font-size="10.00">+ virtual void Update()</text>
<text text-anchor="start" x="476.53" y="-311.5" font-family="Helvetica,sans-Serif" font-size="10.00">+ virtual void BeAttacked</text>
<text text-anchor="start" x="476.53" y="-300.5" font-family="Helvetica,sans-Serif" font-size="10.00">(IMilitaryUnit attacker)</text>
<text text-anchor="start" x="476.53" y="-289.5" font-family="Helvetica,sans-Serif" font-size="10.00"># virtual void Awake()</text>
<text text-anchor="start" x="476.53" y="-278.5" font-family="Helvetica,sans-Serif" font-size="10.00"># void Goto(Transform tr)</text>
<text text-anchor="start" x="476.53" y="-267.5" font-family="Helvetica,sans-Serif" font-size="10.00"># static float GetTwoPoint</text>
<text text-anchor="start" x="476.53" y="-256.5" font-family="Helvetica,sans-Serif" font-size="10.00">DistanceOnNav(Vector3</text>
<text text-anchor="start" x="476.53" y="-245.5" font-family="Helvetica,sans-Serif" font-size="10.00"> oriPoint, Vector3 targetPoint)</text>
</a>
</g>
</g>
<!-- Node2&#45;&gt;Node5 -->
<g id="edge6" class="edge">
<title>Node2&#45;&gt;Node5</title>
<path fill="none" stroke="midnightblue" d="M410.27,-1438C431.86,-1427.66 455.11,-1412.4 468.53,-1391 507.56,-1328.75 532.31,-896.95 543.85,-636.58"/>
<polygon fill="none" stroke="midnightblue" points="408.81,-1434.82 401.15,-1442.13 411.7,-1441.19 408.81,-1434.82"/>
</g>
<!-- Node3&#45;&gt;Node1 -->
<g id="edge2" class="edge">
<title>Node3&#45;&gt;Node1</title>
<path fill="none" stroke="#404040" d="M276.62,-728.47C268.18,-703.36 259.14,-678.63 249.53,-655 222.88,-589.45 180.86,-518.65 154.28,-476.48"/>
<polygon fill="none" stroke="#404040" points="154.14,-476.26 147.55,-473.35 147.71,-466.14 154.3,-469.05 154.14,-476.26"/>
<text text-anchor="middle" x="287.53" y="-680" font-family="Helvetica,sans-Serif" font-size="10.00"> +player</text>
</g>
<!-- Node3&#45;&gt;Node5 -->
<g id="edge7" class="edge">
<title>Node3&#45;&gt;Node5</title>
<path fill="none" stroke="#404040" d="M433.75,-728.46C440.94,-703.45 448.54,-678.73 456.53,-655 458.99,-647.7 461.59,-640.31 464.32,-632.88"/>
<polygon fill="none" stroke="#404040" points="464.34,-632.82 462.69,-625.8 468.53,-621.58 470.18,-628.6 464.34,-632.82"/>
<text text-anchor="middle" x="484.03" y="-680" font-family="Helvetica,sans-Serif" font-size="10.00"> +sidePlayer</text>
</g>
<!-- Node4 -->
<g id="node4" class="node">
<title>Node4</title>
<g id="a_node4"><a xlink:href="class_units_1_1_farmer.html" target="_top" xlink:title="农民">
<polygon fill="white" stroke="black" points="285.03,-0.5 285.03,-200.5 436.03,-200.5 436.03,-0.5 285.03,-0.5"/>
<text text-anchor="middle" x="360.53" y="-188.5" font-family="Helvetica,sans-Serif" font-size="10.00">Units.Farmer</text>
<polyline fill="none" stroke="black" points="285.03,-181.5 436.03,-181.5 "/>
<text text-anchor="start" x="293.03" y="-169.5" font-family="Helvetica,sans-Serif" font-size="10.00">+ float workTime</text>
<text text-anchor="start" x="293.03" y="-158.5" font-family="Helvetica,sans-Serif" font-size="10.00">+ int[] maxLoad</text>
<text text-anchor="start" x="293.03" y="-147.5" font-family="Helvetica,sans-Serif" font-size="10.00">+ UnityAction&lt; Farmer,</text>
<text text-anchor="start" x="293.03" y="-136.5" font-family="Helvetica,sans-Serif" font-size="10.00"> Transform &gt; farmerBackEvent</text>
<text text-anchor="start" x="293.03" y="-125.5" font-family="Helvetica,sans-Serif" font-size="10.00">Handler</text>
<text text-anchor="start" x="293.03" y="-114.5" font-family="Helvetica,sans-Serif" font-size="10.00">+ int ResouceCarried</text>
<text text-anchor="start" x="293.03" y="-103.5" font-family="Helvetica,sans-Serif" font-size="10.00"># Transform _home</text>
<text text-anchor="start" x="293.03" y="-92.5" font-family="Helvetica,sans-Serif" font-size="10.00"># Transform _targerResource</text>
<polyline fill="none" stroke="black" points="285.03,-85.5 436.03,-85.5 "/>
<text text-anchor="start" x="293.03" y="-73.5" font-family="Helvetica,sans-Serif" font-size="10.00">+ override void Start()</text>
<text text-anchor="start" x="293.03" y="-62.5" font-family="Helvetica,sans-Serif" font-size="10.00"># void OnNavStop(GameObject</text>
<text text-anchor="start" x="293.03" y="-51.5" font-family="Helvetica,sans-Serif" font-size="10.00"> gm, Transform tr)</text>
<text text-anchor="start" x="293.03" y="-40.5" font-family="Helvetica,sans-Serif" font-size="10.00"># void GenerateWorkPath()</text>
<text text-anchor="start" x="293.03" y="-29.5" font-family="Helvetica,sans-Serif" font-size="10.00"># virtual void Work()</text>
<text text-anchor="start" x="293.03" y="-18.5" font-family="Helvetica,sans-Serif" font-size="10.00"># void Drop(Farmer farmer,</text>
<text text-anchor="start" x="293.03" y="-7.5" font-family="Helvetica,sans-Serif" font-size="10.00"> Transform tr)</text>
</a>
</g>
</g>
<!-- Node4&#45;&gt;Node3 -->
<g id="edge4" class="edge">
<title>Node4&#45;&gt;Node3</title>
<path fill="none" stroke="#404040" d="M341,-200.76C339.16,-213.25 337.59,-225.89 336.53,-238 322.87,-394.55 325.25,-568.48 332.38,-715.76"/>
<polygon fill="none" stroke="#404040" points="332.4,-716.13 336.69,-721.93 332.99,-728.12 328.7,-722.33 332.4,-716.13"/>
<text text-anchor="middle" x="368.53" y="-435" font-family="Helvetica,sans-Serif" font-size="10.00"> +farmerPrefab</text>
</g>
<!-- Node5&#45;&gt;Node4 -->
<g id="edge5" class="edge">
<title>Node5&#45;&gt;Node4</title>
<path fill="none" stroke="midnightblue" d="M463.52,-253.72C460.53,-248.4 457.54,-243.14 454.53,-238 447.34,-225.7 439.42,-213.06 431.32,-200.66"/>
<polygon fill="none" stroke="midnightblue" points="460.61,-255.7 468.51,-262.75 466.73,-252.31 460.61,-255.7"/>
</g>
<!-- Node7 -->
<g id="node7" class="node">
<title>Node7</title>
<g id="a_node7"><a xlink:href="class_units_1_1_door.html" target="_top" xlink:title="基地门">
<polygon fill="white" stroke="black" points="473.53,-66.5 473.53,-134.5 591.53,-134.5 591.53,-66.5 473.53,-66.5"/>
<text text-anchor="middle" x="532.53" y="-122.5" font-family="Helvetica,sans-Serif" font-size="10.00">Units.Door</text>
<polyline fill="none" stroke="black" points="473.53,-115.5 591.53,-115.5 "/>
<text text-anchor="middle" x="532.53" y="-103.5" font-family="Helvetica,sans-Serif" font-size="10.00"> </text>
<polyline fill="none" stroke="black" points="473.53,-96.5 591.53,-96.5 "/>
<text text-anchor="start" x="481.53" y="-84.5" font-family="Helvetica,sans-Serif" font-size="10.00">+ override void Start()</text>
<text text-anchor="start" x="481.53" y="-73.5" font-family="Helvetica,sans-Serif" font-size="10.00">+ override void Update()</text>
</a>
</g>
</g>
<!-- Node5&#45;&gt;Node7 -->
<g id="edge10" class="edge">
<title>Node5&#45;&gt;Node7</title>
<path fill="none" stroke="midnightblue" d="M539.7,-227.92C537.64,-191.57 535.73,-157.97 534.41,-134.56"/>
<polygon fill="none" stroke="midnightblue" points="536.22,-228.45 540.29,-238.24 543.21,-228.06 536.22,-228.45"/>
</g>
<!-- Node6 -->
<g id="node6" class="node">
<title>Node6</title>
<g id="a_node6"><a xlink:href="interface_units_1_1_i_military_unit.html" target="_top" xlink:title="攻击性单位接口">
<polygon fill="white" stroke="black" points="553.53,-970.5 553.53,-1148.5 693.53,-1148.5 693.53,-970.5 553.53,-970.5"/>
<text text-anchor="middle" x="623.53" y="-1136.5" font-family="Helvetica,sans-Serif" font-size="10.00">Units.IMilitaryUnit</text>
<polyline fill="none" stroke="black" points="553.53,-1129.5 693.53,-1129.5 "/>
<text text-anchor="start" x="561.53" y="-1117.5" font-family="Helvetica,sans-Serif" font-size="10.00">+ int AttackValue</text>
<text text-anchor="start" x="561.53" y="-1106.5" font-family="Helvetica,sans-Serif" font-size="10.00">+ float AttackColdDownTime</text>
<text text-anchor="start" x="561.53" y="-1095.5" font-family="Helvetica,sans-Serif" font-size="10.00">+ float AttackRange</text>
<text text-anchor="start" x="561.53" y="-1084.5" font-family="Helvetica,sans-Serif" font-size="10.00">+ int DefenceValue</text>
<text text-anchor="start" x="561.53" y="-1073.5" font-family="Helvetica,sans-Serif" font-size="10.00">+ float SpeedValue</text>
<text text-anchor="start" x="561.53" y="-1062.5" font-family="Helvetica,sans-Serif" font-size="10.00">+ Vector3 OriginalVelocity</text>
<text text-anchor="start" x="561.53" y="-1051.5" font-family="Helvetica,sans-Serif" font-size="10.00">+ Player.Player SidePlayer</text>
<text text-anchor="start" x="561.53" y="-1040.5" font-family="Helvetica,sans-Serif" font-size="10.00">+ UnityEvent&lt; Unit &gt;</text>
<text text-anchor="start" x="561.53" y="-1029.5" font-family="Helvetica,sans-Serif" font-size="10.00"> AttackEvent</text>
<text text-anchor="start" x="561.53" y="-1018.5" font-family="Helvetica,sans-Serif" font-size="10.00">+ UnityEvent&lt; IMilitaryUnit</text>
<text text-anchor="start" x="561.53" y="-1007.5" font-family="Helvetica,sans-Serif" font-size="10.00"> &gt; UnderAttackedEvent</text>
<polyline fill="none" stroke="black" points="553.53,-1000.5 693.53,-1000.5 "/>
<text text-anchor="start" x="561.53" y="-988.5" font-family="Helvetica,sans-Serif" font-size="10.00">+ void Attack()</text>
<text text-anchor="start" x="561.53" y="-977.5" font-family="Helvetica,sans-Serif" font-size="10.00">+ Unit GetUnit()</text>
</a>
</g>
</g>
<!-- Node6&#45;&gt;Node5 -->
<g id="edge8" class="edge">
<title>Node6&#45;&gt;Node5</title>
<path fill="none" stroke="#404040" d="M613.29,-970.33C603.6,-886.86 588.67,-758.35 575.92,-648.56"/>
<polygon fill="none" stroke="#404040" points="575.92,-648.56 571.26,-643.06 574.54,-636.64 579.21,-642.14 575.92,-648.56"/>
<text text-anchor="middle" x="605.03" y="-680" font-family="Helvetica,sans-Serif" font-size="10.00"> #_attacker</text>
</g>
<!-- Node7&#45;&gt;Node3 -->
<g id="edge9" class="edge">
<title>Node7&#45;&gt;Node3</title>
<path fill="none" stroke="#404040" d="M499.48,-134.72C476.06,-160.54 446.27,-198.51 431.53,-238 400.43,-321.32 408.28,-548.4 400.53,-637 398.28,-662.72 395.88,-689.32 393.4,-716.07"/>
<polygon fill="none" stroke="#404040" points="393.37,-716.42 396.8,-722.77 392.26,-728.37 388.83,-722.03 393.37,-716.42"/>
<text text-anchor="middle" x="445.53" y="-435" font-family="Helvetica,sans-Serif" font-size="10.00"> +door</text>
</g>
<!-- Node8 -->
<g id="node8" class="node">
<title>Node8</title>
<g id="a_node8"><a xlink:title=" ">
<polygon fill="white" stroke="#bfbfbf" points="119.03,-1031 119.03,-1088 154.03,-1088 154.03,-1031 119.03,-1031"/>
<text text-anchor="middle" x="136.53" y="-1076" font-family="Helvetica,sans-Serif" font-size="10.00">Text</text>
<polyline fill="none" stroke="#bfbfbf" points="119.03,-1069 154.03,-1069 "/>
<text text-anchor="middle" x="136.53" y="-1057" font-family="Helvetica,sans-Serif" font-size="10.00"> </text>
<polyline fill="none" stroke="#bfbfbf" points="119.03,-1050 154.03,-1050 "/>
<text text-anchor="middle" x="136.53" y="-1038" font-family="Helvetica,sans-Serif" font-size="10.00"> </text>
</a>
</g>
</g>
<!-- Node8&#45;&gt;Node1 -->
<g id="edge11" class="edge">
<title>Node8&#45;&gt;Node1</title>
<path fill="none" stroke="#404040" d="M135.93,-1030.94C134.67,-972.04 131.78,-829.51 130.53,-710 129.67,-627.7 129.52,-531.37 129.51,-478.43"/>
<polygon fill="none" stroke="#404040" points="129.51,-478.25 125.51,-472.25 129.51,-466.25 133.51,-472.25 129.51,-478.25"/>
<text text-anchor="middle" x="190.03" y="-702" font-family="Helvetica,sans-Serif" font-size="10.00"> +dispatchableFarmersText</text>
<text text-anchor="middle" x="190.03" y="-691" font-family="Helvetica,sans-Serif" font-size="10.00">+foodText</text>
<text text-anchor="middle" x="190.03" y="-680" font-family="Helvetica,sans-Serif" font-size="10.00">+goldText</text>
<text text-anchor="middle" x="190.03" y="-669" font-family="Helvetica,sans-Serif" font-size="10.00">+maxFarmersText</text>
<text text-anchor="middle" x="190.03" y="-658" font-family="Helvetica,sans-Serif" font-size="10.00">+woodText</text>
</g>
</g>
</svg>
