<?xml version="1.0" encoding="UTF-8" standalone="no"?>
<!DOCTYPE svg PUBLIC "-//W3C//DTD SVG 1.1//EN"
 "http://www.w3.org/Graphics/SVG/1.1/DTD/svg11.dtd">
<!-- Generated by graphviz version 2.47.1 (20210417.1919)
 -->
<!-- Title: Gameplay.ScienceTree.ScienceTreeNode.IsActivatable Pages: 1 -->
<svg width="532pt" height="127pt"
 viewBox="0.00 0.00 532.00 127.00" xmlns="http://www.w3.org/2000/svg" xmlns:xlink="http://www.w3.org/1999/xlink">
<g id="graph0" class="graph" transform="scale(1 1) rotate(0) translate(4 123)">
<title>Gameplay.ScienceTree.ScienceTreeNode.IsActivatable</title>
<polygon fill="white" stroke="transparent" points="-4,4 -4,-123 528,-123 528,4 -4,4"/>
<!-- Node1 -->
<g id="node1" class="node">
<title>Node1</title>
<g id="a_node1"><a xlink:title="该节点是否可被激活">
<polygon fill="#bfbfbf" stroke="black" points="368,-44.5 368,-74.5 524,-74.5 524,-44.5 368,-44.5"/>
<text text-anchor="start" x="376" y="-62.5" font-family="Helvetica,sans-Serif" font-size="10.00">Gameplay.ScienceTree.Science</text>
<text text-anchor="middle" x="446" y="-51.5" font-family="Helvetica,sans-Serif" font-size="10.00">TreeNode.IsActivatable</text>
</a>
</g>
</g>
<!-- Node2 -->
<g id="node2" class="node">
<title>Node2</title>
<g id="a_node2"><a xlink:href="class_gameplay_1_1_science_tree_1_1_science_tree_node.html#a4b97d44856afbeed4dbb0f737ee7c5e5" target="_top" xlink:title="激活">
<polygon fill="white" stroke="black" points="176,-88.5 176,-118.5 332,-118.5 332,-88.5 176,-88.5"/>
<text text-anchor="start" x="184" y="-106.5" font-family="Helvetica,sans-Serif" font-size="10.00">Gameplay.ScienceTree.Science</text>
<text text-anchor="middle" x="254" y="-95.5" font-family="Helvetica,sans-Serif" font-size="10.00">TreeNode.Activate</text>
</a>
</g>
</g>
<!-- Node1&#45;&gt;Node2 -->
<g id="edge1" class="edge">
<title>Node1&#45;&gt;Node2</title>
<path fill="none" stroke="midnightblue" d="M369.96,-76.88C353.41,-80.71 336,-84.74 319.89,-88.47"/>
<polygon fill="midnightblue" stroke="midnightblue" points="371.19,-80.19 380.14,-74.52 369.61,-73.37 371.19,-80.19"/>
</g>
<!-- Node3 -->
<g id="node3" class="node">
<title>Node3</title>
<g id="a_node3"><a xlink:href="class_u_i_1_1_science_tree_1_1_science_tree_node_u_i.html#adec2aaeae637f93c3fc8494512f182be" target="_top" xlink:title=" ">
<polygon fill="white" stroke="black" points="0,-44.5 0,-74.5 140,-74.5 140,-44.5 0,-44.5"/>
<text text-anchor="start" x="8" y="-62.5" font-family="Helvetica,sans-Serif" font-size="10.00">UI.ScienceTree.ScienceTree</text>
<text text-anchor="middle" x="70" y="-51.5" font-family="Helvetica,sans-Serif" font-size="10.00">NodeUI.OnClick</text>
</a>
</g>
</g>
<!-- Node1&#45;&gt;Node3 -->
<g id="edge5" class="edge">
<title>Node1&#45;&gt;Node3</title>
<path fill="none" stroke="midnightblue" d="M357.94,-59.5C291.6,-59.5 201.49,-59.5 140.07,-59.5"/>
<polygon fill="midnightblue" stroke="midnightblue" points="357.96,-63 367.96,-59.5 357.96,-56 357.96,-63"/>
</g>
<!-- Node4 -->
<g id="node4" class="node">
<title>Node4</title>
<g id="a_node4"><a xlink:href="class_u_i_1_1_science_tree_1_1_science_tree_node_u_i.html#a7c5df7ab53b3697de043830984a570bc" target="_top" xlink:title=" ">
<polygon fill="white" stroke="black" points="184,-0.5 184,-30.5 324,-30.5 324,-0.5 184,-0.5"/>
<text text-anchor="start" x="192" y="-18.5" font-family="Helvetica,sans-Serif" font-size="10.00">UI.ScienceTree.ScienceTree</text>
<text text-anchor="middle" x="254" y="-7.5" font-family="Helvetica,sans-Serif" font-size="10.00">NodeUI.CheckActivatable</text>
</a>
</g>
</g>
<!-- Node1&#45;&gt;Node4 -->
<g id="edge3" class="edge">
<title>Node1&#45;&gt;Node4</title>
<path fill="none" stroke="midnightblue" d="M369.96,-42.12C353.41,-38.29 336,-34.26 319.89,-30.53"/>
<polygon fill="midnightblue" stroke="midnightblue" points="369.61,-45.63 380.14,-44.48 371.19,-38.81 369.61,-45.63"/>
</g>
<!-- Node2&#45;&gt;Node3 -->
<g id="edge2" class="edge">
<title>Node2&#45;&gt;Node3</title>
<path fill="none" stroke="midnightblue" d="M181.12,-86.12C165.26,-82.29 148.59,-78.26 133.15,-74.53"/>
<polygon fill="midnightblue" stroke="midnightblue" points="180.33,-89.53 190.87,-88.48 181.98,-82.73 180.33,-89.53"/>
</g>
<!-- Node4&#45;&gt;Node3 -->
<g id="edge4" class="edge">
<title>Node4&#45;&gt;Node3</title>
<path fill="none" stroke="midnightblue" d="M181.12,-32.88C165.26,-36.71 148.59,-40.74 133.15,-44.47"/>
<polygon fill="midnightblue" stroke="midnightblue" points="181.98,-36.27 190.87,-30.52 180.33,-29.47 181.98,-36.27"/>
</g>
</g>
</svg>
