<?xml version="1.0" encoding="UTF-8" standalone="no"?>
<!DOCTYPE svg PUBLIC "-//W3C//DTD SVG 1.1//EN"
 "http://www.w3.org/Graphics/SVG/1.1/DTD/svg11.dtd">
<!-- Generated by graphviz version 2.47.1 (20210417.1919)
 -->
<!-- Title: Player.PollutionPlayerAI Pages: 1 -->
<svg width="515pt" height="1450pt"
 viewBox="0.00 0.00 514.54 1450.00" xmlns="http://www.w3.org/2000/svg" xmlns:xlink="http://www.w3.org/1999/xlink">
<g id="graph0" class="graph" transform="scale(1 1) rotate(0) translate(4 1446)">
<title>Player.PollutionPlayerAI</title>
<polygon fill="white" stroke="transparent" points="-4,4 -4,-1446 510.54,-1446 510.54,4 -4,4"/>
<!-- Node1 -->
<g id="node1" class="node">
<title>Node1</title>
<g id="a_node1"><a xlink:title=" ">
<polygon fill="#bfbfbf" stroke="black" points="13.54,-72 13.54,-129 135.54,-129 135.54,-72 13.54,-72"/>
<text text-anchor="middle" x="74.54" y="-117" font-family="Helvetica,sans-Serif" font-size="10.00">Player.PollutionPlayerAI</text>
<polyline fill="none" stroke="black" points="13.54,-110 135.54,-110 "/>
<text text-anchor="middle" x="74.54" y="-98" font-family="Helvetica,sans-Serif" font-size="10.00"> </text>
<polyline fill="none" stroke="black" points="13.54,-91 135.54,-91 "/>
<text text-anchor="middle" x="74.54" y="-79" font-family="Helvetica,sans-Serif" font-size="10.00"> </text>
</a>
</g>
</g>
<!-- Node2 -->
<g id="node2" class="node">
<title>Node2</title>
<g id="a_node2"><a xlink:href="class_player_1_1_player_a_i.html" target="_top" xlink:title="敌人AI">
<polygon fill="white" stroke="black" points="14.04,-365 14.04,-510 135.04,-510 135.04,-365 14.04,-365"/>
<text text-anchor="middle" x="74.54" y="-498" font-family="Helvetica,sans-Serif" font-size="10.00">PlayerAI</text>
<polyline fill="none" stroke="black" points="14.04,-491 135.04,-491 "/>
<text text-anchor="start" x="22.04" y="-479" font-family="Helvetica,sans-Serif" font-size="10.00">+ bool[] enableRoads</text>
<text text-anchor="start" x="22.04" y="-468" font-family="Helvetica,sans-Serif" font-size="10.00">+ float aiRestTime</text>
<text text-anchor="start" x="22.04" y="-457" font-family="Helvetica,sans-Serif" font-size="10.00"># bool _isColdDown</text>
<polyline fill="none" stroke="black" points="14.04,-450 135.04,-450 "/>
<text text-anchor="start" x="22.04" y="-438" font-family="Helvetica,sans-Serif" font-size="10.00"># void Start()</text>
<text text-anchor="start" x="22.04" y="-427" font-family="Helvetica,sans-Serif" font-size="10.00"># void Update()</text>
<text text-anchor="start" x="22.04" y="-416" font-family="Helvetica,sans-Serif" font-size="10.00"># virtual void AIGaming()</text>
<text text-anchor="start" x="22.04" y="-405" font-family="Helvetica,sans-Serif" font-size="10.00"># void CountEnemy()</text>
<text text-anchor="start" x="22.04" y="-394" font-family="Helvetica,sans-Serif" font-size="10.00"># void DispatchUnits()</text>
<text text-anchor="start" x="22.04" y="-383" font-family="Helvetica,sans-Serif" font-size="10.00"># void DispatchUnits</text>
<text text-anchor="start" x="22.04" y="-372" font-family="Helvetica,sans-Serif" font-size="10.00">(int num)</text>
</a>
</g>
</g>
<!-- Node2&#45;&gt;Node1 -->
<g id="edge1" class="edge">
<title>Node2&#45;&gt;Node1</title>
<path fill="none" stroke="midnightblue" d="M74.54,-354.5C74.54,-281.17 74.54,-177.99 74.54,-129.17"/>
<polygon fill="none" stroke="midnightblue" points="71.04,-354.63 74.54,-364.63 78.04,-354.63 71.04,-354.63"/>
</g>
<!-- Node3 -->
<g id="node3" class="node">
<title>Node3</title>
<g id="a_node3"><a xlink:title=" ">
<polygon fill="white" stroke="#bfbfbf" points="165.04,-1384.5 165.04,-1441.5 248.04,-1441.5 248.04,-1384.5 165.04,-1384.5"/>
<text text-anchor="middle" x="206.54" y="-1429.5" font-family="Helvetica,sans-Serif" font-size="10.00">MonoBehaviour</text>
<polyline fill="none" stroke="#bfbfbf" points="165.04,-1422.5 248.04,-1422.5 "/>
<text text-anchor="middle" x="206.54" y="-1410.5" font-family="Helvetica,sans-Serif" font-size="10.00"> </text>
<polyline fill="none" stroke="#bfbfbf" points="165.04,-1403.5 248.04,-1403.5 "/>
<text text-anchor="middle" x="206.54" y="-1391.5" font-family="Helvetica,sans-Serif" font-size="10.00"> </text>
</a>
</g>
</g>
<!-- Node3&#45;&gt;Node2 -->
<g id="edge2" class="edge">
<title>Node3&#45;&gt;Node2</title>
<path fill="none" stroke="midnightblue" d="M155.69,-1394.6C133.83,-1384.34 110.38,-1368.97 97.54,-1347 -61.96,-1074.27 13.99,-672.32 54.64,-510.19"/>
<polygon fill="none" stroke="midnightblue" points="154.36,-1397.85 164.93,-1398.69 157.2,-1391.45 154.36,-1397.85"/>
</g>
<!-- Node4 -->
<g id="node4" class="node">
<title>Node4</title>
<g id="a_node4"><a xlink:href="class_player_1_1_player.html" target="_top" xlink:title="玩家">
<polygon fill="white" stroke="black" points="106.54,-684.5 106.54,-1346.5 306.54,-1346.5 306.54,-684.5 106.54,-684.5"/>
<text text-anchor="middle" x="206.54" y="-1334.5" font-family="Helvetica,sans-Serif" font-size="10.00">Player.Player</text>
<polyline fill="none" stroke="black" points="106.54,-1327.5 306.54,-1327.5 "/>
<text text-anchor="start" x="114.54" y="-1315.5" font-family="Helvetica,sans-Serif" font-size="10.00">+ UnityEvent playerDeadEvent</text>
<text text-anchor="start" x="114.54" y="-1304.5" font-family="Helvetica,sans-Serif" font-size="10.00">+ UnityAction updateEventHandler</text>
<text text-anchor="start" x="114.54" y="-1293.5" font-family="Helvetica,sans-Serif" font-size="10.00">+ bool enableFarmer</text>
<text text-anchor="start" x="114.54" y="-1282.5" font-family="Helvetica,sans-Serif" font-size="10.00">+ Transform[] resourceTransform</text>
<text text-anchor="start" x="114.54" y="-1271.5" font-family="Helvetica,sans-Serif" font-size="10.00">+ int[] resourceProduct</text>
<text text-anchor="start" x="114.54" y="-1260.5" font-family="Helvetica,sans-Serif" font-size="10.00">+ float resourceProducingTime</text>
<text text-anchor="start" x="114.54" y="-1249.5" font-family="Helvetica,sans-Serif" font-size="10.00">+ bool isEnemy</text>
<text text-anchor="start" x="114.54" y="-1238.5" font-family="Helvetica,sans-Serif" font-size="10.00">+ int[] availableUnits</text>
<text text-anchor="start" x="114.54" y="-1227.5" font-family="Helvetica,sans-Serif" font-size="10.00">+ List&lt; Unit &gt; UnitsList</text>
<text text-anchor="start" x="114.54" y="-1216.5" font-family="Helvetica,sans-Serif" font-size="10.00">+ int HP</text>
<text text-anchor="start" x="114.54" y="-1205.5" font-family="Helvetica,sans-Serif" font-size="10.00">+ int Food</text>
<text text-anchor="start" x="114.54" y="-1194.5" font-family="Helvetica,sans-Serif" font-size="10.00">+ int Wood</text>
<text text-anchor="start" x="114.54" y="-1183.5" font-family="Helvetica,sans-Serif" font-size="10.00">+ int Gold</text>
<text text-anchor="start" x="114.54" y="-1172.5" font-family="Helvetica,sans-Serif" font-size="10.00">+ Transform Top</text>
<text text-anchor="start" x="114.54" y="-1161.5" font-family="Helvetica,sans-Serif" font-size="10.00">+ Transform Mid</text>
<text text-anchor="start" x="114.54" y="-1150.5" font-family="Helvetica,sans-Serif" font-size="10.00">+ Transform Bot</text>
<text text-anchor="start" x="114.54" y="-1139.5" font-family="Helvetica,sans-Serif" font-size="10.00">+ int MaxFarmerNumber</text>
<text text-anchor="start" x="114.54" y="-1128.5" font-family="Helvetica,sans-Serif" font-size="10.00">+ int FarmerCount</text>
<text text-anchor="start" x="114.54" y="-1117.5" font-family="Helvetica,sans-Serif" font-size="10.00">+ int DispatchableFarmer</text>
<text text-anchor="start" x="114.54" y="-1106.5" font-family="Helvetica,sans-Serif" font-size="10.00">+ int[] RoadFarmers</text>
<text text-anchor="start" x="114.54" y="-1095.5" font-family="Helvetica,sans-Serif" font-size="10.00">+ int[] RoadWorkingFarmers</text>
<polyline fill="none" stroke="black" points="106.54,-1088.5 306.54,-1088.5 "/>
<text text-anchor="start" x="114.54" y="-1076.5" font-family="Helvetica,sans-Serif" font-size="10.00">+ virtual void UpdateLocal</text>
<text text-anchor="start" x="114.54" y="-1065.5" font-family="Helvetica,sans-Serif" font-size="10.00">PlayerProperties()</text>
<text text-anchor="start" x="114.54" y="-1054.5" font-family="Helvetica,sans-Serif" font-size="10.00">+ virtual void ChangeResource</text>
<text text-anchor="start" x="114.54" y="-1043.5" font-family="Helvetica,sans-Serif" font-size="10.00">(GameResourceType gameResourceType,</text>
<text text-anchor="start" x="114.54" y="-1032.5" font-family="Helvetica,sans-Serif" font-size="10.00"> int count)</text>
<text text-anchor="start" x="114.54" y="-1021.5" font-family="Helvetica,sans-Serif" font-size="10.00">+ bool IsEnoughForUnit</text>
<text text-anchor="start" x="114.54" y="-1010.5" font-family="Helvetica,sans-Serif" font-size="10.00">(Unit unit)</text>
<text text-anchor="start" x="114.54" y="-999.5" font-family="Helvetica,sans-Serif" font-size="10.00">+ bool IsEnoughForUnit</text>
<text text-anchor="start" x="114.54" y="-988.5" font-family="Helvetica,sans-Serif" font-size="10.00">(Unit unit, GameResourceType</text>
<text text-anchor="start" x="114.54" y="-977.5" font-family="Helvetica,sans-Serif" font-size="10.00"> gameResourceType)</text>
<text text-anchor="start" x="114.54" y="-966.5" font-family="Helvetica,sans-Serif" font-size="10.00">+ virtual void AddFarmer</text>
<text text-anchor="start" x="114.54" y="-955.5" font-family="Helvetica,sans-Serif" font-size="10.00">(GameResourceType rs)</text>
<text text-anchor="start" x="114.54" y="-944.5" font-family="Helvetica,sans-Serif" font-size="10.00">+ virtual void SubtractFarmer</text>
<text text-anchor="start" x="114.54" y="-933.5" font-family="Helvetica,sans-Serif" font-size="10.00">(GameResourceType rs)</text>
<text text-anchor="start" x="114.54" y="-922.5" font-family="Helvetica,sans-Serif" font-size="10.00">+ void InstantiateFarmer</text>
<text text-anchor="start" x="114.54" y="-911.5" font-family="Helvetica,sans-Serif" font-size="10.00">(Road rd, Transform transform,</text>
<text text-anchor="start" x="114.54" y="-900.5" font-family="Helvetica,sans-Serif" font-size="10.00"> int resourceCarried)</text>
<text text-anchor="start" x="114.54" y="-889.5" font-family="Helvetica,sans-Serif" font-size="10.00">+ void FarmerBack(Farmer</text>
<text text-anchor="start" x="114.54" y="-878.5" font-family="Helvetica,sans-Serif" font-size="10.00"> farmer, Transform tr)</text>
<text text-anchor="start" x="114.54" y="-867.5" font-family="Helvetica,sans-Serif" font-size="10.00">+ int CountUnits(UnitType</text>
<text text-anchor="start" x="114.54" y="-856.5" font-family="Helvetica,sans-Serif" font-size="10.00"> type)</text>
<text text-anchor="start" x="114.54" y="-845.5" font-family="Helvetica,sans-Serif" font-size="10.00">+ void SetUnits(Vector3</text>
<text text-anchor="start" x="114.54" y="-834.5" font-family="Helvetica,sans-Serif" font-size="10.00"> tr, int chosenUnit,</text>
<text text-anchor="start" x="114.54" y="-823.5" font-family="Helvetica,sans-Serif" font-size="10.00"> Road rd, int number)</text>
<text text-anchor="start" x="114.54" y="-812.5" font-family="Helvetica,sans-Serif" font-size="10.00">+ void SetUnits(Vector3</text>
<text text-anchor="start" x="114.54" y="-801.5" font-family="Helvetica,sans-Serif" font-size="10.00"> tr, int chosenUnit,</text>
<text text-anchor="start" x="114.54" y="-790.5" font-family="Helvetica,sans-Serif" font-size="10.00"> Road rd, int number,</text>
<text text-anchor="start" x="114.54" y="-779.5" font-family="Helvetica,sans-Serif" font-size="10.00"> Vector3 oriVelocity)</text>
<text text-anchor="start" x="114.54" y="-768.5" font-family="Helvetica,sans-Serif" font-size="10.00">+ virtual void Instantiate</text>
<text text-anchor="start" x="114.54" y="-757.5" font-family="Helvetica,sans-Serif" font-size="10.00">Unit(int chosenUnit, Road</text>
<text text-anchor="start" x="114.54" y="-746.5" font-family="Helvetica,sans-Serif" font-size="10.00"> rd, Vector3 oriPoint)</text>
<text text-anchor="start" x="114.54" y="-735.5" font-family="Helvetica,sans-Serif" font-size="10.00">+ virtual void Instantiate</text>
<text text-anchor="start" x="114.54" y="-724.5" font-family="Helvetica,sans-Serif" font-size="10.00">Unit(int chosenUnit, Road</text>
<text text-anchor="start" x="114.54" y="-713.5" font-family="Helvetica,sans-Serif" font-size="10.00"> rd, Vector3 oriPoint, Vector3</text>
<text text-anchor="start" x="114.54" y="-702.5" font-family="Helvetica,sans-Serif" font-size="10.00"> oriVelocity)</text>
<text text-anchor="start" x="114.54" y="-691.5" font-family="Helvetica,sans-Serif" font-size="10.00"># virtual void Start()</text>
</a>
</g>
</g>
<!-- Node3&#45;&gt;Node4 -->
<g id="edge4" class="edge">
<title>Node3&#45;&gt;Node4</title>
<path fill="none" stroke="midnightblue" d="M206.54,-1374.12C206.54,-1365.98 206.54,-1356.75 206.54,-1346.68"/>
<polygon fill="none" stroke="midnightblue" points="203.04,-1374.19 206.54,-1384.19 210.04,-1374.19 203.04,-1374.19"/>
</g>
<!-- Node6 -->
<g id="node6" class="node">
<title>Node6</title>
<g id="a_node6"><a xlink:href="class_units_1_1_unit.html" target="_top" xlink:title="单位">
<polygon fill="white" stroke="black" points="317.54,-238.5 317.54,-636.5 483.54,-636.5 483.54,-238.5 317.54,-238.5"/>
<text text-anchor="middle" x="400.54" y="-624.5" font-family="Helvetica,sans-Serif" font-size="10.00">Unit</text>
<polyline fill="none" stroke="black" points="317.54,-617.5 483.54,-617.5 "/>
<text text-anchor="start" x="325.54" y="-605.5" font-family="Helvetica,sans-Serif" font-size="10.00">+ int defence</text>
<text text-anchor="start" x="325.54" y="-594.5" font-family="Helvetica,sans-Serif" font-size="10.00">+ bool isUnmovable</text>
<text text-anchor="start" x="325.54" y="-583.5" font-family="Helvetica,sans-Serif" font-size="10.00">+ int playerOwnMax</text>
<text text-anchor="start" x="325.54" y="-572.5" font-family="Helvetica,sans-Serif" font-size="10.00">+ Rigidbody unitRigidbody</text>
<text text-anchor="start" x="325.54" y="-561.5" font-family="Helvetica,sans-Serif" font-size="10.00">+ Road road</text>
<text text-anchor="start" x="325.54" y="-550.5" font-family="Helvetica,sans-Serif" font-size="10.00">+ UnitType unitType</text>
<text text-anchor="start" x="325.54" y="-539.5" font-family="Helvetica,sans-Serif" font-size="10.00">+ int costFood</text>
<text text-anchor="start" x="325.54" y="-528.5" font-family="Helvetica,sans-Serif" font-size="10.00">+ int costWood</text>
<text text-anchor="start" x="325.54" y="-517.5" font-family="Helvetica,sans-Serif" font-size="10.00">+ int costGold</text>
<text text-anchor="start" x="325.54" y="-506.5" font-family="Helvetica,sans-Serif" font-size="10.00">+ bool isDieImmediately</text>
<text text-anchor="start" x="325.54" y="-495.5" font-family="Helvetica,sans-Serif" font-size="10.00">+ int deathReward</text>
<text text-anchor="start" x="325.54" y="-484.5" font-family="Helvetica,sans-Serif" font-size="10.00">+ UnityEvent&lt; GameObject,</text>
<text text-anchor="start" x="325.54" y="-473.5" font-family="Helvetica,sans-Serif" font-size="10.00"> Transform &gt; navStopEventHandler</text>
<text text-anchor="start" x="325.54" y="-462.5" font-family="Helvetica,sans-Serif" font-size="10.00">+ UnityEvent&lt; Player.Player,</text>
<text text-anchor="start" x="325.54" y="-451.5" font-family="Helvetica,sans-Serif" font-size="10.00"> IMilitaryUnit &gt; UnitDeathEvent</text>
<text text-anchor="start" x="325.54" y="-440.5" font-family="Helvetica,sans-Serif" font-size="10.00">Handler</text>
<text text-anchor="start" x="325.54" y="-429.5" font-family="Helvetica,sans-Serif" font-size="10.00">+ int??? HP</text>
<text text-anchor="start" x="325.54" y="-418.5" font-family="Helvetica,sans-Serif" font-size="10.00">+ float Speed</text>
<text text-anchor="start" x="325.54" y="-407.5" font-family="Helvetica,sans-Serif" font-size="10.00">+ Transform InitTarget</text>
<text text-anchor="start" x="325.54" y="-396.5" font-family="Helvetica,sans-Serif" font-size="10.00">+ bool IsAtEnemyDoor</text>
<text text-anchor="start" x="325.54" y="-385.5" font-family="Helvetica,sans-Serif" font-size="10.00"># bool Death</text>
<text text-anchor="start" x="325.54" y="-374.5" font-family="Helvetica,sans-Serif" font-size="10.00"># UnityEvent StartEventHandler</text>
<text text-anchor="start" x="325.54" y="-363.5" font-family="Helvetica,sans-Serif" font-size="10.00"># UnityEvent&lt; IMilitaryUnit</text>
<text text-anchor="start" x="325.54" y="-352.5" font-family="Helvetica,sans-Serif" font-size="10.00"> &gt; BeAttackedEventHandler</text>
<polyline fill="none" stroke="black" points="317.54,-345.5 483.54,-345.5 "/>
<text text-anchor="start" x="325.54" y="-333.5" font-family="Helvetica,sans-Serif" font-size="10.00">+ virtual void Start()</text>
<text text-anchor="start" x="325.54" y="-322.5" font-family="Helvetica,sans-Serif" font-size="10.00">+ virtual void Update()</text>
<text text-anchor="start" x="325.54" y="-311.5" font-family="Helvetica,sans-Serif" font-size="10.00">+ virtual void BeAttacked</text>
<text text-anchor="start" x="325.54" y="-300.5" font-family="Helvetica,sans-Serif" font-size="10.00">(IMilitaryUnit attacker)</text>
<text text-anchor="start" x="325.54" y="-289.5" font-family="Helvetica,sans-Serif" font-size="10.00"># virtual void Awake()</text>
<text text-anchor="start" x="325.54" y="-278.5" font-family="Helvetica,sans-Serif" font-size="10.00"># void Goto(Transform tr)</text>
<text text-anchor="start" x="325.54" y="-267.5" font-family="Helvetica,sans-Serif" font-size="10.00"># static float GetTwoPoint</text>
<text text-anchor="start" x="325.54" y="-256.5" font-family="Helvetica,sans-Serif" font-size="10.00">DistanceOnNav(Vector3</text>
<text text-anchor="start" x="325.54" y="-245.5" font-family="Helvetica,sans-Serif" font-size="10.00"> oriPoint, Vector3 targetPoint)</text>
</a>
</g>
</g>
<!-- Node3&#45;&gt;Node6 -->
<g id="edge7" class="edge">
<title>Node3&#45;&gt;Node6</title>
<path fill="none" stroke="midnightblue" d="M257.26,-1394.26C278.97,-1383.96 302.33,-1368.64 315.54,-1347 354,-1284 348.82,-757.3 357.54,-684 359.38,-668.53 361.55,-652.56 363.92,-636.53"/>
<polygon fill="none" stroke="midnightblue" points="255.78,-1391.09 248.09,-1398.38 258.65,-1397.48 255.78,-1391.09"/>
</g>
<!-- Node4&#45;&gt;Node2 -->
<g id="edge3" class="edge">
<title>Node4&#45;&gt;Node2</title>
<path fill="none" stroke="#404040" d="M116.55,-684.05C115.18,-677.99 113.84,-671.97 112.54,-666 102.22,-618.61 93.15,-565.14 86.47,-521.95"/>
<polygon fill="none" stroke="#404040" points="86.47,-521.92 81.61,-516.59 84.65,-510.06 89.51,-515.38 86.47,-521.92"/>
<text text-anchor="middle" x="135.04" y="-658" font-family="Helvetica,sans-Serif" font-size="10.00"> +aiPlayer</text>
</g>
<!-- Node4&#45;&gt;Node6 -->
<g id="edge8" class="edge">
<title>Node4&#45;&gt;Node6</title>
<path fill="none" stroke="#404040" d="M251.03,-684.42C256.59,-674.2 262.74,-664.35 269.54,-655 279.59,-641.17 291.64,-649.28 303.54,-637 305.49,-634.98 307.41,-632.92 309.29,-630.82"/>
<polygon fill="none" stroke="#404040" points="309.59,-630.47 310.43,-623.31 317.36,-621.33 316.52,-628.49 309.59,-630.47"/>
<text text-anchor="middle" x="297.04" y="-658" font-family="Helvetica,sans-Serif" font-size="10.00"> +sidePlayer</text>
</g>
<!-- Node5 -->
<g id="node5" class="node">
<title>Node5</title>
<g id="a_node5"><a xlink:href="class_units_1_1_farmer.html" target="_top" xlink:title="农民">
<polygon fill="white" stroke="black" points="316.04,-0.5 316.04,-200.5 467.04,-200.5 467.04,-0.5 316.04,-0.5"/>
<text text-anchor="middle" x="391.54" y="-188.5" font-family="Helvetica,sans-Serif" font-size="10.00">Units.Farmer</text>
<polyline fill="none" stroke="black" points="316.04,-181.5 467.04,-181.5 "/>
<text text-anchor="start" x="324.04" y="-169.5" font-family="Helvetica,sans-Serif" font-size="10.00">+ float workTime</text>
<text text-anchor="start" x="324.04" y="-158.5" font-family="Helvetica,sans-Serif" font-size="10.00">+ int[] maxLoad</text>
<text text-anchor="start" x="324.04" y="-147.5" font-family="Helvetica,sans-Serif" font-size="10.00">+ UnityAction&lt; Farmer,</text>
<text text-anchor="start" x="324.04" y="-136.5" font-family="Helvetica,sans-Serif" font-size="10.00"> Transform &gt; farmerBackEvent</text>
<text text-anchor="start" x="324.04" y="-125.5" font-family="Helvetica,sans-Serif" font-size="10.00">Handler</text>
<text text-anchor="start" x="324.04" y="-114.5" font-family="Helvetica,sans-Serif" font-size="10.00">+ int ResouceCarried</text>
<text text-anchor="start" x="324.04" y="-103.5" font-family="Helvetica,sans-Serif" font-size="10.00"># Transform _home</text>
<text text-anchor="start" x="324.04" y="-92.5" font-family="Helvetica,sans-Serif" font-size="10.00"># Transform _targerResource</text>
<polyline fill="none" stroke="black" points="316.04,-85.5 467.04,-85.5 "/>
<text text-anchor="start" x="324.04" y="-73.5" font-family="Helvetica,sans-Serif" font-size="10.00">+ override void Start()</text>
<text text-anchor="start" x="324.04" y="-62.5" font-family="Helvetica,sans-Serif" font-size="10.00"># void OnNavStop(GameObject</text>
<text text-anchor="start" x="324.04" y="-51.5" font-family="Helvetica,sans-Serif" font-size="10.00"> gm, Transform tr)</text>
<text text-anchor="start" x="324.04" y="-40.5" font-family="Helvetica,sans-Serif" font-size="10.00"># void GenerateWorkPath()</text>
<text text-anchor="start" x="324.04" y="-29.5" font-family="Helvetica,sans-Serif" font-size="10.00"># virtual void Work()</text>
<text text-anchor="start" x="324.04" y="-18.5" font-family="Helvetica,sans-Serif" font-size="10.00"># void Drop(Farmer farmer,</text>
<text text-anchor="start" x="324.04" y="-7.5" font-family="Helvetica,sans-Serif" font-size="10.00"> Transform tr)</text>
</a>
</g>
</g>
<!-- Node5&#45;&gt;Node4 -->
<g id="edge5" class="edge">
<title>Node5&#45;&gt;Node4</title>
<path fill="none" stroke="#404040" d="M315.88,-184.3C309.81,-190.09 303.66,-195.72 297.54,-201 275.78,-219.76 258.44,-212.86 244.54,-238 233.5,-257.96 223.53,-473.34 216.57,-672.2"/>
<polygon fill="none" stroke="#404040" points="216.56,-672.37 220.35,-678.51 216.14,-684.37 212.35,-678.23 216.56,-672.37"/>
<text text-anchor="middle" x="276.54" y="-435" font-family="Helvetica,sans-Serif" font-size="10.00"> +farmerPrefab</text>
</g>
<!-- Node6&#45;&gt;Node5 -->
<g id="edge6" class="edge">
<title>Node6&#45;&gt;Node5</title>
<path fill="none" stroke="midnightblue" d="M394.94,-228.05C394.69,-218.73 394.44,-209.58 394.2,-200.74"/>
<polygon fill="none" stroke="midnightblue" points="391.44,-228.34 395.21,-238.24 398.44,-228.15 391.44,-228.34"/>
</g>
<!-- Node8 -->
<g id="node8" class="node">
<title>Node8</title>
<g id="a_node8"><a xlink:href="class_units_1_1_door.html" target="_top" xlink:title="基地门">
<polygon fill="white" stroke="black" points="170.54,-66.5 170.54,-134.5 288.54,-134.5 288.54,-66.5 170.54,-66.5"/>
<text text-anchor="middle" x="229.54" y="-122.5" font-family="Helvetica,sans-Serif" font-size="10.00">Units.Door</text>
<polyline fill="none" stroke="black" points="170.54,-115.5 288.54,-115.5 "/>
<text text-anchor="middle" x="229.54" y="-103.5" font-family="Helvetica,sans-Serif" font-size="10.00"> </text>
<polyline fill="none" stroke="black" points="170.54,-96.5 288.54,-96.5 "/>
<text text-anchor="start" x="178.54" y="-84.5" font-family="Helvetica,sans-Serif" font-size="10.00">+ override void Start()</text>
<text text-anchor="start" x="178.54" y="-73.5" font-family="Helvetica,sans-Serif" font-size="10.00">+ override void Update()</text>
</a>
</g>
</g>
<!-- Node6&#45;&gt;Node8 -->
<g id="edge11" class="edge">
<title>Node6&#45;&gt;Node8</title>
<path fill="none" stroke="midnightblue" d="M312.91,-256.34C309.77,-250.14 306.64,-244.01 303.54,-238 285.21,-202.41 263.24,-162.18 248.03,-134.67"/>
<polygon fill="none" stroke="midnightblue" points="309.89,-258.12 317.53,-265.46 316.14,-254.96 309.89,-258.12"/>
</g>
<!-- Node7 -->
<g id="node7" class="node">
<title>Node7</title>
<g id="a_node7"><a xlink:href="interface_units_1_1_i_military_unit.html" target="_top" xlink:title="攻击性单位接口">
<polygon fill="white" stroke="black" points="366.54,-926.5 366.54,-1104.5 506.54,-1104.5 506.54,-926.5 366.54,-926.5"/>
<text text-anchor="middle" x="436.54" y="-1092.5" font-family="Helvetica,sans-Serif" font-size="10.00">Units.IMilitaryUnit</text>
<polyline fill="none" stroke="black" points="366.54,-1085.5 506.54,-1085.5 "/>
<text text-anchor="start" x="374.54" y="-1073.5" font-family="Helvetica,sans-Serif" font-size="10.00">+ int AttackValue</text>
<text text-anchor="start" x="374.54" y="-1062.5" font-family="Helvetica,sans-Serif" font-size="10.00">+ float AttackColdDownTime</text>
<text text-anchor="start" x="374.54" y="-1051.5" font-family="Helvetica,sans-Serif" font-size="10.00">+ float AttackRange</text>
<text text-anchor="start" x="374.54" y="-1040.5" font-family="Helvetica,sans-Serif" font-size="10.00">+ int DefenceValue</text>
<text text-anchor="start" x="374.54" y="-1029.5" font-family="Helvetica,sans-Serif" font-size="10.00">+ float SpeedValue</text>
<text text-anchor="start" x="374.54" y="-1018.5" font-family="Helvetica,sans-Serif" font-size="10.00">+ Vector3 OriginalVelocity</text>
<text text-anchor="start" x="374.54" y="-1007.5" font-family="Helvetica,sans-Serif" font-size="10.00">+ Player.Player SidePlayer</text>
<text text-anchor="start" x="374.54" y="-996.5" font-family="Helvetica,sans-Serif" font-size="10.00">+ UnityEvent&lt; Unit &gt;</text>
<text text-anchor="start" x="374.54" y="-985.5" font-family="Helvetica,sans-Serif" font-size="10.00"> AttackEvent</text>
<text text-anchor="start" x="374.54" y="-974.5" font-family="Helvetica,sans-Serif" font-size="10.00">+ UnityEvent&lt; IMilitaryUnit</text>
<text text-anchor="start" x="374.54" y="-963.5" font-family="Helvetica,sans-Serif" font-size="10.00"> &gt; UnderAttackedEvent</text>
<polyline fill="none" stroke="black" points="366.54,-956.5 506.54,-956.5 "/>
<text text-anchor="start" x="374.54" y="-944.5" font-family="Helvetica,sans-Serif" font-size="10.00">+ void Attack()</text>
<text text-anchor="start" x="374.54" y="-933.5" font-family="Helvetica,sans-Serif" font-size="10.00">+ Unit GetUnit()</text>
</a>
</g>
</g>
<!-- Node7&#45;&gt;Node6 -->
<g id="edge9" class="edge">
<title>Node7&#45;&gt;Node6</title>
<path fill="none" stroke="#404040" d="M431.03,-926.39C426.43,-852.72 419.67,-744.63 413.69,-648.9"/>
<polygon fill="none" stroke="#404040" points="413.67,-648.66 409.31,-642.92 412.92,-636.68 417.29,-642.42 413.67,-648.66"/>
<text text-anchor="middle" x="439.04" y="-658" font-family="Helvetica,sans-Serif" font-size="10.00"> #_attacker</text>
</g>
<!-- Node8&#45;&gt;Node4 -->
<g id="edge10" class="edge">
<title>Node8&#45;&gt;Node4</title>
<path fill="none" stroke="#404040" d="M215.6,-134.72C204.98,-161.93 191.24,-201.72 185.54,-238 163.38,-378.96 163.13,-536.04 170.45,-671.84"/>
<polygon fill="none" stroke="#404040" points="170.47,-672.1 174.8,-677.87 171.14,-684.08 166.81,-678.31 170.47,-672.1"/>
<text text-anchor="middle" x="199.54" y="-435" font-family="Helvetica,sans-Serif" font-size="10.00"> +door</text>
</g>
</g>
</svg>
