<?xml version="1.0" encoding="UTF-8" standalone="no"?>
<!DOCTYPE svg PUBLIC "-//W3C//DTD SVG 1.1//EN"
 "http://www.w3.org/Graphics/SVG/1.1/DTD/svg11.dtd">
<!-- Generated by graphviz version 2.47.1 (20210417.1919)
 -->
<!-- Title: GameManager.UnitDict Pages: 1 -->
<svg width="591pt" height="1460pt"
 viewBox="0.00 0.00 591.18 1460.00" xmlns="http://www.w3.org/2000/svg" xmlns:xlink="http://www.w3.org/1999/xlink">
<g id="graph0" class="graph" transform="scale(1 1) rotate(0) translate(4 1456)">
<title>GameManager.UnitDict</title>
<polygon fill="white" stroke="transparent" points="-4,4 -4,-1456 587.18,-1456 587.18,4 -4,4"/>
<!-- Node1 -->
<g id="node1" class="node">
<title>Node1</title>
<g id="a_node1"><a xlink:title=" ">
<polygon fill="#bfbfbf" stroke="black" points="47.89,-72 47.89,-129 165.89,-129 165.89,-72 47.89,-72"/>
<text text-anchor="middle" x="106.89" y="-117" font-family="Helvetica,sans-Serif" font-size="10.00">GameManager.UnitDict</text>
<polyline fill="none" stroke="black" points="47.89,-110 165.89,-110 "/>
<text text-anchor="start" x="55.89" y="-98" font-family="Helvetica,sans-Serif" font-size="10.00">+ bool IsEnemy</text>
<polyline fill="none" stroke="black" points="47.89,-91 165.89,-91 "/>
<text text-anchor="middle" x="106.89" y="-79" font-family="Helvetica,sans-Serif" font-size="10.00"> </text>
</a>
</g>
</g>
<!-- Node2 -->
<g id="node2" class="node">
<title>Node2</title>
<g id="a_node2"><a xlink:href="class_units_1_1_unit.html" target="_top" xlink:title="单位">
<polygon fill="white" stroke="black" points="23.89,-248.5 23.89,-646.5 189.89,-646.5 189.89,-248.5 23.89,-248.5"/>
<text text-anchor="middle" x="106.89" y="-634.5" font-family="Helvetica,sans-Serif" font-size="10.00">Units.Unit</text>
<polyline fill="none" stroke="black" points="23.89,-627.5 189.89,-627.5 "/>
<text text-anchor="start" x="31.89" y="-615.5" font-family="Helvetica,sans-Serif" font-size="10.00">+ int defence</text>
<text text-anchor="start" x="31.89" y="-604.5" font-family="Helvetica,sans-Serif" font-size="10.00">+ bool isUnmovable</text>
<text text-anchor="start" x="31.89" y="-593.5" font-family="Helvetica,sans-Serif" font-size="10.00">+ int playerOwnMax</text>
<text text-anchor="start" x="31.89" y="-582.5" font-family="Helvetica,sans-Serif" font-size="10.00">+ Rigidbody unitRigidbody</text>
<text text-anchor="start" x="31.89" y="-571.5" font-family="Helvetica,sans-Serif" font-size="10.00">+ Road road</text>
<text text-anchor="start" x="31.89" y="-560.5" font-family="Helvetica,sans-Serif" font-size="10.00">+ UnitType unitType</text>
<text text-anchor="start" x="31.89" y="-549.5" font-family="Helvetica,sans-Serif" font-size="10.00">+ int costFood</text>
<text text-anchor="start" x="31.89" y="-538.5" font-family="Helvetica,sans-Serif" font-size="10.00">+ int costWood</text>
<text text-anchor="start" x="31.89" y="-527.5" font-family="Helvetica,sans-Serif" font-size="10.00">+ int costGold</text>
<text text-anchor="start" x="31.89" y="-516.5" font-family="Helvetica,sans-Serif" font-size="10.00">+ bool isDieImmediately</text>
<text text-anchor="start" x="31.89" y="-505.5" font-family="Helvetica,sans-Serif" font-size="10.00">+ int deathReward</text>
<text text-anchor="start" x="31.89" y="-494.5" font-family="Helvetica,sans-Serif" font-size="10.00">+ UnityEvent&lt; GameObject,</text>
<text text-anchor="start" x="31.89" y="-483.5" font-family="Helvetica,sans-Serif" font-size="10.00"> Transform &gt; navStopEventHandler</text>
<text text-anchor="start" x="31.89" y="-472.5" font-family="Helvetica,sans-Serif" font-size="10.00">+ UnityEvent&lt; Player.Player,</text>
<text text-anchor="start" x="31.89" y="-461.5" font-family="Helvetica,sans-Serif" font-size="10.00"> IMilitaryUnit &gt; UnitDeathEvent</text>
<text text-anchor="start" x="31.89" y="-450.5" font-family="Helvetica,sans-Serif" font-size="10.00">Handler</text>
<text text-anchor="start" x="31.89" y="-439.5" font-family="Helvetica,sans-Serif" font-size="10.00">+ int??? HP</text>
<text text-anchor="start" x="31.89" y="-428.5" font-family="Helvetica,sans-Serif" font-size="10.00">+ float Speed</text>
<text text-anchor="start" x="31.89" y="-417.5" font-family="Helvetica,sans-Serif" font-size="10.00">+ Transform InitTarget</text>
<text text-anchor="start" x="31.89" y="-406.5" font-family="Helvetica,sans-Serif" font-size="10.00">+ bool IsAtEnemyDoor</text>
<text text-anchor="start" x="31.89" y="-395.5" font-family="Helvetica,sans-Serif" font-size="10.00"># bool Death</text>
<text text-anchor="start" x="31.89" y="-384.5" font-family="Helvetica,sans-Serif" font-size="10.00"># UnityEvent StartEventHandler</text>
<text text-anchor="start" x="31.89" y="-373.5" font-family="Helvetica,sans-Serif" font-size="10.00"># UnityEvent&lt; IMilitaryUnit</text>
<text text-anchor="start" x="31.89" y="-362.5" font-family="Helvetica,sans-Serif" font-size="10.00"> &gt; BeAttackedEventHandler</text>
<polyline fill="none" stroke="black" points="23.89,-355.5 189.89,-355.5 "/>
<text text-anchor="start" x="31.89" y="-343.5" font-family="Helvetica,sans-Serif" font-size="10.00">+ virtual void Start()</text>
<text text-anchor="start" x="31.89" y="-332.5" font-family="Helvetica,sans-Serif" font-size="10.00">+ virtual void Update()</text>
<text text-anchor="start" x="31.89" y="-321.5" font-family="Helvetica,sans-Serif" font-size="10.00">+ virtual void BeAttacked</text>
<text text-anchor="start" x="31.89" y="-310.5" font-family="Helvetica,sans-Serif" font-size="10.00">(IMilitaryUnit attacker)</text>
<text text-anchor="start" x="31.89" y="-299.5" font-family="Helvetica,sans-Serif" font-size="10.00"># virtual void Awake()</text>
<text text-anchor="start" x="31.89" y="-288.5" font-family="Helvetica,sans-Serif" font-size="10.00"># void Goto(Transform tr)</text>
<text text-anchor="start" x="31.89" y="-277.5" font-family="Helvetica,sans-Serif" font-size="10.00"># static float GetTwoPoint</text>
<text text-anchor="start" x="31.89" y="-266.5" font-family="Helvetica,sans-Serif" font-size="10.00">DistanceOnNav(Vector3</text>
<text text-anchor="start" x="31.89" y="-255.5" font-family="Helvetica,sans-Serif" font-size="10.00"> oriPoint, Vector3 targetPoint)</text>
</a>
</g>
</g>
<!-- Node2&#45;&gt;Node1 -->
<g id="edge1" class="edge">
<title>Node2&#45;&gt;Node1</title>
<path fill="none" stroke="#404040" d="M106.89,-248.31C106.89,-207.6 106.89,-168.85 106.89,-141.39"/>
<polygon fill="none" stroke="#404040" points="106.89,-141.23 102.89,-135.23 106.89,-129.23 110.89,-135.23 106.89,-141.23"/>
<text text-anchor="middle" x="134.39" y="-222" font-family="Helvetica,sans-Serif" font-size="10.00"> +UnitPrefab</text>
</g>
<!-- Node3 -->
<g id="node3" class="node">
<title>Node3</title>
<g id="a_node3"><a xlink:title=" ">
<polygon fill="white" stroke="#bfbfbf" points="356.39,-1394.5 356.39,-1451.5 439.39,-1451.5 439.39,-1394.5 356.39,-1394.5"/>
<text text-anchor="middle" x="397.89" y="-1439.5" font-family="Helvetica,sans-Serif" font-size="10.00">MonoBehaviour</text>
<polyline fill="none" stroke="#bfbfbf" points="356.39,-1432.5 439.39,-1432.5 "/>
<text text-anchor="middle" x="397.89" y="-1420.5" font-family="Helvetica,sans-Serif" font-size="10.00"> </text>
<polyline fill="none" stroke="#bfbfbf" points="356.39,-1413.5 439.39,-1413.5 "/>
<text text-anchor="middle" x="397.89" y="-1401.5" font-family="Helvetica,sans-Serif" font-size="10.00"> </text>
</a>
</g>
</g>
<!-- Node3&#45;&gt;Node2 -->
<g id="edge2" class="edge">
<title>Node3&#45;&gt;Node2</title>
<path fill="none" stroke="midnightblue" d="M346.24,-1417.57C272.94,-1410.1 144.44,-1392.23 115.89,-1357 -44.72,-1158.77 -5.96,-848.35 44.35,-646.65"/>
<polygon fill="none" stroke="midnightblue" points="345.9,-1421.05 356.2,-1418.55 346.59,-1414.09 345.9,-1421.05"/>
</g>
<!-- Node4 -->
<g id="node4" class="node">
<title>Node4</title>
<g id="a_node4"><a xlink:href="class_player_1_1_player.html" target="_top" xlink:title="玩家">
<polygon fill="white" stroke="black" points="297.89,-694.5 297.89,-1356.5 497.89,-1356.5 497.89,-694.5 297.89,-694.5"/>
<text text-anchor="middle" x="397.89" y="-1344.5" font-family="Helvetica,sans-Serif" font-size="10.00">Player.Player</text>
<polyline fill="none" stroke="black" points="297.89,-1337.5 497.89,-1337.5 "/>
<text text-anchor="start" x="305.89" y="-1325.5" font-family="Helvetica,sans-Serif" font-size="10.00">+ UnityEvent playerDeadEvent</text>
<text text-anchor="start" x="305.89" y="-1314.5" font-family="Helvetica,sans-Serif" font-size="10.00">+ UnityAction updateEventHandler</text>
<text text-anchor="start" x="305.89" y="-1303.5" font-family="Helvetica,sans-Serif" font-size="10.00">+ bool enableFarmer</text>
<text text-anchor="start" x="305.89" y="-1292.5" font-family="Helvetica,sans-Serif" font-size="10.00">+ Transform[] resourceTransform</text>
<text text-anchor="start" x="305.89" y="-1281.5" font-family="Helvetica,sans-Serif" font-size="10.00">+ int[] resourceProduct</text>
<text text-anchor="start" x="305.89" y="-1270.5" font-family="Helvetica,sans-Serif" font-size="10.00">+ float resourceProducingTime</text>
<text text-anchor="start" x="305.89" y="-1259.5" font-family="Helvetica,sans-Serif" font-size="10.00">+ bool isEnemy</text>
<text text-anchor="start" x="305.89" y="-1248.5" font-family="Helvetica,sans-Serif" font-size="10.00">+ int[] availableUnits</text>
<text text-anchor="start" x="305.89" y="-1237.5" font-family="Helvetica,sans-Serif" font-size="10.00">+ List&lt; Unit &gt; UnitsList</text>
<text text-anchor="start" x="305.89" y="-1226.5" font-family="Helvetica,sans-Serif" font-size="10.00">+ int HP</text>
<text text-anchor="start" x="305.89" y="-1215.5" font-family="Helvetica,sans-Serif" font-size="10.00">+ int Food</text>
<text text-anchor="start" x="305.89" y="-1204.5" font-family="Helvetica,sans-Serif" font-size="10.00">+ int Wood</text>
<text text-anchor="start" x="305.89" y="-1193.5" font-family="Helvetica,sans-Serif" font-size="10.00">+ int Gold</text>
<text text-anchor="start" x="305.89" y="-1182.5" font-family="Helvetica,sans-Serif" font-size="10.00">+ Transform Top</text>
<text text-anchor="start" x="305.89" y="-1171.5" font-family="Helvetica,sans-Serif" font-size="10.00">+ Transform Mid</text>
<text text-anchor="start" x="305.89" y="-1160.5" font-family="Helvetica,sans-Serif" font-size="10.00">+ Transform Bot</text>
<text text-anchor="start" x="305.89" y="-1149.5" font-family="Helvetica,sans-Serif" font-size="10.00">+ int MaxFarmerNumber</text>
<text text-anchor="start" x="305.89" y="-1138.5" font-family="Helvetica,sans-Serif" font-size="10.00">+ int FarmerCount</text>
<text text-anchor="start" x="305.89" y="-1127.5" font-family="Helvetica,sans-Serif" font-size="10.00">+ int DispatchableFarmer</text>
<text text-anchor="start" x="305.89" y="-1116.5" font-family="Helvetica,sans-Serif" font-size="10.00">+ int[] RoadFarmers</text>
<text text-anchor="start" x="305.89" y="-1105.5" font-family="Helvetica,sans-Serif" font-size="10.00">+ int[] RoadWorkingFarmers</text>
<polyline fill="none" stroke="black" points="297.89,-1098.5 497.89,-1098.5 "/>
<text text-anchor="start" x="305.89" y="-1086.5" font-family="Helvetica,sans-Serif" font-size="10.00">+ virtual void UpdateLocal</text>
<text text-anchor="start" x="305.89" y="-1075.5" font-family="Helvetica,sans-Serif" font-size="10.00">PlayerProperties()</text>
<text text-anchor="start" x="305.89" y="-1064.5" font-family="Helvetica,sans-Serif" font-size="10.00">+ virtual void ChangeResource</text>
<text text-anchor="start" x="305.89" y="-1053.5" font-family="Helvetica,sans-Serif" font-size="10.00">(GameResourceType gameResourceType,</text>
<text text-anchor="start" x="305.89" y="-1042.5" font-family="Helvetica,sans-Serif" font-size="10.00"> int count)</text>
<text text-anchor="start" x="305.89" y="-1031.5" font-family="Helvetica,sans-Serif" font-size="10.00">+ bool IsEnoughForUnit</text>
<text text-anchor="start" x="305.89" y="-1020.5" font-family="Helvetica,sans-Serif" font-size="10.00">(Unit unit)</text>
<text text-anchor="start" x="305.89" y="-1009.5" font-family="Helvetica,sans-Serif" font-size="10.00">+ bool IsEnoughForUnit</text>
<text text-anchor="start" x="305.89" y="-998.5" font-family="Helvetica,sans-Serif" font-size="10.00">(Unit unit, GameResourceType</text>
<text text-anchor="start" x="305.89" y="-987.5" font-family="Helvetica,sans-Serif" font-size="10.00"> gameResourceType)</text>
<text text-anchor="start" x="305.89" y="-976.5" font-family="Helvetica,sans-Serif" font-size="10.00">+ virtual void AddFarmer</text>
<text text-anchor="start" x="305.89" y="-965.5" font-family="Helvetica,sans-Serif" font-size="10.00">(GameResourceType rs)</text>
<text text-anchor="start" x="305.89" y="-954.5" font-family="Helvetica,sans-Serif" font-size="10.00">+ virtual void SubtractFarmer</text>
<text text-anchor="start" x="305.89" y="-943.5" font-family="Helvetica,sans-Serif" font-size="10.00">(GameResourceType rs)</text>
<text text-anchor="start" x="305.89" y="-932.5" font-family="Helvetica,sans-Serif" font-size="10.00">+ void InstantiateFarmer</text>
<text text-anchor="start" x="305.89" y="-921.5" font-family="Helvetica,sans-Serif" font-size="10.00">(Road rd, Transform transform,</text>
<text text-anchor="start" x="305.89" y="-910.5" font-family="Helvetica,sans-Serif" font-size="10.00"> int resourceCarried)</text>
<text text-anchor="start" x="305.89" y="-899.5" font-family="Helvetica,sans-Serif" font-size="10.00">+ void FarmerBack(Farmer</text>
<text text-anchor="start" x="305.89" y="-888.5" font-family="Helvetica,sans-Serif" font-size="10.00"> farmer, Transform tr)</text>
<text text-anchor="start" x="305.89" y="-877.5" font-family="Helvetica,sans-Serif" font-size="10.00">+ int CountUnits(UnitType</text>
<text text-anchor="start" x="305.89" y="-866.5" font-family="Helvetica,sans-Serif" font-size="10.00"> type)</text>
<text text-anchor="start" x="305.89" y="-855.5" font-family="Helvetica,sans-Serif" font-size="10.00">+ void SetUnits(Vector3</text>
<text text-anchor="start" x="305.89" y="-844.5" font-family="Helvetica,sans-Serif" font-size="10.00"> tr, int chosenUnit,</text>
<text text-anchor="start" x="305.89" y="-833.5" font-family="Helvetica,sans-Serif" font-size="10.00"> Road rd, int number)</text>
<text text-anchor="start" x="305.89" y="-822.5" font-family="Helvetica,sans-Serif" font-size="10.00">+ void SetUnits(Vector3</text>
<text text-anchor="start" x="305.89" y="-811.5" font-family="Helvetica,sans-Serif" font-size="10.00"> tr, int chosenUnit,</text>
<text text-anchor="start" x="305.89" y="-800.5" font-family="Helvetica,sans-Serif" font-size="10.00"> Road rd, int number,</text>
<text text-anchor="start" x="305.89" y="-789.5" font-family="Helvetica,sans-Serif" font-size="10.00"> Vector3 oriVelocity)</text>
<text text-anchor="start" x="305.89" y="-778.5" font-family="Helvetica,sans-Serif" font-size="10.00">+ virtual void Instantiate</text>
<text text-anchor="start" x="305.89" y="-767.5" font-family="Helvetica,sans-Serif" font-size="10.00">Unit(int chosenUnit, Road</text>
<text text-anchor="start" x="305.89" y="-756.5" font-family="Helvetica,sans-Serif" font-size="10.00"> rd, Vector3 oriPoint)</text>
<text text-anchor="start" x="305.89" y="-745.5" font-family="Helvetica,sans-Serif" font-size="10.00">+ virtual void Instantiate</text>
<text text-anchor="start" x="305.89" y="-734.5" font-family="Helvetica,sans-Serif" font-size="10.00">Unit(int chosenUnit, Road</text>
<text text-anchor="start" x="305.89" y="-723.5" font-family="Helvetica,sans-Serif" font-size="10.00"> rd, Vector3 oriPoint, Vector3</text>
<text text-anchor="start" x="305.89" y="-712.5" font-family="Helvetica,sans-Serif" font-size="10.00"> oriVelocity)</text>
<text text-anchor="start" x="305.89" y="-701.5" font-family="Helvetica,sans-Serif" font-size="10.00"># virtual void Start()</text>
</a>
</g>
</g>
<!-- Node3&#45;&gt;Node4 -->
<g id="edge4" class="edge">
<title>Node3&#45;&gt;Node4</title>
<path fill="none" stroke="midnightblue" d="M397.89,-1384.12C397.89,-1375.98 397.89,-1366.75 397.89,-1356.68"/>
<polygon fill="none" stroke="midnightblue" points="394.39,-1384.19 397.89,-1394.19 401.39,-1384.19 394.39,-1384.19"/>
</g>
<!-- Node6 -->
<g id="node6" class="node">
<title>Node6</title>
<g id="a_node6"><a xlink:href="class_units_1_1_unit.html" target="_top" xlink:title="单位">
<polygon fill="white" stroke="black" points="345.89,-248.5 345.89,-646.5 511.89,-646.5 511.89,-248.5 345.89,-248.5"/>
<text text-anchor="middle" x="428.89" y="-634.5" font-family="Helvetica,sans-Serif" font-size="10.00">Unit</text>
<polyline fill="none" stroke="black" points="345.89,-627.5 511.89,-627.5 "/>
<text text-anchor="start" x="353.89" y="-615.5" font-family="Helvetica,sans-Serif" font-size="10.00">+ int defence</text>
<text text-anchor="start" x="353.89" y="-604.5" font-family="Helvetica,sans-Serif" font-size="10.00">+ bool isUnmovable</text>
<text text-anchor="start" x="353.89" y="-593.5" font-family="Helvetica,sans-Serif" font-size="10.00">+ int playerOwnMax</text>
<text text-anchor="start" x="353.89" y="-582.5" font-family="Helvetica,sans-Serif" font-size="10.00">+ Rigidbody unitRigidbody</text>
<text text-anchor="start" x="353.89" y="-571.5" font-family="Helvetica,sans-Serif" font-size="10.00">+ Road road</text>
<text text-anchor="start" x="353.89" y="-560.5" font-family="Helvetica,sans-Serif" font-size="10.00">+ UnitType unitType</text>
<text text-anchor="start" x="353.89" y="-549.5" font-family="Helvetica,sans-Serif" font-size="10.00">+ int costFood</text>
<text text-anchor="start" x="353.89" y="-538.5" font-family="Helvetica,sans-Serif" font-size="10.00">+ int costWood</text>
<text text-anchor="start" x="353.89" y="-527.5" font-family="Helvetica,sans-Serif" font-size="10.00">+ int costGold</text>
<text text-anchor="start" x="353.89" y="-516.5" font-family="Helvetica,sans-Serif" font-size="10.00">+ bool isDieImmediately</text>
<text text-anchor="start" x="353.89" y="-505.5" font-family="Helvetica,sans-Serif" font-size="10.00">+ int deathReward</text>
<text text-anchor="start" x="353.89" y="-494.5" font-family="Helvetica,sans-Serif" font-size="10.00">+ UnityEvent&lt; GameObject,</text>
<text text-anchor="start" x="353.89" y="-483.5" font-family="Helvetica,sans-Serif" font-size="10.00"> Transform &gt; navStopEventHandler</text>
<text text-anchor="start" x="353.89" y="-472.5" font-family="Helvetica,sans-Serif" font-size="10.00">+ UnityEvent&lt; Player.Player,</text>
<text text-anchor="start" x="353.89" y="-461.5" font-family="Helvetica,sans-Serif" font-size="10.00"> IMilitaryUnit &gt; UnitDeathEvent</text>
<text text-anchor="start" x="353.89" y="-450.5" font-family="Helvetica,sans-Serif" font-size="10.00">Handler</text>
<text text-anchor="start" x="353.89" y="-439.5" font-family="Helvetica,sans-Serif" font-size="10.00">+ int??? HP</text>
<text text-anchor="start" x="353.89" y="-428.5" font-family="Helvetica,sans-Serif" font-size="10.00">+ float Speed</text>
<text text-anchor="start" x="353.89" y="-417.5" font-family="Helvetica,sans-Serif" font-size="10.00">+ Transform InitTarget</text>
<text text-anchor="start" x="353.89" y="-406.5" font-family="Helvetica,sans-Serif" font-size="10.00">+ bool IsAtEnemyDoor</text>
<text text-anchor="start" x="353.89" y="-395.5" font-family="Helvetica,sans-Serif" font-size="10.00"># bool Death</text>
<text text-anchor="start" x="353.89" y="-384.5" font-family="Helvetica,sans-Serif" font-size="10.00"># UnityEvent StartEventHandler</text>
<text text-anchor="start" x="353.89" y="-373.5" font-family="Helvetica,sans-Serif" font-size="10.00"># UnityEvent&lt; IMilitaryUnit</text>
<text text-anchor="start" x="353.89" y="-362.5" font-family="Helvetica,sans-Serif" font-size="10.00"> &gt; BeAttackedEventHandler</text>
<polyline fill="none" stroke="black" points="345.89,-355.5 511.89,-355.5 "/>
<text text-anchor="start" x="353.89" y="-343.5" font-family="Helvetica,sans-Serif" font-size="10.00">+ virtual void Start()</text>
<text text-anchor="start" x="353.89" y="-332.5" font-family="Helvetica,sans-Serif" font-size="10.00">+ virtual void Update()</text>
<text text-anchor="start" x="353.89" y="-321.5" font-family="Helvetica,sans-Serif" font-size="10.00">+ virtual void BeAttacked</text>
<text text-anchor="start" x="353.89" y="-310.5" font-family="Helvetica,sans-Serif" font-size="10.00">(IMilitaryUnit attacker)</text>
<text text-anchor="start" x="353.89" y="-299.5" font-family="Helvetica,sans-Serif" font-size="10.00"># virtual void Awake()</text>
<text text-anchor="start" x="353.89" y="-288.5" font-family="Helvetica,sans-Serif" font-size="10.00"># void Goto(Transform tr)</text>
<text text-anchor="start" x="353.89" y="-277.5" font-family="Helvetica,sans-Serif" font-size="10.00"># static float GetTwoPoint</text>
<text text-anchor="start" x="353.89" y="-266.5" font-family="Helvetica,sans-Serif" font-size="10.00">DistanceOnNav(Vector3</text>
<text text-anchor="start" x="353.89" y="-255.5" font-family="Helvetica,sans-Serif" font-size="10.00"> oriPoint, Vector3 targetPoint)</text>
</a>
</g>
</g>
<!-- Node3&#45;&gt;Node6 -->
<g id="edge7" class="edge">
<title>Node3&#45;&gt;Node6</title>
<path fill="none" stroke="midnightblue" d="M448.75,-1404.87C470.73,-1394.64 494.28,-1379.21 506.89,-1357 652.42,-1100.78 552.04,-985.19 506.89,-694 504.48,-678.42 501.25,-662.48 497.48,-646.57"/>
<polygon fill="none" stroke="midnightblue" points="447.21,-1401.72 439.45,-1408.94 450.02,-1408.13 447.21,-1401.72"/>
</g>
<!-- Node4&#45;&gt;Node2 -->
<g id="edge3" class="edge">
<title>Node4&#45;&gt;Node2</title>
<path fill="none" stroke="#404040" d="M297.86,-726.47C290.4,-715.13 282.43,-704.24 273.89,-694 263.94,-682.05 254.9,-686.99 243.89,-676 226.93,-659.06 211.21,-639.62 196.92,-619.39"/>
<polygon fill="none" stroke="#404040" points="196.84,-619.28 190.14,-616.62 190.02,-609.41 196.72,-612.07 196.84,-619.28"/>
<text text-anchor="middle" x="271.39" y="-668" font-family="Helvetica,sans-Serif" font-size="10.00"> +sidePlayer</text>
</g>
<!-- Node4&#45;&gt;Node6 -->
<g id="edge8" class="edge">
<title>Node4&#45;&gt;Node6</title>
<path fill="none" stroke="#404040" d="M415.66,-694.45C416.31,-682.41 416.95,-670.48 417.58,-658.73"/>
<polygon fill="none" stroke="#404040" points="417.59,-658.55 413.92,-652.34 418.23,-646.56 421.91,-652.77 417.59,-658.55"/>
<text text-anchor="middle" x="444.39" y="-668" font-family="Helvetica,sans-Serif" font-size="10.00"> +sidePlayer</text>
</g>
<!-- Node5 -->
<g id="node5" class="node">
<title>Node5</title>
<g id="a_node5"><a xlink:href="class_units_1_1_farmer.html" target="_top" xlink:title="农民">
<polygon fill="white" stroke="black" points="235.39,-0.5 235.39,-200.5 386.39,-200.5 386.39,-0.5 235.39,-0.5"/>
<text text-anchor="middle" x="310.89" y="-188.5" font-family="Helvetica,sans-Serif" font-size="10.00">Units.Farmer</text>
<polyline fill="none" stroke="black" points="235.39,-181.5 386.39,-181.5 "/>
<text text-anchor="start" x="243.39" y="-169.5" font-family="Helvetica,sans-Serif" font-size="10.00">+ float workTime</text>
<text text-anchor="start" x="243.39" y="-158.5" font-family="Helvetica,sans-Serif" font-size="10.00">+ int[] maxLoad</text>
<text text-anchor="start" x="243.39" y="-147.5" font-family="Helvetica,sans-Serif" font-size="10.00">+ UnityAction&lt; Farmer,</text>
<text text-anchor="start" x="243.39" y="-136.5" font-family="Helvetica,sans-Serif" font-size="10.00"> Transform &gt; farmerBackEvent</text>
<text text-anchor="start" x="243.39" y="-125.5" font-family="Helvetica,sans-Serif" font-size="10.00">Handler</text>
<text text-anchor="start" x="243.39" y="-114.5" font-family="Helvetica,sans-Serif" font-size="10.00">+ int ResouceCarried</text>
<text text-anchor="start" x="243.39" y="-103.5" font-family="Helvetica,sans-Serif" font-size="10.00"># Transform _home</text>
<text text-anchor="start" x="243.39" y="-92.5" font-family="Helvetica,sans-Serif" font-size="10.00"># Transform _targerResource</text>
<polyline fill="none" stroke="black" points="235.39,-85.5 386.39,-85.5 "/>
<text text-anchor="start" x="243.39" y="-73.5" font-family="Helvetica,sans-Serif" font-size="10.00">+ override void Start()</text>
<text text-anchor="start" x="243.39" y="-62.5" font-family="Helvetica,sans-Serif" font-size="10.00"># void OnNavStop(GameObject</text>
<text text-anchor="start" x="243.39" y="-51.5" font-family="Helvetica,sans-Serif" font-size="10.00"> gm, Transform tr)</text>
<text text-anchor="start" x="243.39" y="-40.5" font-family="Helvetica,sans-Serif" font-size="10.00"># void GenerateWorkPath()</text>
<text text-anchor="start" x="243.39" y="-29.5" font-family="Helvetica,sans-Serif" font-size="10.00"># virtual void Work()</text>
<text text-anchor="start" x="243.39" y="-18.5" font-family="Helvetica,sans-Serif" font-size="10.00"># void Drop(Farmer farmer,</text>
<text text-anchor="start" x="243.39" y="-7.5" font-family="Helvetica,sans-Serif" font-size="10.00"> Transform tr)</text>
</a>
</g>
</g>
<!-- Node5&#45;&gt;Node4 -->
<g id="edge5" class="edge">
<title>Node5&#45;&gt;Node4</title>
<path fill="none" stroke="#404040" d="M281.6,-200.53C277.98,-216.28 274.87,-232.49 272.89,-248 250.45,-423.91 181.42,-495.08 272.89,-647 281.71,-661.65 296.33,-651.55 306.89,-665 311.66,-671.06 316.17,-677.35 320.46,-683.81"/>
<polygon fill="none" stroke="#404040" points="320.57,-683.99 327.16,-686.92 327,-694.13 320.41,-691.2 320.57,-683.99"/>
<text text-anchor="middle" x="304.89" y="-445" font-family="Helvetica,sans-Serif" font-size="10.00"> +farmerPrefab</text>
</g>
<!-- Node6&#45;&gt;Node5 -->
<g id="edge6" class="edge">
<title>Node6&#45;&gt;Node5</title>
<path fill="none" stroke="midnightblue" d="M357.84,-238.76C353.38,-225.71 349.01,-212.93 344.84,-200.76"/>
<polygon fill="none" stroke="midnightblue" points="354.56,-239.98 361.11,-248.31 361.18,-237.72 354.56,-239.98"/>
</g>
<!-- Node8 -->
<g id="node8" class="node">
<title>Node8</title>
<g id="a_node8"><a xlink:href="class_units_1_1_door.html" target="_top" xlink:title="基地门">
<polygon fill="white" stroke="black" points="452.89,-66.5 452.89,-134.5 570.89,-134.5 570.89,-66.5 452.89,-66.5"/>
<text text-anchor="middle" x="511.89" y="-122.5" font-family="Helvetica,sans-Serif" font-size="10.00">Units.Door</text>
<polyline fill="none" stroke="black" points="452.89,-115.5 570.89,-115.5 "/>
<text text-anchor="middle" x="511.89" y="-103.5" font-family="Helvetica,sans-Serif" font-size="10.00"> </text>
<polyline fill="none" stroke="black" points="452.89,-96.5 570.89,-96.5 "/>
<text text-anchor="start" x="460.89" y="-84.5" font-family="Helvetica,sans-Serif" font-size="10.00">+ override void Start()</text>
<text text-anchor="start" x="460.89" y="-73.5" font-family="Helvetica,sans-Serif" font-size="10.00">+ override void Update()</text>
</a>
</g>
</g>
<!-- Node6&#45;&gt;Node8 -->
<g id="edge11" class="edge">
<title>Node6&#45;&gt;Node8</title>
<path fill="none" stroke="midnightblue" d="M478.93,-238.52C488.67,-198.03 497.76,-160.26 503.91,-134.67"/>
<polygon fill="none" stroke="midnightblue" points="475.51,-237.77 476.57,-248.31 482.32,-239.41 475.51,-237.77"/>
</g>
<!-- Node7 -->
<g id="node7" class="node">
<title>Node7</title>
<g id="a_node7"><a xlink:href="interface_units_1_1_i_military_unit.html" target="_top" xlink:title="攻击性单位接口">
<polygon fill="white" stroke="black" points="124.89,-936.5 124.89,-1114.5 264.89,-1114.5 264.89,-936.5 124.89,-936.5"/>
<text text-anchor="middle" x="194.89" y="-1102.5" font-family="Helvetica,sans-Serif" font-size="10.00">Units.IMilitaryUnit</text>
<polyline fill="none" stroke="black" points="124.89,-1095.5 264.89,-1095.5 "/>
<text text-anchor="start" x="132.89" y="-1083.5" font-family="Helvetica,sans-Serif" font-size="10.00">+ int AttackValue</text>
<text text-anchor="start" x="132.89" y="-1072.5" font-family="Helvetica,sans-Serif" font-size="10.00">+ float AttackColdDownTime</text>
<text text-anchor="start" x="132.89" y="-1061.5" font-family="Helvetica,sans-Serif" font-size="10.00">+ float AttackRange</text>
<text text-anchor="start" x="132.89" y="-1050.5" font-family="Helvetica,sans-Serif" font-size="10.00">+ int DefenceValue</text>
<text text-anchor="start" x="132.89" y="-1039.5" font-family="Helvetica,sans-Serif" font-size="10.00">+ float SpeedValue</text>
<text text-anchor="start" x="132.89" y="-1028.5" font-family="Helvetica,sans-Serif" font-size="10.00">+ Vector3 OriginalVelocity</text>
<text text-anchor="start" x="132.89" y="-1017.5" font-family="Helvetica,sans-Serif" font-size="10.00">+ Player.Player SidePlayer</text>
<text text-anchor="start" x="132.89" y="-1006.5" font-family="Helvetica,sans-Serif" font-size="10.00">+ UnityEvent&lt; Unit &gt;</text>
<text text-anchor="start" x="132.89" y="-995.5" font-family="Helvetica,sans-Serif" font-size="10.00"> AttackEvent</text>
<text text-anchor="start" x="132.89" y="-984.5" font-family="Helvetica,sans-Serif" font-size="10.00">+ UnityEvent&lt; IMilitaryUnit</text>
<text text-anchor="start" x="132.89" y="-973.5" font-family="Helvetica,sans-Serif" font-size="10.00"> &gt; UnderAttackedEvent</text>
<polyline fill="none" stroke="black" points="124.89,-966.5 264.89,-966.5 "/>
<text text-anchor="start" x="132.89" y="-954.5" font-family="Helvetica,sans-Serif" font-size="10.00">+ void Attack()</text>
<text text-anchor="start" x="132.89" y="-943.5" font-family="Helvetica,sans-Serif" font-size="10.00">+ Unit GetUnit()</text>
</a>
</g>
</g>
<!-- Node7&#45;&gt;Node2 -->
<g id="edge12" class="edge">
<title>Node7&#45;&gt;Node2</title>
<path fill="none" stroke="#404040" d="M166.67,-936.44C145.82,-866.64 119.18,-766.19 107.89,-676 107.18,-670.3 106.54,-664.51 105.98,-658.67"/>
<polygon fill="none" stroke="#404040" points="105.97,-658.55 101.46,-652.92 104.92,-646.59 109.43,-652.22 105.97,-658.55"/>
<text text-anchor="middle" x="132.39" y="-668" font-family="Helvetica,sans-Serif" font-size="10.00"> #_attacker</text>
</g>
<!-- Node7&#45;&gt;Node6 -->
<g id="edge9" class="edge">
<title>Node7&#45;&gt;Node6</title>
<path fill="none" stroke="#404040" d="M208.47,-936.36C221.76,-867.19 246.38,-770.18 288.89,-694 302.69,-669.28 315.96,-670.4 331.89,-647 334.42,-643.29 336.91,-639.51 339.38,-635.67"/>
<polygon fill="none" stroke="#404040" points="339.46,-635.54 339.25,-628.33 345.82,-625.37 346.03,-632.58 339.46,-635.54"/>
<text text-anchor="middle" x="339.39" y="-668" font-family="Helvetica,sans-Serif" font-size="10.00"> #_attacker</text>
</g>
<!-- Node8&#45;&gt;Node4 -->
<g id="edge10" class="edge">
<title>Node8&#45;&gt;Node4</title>
<path fill="none" stroke="#404040" d="M514.51,-134.64C516.72,-164.31 519.7,-209.03 520.89,-248 526.33,-425.25 548.71,-471.86 520.89,-647 516.07,-677.41 509.18,-708.7 501.09,-739.64"/>
<polygon fill="none" stroke="#404040" points="501.03,-739.88 503.35,-746.71 497.94,-751.47 495.62,-744.65 501.03,-739.88"/>
<text text-anchor="middle" x="547.89" y="-445" font-family="Helvetica,sans-Serif" font-size="10.00"> +door</text>
</g>
</g>
</svg>
