<?xml version="1.0" encoding="UTF-8" standalone="no"?>
<!DOCTYPE svg PUBLIC "-//W3C//DTD SVG 1.1//EN"
 "http://www.w3.org/Graphics/SVG/1.1/DTD/svg11.dtd">
<!-- Generated by graphviz version 2.47.1 (20210417.1919)
 -->
<!-- Title: Player.PlayerOnline_ASide.AddFarmer Pages: 1 -->
<svg width="305pt" height="39pt"
 viewBox="0.00 0.00 305.00 39.00" xmlns="http://www.w3.org/2000/svg" xmlns:xlink="http://www.w3.org/1999/xlink">
<g id="graph0" class="graph" transform="scale(1 1) rotate(0) translate(4 35)">
<title>Player.PlayerOnline_ASide.AddFarmer</title>
<polygon fill="white" stroke="transparent" points="-4,4 -4,-35 301,-35 301,4 -4,4"/>
<!-- Node1 -->
<g id="node1" class="node">
<title>Node1</title>
<g id="a_node1"><a xlink:title="增加农民">
<polygon fill="#bfbfbf" stroke="black" points="0,-0.5 0,-30.5 103,-30.5 103,-0.5 0,-0.5"/>
<text text-anchor="start" x="8" y="-18.5" font-family="Helvetica,sans-Serif" font-size="10.00">Player.PlayerOnline</text>
<text text-anchor="middle" x="51.5" y="-7.5" font-family="Helvetica,sans-Serif" font-size="10.00">_ASide.AddFarmer</text>
</a>
</g>
</g>
<!-- Node2 -->
<g id="node2" class="node">
<title>Node2</title>
<g id="a_node2"><a xlink:href="class_network_1_1_network_player_manager.html#a7375579b5c46afcceed1cbbad40f530b" target="_top" xlink:title="A发送过来，传输给另一个端的B 添加农民">
<polygon fill="white" stroke="black" points="139,-0.5 139,-30.5 297,-30.5 297,-0.5 139,-0.5"/>
<text text-anchor="start" x="147" y="-18.5" font-family="Helvetica,sans-Serif" font-size="10.00">Network.NetworkPlayerManager.</text>
<text text-anchor="middle" x="218" y="-7.5" font-family="Helvetica,sans-Serif" font-size="10.00">SendAddFarmer</text>
</a>
</g>
</g>
<!-- Node1&#45;&gt;Node2 -->
<g id="edge1" class="edge">
<title>Node1&#45;&gt;Node2</title>
<path fill="none" stroke="midnightblue" d="M103.2,-15.5C111.34,-15.5 119.97,-15.5 128.69,-15.5"/>
<polygon fill="midnightblue" stroke="midnightblue" points="128.94,-19 138.94,-15.5 128.94,-12 128.94,-19"/>
</g>
</g>
</svg>
