<?xml version="1.0" encoding="UTF-8" standalone="no"?>
<!DOCTYPE svg PUBLIC "-//W3C//DTD SVG 1.1//EN"
 "http://www.w3.org/Graphics/SVG/1.1/DTD/svg11.dtd">
<!-- Generated by graphviz version 2.47.1 (20210417.1919)
 -->
<!-- Title: Player.Player.ChangeResource Pages: 1 -->
<svg width="692pt" height="312pt"
 viewBox="0.00 0.00 692.00 312.00" xmlns="http://www.w3.org/2000/svg" xmlns:xlink="http://www.w3.org/1999/xlink">
<g id="graph0" class="graph" transform="scale(1 1) rotate(0) translate(4 308)">
<title>Player.Player.ChangeResource</title>
<polygon fill="white" stroke="transparent" points="-4,4 -4,-308 688,-308 688,4 -4,4"/>
<!-- Node1 -->
<g id="node1" class="node">
<title>Node1</title>
<g id="a_node1"><a xlink:title="增减资源">
<polygon fill="#bfbfbf" stroke="black" points="532,-137 532,-156 684,-156 684,-137 532,-137"/>
<text text-anchor="middle" x="608" y="-144" font-family="Helvetica,sans-Serif" font-size="10.00">Player.Player.ChangeResource</text>
</a>
</g>
</g>
<!-- Node2 -->
<g id="node2" class="node">
<title>Node2</title>
<g id="a_node2"><a xlink:href="class_u_i_1_1_chinese_sports_1_1_battle_1_1_dispatch_unit_chinese_u_i.html#a2125461659d2b91d4274ffc0831420a2" target="_top" xlink:title=" ">
<polygon fill="white" stroke="black" points="329,-273.5 329,-303.5 487,-303.5 487,-273.5 329,-273.5"/>
<text text-anchor="start" x="337" y="-291.5" font-family="Helvetica,sans-Serif" font-size="10.00">UI.ChineseSports.Battle.</text>
<text text-anchor="middle" x="408" y="-280.5" font-family="Helvetica,sans-Serif" font-size="10.00">DispatchUnitChineseUI.AddClick</text>
</a>
</g>
</g>
<!-- Node1&#45;&gt;Node2 -->
<g id="edge1" class="edge">
<title>Node1&#45;&gt;Node2</title>
<path fill="none" stroke="midnightblue" d="M594.89,-164.65C576.58,-190.69 539.33,-238.37 496,-264.5 490.36,-267.9 484.24,-270.83 477.93,-273.35"/>
<polygon fill="midnightblue" stroke="midnightblue" points="597.98,-166.34 600.76,-156.12 592.21,-162.38 597.98,-166.34"/>
</g>
<!-- Node3 -->
<g id="node3" class="node">
<title>Node3</title>
<g id="a_node3"><a xlink:href="class_u_i_1_1_local_1_1_unit_dispatch_u_i.html#a52a7e874d8e8b614fc860f27d4defc1f" target="_top" xlink:title=" ">
<polygon fill="white" stroke="black" points="347,-224.5 347,-254.5 469,-254.5 469,-224.5 347,-224.5"/>
<text text-anchor="start" x="355" y="-242.5" font-family="Helvetica,sans-Serif" font-size="10.00">UI.Local.UnitDispatchUI.</text>
<text text-anchor="middle" x="408" y="-231.5" font-family="Helvetica,sans-Serif" font-size="10.00">AddClick</text>
</a>
</g>
</g>
<!-- Node1&#45;&gt;Node3 -->
<g id="edge2" class="edge">
<title>Node1&#45;&gt;Node3</title>
<path fill="none" stroke="midnightblue" d="M586.25,-161.95C564.67,-177.38 529.43,-200.86 496,-215.5 487.53,-219.21 478.35,-222.48 469.22,-225.32"/>
<polygon fill="midnightblue" stroke="midnightblue" points="588.31,-164.78 594.35,-156.07 584.2,-159.11 588.31,-164.78"/>
</g>
<!-- Node4 -->
<g id="node4" class="node">
<title>Node4</title>
<g id="a_node4"><a xlink:href="class_player_1_1_player_a_i.html#ab8e53c5b988195ceea6001484ae26869" target="_top" xlink:title="派遣单位">
<polygon fill="white" stroke="black" points="345.5,-175.5 345.5,-205.5 470.5,-205.5 470.5,-175.5 345.5,-175.5"/>
<text text-anchor="start" x="353.5" y="-193.5" font-family="Helvetica,sans-Serif" font-size="10.00">Player.PlayerAI.Dispatch</text>
<text text-anchor="middle" x="408" y="-182.5" font-family="Helvetica,sans-Serif" font-size="10.00">Units</text>
</a>
</g>
</g>
<!-- Node1&#45;&gt;Node4 -->
<g id="edge3" class="edge">
<title>Node1&#45;&gt;Node4</title>
<path fill="none" stroke="midnightblue" d="M554.11,-158.25C528.43,-163.96 497.42,-170.85 470.66,-176.8"/>
<polygon fill="midnightblue" stroke="midnightblue" points="555.03,-161.63 564.04,-156.05 553.52,-154.8 555.03,-161.63"/>
</g>
<!-- Node7 -->
<g id="node7" class="node">
<title>Node7</title>
<g id="a_node7"><a xlink:href="class_units_1_1_farmer.html#a5c14f845ce8068b1c3c3d290ea460064" target="_top" xlink:title="放下资源">
<polygon fill="white" stroke="black" points="360,-137 360,-156 456,-156 456,-137 360,-137"/>
<text text-anchor="middle" x="408" y="-144" font-family="Helvetica,sans-Serif" font-size="10.00">Units.Farmer.Drop</text>
</a>
</g>
</g>
<!-- Node1&#45;&gt;Node7 -->
<g id="edge6" class="edge">
<title>Node1&#45;&gt;Node7</title>
<path fill="none" stroke="midnightblue" d="M521.65,-146.5C499.24,-146.5 475.87,-146.5 456.27,-146.5"/>
<polygon fill="midnightblue" stroke="midnightblue" points="521.86,-150 531.86,-146.5 521.86,-143 521.86,-150"/>
</g>
<!-- Node9 -->
<g id="node9" class="node">
<title>Node9</title>
<g id="a_node9"><a xlink:href="class_player_resouce_u_i.html#ab3f22753c66877208366f713dbebb5d8" target="_top" xlink:title=" ">
<polygon fill="white" stroke="black" points="333.5,-99 333.5,-118 482.5,-118 482.5,-99 333.5,-99"/>
<text text-anchor="middle" x="408" y="-106" font-family="Helvetica,sans-Serif" font-size="10.00">PlayerResouceUI.FixedUpdate</text>
</a>
</g>
</g>
<!-- Node1&#45;&gt;Node9 -->
<g id="edge8" class="edge">
<title>Node1&#45;&gt;Node9</title>
<path fill="none" stroke="midnightblue" d="M547.13,-135.01C518.88,-129.59 485.56,-123.19 458.73,-118.04"/>
<polygon fill="midnightblue" stroke="midnightblue" points="546.81,-138.51 557.29,-136.96 548.13,-131.64 546.81,-138.51"/>
</g>
<!-- Node10 -->
<g id="node10" class="node">
<title>Node10</title>
<g id="a_node10"><a xlink:href="class_u_i_1_1_chinese_sports_1_1_battle_1_1_dispatch_unit_chinese_u_i.html#aa06f910d70f415942e4e4e22d498db13" target="_top" xlink:title=" ">
<polygon fill="white" stroke="black" points="320,-49.5 320,-79.5 496,-79.5 496,-49.5 320,-49.5"/>
<text text-anchor="start" x="328" y="-67.5" font-family="Helvetica,sans-Serif" font-size="10.00">UI.ChineseSports.Battle.</text>
<text text-anchor="middle" x="408" y="-56.5" font-family="Helvetica,sans-Serif" font-size="10.00">DispatchUnitChineseUI.RemoveClick</text>
</a>
</g>
</g>
<!-- Node1&#45;&gt;Node10 -->
<g id="edge9" class="edge">
<title>Node1&#45;&gt;Node10</title>
<path fill="none" stroke="midnightblue" d="M582.19,-131.99C560.12,-119.51 526.66,-101.65 496,-89.5 486.94,-85.91 477.17,-82.6 467.56,-79.63"/>
<polygon fill="midnightblue" stroke="midnightblue" points="580.5,-135.05 590.92,-136.97 583.97,-128.97 580.5,-135.05"/>
</g>
<!-- Node11 -->
<g id="node11" class="node">
<title>Node11</title>
<g id="a_node11"><a xlink:href="class_u_i_1_1_local_1_1_unit_dispatch_u_i.html#a9389261196fc2879cf1879c7a638877d" target="_top" xlink:title=" ">
<polygon fill="white" stroke="black" points="347,-0.5 347,-30.5 469,-30.5 469,-0.5 347,-0.5"/>
<text text-anchor="start" x="355" y="-18.5" font-family="Helvetica,sans-Serif" font-size="10.00">UI.Local.UnitDispatchUI.</text>
<text text-anchor="middle" x="408" y="-7.5" font-family="Helvetica,sans-Serif" font-size="10.00">RemoveClick</text>
</a>
</g>
</g>
<!-- Node1&#45;&gt;Node11 -->
<g id="edge10" class="edge">
<title>Node1&#45;&gt;Node11</title>
<path fill="none" stroke="midnightblue" d="M593.39,-128.7C574.24,-104.87 537.03,-62.89 496,-39.5 487.7,-34.77 478.41,-30.93 469.08,-27.82"/>
<polygon fill="midnightblue" stroke="midnightblue" points="590.89,-131.18 599.82,-136.87 596.39,-126.85 590.89,-131.18"/>
</g>
<!-- Node5 -->
<g id="node5" class="node">
<title>Node5</title>
<g id="a_node5"><a xlink:href="class_player_1_1_player_a_i.html#ab3a9572e4b157a2a9117c83c5e460a8c" target="_top" xlink:title="AI决策">
<polygon fill="white" stroke="black" points="154,-181 154,-200 284,-200 284,-181 154,-181"/>
<text text-anchor="middle" x="219" y="-188" font-family="Helvetica,sans-Serif" font-size="10.00">Player.PlayerAI.AIGaming</text>
</a>
</g>
</g>
<!-- Node4&#45;&gt;Node5 -->
<g id="edge4" class="edge">
<title>Node4&#45;&gt;Node5</title>
<path fill="none" stroke="midnightblue" d="M334.99,-190.5C318.28,-190.5 300.6,-190.5 284.25,-190.5"/>
<polygon fill="midnightblue" stroke="midnightblue" points="335.25,-194 345.25,-190.5 335.25,-187 335.25,-194"/>
</g>
<!-- Node6 -->
<g id="node6" class="node">
<title>Node6</title>
<g id="a_node6"><a xlink:href="class_player_1_1_player_a_i.html#a12510584dc41ca7b97c2f49a680bb455" target="_top" xlink:title=" ">
<polygon fill="white" stroke="black" points="0,-181 0,-200 118,-200 118,-181 0,-181"/>
<text text-anchor="middle" x="59" y="-188" font-family="Helvetica,sans-Serif" font-size="10.00">Player.PlayerAI.Update</text>
</a>
</g>
</g>
<!-- Node5&#45;&gt;Node6 -->
<g id="edge5" class="edge">
<title>Node5&#45;&gt;Node6</title>
<path fill="none" stroke="midnightblue" d="M143.7,-190.5C135.11,-190.5 126.44,-190.5 118.1,-190.5"/>
<polygon fill="midnightblue" stroke="midnightblue" points="143.74,-194 153.74,-190.5 143.74,-187 143.74,-194"/>
</g>
<!-- Node8 -->
<g id="node8" class="node">
<title>Node8</title>
<g id="a_node8"><a xlink:href="class_units_1_1_farmer.html#afd481c40717c93060b64c5c4afdfd562" target="_top" xlink:title=" ">
<polygon fill="white" stroke="black" points="170.5,-137 170.5,-156 267.5,-156 267.5,-137 170.5,-137"/>
<text text-anchor="middle" x="219" y="-144" font-family="Helvetica,sans-Serif" font-size="10.00">Units.Farmer.Start</text>
</a>
</g>
</g>
<!-- Node7&#45;&gt;Node8 -->
<g id="edge7" class="edge">
<title>Node7&#45;&gt;Node8</title>
<path fill="none" stroke="midnightblue" d="M349.64,-146.5C323.43,-146.5 292.76,-146.5 267.82,-146.5"/>
<polygon fill="midnightblue" stroke="midnightblue" points="349.81,-150 359.81,-146.5 349.81,-143 349.81,-150"/>
</g>
</g>
</svg>
