<?xml version="1.0" encoding="UTF-8" standalone="no"?>
<!DOCTYPE svg PUBLIC "-//W3C//DTD SVG 1.1//EN"
 "http://www.w3.org/Graphics/SVG/1.1/DTD/svg11.dtd">
<!-- Generated by graphviz version 2.47.1 (20210417.1919)
 -->
<!-- Title: UI.ChineseSports.Main.ShareUI Pages: 1 -->
<svg width="265pt" height="420pt"
 viewBox="0.00 0.00 264.50 420.00" xmlns="http://www.w3.org/2000/svg" xmlns:xlink="http://www.w3.org/1999/xlink">
<g id="graph0" class="graph" transform="scale(1 1) rotate(0) translate(4 416)">
<title>UI.ChineseSports.Main.ShareUI</title>
<polygon fill="white" stroke="transparent" points="-4,4 -4,-416 260.5,-416 260.5,4 -4,4"/>
<!-- Node1 -->
<g id="node1" class="node">
<title>Node1</title>
<g id="a_node1"><a xlink:title=" ">
<polygon fill="#bfbfbf" stroke="black" points="0,-0.5 0,-79.5 154,-79.5 154,-0.5 0,-0.5"/>
<text text-anchor="middle" x="77" y="-67.5" font-family="Helvetica,sans-Serif" font-size="10.00">UI.ChineseSports.Main.ShareUI</text>
<polyline fill="none" stroke="black" points="0,-60.5 154,-60.5 "/>
<text text-anchor="start" x="8" y="-48.5" font-family="Helvetica,sans-Serif" font-size="10.00">+ Image screenShotImage</text>
<text text-anchor="start" x="8" y="-37.5" font-family="Helvetica,sans-Serif" font-size="10.00">+ GameObject panel</text>
<polyline fill="none" stroke="black" points="0,-30.5 154,-30.5 "/>
<text text-anchor="start" x="8" y="-18.5" font-family="Helvetica,sans-Serif" font-size="10.00">+ void ClosePanel()</text>
<text text-anchor="start" x="8" y="-7.5" font-family="Helvetica,sans-Serif" font-size="10.00">+ void OnShotClick()</text>
</a>
</g>
</g>
<!-- Node2 -->
<g id="node2" class="node">
<title>Node2</title>
<g id="a_node2"><a xlink:title=" ">
<polygon fill="white" stroke="#bfbfbf" points="31.5,-354.5 31.5,-411.5 114.5,-411.5 114.5,-354.5 31.5,-354.5"/>
<text text-anchor="middle" x="73" y="-399.5" font-family="Helvetica,sans-Serif" font-size="10.00">MonoBehaviour</text>
<polyline fill="none" stroke="#bfbfbf" points="31.5,-392.5 114.5,-392.5 "/>
<text text-anchor="middle" x="73" y="-380.5" font-family="Helvetica,sans-Serif" font-size="10.00"> </text>
<polyline fill="none" stroke="#bfbfbf" points="31.5,-373.5 114.5,-373.5 "/>
<text text-anchor="middle" x="73" y="-361.5" font-family="Helvetica,sans-Serif" font-size="10.00"> </text>
</a>
</g>
</g>
<!-- Node2&#45;&gt;Node1 -->
<g id="edge1" class="edge">
<title>Node2&#45;&gt;Node1</title>
<path fill="none" stroke="midnightblue" d="M73.44,-344.12C74.21,-278.77 75.77,-145.51 76.55,-79.64"/>
<polygon fill="none" stroke="midnightblue" points="69.94,-344.34 73.32,-354.38 76.94,-344.43 69.94,-344.34"/>
</g>
<!-- Node3 -->
<g id="node3" class="node">
<title>Node3</title>
<g id="a_node3"><a xlink:href="class_controllers_1_1_camera_1_1_camera_screen_shot.html" target="_top" xlink:title="截屏">
<polygon fill="white" stroke="black" points="89.5,-127.5 89.5,-316.5 256.5,-316.5 256.5,-127.5 89.5,-127.5"/>
<text text-anchor="start" x="97.5" y="-304.5" font-family="Helvetica,sans-Serif" font-size="10.00">Controllers.Camera.Camera</text>
<text text-anchor="middle" x="173" y="-293.5" font-family="Helvetica,sans-Serif" font-size="10.00">ScreenShot</text>
<polyline fill="none" stroke="black" points="89.5,-286.5 256.5,-286.5 "/>
<text text-anchor="start" x="97.5" y="-274.5" font-family="Helvetica,sans-Serif" font-size="10.00">+ Texture mixTexture</text>
<text text-anchor="start" x="97.5" y="-263.5" font-family="Helvetica,sans-Serif" font-size="10.00">+ Shader mixShader</text>
<text text-anchor="start" x="97.5" y="-252.5" font-family="Helvetica,sans-Serif" font-size="10.00">+ Color baseColor</text>
<text text-anchor="start" x="97.5" y="-241.5" font-family="Helvetica,sans-Serif" font-size="10.00">+ Color mixColor</text>
<text text-anchor="start" x="97.5" y="-230.5" font-family="Helvetica,sans-Serif" font-size="10.00">+ List&lt; GameObject &gt;</text>
<text text-anchor="start" x="97.5" y="-219.5" font-family="Helvetica,sans-Serif" font-size="10.00"> unusedUis</text>
<text text-anchor="start" x="97.5" y="-208.5" font-family="Helvetica,sans-Serif" font-size="10.00">+ Texture2D screenShot</text>
<text text-anchor="start" x="97.5" y="-197.5" font-family="Helvetica,sans-Serif" font-size="10.00">+ Texture2D renderResultTex</text>
<text text-anchor="start" x="97.5" y="-186.5" font-family="Helvetica,sans-Serif" font-size="10.00">+ bool isShotDone</text>
<text text-anchor="start" x="97.5" y="-175.5" font-family="Helvetica,sans-Serif" font-size="10.00">+ Material MixMaterial</text>
<polyline fill="none" stroke="black" points="89.5,-168.5 256.5,-168.5 "/>
<text text-anchor="start" x="97.5" y="-156.5" font-family="Helvetica,sans-Serif" font-size="10.00">+ Texture2D CaptureCamera</text>
<text text-anchor="start" x="97.5" y="-145.5" font-family="Helvetica,sans-Serif" font-size="10.00">(Rect rect)</text>
<text text-anchor="start" x="97.5" y="-134.5" font-family="Helvetica,sans-Serif" font-size="10.00">+ IEnumerator GetCaptureScreen()</text>
</a>
</g>
</g>
<!-- Node2&#45;&gt;Node3 -->
<g id="edge3" class="edge">
<title>Node2&#45;&gt;Node3</title>
<path fill="none" stroke="midnightblue" d="M95.79,-345.76C101.4,-336.84 107.66,-326.88 114.13,-316.6"/>
<polygon fill="none" stroke="midnightblue" points="92.78,-343.98 90.42,-354.3 98.71,-347.7 92.78,-343.98"/>
</g>
<!-- Node3&#45;&gt;Node1 -->
<g id="edge2" class="edge">
<title>Node3&#45;&gt;Node1</title>
<path fill="none" stroke="#404040" d="M123.03,-127.31C116.26,-114.62 109.55,-102.03 103.43,-90.55"/>
<polygon fill="none" stroke="#404040" points="103.4,-90.5 97.05,-87.09 97.75,-79.92 104.11,-83.33 103.4,-90.5"/>
<text text-anchor="middle" x="156.5" y="-101" font-family="Helvetica,sans-Serif" font-size="10.00"> +cameraScreenShot</text>
</g>
</g>
</svg>
