<?xml version="1.0" encoding="UTF-8" standalone="no"?>
<!DOCTYPE svg PUBLIC "-//W3C//DTD SVG 1.1//EN"
 "http://www.w3.org/Graphics/SVG/1.1/DTD/svg11.dtd">
<!-- Generated by graphviz version 2.47.1 (20210417.1919)
 -->
<!-- Title: UI.ScienceTree.ScienceTreeNodeUI Pages: 1 -->
<svg width="188pt" height="215pt"
 viewBox="0.00 0.00 188.00 215.00" xmlns="http://www.w3.org/2000/svg" xmlns:xlink="http://www.w3.org/1999/xlink">
<g id="graph0" class="graph" transform="scale(1 1) rotate(0) translate(4 211)">
<title>UI.ScienceTree.ScienceTreeNodeUI</title>
<polygon fill="white" stroke="transparent" points="-4,4 -4,-211 184,-211 184,4 -4,4"/>
<!-- Node1 -->
<g id="node1" class="node">
<title>Node1</title>
<g id="a_node1"><a xlink:title=" ">
<polygon fill="#bfbfbf" stroke="black" points="0,-0.5 0,-112.5 180,-112.5 180,-0.5 0,-0.5"/>
<text text-anchor="start" x="8" y="-100.5" font-family="Helvetica,sans-Serif" font-size="10.00">UI.ScienceTree.ScienceTree</text>
<text text-anchor="middle" x="90" y="-89.5" font-family="Helvetica,sans-Serif" font-size="10.00">NodeUI</text>
<polyline fill="none" stroke="black" points="0,-82.5 180,-82.5 "/>
<text text-anchor="start" x="8" y="-70.5" font-family="Helvetica,sans-Serif" font-size="10.00">+ Button nodeButton</text>
<text text-anchor="start" x="8" y="-59.5" font-family="Helvetica,sans-Serif" font-size="10.00">+ ScienceTreeUI scienceTreeUI</text>
<text text-anchor="start" x="8" y="-48.5" font-family="Helvetica,sans-Serif" font-size="10.00">+ ScienceTreeNode scienceTreeNode</text>
<text text-anchor="start" x="8" y="-37.5" font-family="Helvetica,sans-Serif" font-size="10.00">+ ColorBlock selectedColor</text>
<polyline fill="none" stroke="black" points="0,-30.5 180,-30.5 "/>
<text text-anchor="start" x="8" y="-18.5" font-family="Helvetica,sans-Serif" font-size="10.00">+ void CheckActivatable()</text>
<text text-anchor="start" x="8" y="-7.5" font-family="Helvetica,sans-Serif" font-size="10.00">+ void OnClick()</text>
</a>
</g>
</g>
<!-- Node2 -->
<g id="node2" class="node">
<title>Node2</title>
<g id="a_node2"><a xlink:title=" ">
<polygon fill="white" stroke="#bfbfbf" points="48.5,-149.5 48.5,-206.5 131.5,-206.5 131.5,-149.5 48.5,-149.5"/>
<text text-anchor="middle" x="90" y="-194.5" font-family="Helvetica,sans-Serif" font-size="10.00">MonoBehaviour</text>
<polyline fill="none" stroke="#bfbfbf" points="48.5,-187.5 131.5,-187.5 "/>
<text text-anchor="middle" x="90" y="-175.5" font-family="Helvetica,sans-Serif" font-size="10.00"> </text>
<polyline fill="none" stroke="#bfbfbf" points="48.5,-168.5 131.5,-168.5 "/>
<text text-anchor="middle" x="90" y="-156.5" font-family="Helvetica,sans-Serif" font-size="10.00"> </text>
</a>
</g>
</g>
<!-- Node2&#45;&gt;Node1 -->
<g id="edge1" class="edge">
<title>Node2&#45;&gt;Node1</title>
<path fill="none" stroke="midnightblue" d="M90,-139.11C90,-130.75 90,-121.73 90,-112.83"/>
<polygon fill="none" stroke="midnightblue" points="86.5,-139.28 90,-149.28 93.5,-139.28 86.5,-139.28"/>
</g>
</g>
</svg>
