<?xml version="1.0" encoding="UTF-8" standalone="no"?>
<!DOCTYPE svg PUBLIC "-//W3C//DTD SVG 1.1//EN"
 "http://www.w3.org/Graphics/SVG/1.1/DTD/svg11.dtd">
<!-- Generated by graphviz version 2.47.1 (20210417.1919)
 -->
<!-- Title: Units.Farmer.Start Pages: 1 -->
<svg width="488pt" height="161pt"
 viewBox="0.00 0.00 488.00 161.00" xmlns="http://www.w3.org/2000/svg" xmlns:xlink="http://www.w3.org/1999/xlink">
<g id="graph0" class="graph" transform="scale(1 1) rotate(0) translate(4 157)">
<title>Units.Farmer.Start</title>
<polygon fill="white" stroke="transparent" points="-4,4 -4,-157 484,-157 484,4 -4,4"/>
<!-- Node1 -->
<g id="node1" class="node">
<title>Node1</title>
<g id="a_node1"><a xlink:title=" ">
<polygon fill="#bfbfbf" stroke="black" points="0,-57.5 0,-76.5 97,-76.5 97,-57.5 0,-57.5"/>
<text text-anchor="middle" x="48.5" y="-64.5" font-family="Helvetica,sans-Serif" font-size="10.00">Units.Farmer.Start</text>
</a>
</g>
</g>
<!-- Node2 -->
<g id="node2" class="node">
<title>Node2</title>
<g id="a_node2"><a xlink:href="class_units_1_1_farmer.html#a5c14f845ce8068b1c3c3d290ea460064" target="_top" xlink:title="放下资源">
<polygon fill="white" stroke="black" points="164.5,-114.5 164.5,-133.5 260.5,-133.5 260.5,-114.5 164.5,-114.5"/>
<text text-anchor="middle" x="212.5" y="-121.5" font-family="Helvetica,sans-Serif" font-size="10.00">Units.Farmer.Drop</text>
</a>
</g>
</g>
<!-- Node1&#45;&gt;Node2 -->
<g id="edge1" class="edge">
<title>Node1&#45;&gt;Node2</title>
<path fill="none" stroke="midnightblue" d="M67.99,-76.64C84.64,-85.03 109.96,-97.05 133,-105 140.36,-107.54 148.23,-109.87 156.03,-111.97"/>
<polygon fill="midnightblue" stroke="midnightblue" points="155.27,-115.39 165.83,-114.49 157.02,-108.61 155.27,-115.39"/>
</g>
<!-- Node5 -->
<g id="node5" class="node">
<title>Node5</title>
<g id="a_node5"><a xlink:href="class_player_1_1_player.html#abf7bb2d28c021a677c9795cad8b00e6a" target="_top" xlink:title="当农民返回">
<polygon fill="white" stroke="black" points="147,-76.5 147,-95.5 278,-95.5 278,-76.5 147,-76.5"/>
<text text-anchor="middle" x="212.5" y="-83.5" font-family="Helvetica,sans-Serif" font-size="10.00">Player.Player.FarmerBack</text>
</a>
</g>
</g>
<!-- Node1&#45;&gt;Node5 -->
<g id="edge4" class="edge">
<title>Node1&#45;&gt;Node5</title>
<path fill="none" stroke="midnightblue" d="M97.23,-72.6C109.58,-74.05 123.17,-75.64 136.54,-77.21"/>
<polygon fill="midnightblue" stroke="midnightblue" points="136.36,-80.71 146.7,-78.4 137.18,-73.76 136.36,-80.71"/>
</g>
<!-- Node6 -->
<g id="node6" class="node">
<title>Node6</title>
<g id="a_node6"><a xlink:href="class_units_1_1_farmer.html#a610bc2a9982b2e1716bf9968401e7b4c" target="_top" xlink:title="生成工作路径">
<polygon fill="white" stroke="black" points="133,-38.5 133,-57.5 292,-57.5 292,-38.5 133,-38.5"/>
<text text-anchor="middle" x="212.5" y="-45.5" font-family="Helvetica,sans-Serif" font-size="10.00">Units.Farmer.GenerateWorkPath</text>
</a>
</g>
</g>
<!-- Node1&#45;&gt;Node6 -->
<g id="edge5" class="edge">
<title>Node1&#45;&gt;Node6</title>
<path fill="none" stroke="midnightblue" d="M97.23,-61.4C105.37,-60.45 114.05,-59.43 122.85,-58.4"/>
<polygon fill="midnightblue" stroke="midnightblue" points="123.29,-61.87 132.81,-57.23 122.47,-54.92 123.29,-61.87"/>
</g>
<!-- Node7 -->
<g id="node7" class="node">
<title>Node7</title>
<g id="a_node7"><a xlink:href="class_units_1_1_farmer.html#a6c1947bd6da83b17f906b9b16bd8aa40" target="_top" xlink:title="到达目的地">
<polygon fill="white" stroke="black" points="150,-0.5 150,-19.5 275,-19.5 275,-0.5 150,-0.5"/>
<text text-anchor="middle" x="212.5" y="-7.5" font-family="Helvetica,sans-Serif" font-size="10.00">Units.Farmer.OnNavStop</text>
</a>
</g>
</g>
<!-- Node1&#45;&gt;Node7 -->
<g id="edge6" class="edge">
<title>Node1&#45;&gt;Node7</title>
<path fill="none" stroke="midnightblue" d="M67.99,-57.36C84.64,-48.97 109.96,-36.95 133,-29 140.36,-26.46 148.23,-24.13 156.03,-22.03"/>
<polygon fill="midnightblue" stroke="midnightblue" points="157.02,-25.39 165.83,-19.51 155.27,-18.61 157.02,-25.39"/>
</g>
<!-- Node3 -->
<g id="node3" class="node">
<title>Node3</title>
<g id="a_node3"><a xlink:href="class_player_1_1_player.html#a5dc06c6cb394474907fbcde1ed4c5e93" target="_top" xlink:title="增减资源">
<polygon fill="white" stroke="black" points="328,-133.5 328,-152.5 480,-152.5 480,-133.5 328,-133.5"/>
<text text-anchor="middle" x="404" y="-140.5" font-family="Helvetica,sans-Serif" font-size="10.00">Player.Player.ChangeResource</text>
</a>
</g>
</g>
<!-- Node2&#45;&gt;Node3 -->
<g id="edge2" class="edge">
<title>Node2&#45;&gt;Node3</title>
<path fill="none" stroke="midnightblue" d="M260.83,-128.75C278.1,-130.48 298.2,-132.49 317.76,-134.45"/>
<polygon fill="midnightblue" stroke="midnightblue" points="317.62,-137.96 327.92,-135.47 318.32,-130.99 317.62,-137.96"/>
</g>
<!-- Node4 -->
<g id="node4" class="node">
<title>Node4</title>
<g id="a_node4"><a xlink:href="class_units_1_1_unit.html#a95ec056c0363f891ce233fa6e4125cd8" target="_top" xlink:title="前往目的地">
<polygon fill="white" stroke="black" points="362.5,-95.5 362.5,-114.5 445.5,-114.5 445.5,-95.5 362.5,-95.5"/>
<text text-anchor="middle" x="404" y="-102.5" font-family="Helvetica,sans-Serif" font-size="10.00">Units.Unit.Goto</text>
</a>
</g>
</g>
<!-- Node2&#45;&gt;Node4 -->
<g id="edge3" class="edge">
<title>Node2&#45;&gt;Node4</title>
<path fill="none" stroke="midnightblue" d="M260.83,-119.25C288.66,-116.46 323.83,-112.94 352.24,-110.09"/>
<polygon fill="midnightblue" stroke="midnightblue" points="352.77,-113.55 362.37,-109.07 352.07,-106.59 352.77,-113.55"/>
</g>
</g>
</svg>
