<?xml version="1.0" encoding="UTF-8" standalone="no"?>
<!DOCTYPE svg PUBLIC "-//W3C//DTD SVG 1.1//EN"
 "http://www.w3.org/Graphics/SVG/1.1/DTD/svg11.dtd">
<!-- Generated by graphviz version 2.47.1 (20210417.1919)
 -->
<!-- Title: Player.Player.SubtractFarmer Pages: 1 -->
<svg width="348pt" height="333pt"
 viewBox="0.00 0.00 348.00 333.00" xmlns="http://www.w3.org/2000/svg" xmlns:xlink="http://www.w3.org/1999/xlink">
<g id="graph0" class="graph" transform="scale(1 1) rotate(0) translate(4 329)">
<title>Player.Player.SubtractFarmer</title>
<polygon fill="white" stroke="transparent" points="-4,4 -4,-329 344,-329 344,4 -4,4"/>
<!-- Node1 -->
<g id="node1" class="node">
<title>Node1</title>
<g id="a_node1"><a xlink:title="减少一条路的农民分配">
<polygon fill="#bfbfbf" stroke="black" points="194,-153 194,-172 340,-172 340,-153 194,-153"/>
<text text-anchor="middle" x="267" y="-160" font-family="Helvetica,sans-Serif" font-size="10.00">Player.Player.SubtractFarmer</text>
</a>
</g>
</g>
<!-- Node2 -->
<g id="node2" class="node">
<title>Node2</title>
<g id="a_node2"><a xlink:href="class_u_i_1_1_local_1_1_farmer_dispatch_u_i.html#ab46372945945767f1d1d527d27792eb0" target="_top" xlink:title=" ">
<polygon fill="white" stroke="black" points="11,-294.5 11,-324.5 147,-324.5 147,-294.5 11,-294.5"/>
<text text-anchor="start" x="19" y="-312.5" font-family="Helvetica,sans-Serif" font-size="10.00">UI.Local.FarmerDispatchUI.</text>
<text text-anchor="middle" x="79" y="-301.5" font-family="Helvetica,sans-Serif" font-size="10.00">DispatchFood</text>
</a>
</g>
</g>
<!-- Node1&#45;&gt;Node2 -->
<g id="edge1" class="edge">
<title>Node1&#45;&gt;Node2</title>
<path fill="none" stroke="midnightblue" d="M254.68,-180.88C237.21,-207.75 201.13,-257.59 158,-285.5 152.77,-288.89 147.03,-291.82 141.11,-294.35"/>
<polygon fill="midnightblue" stroke="midnightblue" points="257.85,-182.42 260.26,-172.1 251.94,-178.67 257.85,-182.42"/>
</g>
<!-- Node3 -->
<g id="node3" class="node">
<title>Node3</title>
<g id="a_node3"><a xlink:href="class_u_i_1_1_online_1_1_farmer_dispatch_u_i_online.html#a321a336f4b26dd44045e32576fe14b35" target="_top" xlink:title=" ">
<polygon fill="white" stroke="black" points="15,-245.5 15,-275.5 143,-275.5 143,-245.5 15,-245.5"/>
<text text-anchor="start" x="23" y="-263.5" font-family="Helvetica,sans-Serif" font-size="10.00">UI.Online.FarmerDispatch</text>
<text text-anchor="middle" x="79" y="-252.5" font-family="Helvetica,sans-Serif" font-size="10.00">UIOnline.DispatchFood</text>
</a>
</g>
</g>
<!-- Node1&#45;&gt;Node3 -->
<g id="edge2" class="edge">
<title>Node1&#45;&gt;Node3</title>
<path fill="none" stroke="midnightblue" d="M246.37,-178.67C225.55,-195.15 191.14,-220.51 158,-236.5 151.11,-239.83 143.66,-242.82 136.18,-245.46"/>
<polygon fill="midnightblue" stroke="midnightblue" points="248.82,-181.19 254.42,-172.2 244.44,-175.74 248.82,-181.19"/>
</g>
<!-- Node4 -->
<g id="node4" class="node">
<title>Node4</title>
<g id="a_node4"><a xlink:href="class_u_i_1_1_local_1_1_farmer_dispatch_u_i.html#a2dafec05b54f79babf5d42be188b88b8" target="_top" xlink:title=" ">
<polygon fill="white" stroke="black" points="11,-196.5 11,-226.5 147,-226.5 147,-196.5 11,-196.5"/>
<text text-anchor="start" x="19" y="-214.5" font-family="Helvetica,sans-Serif" font-size="10.00">UI.Local.FarmerDispatchUI.</text>
<text text-anchor="middle" x="79" y="-203.5" font-family="Helvetica,sans-Serif" font-size="10.00">DispatchGold</text>
</a>
</g>
</g>
<!-- Node1&#45;&gt;Node4 -->
<g id="edge3" class="edge">
<title>Node1&#45;&gt;Node4</title>
<path fill="none" stroke="midnightblue" d="M219.73,-174.69C194.71,-181.28 163.59,-189.48 137.08,-196.46"/>
<polygon fill="midnightblue" stroke="midnightblue" points="220.92,-178 229.7,-172.06 219.13,-171.23 220.92,-178"/>
</g>
<!-- Node5 -->
<g id="node5" class="node">
<title>Node5</title>
<g id="a_node5"><a xlink:href="class_u_i_1_1_online_1_1_farmer_dispatch_u_i_online.html#a19fba7d5fbbe04e76acaa4296890a9a0" target="_top" xlink:title=" ">
<polygon fill="white" stroke="black" points="15,-147.5 15,-177.5 143,-177.5 143,-147.5 15,-147.5"/>
<text text-anchor="start" x="23" y="-165.5" font-family="Helvetica,sans-Serif" font-size="10.00">UI.Online.FarmerDispatch</text>
<text text-anchor="middle" x="79" y="-154.5" font-family="Helvetica,sans-Serif" font-size="10.00">UIOnline.DispatchGold</text>
</a>
</g>
</g>
<!-- Node1&#45;&gt;Node5 -->
<g id="edge4" class="edge">
<title>Node1&#45;&gt;Node5</title>
<path fill="none" stroke="midnightblue" d="M183.52,-162.5C169.94,-162.5 156.06,-162.5 143.06,-162.5"/>
<polygon fill="midnightblue" stroke="midnightblue" points="183.82,-166 193.82,-162.5 183.82,-159 183.82,-166"/>
</g>
<!-- Node6 -->
<g id="node6" class="node">
<title>Node6</title>
<g id="a_node6"><a xlink:href="class_u_i_1_1_local_1_1_farmer_dispatch_u_i.html#ab0549fff8328d9bd60943a206cb36212" target="_top" xlink:title=" ">
<polygon fill="white" stroke="black" points="11,-98.5 11,-128.5 147,-128.5 147,-98.5 11,-98.5"/>
<text text-anchor="start" x="19" y="-116.5" font-family="Helvetica,sans-Serif" font-size="10.00">UI.Local.FarmerDispatchUI.</text>
<text text-anchor="middle" x="79" y="-105.5" font-family="Helvetica,sans-Serif" font-size="10.00">DispatchWood</text>
</a>
</g>
</g>
<!-- Node1&#45;&gt;Node6 -->
<g id="edge5" class="edge">
<title>Node1&#45;&gt;Node6</title>
<path fill="none" stroke="midnightblue" d="M219.73,-150.31C194.71,-143.72 163.59,-135.52 137.08,-128.54"/>
<polygon fill="midnightblue" stroke="midnightblue" points="219.13,-153.77 229.7,-152.94 220.92,-147 219.13,-153.77"/>
</g>
<!-- Node7 -->
<g id="node7" class="node">
<title>Node7</title>
<g id="a_node7"><a xlink:href="class_u_i_1_1_online_1_1_farmer_dispatch_u_i_online.html#a380db9abc967e9ef5f02e94ad6435372" target="_top" xlink:title=" ">
<polygon fill="white" stroke="black" points="15,-49.5 15,-79.5 143,-79.5 143,-49.5 15,-49.5"/>
<text text-anchor="start" x="23" y="-67.5" font-family="Helvetica,sans-Serif" font-size="10.00">UI.Online.FarmerDispatch</text>
<text text-anchor="middle" x="79" y="-56.5" font-family="Helvetica,sans-Serif" font-size="10.00">UIOnline.DispatchWood</text>
</a>
</g>
</g>
<!-- Node1&#45;&gt;Node7 -->
<g id="edge6" class="edge">
<title>Node1&#45;&gt;Node7</title>
<path fill="none" stroke="midnightblue" d="M246.3,-146.64C225.41,-130.46 190.95,-105.51 158,-89.5 150.45,-85.83 142.24,-82.53 134.07,-79.61"/>
<polygon fill="midnightblue" stroke="midnightblue" points="244.35,-149.56 254.38,-152.99 248.68,-144.06 244.35,-149.56"/>
</g>
<!-- Node8 -->
<g id="node8" class="node">
<title>Node8</title>
<g id="a_node8"><a xlink:href="class_network_1_1_network_player_manager.html#a548e313293fad4a85758adac63fb10ce" target="_top" xlink:title=" ">
<polygon fill="white" stroke="black" points="0,-0.5 0,-30.5 158,-30.5 158,-0.5 0,-0.5"/>
<text text-anchor="start" x="8" y="-18.5" font-family="Helvetica,sans-Serif" font-size="10.00">Network.NetworkPlayerManager.</text>
<text text-anchor="middle" x="79" y="-7.5" font-family="Helvetica,sans-Serif" font-size="10.00">RPC_SubtractFarmer</text>
</a>
</g>
</g>
<!-- Node1&#45;&gt;Node8 -->
<g id="edge7" class="edge">
<title>Node1&#45;&gt;Node8</title>
<path fill="none" stroke="midnightblue" d="M254.34,-143.94C236.67,-117.29 200.62,-68.31 158,-40.5 152.16,-36.69 145.71,-33.43 139.08,-30.63"/>
<polygon fill="midnightblue" stroke="midnightblue" points="251.62,-146.18 260,-152.67 257.5,-142.38 251.62,-146.18"/>
</g>
</g>
</svg>
