<?xml version="1.0" encoding="UTF-8" standalone="no"?>
<!DOCTYPE svg PUBLIC "-//W3C//DTD SVG 1.1//EN"
 "http://www.w3.org/Graphics/SVG/1.1/DTD/svg11.dtd">
<!-- Generated by graphviz version 2.47.1 (20210417.1919)
 -->
<!-- Title: UI.Local.UnitDispatchManagerUI Pages: 1 -->
<svg width="1129pt" height="1540pt"
 viewBox="0.00 0.00 1129.04 1540.00" xmlns="http://www.w3.org/2000/svg" xmlns:xlink="http://www.w3.org/1999/xlink">
<g id="graph0" class="graph" transform="scale(1 1) rotate(0) translate(4 1536)">
<title>UI.Local.UnitDispatchManagerUI</title>
<polygon fill="white" stroke="transparent" points="-4,4 -4,-1536 1125.04,-1536 1125.04,4 -4,4"/>
<!-- Node1 -->
<g id="node1" class="node">
<title>Node1</title>
<g id="a_node1"><a xlink:title=" ">
<polygon fill="#bfbfbf" stroke="black" points="124,-413.5 124,-503.5 281,-503.5 281,-413.5 124,-413.5"/>
<text text-anchor="middle" x="202.5" y="-491.5" font-family="Helvetica,sans-Serif" font-size="10.00">UI.Local.UnitDispatchManagerUI</text>
<polyline fill="none" stroke="black" points="124,-484.5 281,-484.5 "/>
<text text-anchor="start" x="132" y="-472.5" font-family="Helvetica,sans-Serif" font-size="10.00">+ Player.Player player</text>
<text text-anchor="start" x="132" y="-461.5" font-family="Helvetica,sans-Serif" font-size="10.00">+ bool IsInDispatching</text>
<polyline fill="none" stroke="black" points="124,-454.5 281,-454.5 "/>
<text text-anchor="start" x="132" y="-442.5" font-family="Helvetica,sans-Serif" font-size="10.00">+ void SetClick(int rdInt)</text>
<text text-anchor="start" x="132" y="-431.5" font-family="Helvetica,sans-Serif" font-size="10.00">+ void SetClickWithVelocity</text>
<text text-anchor="start" x="132" y="-420.5" font-family="Helvetica,sans-Serif" font-size="10.00">(int rdInt)</text>
</a>
</g>
</g>
<!-- Node3 -->
<g id="node3" class="node">
<title>Node3</title>
<g id="a_node3"><a xlink:href="class_u_i_1_1_local_1_1_unit_dispatch_u_i.html" target="_top" xlink:title=" ">
<polygon fill="white" stroke="black" points="250,-28 250,-173 401,-173 401,-28 250,-28"/>
<text text-anchor="middle" x="325.5" y="-161" font-family="Helvetica,sans-Serif" font-size="10.00">UI.Local.UnitDispatchUI</text>
<polyline fill="none" stroke="black" points="250,-154 401,-154 "/>
<text text-anchor="start" x="258" y="-142" font-family="Helvetica,sans-Serif" font-size="10.00">+ Button unitRemoveButton</text>
<text text-anchor="start" x="258" y="-131" font-family="Helvetica,sans-Serif" font-size="10.00">+ GameObject unitSetIndicator</text>
<text text-anchor="start" x="258" y="-120" font-family="Helvetica,sans-Serif" font-size="10.00">+ int unitNumber</text>
<text text-anchor="start" x="258" y="-109" font-family="Helvetica,sans-Serif" font-size="10.00">+ int onceMax</text>
<text text-anchor="start" x="258" y="-98" font-family="Helvetica,sans-Serif" font-size="10.00">+ readonly Stack&lt; bool</text>
<text text-anchor="start" x="258" y="-87" font-family="Helvetica,sans-Serif" font-size="10.00"> &gt; UnitSelectStack</text>
<text text-anchor="start" x="258" y="-76" font-family="Helvetica,sans-Serif" font-size="10.00">+ int UnitDispatchNumber</text>
<polyline fill="none" stroke="black" points="250,-69 401,-69 "/>
<text text-anchor="start" x="258" y="-57" font-family="Helvetica,sans-Serif" font-size="10.00">+ void AddClick(bool</text>
<text text-anchor="start" x="258" y="-46" font-family="Helvetica,sans-Serif" font-size="10.00"> isFoodAndWood)</text>
<text text-anchor="start" x="258" y="-35" font-family="Helvetica,sans-Serif" font-size="10.00">+ void RemoveClick()</text>
</a>
</g>
</g>
<!-- Node1&#45;&gt;Node3 -->
<g id="edge20" class="edge">
<title>Node1&#45;&gt;Node3</title>
<path fill="none" stroke="#404040" d="M168.62,-413.45C134.88,-363.78 92.85,-281.77 128.5,-219 152.28,-177.13 197.54,-148.6 238.69,-130.15"/>
<polygon fill="none" stroke="#404040" points="238.87,-130.07 242.79,-124.02 249.89,-125.32 245.96,-131.37 238.87,-130.07"/>
<text text-anchor="middle" x="175" y="-227.5" font-family="Helvetica,sans-Serif" font-size="10.00"> +dispatchManagerUI</text>
</g>
<!-- Node2 -->
<g id="node2" class="node">
<title>Node2</title>
<g id="a_node2"><a xlink:title=" ">
<polygon fill="white" stroke="#bfbfbf" points="377,-1474.5 377,-1531.5 460,-1531.5 460,-1474.5 377,-1474.5"/>
<text text-anchor="middle" x="418.5" y="-1519.5" font-family="Helvetica,sans-Serif" font-size="10.00">MonoBehaviour</text>
<polyline fill="none" stroke="#bfbfbf" points="377,-1512.5 460,-1512.5 "/>
<text text-anchor="middle" x="418.5" y="-1500.5" font-family="Helvetica,sans-Serif" font-size="10.00"> </text>
<polyline fill="none" stroke="#bfbfbf" points="377,-1493.5 460,-1493.5 "/>
<text text-anchor="middle" x="418.5" y="-1481.5" font-family="Helvetica,sans-Serif" font-size="10.00"> </text>
</a>
</g>
</g>
<!-- Node2&#45;&gt;Node1 -->
<g id="edge1" class="edge">
<title>Node2&#45;&gt;Node1</title>
<path fill="none" stroke="midnightblue" d="M367.16,-1492.33C346.43,-1485.69 324.39,-1474.57 311.5,-1456 262.03,-1384.72 289.27,-761.32 273.5,-676 262.18,-614.74 237.91,-546.91 220.92,-503.78"/>
<polygon fill="none" stroke="midnightblue" points="366.3,-1495.73 376.88,-1495.16 368.25,-1489.01 366.3,-1495.73"/>
</g>
<!-- Node2&#45;&gt;Node3 -->
<g id="edge3" class="edge">
<title>Node2&#45;&gt;Node3</title>
<path fill="none" stroke="midnightblue" d="M413.34,-1464.09C398.7,-1354.6 356.8,-1028.33 339.5,-756 326.06,-544.46 324.77,-293.77 325.06,-173.25"/>
<polygon fill="none" stroke="midnightblue" points="409.92,-1464.85 414.71,-1474.3 416.85,-1463.92 409.92,-1464.85"/>
</g>
<!-- Node4 -->
<g id="node4" class="node">
<title>Node4</title>
<g id="a_node4"><a xlink:href="class_player_1_1_player.html" target="_top" xlink:title="玩家">
<polygon fill="white" stroke="black" points="611.5,-774.5 611.5,-1436.5 811.5,-1436.5 811.5,-774.5 611.5,-774.5"/>
<text text-anchor="middle" x="711.5" y="-1424.5" font-family="Helvetica,sans-Serif" font-size="10.00">Player.Player</text>
<polyline fill="none" stroke="black" points="611.5,-1417.5 811.5,-1417.5 "/>
<text text-anchor="start" x="619.5" y="-1405.5" font-family="Helvetica,sans-Serif" font-size="10.00">+ UnityEvent playerDeadEvent</text>
<text text-anchor="start" x="619.5" y="-1394.5" font-family="Helvetica,sans-Serif" font-size="10.00">+ UnityAction updateEventHandler</text>
<text text-anchor="start" x="619.5" y="-1383.5" font-family="Helvetica,sans-Serif" font-size="10.00">+ bool enableFarmer</text>
<text text-anchor="start" x="619.5" y="-1372.5" font-family="Helvetica,sans-Serif" font-size="10.00">+ Transform[] resourceTransform</text>
<text text-anchor="start" x="619.5" y="-1361.5" font-family="Helvetica,sans-Serif" font-size="10.00">+ int[] resourceProduct</text>
<text text-anchor="start" x="619.5" y="-1350.5" font-family="Helvetica,sans-Serif" font-size="10.00">+ float resourceProducingTime</text>
<text text-anchor="start" x="619.5" y="-1339.5" font-family="Helvetica,sans-Serif" font-size="10.00">+ bool isEnemy</text>
<text text-anchor="start" x="619.5" y="-1328.5" font-family="Helvetica,sans-Serif" font-size="10.00">+ int[] availableUnits</text>
<text text-anchor="start" x="619.5" y="-1317.5" font-family="Helvetica,sans-Serif" font-size="10.00">+ List&lt; Unit &gt; UnitsList</text>
<text text-anchor="start" x="619.5" y="-1306.5" font-family="Helvetica,sans-Serif" font-size="10.00">+ int HP</text>
<text text-anchor="start" x="619.5" y="-1295.5" font-family="Helvetica,sans-Serif" font-size="10.00">+ int Food</text>
<text text-anchor="start" x="619.5" y="-1284.5" font-family="Helvetica,sans-Serif" font-size="10.00">+ int Wood</text>
<text text-anchor="start" x="619.5" y="-1273.5" font-family="Helvetica,sans-Serif" font-size="10.00">+ int Gold</text>
<text text-anchor="start" x="619.5" y="-1262.5" font-family="Helvetica,sans-Serif" font-size="10.00">+ Transform Top</text>
<text text-anchor="start" x="619.5" y="-1251.5" font-family="Helvetica,sans-Serif" font-size="10.00">+ Transform Mid</text>
<text text-anchor="start" x="619.5" y="-1240.5" font-family="Helvetica,sans-Serif" font-size="10.00">+ Transform Bot</text>
<text text-anchor="start" x="619.5" y="-1229.5" font-family="Helvetica,sans-Serif" font-size="10.00">+ int MaxFarmerNumber</text>
<text text-anchor="start" x="619.5" y="-1218.5" font-family="Helvetica,sans-Serif" font-size="10.00">+ int FarmerCount</text>
<text text-anchor="start" x="619.5" y="-1207.5" font-family="Helvetica,sans-Serif" font-size="10.00">+ int DispatchableFarmer</text>
<text text-anchor="start" x="619.5" y="-1196.5" font-family="Helvetica,sans-Serif" font-size="10.00">+ int[] RoadFarmers</text>
<text text-anchor="start" x="619.5" y="-1185.5" font-family="Helvetica,sans-Serif" font-size="10.00">+ int[] RoadWorkingFarmers</text>
<polyline fill="none" stroke="black" points="611.5,-1178.5 811.5,-1178.5 "/>
<text text-anchor="start" x="619.5" y="-1166.5" font-family="Helvetica,sans-Serif" font-size="10.00">+ virtual void UpdateLocal</text>
<text text-anchor="start" x="619.5" y="-1155.5" font-family="Helvetica,sans-Serif" font-size="10.00">PlayerProperties()</text>
<text text-anchor="start" x="619.5" y="-1144.5" font-family="Helvetica,sans-Serif" font-size="10.00">+ virtual void ChangeResource</text>
<text text-anchor="start" x="619.5" y="-1133.5" font-family="Helvetica,sans-Serif" font-size="10.00">(GameResourceType gameResourceType,</text>
<text text-anchor="start" x="619.5" y="-1122.5" font-family="Helvetica,sans-Serif" font-size="10.00"> int count)</text>
<text text-anchor="start" x="619.5" y="-1111.5" font-family="Helvetica,sans-Serif" font-size="10.00">+ bool IsEnoughForUnit</text>
<text text-anchor="start" x="619.5" y="-1100.5" font-family="Helvetica,sans-Serif" font-size="10.00">(Unit unit)</text>
<text text-anchor="start" x="619.5" y="-1089.5" font-family="Helvetica,sans-Serif" font-size="10.00">+ bool IsEnoughForUnit</text>
<text text-anchor="start" x="619.5" y="-1078.5" font-family="Helvetica,sans-Serif" font-size="10.00">(Unit unit, GameResourceType</text>
<text text-anchor="start" x="619.5" y="-1067.5" font-family="Helvetica,sans-Serif" font-size="10.00"> gameResourceType)</text>
<text text-anchor="start" x="619.5" y="-1056.5" font-family="Helvetica,sans-Serif" font-size="10.00">+ virtual void AddFarmer</text>
<text text-anchor="start" x="619.5" y="-1045.5" font-family="Helvetica,sans-Serif" font-size="10.00">(GameResourceType rs)</text>
<text text-anchor="start" x="619.5" y="-1034.5" font-family="Helvetica,sans-Serif" font-size="10.00">+ virtual void SubtractFarmer</text>
<text text-anchor="start" x="619.5" y="-1023.5" font-family="Helvetica,sans-Serif" font-size="10.00">(GameResourceType rs)</text>
<text text-anchor="start" x="619.5" y="-1012.5" font-family="Helvetica,sans-Serif" font-size="10.00">+ void InstantiateFarmer</text>
<text text-anchor="start" x="619.5" y="-1001.5" font-family="Helvetica,sans-Serif" font-size="10.00">(Road rd, Transform transform,</text>
<text text-anchor="start" x="619.5" y="-990.5" font-family="Helvetica,sans-Serif" font-size="10.00"> int resourceCarried)</text>
<text text-anchor="start" x="619.5" y="-979.5" font-family="Helvetica,sans-Serif" font-size="10.00">+ void FarmerBack(Farmer</text>
<text text-anchor="start" x="619.5" y="-968.5" font-family="Helvetica,sans-Serif" font-size="10.00"> farmer, Transform tr)</text>
<text text-anchor="start" x="619.5" y="-957.5" font-family="Helvetica,sans-Serif" font-size="10.00">+ int CountUnits(UnitType</text>
<text text-anchor="start" x="619.5" y="-946.5" font-family="Helvetica,sans-Serif" font-size="10.00"> type)</text>
<text text-anchor="start" x="619.5" y="-935.5" font-family="Helvetica,sans-Serif" font-size="10.00">+ void SetUnits(Vector3</text>
<text text-anchor="start" x="619.5" y="-924.5" font-family="Helvetica,sans-Serif" font-size="10.00"> tr, int chosenUnit,</text>
<text text-anchor="start" x="619.5" y="-913.5" font-family="Helvetica,sans-Serif" font-size="10.00"> Road rd, int number)</text>
<text text-anchor="start" x="619.5" y="-902.5" font-family="Helvetica,sans-Serif" font-size="10.00">+ void SetUnits(Vector3</text>
<text text-anchor="start" x="619.5" y="-891.5" font-family="Helvetica,sans-Serif" font-size="10.00"> tr, int chosenUnit,</text>
<text text-anchor="start" x="619.5" y="-880.5" font-family="Helvetica,sans-Serif" font-size="10.00"> Road rd, int number,</text>
<text text-anchor="start" x="619.5" y="-869.5" font-family="Helvetica,sans-Serif" font-size="10.00"> Vector3 oriVelocity)</text>
<text text-anchor="start" x="619.5" y="-858.5" font-family="Helvetica,sans-Serif" font-size="10.00">+ virtual void Instantiate</text>
<text text-anchor="start" x="619.5" y="-847.5" font-family="Helvetica,sans-Serif" font-size="10.00">Unit(int chosenUnit, Road</text>
<text text-anchor="start" x="619.5" y="-836.5" font-family="Helvetica,sans-Serif" font-size="10.00"> rd, Vector3 oriPoint)</text>
<text text-anchor="start" x="619.5" y="-825.5" font-family="Helvetica,sans-Serif" font-size="10.00">+ virtual void Instantiate</text>
<text text-anchor="start" x="619.5" y="-814.5" font-family="Helvetica,sans-Serif" font-size="10.00">Unit(int chosenUnit, Road</text>
<text text-anchor="start" x="619.5" y="-803.5" font-family="Helvetica,sans-Serif" font-size="10.00"> rd, Vector3 oriPoint, Vector3</text>
<text text-anchor="start" x="619.5" y="-792.5" font-family="Helvetica,sans-Serif" font-size="10.00"> oriVelocity)</text>
<text text-anchor="start" x="619.5" y="-781.5" font-family="Helvetica,sans-Serif" font-size="10.00"># virtual void Start()</text>
</a>
</g>
</g>
<!-- Node2&#45;&gt;Node4 -->
<g id="edge5" class="edge">
<title>Node2&#45;&gt;Node4</title>
<path fill="none" stroke="midnightblue" d="M469.6,-1488.01C488.81,-1480.83 509.78,-1470.47 525.5,-1456 558.88,-1425.28 587.41,-1387.17 611.38,-1347.52"/>
<polygon fill="none" stroke="midnightblue" points="468.32,-1484.75 460.05,-1491.38 470.65,-1491.35 468.32,-1484.75"/>
</g>
<!-- Node6 -->
<g id="node6" class="node">
<title>Node6</title>
<g id="a_node6"><a xlink:href="class_units_1_1_unit.html" target="_top" xlink:title="单位">
<polygon fill="white" stroke="black" points="888.5,-259.5 888.5,-657.5 1054.5,-657.5 1054.5,-259.5 888.5,-259.5"/>
<text text-anchor="middle" x="971.5" y="-645.5" font-family="Helvetica,sans-Serif" font-size="10.00">Unit</text>
<polyline fill="none" stroke="black" points="888.5,-638.5 1054.5,-638.5 "/>
<text text-anchor="start" x="896.5" y="-626.5" font-family="Helvetica,sans-Serif" font-size="10.00">+ int defence</text>
<text text-anchor="start" x="896.5" y="-615.5" font-family="Helvetica,sans-Serif" font-size="10.00">+ bool isUnmovable</text>
<text text-anchor="start" x="896.5" y="-604.5" font-family="Helvetica,sans-Serif" font-size="10.00">+ int playerOwnMax</text>
<text text-anchor="start" x="896.5" y="-593.5" font-family="Helvetica,sans-Serif" font-size="10.00">+ Rigidbody unitRigidbody</text>
<text text-anchor="start" x="896.5" y="-582.5" font-family="Helvetica,sans-Serif" font-size="10.00">+ Road road</text>
<text text-anchor="start" x="896.5" y="-571.5" font-family="Helvetica,sans-Serif" font-size="10.00">+ UnitType unitType</text>
<text text-anchor="start" x="896.5" y="-560.5" font-family="Helvetica,sans-Serif" font-size="10.00">+ int costFood</text>
<text text-anchor="start" x="896.5" y="-549.5" font-family="Helvetica,sans-Serif" font-size="10.00">+ int costWood</text>
<text text-anchor="start" x="896.5" y="-538.5" font-family="Helvetica,sans-Serif" font-size="10.00">+ int costGold</text>
<text text-anchor="start" x="896.5" y="-527.5" font-family="Helvetica,sans-Serif" font-size="10.00">+ bool isDieImmediately</text>
<text text-anchor="start" x="896.5" y="-516.5" font-family="Helvetica,sans-Serif" font-size="10.00">+ int deathReward</text>
<text text-anchor="start" x="896.5" y="-505.5" font-family="Helvetica,sans-Serif" font-size="10.00">+ UnityEvent&lt; GameObject,</text>
<text text-anchor="start" x="896.5" y="-494.5" font-family="Helvetica,sans-Serif" font-size="10.00"> Transform &gt; navStopEventHandler</text>
<text text-anchor="start" x="896.5" y="-483.5" font-family="Helvetica,sans-Serif" font-size="10.00">+ UnityEvent&lt; Player.Player,</text>
<text text-anchor="start" x="896.5" y="-472.5" font-family="Helvetica,sans-Serif" font-size="10.00"> IMilitaryUnit &gt; UnitDeathEvent</text>
<text text-anchor="start" x="896.5" y="-461.5" font-family="Helvetica,sans-Serif" font-size="10.00">Handler</text>
<text text-anchor="start" x="896.5" y="-450.5" font-family="Helvetica,sans-Serif" font-size="10.00">+ int??? HP</text>
<text text-anchor="start" x="896.5" y="-439.5" font-family="Helvetica,sans-Serif" font-size="10.00">+ float Speed</text>
<text text-anchor="start" x="896.5" y="-428.5" font-family="Helvetica,sans-Serif" font-size="10.00">+ Transform InitTarget</text>
<text text-anchor="start" x="896.5" y="-417.5" font-family="Helvetica,sans-Serif" font-size="10.00">+ bool IsAtEnemyDoor</text>
<text text-anchor="start" x="896.5" y="-406.5" font-family="Helvetica,sans-Serif" font-size="10.00"># bool Death</text>
<text text-anchor="start" x="896.5" y="-395.5" font-family="Helvetica,sans-Serif" font-size="10.00"># UnityEvent StartEventHandler</text>
<text text-anchor="start" x="896.5" y="-384.5" font-family="Helvetica,sans-Serif" font-size="10.00"># UnityEvent&lt; IMilitaryUnit</text>
<text text-anchor="start" x="896.5" y="-373.5" font-family="Helvetica,sans-Serif" font-size="10.00"> &gt; BeAttackedEventHandler</text>
<polyline fill="none" stroke="black" points="888.5,-366.5 1054.5,-366.5 "/>
<text text-anchor="start" x="896.5" y="-354.5" font-family="Helvetica,sans-Serif" font-size="10.00">+ virtual void Start()</text>
<text text-anchor="start" x="896.5" y="-343.5" font-family="Helvetica,sans-Serif" font-size="10.00">+ virtual void Update()</text>
<text text-anchor="start" x="896.5" y="-332.5" font-family="Helvetica,sans-Serif" font-size="10.00">+ virtual void BeAttacked</text>
<text text-anchor="start" x="896.5" y="-321.5" font-family="Helvetica,sans-Serif" font-size="10.00">(IMilitaryUnit attacker)</text>
<text text-anchor="start" x="896.5" y="-310.5" font-family="Helvetica,sans-Serif" font-size="10.00"># virtual void Awake()</text>
<text text-anchor="start" x="896.5" y="-299.5" font-family="Helvetica,sans-Serif" font-size="10.00"># void Goto(Transform tr)</text>
<text text-anchor="start" x="896.5" y="-288.5" font-family="Helvetica,sans-Serif" font-size="10.00"># static float GetTwoPoint</text>
<text text-anchor="start" x="896.5" y="-277.5" font-family="Helvetica,sans-Serif" font-size="10.00">DistanceOnNav(Vector3</text>
<text text-anchor="start" x="896.5" y="-266.5" font-family="Helvetica,sans-Serif" font-size="10.00"> oriPoint, Vector3 targetPoint)</text>
</a>
</g>
</g>
<!-- Node2&#45;&gt;Node6 -->
<g id="edge8" class="edge">
<title>Node2&#45;&gt;Node6</title>
<path fill="none" stroke="midnightblue" d="M470.42,-1500.02C605.95,-1494.31 962.35,-1475.74 997.5,-1437 1187.43,-1227.66 1119.31,-877.14 1048.46,-657.63"/>
<polygon fill="none" stroke="midnightblue" points="470.14,-1496.53 460.29,-1500.44 470.43,-1503.52 470.14,-1496.53"/>
</g>
<!-- Node9 -->
<g id="node9" class="node">
<title>Node9</title>
<g id="a_node9"><a xlink:href="class_units_1_1_unit.html" target="_top" xlink:title="单位">
<polygon fill="white" stroke="black" points="540.5,-259.5 540.5,-657.5 706.5,-657.5 706.5,-259.5 540.5,-259.5"/>
<text text-anchor="middle" x="623.5" y="-645.5" font-family="Helvetica,sans-Serif" font-size="10.00">Units.Unit</text>
<polyline fill="none" stroke="black" points="540.5,-638.5 706.5,-638.5 "/>
<text text-anchor="start" x="548.5" y="-626.5" font-family="Helvetica,sans-Serif" font-size="10.00">+ int defence</text>
<text text-anchor="start" x="548.5" y="-615.5" font-family="Helvetica,sans-Serif" font-size="10.00">+ bool isUnmovable</text>
<text text-anchor="start" x="548.5" y="-604.5" font-family="Helvetica,sans-Serif" font-size="10.00">+ int playerOwnMax</text>
<text text-anchor="start" x="548.5" y="-593.5" font-family="Helvetica,sans-Serif" font-size="10.00">+ Rigidbody unitRigidbody</text>
<text text-anchor="start" x="548.5" y="-582.5" font-family="Helvetica,sans-Serif" font-size="10.00">+ Road road</text>
<text text-anchor="start" x="548.5" y="-571.5" font-family="Helvetica,sans-Serif" font-size="10.00">+ UnitType unitType</text>
<text text-anchor="start" x="548.5" y="-560.5" font-family="Helvetica,sans-Serif" font-size="10.00">+ int costFood</text>
<text text-anchor="start" x="548.5" y="-549.5" font-family="Helvetica,sans-Serif" font-size="10.00">+ int costWood</text>
<text text-anchor="start" x="548.5" y="-538.5" font-family="Helvetica,sans-Serif" font-size="10.00">+ int costGold</text>
<text text-anchor="start" x="548.5" y="-527.5" font-family="Helvetica,sans-Serif" font-size="10.00">+ bool isDieImmediately</text>
<text text-anchor="start" x="548.5" y="-516.5" font-family="Helvetica,sans-Serif" font-size="10.00">+ int deathReward</text>
<text text-anchor="start" x="548.5" y="-505.5" font-family="Helvetica,sans-Serif" font-size="10.00">+ UnityEvent&lt; GameObject,</text>
<text text-anchor="start" x="548.5" y="-494.5" font-family="Helvetica,sans-Serif" font-size="10.00"> Transform &gt; navStopEventHandler</text>
<text text-anchor="start" x="548.5" y="-483.5" font-family="Helvetica,sans-Serif" font-size="10.00">+ UnityEvent&lt; Player.Player,</text>
<text text-anchor="start" x="548.5" y="-472.5" font-family="Helvetica,sans-Serif" font-size="10.00"> IMilitaryUnit &gt; UnitDeathEvent</text>
<text text-anchor="start" x="548.5" y="-461.5" font-family="Helvetica,sans-Serif" font-size="10.00">Handler</text>
<text text-anchor="start" x="548.5" y="-450.5" font-family="Helvetica,sans-Serif" font-size="10.00">+ int??? HP</text>
<text text-anchor="start" x="548.5" y="-439.5" font-family="Helvetica,sans-Serif" font-size="10.00">+ float Speed</text>
<text text-anchor="start" x="548.5" y="-428.5" font-family="Helvetica,sans-Serif" font-size="10.00">+ Transform InitTarget</text>
<text text-anchor="start" x="548.5" y="-417.5" font-family="Helvetica,sans-Serif" font-size="10.00">+ bool IsAtEnemyDoor</text>
<text text-anchor="start" x="548.5" y="-406.5" font-family="Helvetica,sans-Serif" font-size="10.00"># bool Death</text>
<text text-anchor="start" x="548.5" y="-395.5" font-family="Helvetica,sans-Serif" font-size="10.00"># UnityEvent StartEventHandler</text>
<text text-anchor="start" x="548.5" y="-384.5" font-family="Helvetica,sans-Serif" font-size="10.00"># UnityEvent&lt; IMilitaryUnit</text>
<text text-anchor="start" x="548.5" y="-373.5" font-family="Helvetica,sans-Serif" font-size="10.00"> &gt; BeAttackedEventHandler</text>
<polyline fill="none" stroke="black" points="540.5,-366.5 706.5,-366.5 "/>
<text text-anchor="start" x="548.5" y="-354.5" font-family="Helvetica,sans-Serif" font-size="10.00">+ virtual void Start()</text>
<text text-anchor="start" x="548.5" y="-343.5" font-family="Helvetica,sans-Serif" font-size="10.00">+ virtual void Update()</text>
<text text-anchor="start" x="548.5" y="-332.5" font-family="Helvetica,sans-Serif" font-size="10.00">+ virtual void BeAttacked</text>
<text text-anchor="start" x="548.5" y="-321.5" font-family="Helvetica,sans-Serif" font-size="10.00">(IMilitaryUnit attacker)</text>
<text text-anchor="start" x="548.5" y="-310.5" font-family="Helvetica,sans-Serif" font-size="10.00"># virtual void Awake()</text>
<text text-anchor="start" x="548.5" y="-299.5" font-family="Helvetica,sans-Serif" font-size="10.00"># void Goto(Transform tr)</text>
<text text-anchor="start" x="548.5" y="-288.5" font-family="Helvetica,sans-Serif" font-size="10.00"># static float GetTwoPoint</text>
<text text-anchor="start" x="548.5" y="-277.5" font-family="Helvetica,sans-Serif" font-size="10.00">DistanceOnNav(Vector3</text>
<text text-anchor="start" x="548.5" y="-266.5" font-family="Helvetica,sans-Serif" font-size="10.00"> oriPoint, Vector3 targetPoint)</text>
</a>
</g>
</g>
<!-- Node2&#45;&gt;Node9 -->
<g id="edge14" class="edge">
<title>Node2&#45;&gt;Node9</title>
<path fill="none" stroke="midnightblue" d="M430.24,-1464.61C431.04,-1461.7 431.8,-1458.81 432.5,-1456 500.31,-1181.75 558.12,-860.03 591.84,-657.95"/>
<polygon fill="none" stroke="midnightblue" points="426.82,-1463.82 427.42,-1474.4 433.55,-1465.76 426.82,-1463.82"/>
</g>
<!-- Node11 -->
<g id="node11" class="node">
<title>Node11</title>
<g id="a_node11"><a xlink:href="class_u_i_1_1_chinese_sports_1_1_battle_1_1_sprite_indicator_u_i.html" target="_top" xlink:title=" ">
<polygon fill="white" stroke="black" points="340.5,-676.5 340.5,-755.5 496.5,-755.5 496.5,-676.5 340.5,-676.5"/>
<text text-anchor="start" x="348.5" y="-743.5" font-family="Helvetica,sans-Serif" font-size="10.00">UI.ChineseSports.Battle.</text>
<text text-anchor="middle" x="418.5" y="-732.5" font-family="Helvetica,sans-Serif" font-size="10.00">SpriteIndicatorUI</text>
<polyline fill="none" stroke="black" points="340.5,-725.5 496.5,-725.5 "/>
<text text-anchor="start" x="348.5" y="-713.5" font-family="Helvetica,sans-Serif" font-size="10.00">+ SpriteRenderer spriteRenderer</text>
<text text-anchor="start" x="348.5" y="-702.5" font-family="Helvetica,sans-Serif" font-size="10.00">+ Sprite UnitSprite</text>
<polyline fill="none" stroke="black" points="340.5,-695.5 496.5,-695.5 "/>
<text text-anchor="middle" x="418.5" y="-683.5" font-family="Helvetica,sans-Serif" font-size="10.00"> </text>
</a>
</g>
</g>
<!-- Node2&#45;&gt;Node11 -->
<g id="edge19" class="edge">
<title>Node2&#45;&gt;Node11</title>
<path fill="none" stroke="midnightblue" d="M418.5,-1463.97C418.5,-1331.23 418.5,-889.3 418.5,-755.63"/>
<polygon fill="none" stroke="midnightblue" points="415,-1464.06 418.5,-1474.06 422,-1464.06 415,-1464.06"/>
</g>
<!-- Node12 -->
<g id="node12" class="node">
<title>Node12</title>
<g id="a_node12"><a xlink:href="class_u_i_1_1_chinese_sports_1_1_battle_1_1_shoot_calculator_u_i.html" target="_top" xlink:title=" ">
<polygon fill="white" stroke="black" points="95.5,-1038.5 95.5,-1172.5 259.5,-1172.5 259.5,-1038.5 95.5,-1038.5"/>
<text text-anchor="start" x="103.5" y="-1160.5" font-family="Helvetica,sans-Serif" font-size="10.00">UI.ChineseSports.Battle.</text>
<text text-anchor="middle" x="177.5" y="-1149.5" font-family="Helvetica,sans-Serif" font-size="10.00">ShootCalculatorUI</text>
<polyline fill="none" stroke="black" points="95.5,-1142.5 259.5,-1142.5 "/>
<text text-anchor="start" x="103.5" y="-1130.5" font-family="Helvetica,sans-Serif" font-size="10.00">+ Rigidbody shootRigidbody</text>
<text text-anchor="start" x="103.5" y="-1119.5" font-family="Helvetica,sans-Serif" font-size="10.00">+ Vector3 oriVelocity</text>
<text text-anchor="start" x="103.5" y="-1108.5" font-family="Helvetica,sans-Serif" font-size="10.00">+ Vector3 oriPos</text>
<text text-anchor="start" x="103.5" y="-1097.5" font-family="Helvetica,sans-Serif" font-size="10.00">+ Vector3 oriScreenPos</text>
<text text-anchor="start" x="103.5" y="-1086.5" font-family="Helvetica,sans-Serif" font-size="10.00">+ PhysicMaterial groundMaterial</text>
<text text-anchor="start" x="103.5" y="-1075.5" font-family="Helvetica,sans-Serif" font-size="10.00">+ PhysicMaterial wallMaterial</text>
<polyline fill="none" stroke="black" points="95.5,-1068.5 259.5,-1068.5 "/>
<text text-anchor="start" x="103.5" y="-1056.5" font-family="Helvetica,sans-Serif" font-size="10.00">+ void CalculateShootLine</text>
<text text-anchor="start" x="103.5" y="-1045.5" font-family="Helvetica,sans-Serif" font-size="10.00">(Vector3 oriPos, int sampleTimes)</text>
</a>
</g>
</g>
<!-- Node2&#45;&gt;Node12 -->
<g id="edge22" class="edge">
<title>Node2&#45;&gt;Node12</title>
<path fill="none" stroke="midnightblue" d="M366.77,-1497.83C335.76,-1492.66 297.76,-1481.23 273.5,-1456 199.46,-1379.01 181.4,-1250.45 177.64,-1172.57"/>
<polygon fill="none" stroke="midnightblue" points="366.58,-1501.34 376.99,-1499.35 367.61,-1494.41 366.58,-1501.34"/>
</g>
<!-- Node3&#45;&gt;Node1 -->
<g id="edge2" class="edge">
<title>Node3&#45;&gt;Node1</title>
<path fill="none" stroke="#404040" d="M259.07,-173.11C248.69,-187.45 239.19,-203.05 232.5,-219 207.79,-277.89 201.9,-351.6 201.16,-401.37"/>
<polygon fill="none" stroke="#404040" points="201.16,-401.48 205.12,-407.51 201.08,-413.48 197.12,-407.45 201.16,-401.48"/>
<text text-anchor="middle" x="272" y="-227.5" font-family="Helvetica,sans-Serif" font-size="10.00"> +UnitDispatchUIs</text>
</g>
<!-- Node4&#45;&gt;Node3 -->
<g id="edge4" class="edge">
<title>Node4&#45;&gt;Node3</title>
<path fill="none" stroke="#404040" d="M611.4,-889.95C578.51,-821.19 541.21,-745 505.5,-676 501.29,-667.87 498.14,-666.76 495.5,-658 444.24,-487.68 533.82,-422.81 464.5,-259 451.83,-229.07 431.14,-200.89 409.55,-176.87"/>
<polygon fill="none" stroke="#404040" points="409.38,-176.69 402.37,-175 401.24,-167.88 408.25,-169.57 409.38,-176.69"/>
<text text-anchor="middle" x="513.5" y="-456" font-family="Helvetica,sans-Serif" font-size="10.00"> +player</text>
</g>
<!-- Node4&#45;&gt;Node6 -->
<g id="edge9" class="edge">
<title>Node4&#45;&gt;Node6</title>
<path fill="none" stroke="#404040" d="M795.68,-774.43C810.25,-718.34 821.22,-677.39 822.5,-676 839.09,-658.03 856.19,-674.21 874.5,-658 876.33,-656.38 878.13,-654.72 879.9,-653.01"/>
<polygon fill="none" stroke="#404040" points="880.12,-652.79 881.44,-645.7 888.49,-644.19 887.17,-651.28 880.12,-652.79"/>
<text text-anchor="middle" x="850" y="-713.5" font-family="Helvetica,sans-Serif" font-size="10.00"> +sidePlayer</text>
</g>
<!-- Node4&#45;&gt;Node9 -->
<g id="edge15" class="edge">
<title>Node4&#45;&gt;Node9</title>
<path fill="none" stroke="#404040" d="M666.47,-774.44C661.63,-738.97 656.81,-703.62 652.23,-670.11"/>
<polygon fill="none" stroke="#404040" points="652.18,-669.74 647.41,-664.34 650.56,-657.85 655.34,-663.26 652.18,-669.74"/>
<text text-anchor="middle" x="689" y="-713.5" font-family="Helvetica,sans-Serif" font-size="10.00"> +sidePlayer</text>
</g>
<!-- Node5 -->
<g id="node5" class="node">
<title>Node5</title>
<g id="a_node5"><a xlink:href="class_units_1_1_farmer.html" target="_top" xlink:title="农民">
<polygon fill="white" stroke="black" points="867,-0.5 867,-200.5 1018,-200.5 1018,-0.5 867,-0.5"/>
<text text-anchor="middle" x="942.5" y="-188.5" font-family="Helvetica,sans-Serif" font-size="10.00">Units.Farmer</text>
<polyline fill="none" stroke="black" points="867,-181.5 1018,-181.5 "/>
<text text-anchor="start" x="875" y="-169.5" font-family="Helvetica,sans-Serif" font-size="10.00">+ float workTime</text>
<text text-anchor="start" x="875" y="-158.5" font-family="Helvetica,sans-Serif" font-size="10.00">+ int[] maxLoad</text>
<text text-anchor="start" x="875" y="-147.5" font-family="Helvetica,sans-Serif" font-size="10.00">+ UnityAction&lt; Farmer,</text>
<text text-anchor="start" x="875" y="-136.5" font-family="Helvetica,sans-Serif" font-size="10.00"> Transform &gt; farmerBackEvent</text>
<text text-anchor="start" x="875" y="-125.5" font-family="Helvetica,sans-Serif" font-size="10.00">Handler</text>
<text text-anchor="start" x="875" y="-114.5" font-family="Helvetica,sans-Serif" font-size="10.00">+ int ResouceCarried</text>
<text text-anchor="start" x="875" y="-103.5" font-family="Helvetica,sans-Serif" font-size="10.00"># Transform _home</text>
<text text-anchor="start" x="875" y="-92.5" font-family="Helvetica,sans-Serif" font-size="10.00"># Transform _targerResource</text>
<polyline fill="none" stroke="black" points="867,-85.5 1018,-85.5 "/>
<text text-anchor="start" x="875" y="-73.5" font-family="Helvetica,sans-Serif" font-size="10.00">+ override void Start()</text>
<text text-anchor="start" x="875" y="-62.5" font-family="Helvetica,sans-Serif" font-size="10.00"># void OnNavStop(GameObject</text>
<text text-anchor="start" x="875" y="-51.5" font-family="Helvetica,sans-Serif" font-size="10.00"> gm, Transform tr)</text>
<text text-anchor="start" x="875" y="-40.5" font-family="Helvetica,sans-Serif" font-size="10.00"># void GenerateWorkPath()</text>
<text text-anchor="start" x="875" y="-29.5" font-family="Helvetica,sans-Serif" font-size="10.00"># virtual void Work()</text>
<text text-anchor="start" x="875" y="-18.5" font-family="Helvetica,sans-Serif" font-size="10.00"># void Drop(Farmer farmer,</text>
<text text-anchor="start" x="875" y="-7.5" font-family="Helvetica,sans-Serif" font-size="10.00"> Transform tr)</text>
</a>
</g>
</g>
<!-- Node5&#45;&gt;Node4 -->
<g id="edge6" class="edge">
<title>Node5&#45;&gt;Node4</title>
<path fill="none" stroke="#404040" d="M866.97,-176.97C846.92,-201.27 827.53,-229.57 815.5,-259 748.09,-423.93 798.01,-481.12 776.5,-658 772.38,-691.88 767.78,-727.17 762.98,-762.4"/>
<polygon fill="none" stroke="#404040" points="762.97,-762.45 766.12,-768.94 761.35,-774.34 758.2,-767.85 762.97,-762.45"/>
<text text-anchor="middle" x="847.5" y="-456" font-family="Helvetica,sans-Serif" font-size="10.00"> +farmerPrefab</text>
</g>
<!-- Node6&#45;&gt;Node5 -->
<g id="edge7" class="edge">
<title>Node6&#45;&gt;Node5</title>
<path fill="none" stroke="midnightblue" d="M954.52,-249.03C953.16,-232.34 951.83,-216.03 950.58,-200.69"/>
<polygon fill="none" stroke="midnightblue" points="951.07,-249.78 955.37,-259.46 958.04,-249.21 951.07,-249.78"/>
</g>
<!-- Node8 -->
<g id="node8" class="node">
<title>Node8</title>
<g id="a_node8"><a xlink:href="class_units_1_1_door.html" target="_top" xlink:title="基地门">
<polygon fill="white" stroke="black" points="692.5,-66.5 692.5,-134.5 810.5,-134.5 810.5,-66.5 692.5,-66.5"/>
<text text-anchor="middle" x="751.5" y="-122.5" font-family="Helvetica,sans-Serif" font-size="10.00">Units.Door</text>
<polyline fill="none" stroke="black" points="692.5,-115.5 810.5,-115.5 "/>
<text text-anchor="middle" x="751.5" y="-103.5" font-family="Helvetica,sans-Serif" font-size="10.00"> </text>
<polyline fill="none" stroke="black" points="692.5,-96.5 810.5,-96.5 "/>
<text text-anchor="start" x="700.5" y="-84.5" font-family="Helvetica,sans-Serif" font-size="10.00">+ override void Start()</text>
<text text-anchor="start" x="700.5" y="-73.5" font-family="Helvetica,sans-Serif" font-size="10.00">+ override void Update()</text>
</a>
</g>
</g>
<!-- Node6&#45;&gt;Node8 -->
<g id="edge12" class="edge">
<title>Node6&#45;&gt;Node8</title>
<path fill="none" stroke="midnightblue" d="M883.29,-273.46C880.39,-268.55 877.45,-263.73 874.5,-259 846.08,-213.55 807.17,-165.59 780.77,-134.71"/>
<polygon fill="none" stroke="midnightblue" points="880.42,-275.49 888.48,-282.37 886.47,-271.96 880.42,-275.49"/>
</g>
<!-- Node7 -->
<g id="node7" class="node">
<title>Node7</title>
<g id="a_node7"><a xlink:href="interface_units_1_1_i_military_unit.html" target="_top" xlink:title="攻击性单位接口">
<polygon fill="white" stroke="black" points="848.5,-1016.5 848.5,-1194.5 988.5,-1194.5 988.5,-1016.5 848.5,-1016.5"/>
<text text-anchor="middle" x="918.5" y="-1182.5" font-family="Helvetica,sans-Serif" font-size="10.00">Units.IMilitaryUnit</text>
<polyline fill="none" stroke="black" points="848.5,-1175.5 988.5,-1175.5 "/>
<text text-anchor="start" x="856.5" y="-1163.5" font-family="Helvetica,sans-Serif" font-size="10.00">+ int AttackValue</text>
<text text-anchor="start" x="856.5" y="-1152.5" font-family="Helvetica,sans-Serif" font-size="10.00">+ float AttackColdDownTime</text>
<text text-anchor="start" x="856.5" y="-1141.5" font-family="Helvetica,sans-Serif" font-size="10.00">+ float AttackRange</text>
<text text-anchor="start" x="856.5" y="-1130.5" font-family="Helvetica,sans-Serif" font-size="10.00">+ int DefenceValue</text>
<text text-anchor="start" x="856.5" y="-1119.5" font-family="Helvetica,sans-Serif" font-size="10.00">+ float SpeedValue</text>
<text text-anchor="start" x="856.5" y="-1108.5" font-family="Helvetica,sans-Serif" font-size="10.00">+ Vector3 OriginalVelocity</text>
<text text-anchor="start" x="856.5" y="-1097.5" font-family="Helvetica,sans-Serif" font-size="10.00">+ Player.Player SidePlayer</text>
<text text-anchor="start" x="856.5" y="-1086.5" font-family="Helvetica,sans-Serif" font-size="10.00">+ UnityEvent&lt; Unit &gt;</text>
<text text-anchor="start" x="856.5" y="-1075.5" font-family="Helvetica,sans-Serif" font-size="10.00"> AttackEvent</text>
<text text-anchor="start" x="856.5" y="-1064.5" font-family="Helvetica,sans-Serif" font-size="10.00">+ UnityEvent&lt; IMilitaryUnit</text>
<text text-anchor="start" x="856.5" y="-1053.5" font-family="Helvetica,sans-Serif" font-size="10.00"> &gt; UnderAttackedEvent</text>
<polyline fill="none" stroke="black" points="848.5,-1046.5 988.5,-1046.5 "/>
<text text-anchor="start" x="856.5" y="-1034.5" font-family="Helvetica,sans-Serif" font-size="10.00">+ void Attack()</text>
<text text-anchor="start" x="856.5" y="-1023.5" font-family="Helvetica,sans-Serif" font-size="10.00">+ Unit GetUnit()</text>
</a>
</g>
</g>
<!-- Node7&#45;&gt;Node6 -->
<g id="edge10" class="edge">
<title>Node7&#45;&gt;Node6</title>
<path fill="none" stroke="#404040" d="M926.69,-1016.44C933.16,-946 942.27,-844.69 949.5,-756 951.77,-728.2 954.06,-698.93 956.26,-670.05"/>
<polygon fill="none" stroke="#404040" points="956.29,-669.66 952.76,-663.38 957.2,-657.7 960.73,-663.98 956.29,-669.66"/>
<text text-anchor="middle" x="979" y="-713.5" font-family="Helvetica,sans-Serif" font-size="10.00"> #_attacker</text>
</g>
<!-- Node7&#45;&gt;Node9 -->
<g id="edge16" class="edge">
<title>Node7&#45;&gt;Node9</title>
<path fill="none" stroke="#404040" d="M912.89,-1016.29C904.72,-894.39 889.26,-687.98 877.5,-676 852.9,-650.94 749.18,-678.27 720.5,-658 718.98,-656.93 717.49,-655.83 716.02,-654.69"/>
<polygon fill="none" stroke="#404040" points="715.82,-654.53 708.65,-653.74 706.62,-646.82 713.79,-647.61 715.82,-654.53"/>
<text text-anchor="middle" x="916" y="-713.5" font-family="Helvetica,sans-Serif" font-size="10.00"> #_attacker</text>
</g>
<!-- Node8&#45;&gt;Node4 -->
<g id="edge11" class="edge">
<title>Node8&#45;&gt;Node4</title>
<path fill="none" stroke="#404040" d="M750.18,-134.58C746.31,-231.64 734.66,-523.8 725.15,-762.31"/>
<polygon fill="none" stroke="#404040" points="725.15,-762.35 728.9,-768.51 724.67,-774.34 720.91,-768.19 725.15,-762.35"/>
<text text-anchor="middle" x="758.5" y="-456" font-family="Helvetica,sans-Serif" font-size="10.00"> +door</text>
</g>
<!-- Node9&#45;&gt;Node3 -->
<g id="edge13" class="edge">
<title>Node9&#45;&gt;Node3</title>
<path fill="none" stroke="#404040" d="M540.35,-268.65C528.41,-250.8 515.13,-233.85 500.5,-219 474.54,-192.65 441.8,-168.79 411.67,-149.56"/>
<polygon fill="none" stroke="#404040" points="411.31,-149.33 404.1,-149.53 401.14,-142.95 408.35,-142.75 411.31,-149.33"/>
<text text-anchor="middle" x="532" y="-227.5" font-family="Helvetica,sans-Serif" font-size="10.00"> +unit</text>
</g>
<!-- Node10 -->
<g id="node10" class="node">
<title>Node10</title>
<g id="a_node10"><a xlink:title=" ">
<polygon fill="white" stroke="#bfbfbf" points="0,-430 0,-487 35,-487 35,-430 0,-430"/>
<text text-anchor="middle" x="17.5" y="-475" font-family="Helvetica,sans-Serif" font-size="10.00">Text</text>
<polyline fill="none" stroke="#bfbfbf" points="0,-468 35,-468 "/>
<text text-anchor="middle" x="17.5" y="-456" font-family="Helvetica,sans-Serif" font-size="10.00"> </text>
<polyline fill="none" stroke="#bfbfbf" points="0,-449 35,-449 "/>
<text text-anchor="middle" x="17.5" y="-437" font-family="Helvetica,sans-Serif" font-size="10.00"> </text>
</a>
</g>
</g>
<!-- Node10&#45;&gt;Node3 -->
<g id="edge17" class="edge">
<title>Node10&#45;&gt;Node3</title>
<path fill="none" stroke="#404040" d="M11.86,-429.63C3.8,-381.51 -5.31,-281.95 41.5,-219 87.74,-156.82 172.9,-127.38 237.95,-113.54"/>
<polygon fill="none" stroke="#404040" points="238.08,-113.51 243.17,-108.4 249.85,-111.13 244.76,-116.24 238.08,-113.51"/>
<text text-anchor="middle" x="79" y="-233" font-family="Helvetica,sans-Serif" font-size="10.00"> +resourceText</text>
<text text-anchor="middle" x="79" y="-222" font-family="Helvetica,sans-Serif" font-size="10.00">+unitNumberText</text>
</g>
<!-- Node11&#45;&gt;Node3 -->
<g id="edge18" class="edge">
<title>Node11&#45;&gt;Node3</title>
<path fill="none" stroke="#404040" d="M393.34,-676.45C390.27,-670.46 387.52,-664.2 385.5,-658 324.8,-471.45 361.33,-413.96 339.5,-219 338.28,-208.13 336.97,-196.7 335.64,-185.41"/>
<polygon fill="none" stroke="#404040" points="335.62,-185.17 330.94,-179.68 334.21,-173.25 338.89,-178.74 335.62,-185.17"/>
<text text-anchor="middle" x="425" y="-456" font-family="Helvetica,sans-Serif" font-size="10.00"> +spriteIndicatorUI</text>
</g>
<!-- Node12&#45;&gt;Node1 -->
<g id="edge21" class="edge">
<title>Node12&#45;&gt;Node1</title>
<path fill="none" stroke="#404040" d="M178.1,-1038.4C179.09,-954.2 181.56,-804.22 187.5,-676 190.02,-621.59 194.48,-559.59 197.88,-515.92"/>
<polygon fill="none" stroke="#404040" points="197.89,-515.8 194.37,-509.5 198.83,-503.83 202.35,-510.13 197.89,-515.8"/>
<text text-anchor="middle" x="230.5" y="-713.5" font-family="Helvetica,sans-Serif" font-size="10.00"> +shootCalculatorUI</text>
</g>
</g>
</svg>
