<?xml version="1.0" encoding="UTF-8" standalone="no"?>
<!DOCTYPE svg PUBLIC "-//W3C//DTD SVG 1.1//EN"
 "http://www.w3.org/Graphics/SVG/1.1/DTD/svg11.dtd">
<!-- Generated by graphviz version 2.47.1 (20210417.1919)
 -->
<!-- Title: UI.Local.UnitDispatchUI Pages: 1 -->
<svg width="1009pt" height="1733pt"
 viewBox="0.00 0.00 1009.00 1733.00" xmlns="http://www.w3.org/2000/svg" xmlns:xlink="http://www.w3.org/1999/xlink">
<g id="graph0" class="graph" transform="scale(1 1) rotate(0) translate(4 1729)">
<title>UI.Local.UnitDispatchUI</title>
<polygon fill="white" stroke="transparent" points="-4,4 -4,-1729 1005,-1729 1005,4 -4,4"/>
<!-- Node1 -->
<g id="node1" class="node">
<title>Node1</title>
<g id="a_node1"><a xlink:title=" ">
<polygon fill="#bfbfbf" stroke="black" points="535.5,-166 535.5,-311 686.5,-311 686.5,-166 535.5,-166"/>
<text text-anchor="middle" x="611" y="-299" font-family="Helvetica,sans-Serif" font-size="10.00">UI.Local.UnitDispatchUI</text>
<polyline fill="none" stroke="black" points="535.5,-292 686.5,-292 "/>
<text text-anchor="start" x="543.5" y="-280" font-family="Helvetica,sans-Serif" font-size="10.00">+ Button unitRemoveButton</text>
<text text-anchor="start" x="543.5" y="-269" font-family="Helvetica,sans-Serif" font-size="10.00">+ GameObject unitSetIndicator</text>
<text text-anchor="start" x="543.5" y="-258" font-family="Helvetica,sans-Serif" font-size="10.00">+ int unitNumber</text>
<text text-anchor="start" x="543.5" y="-247" font-family="Helvetica,sans-Serif" font-size="10.00">+ int onceMax</text>
<text text-anchor="start" x="543.5" y="-236" font-family="Helvetica,sans-Serif" font-size="10.00">+ readonly Stack&lt; bool</text>
<text text-anchor="start" x="543.5" y="-225" font-family="Helvetica,sans-Serif" font-size="10.00"> &gt; UnitSelectStack</text>
<text text-anchor="start" x="543.5" y="-214" font-family="Helvetica,sans-Serif" font-size="10.00">+ int UnitDispatchNumber</text>
<polyline fill="none" stroke="black" points="535.5,-207 686.5,-207 "/>
<text text-anchor="start" x="543.5" y="-195" font-family="Helvetica,sans-Serif" font-size="10.00">+ void AddClick(bool</text>
<text text-anchor="start" x="543.5" y="-184" font-family="Helvetica,sans-Serif" font-size="10.00"> isFoodAndWood)</text>
<text text-anchor="start" x="543.5" y="-173" font-family="Helvetica,sans-Serif" font-size="10.00">+ void RemoveClick()</text>
</a>
</g>
</g>
<!-- Node11 -->
<g id="node11" class="node">
<title>Node11</title>
<g id="a_node11"><a xlink:href="class_u_i_1_1_local_1_1_unit_dispatch_manager_u_i.html" target="_top" xlink:title=" ">
<polygon fill="white" stroke="black" points="688.5,-0.5 688.5,-90.5 845.5,-90.5 845.5,-0.5 688.5,-0.5"/>
<text text-anchor="middle" x="767" y="-78.5" font-family="Helvetica,sans-Serif" font-size="10.00">UI.Local.UnitDispatchManagerUI</text>
<polyline fill="none" stroke="black" points="688.5,-71.5 845.5,-71.5 "/>
<text text-anchor="start" x="696.5" y="-59.5" font-family="Helvetica,sans-Serif" font-size="10.00">+ Player.Player player</text>
<text text-anchor="start" x="696.5" y="-48.5" font-family="Helvetica,sans-Serif" font-size="10.00">+ bool IsInDispatching</text>
<polyline fill="none" stroke="black" points="688.5,-41.5 845.5,-41.5 "/>
<text text-anchor="start" x="696.5" y="-29.5" font-family="Helvetica,sans-Serif" font-size="10.00">+ void SetClick(int rdInt)</text>
<text text-anchor="start" x="696.5" y="-18.5" font-family="Helvetica,sans-Serif" font-size="10.00">+ void SetClickWithVelocity</text>
<text text-anchor="start" x="696.5" y="-7.5" font-family="Helvetica,sans-Serif" font-size="10.00">(int rdInt)</text>
</a>
</g>
</g>
<!-- Node1&#45;&gt;Node11 -->
<g id="edge20" class="edge">
<title>Node1&#45;&gt;Node11</title>
<path fill="none" stroke="#404040" d="M604.04,-165.77C605.41,-145.85 610.28,-125.26 622,-109 635.51,-90.25 655.85,-77.08 677.06,-67.83"/>
<polygon fill="none" stroke="#404040" points="677.06,-67.83 681.13,-61.88 688.19,-63.35 684.12,-69.3 677.06,-67.83"/>
<text text-anchor="middle" x="661.5" y="-112" font-family="Helvetica,sans-Serif" font-size="10.00"> +UnitDispatchUIs</text>
</g>
<!-- Node2 -->
<g id="node2" class="node">
<title>Node2</title>
<g id="a_node2"><a xlink:title=" ">
<polygon fill="white" stroke="#bfbfbf" points="648.5,-1667.5 648.5,-1724.5 731.5,-1724.5 731.5,-1667.5 648.5,-1667.5"/>
<text text-anchor="middle" x="690" y="-1712.5" font-family="Helvetica,sans-Serif" font-size="10.00">MonoBehaviour</text>
<polyline fill="none" stroke="#bfbfbf" points="648.5,-1705.5 731.5,-1705.5 "/>
<text text-anchor="middle" x="690" y="-1693.5" font-family="Helvetica,sans-Serif" font-size="10.00"> </text>
<polyline fill="none" stroke="#bfbfbf" points="648.5,-1686.5 731.5,-1686.5 "/>
<text text-anchor="middle" x="690" y="-1674.5" font-family="Helvetica,sans-Serif" font-size="10.00"> </text>
</a>
</g>
</g>
<!-- Node2&#45;&gt;Node1 -->
<g id="edge1" class="edge">
<title>Node2&#45;&gt;Node1</title>
<path fill="none" stroke="midnightblue" d="M702.05,-1657.68C702.78,-1654.76 703.44,-1651.84 704,-1649 730.86,-1512.32 822.41,-525.65 769,-397 752,-356.04 718.6,-320.21 686.87,-293.12"/>
<polygon fill="none" stroke="midnightblue" points="698.62,-1656.93 699.36,-1667.5 705.37,-1658.78 698.62,-1656.93"/>
</g>
<!-- Node3 -->
<g id="node3" class="node">
<title>Node3</title>
<g id="a_node3"><a xlink:href="class_player_1_1_player.html" target="_top" xlink:title="玩家">
<polygon fill="white" stroke="black" points="204,-967.5 204,-1629.5 404,-1629.5 404,-967.5 204,-967.5"/>
<text text-anchor="middle" x="304" y="-1617.5" font-family="Helvetica,sans-Serif" font-size="10.00">Player.Player</text>
<polyline fill="none" stroke="black" points="204,-1610.5 404,-1610.5 "/>
<text text-anchor="start" x="212" y="-1598.5" font-family="Helvetica,sans-Serif" font-size="10.00">+ UnityEvent playerDeadEvent</text>
<text text-anchor="start" x="212" y="-1587.5" font-family="Helvetica,sans-Serif" font-size="10.00">+ UnityAction updateEventHandler</text>
<text text-anchor="start" x="212" y="-1576.5" font-family="Helvetica,sans-Serif" font-size="10.00">+ bool enableFarmer</text>
<text text-anchor="start" x="212" y="-1565.5" font-family="Helvetica,sans-Serif" font-size="10.00">+ Transform[] resourceTransform</text>
<text text-anchor="start" x="212" y="-1554.5" font-family="Helvetica,sans-Serif" font-size="10.00">+ int[] resourceProduct</text>
<text text-anchor="start" x="212" y="-1543.5" font-family="Helvetica,sans-Serif" font-size="10.00">+ float resourceProducingTime</text>
<text text-anchor="start" x="212" y="-1532.5" font-family="Helvetica,sans-Serif" font-size="10.00">+ bool isEnemy</text>
<text text-anchor="start" x="212" y="-1521.5" font-family="Helvetica,sans-Serif" font-size="10.00">+ int[] availableUnits</text>
<text text-anchor="start" x="212" y="-1510.5" font-family="Helvetica,sans-Serif" font-size="10.00">+ List&lt; Unit &gt; UnitsList</text>
<text text-anchor="start" x="212" y="-1499.5" font-family="Helvetica,sans-Serif" font-size="10.00">+ int HP</text>
<text text-anchor="start" x="212" y="-1488.5" font-family="Helvetica,sans-Serif" font-size="10.00">+ int Food</text>
<text text-anchor="start" x="212" y="-1477.5" font-family="Helvetica,sans-Serif" font-size="10.00">+ int Wood</text>
<text text-anchor="start" x="212" y="-1466.5" font-family="Helvetica,sans-Serif" font-size="10.00">+ int Gold</text>
<text text-anchor="start" x="212" y="-1455.5" font-family="Helvetica,sans-Serif" font-size="10.00">+ Transform Top</text>
<text text-anchor="start" x="212" y="-1444.5" font-family="Helvetica,sans-Serif" font-size="10.00">+ Transform Mid</text>
<text text-anchor="start" x="212" y="-1433.5" font-family="Helvetica,sans-Serif" font-size="10.00">+ Transform Bot</text>
<text text-anchor="start" x="212" y="-1422.5" font-family="Helvetica,sans-Serif" font-size="10.00">+ int MaxFarmerNumber</text>
<text text-anchor="start" x="212" y="-1411.5" font-family="Helvetica,sans-Serif" font-size="10.00">+ int FarmerCount</text>
<text text-anchor="start" x="212" y="-1400.5" font-family="Helvetica,sans-Serif" font-size="10.00">+ int DispatchableFarmer</text>
<text text-anchor="start" x="212" y="-1389.5" font-family="Helvetica,sans-Serif" font-size="10.00">+ int[] RoadFarmers</text>
<text text-anchor="start" x="212" y="-1378.5" font-family="Helvetica,sans-Serif" font-size="10.00">+ int[] RoadWorkingFarmers</text>
<polyline fill="none" stroke="black" points="204,-1371.5 404,-1371.5 "/>
<text text-anchor="start" x="212" y="-1359.5" font-family="Helvetica,sans-Serif" font-size="10.00">+ virtual void UpdateLocal</text>
<text text-anchor="start" x="212" y="-1348.5" font-family="Helvetica,sans-Serif" font-size="10.00">PlayerProperties()</text>
<text text-anchor="start" x="212" y="-1337.5" font-family="Helvetica,sans-Serif" font-size="10.00">+ virtual void ChangeResource</text>
<text text-anchor="start" x="212" y="-1326.5" font-family="Helvetica,sans-Serif" font-size="10.00">(GameResourceType gameResourceType,</text>
<text text-anchor="start" x="212" y="-1315.5" font-family="Helvetica,sans-Serif" font-size="10.00"> int count)</text>
<text text-anchor="start" x="212" y="-1304.5" font-family="Helvetica,sans-Serif" font-size="10.00">+ bool IsEnoughForUnit</text>
<text text-anchor="start" x="212" y="-1293.5" font-family="Helvetica,sans-Serif" font-size="10.00">(Unit unit)</text>
<text text-anchor="start" x="212" y="-1282.5" font-family="Helvetica,sans-Serif" font-size="10.00">+ bool IsEnoughForUnit</text>
<text text-anchor="start" x="212" y="-1271.5" font-family="Helvetica,sans-Serif" font-size="10.00">(Unit unit, GameResourceType</text>
<text text-anchor="start" x="212" y="-1260.5" font-family="Helvetica,sans-Serif" font-size="10.00"> gameResourceType)</text>
<text text-anchor="start" x="212" y="-1249.5" font-family="Helvetica,sans-Serif" font-size="10.00">+ virtual void AddFarmer</text>
<text text-anchor="start" x="212" y="-1238.5" font-family="Helvetica,sans-Serif" font-size="10.00">(GameResourceType rs)</text>
<text text-anchor="start" x="212" y="-1227.5" font-family="Helvetica,sans-Serif" font-size="10.00">+ virtual void SubtractFarmer</text>
<text text-anchor="start" x="212" y="-1216.5" font-family="Helvetica,sans-Serif" font-size="10.00">(GameResourceType rs)</text>
<text text-anchor="start" x="212" y="-1205.5" font-family="Helvetica,sans-Serif" font-size="10.00">+ void InstantiateFarmer</text>
<text text-anchor="start" x="212" y="-1194.5" font-family="Helvetica,sans-Serif" font-size="10.00">(Road rd, Transform transform,</text>
<text text-anchor="start" x="212" y="-1183.5" font-family="Helvetica,sans-Serif" font-size="10.00"> int resourceCarried)</text>
<text text-anchor="start" x="212" y="-1172.5" font-family="Helvetica,sans-Serif" font-size="10.00">+ void FarmerBack(Farmer</text>
<text text-anchor="start" x="212" y="-1161.5" font-family="Helvetica,sans-Serif" font-size="10.00"> farmer, Transform tr)</text>
<text text-anchor="start" x="212" y="-1150.5" font-family="Helvetica,sans-Serif" font-size="10.00">+ int CountUnits(UnitType</text>
<text text-anchor="start" x="212" y="-1139.5" font-family="Helvetica,sans-Serif" font-size="10.00"> type)</text>
<text text-anchor="start" x="212" y="-1128.5" font-family="Helvetica,sans-Serif" font-size="10.00">+ void SetUnits(Vector3</text>
<text text-anchor="start" x="212" y="-1117.5" font-family="Helvetica,sans-Serif" font-size="10.00"> tr, int chosenUnit,</text>
<text text-anchor="start" x="212" y="-1106.5" font-family="Helvetica,sans-Serif" font-size="10.00"> Road rd, int number)</text>
<text text-anchor="start" x="212" y="-1095.5" font-family="Helvetica,sans-Serif" font-size="10.00">+ void SetUnits(Vector3</text>
<text text-anchor="start" x="212" y="-1084.5" font-family="Helvetica,sans-Serif" font-size="10.00"> tr, int chosenUnit,</text>
<text text-anchor="start" x="212" y="-1073.5" font-family="Helvetica,sans-Serif" font-size="10.00"> Road rd, int number,</text>
<text text-anchor="start" x="212" y="-1062.5" font-family="Helvetica,sans-Serif" font-size="10.00"> Vector3 oriVelocity)</text>
<text text-anchor="start" x="212" y="-1051.5" font-family="Helvetica,sans-Serif" font-size="10.00">+ virtual void Instantiate</text>
<text text-anchor="start" x="212" y="-1040.5" font-family="Helvetica,sans-Serif" font-size="10.00">Unit(int chosenUnit, Road</text>
<text text-anchor="start" x="212" y="-1029.5" font-family="Helvetica,sans-Serif" font-size="10.00"> rd, Vector3 oriPoint)</text>
<text text-anchor="start" x="212" y="-1018.5" font-family="Helvetica,sans-Serif" font-size="10.00">+ virtual void Instantiate</text>
<text text-anchor="start" x="212" y="-1007.5" font-family="Helvetica,sans-Serif" font-size="10.00">Unit(int chosenUnit, Road</text>
<text text-anchor="start" x="212" y="-996.5" font-family="Helvetica,sans-Serif" font-size="10.00"> rd, Vector3 oriPoint, Vector3</text>
<text text-anchor="start" x="212" y="-985.5" font-family="Helvetica,sans-Serif" font-size="10.00"> oriVelocity)</text>
<text text-anchor="start" x="212" y="-974.5" font-family="Helvetica,sans-Serif" font-size="10.00"># virtual void Start()</text>
</a>
</g>
</g>
<!-- Node2&#45;&gt;Node3 -->
<g id="edge3" class="edge">
<title>Node2&#45;&gt;Node3</title>
<path fill="none" stroke="midnightblue" d="M638.43,-1688.77C568.39,-1679.33 448.22,-1659.33 416,-1630 411.86,-1626.23 407.87,-1622.3 404.02,-1618.22"/>
<polygon fill="none" stroke="midnightblue" points="638.01,-1692.24 648.38,-1690.09 638.93,-1685.3 638.01,-1692.24"/>
</g>
<!-- Node5 -->
<g id="node5" class="node">
<title>Node5</title>
<g id="a_node5"><a xlink:href="class_units_1_1_unit.html" target="_top" xlink:title="单位">
<polygon fill="white" stroke="black" points="0,-397.5 0,-795.5 166,-795.5 166,-397.5 0,-397.5"/>
<text text-anchor="middle" x="83" y="-783.5" font-family="Helvetica,sans-Serif" font-size="10.00">Unit</text>
<polyline fill="none" stroke="black" points="0,-776.5 166,-776.5 "/>
<text text-anchor="start" x="8" y="-764.5" font-family="Helvetica,sans-Serif" font-size="10.00">+ int defence</text>
<text text-anchor="start" x="8" y="-753.5" font-family="Helvetica,sans-Serif" font-size="10.00">+ bool isUnmovable</text>
<text text-anchor="start" x="8" y="-742.5" font-family="Helvetica,sans-Serif" font-size="10.00">+ int playerOwnMax</text>
<text text-anchor="start" x="8" y="-731.5" font-family="Helvetica,sans-Serif" font-size="10.00">+ Rigidbody unitRigidbody</text>
<text text-anchor="start" x="8" y="-720.5" font-family="Helvetica,sans-Serif" font-size="10.00">+ Road road</text>
<text text-anchor="start" x="8" y="-709.5" font-family="Helvetica,sans-Serif" font-size="10.00">+ UnitType unitType</text>
<text text-anchor="start" x="8" y="-698.5" font-family="Helvetica,sans-Serif" font-size="10.00">+ int costFood</text>
<text text-anchor="start" x="8" y="-687.5" font-family="Helvetica,sans-Serif" font-size="10.00">+ int costWood</text>
<text text-anchor="start" x="8" y="-676.5" font-family="Helvetica,sans-Serif" font-size="10.00">+ int costGold</text>
<text text-anchor="start" x="8" y="-665.5" font-family="Helvetica,sans-Serif" font-size="10.00">+ bool isDieImmediately</text>
<text text-anchor="start" x="8" y="-654.5" font-family="Helvetica,sans-Serif" font-size="10.00">+ int deathReward</text>
<text text-anchor="start" x="8" y="-643.5" font-family="Helvetica,sans-Serif" font-size="10.00">+ UnityEvent&lt; GameObject,</text>
<text text-anchor="start" x="8" y="-632.5" font-family="Helvetica,sans-Serif" font-size="10.00"> Transform &gt; navStopEventHandler</text>
<text text-anchor="start" x="8" y="-621.5" font-family="Helvetica,sans-Serif" font-size="10.00">+ UnityEvent&lt; Player.Player,</text>
<text text-anchor="start" x="8" y="-610.5" font-family="Helvetica,sans-Serif" font-size="10.00"> IMilitaryUnit &gt; UnitDeathEvent</text>
<text text-anchor="start" x="8" y="-599.5" font-family="Helvetica,sans-Serif" font-size="10.00">Handler</text>
<text text-anchor="start" x="8" y="-588.5" font-family="Helvetica,sans-Serif" font-size="10.00">+ int??? HP</text>
<text text-anchor="start" x="8" y="-577.5" font-family="Helvetica,sans-Serif" font-size="10.00">+ float Speed</text>
<text text-anchor="start" x="8" y="-566.5" font-family="Helvetica,sans-Serif" font-size="10.00">+ Transform InitTarget</text>
<text text-anchor="start" x="8" y="-555.5" font-family="Helvetica,sans-Serif" font-size="10.00">+ bool IsAtEnemyDoor</text>
<text text-anchor="start" x="8" y="-544.5" font-family="Helvetica,sans-Serif" font-size="10.00"># bool Death</text>
<text text-anchor="start" x="8" y="-533.5" font-family="Helvetica,sans-Serif" font-size="10.00"># UnityEvent StartEventHandler</text>
<text text-anchor="start" x="8" y="-522.5" font-family="Helvetica,sans-Serif" font-size="10.00"># UnityEvent&lt; IMilitaryUnit</text>
<text text-anchor="start" x="8" y="-511.5" font-family="Helvetica,sans-Serif" font-size="10.00"> &gt; BeAttackedEventHandler</text>
<polyline fill="none" stroke="black" points="0,-504.5 166,-504.5 "/>
<text text-anchor="start" x="8" y="-492.5" font-family="Helvetica,sans-Serif" font-size="10.00">+ virtual void Start()</text>
<text text-anchor="start" x="8" y="-481.5" font-family="Helvetica,sans-Serif" font-size="10.00">+ virtual void Update()</text>
<text text-anchor="start" x="8" y="-470.5" font-family="Helvetica,sans-Serif" font-size="10.00">+ virtual void BeAttacked</text>
<text text-anchor="start" x="8" y="-459.5" font-family="Helvetica,sans-Serif" font-size="10.00">(IMilitaryUnit attacker)</text>
<text text-anchor="start" x="8" y="-448.5" font-family="Helvetica,sans-Serif" font-size="10.00"># virtual void Awake()</text>
<text text-anchor="start" x="8" y="-437.5" font-family="Helvetica,sans-Serif" font-size="10.00"># void Goto(Transform tr)</text>
<text text-anchor="start" x="8" y="-426.5" font-family="Helvetica,sans-Serif" font-size="10.00"># static float GetTwoPoint</text>
<text text-anchor="start" x="8" y="-415.5" font-family="Helvetica,sans-Serif" font-size="10.00">DistanceOnNav(Vector3</text>
<text text-anchor="start" x="8" y="-404.5" font-family="Helvetica,sans-Serif" font-size="10.00"> oriPoint, Vector3 targetPoint)</text>
</a>
</g>
</g>
<!-- Node2&#45;&gt;Node5 -->
<g id="edge6" class="edge">
<title>Node2&#45;&gt;Node5</title>
<path fill="none" stroke="midnightblue" d="M638.14,-1695.8C524.04,-1696.4 256.49,-1691.09 195,-1630 -22.46,-1413.98 -0.49,-1029.55 38.8,-795.64"/>
<polygon fill="none" stroke="midnightblue" points="638.39,-1699.3 648.37,-1695.73 638.34,-1692.3 638.39,-1699.3"/>
</g>
<!-- Node8 -->
<g id="node8" class="node">
<title>Node8</title>
<g id="a_node8"><a xlink:href="class_units_1_1_unit.html" target="_top" xlink:title="单位">
<polygon fill="white" stroke="black" points="474,-397.5 474,-795.5 640,-795.5 640,-397.5 474,-397.5"/>
<text text-anchor="middle" x="557" y="-783.5" font-family="Helvetica,sans-Serif" font-size="10.00">Units.Unit</text>
<polyline fill="none" stroke="black" points="474,-776.5 640,-776.5 "/>
<text text-anchor="start" x="482" y="-764.5" font-family="Helvetica,sans-Serif" font-size="10.00">+ int defence</text>
<text text-anchor="start" x="482" y="-753.5" font-family="Helvetica,sans-Serif" font-size="10.00">+ bool isUnmovable</text>
<text text-anchor="start" x="482" y="-742.5" font-family="Helvetica,sans-Serif" font-size="10.00">+ int playerOwnMax</text>
<text text-anchor="start" x="482" y="-731.5" font-family="Helvetica,sans-Serif" font-size="10.00">+ Rigidbody unitRigidbody</text>
<text text-anchor="start" x="482" y="-720.5" font-family="Helvetica,sans-Serif" font-size="10.00">+ Road road</text>
<text text-anchor="start" x="482" y="-709.5" font-family="Helvetica,sans-Serif" font-size="10.00">+ UnitType unitType</text>
<text text-anchor="start" x="482" y="-698.5" font-family="Helvetica,sans-Serif" font-size="10.00">+ int costFood</text>
<text text-anchor="start" x="482" y="-687.5" font-family="Helvetica,sans-Serif" font-size="10.00">+ int costWood</text>
<text text-anchor="start" x="482" y="-676.5" font-family="Helvetica,sans-Serif" font-size="10.00">+ int costGold</text>
<text text-anchor="start" x="482" y="-665.5" font-family="Helvetica,sans-Serif" font-size="10.00">+ bool isDieImmediately</text>
<text text-anchor="start" x="482" y="-654.5" font-family="Helvetica,sans-Serif" font-size="10.00">+ int deathReward</text>
<text text-anchor="start" x="482" y="-643.5" font-family="Helvetica,sans-Serif" font-size="10.00">+ UnityEvent&lt; GameObject,</text>
<text text-anchor="start" x="482" y="-632.5" font-family="Helvetica,sans-Serif" font-size="10.00"> Transform &gt; navStopEventHandler</text>
<text text-anchor="start" x="482" y="-621.5" font-family="Helvetica,sans-Serif" font-size="10.00">+ UnityEvent&lt; Player.Player,</text>
<text text-anchor="start" x="482" y="-610.5" font-family="Helvetica,sans-Serif" font-size="10.00"> IMilitaryUnit &gt; UnitDeathEvent</text>
<text text-anchor="start" x="482" y="-599.5" font-family="Helvetica,sans-Serif" font-size="10.00">Handler</text>
<text text-anchor="start" x="482" y="-588.5" font-family="Helvetica,sans-Serif" font-size="10.00">+ int??? HP</text>
<text text-anchor="start" x="482" y="-577.5" font-family="Helvetica,sans-Serif" font-size="10.00">+ float Speed</text>
<text text-anchor="start" x="482" y="-566.5" font-family="Helvetica,sans-Serif" font-size="10.00">+ Transform InitTarget</text>
<text text-anchor="start" x="482" y="-555.5" font-family="Helvetica,sans-Serif" font-size="10.00">+ bool IsAtEnemyDoor</text>
<text text-anchor="start" x="482" y="-544.5" font-family="Helvetica,sans-Serif" font-size="10.00"># bool Death</text>
<text text-anchor="start" x="482" y="-533.5" font-family="Helvetica,sans-Serif" font-size="10.00"># UnityEvent StartEventHandler</text>
<text text-anchor="start" x="482" y="-522.5" font-family="Helvetica,sans-Serif" font-size="10.00"># UnityEvent&lt; IMilitaryUnit</text>
<text text-anchor="start" x="482" y="-511.5" font-family="Helvetica,sans-Serif" font-size="10.00"> &gt; BeAttackedEventHandler</text>
<polyline fill="none" stroke="black" points="474,-504.5 640,-504.5 "/>
<text text-anchor="start" x="482" y="-492.5" font-family="Helvetica,sans-Serif" font-size="10.00">+ virtual void Start()</text>
<text text-anchor="start" x="482" y="-481.5" font-family="Helvetica,sans-Serif" font-size="10.00">+ virtual void Update()</text>
<text text-anchor="start" x="482" y="-470.5" font-family="Helvetica,sans-Serif" font-size="10.00">+ virtual void BeAttacked</text>
<text text-anchor="start" x="482" y="-459.5" font-family="Helvetica,sans-Serif" font-size="10.00">(IMilitaryUnit attacker)</text>
<text text-anchor="start" x="482" y="-448.5" font-family="Helvetica,sans-Serif" font-size="10.00"># virtual void Awake()</text>
<text text-anchor="start" x="482" y="-437.5" font-family="Helvetica,sans-Serif" font-size="10.00"># void Goto(Transform tr)</text>
<text text-anchor="start" x="482" y="-426.5" font-family="Helvetica,sans-Serif" font-size="10.00"># static float GetTwoPoint</text>
<text text-anchor="start" x="482" y="-415.5" font-family="Helvetica,sans-Serif" font-size="10.00">DistanceOnNav(Vector3</text>
<text text-anchor="start" x="482" y="-404.5" font-family="Helvetica,sans-Serif" font-size="10.00"> oriPoint, Vector3 targetPoint)</text>
</a>
</g>
</g>
<!-- Node2&#45;&gt;Node8 -->
<g id="edge12" class="edge">
<title>Node2&#45;&gt;Node8</title>
<path fill="none" stroke="midnightblue" d="M685.41,-1657.14C669.14,-1522.9 613.45,-1063.36 581,-795.57"/>
<polygon fill="none" stroke="midnightblue" points="681.97,-1657.82 686.65,-1667.32 688.92,-1656.97 681.97,-1657.82"/>
</g>
<!-- Node10 -->
<g id="node10" class="node">
<title>Node10</title>
<g id="a_node10"><a xlink:href="class_u_i_1_1_chinese_sports_1_1_battle_1_1_sprite_indicator_u_i.html" target="_top" xlink:title=" ">
<polygon fill="white" stroke="black" points="612,-842 612,-921 768,-921 768,-842 612,-842"/>
<text text-anchor="start" x="620" y="-909" font-family="Helvetica,sans-Serif" font-size="10.00">UI.ChineseSports.Battle.</text>
<text text-anchor="middle" x="690" y="-898" font-family="Helvetica,sans-Serif" font-size="10.00">SpriteIndicatorUI</text>
<polyline fill="none" stroke="black" points="612,-891 768,-891 "/>
<text text-anchor="start" x="620" y="-879" font-family="Helvetica,sans-Serif" font-size="10.00">+ SpriteRenderer spriteRenderer</text>
<text text-anchor="start" x="620" y="-868" font-family="Helvetica,sans-Serif" font-size="10.00">+ Sprite UnitSprite</text>
<polyline fill="none" stroke="black" points="612,-861 768,-861 "/>
<text text-anchor="middle" x="690" y="-849" font-family="Helvetica,sans-Serif" font-size="10.00"> </text>
</a>
</g>
</g>
<!-- Node2&#45;&gt;Node10 -->
<g id="edge17" class="edge">
<title>Node2&#45;&gt;Node10</title>
<path fill="none" stroke="midnightblue" d="M690,-1656.67C690,-1520.12 690,-1058.29 690,-921.18"/>
<polygon fill="none" stroke="midnightblue" points="686.5,-1657.03 690,-1667.03 693.5,-1657.03 686.5,-1657.03"/>
</g>
<!-- Node2&#45;&gt;Node11 -->
<g id="edge19" class="edge">
<title>Node2&#45;&gt;Node11</title>
<path fill="none" stroke="midnightblue" d="M729.99,-1660.09C738.35,-1651.04 746.33,-1640.79 752,-1630 821.8,-1497.17 821,-1449.56 821,-1299.5 821,-1299.5 821,-1299.5 821,-237.5 821,-180.05 826.1,-163.18 807,-109 804.82,-102.8 801.91,-96.6 798.67,-90.63"/>
<polygon fill="none" stroke="midnightblue" points="727.37,-1657.77 722.93,-1667.39 732.4,-1662.63 727.37,-1657.77"/>
</g>
<!-- Node12 -->
<g id="node12" class="node">
<title>Node12</title>
<g id="a_node12"><a xlink:href="class_u_i_1_1_chinese_sports_1_1_battle_1_1_shoot_calculator_u_i.html" target="_top" xlink:title=" ">
<polygon fill="white" stroke="black" points="836,-814.5 836,-948.5 1000,-948.5 1000,-814.5 836,-814.5"/>
<text text-anchor="start" x="844" y="-936.5" font-family="Helvetica,sans-Serif" font-size="10.00">UI.ChineseSports.Battle.</text>
<text text-anchor="middle" x="918" y="-925.5" font-family="Helvetica,sans-Serif" font-size="10.00">ShootCalculatorUI</text>
<polyline fill="none" stroke="black" points="836,-918.5 1000,-918.5 "/>
<text text-anchor="start" x="844" y="-906.5" font-family="Helvetica,sans-Serif" font-size="10.00">+ Rigidbody shootRigidbody</text>
<text text-anchor="start" x="844" y="-895.5" font-family="Helvetica,sans-Serif" font-size="10.00">+ Vector3 oriVelocity</text>
<text text-anchor="start" x="844" y="-884.5" font-family="Helvetica,sans-Serif" font-size="10.00">+ Vector3 oriPos</text>
<text text-anchor="start" x="844" y="-873.5" font-family="Helvetica,sans-Serif" font-size="10.00">+ Vector3 oriScreenPos</text>
<text text-anchor="start" x="844" y="-862.5" font-family="Helvetica,sans-Serif" font-size="10.00">+ PhysicMaterial groundMaterial</text>
<text text-anchor="start" x="844" y="-851.5" font-family="Helvetica,sans-Serif" font-size="10.00">+ PhysicMaterial wallMaterial</text>
<polyline fill="none" stroke="black" points="836,-844.5 1000,-844.5 "/>
<text text-anchor="start" x="844" y="-832.5" font-family="Helvetica,sans-Serif" font-size="10.00">+ void CalculateShootLine</text>
<text text-anchor="start" x="844" y="-821.5" font-family="Helvetica,sans-Serif" font-size="10.00">(Vector3 oriPos, int sampleTimes)</text>
</a>
</g>
</g>
<!-- Node2&#45;&gt;Node12 -->
<g id="edge22" class="edge">
<title>Node2&#45;&gt;Node12</title>
<path fill="none" stroke="midnightblue" d="M741.82,-1692.32C773.65,-1687.79 812.51,-1676.48 835,-1649 1003.78,-1442.72 960.21,-1093.59 932.52,-948.64"/>
<polygon fill="none" stroke="midnightblue" points="741.25,-1688.87 731.76,-1693.57 742.11,-1695.81 741.25,-1688.87"/>
</g>
<!-- Node3&#45;&gt;Node1 -->
<g id="edge2" class="edge">
<title>Node3&#45;&gt;Node1</title>
<path fill="none" stroke="#404040" d="M324.1,-967.48C332.94,-900.94 345.67,-842.63 364,-814 372.18,-801.22 385.04,-808.91 393,-796 486.47,-644.45 347.77,-555.45 429,-397 450.69,-354.68 489.06,-318.87 525,-292.13"/>
<polygon fill="none" stroke="#404040" points="525.34,-291.88 527.85,-285.12 535.05,-284.83 532.55,-291.59 525.34,-291.88"/>
<text text-anchor="middle" x="447" y="-594" font-family="Helvetica,sans-Serif" font-size="10.00"> +player</text>
</g>
<!-- Node3&#45;&gt;Node5 -->
<g id="edge7" class="edge">
<title>Node3&#45;&gt;Node5</title>
<path fill="none" stroke="#404040" d="M203.84,-1120.61C177.14,-1066.92 150.8,-1006.81 133,-949 119.16,-904.06 109.13,-854.69 101.87,-807.53"/>
<polygon fill="none" stroke="#404040" points="101.86,-807.45 97.01,-802.11 100.08,-795.58 104.92,-800.93 101.86,-807.45"/>
<text text-anchor="middle" x="160.5" y="-879" font-family="Helvetica,sans-Serif" font-size="10.00"> +sidePlayer</text>
</g>
<!-- Node3&#45;&gt;Node8 -->
<g id="edge13" class="edge">
<title>Node3&#45;&gt;Node8</title>
<path fill="none" stroke="#404040" d="M358.23,-967.2C372.24,-882.4 383.57,-814.47 384,-814 407.69,-788.63 432.89,-817.68 460,-796 461.65,-794.68 463.27,-793.33 464.87,-791.95"/>
<polygon fill="none" stroke="#404040" points="464.96,-791.86 466.61,-784.84 473.73,-783.67 472.07,-790.69 464.96,-791.86"/>
<text text-anchor="middle" x="411.5" y="-879" font-family="Helvetica,sans-Serif" font-size="10.00"> +sidePlayer</text>
</g>
<!-- Node4 -->
<g id="node4" class="node">
<title>Node4</title>
<g id="a_node4"><a xlink:href="class_units_1_1_farmer.html" target="_top" xlink:title="农民">
<polygon fill="white" stroke="black" points="49.5,-138.5 49.5,-338.5 200.5,-338.5 200.5,-138.5 49.5,-138.5"/>
<text text-anchor="middle" x="125" y="-326.5" font-family="Helvetica,sans-Serif" font-size="10.00">Units.Farmer</text>
<polyline fill="none" stroke="black" points="49.5,-319.5 200.5,-319.5 "/>
<text text-anchor="start" x="57.5" y="-307.5" font-family="Helvetica,sans-Serif" font-size="10.00">+ float workTime</text>
<text text-anchor="start" x="57.5" y="-296.5" font-family="Helvetica,sans-Serif" font-size="10.00">+ int[] maxLoad</text>
<text text-anchor="start" x="57.5" y="-285.5" font-family="Helvetica,sans-Serif" font-size="10.00">+ UnityAction&lt; Farmer,</text>
<text text-anchor="start" x="57.5" y="-274.5" font-family="Helvetica,sans-Serif" font-size="10.00"> Transform &gt; farmerBackEvent</text>
<text text-anchor="start" x="57.5" y="-263.5" font-family="Helvetica,sans-Serif" font-size="10.00">Handler</text>
<text text-anchor="start" x="57.5" y="-252.5" font-family="Helvetica,sans-Serif" font-size="10.00">+ int ResouceCarried</text>
<text text-anchor="start" x="57.5" y="-241.5" font-family="Helvetica,sans-Serif" font-size="10.00"># Transform _home</text>
<text text-anchor="start" x="57.5" y="-230.5" font-family="Helvetica,sans-Serif" font-size="10.00"># Transform _targerResource</text>
<polyline fill="none" stroke="black" points="49.5,-223.5 200.5,-223.5 "/>
<text text-anchor="start" x="57.5" y="-211.5" font-family="Helvetica,sans-Serif" font-size="10.00">+ override void Start()</text>
<text text-anchor="start" x="57.5" y="-200.5" font-family="Helvetica,sans-Serif" font-size="10.00"># void OnNavStop(GameObject</text>
<text text-anchor="start" x="57.5" y="-189.5" font-family="Helvetica,sans-Serif" font-size="10.00"> gm, Transform tr)</text>
<text text-anchor="start" x="57.5" y="-178.5" font-family="Helvetica,sans-Serif" font-size="10.00"># void GenerateWorkPath()</text>
<text text-anchor="start" x="57.5" y="-167.5" font-family="Helvetica,sans-Serif" font-size="10.00"># virtual void Work()</text>
<text text-anchor="start" x="57.5" y="-156.5" font-family="Helvetica,sans-Serif" font-size="10.00"># void Drop(Farmer farmer,</text>
<text text-anchor="start" x="57.5" y="-145.5" font-family="Helvetica,sans-Serif" font-size="10.00"> Transform tr)</text>
</a>
</g>
</g>
<!-- Node4&#45;&gt;Node3 -->
<g id="edge4" class="edge">
<title>Node4&#45;&gt;Node3</title>
<path fill="none" stroke="#404040" d="M159.41,-338.76C165.23,-357.92 170.75,-377.96 175,-397 213.99,-571.59 202.82,-618.89 228,-796 235.32,-847.47 243.3,-901.87 251.26,-955.11"/>
<polygon fill="none" stroke="#404040" points="251.28,-955.3 256.13,-960.64 253.06,-967.17 248.22,-961.83 251.28,-955.3"/>
<text text-anchor="middle" x="260" y="-594" font-family="Helvetica,sans-Serif" font-size="10.00"> +farmerPrefab</text>
</g>
<!-- Node5&#45;&gt;Node4 -->
<g id="edge5" class="edge">
<title>Node5&#45;&gt;Node4</title>
<path fill="none" stroke="midnightblue" d="M107.54,-387.5C109.53,-370.65 111.47,-354.17 113.3,-338.69"/>
<polygon fill="none" stroke="midnightblue" points="104.06,-387.12 106.36,-397.46 111.01,-387.94 104.06,-387.12"/>
</g>
<!-- Node7 -->
<g id="node7" class="node">
<title>Node7</title>
<g id="a_node7"><a xlink:href="class_units_1_1_door.html" target="_top" xlink:title="基地门">
<polygon fill="white" stroke="black" points="235,-204.5 235,-272.5 353,-272.5 353,-204.5 235,-204.5"/>
<text text-anchor="middle" x="294" y="-260.5" font-family="Helvetica,sans-Serif" font-size="10.00">Units.Door</text>
<polyline fill="none" stroke="black" points="235,-253.5 353,-253.5 "/>
<text text-anchor="middle" x="294" y="-241.5" font-family="Helvetica,sans-Serif" font-size="10.00"> </text>
<polyline fill="none" stroke="black" points="235,-234.5 353,-234.5 "/>
<text text-anchor="start" x="243" y="-222.5" font-family="Helvetica,sans-Serif" font-size="10.00">+ override void Start()</text>
<text text-anchor="start" x="243" y="-211.5" font-family="Helvetica,sans-Serif" font-size="10.00">+ override void Update()</text>
</a>
</g>
</g>
<!-- Node5&#45;&gt;Node7 -->
<g id="edge10" class="edge">
<title>Node5&#45;&gt;Node7</title>
<path fill="none" stroke="midnightblue" d="M171.04,-412.3C174.01,-407.11 177,-402 180,-397 206.92,-352.14 243.04,-303.86 267.34,-272.75"/>
<polygon fill="none" stroke="midnightblue" points="167.95,-410.67 166.08,-421.09 174.04,-414.11 167.95,-410.67"/>
</g>
<!-- Node6 -->
<g id="node6" class="node">
<title>Node6</title>
<g id="a_node6"><a xlink:href="interface_units_1_1_i_military_unit.html" target="_top" xlink:title="攻击性单位接口">
<polygon fill="white" stroke="black" points="425,-1209.5 425,-1387.5 565,-1387.5 565,-1209.5 425,-1209.5"/>
<text text-anchor="middle" x="495" y="-1375.5" font-family="Helvetica,sans-Serif" font-size="10.00">Units.IMilitaryUnit</text>
<polyline fill="none" stroke="black" points="425,-1368.5 565,-1368.5 "/>
<text text-anchor="start" x="433" y="-1356.5" font-family="Helvetica,sans-Serif" font-size="10.00">+ int AttackValue</text>
<text text-anchor="start" x="433" y="-1345.5" font-family="Helvetica,sans-Serif" font-size="10.00">+ float AttackColdDownTime</text>
<text text-anchor="start" x="433" y="-1334.5" font-family="Helvetica,sans-Serif" font-size="10.00">+ float AttackRange</text>
<text text-anchor="start" x="433" y="-1323.5" font-family="Helvetica,sans-Serif" font-size="10.00">+ int DefenceValue</text>
<text text-anchor="start" x="433" y="-1312.5" font-family="Helvetica,sans-Serif" font-size="10.00">+ float SpeedValue</text>
<text text-anchor="start" x="433" y="-1301.5" font-family="Helvetica,sans-Serif" font-size="10.00">+ Vector3 OriginalVelocity</text>
<text text-anchor="start" x="433" y="-1290.5" font-family="Helvetica,sans-Serif" font-size="10.00">+ Player.Player SidePlayer</text>
<text text-anchor="start" x="433" y="-1279.5" font-family="Helvetica,sans-Serif" font-size="10.00">+ UnityEvent&lt; Unit &gt;</text>
<text text-anchor="start" x="433" y="-1268.5" font-family="Helvetica,sans-Serif" font-size="10.00"> AttackEvent</text>
<text text-anchor="start" x="433" y="-1257.5" font-family="Helvetica,sans-Serif" font-size="10.00">+ UnityEvent&lt; IMilitaryUnit</text>
<text text-anchor="start" x="433" y="-1246.5" font-family="Helvetica,sans-Serif" font-size="10.00"> &gt; UnderAttackedEvent</text>
<polyline fill="none" stroke="black" points="425,-1239.5 565,-1239.5 "/>
<text text-anchor="start" x="433" y="-1227.5" font-family="Helvetica,sans-Serif" font-size="10.00">+ void Attack()</text>
<text text-anchor="start" x="433" y="-1216.5" font-family="Helvetica,sans-Serif" font-size="10.00">+ Unit GetUnit()</text>
</a>
</g>
</g>
<!-- Node6&#45;&gt;Node5 -->
<g id="edge8" class="edge">
<title>Node6&#45;&gt;Node5</title>
<path fill="none" stroke="#404040" d="M487.7,-1209.4C476.05,-1073.65 453.12,-827.49 439,-814 397.28,-774.15 227.85,-828.23 180,-796 178.66,-795.1 177.33,-794.17 176.03,-793.22"/>
<polygon fill="none" stroke="#404040" points="175.73,-792.98 168.54,-792.36 166.35,-785.49 173.54,-786.11 175.73,-792.98"/>
<text text-anchor="middle" x="485.5" y="-879" font-family="Helvetica,sans-Serif" font-size="10.00"> #_attacker</text>
</g>
<!-- Node6&#45;&gt;Node8 -->
<g id="edge14" class="edge">
<title>Node6&#45;&gt;Node8</title>
<path fill="none" stroke="#404040" d="M501.45,-1209.21C508.68,-1112.24 521.11,-951.93 534,-814 534.19,-811.93 534.39,-809.85 534.59,-807.76"/>
<polygon fill="none" stroke="#404040" points="534.6,-807.64 531.19,-801.28 535.74,-795.69 539.15,-802.05 534.6,-807.64"/>
<text text-anchor="middle" x="558.5" y="-879" font-family="Helvetica,sans-Serif" font-size="10.00"> #_attacker</text>
</g>
<!-- Node7&#45;&gt;Node3 -->
<g id="edge9" class="edge">
<title>Node7&#45;&gt;Node3</title>
<path fill="none" stroke="#404040" d="M294.31,-272.72C295.29,-375.87 298.34,-699.12 300.77,-955.31"/>
<polygon fill="none" stroke="#404040" points="300.77,-955.46 304.82,-961.42 300.88,-967.46 296.82,-961.49 300.77,-955.46"/>
<text text-anchor="middle" x="314" y="-594" font-family="Helvetica,sans-Serif" font-size="10.00"> +door</text>
</g>
<!-- Node8&#45;&gt;Node1 -->
<g id="edge11" class="edge">
<title>Node8&#45;&gt;Node1</title>
<path fill="none" stroke="#404040" d="M587.04,-397.46C591.01,-371.31 594.88,-345.74 598.33,-323.06"/>
<polygon fill="none" stroke="#404040" points="598.34,-322.98 595.28,-316.45 600.14,-311.12 603.19,-317.65 598.34,-322.98"/>
<text text-anchor="middle" x="603.5" y="-365.5" font-family="Helvetica,sans-Serif" font-size="10.00"> +unit</text>
</g>
<!-- Node9 -->
<g id="node9" class="node">
<title>Node9</title>
<g id="a_node9"><a xlink:title=" ">
<polygon fill="white" stroke="#bfbfbf" points="348.5,-568 348.5,-625 383.5,-625 383.5,-568 348.5,-568"/>
<text text-anchor="middle" x="366" y="-613" font-family="Helvetica,sans-Serif" font-size="10.00">Text</text>
<polyline fill="none" stroke="#bfbfbf" points="348.5,-606 383.5,-606 "/>
<text text-anchor="middle" x="366" y="-594" font-family="Helvetica,sans-Serif" font-size="10.00"> </text>
<polyline fill="none" stroke="#bfbfbf" points="348.5,-587 383.5,-587 "/>
<text text-anchor="middle" x="366" y="-575" font-family="Helvetica,sans-Serif" font-size="10.00"> </text>
</a>
</g>
</g>
<!-- Node9&#45;&gt;Node1 -->
<g id="edge15" class="edge">
<title>Node9&#45;&gt;Node1</title>
<path fill="none" stroke="#404040" d="M360.42,-567.97C349.89,-512.82 329.98,-391.17 352,-357 389.68,-298.54 464.3,-268.84 523.81,-253.95"/>
<polygon fill="none" stroke="#404040" points="523.83,-253.94 528.73,-248.66 535.5,-251.16 530.59,-256.44 523.83,-253.94"/>
<text text-anchor="middle" x="389.5" y="-371" font-family="Helvetica,sans-Serif" font-size="10.00"> +resourceText</text>
<text text-anchor="middle" x="389.5" y="-360" font-family="Helvetica,sans-Serif" font-size="10.00">+unitNumberText</text>
</g>
<!-- Node10&#45;&gt;Node1 -->
<g id="edge16" class="edge">
<title>Node10&#45;&gt;Node1</title>
<path fill="none" stroke="#404040" d="M688.71,-841.71C685.54,-759.33 675.58,-561.03 649,-397 645.07,-372.77 639.41,-346.76 633.65,-323"/>
<polygon fill="none" stroke="#404040" points="633.6,-322.82 628.28,-317.95 630.73,-311.17 636.05,-316.03 633.6,-322.82"/>
<text text-anchor="middle" x="725.5" y="-594" font-family="Helvetica,sans-Serif" font-size="10.00"> +spriteIndicatorUI</text>
</g>
<!-- Node11&#45;&gt;Node1 -->
<g id="edge18" class="edge">
<title>Node11&#45;&gt;Node1</title>
<path fill="none" stroke="#404040" d="M729.21,-90.76C724.07,-96.86 718.89,-103.07 714,-109 701.5,-124.16 688.28,-140.45 675.64,-156.16"/>
<polygon fill="none" stroke="#404040" points="675.37,-156.49 674.73,-163.68 667.86,-165.85 668.5,-158.67 675.37,-156.49"/>
<text text-anchor="middle" x="760.5" y="-112" font-family="Helvetica,sans-Serif" font-size="10.00"> +dispatchManagerUI</text>
</g>
<!-- Node12&#45;&gt;Node11 -->
<g id="edge21" class="edge">
<title>Node12&#45;&gt;Node11</title>
<path fill="none" stroke="#404040" d="M925.83,-814.47C939.24,-675.49 954.64,-346.08 835,-109 833.53,-106.08 831.86,-103.23 830.03,-100.46"/>
<polygon fill="none" stroke="#404040" points="829.98,-100.38 823.18,-97.96 822.81,-90.76 829.6,-93.18 829.98,-100.38"/>
<text text-anchor="middle" x="958" y="-365.5" font-family="Helvetica,sans-Serif" font-size="10.00"> +shootCalculatorUI</text>
</g>
</g>
</svg>
