<?xml version="1.0" encoding="UTF-8" standalone="no"?>
<!DOCTYPE svg PUBLIC "-//W3C//DTD SVG 1.1//EN"
 "http://www.w3.org/Graphics/SVG/1.1/DTD/svg11.dtd">
<!-- Generated by graphviz version 2.47.1 (20210417.1919)
 -->
<!-- Title: Player.PlayerOnline_ASide.SubtractFarmer Pages: 1 -->
<svg width="321pt" height="39pt"
 viewBox="0.00 0.00 321.00 39.00" xmlns="http://www.w3.org/2000/svg" xmlns:xlink="http://www.w3.org/1999/xlink">
<g id="graph0" class="graph" transform="scale(1 1) rotate(0) translate(4 35)">
<title>Player.PlayerOnline_ASide.SubtractFarmer</title>
<polygon fill="white" stroke="transparent" points="-4,4 -4,-35 317,-35 317,4 -4,4"/>
<!-- Node1 -->
<g id="node1" class="node">
<title>Node1</title>
<g id="a_node1"><a xlink:title="减少农民">
<polygon fill="#bfbfbf" stroke="black" points="0,-0.5 0,-30.5 119,-30.5 119,-0.5 0,-0.5"/>
<text text-anchor="start" x="8" y="-18.5" font-family="Helvetica,sans-Serif" font-size="10.00">Player.PlayerOnline</text>
<text text-anchor="middle" x="59.5" y="-7.5" font-family="Helvetica,sans-Serif" font-size="10.00">_ASide.SubtractFarmer</text>
</a>
</g>
</g>
<!-- Node2 -->
<g id="node2" class="node">
<title>Node2</title>
<g id="a_node2"><a xlink:href="class_network_1_1_network_player_manager.html#a7375579b5c46afcceed1cbbad40f530b" target="_top" xlink:title="A发送过来，传输给另一个端的B 添加农民">
<polygon fill="white" stroke="black" points="155,-0.5 155,-30.5 313,-30.5 313,-0.5 155,-0.5"/>
<text text-anchor="start" x="163" y="-18.5" font-family="Helvetica,sans-Serif" font-size="10.00">Network.NetworkPlayerManager.</text>
<text text-anchor="middle" x="234" y="-7.5" font-family="Helvetica,sans-Serif" font-size="10.00">SendAddFarmer</text>
</a>
</g>
</g>
<!-- Node1&#45;&gt;Node2 -->
<g id="edge1" class="edge">
<title>Node1&#45;&gt;Node2</title>
<path fill="none" stroke="midnightblue" d="M119.38,-15.5C127.59,-15.5 136.17,-15.5 144.77,-15.5"/>
<polygon fill="midnightblue" stroke="midnightblue" points="144.86,-19 154.86,-15.5 144.86,-12 144.86,-19"/>
</g>
</g>
</svg>
