<?xml version="1.0" encoding="UTF-8" standalone="no"?>
<!DOCTYPE svg PUBLIC "-//W3C//DTD SVG 1.1//EN"
 "http://www.w3.org/Graphics/SVG/1.1/DTD/svg11.dtd">
<!-- Generated by graphviz version 2.47.1 (20210417.1919)
 -->
<!-- Title: UI.ChineseSports.Main.ItemContentUI Pages: 1 -->
<svg width="195pt" height="259pt"
 viewBox="0.00 0.00 194.50 259.00" xmlns="http://www.w3.org/2000/svg" xmlns:xlink="http://www.w3.org/1999/xlink">
<g id="graph0" class="graph" transform="scale(1 1) rotate(0) translate(4 255)">
<title>UI.ChineseSports.Main.ItemContentUI</title>
<polygon fill="white" stroke="transparent" points="-4,4 -4,-255 190.5,-255 190.5,4 -4,4"/>
<!-- Node1 -->
<g id="node1" class="node">
<title>Node1</title>
<g id="a_node1"><a xlink:title=" ">
<polygon fill="#bfbfbf" stroke="black" points="3.5,-0.5 3.5,-134.5 155.5,-134.5 155.5,-0.5 3.5,-0.5"/>
<text text-anchor="start" x="11.5" y="-122.5" font-family="Helvetica,sans-Serif" font-size="10.00">UI.ChineseSports.Main.Item</text>
<text text-anchor="middle" x="79.5" y="-111.5" font-family="Helvetica,sans-Serif" font-size="10.00">ContentUI</text>
<polyline fill="none" stroke="black" points="3.5,-104.5 155.5,-104.5 "/>
<text text-anchor="start" x="11.5" y="-92.5" font-family="Helvetica,sans-Serif" font-size="10.00">+ Image itemImage</text>
<text text-anchor="start" x="11.5" y="-81.5" font-family="Helvetica,sans-Serif" font-size="10.00">+ AudioSource logAudioSource</text>
<text text-anchor="start" x="11.5" y="-70.5" font-family="Helvetica,sans-Serif" font-size="10.00">+ AudioClip logAudio</text>
<text text-anchor="start" x="11.5" y="-59.5" font-family="Helvetica,sans-Serif" font-size="10.00">+ string ItemName</text>
<text text-anchor="start" x="11.5" y="-48.5" font-family="Helvetica,sans-Serif" font-size="10.00">+ string ItemContent</text>
<text text-anchor="start" x="11.5" y="-37.5" font-family="Helvetica,sans-Serif" font-size="10.00">+ Sprite ItemSprite</text>
<polyline fill="none" stroke="black" points="3.5,-30.5 155.5,-30.5 "/>
<text text-anchor="start" x="11.5" y="-18.5" font-family="Helvetica,sans-Serif" font-size="10.00">+ void SetContent()</text>
<text text-anchor="start" x="11.5" y="-7.5" font-family="Helvetica,sans-Serif" font-size="10.00">+ void Close()</text>
</a>
</g>
</g>
<!-- Node2 -->
<g id="node2" class="node">
<title>Node2</title>
<g id="a_node2"><a xlink:title=" ">
<polygon fill="white" stroke="#bfbfbf" points="0,-193.5 0,-250.5 83,-250.5 83,-193.5 0,-193.5"/>
<text text-anchor="middle" x="41.5" y="-238.5" font-family="Helvetica,sans-Serif" font-size="10.00">MonoBehaviour</text>
<polyline fill="none" stroke="#bfbfbf" points="0,-231.5 83,-231.5 "/>
<text text-anchor="middle" x="41.5" y="-219.5" font-family="Helvetica,sans-Serif" font-size="10.00"> </text>
<polyline fill="none" stroke="#bfbfbf" points="0,-212.5 83,-212.5 "/>
<text text-anchor="middle" x="41.5" y="-200.5" font-family="Helvetica,sans-Serif" font-size="10.00"> </text>
</a>
</g>
</g>
<!-- Node2&#45;&gt;Node1 -->
<g id="edge1" class="edge">
<title>Node2&#45;&gt;Node1</title>
<path fill="none" stroke="midnightblue" d="M50.82,-183.61C54.51,-168.81 58.86,-151.35 63.04,-134.56"/>
<polygon fill="none" stroke="midnightblue" points="47.4,-182.83 48.38,-193.38 54.2,-184.53 47.4,-182.83"/>
</g>
<!-- Node3 -->
<g id="node3" class="node">
<title>Node3</title>
<g id="a_node3"><a xlink:title=" ">
<polygon fill="white" stroke="#bfbfbf" points="101,-193.5 101,-250.5 136,-250.5 136,-193.5 101,-193.5"/>
<text text-anchor="middle" x="118.5" y="-238.5" font-family="Helvetica,sans-Serif" font-size="10.00">Text</text>
<polyline fill="none" stroke="#bfbfbf" points="101,-231.5 136,-231.5 "/>
<text text-anchor="middle" x="118.5" y="-219.5" font-family="Helvetica,sans-Serif" font-size="10.00"> </text>
<polyline fill="none" stroke="#bfbfbf" points="101,-212.5 136,-212.5 "/>
<text text-anchor="middle" x="118.5" y="-200.5" font-family="Helvetica,sans-Serif" font-size="10.00"> </text>
</a>
</g>
</g>
<!-- Node3&#45;&gt;Node1 -->
<g id="edge2" class="edge">
<title>Node3&#45;&gt;Node1</title>
<path fill="none" stroke="#404040" d="M111.44,-193.38C108.01,-179.99 103.71,-163.17 99.38,-146.25"/>
<polygon fill="none" stroke="#404040" points="99.37,-146.18 94,-141.36 96.39,-134.56 101.76,-139.38 99.37,-146.18"/>
<text text-anchor="middle" x="146" y="-167" font-family="Helvetica,sans-Serif" font-size="10.00"> +itemContentText</text>
<text text-anchor="middle" x="146" y="-156" font-family="Helvetica,sans-Serif" font-size="10.00">+itemNameText</text>
</g>
</g>
</svg>
