<?xml version="1.0" encoding="UTF-8" standalone="no"?>
<!DOCTYPE svg PUBLIC "-//W3C//DTD SVG 1.1//EN"
 "http://www.w3.org/Graphics/SVG/1.1/DTD/svg11.dtd">
<!-- Generated by graphviz version 2.47.1 (20210417.1919)
 -->
<!-- Title: UI.ChineseSports.Main.QuizUI.QuizShowUI Pages: 1 -->
<svg width="401pt" height="711pt"
 viewBox="0.00 0.00 401.06 711.00" xmlns="http://www.w3.org/2000/svg" xmlns:xlink="http://www.w3.org/1999/xlink">
<g id="graph0" class="graph" transform="scale(1 1) rotate(0) translate(4 707)">
<title>UI.ChineseSports.Main.QuizUI.QuizShowUI</title>
<polygon fill="white" stroke="transparent" points="-4,4 -4,-707 397.06,-707 397.06,4 -4,4"/>
<!-- Node1 -->
<g id="node1" class="node">
<title>Node1</title>
<g id="a_node1"><a xlink:title=" ">
<polygon fill="#bfbfbf" stroke="black" points="242.06,-386.5 242.06,-542.5 393.06,-542.5 393.06,-386.5 242.06,-386.5"/>
<text text-anchor="start" x="250.06" y="-530.5" font-family="Helvetica,sans-Serif" font-size="10.00">UI.ChineseSports.Main.Quiz</text>
<text text-anchor="middle" x="317.56" y="-519.5" font-family="Helvetica,sans-Serif" font-size="10.00">UI.QuizShowUI</text>
<polyline fill="none" stroke="black" points="242.06,-512.5 393.06,-512.5 "/>
<text text-anchor="start" x="250.06" y="-500.5" font-family="Helvetica,sans-Serif" font-size="10.00">+ List&lt; GameObject &gt;</text>
<text text-anchor="start" x="250.06" y="-489.5" font-family="Helvetica,sans-Serif" font-size="10.00"> quizOptionsButtons</text>
<text text-anchor="start" x="250.06" y="-478.5" font-family="Helvetica,sans-Serif" font-size="10.00">+ GameObject ansResultTrue</text>
<text text-anchor="start" x="250.06" y="-467.5" font-family="Helvetica,sans-Serif" font-size="10.00">+ GameObject ansResultFalse</text>
<text text-anchor="start" x="250.06" y="-456.5" font-family="Helvetica,sans-Serif" font-size="10.00">+ GameObject ansButton</text>
<polyline fill="none" stroke="black" points="242.06,-449.5 393.06,-449.5 "/>
<text text-anchor="start" x="250.06" y="-437.5" font-family="Helvetica,sans-Serif" font-size="10.00">+ void ShowQuiz()</text>
<text text-anchor="start" x="250.06" y="-426.5" font-family="Helvetica,sans-Serif" font-size="10.00">+ void SelectOption(int</text>
<text text-anchor="start" x="250.06" y="-415.5" font-family="Helvetica,sans-Serif" font-size="10.00"> index)</text>
<text text-anchor="start" x="250.06" y="-404.5" font-family="Helvetica,sans-Serif" font-size="10.00">+ void Answer()</text>
<text text-anchor="start" x="250.06" y="-393.5" font-family="Helvetica,sans-Serif" font-size="10.00">+ void Next()</text>
</a>
</g>
</g>
<!-- Node5 -->
<g id="node5" class="node">
<title>Node5</title>
<g id="a_node5"><a xlink:href="class_u_i_1_1_chinese_sports_1_1_main_1_1_quiz_u_i_1_1_quiz_u_i_manager.html" target="_top" xlink:title=" ">
<polygon fill="white" stroke="black" points="92.06,-0.5 92.06,-211.5 251.06,-211.5 251.06,-0.5 92.06,-0.5"/>
<text text-anchor="start" x="100.06" y="-199.5" font-family="Helvetica,sans-Serif" font-size="10.00">UI.ChineseSports.Main.Quiz</text>
<text text-anchor="middle" x="171.56" y="-188.5" font-family="Helvetica,sans-Serif" font-size="10.00">UI.QuizUIManager</text>
<polyline fill="none" stroke="black" points="92.06,-181.5 251.06,-181.5 "/>
<text text-anchor="start" x="100.06" y="-169.5" font-family="Helvetica,sans-Serif" font-size="10.00">+ GameObject quizConfirmPanel</text>
<text text-anchor="start" x="100.06" y="-158.5" font-family="Helvetica,sans-Serif" font-size="10.00">+ List&lt; QuizTextTypeSet</text>
<text text-anchor="start" x="100.06" y="-147.5" font-family="Helvetica,sans-Serif" font-size="10.00"> &gt; quizNumberTextList</text>
<text text-anchor="start" x="100.06" y="-136.5" font-family="Helvetica,sans-Serif" font-size="10.00">+ List&lt; GameObject &gt;</text>
<text text-anchor="start" x="100.06" y="-125.5" font-family="Helvetica,sans-Serif" font-size="10.00"> quizPackList</text>
<text text-anchor="start" x="100.06" y="-114.5" font-family="Helvetica,sans-Serif" font-size="10.00">+ List&lt; ItemUI &gt; ItemUis</text>
<polyline fill="none" stroke="black" points="92.06,-107.5 251.06,-107.5 "/>
<text text-anchor="start" x="100.06" y="-95.5" font-family="Helvetica,sans-Serif" font-size="10.00">+ void ShowQuiz(Quiz</text>
<text text-anchor="start" x="100.06" y="-84.5" font-family="Helvetica,sans-Serif" font-size="10.00"> quiz)</text>
<text text-anchor="start" x="100.06" y="-73.5" font-family="Helvetica,sans-Serif" font-size="10.00">+ void EnterQuiz()</text>
<text text-anchor="start" x="100.06" y="-62.5" font-family="Helvetica,sans-Serif" font-size="10.00">+ void Next(bool result)</text>
<text text-anchor="start" x="100.06" y="-51.5" font-family="Helvetica,sans-Serif" font-size="10.00">+ void EnterQuizConfirm</text>
<text text-anchor="start" x="100.06" y="-40.5" font-family="Helvetica,sans-Serif" font-size="10.00">(int unitIndex)</text>
<text text-anchor="start" x="100.06" y="-29.5" font-family="Helvetica,sans-Serif" font-size="10.00">+ void QuitQuizConfirm()</text>
<text text-anchor="start" x="100.06" y="-18.5" font-family="Helvetica,sans-Serif" font-size="10.00">+ void Close()</text>
<text text-anchor="start" x="100.06" y="-7.5" font-family="Helvetica,sans-Serif" font-size="10.00">+ void CloseFinishPanel()</text>
</a>
</g>
</g>
<!-- Node1&#45;&gt;Node5 -->
<g id="edge11" class="edge">
<title>Node1&#45;&gt;Node5</title>
<path fill="none" stroke="#404040" d="M319.55,-386.13C318.04,-346.73 312.21,-298.87 295.56,-259 286.46,-237.23 273.2,-216.1 258.7,-196.87"/>
<polygon fill="none" stroke="#404040" points="258.62,-196.77 251.78,-194.49 251.26,-187.29 258.1,-189.58 258.62,-196.77"/>
<text text-anchor="middle" x="346.06" y="-296.5" font-family="Helvetica,sans-Serif" font-size="10.00"> +quizShowUI</text>
</g>
<!-- Node2 -->
<g id="node2" class="node">
<title>Node2</title>
<g id="a_node2"><a xlink:title=" ">
<polygon fill="white" stroke="#bfbfbf" points="17.06,-623.5 17.06,-680.5 100.06,-680.5 100.06,-623.5 17.06,-623.5"/>
<text text-anchor="middle" x="58.56" y="-668.5" font-family="Helvetica,sans-Serif" font-size="10.00">MonoBehaviour</text>
<polyline fill="none" stroke="#bfbfbf" points="17.06,-661.5 100.06,-661.5 "/>
<text text-anchor="middle" x="58.56" y="-649.5" font-family="Helvetica,sans-Serif" font-size="10.00"> </text>
<polyline fill="none" stroke="#bfbfbf" points="17.06,-642.5 100.06,-642.5 "/>
<text text-anchor="middle" x="58.56" y="-630.5" font-family="Helvetica,sans-Serif" font-size="10.00"> </text>
</a>
</g>
</g>
<!-- Node2&#45;&gt;Node1 -->
<g id="edge1" class="edge">
<title>Node2&#45;&gt;Node1</title>
<path fill="none" stroke="midnightblue" d="M82.45,-615.19C97.02,-596.18 117.29,-574.09 140.56,-561 176.87,-540.57 195.34,-561.73 232.56,-543 235.68,-541.43 238.77,-539.71 241.82,-537.87"/>
<polygon fill="none" stroke="midnightblue" points="79.52,-613.27 76.37,-623.39 85.14,-617.44 79.52,-613.27"/>
</g>
<!-- Node2&#45;&gt;Node5 -->
<g id="edge5" class="edge">
<title>Node2&#45;&gt;Node5</title>
<path fill="none" stroke="midnightblue" d="M44,-613.57C18.44,-541.78 -27.29,-381.06 22.56,-259 37.09,-223.42 64.4,-191.66 91.72,-166.5"/>
<polygon fill="none" stroke="midnightblue" points="40.76,-614.89 47.46,-623.09 47.33,-612.5 40.76,-614.89"/>
</g>
<!-- Node6 -->
<g id="node6" class="node">
<title>Node6</title>
<g id="a_node6"><a xlink:href="class_u_i_1_1_chinese_sports_1_1_main_1_1_quiz_u_i_1_1_quiz_finish_u_i.html" target="_top" xlink:title=" ">
<polygon fill="white" stroke="black" points="31.56,-259.5 31.56,-338.5 171.56,-338.5 171.56,-259.5 31.56,-259.5"/>
<text text-anchor="start" x="39.56" y="-326.5" font-family="Helvetica,sans-Serif" font-size="10.00">UI.ChineseSports.Main.Quiz</text>
<text text-anchor="middle" x="101.56" y="-315.5" font-family="Helvetica,sans-Serif" font-size="10.00">UI.QuizFinishUI</text>
<polyline fill="none" stroke="black" points="31.56,-308.5 171.56,-308.5 "/>
<text text-anchor="start" x="39.56" y="-296.5" font-family="Helvetica,sans-Serif" font-size="10.00">+ int unlockedUnitIndex</text>
<text text-anchor="start" x="39.56" y="-285.5" font-family="Helvetica,sans-Serif" font-size="10.00">+ Image unitImage</text>
<polyline fill="none" stroke="black" points="31.56,-278.5 171.56,-278.5 "/>
<text text-anchor="middle" x="101.56" y="-266.5" font-family="Helvetica,sans-Serif" font-size="10.00"> </text>
</a>
</g>
</g>
<!-- Node2&#45;&gt;Node6 -->
<g id="edge7" class="edge">
<title>Node2&#45;&gt;Node6</title>
<path fill="none" stroke="midnightblue" d="M51.54,-613.23C43.27,-561.13 33.07,-464.74 53.56,-386 57.82,-369.62 65.96,-353.04 74.35,-338.88"/>
<polygon fill="none" stroke="midnightblue" points="48.13,-614.05 53.21,-623.34 55.03,-612.91 48.13,-614.05"/>
</g>
<!-- Node7 -->
<g id="node7" class="node">
<title>Node7</title>
<g id="a_node7"><a xlink:href="class_u_i_1_1_chinese_sports_1_1_main_1_1_character_view_u_i.html" target="_top" xlink:title=" ">
<polygon fill="white" stroke="black" points="63.06,-386.5 63.06,-542.5 224.06,-542.5 224.06,-386.5 63.06,-386.5"/>
<text text-anchor="start" x="71.06" y="-530.5" font-family="Helvetica,sans-Serif" font-size="10.00">UI.ChineseSports.Main.Character</text>
<text text-anchor="middle" x="143.56" y="-519.5" font-family="Helvetica,sans-Serif" font-size="10.00">ViewUI</text>
<polyline fill="none" stroke="black" points="63.06,-512.5 224.06,-512.5 "/>
<text text-anchor="start" x="71.06" y="-500.5" font-family="Helvetica,sans-Serif" font-size="10.00">+ List&lt; Sprite &gt; character</text>
<text text-anchor="start" x="71.06" y="-489.5" font-family="Helvetica,sans-Serif" font-size="10.00">Sprites</text>
<text text-anchor="start" x="71.06" y="-478.5" font-family="Helvetica,sans-Serif" font-size="10.00">+ List&lt; String &gt; character</text>
<text text-anchor="start" x="71.06" y="-467.5" font-family="Helvetica,sans-Serif" font-size="10.00">Descriptions</text>
<text text-anchor="start" x="71.06" y="-456.5" font-family="Helvetica,sans-Serif" font-size="10.00">+ List&lt; Unit &gt; militaryUnits</text>
<text text-anchor="start" x="71.06" y="-445.5" font-family="Helvetica,sans-Serif" font-size="10.00">+ List&lt; PropertyLine</text>
<text text-anchor="start" x="71.06" y="-434.5" font-family="Helvetica,sans-Serif" font-size="10.00"> &gt; propertyLines</text>
<text text-anchor="start" x="71.06" y="-423.5" font-family="Helvetica,sans-Serif" font-size="10.00">+ Image characterAvater</text>
<text text-anchor="start" x="71.06" y="-412.5" font-family="Helvetica,sans-Serif" font-size="10.00">+ int CurCharacterSpriteIndex</text>
<polyline fill="none" stroke="black" points="63.06,-405.5 224.06,-405.5 "/>
<text text-anchor="start" x="71.06" y="-393.5" font-family="Helvetica,sans-Serif" font-size="10.00">+ void Set(int index)</text>
</a>
</g>
</g>
<!-- Node2&#45;&gt;Node7 -->
<g id="edge9" class="edge">
<title>Node2&#45;&gt;Node7</title>
<path fill="none" stroke="midnightblue" d="M70.32,-613.59C75.86,-597.2 82.93,-577.9 90.56,-561 93.29,-554.95 96.26,-548.77 99.36,-542.61"/>
<polygon fill="none" stroke="midnightblue" points="66.9,-612.77 67.07,-623.36 73.54,-614.97 66.9,-612.77"/>
</g>
<!-- Node3 -->
<g id="node3" class="node">
<title>Node3</title>
<g id="a_node3"><a xlink:title=" ">
<polygon fill="white" stroke="#bfbfbf" points="134.06,-623.5 134.06,-680.5 169.06,-680.5 169.06,-623.5 134.06,-623.5"/>
<text text-anchor="middle" x="151.56" y="-668.5" font-family="Helvetica,sans-Serif" font-size="10.00">Text</text>
<polyline fill="none" stroke="#bfbfbf" points="134.06,-661.5 169.06,-661.5 "/>
<text text-anchor="middle" x="151.56" y="-649.5" font-family="Helvetica,sans-Serif" font-size="10.00"> </text>
<polyline fill="none" stroke="#bfbfbf" points="134.06,-642.5 169.06,-642.5 "/>
<text text-anchor="middle" x="151.56" y="-630.5" font-family="Helvetica,sans-Serif" font-size="10.00"> </text>
</a>
</g>
</g>
<!-- Node3&#45;&gt;Node1 -->
<g id="edge2" class="edge">
<title>Node3&#45;&gt;Node1</title>
<path fill="none" stroke="#404040" d="M169.06,-634.71C183.31,-621.22 203.75,-601.36 220.56,-583 229.61,-573.12 238.87,-562.54 247.92,-551.94"/>
<polygon fill="none" stroke="#404040" points="248.04,-551.79 248.87,-544.63 255.79,-542.63 254.97,-549.8 248.04,-551.79"/>
<text text-anchor="middle" x="271.06" y="-575" font-family="Helvetica,sans-Serif" font-size="10.00"> +quizContent</text>
<text text-anchor="middle" x="271.06" y="-564" font-family="Helvetica,sans-Serif" font-size="10.00">+resultText</text>
</g>
<!-- Node3&#45;&gt;Node7 -->
<g id="edge10" class="edge">
<title>Node3&#45;&gt;Node7</title>
<path fill="none" stroke="#404040" d="M148.1,-623.26C146.73,-610.95 145.29,-596.27 144.56,-583 144.05,-573.83 143.69,-564.26 143.44,-554.7"/>
<polygon fill="none" stroke="#404040" points="143.43,-554.64 139.31,-548.73 143.18,-542.64 147.3,-548.56 143.43,-554.64"/>
<text text-anchor="middle" x="182.56" y="-569.5" font-family="Helvetica,sans-Serif" font-size="10.00"> +descriptionText</text>
</g>
<!-- Node4 -->
<g id="node4" class="node">
<title>Node4</title>
<g id="a_node4"><a xlink:href="class_saver_1_1_quiz_1_1_quiz.html" target="_top" xlink:title=" ">
<polygon fill="white" stroke="black" points="271.06,-601.5 271.06,-702.5 382.06,-702.5 382.06,-601.5 271.06,-601.5"/>
<text text-anchor="middle" x="326.56" y="-690.5" font-family="Helvetica,sans-Serif" font-size="10.00">Saver.Quiz.Quiz</text>
<polyline fill="none" stroke="black" points="271.06,-683.5 382.06,-683.5 "/>
<text text-anchor="start" x="279.06" y="-671.5" font-family="Helvetica,sans-Serif" font-size="10.00">+ int QuizIndex</text>
<text text-anchor="start" x="279.06" y="-660.5" font-family="Helvetica,sans-Serif" font-size="10.00">+ QuizType QuizType</text>
<text text-anchor="start" x="279.06" y="-649.5" font-family="Helvetica,sans-Serif" font-size="10.00">+ string QuizContent</text>
<text text-anchor="start" x="279.06" y="-638.5" font-family="Helvetica,sans-Serif" font-size="10.00">+ List&lt; QuizOption &gt;</text>
<text text-anchor="start" x="279.06" y="-627.5" font-family="Helvetica,sans-Serif" font-size="10.00"> QuizOptions</text>
<polyline fill="none" stroke="black" points="271.06,-620.5 382.06,-620.5 "/>
<text text-anchor="middle" x="326.56" y="-608.5" font-family="Helvetica,sans-Serif" font-size="10.00"> </text>
</a>
</g>
</g>
<!-- Node4&#45;&gt;Node1 -->
<g id="edge3" class="edge">
<title>Node4&#45;&gt;Node1</title>
<path fill="none" stroke="#404040" d="M324.14,-601.29C323.45,-586.92 322.66,-570.78 321.89,-554.78"/>
<polygon fill="none" stroke="#404040" points="321.88,-554.59 317.59,-548.79 321.3,-542.61 325.58,-548.41 321.88,-554.59"/>
<text text-anchor="middle" x="337.56" y="-569.5" font-family="Helvetica,sans-Serif" font-size="10.00"> +quiz</text>
</g>
<!-- Node5&#45;&gt;Node1 -->
<g id="edge4" class="edge">
<title>Node5&#45;&gt;Node1</title>
<path fill="none" stroke="#404040" d="M189.5,-211.8C199.03,-262 210.93,-316.11 221.56,-339 227.44,-351.67 234.8,-364.25 242.82,-376.27"/>
<polygon fill="none" stroke="#404040" points="242.88,-376.34 249.58,-379.01 249.7,-386.22 243,-383.55 242.88,-376.34"/>
<text text-anchor="middle" x="258.56" y="-296.5" font-family="Helvetica,sans-Serif" font-size="10.00"> +quizUIManager</text>
</g>
<!-- Node6&#45;&gt;Node5 -->
<g id="edge6" class="edge">
<title>Node6&#45;&gt;Node5</title>
<path fill="none" stroke="#404040" d="M115.72,-259.35C119.71,-248.47 124.26,-236.05 129.01,-223.1"/>
<polygon fill="none" stroke="#404040" points="129.09,-222.87 127.4,-215.86 133.22,-211.6 134.91,-218.61 129.09,-222.87"/>
<text text-anchor="middle" x="155.06" y="-233" font-family="Helvetica,sans-Serif" font-size="10.00"> +finishPanel</text>
</g>
<!-- Node7&#45;&gt;Node6 -->
<g id="edge8" class="edge">
<title>Node7&#45;&gt;Node6</title>
<path fill="none" stroke="#404040" d="M118.38,-386.34C116.65,-380.16 115.02,-373.99 113.56,-368 112.19,-362.4 110.91,-356.5 109.74,-350.62"/>
<polygon fill="none" stroke="#404040" points="109.71,-350.45 104.66,-345.3 107.48,-338.66 112.53,-343.82 109.71,-350.45"/>
<text text-anchor="middle" x="153.56" y="-360" font-family="Helvetica,sans-Serif" font-size="10.00"> +characterViewUI</text>
</g>
</g>
</svg>
