<?xml version="1.0" encoding="UTF-8" standalone="no"?>
<!DOCTYPE svg PUBLIC "-//W3C//DTD SVG 1.1//EN"
 "http://www.w3.org/Graphics/SVG/1.1/DTD/svg11.dtd">
<!-- Generated by graphviz version 2.47.1 (20210417.1919)
 -->
<!-- Title: Saver.DataTransfer Pages: 1 -->
<svg width="434pt" height="475pt"
 viewBox="0.00 0.00 434.34 475.00" xmlns="http://www.w3.org/2000/svg" xmlns:xlink="http://www.w3.org/1999/xlink">
<g id="graph0" class="graph" transform="scale(1 1) rotate(0) translate(4 471)">
<title>Saver.DataTransfer</title>
<polygon fill="white" stroke="transparent" points="-4,4 -4,-471 430.34,-471 430.34,4 -4,4"/>
<!-- Node1 -->
<g id="node1" class="node">
<title>Node1</title>
<g id="a_node1"><a xlink:title="数据传输">
<polygon fill="#bfbfbf" stroke="black" points="67.34,-0.5 67.34,-189.5 244.34,-189.5 244.34,-0.5 67.34,-0.5"/>
<text text-anchor="middle" x="155.84" y="-177.5" font-family="Helvetica,sans-Serif" font-size="10.00">Saver.DataTransfer</text>
<polyline fill="none" stroke="black" points="67.34,-170.5 244.34,-170.5 "/>
<text text-anchor="start" x="75.34" y="-158.5" font-family="Helvetica,sans-Serif" font-size="10.00">+ List&lt; bool &gt; itemRevealedList</text>
<text text-anchor="start" x="75.34" y="-147.5" font-family="Helvetica,sans-Serif" font-size="10.00">+ List&lt; UnitDict &gt; unitList</text>
<text text-anchor="start" x="75.34" y="-136.5" font-family="Helvetica,sans-Serif" font-size="10.00">+ List&lt; bool &gt; characterRevealedList</text>
<text text-anchor="start" x="75.34" y="-125.5" font-family="Helvetica,sans-Serif" font-size="10.00">+ List&lt; bool &gt; characterUnlockedList</text>
<text text-anchor="start" x="75.34" y="-114.5" font-family="Helvetica,sans-Serif" font-size="10.00">+ List&lt; bool &gt; levelRevealedList</text>
<text text-anchor="start" x="75.34" y="-103.5" font-family="Helvetica,sans-Serif" font-size="10.00">+ List&lt; Quiz.Quiz &gt; quizList</text>
<text text-anchor="start" x="75.34" y="-92.5" font-family="Helvetica,sans-Serif" font-size="10.00">+ string nextLoadingSceneName</text>
<text text-anchor="start" x="75.34" y="-81.5" font-family="Helvetica,sans-Serif" font-size="10.00">+ static DataTransfer</text>
<text text-anchor="start" x="75.34" y="-70.5" font-family="Helvetica,sans-Serif" font-size="10.00"> GetDataTransfer</text>
<text text-anchor="start" x="75.34" y="-59.5" font-family="Helvetica,sans-Serif" font-size="10.00">+ bool isSoundsActive</text>
<polyline fill="none" stroke="black" points="67.34,-52.5 244.34,-52.5 "/>
<text text-anchor="start" x="75.34" y="-40.5" font-family="Helvetica,sans-Serif" font-size="10.00">+ void LoadSceneInLoadingScene</text>
<text text-anchor="start" x="75.34" y="-29.5" font-family="Helvetica,sans-Serif" font-size="10.00">(string sceneName)</text>
<text text-anchor="start" x="75.34" y="-18.5" font-family="Helvetica,sans-Serif" font-size="10.00">+ List&lt; UnitDict &gt; GetAvailable</text>
<text text-anchor="start" x="75.34" y="-7.5" font-family="Helvetica,sans-Serif" font-size="10.00">Units()</text>
</a>
</g>
</g>
<!-- Node2 -->
<g id="node2" class="node">
<title>Node2</title>
<g id="a_node2"><a xlink:title=" ">
<polygon fill="white" stroke="#bfbfbf" points="84.34,-409.5 84.34,-466.5 167.34,-466.5 167.34,-409.5 84.34,-409.5"/>
<text text-anchor="middle" x="125.84" y="-454.5" font-family="Helvetica,sans-Serif" font-size="10.00">MonoBehaviour</text>
<polyline fill="none" stroke="#bfbfbf" points="84.34,-447.5 167.34,-447.5 "/>
<text text-anchor="middle" x="125.84" y="-435.5" font-family="Helvetica,sans-Serif" font-size="10.00"> </text>
<polyline fill="none" stroke="#bfbfbf" points="84.34,-428.5 167.34,-428.5 "/>
<text text-anchor="middle" x="125.84" y="-416.5" font-family="Helvetica,sans-Serif" font-size="10.00"> </text>
</a>
</g>
</g>
<!-- Node2&#45;&gt;Node1 -->
<g id="edge1" class="edge">
<title>Node2&#45;&gt;Node1</title>
<path fill="none" stroke="midnightblue" d="M75.1,-418.92C54.07,-408.63 31.83,-393.41 19.84,-372 -9.47,-319.65 -2.62,-292.64 19.84,-237 30.28,-211.14 47.99,-187.38 67.23,-167.03"/>
<polygon fill="none" stroke="midnightblue" points="73.77,-422.16 84.32,-423.17 76.7,-415.81 73.77,-422.16"/>
</g>
<!-- Node3 -->
<g id="node3" class="node">
<title>Node3</title>
<g id="a_node3"><a xlink:href="class_saver_1_1_x_m_l_reader.html" target="_top" xlink:title="读档器">
<polygon fill="white" stroke="black" points="29.34,-270.5 29.34,-338.5 140.34,-338.5 140.34,-270.5 29.34,-270.5"/>
<text text-anchor="middle" x="84.84" y="-326.5" font-family="Helvetica,sans-Serif" font-size="10.00">Saver.XMLReader</text>
<polyline fill="none" stroke="black" points="29.34,-319.5 140.34,-319.5 "/>
<text text-anchor="middle" x="84.84" y="-307.5" font-family="Helvetica,sans-Serif" font-size="10.00"> </text>
<polyline fill="none" stroke="black" points="29.34,-300.5 140.34,-300.5 "/>
<text text-anchor="start" x="37.34" y="-288.5" font-family="Helvetica,sans-Serif" font-size="10.00">+ void LoadSaver(bool</text>
<text text-anchor="start" x="37.34" y="-277.5" font-family="Helvetica,sans-Serif" font-size="10.00"> isCompletely)</text>
</a>
</g>
</g>
<!-- Node2&#45;&gt;Node3 -->
<g id="edge3" class="edge">
<title>Node2&#45;&gt;Node3</title>
<path fill="none" stroke="midnightblue" d="M114.24,-399.78C108.24,-380.53 100.97,-357.24 95.17,-338.62"/>
<polygon fill="none" stroke="midnightblue" points="110.93,-400.93 117.25,-409.43 117.61,-398.84 110.93,-400.93"/>
</g>
<!-- Node4 -->
<g id="node4" class="node">
<title>Node4</title>
<g id="a_node4"><a xlink:href="class_u_i_1_1_tutorial_1_1_tutorial_manager.html" target="_top" xlink:title=" ">
<polygon fill="white" stroke="black" points="158.34,-237.5 158.34,-371.5 295.34,-371.5 295.34,-237.5 158.34,-237.5"/>
<text text-anchor="middle" x="226.84" y="-359.5" font-family="Helvetica,sans-Serif" font-size="10.00">UI.Tutorial.TutorialManager</text>
<polyline fill="none" stroke="black" points="158.34,-352.5 295.34,-352.5 "/>
<text text-anchor="start" x="166.34" y="-340.5" font-family="Helvetica,sans-Serif" font-size="10.00">+ int? NextTutorialIndex</text>
<polyline fill="none" stroke="black" points="158.34,-333.5 295.34,-333.5 "/>
<text text-anchor="start" x="166.34" y="-321.5" font-family="Helvetica,sans-Serif" font-size="10.00">+ void RegisterTutorialClip</text>
<text text-anchor="start" x="166.34" y="-310.5" font-family="Helvetica,sans-Serif" font-size="10.00">(TutorialClipUI tutorialClip)</text>
<text text-anchor="start" x="166.34" y="-299.5" font-family="Helvetica,sans-Serif" font-size="10.00">+ void RemoveTutorialClip</text>
<text text-anchor="start" x="166.34" y="-288.5" font-family="Helvetica,sans-Serif" font-size="10.00">(TutorialClipUI tutorialClip)</text>
<text text-anchor="start" x="166.34" y="-277.5" font-family="Helvetica,sans-Serif" font-size="10.00">+ void RemoveTutorialClip</text>
<text text-anchor="start" x="166.34" y="-266.5" font-family="Helvetica,sans-Serif" font-size="10.00">(int tutorialClipIndex)</text>
<text text-anchor="start" x="166.34" y="-255.5" font-family="Helvetica,sans-Serif" font-size="10.00">+ void GoToNextClip()</text>
<text text-anchor="start" x="166.34" y="-244.5" font-family="Helvetica,sans-Serif" font-size="10.00">+ void ReturnToFormerClip()</text>
</a>
</g>
</g>
<!-- Node2&#45;&gt;Node4 -->
<g id="edge5" class="edge">
<title>Node2&#45;&gt;Node4</title>
<path fill="none" stroke="midnightblue" d="M153.25,-401.31C160.3,-392.14 168.11,-381.96 175.94,-371.77"/>
<polygon fill="none" stroke="midnightblue" points="150.33,-399.37 147.01,-409.43 155.88,-403.63 150.33,-399.37"/>
</g>
<!-- Node5 -->
<g id="node5" class="node">
<title>Node5</title>
<g id="a_node5"><a xlink:href="class_saver_1_1_x_m_l_saver.html" target="_top" xlink:title=" ">
<polygon fill="white" stroke="black" points="313.34,-265 313.34,-344 426.34,-344 426.34,-265 313.34,-265"/>
<text text-anchor="middle" x="369.84" y="-332" font-family="Helvetica,sans-Serif" font-size="10.00">Saver.XMLSaver</text>
<polyline fill="none" stroke="black" points="313.34,-325 426.34,-325 "/>
<text text-anchor="start" x="321.34" y="-313" font-family="Helvetica,sans-Serif" font-size="10.00">+ float autoSaveTime</text>
<polyline fill="none" stroke="black" points="313.34,-306 426.34,-306 "/>
<text text-anchor="start" x="321.34" y="-294" font-family="Helvetica,sans-Serif" font-size="10.00">+ void SaveData(string</text>
<text text-anchor="start" x="321.34" y="-283" font-family="Helvetica,sans-Serif" font-size="10.00"> fileName)</text>
<text text-anchor="start" x="321.34" y="-272" font-family="Helvetica,sans-Serif" font-size="10.00">+ void SaveData()</text>
</a>
</g>
</g>
<!-- Node2&#45;&gt;Node5 -->
<g id="edge7" class="edge">
<title>Node2&#45;&gt;Node5</title>
<path fill="none" stroke="midnightblue" d="M177.51,-424.63C214.59,-414.25 264.72,-397.06 303.84,-372 315.76,-364.37 327.2,-354.24 337.11,-344.2"/>
<polygon fill="none" stroke="midnightblue" points="176.14,-421.37 167.41,-427.38 177.98,-428.13 176.14,-421.37"/>
</g>
<!-- Node3&#45;&gt;Node1 -->
<g id="edge2" class="edge">
<title>Node3&#45;&gt;Node1</title>
<path fill="none" stroke="#404040" d="M96.25,-270.16C102.74,-251.19 111.27,-226.26 119.84,-201.22"/>
<polygon fill="none" stroke="#404040" points="119.88,-201.08 118.04,-194.11 123.77,-189.73 125.61,-196.7 119.88,-201.08"/>
<text text-anchor="middle" x="144.84" y="-211" font-family="Helvetica,sans-Serif" font-size="10.00"> +xmlReader</text>
</g>
<!-- Node4&#45;&gt;Node1 -->
<g id="edge4" class="edge">
<title>Node4&#45;&gt;Node1</title>
<path fill="none" stroke="#404040" d="M204.18,-237.28C200.24,-225.77 196.06,-213.55 191.88,-201.31"/>
<polygon fill="none" stroke="#404040" points="191.75,-200.94 186.02,-196.55 187.86,-189.58 193.59,-193.96 191.75,-200.94"/>
<text text-anchor="middle" x="235.84" y="-211" font-family="Helvetica,sans-Serif" font-size="10.00"> +tutorialManager</text>
</g>
<!-- Node5&#45;&gt;Node1 -->
<g id="edge6" class="edge">
<title>Node5&#45;&gt;Node1</title>
<path fill="none" stroke="#404040" d="M333.66,-264.87C316.92,-247.28 296.62,-226.33 277.84,-208 269.9,-200.25 261.58,-192.29 253.18,-184.36"/>
<polygon fill="none" stroke="#404040" points="253.15,-184.33 246.04,-183.14 244.4,-176.12 251.52,-177.31 253.15,-184.33"/>
<text text-anchor="middle" x="313.34" y="-211" font-family="Helvetica,sans-Serif" font-size="10.00"> +xmlSaver</text>
</g>
</g>
</svg>
