<?xml version="1.0" encoding="UTF-8" standalone="no"?>
<!DOCTYPE svg PUBLIC "-//W3C//DTD SVG 1.1//EN"
 "http://www.w3.org/Graphics/SVG/1.1/DTD/svg11.dtd">
<!-- Generated by graphviz version 2.47.1 (20210417.1919)
 -->
<!-- Title: Gameplay.ScienceTree.ScienceTreeNode Pages: 1 -->
<svg width="304pt" height="569pt"
 viewBox="0.00 0.00 303.50 569.00" xmlns="http://www.w3.org/2000/svg" xmlns:xlink="http://www.w3.org/1999/xlink">
<g id="graph0" class="graph" transform="scale(1 1) rotate(0) translate(4 565)">
<title>Gameplay.ScienceTree.ScienceTreeNode</title>
<polygon fill="white" stroke="transparent" points="-4,4 -4,-565 299.5,-565 299.5,4 -4,4"/>
<!-- Node1 -->
<g id="node1" class="node">
<title>Node1</title>
<g id="a_node1"><a xlink:title="科技树节点">
<polygon fill="#bfbfbf" stroke="black" points="0,-0.5 0,-167.5 156,-167.5 156,-0.5 0,-0.5"/>
<text text-anchor="start" x="8" y="-155.5" font-family="Helvetica,sans-Serif" font-size="10.00">Gameplay.ScienceTree.Science</text>
<text text-anchor="middle" x="78" y="-144.5" font-family="Helvetica,sans-Serif" font-size="10.00">TreeNode</text>
<polyline fill="none" stroke="black" points="0,-137.5 156,-137.5 "/>
<text text-anchor="start" x="8" y="-125.5" font-family="Helvetica,sans-Serif" font-size="10.00">+ List&lt; ScienceTreeNode</text>
<text text-anchor="start" x="8" y="-114.5" font-family="Helvetica,sans-Serif" font-size="10.00"> &gt; previousNodes</text>
<text text-anchor="start" x="8" y="-103.5" font-family="Helvetica,sans-Serif" font-size="10.00">+ List&lt; ScienceTreeNode</text>
<text text-anchor="start" x="8" y="-92.5" font-family="Helvetica,sans-Serif" font-size="10.00"> &gt; afterwardNodes</text>
<text text-anchor="start" x="8" y="-81.5" font-family="Helvetica,sans-Serif" font-size="10.00">+ string nodeName</text>
<text text-anchor="start" x="8" y="-70.5" font-family="Helvetica,sans-Serif" font-size="10.00">+ int woodCost</text>
<text text-anchor="start" x="8" y="-59.5" font-family="Helvetica,sans-Serif" font-size="10.00">+ int foodCost</text>
<text text-anchor="start" x="8" y="-48.5" font-family="Helvetica,sans-Serif" font-size="10.00">+ int goldCost</text>
<text text-anchor="start" x="8" y="-37.5" font-family="Helvetica,sans-Serif" font-size="10.00">+ bool isActive</text>
<polyline fill="none" stroke="black" points="0,-30.5 156,-30.5 "/>
<text text-anchor="start" x="8" y="-18.5" font-family="Helvetica,sans-Serif" font-size="10.00">+ bool IsActivatable()</text>
<text text-anchor="start" x="8" y="-7.5" font-family="Helvetica,sans-Serif" font-size="10.00">+ bool Activate()</text>
</a>
</g>
</g>
<!-- Node2 -->
<g id="node2" class="node">
<title>Node2</title>
<g id="a_node2"><a xlink:title=" ">
<polygon fill="white" stroke="#bfbfbf" points="58.5,-503.5 58.5,-560.5 141.5,-560.5 141.5,-503.5 58.5,-503.5"/>
<text text-anchor="middle" x="100" y="-548.5" font-family="Helvetica,sans-Serif" font-size="10.00">MonoBehaviour</text>
<polyline fill="none" stroke="#bfbfbf" points="58.5,-541.5 141.5,-541.5 "/>
<text text-anchor="middle" x="100" y="-529.5" font-family="Helvetica,sans-Serif" font-size="10.00"> </text>
<polyline fill="none" stroke="#bfbfbf" points="58.5,-522.5 141.5,-522.5 "/>
<text text-anchor="middle" x="100" y="-510.5" font-family="Helvetica,sans-Serif" font-size="10.00"> </text>
</a>
</g>
</g>
<!-- Node2&#45;&gt;Node1 -->
<g id="edge1" class="edge">
<title>Node2&#45;&gt;Node1</title>
<path fill="none" stroke="midnightblue" d="M95.78,-493.24C95.5,-490.45 95.24,-487.68 95,-485 87.05,-395.8 84.79,-373.47 81,-284 79.39,-245.85 78.61,-203.56 78.24,-167.81"/>
<polygon fill="none" stroke="midnightblue" points="92.31,-493.7 96.81,-503.29 99.27,-492.98 92.31,-493.7"/>
</g>
<!-- Node3 -->
<g id="node3" class="node">
<title>Node3</title>
<g id="a_node3"><a xlink:href="class_gameplay_1_1_science_tree_1_1_science_tree_basic.html" target="_top" xlink:title="科技树">
<polygon fill="white" stroke="black" points="90,-215.5 90,-283.5 246,-283.5 246,-215.5 90,-215.5"/>
<text text-anchor="start" x="98" y="-271.5" font-family="Helvetica,sans-Serif" font-size="10.00">Gameplay.ScienceTree.Science</text>
<text text-anchor="middle" x="168" y="-260.5" font-family="Helvetica,sans-Serif" font-size="10.00">TreeBasic</text>
<polyline fill="none" stroke="black" points="90,-253.5 246,-253.5 "/>
<text text-anchor="middle" x="168" y="-241.5" font-family="Helvetica,sans-Serif" font-size="10.00"> </text>
<polyline fill="none" stroke="black" points="90,-234.5 246,-234.5 "/>
<text text-anchor="middle" x="168" y="-222.5" font-family="Helvetica,sans-Serif" font-size="10.00"> </text>
</a>
</g>
</g>
<!-- Node2&#45;&gt;Node3 -->
<g id="edge3" class="edge">
<title>Node2&#45;&gt;Node3</title>
<path fill="none" stroke="midnightblue" d="M98.61,-493.26C98.23,-452.26 100.94,-385.35 119,-331 124.52,-314.39 133.99,-297.6 143.13,-283.68"/>
<polygon fill="none" stroke="midnightblue" points="95.11,-493.41 98.77,-503.35 102.11,-493.3 95.11,-493.41"/>
</g>
<!-- Node4 -->
<g id="node4" class="node">
<title>Node4</title>
<g id="a_node4"><a xlink:href="class_gameplay_1_1_event_system_1_1_global_event_manager.html" target="_top" xlink:title="全局事件管理">
<polygon fill="white" stroke="black" points="128.5,-331.5 128.5,-465.5 295.5,-465.5 295.5,-331.5 128.5,-331.5"/>
<text text-anchor="start" x="136.5" y="-453.5" font-family="Helvetica,sans-Serif" font-size="10.00">Gameplay.EventSystem.Global</text>
<text text-anchor="middle" x="212" y="-442.5" font-family="Helvetica,sans-Serif" font-size="10.00">EventManager</text>
<polyline fill="none" stroke="black" points="128.5,-435.5 295.5,-435.5 "/>
<text text-anchor="start" x="136.5" y="-423.5" font-family="Helvetica,sans-Serif" font-size="10.00">+ Player.Player aSide</text>
<text text-anchor="start" x="136.5" y="-412.5" font-family="Helvetica,sans-Serif" font-size="10.00">+ Player.Player bSide</text>
<text text-anchor="start" x="136.5" y="-401.5" font-family="Helvetica,sans-Serif" font-size="10.00">+ List&lt; GlobalEventArgs</text>
<text text-anchor="start" x="136.5" y="-390.5" font-family="Helvetica,sans-Serif" font-size="10.00"> &gt; globalEventArgsList</text>
<text text-anchor="start" x="136.5" y="-379.5" font-family="Helvetica,sans-Serif" font-size="10.00">+ static GlobalEventManager</text>
<text text-anchor="start" x="136.5" y="-368.5" font-family="Helvetica,sans-Serif" font-size="10.00"> GetManager</text>
<polyline fill="none" stroke="black" points="128.5,-361.5 295.5,-361.5 "/>
<text text-anchor="start" x="136.5" y="-349.5" font-family="Helvetica,sans-Serif" font-size="10.00">+ void RegisterGlobalEvent</text>
<text text-anchor="start" x="136.5" y="-338.5" font-family="Helvetica,sans-Serif" font-size="10.00">(GlobalEventArgs globalEventArgs)</text>
</a>
</g>
</g>
<!-- Node2&#45;&gt;Node4 -->
<g id="edge5" class="edge">
<title>Node2&#45;&gt;Node4</title>
<path fill="none" stroke="midnightblue" d="M130.16,-495.59C138.03,-486.34 146.79,-476.07 155.56,-465.77"/>
<polygon fill="none" stroke="midnightblue" points="127.3,-493.55 123.48,-503.43 132.63,-498.09 127.3,-493.55"/>
</g>
<!-- Node3&#45;&gt;Node1 -->
<g id="edge2" class="edge">
<title>Node3&#45;&gt;Node1</title>
<path fill="none" stroke="#404040" d="M149.79,-215.41C143.75,-204.44 136.7,-191.63 129.42,-178.41"/>
<polygon fill="none" stroke="#404040" points="129.33,-178.25 122.94,-174.93 123.55,-167.74 129.94,-171.07 129.33,-178.25"/>
<text text-anchor="middle" x="170" y="-189" font-family="Helvetica,sans-Serif" font-size="10.00"> +scienceTree</text>
</g>
<!-- Node4&#45;&gt;Node3 -->
<g id="edge4" class="edge">
<title>Node4&#45;&gt;Node3</title>
<path fill="none" stroke="#404040" d="M192.19,-331.31C188.57,-319.22 184.87,-306.87 181.49,-295.57"/>
<polygon fill="none" stroke="#404040" points="181.41,-295.29 175.85,-290.69 177.97,-283.79 183.52,-288.39 181.41,-295.29"/>
<text text-anchor="middle" x="234.5" y="-305" font-family="Helvetica,sans-Serif" font-size="10.00"> +globalEventManager</text>
</g>
</g>
</svg>
