<?xml version="1.0" encoding="UTF-8" standalone="no"?>
<!DOCTYPE svg PUBLIC "-//W3C//DTD SVG 1.1//EN"
 "http://www.w3.org/Graphics/SVG/1.1/DTD/svg11.dtd">
<!-- Generated by graphviz version 2.47.1 (20210417.1919)
 -->
<!-- Title: UI.ChineseSports.Main.CharacterViewUI Pages: 1 -->
<svg width="191pt" height="270pt"
 viewBox="0.00 0.00 190.50 270.00" xmlns="http://www.w3.org/2000/svg" xmlns:xlink="http://www.w3.org/1999/xlink">
<g id="graph0" class="graph" transform="scale(1 1) rotate(0) translate(4 266)">
<title>UI.ChineseSports.Main.CharacterViewUI</title>
<polygon fill="white" stroke="transparent" points="-4,4 -4,-266 186.5,-266 186.5,4 -4,4"/>
<!-- Node1 -->
<g id="node1" class="node">
<title>Node1</title>
<g id="a_node1"><a xlink:title=" ">
<polygon fill="#bfbfbf" stroke="black" points="0,-0.5 0,-156.5 161,-156.5 161,-0.5 0,-0.5"/>
<text text-anchor="start" x="8" y="-144.5" font-family="Helvetica,sans-Serif" font-size="10.00">UI.ChineseSports.Main.Character</text>
<text text-anchor="middle" x="80.5" y="-133.5" font-family="Helvetica,sans-Serif" font-size="10.00">ViewUI</text>
<polyline fill="none" stroke="black" points="0,-126.5 161,-126.5 "/>
<text text-anchor="start" x="8" y="-114.5" font-family="Helvetica,sans-Serif" font-size="10.00">+ List&lt; Sprite &gt; character</text>
<text text-anchor="start" x="8" y="-103.5" font-family="Helvetica,sans-Serif" font-size="10.00">Sprites</text>
<text text-anchor="start" x="8" y="-92.5" font-family="Helvetica,sans-Serif" font-size="10.00">+ List&lt; String &gt; character</text>
<text text-anchor="start" x="8" y="-81.5" font-family="Helvetica,sans-Serif" font-size="10.00">Descriptions</text>
<text text-anchor="start" x="8" y="-70.5" font-family="Helvetica,sans-Serif" font-size="10.00">+ List&lt; Unit &gt; militaryUnits</text>
<text text-anchor="start" x="8" y="-59.5" font-family="Helvetica,sans-Serif" font-size="10.00">+ List&lt; PropertyLine</text>
<text text-anchor="start" x="8" y="-48.5" font-family="Helvetica,sans-Serif" font-size="10.00"> &gt; propertyLines</text>
<text text-anchor="start" x="8" y="-37.5" font-family="Helvetica,sans-Serif" font-size="10.00">+ Image characterAvater</text>
<text text-anchor="start" x="8" y="-26.5" font-family="Helvetica,sans-Serif" font-size="10.00">+ int CurCharacterSpriteIndex</text>
<polyline fill="none" stroke="black" points="0,-19.5 161,-19.5 "/>
<text text-anchor="start" x="8" y="-7.5" font-family="Helvetica,sans-Serif" font-size="10.00">+ void Set(int index)</text>
</a>
</g>
</g>
<!-- Node2 -->
<g id="node2" class="node">
<title>Node2</title>
<g id="a_node2"><a xlink:title=" ">
<polygon fill="white" stroke="#bfbfbf" points="1,-204.5 1,-261.5 84,-261.5 84,-204.5 1,-204.5"/>
<text text-anchor="middle" x="42.5" y="-249.5" font-family="Helvetica,sans-Serif" font-size="10.00">MonoBehaviour</text>
<polyline fill="none" stroke="#bfbfbf" points="1,-242.5 84,-242.5 "/>
<text text-anchor="middle" x="42.5" y="-230.5" font-family="Helvetica,sans-Serif" font-size="10.00"> </text>
<polyline fill="none" stroke="#bfbfbf" points="1,-223.5 84,-223.5 "/>
<text text-anchor="middle" x="42.5" y="-211.5" font-family="Helvetica,sans-Serif" font-size="10.00"> </text>
</a>
</g>
</g>
<!-- Node2&#45;&gt;Node1 -->
<g id="edge1" class="edge">
<title>Node2&#45;&gt;Node1</title>
<path fill="none" stroke="midnightblue" d="M51.8,-194.66C54.69,-183.08 57.99,-169.85 61.29,-156.6"/>
<polygon fill="none" stroke="midnightblue" points="48.4,-193.83 49.38,-204.38 55.2,-195.53 48.4,-193.83"/>
</g>
<!-- Node3 -->
<g id="node3" class="node">
<title>Node3</title>
<g id="a_node3"><a xlink:title=" ">
<polygon fill="white" stroke="#bfbfbf" points="102,-204.5 102,-261.5 137,-261.5 137,-204.5 102,-204.5"/>
<text text-anchor="middle" x="119.5" y="-249.5" font-family="Helvetica,sans-Serif" font-size="10.00">Text</text>
<polyline fill="none" stroke="#bfbfbf" points="102,-242.5 137,-242.5 "/>
<text text-anchor="middle" x="119.5" y="-230.5" font-family="Helvetica,sans-Serif" font-size="10.00"> </text>
<polyline fill="none" stroke="#bfbfbf" points="102,-223.5 137,-223.5 "/>
<text text-anchor="middle" x="119.5" y="-211.5" font-family="Helvetica,sans-Serif" font-size="10.00"> </text>
</a>
</g>
</g>
<!-- Node3&#45;&gt;Node1 -->
<g id="edge2" class="edge">
<title>Node3&#45;&gt;Node1</title>
<path fill="none" stroke="#404040" d="M112.44,-204.38C109.78,-194 106.6,-181.55 103.28,-168.59"/>
<polygon fill="none" stroke="#404040" points="103.19,-168.22 97.83,-163.4 100.22,-156.6 105.58,-161.42 103.19,-168.22"/>
<text text-anchor="middle" x="144.5" y="-178" font-family="Helvetica,sans-Serif" font-size="10.00"> +descriptionText</text>
</g>
</g>
</svg>
