<?xml version="1.0" encoding="UTF-8" standalone="no"?>
<!DOCTYPE svg PUBLIC "-//W3C//DTD SVG 1.1//EN"
 "http://www.w3.org/Graphics/SVG/1.1/DTD/svg11.dtd">
<!-- Generated by graphviz version 2.47.1 (20210417.1919)
 -->
<!-- Title: Units.Unit.Goto Pages: 1 -->
<svg width="359pt" height="104pt"
 viewBox="0.00 0.00 359.00 104.00" xmlns="http://www.w3.org/2000/svg" xmlns:xlink="http://www.w3.org/1999/xlink">
<g id="graph0" class="graph" transform="scale(1 1) rotate(0) translate(4 100)">
<title>Units.Unit.Goto</title>
<polygon fill="white" stroke="transparent" points="-4,4 -4,-100 355,-100 355,4 -4,4"/>
<!-- Node1 -->
<g id="node1" class="node">
<title>Node1</title>
<g id="a_node1"><a xlink:title="前往目的地">
<polygon fill="#bfbfbf" stroke="black" points="268,-38.5 268,-57.5 351,-57.5 351,-38.5 268,-38.5"/>
<text text-anchor="middle" x="309.5" y="-45.5" font-family="Helvetica,sans-Serif" font-size="10.00">Units.Unit.Goto</text>
</a>
</g>
</g>
<!-- Node2 -->
<g id="node2" class="node">
<title>Node2</title>
<g id="a_node2"><a xlink:href="class_units_1_1_farmer.html#a5c14f845ce8068b1c3c3d290ea460064" target="_top" xlink:title="放下资源">
<polygon fill="white" stroke="black" points="134.5,-76.5 134.5,-95.5 230.5,-95.5 230.5,-76.5 134.5,-76.5"/>
<text text-anchor="middle" x="182.5" y="-83.5" font-family="Helvetica,sans-Serif" font-size="10.00">Units.Farmer.Drop</text>
</a>
</g>
</g>
<!-- Node1&#45;&gt;Node2 -->
<g id="edge1" class="edge">
<title>Node1&#45;&gt;Node2</title>
<path fill="none" stroke="midnightblue" d="M267.27,-60.54C250.26,-65.7 230.87,-71.6 215.03,-76.41"/>
<polygon fill="midnightblue" stroke="midnightblue" points="268.41,-63.85 276.96,-57.59 266.37,-57.15 268.41,-63.85"/>
</g>
<!-- Node4 -->
<g id="node4" class="node">
<title>Node4</title>
<g id="a_node4"><a xlink:href="class_units_1_1_unit.html#a9bbed64b4fe366576e0e547e5753f814" target="_top" xlink:title=" ">
<polygon fill="white" stroke="black" points="141,-38.5 141,-57.5 224,-57.5 224,-38.5 141,-38.5"/>
<text text-anchor="middle" x="182.5" y="-45.5" font-family="Helvetica,sans-Serif" font-size="10.00">Units.Unit.Start</text>
</a>
</g>
</g>
<!-- Node1&#45;&gt;Node4 -->
<g id="edge3" class="edge">
<title>Node1&#45;&gt;Node4</title>
<path fill="none" stroke="midnightblue" d="M257.86,-48C246.7,-48 235.02,-48 224.31,-48"/>
<polygon fill="midnightblue" stroke="midnightblue" points="257.92,-51.5 267.92,-48 257.92,-44.5 257.92,-51.5"/>
</g>
<!-- Node5 -->
<g id="node5" class="node">
<title>Node5</title>
<g id="a_node5"><a xlink:href="class_units_1_1_farmer.html#ae754a0ed4b2b8405feab43870b472da6" target="_top" xlink:title="/工作">
<polygon fill="white" stroke="black" points="133,-0.5 133,-19.5 232,-19.5 232,-0.5 133,-0.5"/>
<text text-anchor="middle" x="182.5" y="-7.5" font-family="Helvetica,sans-Serif" font-size="10.00">Units.Farmer.Work</text>
</a>
</g>
</g>
<!-- Node1&#45;&gt;Node5 -->
<g id="edge4" class="edge">
<title>Node1&#45;&gt;Node5</title>
<path fill="none" stroke="midnightblue" d="M267.27,-35.46C250.26,-30.3 230.87,-24.4 215.03,-19.59"/>
<polygon fill="midnightblue" stroke="midnightblue" points="266.37,-38.85 276.96,-38.41 268.41,-32.15 266.37,-38.85"/>
</g>
<!-- Node3 -->
<g id="node3" class="node">
<title>Node3</title>
<g id="a_node3"><a xlink:href="class_units_1_1_farmer.html#afd481c40717c93060b64c5c4afdfd562" target="_top" xlink:title=" ">
<polygon fill="white" stroke="black" points="0,-76.5 0,-95.5 97,-95.5 97,-76.5 0,-76.5"/>
<text text-anchor="middle" x="48.5" y="-83.5" font-family="Helvetica,sans-Serif" font-size="10.00">Units.Farmer.Start</text>
</a>
</g>
</g>
<!-- Node2&#45;&gt;Node3 -->
<g id="edge2" class="edge">
<title>Node2&#45;&gt;Node3</title>
<path fill="none" stroke="midnightblue" d="M123.93,-86C115.06,-86 105.97,-86 97.34,-86"/>
<polygon fill="midnightblue" stroke="midnightblue" points="124.22,-89.5 134.22,-86 124.22,-82.5 124.22,-89.5"/>
</g>
</g>
</svg>
