<?xml version="1.0" encoding="UTF-8" standalone="no"?>
<!DOCTYPE svg PUBLIC "-//W3C//DTD SVG 1.1//EN"
 "http://www.w3.org/Graphics/SVG/1.1/DTD/svg11.dtd">
<!-- Generated by graphviz version 2.47.1 (20210417.1919)
 -->
<!-- Title: UI.ChineseSports.Main.PropertyLine Pages: 1 -->
<svg width="198pt" height="204pt"
 viewBox="0.00 0.00 198.00 204.00" xmlns="http://www.w3.org/2000/svg" xmlns:xlink="http://www.w3.org/1999/xlink">
<g id="graph0" class="graph" transform="scale(1 1) rotate(0) translate(4 200)">
<title>UI.ChineseSports.Main.PropertyLine</title>
<polygon fill="white" stroke="transparent" points="-4,4 -4,-200 194,-200 194,4 -4,4"/>
<!-- Node1 -->
<g id="node1" class="node">
<title>Node1</title>
<g id="a_node1"><a xlink:title=" ">
<polygon fill="#bfbfbf" stroke="black" points="0,-0.5 0,-79.5 174,-79.5 174,-0.5 0,-0.5"/>
<text text-anchor="middle" x="87" y="-67.5" font-family="Helvetica,sans-Serif" font-size="10.00">UI.ChineseSports.Main.PropertyLine</text>
<polyline fill="none" stroke="black" points="0,-60.5 174,-60.5 "/>
<text text-anchor="start" x="8" y="-48.5" font-family="Helvetica,sans-Serif" font-size="10.00">+ PropertyType propertyType</text>
<text text-anchor="start" x="8" y="-37.5" font-family="Helvetica,sans-Serif" font-size="10.00">+ IMilitaryUnit MilitaryUnit</text>
<polyline fill="none" stroke="black" points="0,-30.5 174,-30.5 "/>
<text text-anchor="start" x="8" y="-18.5" font-family="Helvetica,sans-Serif" font-size="10.00">+ void Set()</text>
<text text-anchor="start" x="8" y="-7.5" font-family="Helvetica,sans-Serif" font-size="10.00">+ void SetPropertyString()</text>
</a>
</g>
</g>
<!-- Node2 -->
<g id="node2" class="node">
<title>Node2</title>
<g id="a_node2"><a xlink:title=" ">
<polygon fill="white" stroke="#bfbfbf" points="7.5,-138.5 7.5,-195.5 90.5,-195.5 90.5,-138.5 7.5,-138.5"/>
<text text-anchor="middle" x="49" y="-183.5" font-family="Helvetica,sans-Serif" font-size="10.00">MonoBehaviour</text>
<polyline fill="none" stroke="#bfbfbf" points="7.5,-176.5 90.5,-176.5 "/>
<text text-anchor="middle" x="49" y="-164.5" font-family="Helvetica,sans-Serif" font-size="10.00"> </text>
<polyline fill="none" stroke="#bfbfbf" points="7.5,-157.5 90.5,-157.5 "/>
<text text-anchor="middle" x="49" y="-145.5" font-family="Helvetica,sans-Serif" font-size="10.00"> </text>
</a>
</g>
</g>
<!-- Node2&#45;&gt;Node1 -->
<g id="edge1" class="edge">
<title>Node2&#45;&gt;Node1</title>
<path fill="none" stroke="midnightblue" d="M60.4,-128.5C65.1,-113.04 70.54,-95.14 75.28,-79.57"/>
<polygon fill="none" stroke="midnightblue" points="56.99,-127.67 57.43,-138.26 63.69,-129.71 56.99,-127.67"/>
</g>
<!-- Node3 -->
<g id="node3" class="node">
<title>Node3</title>
<g id="a_node3"><a xlink:title=" ">
<polygon fill="white" stroke="#bfbfbf" points="108.5,-138.5 108.5,-195.5 143.5,-195.5 143.5,-138.5 108.5,-138.5"/>
<text text-anchor="middle" x="126" y="-183.5" font-family="Helvetica,sans-Serif" font-size="10.00">Text</text>
<polyline fill="none" stroke="#bfbfbf" points="108.5,-176.5 143.5,-176.5 "/>
<text text-anchor="middle" x="126" y="-164.5" font-family="Helvetica,sans-Serif" font-size="10.00"> </text>
<polyline fill="none" stroke="#bfbfbf" points="108.5,-157.5 143.5,-157.5 "/>
<text text-anchor="middle" x="126" y="-145.5" font-family="Helvetica,sans-Serif" font-size="10.00"> </text>
</a>
</g>
</g>
<!-- Node3&#45;&gt;Node1 -->
<g id="edge2" class="edge">
<title>Node3&#45;&gt;Node1</title>
<path fill="none" stroke="#404040" d="M117.34,-138.26C113.05,-124.5 107.73,-107.45 102.75,-91.49"/>
<polygon fill="none" stroke="#404040" points="102.61,-91.02 97,-86.49 99.03,-79.57 104.64,-84.1 102.61,-91.02"/>
<text text-anchor="middle" x="150.5" y="-112" font-family="Helvetica,sans-Serif" font-size="10.00"> +propertyContent</text>
<text text-anchor="middle" x="150.5" y="-101" font-family="Helvetica,sans-Serif" font-size="10.00">+propertyName</text>
</g>
</g>
</svg>
