<?xml version="1.0" encoding="UTF-8" standalone="no"?>
<!DOCTYPE svg PUBLIC "-//W3C//DTD SVG 1.1//EN"
 "http://www.w3.org/Graphics/SVG/1.1/DTD/svg11.dtd">
<!-- Generated by graphviz version 2.47.1 (20210417.1919)
 -->
<!-- Title: UI.ChineseSports.Battle.ResultUI.ShowButton Pages: 1 -->
<svg width="478pt" height="88pt"
 viewBox="0.00 0.00 478.00 88.00" xmlns="http://www.w3.org/2000/svg" xmlns:xlink="http://www.w3.org/1999/xlink">
<g id="graph0" class="graph" transform="scale(1 1) rotate(0) translate(4 84)">
<title>UI.ChineseSports.Battle.ResultUI.ShowButton</title>
<polygon fill="white" stroke="transparent" points="-4,4 -4,-84 474,-84 474,4 -4,4"/>
<!-- Node1 -->
<g id="node1" class="node">
<title>Node1</title>
<g id="a_node1"><a xlink:title=" ">
<polygon fill="#bfbfbf" stroke="black" points="346,-24.5 346,-54.5 470,-54.5 470,-24.5 346,-24.5"/>
<text text-anchor="start" x="354" y="-42.5" font-family="Helvetica,sans-Serif" font-size="10.00">UI.ChineseSports.Battle.</text>
<text text-anchor="middle" x="408" y="-31.5" font-family="Helvetica,sans-Serif" font-size="10.00">ResultUI.ShowButton</text>
</a>
</g>
</g>
<!-- Node2 -->
<g id="node2" class="node">
<title>Node2</title>
<g id="a_node2"><a xlink:href="class_u_i_1_1_chinese_sports_1_1_battle_1_1_result_u_i.html#aee0048338efe9f7d4867ec3a61e7aae4" target="_top" xlink:title=" ">
<polygon fill="white" stroke="black" points="186,-24.5 186,-54.5 310,-54.5 310,-24.5 186,-24.5"/>
<text text-anchor="start" x="194" y="-42.5" font-family="Helvetica,sans-Serif" font-size="10.00">UI.ChineseSports.Battle.</text>
<text text-anchor="middle" x="248" y="-31.5" font-family="Helvetica,sans-Serif" font-size="10.00">ResultUI.ShowResult</text>
</a>
</g>
</g>
<!-- Node1&#45;&gt;Node2 -->
<g id="edge1" class="edge">
<title>Node1&#45;&gt;Node2</title>
<path fill="none" stroke="midnightblue" d="M335.63,-39.5C327.14,-39.5 318.52,-39.5 310.18,-39.5"/>
<polygon fill="midnightblue" stroke="midnightblue" points="335.91,-43 345.91,-39.5 335.91,-36 335.91,-43"/>
</g>
<!-- Node3 -->
<g id="node3" class="node">
<title>Node3</title>
<g id="a_node3"><a xlink:href="class_game_manager_1_1_game_manager.html#ab3ed016f68bbe079df19a661cb292db3" target="_top" xlink:title="我方失败">
<polygon fill="white" stroke="black" points="0,-49.5 0,-79.5 150,-79.5 150,-49.5 0,-49.5"/>
<text text-anchor="start" x="8" y="-67.5" font-family="Helvetica,sans-Serif" font-size="10.00">GameManager.GameManager.</text>
<text text-anchor="middle" x="75" y="-56.5" font-family="Helvetica,sans-Serif" font-size="10.00">PlayerLose</text>
</a>
</g>
</g>
<!-- Node2&#45;&gt;Node3 -->
<g id="edge2" class="edge">
<title>Node2&#45;&gt;Node3</title>
<path fill="none" stroke="midnightblue" d="M175.64,-49.93C167.26,-51.16 158.69,-52.41 150.26,-53.64"/>
<polygon fill="midnightblue" stroke="midnightblue" points="176.36,-53.36 185.75,-48.45 175.35,-46.44 176.36,-53.36"/>
</g>
<!-- Node4 -->
<g id="node4" class="node">
<title>Node4</title>
<g id="a_node4"><a xlink:href="class_game_manager_1_1_game_manager.html#a64e64a516bea6f6aecaca4c3148b4e43" target="_top" xlink:title="我方胜利">
<polygon fill="white" stroke="black" points="0,-0.5 0,-30.5 150,-30.5 150,-0.5 0,-0.5"/>
<text text-anchor="start" x="8" y="-18.5" font-family="Helvetica,sans-Serif" font-size="10.00">GameManager.GameManager.</text>
<text text-anchor="middle" x="75" y="-7.5" font-family="Helvetica,sans-Serif" font-size="10.00">PlayerWin</text>
</a>
</g>
</g>
<!-- Node2&#45;&gt;Node4 -->
<g id="edge3" class="edge">
<title>Node2&#45;&gt;Node4</title>
<path fill="none" stroke="midnightblue" d="M175.64,-29.48C167.26,-28.31 158.69,-27.11 150.26,-25.92"/>
<polygon fill="midnightblue" stroke="midnightblue" points="175.36,-32.98 185.75,-30.9 176.33,-26.05 175.36,-32.98"/>
</g>
</g>
</svg>
