<?xml version="1.0" encoding="UTF-8" standalone="no"?>
<!DOCTYPE svg PUBLIC "-//W3C//DTD SVG 1.1//EN"
 "http://www.w3.org/Graphics/SVG/1.1/DTD/svg11.dtd">
<!-- Generated by graphviz version 2.47.1 (20210417.1919)
 -->
<!-- Title: Gameplay.EventSystem.GlobalEventArgs Pages: 1 -->
<svg width="202pt" height="347pt"
 viewBox="0.00 0.00 202.00 347.00" xmlns="http://www.w3.org/2000/svg" xmlns:xlink="http://www.w3.org/1999/xlink">
<g id="graph0" class="graph" transform="scale(1 1) rotate(0) translate(4 343)">
<title>Gameplay.EventSystem.GlobalEventArgs</title>
<polygon fill="white" stroke="transparent" points="-4,4 -4,-343 198,-343 198,4 -4,4"/>
<!-- Node1 -->
<g id="node1" class="node">
<title>Node1</title>
<g id="a_node1"><a xlink:title="全局事件传递">
<polygon fill="#bfbfbf" stroke="black" points="0,-0.5 0,-211.5 194,-211.5 194,-0.5 0,-0.5"/>
<text text-anchor="start" x="8" y="-199.5" font-family="Helvetica,sans-Serif" font-size="10.00">Gameplay.EventSystem.Global</text>
<text text-anchor="middle" x="97" y="-188.5" font-family="Helvetica,sans-Serif" font-size="10.00">EventArgs</text>
<polyline fill="none" stroke="black" points="0,-181.5 194,-181.5 "/>
<text text-anchor="start" x="8" y="-169.5" font-family="Helvetica,sans-Serif" font-size="10.00">+ float DelayTime</text>
<text text-anchor="start" x="8" y="-158.5" font-family="Helvetica,sans-Serif" font-size="10.00">+ GlobalEventHandler</text>
<text text-anchor="start" x="8" y="-147.5" font-family="Helvetica,sans-Serif" font-size="10.00"> FinishEventFunction</text>
<text text-anchor="start" x="8" y="-136.5" font-family="Helvetica,sans-Serif" font-size="10.00">+ GlobalEventHandler</text>
<text text-anchor="start" x="8" y="-125.5" font-family="Helvetica,sans-Serif" font-size="10.00"> InitEventFunction</text>
<text text-anchor="start" x="8" y="-114.5" font-family="Helvetica,sans-Serif" font-size="10.00">+ bool IsDelay</text>
<text text-anchor="start" x="8" y="-103.5" font-family="Helvetica,sans-Serif" font-size="10.00">+ bool IsTimeLimitation</text>
<text text-anchor="start" x="8" y="-92.5" font-family="Helvetica,sans-Serif" font-size="10.00">+ float LimitTime</text>
<text text-anchor="start" x="8" y="-81.5" font-family="Helvetica,sans-Serif" font-size="10.00">+ EventState State</text>
<polyline fill="none" stroke="black" points="0,-74.5 194,-74.5 "/>
<text text-anchor="start" x="8" y="-62.5" font-family="Helvetica,sans-Serif" font-size="10.00">+ GlobalEventArgs(bool</text>
<text text-anchor="start" x="8" y="-51.5" font-family="Helvetica,sans-Serif" font-size="10.00"> isDelay, float delayTime,</text>
<text text-anchor="start" x="8" y="-40.5" font-family="Helvetica,sans-Serif" font-size="10.00"> GlobalEventHandler initEventFunction,</text>
<text text-anchor="start" x="8" y="-29.5" font-family="Helvetica,sans-Serif" font-size="10.00"> bool isTimeLimitation, float limitTime,</text>
<text text-anchor="start" x="8" y="-18.5" font-family="Helvetica,sans-Serif" font-size="10.00"> GlobalEventHandler finishEventFunction,</text>
<text text-anchor="start" x="8" y="-7.5" font-family="Helvetica,sans-Serif" font-size="10.00"> EventTransferArgs args)</text>
</a>
</g>
</g>
<!-- Node2 -->
<g id="node2" class="node">
<title>Node2</title>
<g id="a_node2"><a xlink:href="class_gameplay_1_1_event_system_1_1_event_transfer_args.html" target="_top" xlink:title=" ">
<polygon fill="white" stroke="black" points="22.5,-259.5 22.5,-338.5 171.5,-338.5 171.5,-259.5 22.5,-259.5"/>
<text text-anchor="start" x="30.5" y="-326.5" font-family="Helvetica,sans-Serif" font-size="10.00">Gameplay.EventSystem.Event</text>
<text text-anchor="middle" x="97" y="-315.5" font-family="Helvetica,sans-Serif" font-size="10.00">TransferArgs</text>
<polyline fill="none" stroke="black" points="22.5,-308.5 171.5,-308.5 "/>
<text text-anchor="start" x="30.5" y="-296.5" font-family="Helvetica,sans-Serif" font-size="10.00">+ string Content</text>
<polyline fill="none" stroke="black" points="22.5,-289.5 171.5,-289.5 "/>
<text text-anchor="start" x="30.5" y="-277.5" font-family="Helvetica,sans-Serif" font-size="10.00">+ EventTransferArgs</text>
<text text-anchor="start" x="30.5" y="-266.5" font-family="Helvetica,sans-Serif" font-size="10.00">(string content)</text>
</a>
</g>
</g>
<!-- Node2&#45;&gt;Node1 -->
<g id="edge1" class="edge">
<title>Node2&#45;&gt;Node1</title>
<path fill="none" stroke="#404040" d="M97,-259.35C97,-248.69 97,-236.55 97,-223.88"/>
<polygon fill="none" stroke="#404040" points="97,-223.6 93,-217.6 97,-211.6 101,-217.6 97,-223.6"/>
<text text-anchor="middle" x="112" y="-233" font-family="Helvetica,sans-Serif" font-size="10.00"> +Args</text>
</g>
</g>
</svg>
