<?xml version="1.0" encoding="UTF-8" standalone="no"?>
<!DOCTYPE svg PUBLIC "-//W3C//DTD SVG 1.1//EN"
 "http://www.w3.org/Graphics/SVG/1.1/DTD/svg11.dtd">
<!-- Generated by graphviz version 2.47.1 (20210417.1919)
 -->
<!-- Title: UI.ChineseSports.Main.QuizUI.QuizShowUI.Next Pages: 1 -->
<svg width="679pt" height="39pt"
 viewBox="0.00 0.00 679.00 39.00" xmlns="http://www.w3.org/2000/svg" xmlns:xlink="http://www.w3.org/1999/xlink">
<g id="graph0" class="graph" transform="scale(1 1) rotate(0) translate(4 35)">
<title>UI.ChineseSports.Main.QuizUI.QuizShowUI.Next</title>
<polygon fill="white" stroke="transparent" points="-4,4 -4,-35 675,-35 675,4 -4,4"/>
<!-- Node1 -->
<g id="node1" class="node">
<title>Node1</title>
<g id="a_node1"><a xlink:title=" ">
<polygon fill="#bfbfbf" stroke="black" points="0,-0.5 0,-30.5 140,-30.5 140,-0.5 0,-0.5"/>
<text text-anchor="start" x="8" y="-18.5" font-family="Helvetica,sans-Serif" font-size="10.00">UI.ChineseSports.Main.Quiz</text>
<text text-anchor="middle" x="70" y="-7.5" font-family="Helvetica,sans-Serif" font-size="10.00">UI.QuizShowUI.Next</text>
</a>
</g>
</g>
<!-- Node2 -->
<g id="node2" class="node">
<title>Node2</title>
<g id="a_node2"><a xlink:href="class_u_i_1_1_chinese_sports_1_1_main_1_1_quiz_u_i_1_1_quiz_u_i_manager.html#ad649c2bef3795ea9720e30dc4f955728" target="_top" xlink:title=" ">
<polygon fill="white" stroke="black" points="176,-0.5 176,-30.5 316,-30.5 316,-0.5 176,-0.5"/>
<text text-anchor="start" x="184" y="-18.5" font-family="Helvetica,sans-Serif" font-size="10.00">UI.ChineseSports.Main.Quiz</text>
<text text-anchor="middle" x="246" y="-7.5" font-family="Helvetica,sans-Serif" font-size="10.00">UI.QuizUIManager.Next</text>
</a>
</g>
</g>
<!-- Node1&#45;&gt;Node2 -->
<g id="edge1" class="edge">
<title>Node1&#45;&gt;Node2</title>
<path fill="none" stroke="midnightblue" d="M140.02,-15.5C148.48,-15.5 157.17,-15.5 165.76,-15.5"/>
<polygon fill="midnightblue" stroke="midnightblue" points="165.78,-19 175.78,-15.5 165.78,-12 165.78,-19"/>
</g>
<!-- Node3 -->
<g id="node3" class="node">
<title>Node3</title>
<g id="a_node3"><a xlink:href="class_u_i_1_1_chinese_sports_1_1_main_1_1_quiz_u_i_1_1_quiz_u_i_manager.html#a27b6d68d4c890dfc4d4fbe197c14d4d2" target="_top" xlink:title=" ">
<polygon fill="white" stroke="black" points="352,-0.5 352,-30.5 495,-30.5 495,-0.5 352,-0.5"/>
<text text-anchor="start" x="360" y="-18.5" font-family="Helvetica,sans-Serif" font-size="10.00">UI.ChineseSports.Main.Quiz</text>
<text text-anchor="middle" x="423.5" y="-7.5" font-family="Helvetica,sans-Serif" font-size="10.00">UI.QuizUIManager.ShowQuiz</text>
</a>
</g>
</g>
<!-- Node2&#45;&gt;Node3 -->
<g id="edge2" class="edge">
<title>Node2&#45;&gt;Node3</title>
<path fill="none" stroke="midnightblue" d="M316.11,-15.5C324.43,-15.5 332.98,-15.5 341.45,-15.5"/>
<polygon fill="midnightblue" stroke="midnightblue" points="341.72,-19 351.72,-15.5 341.72,-12 341.72,-19"/>
</g>
<!-- Node4 -->
<g id="node4" class="node">
<title>Node4</title>
<g id="a_node4"><a xlink:href="class_u_i_1_1_chinese_sports_1_1_main_1_1_quiz_u_i_1_1_quiz_show_u_i.html#a87d85b76526899c507002ec3f0767804" target="_top" xlink:title=" ">
<polygon fill="white" stroke="black" points="531,-0.5 531,-30.5 671,-30.5 671,-0.5 531,-0.5"/>
<text text-anchor="start" x="539" y="-18.5" font-family="Helvetica,sans-Serif" font-size="10.00">UI.ChineseSports.Main.Quiz</text>
<text text-anchor="middle" x="601" y="-7.5" font-family="Helvetica,sans-Serif" font-size="10.00">UI.QuizShowUI.ShowQuiz</text>
</a>
</g>
</g>
<!-- Node3&#45;&gt;Node4 -->
<g id="edge3" class="edge">
<title>Node3&#45;&gt;Node4</title>
<path fill="none" stroke="midnightblue" d="M495.12,-15.5C503.61,-15.5 512.32,-15.5 520.92,-15.5"/>
<polygon fill="midnightblue" stroke="midnightblue" points="520.95,-19 530.95,-15.5 520.95,-12 520.95,-19"/>
</g>
</g>
</svg>
