<?xml version="1.0" encoding="UTF-8" standalone="no"?>
<!DOCTYPE svg PUBLIC "-//W3C//DTD SVG 1.1//EN"
 "http://www.w3.org/Graphics/SVG/1.1/DTD/svg11.dtd">
<!-- Generated by graphviz version 2.47.1 (20210417.1919)
 -->
<!-- Title: Player.PlayerAI.DispatchUnits Pages: 1 -->
<svg width="453pt" height="39pt"
 viewBox="0.00 0.00 453.00 39.00" xmlns="http://www.w3.org/2000/svg" xmlns:xlink="http://www.w3.org/1999/xlink">
<g id="graph0" class="graph" transform="scale(1 1) rotate(0) translate(4 35)">
<title>Player.PlayerAI.DispatchUnits</title>
<polygon fill="white" stroke="transparent" points="-4,4 -4,-35 449,-35 449,4 -4,4"/>
<!-- Node1 -->
<g id="node1" class="node">
<title>Node1</title>
<g id="a_node1"><a xlink:title="派遣单位">
<polygon fill="#bfbfbf" stroke="black" points="320,-0.5 320,-30.5 445,-30.5 445,-0.5 320,-0.5"/>
<text text-anchor="start" x="328" y="-18.5" font-family="Helvetica,sans-Serif" font-size="10.00">Player.PlayerAI.Dispatch</text>
<text text-anchor="middle" x="382.5" y="-7.5" font-family="Helvetica,sans-Serif" font-size="10.00">Units</text>
</a>
</g>
</g>
<!-- Node2 -->
<g id="node2" class="node">
<title>Node2</title>
<g id="a_node2"><a xlink:href="class_player_1_1_player_a_i.html#ab3a9572e4b157a2a9117c83c5e460a8c" target="_top" xlink:title="AI决策">
<polygon fill="white" stroke="black" points="154,-6 154,-25 284,-25 284,-6 154,-6"/>
<text text-anchor="middle" x="219" y="-13" font-family="Helvetica,sans-Serif" font-size="10.00">Player.PlayerAI.AIGaming</text>
</a>
</g>
</g>
<!-- Node1&#45;&gt;Node2 -->
<g id="edge1" class="edge">
<title>Node1&#45;&gt;Node2</title>
<path fill="none" stroke="midnightblue" d="M309.94,-15.5C301.31,-15.5 292.54,-15.5 284.03,-15.5"/>
<polygon fill="midnightblue" stroke="midnightblue" points="309.98,-19 319.98,-15.5 309.98,-12 309.98,-19"/>
</g>
<!-- Node3 -->
<g id="node3" class="node">
<title>Node3</title>
<g id="a_node3"><a xlink:href="class_player_1_1_player_a_i.html#a12510584dc41ca7b97c2f49a680bb455" target="_top" xlink:title=" ">
<polygon fill="white" stroke="black" points="0,-6 0,-25 118,-25 118,-6 0,-6"/>
<text text-anchor="middle" x="59" y="-13" font-family="Helvetica,sans-Serif" font-size="10.00">Player.PlayerAI.Update</text>
</a>
</g>
</g>
<!-- Node2&#45;&gt;Node3 -->
<g id="edge2" class="edge">
<title>Node2&#45;&gt;Node3</title>
<path fill="none" stroke="midnightblue" d="M143.7,-15.5C135.11,-15.5 126.44,-15.5 118.1,-15.5"/>
<polygon fill="midnightblue" stroke="midnightblue" points="143.74,-19 153.74,-15.5 143.74,-12 143.74,-19"/>
</g>
</g>
</svg>
