<?xml version="1.0" encoding="UTF-8" standalone="no"?>
<!DOCTYPE svg PUBLIC "-//W3C//DTD SVG 1.1//EN"
 "http://www.w3.org/Graphics/SVG/1.1/DTD/svg11.dtd">
<!-- Generated by graphviz version 2.47.1 (20210417.1919)
 -->
<!-- Title: Player.ResourceDroper Pages: 1 -->
<svg width="190pt" height="248pt"
 viewBox="0.00 0.00 190.00 248.00" xmlns="http://www.w3.org/2000/svg" xmlns:xlink="http://www.w3.org/1999/xlink">
<g id="graph0" class="graph" transform="scale(1 1) rotate(0) translate(4 244)">
<title>Player.ResourceDroper</title>
<polygon fill="white" stroke="transparent" points="-4,4 -4,-244 186,-244 186,4 -4,4"/>
<!-- Node1 -->
<g id="node1" class="node">
<title>Node1</title>
<g id="a_node1"><a xlink:title="资源掉落">
<polygon fill="#bfbfbf" stroke="black" points="0,-0.5 0,-145.5 182,-145.5 182,-0.5 0,-0.5"/>
<text text-anchor="middle" x="91" y="-133.5" font-family="Helvetica,sans-Serif" font-size="10.00">Player.ResourceDroper</text>
<polyline fill="none" stroke="black" points="0,-126.5 182,-126.5 "/>
<text text-anchor="start" x="8" y="-114.5" font-family="Helvetica,sans-Serif" font-size="10.00">+ float dropColdTime</text>
<text text-anchor="start" x="8" y="-103.5" font-family="Helvetica,sans-Serif" font-size="10.00">+ int dropValue</text>
<text text-anchor="start" x="8" y="-92.5" font-family="Helvetica,sans-Serif" font-size="10.00">+ int dropCountMax</text>
<text text-anchor="start" x="8" y="-81.5" font-family="Helvetica,sans-Serif" font-size="10.00">+ int dropCountMin</text>
<text text-anchor="start" x="8" y="-70.5" font-family="Helvetica,sans-Serif" font-size="10.00">+ GameResourceType gameResource</text>
<text text-anchor="start" x="8" y="-59.5" font-family="Helvetica,sans-Serif" font-size="10.00">TypeType</text>
<text text-anchor="start" x="8" y="-48.5" font-family="Helvetica,sans-Serif" font-size="10.00">+ GameObject dropPrefab</text>
<text text-anchor="start" x="8" y="-37.5" font-family="Helvetica,sans-Serif" font-size="10.00">+ GameObject dropArea</text>
<polyline fill="none" stroke="black" points="0,-30.5 182,-30.5 "/>
<text text-anchor="start" x="8" y="-18.5" font-family="Helvetica,sans-Serif" font-size="10.00">+ void DropResource()</text>
<text text-anchor="start" x="8" y="-7.5" font-family="Helvetica,sans-Serif" font-size="10.00">+ void CollectResource()</text>
</a>
</g>
</g>
<!-- Node2 -->
<g id="node2" class="node">
<title>Node2</title>
<g id="a_node2"><a xlink:title=" ">
<polygon fill="white" stroke="#bfbfbf" points="49.5,-182.5 49.5,-239.5 132.5,-239.5 132.5,-182.5 49.5,-182.5"/>
<text text-anchor="middle" x="91" y="-227.5" font-family="Helvetica,sans-Serif" font-size="10.00">MonoBehaviour</text>
<polyline fill="none" stroke="#bfbfbf" points="49.5,-220.5 132.5,-220.5 "/>
<text text-anchor="middle" x="91" y="-208.5" font-family="Helvetica,sans-Serif" font-size="10.00"> </text>
<polyline fill="none" stroke="#bfbfbf" points="49.5,-201.5 132.5,-201.5 "/>
<text text-anchor="middle" x="91" y="-189.5" font-family="Helvetica,sans-Serif" font-size="10.00"> </text>
</a>
</g>
</g>
<!-- Node2&#45;&gt;Node1 -->
<g id="edge1" class="edge">
<title>Node2&#45;&gt;Node1</title>
<path fill="none" stroke="midnightblue" d="M91,-172.36C91,-164 91,-154.87 91,-145.66"/>
<polygon fill="none" stroke="midnightblue" points="87.5,-172.48 91,-182.48 94.5,-172.48 87.5,-172.48"/>
</g>
</g>
</svg>
