<?xml version="1.0" encoding="UTF-8" standalone="no"?>
<!DOCTYPE svg PUBLIC "-//W3C//DTD SVG 1.1//EN"
 "http://www.w3.org/Graphics/SVG/1.1/DTD/svg11.dtd">
<!-- Generated by graphviz version 2.47.1 (20210417.1919)
 -->
<!-- Title: Player.PlayerAI.CountEnemy Pages: 1 -->
<svg width="471pt" height="28pt"
 viewBox="0.00 0.00 471.00 28.00" xmlns="http://www.w3.org/2000/svg" xmlns:xlink="http://www.w3.org/1999/xlink">
<g id="graph0" class="graph" transform="scale(1 1) rotate(0) translate(4 24)">
<title>Player.PlayerAI.CountEnemy</title>
<polygon fill="white" stroke="transparent" points="-4,4 -4,-24 467,-24 467,4 -4,4"/>
<!-- Node1 -->
<g id="node1" class="node">
<title>Node1</title>
<g id="a_node1"><a xlink:title="路危险权重决策">
<polygon fill="#bfbfbf" stroke="black" points="320,-0.5 320,-19.5 463,-19.5 463,-0.5 320,-0.5"/>
<text text-anchor="middle" x="391.5" y="-7.5" font-family="Helvetica,sans-Serif" font-size="10.00">Player.PlayerAI.CountEnemy</text>
</a>
</g>
</g>
<!-- Node2 -->
<g id="node2" class="node">
<title>Node2</title>
<g id="a_node2"><a xlink:href="class_player_1_1_player_a_i.html#ab3a9572e4b157a2a9117c83c5e460a8c" target="_top" xlink:title="AI决策">
<polygon fill="white" stroke="black" points="154,-0.5 154,-19.5 284,-19.5 284,-0.5 154,-0.5"/>
<text text-anchor="middle" x="219" y="-7.5" font-family="Helvetica,sans-Serif" font-size="10.00">Player.PlayerAI.AIGaming</text>
</a>
</g>
</g>
<!-- Node1&#45;&gt;Node2 -->
<g id="edge1" class="edge">
<title>Node1&#45;&gt;Node2</title>
<path fill="none" stroke="midnightblue" d="M309.65,-10C301.06,-10 292.42,-10 284.07,-10"/>
<polygon fill="midnightblue" stroke="midnightblue" points="309.67,-13.5 319.67,-10 309.67,-6.5 309.67,-13.5"/>
</g>
<!-- Node3 -->
<g id="node3" class="node">
<title>Node3</title>
<g id="a_node3"><a xlink:href="class_player_1_1_player_a_i.html#a12510584dc41ca7b97c2f49a680bb455" target="_top" xlink:title=" ">
<polygon fill="white" stroke="black" points="0,-0.5 0,-19.5 118,-19.5 118,-0.5 0,-0.5"/>
<text text-anchor="middle" x="59" y="-7.5" font-family="Helvetica,sans-Serif" font-size="10.00">Player.PlayerAI.Update</text>
</a>
</g>
</g>
<!-- Node2&#45;&gt;Node3 -->
<g id="edge2" class="edge">
<title>Node2&#45;&gt;Node3</title>
<path fill="none" stroke="midnightblue" d="M143.7,-10C135.11,-10 126.44,-10 118.1,-10"/>
<polygon fill="midnightblue" stroke="midnightblue" points="143.74,-13.5 153.74,-10 143.74,-6.5 143.74,-13.5"/>
</g>
</g>
</svg>
