<?xml version="1.0" encoding="UTF-8" standalone="no"?>
<!DOCTYPE svg PUBLIC "-//W3C//DTD SVG 1.1//EN"
 "http://www.w3.org/Graphics/SVG/1.1/DTD/svg11.dtd">
<!-- Generated by graphviz version 2.47.1 (20210417.1919)
 -->
<!-- Title: Network.NetworkPlayerManager Pages: 1 -->
<!--zoomable 1785 -->
<svg id="main" version="1.1" xmlns="http://www.w3.org/2000/svg" xmlns:xlink="http://www.w3.org/1999/xlink" xml:space="preserve" onload="init(evt)">
<style type="text/css"><![CDATA[
.edge:hover path { stroke: red; }
.edge:hover polygon { stroke: red; fill: red; }
]]></style>
<script type="text/javascript"><![CDATA[
var edges = document.getElementsByTagName('g');
if (edges && edges.length) {
  for (var i=0;i<edges.length;i++) {
    if (edges[i].id.substr(0,4)=='edge') {
      edges[i].setAttribute('class','edge');
    }
  }
}
]]></script>
        <defs>
                <circle id="rim" cx="0" cy="0" r="7"/>
                <circle id="rim2" cx="0" cy="0" r="3.5"/>
                <g id="zoomPlus">
                        <use xlink:href="#rim" fill="#404040">
                                <set attributeName="fill" to="#808080" begin="zoomplus.mouseover" end="zoomplus.mouseout"/>
                        </use>
                        <path d="M-4,0h8M0,-4v8" fill="none" stroke="white" stroke-width="1.5" pointer-events="none"/>
                </g>
                <g id="zoomMin">
                        <use xlink:href="#rim" fill="#404040">
                                <set attributeName="fill" to="#808080" begin="zoomminus.mouseover" end="zoomminus.mouseout"/>
                        </use>
                        <path d="M-4,0h8" fill="none" stroke="white" stroke-width="1.5" pointer-events="none"/>
                </g>
                <g id="dirArrow">
                        <path fill="none" stroke="white" stroke-width="1.5" d="M0,-3.0v7 M-2.5,-0.5L0,-3.0L2.5,-0.5"/>
                </g>
               <g id="resetDef">
                       <use xlink:href="#rim2" fill="#404040">
                               <set attributeName="fill" to="#808080" begin="reset.mouseover" end="reset.mouseout"/>
                       </use>
               </g>
        </defs>

<script type="text/javascript">
var viewWidth = 832;
var viewHeight = 1785;
var sectionId = 'dynsection-1';
</script>
<script xlink:href="svgpan.js"/>
<svg id="graph" class="graph">
<g id="viewport">
<title>Network.NetworkPlayerManager</title>
<polygon fill="white" stroke="transparent" points="-4,4 -4,-1781 828.21,-1781 828.21,4 -4,4"/>
<!-- Node1 -->
<g id="node1" class="node">
<title>Node1</title>
<g id="a_node1"><a xlink:title="网络玩家管理">
<polygon fill="#bfbfbf" stroke="black" points="74.85,-419 74.85,-652 264.85,-652 264.85,-419 74.85,-419"/>
<text text-anchor="middle" x="169.85" y="-640" font-family="Helvetica,sans-Serif" font-size="10.00">Network.NetworkPlayerManager</text>
<polyline fill="none" stroke="black" points="74.85,-633 264.85,-633 "/>
<text text-anchor="middle" x="169.85" y="-621" font-family="Helvetica,sans-Serif" font-size="10.00"> </text>
<polyline fill="none" stroke="black" points="74.85,-614 264.85,-614 "/>
<text text-anchor="start" x="82.85" y="-602" font-family="Helvetica,sans-Serif" font-size="10.00">+ override void OnPlayerProperties</text>
<text text-anchor="start" x="82.85" y="-591" font-family="Helvetica,sans-Serif" font-size="10.00">Update(Photon.Realtime.Player</text>
<text text-anchor="start" x="82.85" y="-580" font-family="Helvetica,sans-Serif" font-size="10.00"> targetPlayer, Hashtable changedProps)</text>
<text text-anchor="start" x="82.85" y="-569" font-family="Helvetica,sans-Serif" font-size="10.00">+ void SendAddFarmer</text>
<text text-anchor="start" x="82.85" y="-558" font-family="Helvetica,sans-Serif" font-size="10.00">(GameResourceType rs)</text>
<text text-anchor="start" x="82.85" y="-547" font-family="Helvetica,sans-Serif" font-size="10.00">+ void RPC_AddFarmer</text>
<text text-anchor="start" x="82.85" y="-536" font-family="Helvetica,sans-Serif" font-size="10.00">(GameResourceType rs)</text>
<text text-anchor="start" x="82.85" y="-525" font-family="Helvetica,sans-Serif" font-size="10.00">+ void SendSubtractFarmer</text>
<text text-anchor="start" x="82.85" y="-514" font-family="Helvetica,sans-Serif" font-size="10.00">(GameResourceType rs)</text>
<text text-anchor="start" x="82.85" y="-503" font-family="Helvetica,sans-Serif" font-size="10.00">+ void RPC_SubtractFarmer</text>
<text text-anchor="start" x="82.85" y="-492" font-family="Helvetica,sans-Serif" font-size="10.00">(GameResourceType rs)</text>
<text text-anchor="start" x="82.85" y="-481" font-family="Helvetica,sans-Serif" font-size="10.00">+ void SendInstantiateUnit</text>
<text text-anchor="start" x="82.85" y="-470" font-family="Helvetica,sans-Serif" font-size="10.00">(int chosenUnit, Road rd,</text>
<text text-anchor="start" x="82.85" y="-459" font-family="Helvetica,sans-Serif" font-size="10.00"> Vector3 oriPoint)</text>
<text text-anchor="start" x="82.85" y="-448" font-family="Helvetica,sans-Serif" font-size="10.00">+ void RPC_SendInstantiate</text>
<text text-anchor="start" x="82.85" y="-437" font-family="Helvetica,sans-Serif" font-size="10.00">Unit(int chosenUnit, Road</text>
<text text-anchor="start" x="82.85" y="-426" font-family="Helvetica,sans-Serif" font-size="10.00"> rd, Vector3 oriPoint)</text>
</a>
</g>
</g>
<!-- Node3 -->
<g id="node3" class="node">
<title>Node3</title>
<g id="a_node3"><a xlink:href="class_player_1_1_player_online___a_side.html" target="_top" xlink:title=" ">
<polygon fill="white" stroke="black" points="265.35,-0.5 265.35,-156.5 414.35,-156.5 414.35,-0.5 265.35,-0.5"/>
<text text-anchor="start" x="273.35" y="-144.5" font-family="Helvetica,sans-Serif" font-size="10.00">Player.PlayerOnline</text>
<text text-anchor="middle" x="339.85" y="-133.5" font-family="Helvetica,sans-Serif" font-size="10.00">_ASide</text>
<polyline fill="none" stroke="black" points="265.35,-126.5 414.35,-126.5 "/>
<text text-anchor="middle" x="339.85" y="-114.5" font-family="Helvetica,sans-Serif" font-size="10.00"> </text>
<polyline fill="none" stroke="black" points="265.35,-107.5 414.35,-107.5 "/>
<text text-anchor="start" x="273.35" y="-95.5" font-family="Helvetica,sans-Serif" font-size="10.00">+ override void UpdateLocal</text>
<text text-anchor="start" x="273.35" y="-84.5" font-family="Helvetica,sans-Serif" font-size="10.00">PlayerProperties()</text>
<text text-anchor="start" x="273.35" y="-73.5" font-family="Helvetica,sans-Serif" font-size="10.00">+ override void AddFarmer</text>
<text text-anchor="start" x="273.35" y="-62.5" font-family="Helvetica,sans-Serif" font-size="10.00">(GameResourceType rs)</text>
<text text-anchor="start" x="273.35" y="-51.5" font-family="Helvetica,sans-Serif" font-size="10.00">+ override void SubtractFarmer</text>
<text text-anchor="start" x="273.35" y="-40.5" font-family="Helvetica,sans-Serif" font-size="10.00">(GameResourceType rs)</text>
<text text-anchor="start" x="273.35" y="-29.5" font-family="Helvetica,sans-Serif" font-size="10.00">+ override void Instantiate</text>
<text text-anchor="start" x="273.35" y="-18.5" font-family="Helvetica,sans-Serif" font-size="10.00">Unit(int chosenUnit, Road</text>
<text text-anchor="start" x="273.35" y="-7.5" font-family="Helvetica,sans-Serif" font-size="10.00"> rd, Vector3 oriPoint)</text>
</a>
</g>
</g>
<!-- Node1&#45;&gt;Node3 -->
<g id="edge15" class="edge">
<title>Node1&#45;&gt;Node3</title>
<path fill="none" stroke="#404040" d="M225.76,-418.91C256.34,-352.08 292.96,-265.69 317.85,-186 319.58,-180.44 321.22,-174.66 322.76,-168.82"/>
<polygon fill="none" stroke="#404040" points="322.87,-168.39 320.44,-161.6 325.77,-156.75 328.2,-163.54 322.87,-168.39"/>
<text text-anchor="middle" x="374.35" y="-178" font-family="Helvetica,sans-Serif" font-size="10.00"> +networkPlayerManager</text>
</g>
<!-- Node11 -->
<g id="node11" class="node">
<title>Node11</title>
<g id="a_node11"><a xlink:href="class_player_1_1_player_online___b_side.html" target="_top" xlink:title=" ">
<polygon fill="white" stroke="black" points="19.85,-11.5 19.85,-145.5 207.85,-145.5 207.85,-11.5 19.85,-11.5"/>
<text text-anchor="start" x="27.85" y="-133.5" font-family="Helvetica,sans-Serif" font-size="10.00">Player.PlayerOnline</text>
<text text-anchor="middle" x="113.85" y="-122.5" font-family="Helvetica,sans-Serif" font-size="10.00">_BSide</text>
<polyline fill="none" stroke="black" points="19.85,-115.5 207.85,-115.5 "/>
<text text-anchor="start" x="27.85" y="-103.5" font-family="Helvetica,sans-Serif" font-size="10.00">+ int PlayerID</text>
<text text-anchor="start" x="27.85" y="-92.5" font-family="Helvetica,sans-Serif" font-size="10.00">+ Photon.Realtime.Player</text>
<text text-anchor="start" x="27.85" y="-81.5" font-family="Helvetica,sans-Serif" font-size="10.00"> PlayerPhoton</text>
<polyline fill="none" stroke="black" points="19.85,-74.5 207.85,-74.5 "/>
<text text-anchor="start" x="27.85" y="-62.5" font-family="Helvetica,sans-Serif" font-size="10.00">+ void UpdateRemotePlayerProperties()</text>
<text text-anchor="start" x="27.85" y="-51.5" font-family="Helvetica,sans-Serif" font-size="10.00">+ void UpdateSingleRemotePlayer</text>
<text text-anchor="start" x="27.85" y="-40.5" font-family="Helvetica,sans-Serif" font-size="10.00">Property(string propertyName,</text>
<text text-anchor="start" x="27.85" y="-29.5" font-family="Helvetica,sans-Serif" font-size="10.00"> object value)</text>
<text text-anchor="start" x="27.85" y="-18.5" font-family="Helvetica,sans-Serif" font-size="10.00"># override void Start()</text>
</a>
</g>
</g>
<!-- Node1&#45;&gt;Node11 -->
<g id="edge18" class="edge">
<title>Node1&#45;&gt;Node11</title>
<path fill="none" stroke="#404040" d="M97.8,-418.82C61.2,-353.2 20.58,-268.01 1.85,-186 -1.85,-169.85 2.76,-155.29 11.88,-142.5"/>
<polygon fill="none" stroke="#404040" points="12.03,-142.31 12.76,-135.14 19.67,-133.06 18.93,-140.23 12.03,-142.31"/>
<text text-anchor="middle" x="56.35" y="-178" font-family="Helvetica,sans-Serif" font-size="10.00"> +networkPlayerManager</text>
</g>
<!-- Node2 -->
<g id="node2" class="node">
<title>Node2</title>
<g id="a_node2"><a xlink:title=" ">
<polygon fill="white" stroke="#bfbfbf" points="98.35,-986 98.35,-1043 241.35,-1043 241.35,-986 98.35,-986"/>
<text text-anchor="middle" x="169.85" y="-1031" font-family="Helvetica,sans-Serif" font-size="10.00">MonoBehaviourPunCallbacks</text>
<polyline fill="none" stroke="#bfbfbf" points="98.35,-1024 241.35,-1024 "/>
<text text-anchor="middle" x="169.85" y="-1012" font-family="Helvetica,sans-Serif" font-size="10.00"> </text>
<polyline fill="none" stroke="#bfbfbf" points="98.35,-1005 241.35,-1005 "/>
<text text-anchor="middle" x="169.85" y="-993" font-family="Helvetica,sans-Serif" font-size="10.00"> </text>
</a>
</g>
</g>
<!-- Node2&#45;&gt;Node1 -->
<g id="edge1" class="edge">
<title>Node2&#45;&gt;Node1</title>
<path fill="none" stroke="midnightblue" d="M169.85,-975.38C169.85,-906.15 169.85,-757.19 169.85,-652.08"/>
<polygon fill="none" stroke="midnightblue" points="166.35,-975.79 169.85,-985.79 173.35,-975.79 166.35,-975.79"/>
</g>
<!-- Node3&#45;&gt;Node1 -->
<g id="edge2" class="edge">
<title>Node3&#45;&gt;Node1</title>
<path fill="none" stroke="#404040" d="M265.14,-130.16C250.74,-143.18 237.24,-158.3 227.85,-175 188.37,-245.19 173.82,-334.54 169.16,-406.6"/>
<polygon fill="none" stroke="#404040" points="169.14,-406.94 172.79,-413.17 168.45,-418.92 164.8,-412.7 169.14,-406.94"/>
<text text-anchor="middle" x="272.85" y="-178" font-family="Helvetica,sans-Serif" font-size="10.00"> +playerASideOnline</text>
</g>
<!-- Node4 -->
<g id="node4" class="node">
<title>Node4</title>
<g id="a_node4"><a xlink:href="class_player_1_1_player.html" target="_top" xlink:title="玩家">
<polygon fill="white" stroke="black" points="375.85,-204.5 375.85,-866.5 575.85,-866.5 575.85,-204.5 375.85,-204.5"/>
<text text-anchor="middle" x="475.85" y="-854.5" font-family="Helvetica,sans-Serif" font-size="10.00">Player</text>
<polyline fill="none" stroke="black" points="375.85,-847.5 575.85,-847.5 "/>
<text text-anchor="start" x="383.85" y="-835.5" font-family="Helvetica,sans-Serif" font-size="10.00">+ UnityEvent playerDeadEvent</text>
<text text-anchor="start" x="383.85" y="-824.5" font-family="Helvetica,sans-Serif" font-size="10.00">+ UnityAction updateEventHandler</text>
<text text-anchor="start" x="383.85" y="-813.5" font-family="Helvetica,sans-Serif" font-size="10.00">+ bool enableFarmer</text>
<text text-anchor="start" x="383.85" y="-802.5" font-family="Helvetica,sans-Serif" font-size="10.00">+ Transform[] resourceTransform</text>
<text text-anchor="start" x="383.85" y="-791.5" font-family="Helvetica,sans-Serif" font-size="10.00">+ int[] resourceProduct</text>
<text text-anchor="start" x="383.85" y="-780.5" font-family="Helvetica,sans-Serif" font-size="10.00">+ float resourceProducingTime</text>
<text text-anchor="start" x="383.85" y="-769.5" font-family="Helvetica,sans-Serif" font-size="10.00">+ bool isEnemy</text>
<text text-anchor="start" x="383.85" y="-758.5" font-family="Helvetica,sans-Serif" font-size="10.00">+ int[] availableUnits</text>
<text text-anchor="start" x="383.85" y="-747.5" font-family="Helvetica,sans-Serif" font-size="10.00">+ List&lt; Unit &gt; UnitsList</text>
<text text-anchor="start" x="383.85" y="-736.5" font-family="Helvetica,sans-Serif" font-size="10.00">+ int HP</text>
<text text-anchor="start" x="383.85" y="-725.5" font-family="Helvetica,sans-Serif" font-size="10.00">+ int Food</text>
<text text-anchor="start" x="383.85" y="-714.5" font-family="Helvetica,sans-Serif" font-size="10.00">+ int Wood</text>
<text text-anchor="start" x="383.85" y="-703.5" font-family="Helvetica,sans-Serif" font-size="10.00">+ int Gold</text>
<text text-anchor="start" x="383.85" y="-692.5" font-family="Helvetica,sans-Serif" font-size="10.00">+ Transform Top</text>
<text text-anchor="start" x="383.85" y="-681.5" font-family="Helvetica,sans-Serif" font-size="10.00">+ Transform Mid</text>
<text text-anchor="start" x="383.85" y="-670.5" font-family="Helvetica,sans-Serif" font-size="10.00">+ Transform Bot</text>
<text text-anchor="start" x="383.85" y="-659.5" font-family="Helvetica,sans-Serif" font-size="10.00">+ int MaxFarmerNumber</text>
<text text-anchor="start" x="383.85" y="-648.5" font-family="Helvetica,sans-Serif" font-size="10.00">+ int FarmerCount</text>
<text text-anchor="start" x="383.85" y="-637.5" font-family="Helvetica,sans-Serif" font-size="10.00">+ int DispatchableFarmer</text>
<text text-anchor="start" x="383.85" y="-626.5" font-family="Helvetica,sans-Serif" font-size="10.00">+ int[] RoadFarmers</text>
<text text-anchor="start" x="383.85" y="-615.5" font-family="Helvetica,sans-Serif" font-size="10.00">+ int[] RoadWorkingFarmers</text>
<polyline fill="none" stroke="black" points="375.85,-608.5 575.85,-608.5 "/>
<text text-anchor="start" x="383.85" y="-596.5" font-family="Helvetica,sans-Serif" font-size="10.00">+ virtual void UpdateLocal</text>
<text text-anchor="start" x="383.85" y="-585.5" font-family="Helvetica,sans-Serif" font-size="10.00">PlayerProperties()</text>
<text text-anchor="start" x="383.85" y="-574.5" font-family="Helvetica,sans-Serif" font-size="10.00">+ virtual void ChangeResource</text>
<text text-anchor="start" x="383.85" y="-563.5" font-family="Helvetica,sans-Serif" font-size="10.00">(GameResourceType gameResourceType,</text>
<text text-anchor="start" x="383.85" y="-552.5" font-family="Helvetica,sans-Serif" font-size="10.00"> int count)</text>
<text text-anchor="start" x="383.85" y="-541.5" font-family="Helvetica,sans-Serif" font-size="10.00">+ bool IsEnoughForUnit</text>
<text text-anchor="start" x="383.85" y="-530.5" font-family="Helvetica,sans-Serif" font-size="10.00">(Unit unit)</text>
<text text-anchor="start" x="383.85" y="-519.5" font-family="Helvetica,sans-Serif" font-size="10.00">+ bool IsEnoughForUnit</text>
<text text-anchor="start" x="383.85" y="-508.5" font-family="Helvetica,sans-Serif" font-size="10.00">(Unit unit, GameResourceType</text>
<text text-anchor="start" x="383.85" y="-497.5" font-family="Helvetica,sans-Serif" font-size="10.00"> gameResourceType)</text>
<text text-anchor="start" x="383.85" y="-486.5" font-family="Helvetica,sans-Serif" font-size="10.00">+ virtual void AddFarmer</text>
<text text-anchor="start" x="383.85" y="-475.5" font-family="Helvetica,sans-Serif" font-size="10.00">(GameResourceType rs)</text>
<text text-anchor="start" x="383.85" y="-464.5" font-family="Helvetica,sans-Serif" font-size="10.00">+ virtual void SubtractFarmer</text>
<text text-anchor="start" x="383.85" y="-453.5" font-family="Helvetica,sans-Serif" font-size="10.00">(GameResourceType rs)</text>
<text text-anchor="start" x="383.85" y="-442.5" font-family="Helvetica,sans-Serif" font-size="10.00">+ void InstantiateFarmer</text>
<text text-anchor="start" x="383.85" y="-431.5" font-family="Helvetica,sans-Serif" font-size="10.00">(Road rd, Transform transform,</text>
<text text-anchor="start" x="383.85" y="-420.5" font-family="Helvetica,sans-Serif" font-size="10.00"> int resourceCarried)</text>
<text text-anchor="start" x="383.85" y="-409.5" font-family="Helvetica,sans-Serif" font-size="10.00">+ void FarmerBack(Farmer</text>
<text text-anchor="start" x="383.85" y="-398.5" font-family="Helvetica,sans-Serif" font-size="10.00"> farmer, Transform tr)</text>
<text text-anchor="start" x="383.85" y="-387.5" font-family="Helvetica,sans-Serif" font-size="10.00">+ int CountUnits(UnitType</text>
<text text-anchor="start" x="383.85" y="-376.5" font-family="Helvetica,sans-Serif" font-size="10.00"> type)</text>
<text text-anchor="start" x="383.85" y="-365.5" font-family="Helvetica,sans-Serif" font-size="10.00">+ void SetUnits(Vector3</text>
<text text-anchor="start" x="383.85" y="-354.5" font-family="Helvetica,sans-Serif" font-size="10.00"> tr, int chosenUnit,</text>
<text text-anchor="start" x="383.85" y="-343.5" font-family="Helvetica,sans-Serif" font-size="10.00"> Road rd, int number)</text>
<text text-anchor="start" x="383.85" y="-332.5" font-family="Helvetica,sans-Serif" font-size="10.00">+ void SetUnits(Vector3</text>
<text text-anchor="start" x="383.85" y="-321.5" font-family="Helvetica,sans-Serif" font-size="10.00"> tr, int chosenUnit,</text>
<text text-anchor="start" x="383.85" y="-310.5" font-family="Helvetica,sans-Serif" font-size="10.00"> Road rd, int number,</text>
<text text-anchor="start" x="383.85" y="-299.5" font-family="Helvetica,sans-Serif" font-size="10.00"> Vector3 oriVelocity)</text>
<text text-anchor="start" x="383.85" y="-288.5" font-family="Helvetica,sans-Serif" font-size="10.00">+ virtual void Instantiate</text>
<text text-anchor="start" x="383.85" y="-277.5" font-family="Helvetica,sans-Serif" font-size="10.00">Unit(int chosenUnit, Road</text>
<text text-anchor="start" x="383.85" y="-266.5" font-family="Helvetica,sans-Serif" font-size="10.00"> rd, Vector3 oriPoint)</text>
<text text-anchor="start" x="383.85" y="-255.5" font-family="Helvetica,sans-Serif" font-size="10.00">+ virtual void Instantiate</text>
<text text-anchor="start" x="383.85" y="-244.5" font-family="Helvetica,sans-Serif" font-size="10.00">Unit(int chosenUnit, Road</text>
<text text-anchor="start" x="383.85" y="-233.5" font-family="Helvetica,sans-Serif" font-size="10.00"> rd, Vector3 oriPoint, Vector3</text>
<text text-anchor="start" x="383.85" y="-222.5" font-family="Helvetica,sans-Serif" font-size="10.00"> oriVelocity)</text>
<text text-anchor="start" x="383.85" y="-211.5" font-family="Helvetica,sans-Serif" font-size="10.00"># virtual void Start()</text>
</a>
</g>
</g>
<!-- Node4&#45;&gt;Node3 -->
<g id="edge3" class="edge">
<title>Node4&#45;&gt;Node3</title>
<path fill="none" stroke="midnightblue" d="M483.85,-194.41C481.12,-187.8 478.13,-181.33 474.85,-175 461.61,-149.52 438.12,-129.38 414.4,-114.28"/>
<polygon fill="none" stroke="midnightblue" points="480.76,-196.12 487.64,-204.17 487.28,-193.58 480.76,-196.12"/>
</g>
<!-- Node4&#45;&gt;Node11 -->
<g id="edge17" class="edge">
<title>Node4&#45;&gt;Node11</title>
<path fill="none" stroke="midnightblue" d="M451.21,-196.21C445.7,-188.73 439.6,-181.63 432.85,-175 404.64,-147.29 293.61,-168.7 255.85,-157 239.88,-152.05 223.67,-145.22 208.18,-137.64"/>
<polygon fill="none" stroke="midnightblue" points="448.38,-198.26 456.96,-204.47 454.13,-194.27 448.38,-198.26"/>
</g>
<!-- Node5 -->
<g id="node5" class="node">
<title>Node5</title>
<g id="a_node5"><a xlink:title=" ">
<polygon fill="white" stroke="#bfbfbf" points="493.35,-1659 493.35,-1716 576.35,-1716 576.35,-1659 493.35,-1659"/>
<text text-anchor="middle" x="534.85" y="-1704" font-family="Helvetica,sans-Serif" font-size="10.00">MonoBehaviour</text>
<polyline fill="none" stroke="#bfbfbf" points="493.35,-1697 576.35,-1697 "/>
<text text-anchor="middle" x="534.85" y="-1685" font-family="Helvetica,sans-Serif" font-size="10.00"> </text>
<polyline fill="none" stroke="#bfbfbf" points="493.35,-1678 576.35,-1678 "/>
<text text-anchor="middle" x="534.85" y="-1666" font-family="Helvetica,sans-Serif" font-size="10.00"> </text>
</a>
</g>
</g>
<!-- Node5&#45;&gt;Node4 -->
<g id="edge4" class="edge">
<title>Node5&#45;&gt;Node4</title>
<path fill="none" stroke="midnightblue" d="M502.88,-1650.83C481.83,-1625.05 455.83,-1588.32 442.85,-1551 349.69,-1283.28 386.71,-1196.44 410.85,-914 412.18,-898.43 413.81,-882.54 415.68,-866.51"/>
<polygon fill="none" stroke="midnightblue" points="500.43,-1653.36 509.52,-1658.8 505.81,-1648.88 500.43,-1653.36"/>
</g>
<!-- Node7 -->
<g id="node7" class="node">
<title>Node7</title>
<g id="a_node7"><a xlink:href="class_units_1_1_unit.html" target="_top" xlink:title="单位">
<polygon fill="white" stroke="black" points="451.85,-1152.5 451.85,-1550.5 617.85,-1550.5 617.85,-1152.5 451.85,-1152.5"/>
<text text-anchor="middle" x="534.85" y="-1538.5" font-family="Helvetica,sans-Serif" font-size="10.00">Unit</text>
<polyline fill="none" stroke="black" points="451.85,-1531.5 617.85,-1531.5 "/>
<text text-anchor="start" x="459.85" y="-1519.5" font-family="Helvetica,sans-Serif" font-size="10.00">+ int defence</text>
<text text-anchor="start" x="459.85" y="-1508.5" font-family="Helvetica,sans-Serif" font-size="10.00">+ bool isUnmovable</text>
<text text-anchor="start" x="459.85" y="-1497.5" font-family="Helvetica,sans-Serif" font-size="10.00">+ int playerOwnMax</text>
<text text-anchor="start" x="459.85" y="-1486.5" font-family="Helvetica,sans-Serif" font-size="10.00">+ Rigidbody unitRigidbody</text>
<text text-anchor="start" x="459.85" y="-1475.5" font-family="Helvetica,sans-Serif" font-size="10.00">+ Road road</text>
<text text-anchor="start" x="459.85" y="-1464.5" font-family="Helvetica,sans-Serif" font-size="10.00">+ UnitType unitType</text>
<text text-anchor="start" x="459.85" y="-1453.5" font-family="Helvetica,sans-Serif" font-size="10.00">+ int costFood</text>
<text text-anchor="start" x="459.85" y="-1442.5" font-family="Helvetica,sans-Serif" font-size="10.00">+ int costWood</text>
<text text-anchor="start" x="459.85" y="-1431.5" font-family="Helvetica,sans-Serif" font-size="10.00">+ int costGold</text>
<text text-anchor="start" x="459.85" y="-1420.5" font-family="Helvetica,sans-Serif" font-size="10.00">+ bool isDieImmediately</text>
<text text-anchor="start" x="459.85" y="-1409.5" font-family="Helvetica,sans-Serif" font-size="10.00">+ int deathReward</text>
<text text-anchor="start" x="459.85" y="-1398.5" font-family="Helvetica,sans-Serif" font-size="10.00">+ UnityEvent&lt; GameObject,</text>
<text text-anchor="start" x="459.85" y="-1387.5" font-family="Helvetica,sans-Serif" font-size="10.00"> Transform &gt; navStopEventHandler</text>
<text text-anchor="start" x="459.85" y="-1376.5" font-family="Helvetica,sans-Serif" font-size="10.00">+ UnityEvent&lt; Player.Player,</text>
<text text-anchor="start" x="459.85" y="-1365.5" font-family="Helvetica,sans-Serif" font-size="10.00"> IMilitaryUnit &gt; UnitDeathEvent</text>
<text text-anchor="start" x="459.85" y="-1354.5" font-family="Helvetica,sans-Serif" font-size="10.00">Handler</text>
<text text-anchor="start" x="459.85" y="-1343.5" font-family="Helvetica,sans-Serif" font-size="10.00">+ int??? HP</text>
<text text-anchor="start" x="459.85" y="-1332.5" font-family="Helvetica,sans-Serif" font-size="10.00">+ float Speed</text>
<text text-anchor="start" x="459.85" y="-1321.5" font-family="Helvetica,sans-Serif" font-size="10.00">+ Transform InitTarget</text>
<text text-anchor="start" x="459.85" y="-1310.5" font-family="Helvetica,sans-Serif" font-size="10.00">+ bool IsAtEnemyDoor</text>
<text text-anchor="start" x="459.85" y="-1299.5" font-family="Helvetica,sans-Serif" font-size="10.00"># bool Death</text>
<text text-anchor="start" x="459.85" y="-1288.5" font-family="Helvetica,sans-Serif" font-size="10.00"># UnityEvent StartEventHandler</text>
<text text-anchor="start" x="459.85" y="-1277.5" font-family="Helvetica,sans-Serif" font-size="10.00"># UnityEvent&lt; IMilitaryUnit</text>
<text text-anchor="start" x="459.85" y="-1266.5" font-family="Helvetica,sans-Serif" font-size="10.00"> &gt; BeAttackedEventHandler</text>
<polyline fill="none" stroke="black" points="451.85,-1259.5 617.85,-1259.5 "/>
<text text-anchor="start" x="459.85" y="-1247.5" font-family="Helvetica,sans-Serif" font-size="10.00">+ virtual void Start()</text>
<text text-anchor="start" x="459.85" y="-1236.5" font-family="Helvetica,sans-Serif" font-size="10.00">+ virtual void Update()</text>
<text text-anchor="start" x="459.85" y="-1225.5" font-family="Helvetica,sans-Serif" font-size="10.00">+ virtual void BeAttacked</text>
<text text-anchor="start" x="459.85" y="-1214.5" font-family="Helvetica,sans-Serif" font-size="10.00">(IMilitaryUnit attacker)</text>
<text text-anchor="start" x="459.85" y="-1203.5" font-family="Helvetica,sans-Serif" font-size="10.00"># virtual void Awake()</text>
<text text-anchor="start" x="459.85" y="-1192.5" font-family="Helvetica,sans-Serif" font-size="10.00"># void Goto(Transform tr)</text>
<text text-anchor="start" x="459.85" y="-1181.5" font-family="Helvetica,sans-Serif" font-size="10.00"># static float GetTwoPoint</text>
<text text-anchor="start" x="459.85" y="-1170.5" font-family="Helvetica,sans-Serif" font-size="10.00">DistanceOnNav(Vector3</text>
<text text-anchor="start" x="459.85" y="-1159.5" font-family="Helvetica,sans-Serif" font-size="10.00"> oriPoint, Vector3 targetPoint)</text>
</a>
</g>
</g>
<!-- Node5&#45;&gt;Node7 -->
<g id="edge7" class="edge">
<title>Node5&#45;&gt;Node7</title>
<path fill="none" stroke="midnightblue" d="M534.85,-1648.72C534.85,-1623.53 534.85,-1588.24 534.85,-1550.78"/>
<polygon fill="none" stroke="midnightblue" points="531.35,-1648.88 534.85,-1658.88 538.35,-1648.88 531.35,-1648.88"/>
</g>
<!-- Node8 -->
<g id="node8" class="node">
<title>Node8</title>
<g id="a_node8"><a xlink:href="class_player_1_1_player.html" target="_top" xlink:title="玩家">
<polygon fill="white" stroke="black" points="618.85,-204.5 618.85,-866.5 818.85,-866.5 818.85,-204.5 618.85,-204.5"/>
<text text-anchor="middle" x="718.85" y="-854.5" font-family="Helvetica,sans-Serif" font-size="10.00">Player.Player</text>
<polyline fill="none" stroke="black" points="618.85,-847.5 818.85,-847.5 "/>
<text text-anchor="start" x="626.85" y="-835.5" font-family="Helvetica,sans-Serif" font-size="10.00">+ UnityEvent playerDeadEvent</text>
<text text-anchor="start" x="626.85" y="-824.5" font-family="Helvetica,sans-Serif" font-size="10.00">+ UnityAction updateEventHandler</text>
<text text-anchor="start" x="626.85" y="-813.5" font-family="Helvetica,sans-Serif" font-size="10.00">+ bool enableFarmer</text>
<text text-anchor="start" x="626.85" y="-802.5" font-family="Helvetica,sans-Serif" font-size="10.00">+ Transform[] resourceTransform</text>
<text text-anchor="start" x="626.85" y="-791.5" font-family="Helvetica,sans-Serif" font-size="10.00">+ int[] resourceProduct</text>
<text text-anchor="start" x="626.85" y="-780.5" font-family="Helvetica,sans-Serif" font-size="10.00">+ float resourceProducingTime</text>
<text text-anchor="start" x="626.85" y="-769.5" font-family="Helvetica,sans-Serif" font-size="10.00">+ bool isEnemy</text>
<text text-anchor="start" x="626.85" y="-758.5" font-family="Helvetica,sans-Serif" font-size="10.00">+ int[] availableUnits</text>
<text text-anchor="start" x="626.85" y="-747.5" font-family="Helvetica,sans-Serif" font-size="10.00">+ List&lt; Unit &gt; UnitsList</text>
<text text-anchor="start" x="626.85" y="-736.5" font-family="Helvetica,sans-Serif" font-size="10.00">+ int HP</text>
<text text-anchor="start" x="626.85" y="-725.5" font-family="Helvetica,sans-Serif" font-size="10.00">+ int Food</text>
<text text-anchor="start" x="626.85" y="-714.5" font-family="Helvetica,sans-Serif" font-size="10.00">+ int Wood</text>
<text text-anchor="start" x="626.85" y="-703.5" font-family="Helvetica,sans-Serif" font-size="10.00">+ int Gold</text>
<text text-anchor="start" x="626.85" y="-692.5" font-family="Helvetica,sans-Serif" font-size="10.00">+ Transform Top</text>
<text text-anchor="start" x="626.85" y="-681.5" font-family="Helvetica,sans-Serif" font-size="10.00">+ Transform Mid</text>
<text text-anchor="start" x="626.85" y="-670.5" font-family="Helvetica,sans-Serif" font-size="10.00">+ Transform Bot</text>
<text text-anchor="start" x="626.85" y="-659.5" font-family="Helvetica,sans-Serif" font-size="10.00">+ int MaxFarmerNumber</text>
<text text-anchor="start" x="626.85" y="-648.5" font-family="Helvetica,sans-Serif" font-size="10.00">+ int FarmerCount</text>
<text text-anchor="start" x="626.85" y="-637.5" font-family="Helvetica,sans-Serif" font-size="10.00">+ int DispatchableFarmer</text>
<text text-anchor="start" x="626.85" y="-626.5" font-family="Helvetica,sans-Serif" font-size="10.00">+ int[] RoadFarmers</text>
<text text-anchor="start" x="626.85" y="-615.5" font-family="Helvetica,sans-Serif" font-size="10.00">+ int[] RoadWorkingFarmers</text>
<polyline fill="none" stroke="black" points="618.85,-608.5 818.85,-608.5 "/>
<text text-anchor="start" x="626.85" y="-596.5" font-family="Helvetica,sans-Serif" font-size="10.00">+ virtual void UpdateLocal</text>
<text text-anchor="start" x="626.85" y="-585.5" font-family="Helvetica,sans-Serif" font-size="10.00">PlayerProperties()</text>
<text text-anchor="start" x="626.85" y="-574.5" font-family="Helvetica,sans-Serif" font-size="10.00">+ virtual void ChangeResource</text>
<text text-anchor="start" x="626.85" y="-563.5" font-family="Helvetica,sans-Serif" font-size="10.00">(GameResourceType gameResourceType,</text>
<text text-anchor="start" x="626.85" y="-552.5" font-family="Helvetica,sans-Serif" font-size="10.00"> int count)</text>
<text text-anchor="start" x="626.85" y="-541.5" font-family="Helvetica,sans-Serif" font-size="10.00">+ bool IsEnoughForUnit</text>
<text text-anchor="start" x="626.85" y="-530.5" font-family="Helvetica,sans-Serif" font-size="10.00">(Unit unit)</text>
<text text-anchor="start" x="626.85" y="-519.5" font-family="Helvetica,sans-Serif" font-size="10.00">+ bool IsEnoughForUnit</text>
<text text-anchor="start" x="626.85" y="-508.5" font-family="Helvetica,sans-Serif" font-size="10.00">(Unit unit, GameResourceType</text>
<text text-anchor="start" x="626.85" y="-497.5" font-family="Helvetica,sans-Serif" font-size="10.00"> gameResourceType)</text>
<text text-anchor="start" x="626.85" y="-486.5" font-family="Helvetica,sans-Serif" font-size="10.00">+ virtual void AddFarmer</text>
<text text-anchor="start" x="626.85" y="-475.5" font-family="Helvetica,sans-Serif" font-size="10.00">(GameResourceType rs)</text>
<text text-anchor="start" x="626.85" y="-464.5" font-family="Helvetica,sans-Serif" font-size="10.00">+ virtual void SubtractFarmer</text>
<text text-anchor="start" x="626.85" y="-453.5" font-family="Helvetica,sans-Serif" font-size="10.00">(GameResourceType rs)</text>
<text text-anchor="start" x="626.85" y="-442.5" font-family="Helvetica,sans-Serif" font-size="10.00">+ void InstantiateFarmer</text>
<text text-anchor="start" x="626.85" y="-431.5" font-family="Helvetica,sans-Serif" font-size="10.00">(Road rd, Transform transform,</text>
<text text-anchor="start" x="626.85" y="-420.5" font-family="Helvetica,sans-Serif" font-size="10.00"> int resourceCarried)</text>
<text text-anchor="start" x="626.85" y="-409.5" font-family="Helvetica,sans-Serif" font-size="10.00">+ void FarmerBack(Farmer</text>
<text text-anchor="start" x="626.85" y="-398.5" font-family="Helvetica,sans-Serif" font-size="10.00"> farmer, Transform tr)</text>
<text text-anchor="start" x="626.85" y="-387.5" font-family="Helvetica,sans-Serif" font-size="10.00">+ int CountUnits(UnitType</text>
<text text-anchor="start" x="626.85" y="-376.5" font-family="Helvetica,sans-Serif" font-size="10.00"> type)</text>
<text text-anchor="start" x="626.85" y="-365.5" font-family="Helvetica,sans-Serif" font-size="10.00">+ void SetUnits(Vector3</text>
<text text-anchor="start" x="626.85" y="-354.5" font-family="Helvetica,sans-Serif" font-size="10.00"> tr, int chosenUnit,</text>
<text text-anchor="start" x="626.85" y="-343.5" font-family="Helvetica,sans-Serif" font-size="10.00"> Road rd, int number)</text>
<text text-anchor="start" x="626.85" y="-332.5" font-family="Helvetica,sans-Serif" font-size="10.00">+ void SetUnits(Vector3</text>
<text text-anchor="start" x="626.85" y="-321.5" font-family="Helvetica,sans-Serif" font-size="10.00"> tr, int chosenUnit,</text>
<text text-anchor="start" x="626.85" y="-310.5" font-family="Helvetica,sans-Serif" font-size="10.00"> Road rd, int number,</text>
<text text-anchor="start" x="626.85" y="-299.5" font-family="Helvetica,sans-Serif" font-size="10.00"> Vector3 oriVelocity)</text>
<text text-anchor="start" x="626.85" y="-288.5" font-family="Helvetica,sans-Serif" font-size="10.00">+ virtual void Instantiate</text>
<text text-anchor="start" x="626.85" y="-277.5" font-family="Helvetica,sans-Serif" font-size="10.00">Unit(int chosenUnit, Road</text>
<text text-anchor="start" x="626.85" y="-266.5" font-family="Helvetica,sans-Serif" font-size="10.00"> rd, Vector3 oriPoint)</text>
<text text-anchor="start" x="626.85" y="-255.5" font-family="Helvetica,sans-Serif" font-size="10.00">+ virtual void Instantiate</text>
<text text-anchor="start" x="626.85" y="-244.5" font-family="Helvetica,sans-Serif" font-size="10.00">Unit(int chosenUnit, Road</text>
<text text-anchor="start" x="626.85" y="-233.5" font-family="Helvetica,sans-Serif" font-size="10.00"> rd, Vector3 oriPoint, Vector3</text>
<text text-anchor="start" x="626.85" y="-222.5" font-family="Helvetica,sans-Serif" font-size="10.00"> oriVelocity)</text>
<text text-anchor="start" x="626.85" y="-211.5" font-family="Helvetica,sans-Serif" font-size="10.00"># virtual void Start()</text>
</a>
</g>
</g>
<!-- Node5&#45;&gt;Node8 -->
<g id="edge9" class="edge">
<title>Node5&#45;&gt;Node8</title>
<path fill="none" stroke="midnightblue" d="M561.95,-1650.72C581.43,-1624.07 607.54,-1586.35 626.85,-1551 727.82,-1366.1 770.66,-1321.41 812.85,-1115 829.22,-1034.87 826.05,-948.04 813.99,-866.6"/>
<polygon fill="none" stroke="midnightblue" points="558.99,-1648.83 555.88,-1658.96 564.63,-1652.98 558.99,-1648.83"/>
</g>
<!-- Node6 -->
<g id="node6" class="node">
<title>Node6</title>
<g id="a_node6"><a xlink:href="class_units_1_1_farmer.html" target="_top" xlink:title="农民">
<polygon fill="white" stroke="black" points="556.35,-914.5 556.35,-1114.5 707.35,-1114.5 707.35,-914.5 556.35,-914.5"/>
<text text-anchor="middle" x="631.85" y="-1102.5" font-family="Helvetica,sans-Serif" font-size="10.00">Units.Farmer</text>
<polyline fill="none" stroke="black" points="556.35,-1095.5 707.35,-1095.5 "/>
<text text-anchor="start" x="564.35" y="-1083.5" font-family="Helvetica,sans-Serif" font-size="10.00">+ float workTime</text>
<text text-anchor="start" x="564.35" y="-1072.5" font-family="Helvetica,sans-Serif" font-size="10.00">+ int[] maxLoad</text>
<text text-anchor="start" x="564.35" y="-1061.5" font-family="Helvetica,sans-Serif" font-size="10.00">+ UnityAction&lt; Farmer,</text>
<text text-anchor="start" x="564.35" y="-1050.5" font-family="Helvetica,sans-Serif" font-size="10.00"> Transform &gt; farmerBackEvent</text>
<text text-anchor="start" x="564.35" y="-1039.5" font-family="Helvetica,sans-Serif" font-size="10.00">Handler</text>
<text text-anchor="start" x="564.35" y="-1028.5" font-family="Helvetica,sans-Serif" font-size="10.00">+ int ResouceCarried</text>
<text text-anchor="start" x="564.35" y="-1017.5" font-family="Helvetica,sans-Serif" font-size="10.00"># Transform _home</text>
<text text-anchor="start" x="564.35" y="-1006.5" font-family="Helvetica,sans-Serif" font-size="10.00"># Transform _targerResource</text>
<polyline fill="none" stroke="black" points="556.35,-999.5 707.35,-999.5 "/>
<text text-anchor="start" x="564.35" y="-987.5" font-family="Helvetica,sans-Serif" font-size="10.00">+ override void Start()</text>
<text text-anchor="start" x="564.35" y="-976.5" font-family="Helvetica,sans-Serif" font-size="10.00"># void OnNavStop(GameObject</text>
<text text-anchor="start" x="564.35" y="-965.5" font-family="Helvetica,sans-Serif" font-size="10.00"> gm, Transform tr)</text>
<text text-anchor="start" x="564.35" y="-954.5" font-family="Helvetica,sans-Serif" font-size="10.00"># void GenerateWorkPath()</text>
<text text-anchor="start" x="564.35" y="-943.5" font-family="Helvetica,sans-Serif" font-size="10.00"># virtual void Work()</text>
<text text-anchor="start" x="564.35" y="-932.5" font-family="Helvetica,sans-Serif" font-size="10.00"># void Drop(Farmer farmer,</text>
<text text-anchor="start" x="564.35" y="-921.5" font-family="Helvetica,sans-Serif" font-size="10.00"> Transform tr)</text>
</a>
</g>
</g>
<!-- Node6&#45;&gt;Node4 -->
<g id="edge5" class="edge">
<title>Node6&#45;&gt;Node4</title>
<path fill="none" stroke="#404040" d="M593.33,-914.31C591.09,-908.13 588.91,-901.99 586.85,-896 584.52,-889.28 582.2,-882.47 579.87,-875.61"/>
<polygon fill="none" stroke="#404040" points="579.79,-875.38 574.09,-870.97 575.96,-864.01 581.67,-868.42 579.79,-875.38"/>
<text text-anchor="middle" x="618.85" y="-888" font-family="Helvetica,sans-Serif" font-size="10.00"> +farmerPrefab</text>
</g>
<!-- Node6&#45;&gt;Node8 -->
<g id="edge10" class="edge">
<title>Node6&#45;&gt;Node8</title>
<path fill="none" stroke="#404040" d="M649.92,-914.38C651.98,-903.1 654.15,-891.19 656.41,-878.81"/>
<polygon fill="none" stroke="#404040" points="656.45,-878.61 653.59,-871.99 658.6,-866.81 661.46,-873.43 656.45,-878.61"/>
<text text-anchor="middle" x="686.85" y="-888" font-family="Helvetica,sans-Serif" font-size="10.00"> +farmerPrefab</text>
</g>
<!-- Node7&#45;&gt;Node6 -->
<g id="edge6" class="edge">
<title>Node7&#45;&gt;Node6</title>
<path fill="none" stroke="midnightblue" d="M595.11,-1142.35C597.85,-1132.92 600.52,-1123.68 603.11,-1114.74"/>
<polygon fill="none" stroke="midnightblue" points="591.67,-1141.66 592.25,-1152.24 598.4,-1143.61 591.67,-1141.66"/>
</g>
<!-- Node9 -->
<g id="node9" class="node">
<title>Node9</title>
<g id="a_node9"><a xlink:href="class_units_1_1_door.html" target="_top" xlink:title="基地门">
<polygon fill="white" stroke="black" points="419.85,-980.5 419.85,-1048.5 537.85,-1048.5 537.85,-980.5 419.85,-980.5"/>
<text text-anchor="middle" x="478.85" y="-1036.5" font-family="Helvetica,sans-Serif" font-size="10.00">Units.Door</text>
<polyline fill="none" stroke="black" points="419.85,-1029.5 537.85,-1029.5 "/>
<text text-anchor="middle" x="478.85" y="-1017.5" font-family="Helvetica,sans-Serif" font-size="10.00"> </text>
<polyline fill="none" stroke="black" points="419.85,-1010.5 537.85,-1010.5 "/>
<text text-anchor="start" x="427.85" y="-998.5" font-family="Helvetica,sans-Serif" font-size="10.00">+ override void Start()</text>
<text text-anchor="start" x="427.85" y="-987.5" font-family="Helvetica,sans-Serif" font-size="10.00">+ override void Update()</text>
</a>
</g>
</g>
<!-- Node7&#45;&gt;Node9 -->
<g id="edge12" class="edge">
<title>Node7&#45;&gt;Node9</title>
<path fill="none" stroke="midnightblue" d="M499.98,-1141.92C493.9,-1105.57 488.28,-1071.97 484.37,-1048.56"/>
<polygon fill="none" stroke="midnightblue" points="496.6,-1142.95 501.7,-1152.24 503.51,-1141.8 496.6,-1142.95"/>
</g>
<!-- Node8&#45;&gt;Node7 -->
<g id="edge8" class="edge">
<title>Node8&#45;&gt;Node7</title>
<path fill="none" stroke="#404040" d="M755.69,-866.7C754.73,-949.67 744.6,-1037.2 716.85,-1115 697.68,-1168.73 661.19,-1219.91 625.89,-1260.76"/>
<polygon fill="none" stroke="#404040" points="625.83,-1260.83 624.88,-1267.98 617.91,-1269.84 618.87,-1262.7 625.83,-1260.83"/>
<text text-anchor="middle" x="781.35" y="-1012" font-family="Helvetica,sans-Serif" font-size="10.00"> +sidePlayer</text>
</g>
<!-- Node9&#45;&gt;Node4 -->
<g id="edge14" class="edge">
<title>Node9&#45;&gt;Node4</title>
<path fill="none" stroke="#404040" d="M478.15,-980.33C477.7,-956.79 477.13,-924.46 476.85,-896 476.79,-890.26 476.73,-884.46 476.68,-878.63"/>
<polygon fill="none" stroke="#404040" points="476.68,-878.59 472.63,-872.63 476.58,-866.59 480.63,-872.56 476.68,-878.59"/>
<text text-anchor="middle" x="490.85" y="-888" font-family="Helvetica,sans-Serif" font-size="10.00"> +door</text>
</g>
<!-- Node9&#45;&gt;Node8 -->
<g id="edge11" class="edge">
<title>Node9&#45;&gt;Node8</title>
<path fill="none" stroke="#404040" d="M491.19,-980.28C503,-952.1 523.13,-912.07 550.85,-885 563.08,-873.05 573.39,-879.69 584.85,-867 594.49,-856.32 603.49,-844.86 611.88,-832.84"/>
<polygon fill="none" stroke="#404040" points="612.07,-832.56 612.11,-825.35 618.78,-822.62 618.74,-829.83 612.07,-832.56"/>
<text text-anchor="middle" x="564.85" y="-888" font-family="Helvetica,sans-Serif" font-size="10.00"> +door</text>
</g>
<!-- Node10 -->
<g id="node10" class="node">
<title>Node10</title>
<g id="a_node10"><a xlink:href="interface_units_1_1_i_military_unit.html" target="_top" xlink:title="攻击性单位接口">
<polygon fill="white" stroke="black" points="257.85,-1598.5 257.85,-1776.5 397.85,-1776.5 397.85,-1598.5 257.85,-1598.5"/>
<text text-anchor="middle" x="327.85" y="-1764.5" font-family="Helvetica,sans-Serif" font-size="10.00">Units.IMilitaryUnit</text>
<polyline fill="none" stroke="black" points="257.85,-1757.5 397.85,-1757.5 "/>
<text text-anchor="start" x="265.85" y="-1745.5" font-family="Helvetica,sans-Serif" font-size="10.00">+ int AttackValue</text>
<text text-anchor="start" x="265.85" y="-1734.5" font-family="Helvetica,sans-Serif" font-size="10.00">+ float AttackColdDownTime</text>
<text text-anchor="start" x="265.85" y="-1723.5" font-family="Helvetica,sans-Serif" font-size="10.00">+ float AttackRange</text>
<text text-anchor="start" x="265.85" y="-1712.5" font-family="Helvetica,sans-Serif" font-size="10.00">+ int DefenceValue</text>
<text text-anchor="start" x="265.85" y="-1701.5" font-family="Helvetica,sans-Serif" font-size="10.00">+ float SpeedValue</text>
<text text-anchor="start" x="265.85" y="-1690.5" font-family="Helvetica,sans-Serif" font-size="10.00">+ Vector3 OriginalVelocity</text>
<text text-anchor="start" x="265.85" y="-1679.5" font-family="Helvetica,sans-Serif" font-size="10.00">+ Player.Player SidePlayer</text>
<text text-anchor="start" x="265.85" y="-1668.5" font-family="Helvetica,sans-Serif" font-size="10.00">+ UnityEvent&lt; Unit &gt;</text>
<text text-anchor="start" x="265.85" y="-1657.5" font-family="Helvetica,sans-Serif" font-size="10.00"> AttackEvent</text>
<text text-anchor="start" x="265.85" y="-1646.5" font-family="Helvetica,sans-Serif" font-size="10.00">+ UnityEvent&lt; IMilitaryUnit</text>
<text text-anchor="start" x="265.85" y="-1635.5" font-family="Helvetica,sans-Serif" font-size="10.00"> &gt; UnderAttackedEvent</text>
<polyline fill="none" stroke="black" points="257.85,-1628.5 397.85,-1628.5 "/>
<text text-anchor="start" x="265.85" y="-1616.5" font-family="Helvetica,sans-Serif" font-size="10.00">+ void Attack()</text>
<text text-anchor="start" x="265.85" y="-1605.5" font-family="Helvetica,sans-Serif" font-size="10.00">+ Unit GetUnit()</text>
</a>
</g>
</g>
<!-- Node10&#45;&gt;Node7 -->
<g id="edge13" class="edge">
<title>Node10&#45;&gt;Node7</title>
<path fill="none" stroke="#404040" d="M382.5,-1598.31C401.72,-1567.31 423.84,-1531.6 445.17,-1497.19"/>
<polygon fill="none" stroke="#404040" points="445.44,-1496.75 445.2,-1489.55 451.76,-1486.55 452,-1493.76 445.44,-1496.75"/>
<text text-anchor="middle" x="418.35" y="-1572" font-family="Helvetica,sans-Serif" font-size="10.00"> #_attacker</text>
</g>
<!-- Node11&#45;&gt;Node1 -->
<g id="edge16" class="edge">
<title>Node11&#45;&gt;Node1</title>
<path fill="none" stroke="#404040" d="M112.96,-145.75C113.2,-159.1 113.77,-173.01 114.85,-186 120.96,-259.56 133.51,-341.08 145.07,-406.77"/>
<polygon fill="none" stroke="#404040" points="145.12,-407.04 150.11,-412.24 147.22,-418.85 142.23,-413.64 145.12,-407.04"/>
<text text-anchor="middle" x="159.85" y="-178" font-family="Helvetica,sans-Serif" font-size="10.00"> +playerBSideOnline</text>
</g>
</g>
</svg>
        <g id="navigator" transform="translate(0 0)" fill="#404254">
                <rect fill="#f2f5e9" fill-opacity="0.5" stroke="#606060" stroke-width=".5" x="0" y="0" width="60" height="60"/>
                <use id="zoomplus" xlink:href="#zoomPlus" x="17" y="9" onmousedown="handleZoom(evt,'in')"/>
                <use id="zoomminus" xlink:href="#zoomMin" x="42" y="9" onmousedown="handleZoom(evt,'out')"/>
                <use id="reset" xlink:href="#resetDef" x="30" y="36" onmousedown="handleReset()"/>
                <g id="arrowUp" xlink:href="#dirArrow" transform="translate(30 24)" onmousedown="handlePan(0,-1)">
                  <use xlink:href="#rim" fill="#404040">
                        <set attributeName="fill" to="#808080" begin="arrowUp.mouseover" end="arrowUp.mouseout"/>
                  </use>
                  <path fill="none" stroke="white" stroke-width="1.5" d="M0,-3.0v7 M-2.5,-0.5L0,-3.0L2.5,-0.5"/>
                </g>
                <g id="arrowRight" xlink:href="#dirArrow" transform="rotate(90) translate(36 -43)" onmousedown="handlePan(1,0)">
                  <use xlink:href="#rim" fill="#404040">
                        <set attributeName="fill" to="#808080" begin="arrowRight.mouseover" end="arrowRight.mouseout"/>
                  </use>
                  <path fill="none" stroke="white" stroke-width="1.5" d="M0,-3.0v7 M-2.5,-0.5L0,-3.0L2.5,-0.5"/>
                </g>
                <g id="arrowDown" xlink:href="#dirArrow" transform="rotate(180) translate(-30 -48)" onmousedown="handlePan(0,1)">
                  <use xlink:href="#rim" fill="#404040">
                        <set attributeName="fill" to="#808080" begin="arrowDown.mouseover" end="arrowDown.mouseout"/>
                  </use>
                  <path fill="none" stroke="white" stroke-width="1.5" d="M0,-3.0v7 M-2.5,-0.5L0,-3.0L2.5,-0.5"/>
                </g>
                <g id="arrowLeft" xlink:href="#dirArrow" transform="rotate(270) translate(-36 17)" onmousedown="handlePan(-1,0)">
                  <use xlink:href="#rim" fill="#404040">
                        <set attributeName="fill" to="#808080" begin="arrowLeft.mouseover" end="arrowLeft.mouseout"/>
                  </use>
                  <path fill="none" stroke="white" stroke-width="1.5" d="M0,-3.0v7 M-2.5,-0.5L0,-3.0L2.5,-0.5"/>
                </g>
        </g>
        <svg viewBox="0 0 15 15" width="100%" height="30px" preserveAspectRatio="xMaxYMin meet">
         <g id="arrow_out" transform="scale(0.3 0.3)">
          <a xlink:href="class_network_1_1_network_player_manager__coll__graph_org.svg" target="_base">
           <rect id="button" ry="5" rx="5" y="6" x="6" height="38" width="38"
                fill="#f2f5e9" fill-opacity="0.5" stroke="#606060" stroke-width="1.0"/>
           <path id="arrow"
             d="M 11.500037,31.436501 C 11.940474,20.09759 22.043105,11.32322 32.158766,21.979434 L 37.068811,17.246167 C 37.068811,17.246167 37.088388,32 37.088388,32 L 22.160133,31.978069 C 22.160133,31.978069 26.997745,27.140456 26.997745,27.140456 C 18.528582,18.264221 13.291696,25.230495 11.500037,31.436501 z"
             style="fill:#404040;"/>
          </a>
         </g>
        </svg>
</svg>
