<?xml version="1.0" encoding="UTF-8" standalone="no"?>
<!DOCTYPE svg PUBLIC "-//W3C//DTD SVG 1.1//EN"
 "http://www.w3.org/Graphics/SVG/1.1/DTD/svg11.dtd">
<!-- Generated by graphviz version 2.47.1 (20210417.1919)
 -->
<!-- Title: UI.ChineseSports.Battle.ResultUI.BackToMap Pages: 1 -->
<svg width="318pt" height="78pt"
 viewBox="0.00 0.00 318.00 77.50" xmlns="http://www.w3.org/2000/svg" xmlns:xlink="http://www.w3.org/1999/xlink">
<g id="graph0" class="graph" transform="scale(1 1) rotate(0) translate(4 73.5)">
<title>UI.ChineseSports.Battle.ResultUI.BackToMap</title>
<polygon fill="white" stroke="transparent" points="-4,4 -4,-73.5 314,-73.5 314,4 -4,4"/>
<!-- Node1 -->
<g id="node1" class="node">
<title>Node1</title>
<g id="a_node1"><a xlink:title=" ">
<polygon fill="#bfbfbf" stroke="black" points="0,-17 0,-47 124,-47 124,-17 0,-17"/>
<text text-anchor="start" x="8" y="-35" font-family="Helvetica,sans-Serif" font-size="10.00">UI.ChineseSports.Battle.</text>
<text text-anchor="middle" x="62" y="-24" font-family="Helvetica,sans-Serif" font-size="10.00">ResultUI.BackToMap</text>
</a>
</g>
</g>
<!-- Node2 -->
<g id="node2" class="node">
<title>Node2</title>
<g id="a_node2"><a xlink:href="class_saver_1_1_data_transfer.html#a7dfee1eea2bfe71edbb142428e87029b" target="_top" xlink:title="使用进度条加载">
<polygon fill="white" stroke="black" points="160,-39 160,-69 310,-69 310,-39 160,-39"/>
<text text-anchor="start" x="168" y="-57" font-family="Helvetica,sans-Serif" font-size="10.00">Saver.DataTransfer.LoadScene</text>
<text text-anchor="middle" x="235" y="-46" font-family="Helvetica,sans-Serif" font-size="10.00">InLoadingScene</text>
</a>
</g>
</g>
<!-- Node1&#45;&gt;Node2 -->
<g id="edge1" class="edge">
<title>Node1&#45;&gt;Node2</title>
<path fill="none" stroke="midnightblue" d="M124.25,-39.88C132.52,-40.94 141.11,-42.05 149.69,-43.15"/>
<polygon fill="midnightblue" stroke="midnightblue" points="149.37,-46.64 159.74,-44.45 150.26,-39.7 149.37,-46.64"/>
</g>
<!-- Node3 -->
<g id="node3" class="node">
<title>Node3</title>
<g id="a_node3"><a xlink:href="class_saver_1_1_x_m_l_saver.html#a293075c8032703755a711c16005c517d" target="_top" xlink:title="存档">
<polygon fill="white" stroke="black" points="169.5,-0.5 169.5,-19.5 300.5,-19.5 300.5,-0.5 169.5,-0.5"/>
<text text-anchor="middle" x="235" y="-7.5" font-family="Helvetica,sans-Serif" font-size="10.00">Saver.XMLSaver.SaveData</text>
</a>
</g>
</g>
<!-- Node1&#45;&gt;Node3 -->
<g id="edge2" class="edge">
<title>Node1&#45;&gt;Node3</title>
<path fill="none" stroke="midnightblue" d="M124.25,-24.12C135.59,-22.66 147.55,-21.12 159.24,-19.62"/>
<polygon fill="midnightblue" stroke="midnightblue" points="159.95,-23.06 169.42,-18.31 159.06,-16.11 159.95,-23.06"/>
</g>
</g>
</svg>
