<?xml version="1.0" encoding="UTF-8" standalone="no"?>
<!DOCTYPE svg PUBLIC "-//W3C//DTD SVG 1.1//EN"
 "http://www.w3.org/Graphics/SVG/1.1/DTD/svg11.dtd">
<!-- Generated by graphviz version 2.47.1 (20210417.1919)
 -->
<!-- Title: UI.FillBarUI Pages: 1 -->
<svg width="153pt" height="204pt"
 viewBox="0.00 0.00 153.00 204.00" xmlns="http://www.w3.org/2000/svg" xmlns:xlink="http://www.w3.org/1999/xlink">
<g id="graph0" class="graph" transform="scale(1 1) rotate(0) translate(4 200)">
<title>UI.FillBarUI</title>
<polygon fill="white" stroke="transparent" points="-4,4 -4,-200 149,-200 149,4 -4,4"/>
<!-- Node1 -->
<g id="node1" class="node">
<title>Node1</title>
<g id="a_node1"><a xlink:title=" ">
<polygon fill="#bfbfbf" stroke="black" points="0,-0.5 0,-101.5 145,-101.5 145,-0.5 0,-0.5"/>
<text text-anchor="middle" x="72.5" y="-89.5" font-family="Helvetica,sans-Serif" font-size="10.00">UI.FillBarUI</text>
<polyline fill="none" stroke="black" points="0,-82.5 145,-82.5 "/>
<text text-anchor="start" x="8" y="-70.5" font-family="Helvetica,sans-Serif" font-size="10.00">+ Image fillImage</text>
<text text-anchor="start" x="8" y="-59.5" font-family="Helvetica,sans-Serif" font-size="10.00">+ RectTransform flag</text>
<text text-anchor="start" x="8" y="-48.5" font-family="Helvetica,sans-Serif" font-size="10.00">+ RectTransform flagStartPos</text>
<text text-anchor="start" x="8" y="-37.5" font-family="Helvetica,sans-Serif" font-size="10.00">+ RectTransform flagEndPos</text>
<text text-anchor="start" x="8" y="-26.5" font-family="Helvetica,sans-Serif" font-size="10.00">+ float? FillAmount</text>
<polyline fill="none" stroke="black" points="0,-19.5 145,-19.5 "/>
<text text-anchor="start" x="8" y="-7.5" font-family="Helvetica,sans-Serif" font-size="10.00">+ void SetFill()</text>
</a>
</g>
</g>
<!-- Node2 -->
<g id="node2" class="node">
<title>Node2</title>
<g id="a_node2"><a xlink:title=" ">
<polygon fill="white" stroke="#bfbfbf" points="31,-138.5 31,-195.5 114,-195.5 114,-138.5 31,-138.5"/>
<text text-anchor="middle" x="72.5" y="-183.5" font-family="Helvetica,sans-Serif" font-size="10.00">MonoBehaviour</text>
<polyline fill="none" stroke="#bfbfbf" points="31,-176.5 114,-176.5 "/>
<text text-anchor="middle" x="72.5" y="-164.5" font-family="Helvetica,sans-Serif" font-size="10.00"> </text>
<polyline fill="none" stroke="#bfbfbf" points="31,-157.5 114,-157.5 "/>
<text text-anchor="middle" x="72.5" y="-145.5" font-family="Helvetica,sans-Serif" font-size="10.00"> </text>
</a>
</g>
</g>
<!-- Node2&#45;&gt;Node1 -->
<g id="edge1" class="edge">
<title>Node2&#45;&gt;Node1</title>
<path fill="none" stroke="midnightblue" d="M72.5,-128.35C72.5,-119.8 72.5,-110.58 72.5,-101.61"/>
<polygon fill="none" stroke="midnightblue" points="69,-128.4 72.5,-138.4 76,-128.4 69,-128.4"/>
</g>
</g>
</svg>
