<?xml version="1.0" encoding="UTF-8" standalone="no"?>
<!DOCTYPE svg PUBLIC "-//W3C//DTD SVG 1.1//EN"
 "http://www.w3.org/Graphics/SVG/1.1/DTD/svg11.dtd">
<!-- Generated by graphviz version 2.47.1 (20210417.1919)
 -->
<!-- Title: Player.PlayerAI Pages: 1 -->
<svg width="130pt" height="353pt"
 viewBox="0.00 0.00 130.00 353.00" xmlns="http://www.w3.org/2000/svg" xmlns:xlink="http://www.w3.org/1999/xlink">
<g id="graph0" class="graph" transform="scale(1 1) rotate(0) translate(4 349)">
<title>Player.PlayerAI</title>
<polygon fill="white" stroke="transparent" points="-4,4 -4,-349 126,-349 126,4 -4,4"/>
<!-- Node1 -->
<g id="node1" class="node">
<title>Node1</title>
<g id="a_node1"><a xlink:title="敌人AI">
<polygon fill="#bfbfbf" stroke="black" points="0.5,-94.5 0.5,-250.5 121.5,-250.5 121.5,-94.5 0.5,-94.5"/>
<text text-anchor="middle" x="61" y="-238.5" font-family="Helvetica,sans-Serif" font-size="10.00">Player.PlayerAI</text>
<polyline fill="none" stroke="black" points="0.5,-231.5 121.5,-231.5 "/>
<text text-anchor="start" x="8.5" y="-219.5" font-family="Helvetica,sans-Serif" font-size="10.00">+ Player aiPlayer</text>
<text text-anchor="start" x="8.5" y="-208.5" font-family="Helvetica,sans-Serif" font-size="10.00">+ bool[] enableRoads</text>
<text text-anchor="start" x="8.5" y="-197.5" font-family="Helvetica,sans-Serif" font-size="10.00">+ float aiRestTime</text>
<text text-anchor="start" x="8.5" y="-186.5" font-family="Helvetica,sans-Serif" font-size="10.00"># bool _isColdDown</text>
<polyline fill="none" stroke="black" points="0.5,-179.5 121.5,-179.5 "/>
<text text-anchor="start" x="8.5" y="-167.5" font-family="Helvetica,sans-Serif" font-size="10.00"># void Start()</text>
<text text-anchor="start" x="8.5" y="-156.5" font-family="Helvetica,sans-Serif" font-size="10.00"># void Update()</text>
<text text-anchor="start" x="8.5" y="-145.5" font-family="Helvetica,sans-Serif" font-size="10.00"># virtual void AIGaming()</text>
<text text-anchor="start" x="8.5" y="-134.5" font-family="Helvetica,sans-Serif" font-size="10.00"># void CountEnemy()</text>
<text text-anchor="start" x="8.5" y="-123.5" font-family="Helvetica,sans-Serif" font-size="10.00"># void DispatchUnits()</text>
<text text-anchor="start" x="8.5" y="-112.5" font-family="Helvetica,sans-Serif" font-size="10.00"># void DispatchUnits</text>
<text text-anchor="start" x="8.5" y="-101.5" font-family="Helvetica,sans-Serif" font-size="10.00">(int num)</text>
</a>
</g>
</g>
<!-- Node3 -->
<g id="node3" class="node">
<title>Node3</title>
<g id="a_node3"><a xlink:href="class_player_1_1_pollution_player_a_i.html" target="_top" xlink:title=" ">
<polygon fill="white" stroke="black" points="0,-0.5 0,-57.5 122,-57.5 122,-0.5 0,-0.5"/>
<text text-anchor="middle" x="61" y="-45.5" font-family="Helvetica,sans-Serif" font-size="10.00">Player.PollutionPlayerAI</text>
<polyline fill="none" stroke="black" points="0,-38.5 122,-38.5 "/>
<text text-anchor="middle" x="61" y="-26.5" font-family="Helvetica,sans-Serif" font-size="10.00"> </text>
<polyline fill="none" stroke="black" points="0,-19.5 122,-19.5 "/>
<text text-anchor="middle" x="61" y="-7.5" font-family="Helvetica,sans-Serif" font-size="10.00"> </text>
</a>
</g>
</g>
<!-- Node1&#45;&gt;Node3 -->
<g id="edge2" class="edge">
<title>Node1&#45;&gt;Node3</title>
<path fill="none" stroke="midnightblue" d="M61,-83.84C61,-74.48 61,-65.54 61,-57.72"/>
<polygon fill="none" stroke="midnightblue" points="57.5,-84.13 61,-94.13 64.5,-84.13 57.5,-84.13"/>
</g>
<!-- Node2 -->
<g id="node2" class="node">
<title>Node2</title>
<g id="a_node2"><a xlink:title=" ">
<polygon fill="white" stroke="#bfbfbf" points="19.5,-287.5 19.5,-344.5 102.5,-344.5 102.5,-287.5 19.5,-287.5"/>
<text text-anchor="middle" x="61" y="-332.5" font-family="Helvetica,sans-Serif" font-size="10.00">MonoBehaviour</text>
<polyline fill="none" stroke="#bfbfbf" points="19.5,-325.5 102.5,-325.5 "/>
<text text-anchor="middle" x="61" y="-313.5" font-family="Helvetica,sans-Serif" font-size="10.00"> </text>
<polyline fill="none" stroke="#bfbfbf" points="19.5,-306.5 102.5,-306.5 "/>
<text text-anchor="middle" x="61" y="-294.5" font-family="Helvetica,sans-Serif" font-size="10.00"> </text>
</a>
</g>
</g>
<!-- Node2&#45;&gt;Node1 -->
<g id="edge1" class="edge">
<title>Node2&#45;&gt;Node1</title>
<path fill="none" stroke="midnightblue" d="M61,-277.34C61,-269.04 61,-259.96 61,-250.74"/>
<polygon fill="none" stroke="midnightblue" points="57.5,-277.38 61,-287.38 64.5,-277.38 57.5,-277.38"/>
</g>
</g>
</svg>
