<?xml version="1.0" encoding="UTF-8" standalone="no"?>
<!DOCTYPE svg PUBLIC "-//W3C//DTD SVG 1.1//EN"
 "http://www.w3.org/Graphics/SVG/1.1/DTD/svg11.dtd">
<!-- Generated by graphviz version 2.47.1 (20210417.1919)
 -->
<!-- Title: Network.NetworkLobbyManager Pages: 1 -->
<svg width="247pt" height="457pt"
 viewBox="0.00 0.00 246.50 457.00" xmlns="http://www.w3.org/2000/svg" xmlns:xlink="http://www.w3.org/1999/xlink">
<g id="graph0" class="graph" transform="scale(1 1) rotate(0) translate(4 453)">
<title>Network.NetworkLobbyManager</title>
<polygon fill="white" stroke="transparent" points="-4,4 -4,-453 242.5,-453 242.5,4 -4,4"/>
<!-- Node1 -->
<g id="node1" class="node">
<title>Node1</title>
<g id="a_node1"><a xlink:title="网络对战管理">
<polygon fill="#bfbfbf" stroke="black" points="45,-0.5 45,-310.5 204,-310.5 204,-0.5 45,-0.5"/>
<text text-anchor="middle" x="124.5" y="-298.5" font-family="Helvetica,sans-Serif" font-size="10.00">Network.NetworkLobbyManager</text>
<polyline fill="none" stroke="black" points="45,-291.5 204,-291.5 "/>
<text text-anchor="start" x="53" y="-279.5" font-family="Helvetica,sans-Serif" font-size="10.00">+ GameObject lobbyUI</text>
<text text-anchor="start" x="53" y="-268.5" font-family="Helvetica,sans-Serif" font-size="10.00">+ Transform lobbyPanelContent</text>
<text text-anchor="start" x="53" y="-257.5" font-family="Helvetica,sans-Serif" font-size="10.00">+ GameObject roomLine</text>
<text text-anchor="start" x="53" y="-246.5" font-family="Helvetica,sans-Serif" font-size="10.00">+ GameObject roomUI</text>
<text text-anchor="start" x="53" y="-235.5" font-family="Helvetica,sans-Serif" font-size="10.00">+ GameObject playerA</text>
<text text-anchor="start" x="53" y="-224.5" font-family="Helvetica,sans-Serif" font-size="10.00">+ GameObject playerB</text>
<polyline fill="none" stroke="black" points="45,-217.5 204,-217.5 "/>
<text text-anchor="start" x="53" y="-205.5" font-family="Helvetica,sans-Serif" font-size="10.00">+ override void OnConnected</text>
<text text-anchor="start" x="53" y="-194.5" font-family="Helvetica,sans-Serif" font-size="10.00">ToMaster()</text>
<text text-anchor="start" x="53" y="-183.5" font-family="Helvetica,sans-Serif" font-size="10.00">+ override void OnRoomList</text>
<text text-anchor="start" x="53" y="-172.5" font-family="Helvetica,sans-Serif" font-size="10.00">Update(List&lt; RoomInfo</text>
<text text-anchor="start" x="53" y="-161.5" font-family="Helvetica,sans-Serif" font-size="10.00"> &gt; roomList)</text>
<text text-anchor="start" x="53" y="-150.5" font-family="Helvetica,sans-Serif" font-size="10.00">+ void CreateRoom()</text>
<text text-anchor="start" x="53" y="-139.5" font-family="Helvetica,sans-Serif" font-size="10.00">+ override void OnCreatedRoom()</text>
<text text-anchor="start" x="53" y="-128.5" font-family="Helvetica,sans-Serif" font-size="10.00">+ override void OnCreateRoom</text>
<text text-anchor="start" x="53" y="-117.5" font-family="Helvetica,sans-Serif" font-size="10.00">Failed(short returnCode,</text>
<text text-anchor="start" x="53" y="-106.5" font-family="Helvetica,sans-Serif" font-size="10.00"> string message)</text>
<text text-anchor="start" x="53" y="-95.5" font-family="Helvetica,sans-Serif" font-size="10.00">+ override void OnJoinedRoom()</text>
<text text-anchor="start" x="53" y="-84.5" font-family="Helvetica,sans-Serif" font-size="10.00">+ override void OnPlayerEntered</text>
<text text-anchor="start" x="53" y="-73.5" font-family="Helvetica,sans-Serif" font-size="10.00">Room(Photon.Realtime.Player</text>
<text text-anchor="start" x="53" y="-62.5" font-family="Helvetica,sans-Serif" font-size="10.00"> newPlayer)</text>
<text text-anchor="start" x="53" y="-51.5" font-family="Helvetica,sans-Serif" font-size="10.00">+ override void OnPlayerLeft</text>
<text text-anchor="start" x="53" y="-40.5" font-family="Helvetica,sans-Serif" font-size="10.00">Room(Photon.Realtime.Player</text>
<text text-anchor="start" x="53" y="-29.5" font-family="Helvetica,sans-Serif" font-size="10.00"> otherPlayer)</text>
<text text-anchor="start" x="53" y="-18.5" font-family="Helvetica,sans-Serif" font-size="10.00">+ void ShowPlayerInfo()</text>
<text text-anchor="start" x="53" y="-7.5" font-family="Helvetica,sans-Serif" font-size="10.00">+ void QuitRoom()</text>
</a>
</g>
</g>
<!-- Node2 -->
<g id="node2" class="node">
<title>Node2</title>
<g id="a_node2"><a xlink:title=" ">
<polygon fill="white" stroke="#bfbfbf" points="0,-391.5 0,-448.5 143,-448.5 143,-391.5 0,-391.5"/>
<text text-anchor="middle" x="71.5" y="-436.5" font-family="Helvetica,sans-Serif" font-size="10.00">MonoBehaviourPunCallbacks</text>
<polyline fill="none" stroke="#bfbfbf" points="0,-429.5 143,-429.5 "/>
<text text-anchor="middle" x="71.5" y="-417.5" font-family="Helvetica,sans-Serif" font-size="10.00"> </text>
<polyline fill="none" stroke="#bfbfbf" points="0,-410.5 143,-410.5 "/>
<text text-anchor="middle" x="71.5" y="-398.5" font-family="Helvetica,sans-Serif" font-size="10.00"> </text>
</a>
</g>
</g>
<!-- Node2&#45;&gt;Node1 -->
<g id="edge1" class="edge">
<title>Node2&#45;&gt;Node1</title>
<path fill="none" stroke="midnightblue" d="M79.06,-381.53C82.98,-362.16 88.04,-337.07 93.37,-310.7"/>
<polygon fill="none" stroke="midnightblue" points="75.62,-380.91 77.07,-391.4 82.48,-382.29 75.62,-380.91"/>
</g>
<!-- Node3 -->
<g id="node3" class="node">
<title>Node3</title>
<g id="a_node3"><a xlink:title=" ">
<polygon fill="white" stroke="#bfbfbf" points="161,-391.5 161,-448.5 196,-448.5 196,-391.5 161,-391.5"/>
<text text-anchor="middle" x="178.5" y="-436.5" font-family="Helvetica,sans-Serif" font-size="10.00">Text</text>
<polyline fill="none" stroke="#bfbfbf" points="161,-429.5 196,-429.5 "/>
<text text-anchor="middle" x="178.5" y="-417.5" font-family="Helvetica,sans-Serif" font-size="10.00"> </text>
<polyline fill="none" stroke="#bfbfbf" points="161,-410.5 196,-410.5 "/>
<text text-anchor="middle" x="178.5" y="-398.5" font-family="Helvetica,sans-Serif" font-size="10.00"> </text>
</a>
</g>
</g>
<!-- Node3&#45;&gt;Node1 -->
<g id="edge2" class="edge">
<title>Node3&#45;&gt;Node1</title>
<path fill="none" stroke="#404040" d="M172.82,-391.4C169.19,-373.75 164.14,-349.21 158.67,-322.63"/>
<polygon fill="none" stroke="#404040" points="158.64,-322.45 153.51,-317.38 156.22,-310.7 161.35,-315.77 158.64,-322.45"/>
<text text-anchor="middle" x="203" y="-365" font-family="Helvetica,sans-Serif" font-size="10.00"> +lobbyPingText</text>
<text text-anchor="middle" x="203" y="-354" font-family="Helvetica,sans-Serif" font-size="10.00">+pingText</text>
<text text-anchor="middle" x="203" y="-343" font-family="Helvetica,sans-Serif" font-size="10.00">+playerName</text>
<text text-anchor="middle" x="203" y="-332" font-family="Helvetica,sans-Serif" font-size="10.00">+roomPingText</text>
</g>
</g>
</svg>
