<?xml version="1.0" encoding="UTF-8" standalone="no"?>
<!DOCTYPE svg PUBLIC "-//W3C//DTD SVG 1.1//EN"
 "http://www.w3.org/Graphics/SVG/1.1/DTD/svg11.dtd">
<!-- Generated by graphviz version 2.47.1 (20210417.1919)
 -->
<!-- Title: Units.Unit Pages: 1 -->
<svg width="776pt" height="931pt"
 viewBox="0.00 0.00 776.00 931.00" xmlns="http://www.w3.org/2000/svg" xmlns:xlink="http://www.w3.org/1999/xlink">
<g id="graph0" class="graph" transform="scale(1 1) rotate(0) translate(4 927)">
<title>Units.Unit</title>
<polygon fill="white" stroke="transparent" points="-4,4 -4,-927 772,-927 772,4 -4,4"/>
<!-- Node1 -->
<g id="node1" class="node">
<title>Node1</title>
<g id="a_node1"><a xlink:title="单位">
<polygon fill="#bfbfbf" stroke="black" points="293,-408.5 293,-828.5 459,-828.5 459,-408.5 293,-408.5"/>
<text text-anchor="middle" x="376" y="-816.5" font-family="Helvetica,sans-Serif" font-size="10.00">Units.Unit</text>
<polyline fill="none" stroke="black" points="293,-809.5 459,-809.5 "/>
<text text-anchor="start" x="301" y="-797.5" font-family="Helvetica,sans-Serif" font-size="10.00">+ int defence</text>
<text text-anchor="start" x="301" y="-786.5" font-family="Helvetica,sans-Serif" font-size="10.00">+ bool isUnmovable</text>
<text text-anchor="start" x="301" y="-775.5" font-family="Helvetica,sans-Serif" font-size="10.00">+ int playerOwnMax</text>
<text text-anchor="start" x="301" y="-764.5" font-family="Helvetica,sans-Serif" font-size="10.00">+ Rigidbody unitRigidbody</text>
<text text-anchor="start" x="301" y="-753.5" font-family="Helvetica,sans-Serif" font-size="10.00">+ Road road</text>
<text text-anchor="start" x="301" y="-742.5" font-family="Helvetica,sans-Serif" font-size="10.00">+ Player.Player sidePlayer</text>
<text text-anchor="start" x="301" y="-731.5" font-family="Helvetica,sans-Serif" font-size="10.00">+ UnitType unitType</text>
<text text-anchor="start" x="301" y="-720.5" font-family="Helvetica,sans-Serif" font-size="10.00">+ int costFood</text>
<text text-anchor="start" x="301" y="-709.5" font-family="Helvetica,sans-Serif" font-size="10.00">+ int costWood</text>
<text text-anchor="start" x="301" y="-698.5" font-family="Helvetica,sans-Serif" font-size="10.00">+ int costGold</text>
<text text-anchor="start" x="301" y="-687.5" font-family="Helvetica,sans-Serif" font-size="10.00">+ bool isDieImmediately</text>
<text text-anchor="start" x="301" y="-676.5" font-family="Helvetica,sans-Serif" font-size="10.00">+ int deathReward</text>
<text text-anchor="start" x="301" y="-665.5" font-family="Helvetica,sans-Serif" font-size="10.00">+ UnityEvent&lt; GameObject,</text>
<text text-anchor="start" x="301" y="-654.5" font-family="Helvetica,sans-Serif" font-size="10.00"> Transform &gt; navStopEventHandler</text>
<text text-anchor="start" x="301" y="-643.5" font-family="Helvetica,sans-Serif" font-size="10.00">+ UnityEvent&lt; Player.Player,</text>
<text text-anchor="start" x="301" y="-632.5" font-family="Helvetica,sans-Serif" font-size="10.00"> IMilitaryUnit &gt; UnitDeathEvent</text>
<text text-anchor="start" x="301" y="-621.5" font-family="Helvetica,sans-Serif" font-size="10.00">Handler</text>
<text text-anchor="start" x="301" y="-610.5" font-family="Helvetica,sans-Serif" font-size="10.00">+ int??? HP</text>
<text text-anchor="start" x="301" y="-599.5" font-family="Helvetica,sans-Serif" font-size="10.00">+ float Speed</text>
<text text-anchor="start" x="301" y="-588.5" font-family="Helvetica,sans-Serif" font-size="10.00">+ Transform InitTarget</text>
<text text-anchor="start" x="301" y="-577.5" font-family="Helvetica,sans-Serif" font-size="10.00">+ bool IsAtEnemyDoor</text>
<text text-anchor="start" x="301" y="-566.5" font-family="Helvetica,sans-Serif" font-size="10.00"># IMilitaryUnit _attacker</text>
<text text-anchor="start" x="301" y="-555.5" font-family="Helvetica,sans-Serif" font-size="10.00"># bool Death</text>
<text text-anchor="start" x="301" y="-544.5" font-family="Helvetica,sans-Serif" font-size="10.00"># UnityEvent StartEventHandler</text>
<text text-anchor="start" x="301" y="-533.5" font-family="Helvetica,sans-Serif" font-size="10.00"># UnityEvent&lt; IMilitaryUnit</text>
<text text-anchor="start" x="301" y="-522.5" font-family="Helvetica,sans-Serif" font-size="10.00"> &gt; BeAttackedEventHandler</text>
<polyline fill="none" stroke="black" points="293,-515.5 459,-515.5 "/>
<text text-anchor="start" x="301" y="-503.5" font-family="Helvetica,sans-Serif" font-size="10.00">+ virtual void Start()</text>
<text text-anchor="start" x="301" y="-492.5" font-family="Helvetica,sans-Serif" font-size="10.00">+ virtual void Update()</text>
<text text-anchor="start" x="301" y="-481.5" font-family="Helvetica,sans-Serif" font-size="10.00">+ virtual void BeAttacked</text>
<text text-anchor="start" x="301" y="-470.5" font-family="Helvetica,sans-Serif" font-size="10.00">(IMilitaryUnit attacker)</text>
<text text-anchor="start" x="301" y="-459.5" font-family="Helvetica,sans-Serif" font-size="10.00"># virtual void Awake()</text>
<text text-anchor="start" x="301" y="-448.5" font-family="Helvetica,sans-Serif" font-size="10.00"># void Goto(Transform tr)</text>
<text text-anchor="start" x="301" y="-437.5" font-family="Helvetica,sans-Serif" font-size="10.00"># static float GetTwoPoint</text>
<text text-anchor="start" x="301" y="-426.5" font-family="Helvetica,sans-Serif" font-size="10.00">DistanceOnNav(Vector3</text>
<text text-anchor="start" x="301" y="-415.5" font-family="Helvetica,sans-Serif" font-size="10.00"> oriPoint, Vector3 targetPoint)</text>
</a>
</g>
</g>
<!-- Node3 -->
<g id="node3" class="node">
<title>Node3</title>
<g id="a_node3"><a xlink:href="class_units_1_1_door.html" target="_top" xlink:title="基地门">
<polygon fill="white" stroke="black" points="0,-210 0,-278 118,-278 118,-210 0,-210"/>
<text text-anchor="middle" x="59" y="-266" font-family="Helvetica,sans-Serif" font-size="10.00">Units.Door</text>
<polyline fill="none" stroke="black" points="0,-259 118,-259 "/>
<text text-anchor="middle" x="59" y="-247" font-family="Helvetica,sans-Serif" font-size="10.00"> </text>
<polyline fill="none" stroke="black" points="0,-240 118,-240 "/>
<text text-anchor="start" x="8" y="-228" font-family="Helvetica,sans-Serif" font-size="10.00">+ override void Start()</text>
<text text-anchor="start" x="8" y="-217" font-family="Helvetica,sans-Serif" font-size="10.00">+ override void Update()</text>
</a>
</g>
</g>
<!-- Node1&#45;&gt;Node3 -->
<g id="edge2" class="edge">
<title>Node1&#45;&gt;Node3</title>
<path fill="none" stroke="midnightblue" d="M285.19,-540.33C234.79,-494.63 173.16,-433.74 127,-372 104.91,-342.46 85.7,-304.8 73.39,-278.18"/>
<polygon fill="none" stroke="midnightblue" points="283.09,-543.15 292.86,-547.24 287.77,-537.95 283.09,-543.15"/>
</g>
<!-- Node4 -->
<g id="node4" class="node">
<title>Node4</title>
<g id="a_node4"><a xlink:href="class_units_1_1_farmer.html" target="_top" xlink:title="农民">
<polygon fill="white" stroke="black" points="136.5,-144 136.5,-344 287.5,-344 287.5,-144 136.5,-144"/>
<text text-anchor="middle" x="212" y="-332" font-family="Helvetica,sans-Serif" font-size="10.00">Units.Farmer</text>
<polyline fill="none" stroke="black" points="136.5,-325 287.5,-325 "/>
<text text-anchor="start" x="144.5" y="-313" font-family="Helvetica,sans-Serif" font-size="10.00">+ float workTime</text>
<text text-anchor="start" x="144.5" y="-302" font-family="Helvetica,sans-Serif" font-size="10.00">+ int[] maxLoad</text>
<text text-anchor="start" x="144.5" y="-291" font-family="Helvetica,sans-Serif" font-size="10.00">+ UnityAction&lt; Farmer,</text>
<text text-anchor="start" x="144.5" y="-280" font-family="Helvetica,sans-Serif" font-size="10.00"> Transform &gt; farmerBackEvent</text>
<text text-anchor="start" x="144.5" y="-269" font-family="Helvetica,sans-Serif" font-size="10.00">Handler</text>
<text text-anchor="start" x="144.5" y="-258" font-family="Helvetica,sans-Serif" font-size="10.00">+ int ResouceCarried</text>
<text text-anchor="start" x="144.5" y="-247" font-family="Helvetica,sans-Serif" font-size="10.00"># Transform _home</text>
<text text-anchor="start" x="144.5" y="-236" font-family="Helvetica,sans-Serif" font-size="10.00"># Transform _targerResource</text>
<polyline fill="none" stroke="black" points="136.5,-229 287.5,-229 "/>
<text text-anchor="start" x="144.5" y="-217" font-family="Helvetica,sans-Serif" font-size="10.00">+ override void Start()</text>
<text text-anchor="start" x="144.5" y="-206" font-family="Helvetica,sans-Serif" font-size="10.00"># void OnNavStop(GameObject</text>
<text text-anchor="start" x="144.5" y="-195" font-family="Helvetica,sans-Serif" font-size="10.00"> gm, Transform tr)</text>
<text text-anchor="start" x="144.5" y="-184" font-family="Helvetica,sans-Serif" font-size="10.00"># void GenerateWorkPath()</text>
<text text-anchor="start" x="144.5" y="-173" font-family="Helvetica,sans-Serif" font-size="10.00"># virtual void Work()</text>
<text text-anchor="start" x="144.5" y="-162" font-family="Helvetica,sans-Serif" font-size="10.00"># void Drop(Farmer farmer,</text>
<text text-anchor="start" x="144.5" y="-151" font-family="Helvetica,sans-Serif" font-size="10.00"> Transform tr)</text>
</a>
</g>
</g>
<!-- Node1&#45;&gt;Node4 -->
<g id="edge3" class="edge">
<title>Node1&#45;&gt;Node4</title>
<path fill="none" stroke="midnightblue" d="M288.85,-419.56C277.37,-393.48 266.02,-367.71 255.72,-344.3"/>
<polygon fill="none" stroke="midnightblue" points="285.69,-421.05 292.92,-428.79 292.09,-418.23 285.69,-421.05"/>
</g>
<!-- Node6 -->
<g id="node6" class="node">
<title>Node6</title>
<g id="a_node6"><a xlink:href="class_units_1_1_melee_1_1_melee_unit.html" target="_top" xlink:title="近战单位">
<polygon fill="white" stroke="black" points="306,-138.5 306,-349.5 446,-349.5 446,-138.5 306,-138.5"/>
<text text-anchor="middle" x="376" y="-337.5" font-family="Helvetica,sans-Serif" font-size="10.00">Units.Melee.MeleeUnit</text>
<polyline fill="none" stroke="black" points="306,-330.5 446,-330.5 "/>
<text text-anchor="start" x="314" y="-318.5" font-family="Helvetica,sans-Serif" font-size="10.00">+ Vector3 originalVelocity</text>
<text text-anchor="start" x="314" y="-307.5" font-family="Helvetica,sans-Serif" font-size="10.00">+ float findEnemyRadius</text>
<text text-anchor="start" x="314" y="-296.5" font-family="Helvetica,sans-Serif" font-size="10.00">+ int AttackValue</text>
<text text-anchor="start" x="314" y="-285.5" font-family="Helvetica,sans-Serif" font-size="10.00">+ float AttackColdDownTime</text>
<text text-anchor="start" x="314" y="-274.5" font-family="Helvetica,sans-Serif" font-size="10.00">+ float AttackRange</text>
<text text-anchor="start" x="314" y="-263.5" font-family="Helvetica,sans-Serif" font-size="10.00">+ int DefenceValue</text>
<text text-anchor="start" x="314" y="-252.5" font-family="Helvetica,sans-Serif" font-size="10.00">+ float SpeedValue</text>
<text text-anchor="start" x="314" y="-241.5" font-family="Helvetica,sans-Serif" font-size="10.00">+ Vector3 OriginalVelocity</text>
<text text-anchor="start" x="314" y="-230.5" font-family="Helvetica,sans-Serif" font-size="10.00">+ Player.Player SidePlayer</text>
<text text-anchor="start" x="314" y="-219.5" font-family="Helvetica,sans-Serif" font-size="10.00">+ UnityEvent&lt; Unit &gt;</text>
<text text-anchor="start" x="314" y="-208.5" font-family="Helvetica,sans-Serif" font-size="10.00"> AttackEvent</text>
<text text-anchor="start" x="314" y="-197.5" font-family="Helvetica,sans-Serif" font-size="10.00">+ UnityEvent&lt; IMilitaryUnit</text>
<text text-anchor="start" x="314" y="-186.5" font-family="Helvetica,sans-Serif" font-size="10.00"> &gt; UnderAttackedEvent</text>
<polyline fill="none" stroke="black" points="306,-179.5 446,-179.5 "/>
<text text-anchor="start" x="314" y="-167.5" font-family="Helvetica,sans-Serif" font-size="10.00">+ override void Start()</text>
<text text-anchor="start" x="314" y="-156.5" font-family="Helvetica,sans-Serif" font-size="10.00">+ Unit GetUnit()</text>
<text text-anchor="start" x="314" y="-145.5" font-family="Helvetica,sans-Serif" font-size="10.00">+ void Attack()</text>
</a>
</g>
</g>
<!-- Node1&#45;&gt;Node6 -->
<g id="edge5" class="edge">
<title>Node1&#45;&gt;Node6</title>
<path fill="none" stroke="midnightblue" d="M376,-397.99C376,-381.36 376,-365.1 376,-349.76"/>
<polygon fill="none" stroke="midnightblue" points="372.5,-398.38 376,-408.38 379.5,-398.38 372.5,-398.38"/>
</g>
<!-- Node7 -->
<g id="node7" class="node">
<title>Node7</title>
<g id="a_node7"><a xlink:href="class_units_1_1_neutral_units.html" target="_top" xlink:title="中立单位">
<polygon fill="white" stroke="black" points="464,-199 464,-289 610,-289 610,-199 464,-199"/>
<text text-anchor="middle" x="537" y="-277" font-family="Helvetica,sans-Serif" font-size="10.00">Units.NeutralUnits</text>
<polyline fill="none" stroke="black" points="464,-270 610,-270 "/>
<text text-anchor="start" x="472" y="-258" font-family="Helvetica,sans-Serif" font-size="10.00">+ GameObject attackedEffect</text>
<text text-anchor="start" x="472" y="-247" font-family="Helvetica,sans-Serif" font-size="10.00">+ GameObject deathEffect</text>
<polyline fill="none" stroke="black" points="464,-240 610,-240 "/>
<text text-anchor="start" x="472" y="-228" font-family="Helvetica,sans-Serif" font-size="10.00">+ override void BeAttacked</text>
<text text-anchor="start" x="472" y="-217" font-family="Helvetica,sans-Serif" font-size="10.00">(IMilitaryUnit attacker)</text>
<text text-anchor="start" x="472" y="-206" font-family="Helvetica,sans-Serif" font-size="10.00"># override void Awake()</text>
</a>
</g>
</g>
<!-- Node1&#45;&gt;Node7 -->
<g id="edge6" class="edge">
<title>Node1&#45;&gt;Node7</title>
<path fill="none" stroke="midnightblue" d="M463.1,-415.98C483.78,-368.14 503.87,-321.65 517.87,-289.25"/>
<polygon fill="none" stroke="midnightblue" points="459.85,-414.68 459.09,-425.25 466.27,-417.46 459.85,-414.68"/>
</g>
<!-- Node8 -->
<g id="node8" class="node">
<title>Node8</title>
<g id="a_node8"><a xlink:href="class_units_1_1_ranged_attack_1_1_ranged_attack_unit.html" target="_top" xlink:title="远程攻击单位">
<polygon fill="white" stroke="black" points="628,-116.5 628,-371.5 768,-371.5 768,-116.5 628,-116.5"/>
<text text-anchor="start" x="636" y="-359.5" font-family="Helvetica,sans-Serif" font-size="10.00">Units.RangedAttack.Ranged</text>
<text text-anchor="middle" x="698" y="-348.5" font-family="Helvetica,sans-Serif" font-size="10.00">AttackUnit</text>
<polyline fill="none" stroke="black" points="628,-341.5 768,-341.5 "/>
<text text-anchor="start" x="636" y="-329.5" font-family="Helvetica,sans-Serif" font-size="10.00">+ Vector3 originalVelocity</text>
<text text-anchor="start" x="636" y="-318.5" font-family="Helvetica,sans-Serif" font-size="10.00">+ Transform shootTransform</text>
<text text-anchor="start" x="636" y="-307.5" font-family="Helvetica,sans-Serif" font-size="10.00">+ GameObject bulletObject</text>
<text text-anchor="start" x="636" y="-296.5" font-family="Helvetica,sans-Serif" font-size="10.00">+ float findEnemyRadius</text>
<text text-anchor="start" x="636" y="-285.5" font-family="Helvetica,sans-Serif" font-size="10.00">+ float shootAngleOffset</text>
<text text-anchor="start" x="636" y="-274.5" font-family="Helvetica,sans-Serif" font-size="10.00">+ float AttackColdDownTime</text>
<text text-anchor="start" x="636" y="-263.5" font-family="Helvetica,sans-Serif" font-size="10.00">+ int AttackValue</text>
<text text-anchor="start" x="636" y="-252.5" font-family="Helvetica,sans-Serif" font-size="10.00">+ float AttackRange</text>
<text text-anchor="start" x="636" y="-241.5" font-family="Helvetica,sans-Serif" font-size="10.00">+ int DefenceValue</text>
<text text-anchor="start" x="636" y="-230.5" font-family="Helvetica,sans-Serif" font-size="10.00">+ float SpeedValue</text>
<text text-anchor="start" x="636" y="-219.5" font-family="Helvetica,sans-Serif" font-size="10.00">+ Vector3 OriginalVelocity</text>
<text text-anchor="start" x="636" y="-208.5" font-family="Helvetica,sans-Serif" font-size="10.00">+ Player.Player SidePlayer</text>
<text text-anchor="start" x="636" y="-197.5" font-family="Helvetica,sans-Serif" font-size="10.00">+ UnityEvent&lt; Unit &gt;</text>
<text text-anchor="start" x="636" y="-186.5" font-family="Helvetica,sans-Serif" font-size="10.00"> AttackEvent</text>
<text text-anchor="start" x="636" y="-175.5" font-family="Helvetica,sans-Serif" font-size="10.00">+ UnityEvent&lt; IMilitaryUnit</text>
<text text-anchor="start" x="636" y="-164.5" font-family="Helvetica,sans-Serif" font-size="10.00"> &gt; UnderAttackedEvent</text>
<polyline fill="none" stroke="black" points="628,-157.5 768,-157.5 "/>
<text text-anchor="start" x="636" y="-145.5" font-family="Helvetica,sans-Serif" font-size="10.00">+ override void Start()</text>
<text text-anchor="start" x="636" y="-134.5" font-family="Helvetica,sans-Serif" font-size="10.00">+ Unit GetUnit()</text>
<text text-anchor="start" x="636" y="-123.5" font-family="Helvetica,sans-Serif" font-size="10.00">+ void Attack()</text>
</a>
</g>
</g>
<!-- Node1&#45;&gt;Node8 -->
<g id="edge7" class="edge">
<title>Node1&#45;&gt;Node8</title>
<path fill="none" stroke="midnightblue" d="M466.56,-535.43C514.57,-489.68 572.96,-430.31 619,-372 621.98,-368.23 624.94,-364.34 627.86,-360.37"/>
<polygon fill="none" stroke="midnightblue" points="464.1,-532.94 459.26,-542.36 468.92,-538.02 464.1,-532.94"/>
</g>
<!-- Node2 -->
<g id="node2" class="node">
<title>Node2</title>
<g id="a_node2"><a xlink:title=" ">
<polygon fill="white" stroke="#bfbfbf" points="334.5,-865.5 334.5,-922.5 417.5,-922.5 417.5,-865.5 334.5,-865.5"/>
<text text-anchor="middle" x="376" y="-910.5" font-family="Helvetica,sans-Serif" font-size="10.00">MonoBehaviour</text>
<polyline fill="none" stroke="#bfbfbf" points="334.5,-903.5 417.5,-903.5 "/>
<text text-anchor="middle" x="376" y="-891.5" font-family="Helvetica,sans-Serif" font-size="10.00"> </text>
<polyline fill="none" stroke="#bfbfbf" points="334.5,-884.5 417.5,-884.5 "/>
<text text-anchor="middle" x="376" y="-872.5" font-family="Helvetica,sans-Serif" font-size="10.00"> </text>
</a>
</g>
</g>
<!-- Node2&#45;&gt;Node1 -->
<g id="edge1" class="edge">
<title>Node2&#45;&gt;Node1</title>
<path fill="none" stroke="midnightblue" d="M376,-855.08C376,-847.15 376,-838.27 376,-828.73"/>
<polygon fill="none" stroke="midnightblue" points="372.5,-855.27 376,-865.27 379.5,-855.27 372.5,-855.27"/>
</g>
<!-- Node5 -->
<g id="node5" class="node">
<title>Node5</title>
<g id="a_node5"><a xlink:href="class_farmer_pollution.html" target="_top" xlink:title=" ">
<polygon fill="white" stroke="black" points="157,-0.5 157,-79.5 267,-79.5 267,-0.5 157,-0.5"/>
<text text-anchor="middle" x="212" y="-67.5" font-family="Helvetica,sans-Serif" font-size="10.00">FarmerPollution</text>
<polyline fill="none" stroke="black" points="157,-60.5 267,-60.5 "/>
<text text-anchor="start" x="165" y="-48.5" font-family="Helvetica,sans-Serif" font-size="10.00">+ bool isPollution</text>
<text text-anchor="start" x="165" y="-37.5" font-family="Helvetica,sans-Serif" font-size="10.00">+ int pollutionProduct</text>
<polyline fill="none" stroke="black" points="157,-30.5 267,-30.5 "/>
<text text-anchor="start" x="165" y="-18.5" font-family="Helvetica,sans-Serif" font-size="10.00">+ override void Start()</text>
<text text-anchor="start" x="165" y="-7.5" font-family="Helvetica,sans-Serif" font-size="10.00"># override void Work()</text>
</a>
</g>
</g>
<!-- Node4&#45;&gt;Node5 -->
<g id="edge4" class="edge">
<title>Node4&#45;&gt;Node5</title>
<path fill="none" stroke="midnightblue" d="M212,-133.65C212,-114.34 212,-95.43 212,-79.79"/>
<polygon fill="none" stroke="midnightblue" points="208.5,-133.78 212,-143.78 215.5,-133.78 208.5,-133.78"/>
</g>
</g>
</svg>
