<?xml version="1.0" encoding="UTF-8" standalone="no"?>
<!DOCTYPE svg PUBLIC "-//W3C//DTD SVG 1.1//EN"
 "http://www.w3.org/Graphics/SVG/1.1/DTD/svg11.dtd">
<!-- Generated by graphviz version 2.47.1 (20210417.1919)
 -->
<!-- Title: UI.Online.FarmerDispatchUIOnline Pages: 1 -->
<svg width="563pt" height="1450pt"
 viewBox="0.00 0.00 563.00 1450.00" xmlns="http://www.w3.org/2000/svg" xmlns:xlink="http://www.w3.org/1999/xlink">
<g id="graph0" class="graph" transform="scale(1 1) rotate(0) translate(4 1446)">
<title>UI.Online.FarmerDispatchUIOnline</title>
<polygon fill="white" stroke="transparent" points="-4,4 -4,-1446 559,-1446 559,4 -4,4"/>
<!-- Node1 -->
<g id="node1" class="node">
<title>Node1</title>
<g id="a_node1"><a xlink:title=" ">
<polygon fill="#bfbfbf" stroke="black" points="0,-376 0,-499 130,-499 130,-376 0,-376"/>
<text text-anchor="start" x="8" y="-487" font-family="Helvetica,sans-Serif" font-size="10.00">UI.Online.FarmerDispatch</text>
<text text-anchor="middle" x="65" y="-476" font-family="Helvetica,sans-Serif" font-size="10.00">UIOnline</text>
<polyline fill="none" stroke="black" points="0,-469 130,-469 "/>
<text text-anchor="middle" x="65" y="-457" font-family="Helvetica,sans-Serif" font-size="10.00"> </text>
<polyline fill="none" stroke="black" points="0,-450 130,-450 "/>
<text text-anchor="start" x="8" y="-438" font-family="Helvetica,sans-Serif" font-size="10.00">+ void DispatchFood(bool</text>
<text text-anchor="start" x="8" y="-427" font-family="Helvetica,sans-Serif" font-size="10.00"> isAdd)</text>
<text text-anchor="start" x="8" y="-416" font-family="Helvetica,sans-Serif" font-size="10.00">+ void DispatchGold(bool</text>
<text text-anchor="start" x="8" y="-405" font-family="Helvetica,sans-Serif" font-size="10.00"> isAdd)</text>
<text text-anchor="start" x="8" y="-394" font-family="Helvetica,sans-Serif" font-size="10.00">+ void DispatchWood(bool</text>
<text text-anchor="start" x="8" y="-383" font-family="Helvetica,sans-Serif" font-size="10.00"> isAdd)</text>
</a>
</g>
</g>
<!-- Node2 -->
<g id="node2" class="node">
<title>Node2</title>
<g id="a_node2"><a xlink:title=" ">
<polygon fill="white" stroke="#bfbfbf" points="15,-987 15,-1044 115,-1044 115,-987 15,-987"/>
<text text-anchor="middle" x="65" y="-1032" font-family="Helvetica,sans-Serif" font-size="10.00">MonoBehaviourPun</text>
<polyline fill="none" stroke="#bfbfbf" points="15,-1025 115,-1025 "/>
<text text-anchor="middle" x="65" y="-1013" font-family="Helvetica,sans-Serif" font-size="10.00"> </text>
<polyline fill="none" stroke="#bfbfbf" points="15,-1006 115,-1006 "/>
<text text-anchor="middle" x="65" y="-994" font-family="Helvetica,sans-Serif" font-size="10.00"> </text>
</a>
</g>
</g>
<!-- Node2&#45;&gt;Node1 -->
<g id="edge1" class="edge">
<title>Node2&#45;&gt;Node1</title>
<path fill="none" stroke="midnightblue" d="M65,-976.43C65,-878.67 65,-618.21 65,-499.27"/>
<polygon fill="none" stroke="midnightblue" points="61.5,-976.72 65,-986.72 68.5,-976.72 61.5,-976.72"/>
</g>
<!-- Node3 -->
<g id="node3" class="node">
<title>Node3</title>
<g id="a_node3"><a xlink:href="class_player_1_1_player.html" target="_top" xlink:title="玩家">
<polygon fill="white" stroke="black" points="159,-684.5 159,-1346.5 359,-1346.5 359,-684.5 159,-684.5"/>
<text text-anchor="middle" x="259" y="-1334.5" font-family="Helvetica,sans-Serif" font-size="10.00">Player.Player</text>
<polyline fill="none" stroke="black" points="159,-1327.5 359,-1327.5 "/>
<text text-anchor="start" x="167" y="-1315.5" font-family="Helvetica,sans-Serif" font-size="10.00">+ UnityEvent playerDeadEvent</text>
<text text-anchor="start" x="167" y="-1304.5" font-family="Helvetica,sans-Serif" font-size="10.00">+ UnityAction updateEventHandler</text>
<text text-anchor="start" x="167" y="-1293.5" font-family="Helvetica,sans-Serif" font-size="10.00">+ bool enableFarmer</text>
<text text-anchor="start" x="167" y="-1282.5" font-family="Helvetica,sans-Serif" font-size="10.00">+ Transform[] resourceTransform</text>
<text text-anchor="start" x="167" y="-1271.5" font-family="Helvetica,sans-Serif" font-size="10.00">+ int[] resourceProduct</text>
<text text-anchor="start" x="167" y="-1260.5" font-family="Helvetica,sans-Serif" font-size="10.00">+ float resourceProducingTime</text>
<text text-anchor="start" x="167" y="-1249.5" font-family="Helvetica,sans-Serif" font-size="10.00">+ bool isEnemy</text>
<text text-anchor="start" x="167" y="-1238.5" font-family="Helvetica,sans-Serif" font-size="10.00">+ int[] availableUnits</text>
<text text-anchor="start" x="167" y="-1227.5" font-family="Helvetica,sans-Serif" font-size="10.00">+ List&lt; Unit &gt; UnitsList</text>
<text text-anchor="start" x="167" y="-1216.5" font-family="Helvetica,sans-Serif" font-size="10.00">+ int HP</text>
<text text-anchor="start" x="167" y="-1205.5" font-family="Helvetica,sans-Serif" font-size="10.00">+ int Food</text>
<text text-anchor="start" x="167" y="-1194.5" font-family="Helvetica,sans-Serif" font-size="10.00">+ int Wood</text>
<text text-anchor="start" x="167" y="-1183.5" font-family="Helvetica,sans-Serif" font-size="10.00">+ int Gold</text>
<text text-anchor="start" x="167" y="-1172.5" font-family="Helvetica,sans-Serif" font-size="10.00">+ Transform Top</text>
<text text-anchor="start" x="167" y="-1161.5" font-family="Helvetica,sans-Serif" font-size="10.00">+ Transform Mid</text>
<text text-anchor="start" x="167" y="-1150.5" font-family="Helvetica,sans-Serif" font-size="10.00">+ Transform Bot</text>
<text text-anchor="start" x="167" y="-1139.5" font-family="Helvetica,sans-Serif" font-size="10.00">+ int MaxFarmerNumber</text>
<text text-anchor="start" x="167" y="-1128.5" font-family="Helvetica,sans-Serif" font-size="10.00">+ int FarmerCount</text>
<text text-anchor="start" x="167" y="-1117.5" font-family="Helvetica,sans-Serif" font-size="10.00">+ int DispatchableFarmer</text>
<text text-anchor="start" x="167" y="-1106.5" font-family="Helvetica,sans-Serif" font-size="10.00">+ int[] RoadFarmers</text>
<text text-anchor="start" x="167" y="-1095.5" font-family="Helvetica,sans-Serif" font-size="10.00">+ int[] RoadWorkingFarmers</text>
<polyline fill="none" stroke="black" points="159,-1088.5 359,-1088.5 "/>
<text text-anchor="start" x="167" y="-1076.5" font-family="Helvetica,sans-Serif" font-size="10.00">+ virtual void UpdateLocal</text>
<text text-anchor="start" x="167" y="-1065.5" font-family="Helvetica,sans-Serif" font-size="10.00">PlayerProperties()</text>
<text text-anchor="start" x="167" y="-1054.5" font-family="Helvetica,sans-Serif" font-size="10.00">+ virtual void ChangeResource</text>
<text text-anchor="start" x="167" y="-1043.5" font-family="Helvetica,sans-Serif" font-size="10.00">(GameResourceType gameResourceType,</text>
<text text-anchor="start" x="167" y="-1032.5" font-family="Helvetica,sans-Serif" font-size="10.00"> int count)</text>
<text text-anchor="start" x="167" y="-1021.5" font-family="Helvetica,sans-Serif" font-size="10.00">+ bool IsEnoughForUnit</text>
<text text-anchor="start" x="167" y="-1010.5" font-family="Helvetica,sans-Serif" font-size="10.00">(Unit unit)</text>
<text text-anchor="start" x="167" y="-999.5" font-family="Helvetica,sans-Serif" font-size="10.00">+ bool IsEnoughForUnit</text>
<text text-anchor="start" x="167" y="-988.5" font-family="Helvetica,sans-Serif" font-size="10.00">(Unit unit, GameResourceType</text>
<text text-anchor="start" x="167" y="-977.5" font-family="Helvetica,sans-Serif" font-size="10.00"> gameResourceType)</text>
<text text-anchor="start" x="167" y="-966.5" font-family="Helvetica,sans-Serif" font-size="10.00">+ virtual void AddFarmer</text>
<text text-anchor="start" x="167" y="-955.5" font-family="Helvetica,sans-Serif" font-size="10.00">(GameResourceType rs)</text>
<text text-anchor="start" x="167" y="-944.5" font-family="Helvetica,sans-Serif" font-size="10.00">+ virtual void SubtractFarmer</text>
<text text-anchor="start" x="167" y="-933.5" font-family="Helvetica,sans-Serif" font-size="10.00">(GameResourceType rs)</text>
<text text-anchor="start" x="167" y="-922.5" font-family="Helvetica,sans-Serif" font-size="10.00">+ void InstantiateFarmer</text>
<text text-anchor="start" x="167" y="-911.5" font-family="Helvetica,sans-Serif" font-size="10.00">(Road rd, Transform transform,</text>
<text text-anchor="start" x="167" y="-900.5" font-family="Helvetica,sans-Serif" font-size="10.00"> int resourceCarried)</text>
<text text-anchor="start" x="167" y="-889.5" font-family="Helvetica,sans-Serif" font-size="10.00">+ void FarmerBack(Farmer</text>
<text text-anchor="start" x="167" y="-878.5" font-family="Helvetica,sans-Serif" font-size="10.00"> farmer, Transform tr)</text>
<text text-anchor="start" x="167" y="-867.5" font-family="Helvetica,sans-Serif" font-size="10.00">+ int CountUnits(UnitType</text>
<text text-anchor="start" x="167" y="-856.5" font-family="Helvetica,sans-Serif" font-size="10.00"> type)</text>
<text text-anchor="start" x="167" y="-845.5" font-family="Helvetica,sans-Serif" font-size="10.00">+ void SetUnits(Vector3</text>
<text text-anchor="start" x="167" y="-834.5" font-family="Helvetica,sans-Serif" font-size="10.00"> tr, int chosenUnit,</text>
<text text-anchor="start" x="167" y="-823.5" font-family="Helvetica,sans-Serif" font-size="10.00"> Road rd, int number)</text>
<text text-anchor="start" x="167" y="-812.5" font-family="Helvetica,sans-Serif" font-size="10.00">+ void SetUnits(Vector3</text>
<text text-anchor="start" x="167" y="-801.5" font-family="Helvetica,sans-Serif" font-size="10.00"> tr, int chosenUnit,</text>
<text text-anchor="start" x="167" y="-790.5" font-family="Helvetica,sans-Serif" font-size="10.00"> Road rd, int number,</text>
<text text-anchor="start" x="167" y="-779.5" font-family="Helvetica,sans-Serif" font-size="10.00"> Vector3 oriVelocity)</text>
<text text-anchor="start" x="167" y="-768.5" font-family="Helvetica,sans-Serif" font-size="10.00">+ virtual void Instantiate</text>
<text text-anchor="start" x="167" y="-757.5" font-family="Helvetica,sans-Serif" font-size="10.00">Unit(int chosenUnit, Road</text>
<text text-anchor="start" x="167" y="-746.5" font-family="Helvetica,sans-Serif" font-size="10.00"> rd, Vector3 oriPoint)</text>
<text text-anchor="start" x="167" y="-735.5" font-family="Helvetica,sans-Serif" font-size="10.00">+ virtual void Instantiate</text>
<text text-anchor="start" x="167" y="-724.5" font-family="Helvetica,sans-Serif" font-size="10.00">Unit(int chosenUnit, Road</text>
<text text-anchor="start" x="167" y="-713.5" font-family="Helvetica,sans-Serif" font-size="10.00"> rd, Vector3 oriPoint, Vector3</text>
<text text-anchor="start" x="167" y="-702.5" font-family="Helvetica,sans-Serif" font-size="10.00"> oriVelocity)</text>
<text text-anchor="start" x="167" y="-691.5" font-family="Helvetica,sans-Serif" font-size="10.00"># virtual void Start()</text>
</a>
</g>
</g>
<!-- Node3&#45;&gt;Node1 -->
<g id="edge2" class="edge">
<title>Node3&#45;&gt;Node1</title>
<path fill="none" stroke="#404040" d="M158.82,-766.91C147.2,-738.89 135.42,-710.8 124,-684 120.57,-675.95 118.75,-674.31 116,-666 99.24,-615.31 86.21,-556.46 77.52,-511.31"/>
<polygon fill="none" stroke="#404040" points="77.47,-511.05 72.42,-505.9 75.24,-499.26 80.28,-504.41 77.47,-511.05"/>
<text text-anchor="middle" x="134" y="-658" font-family="Helvetica,sans-Serif" font-size="10.00"> +player</text>
</g>
<!-- Node6 -->
<g id="node6" class="node">
<title>Node6</title>
<g id="a_node6"><a xlink:href="class_units_1_1_unit.html" target="_top" xlink:title="单位">
<polygon fill="white" stroke="black" points="312,-238.5 312,-636.5 478,-636.5 478,-238.5 312,-238.5"/>
<text text-anchor="middle" x="395" y="-624.5" font-family="Helvetica,sans-Serif" font-size="10.00">Unit</text>
<polyline fill="none" stroke="black" points="312,-617.5 478,-617.5 "/>
<text text-anchor="start" x="320" y="-605.5" font-family="Helvetica,sans-Serif" font-size="10.00">+ int defence</text>
<text text-anchor="start" x="320" y="-594.5" font-family="Helvetica,sans-Serif" font-size="10.00">+ bool isUnmovable</text>
<text text-anchor="start" x="320" y="-583.5" font-family="Helvetica,sans-Serif" font-size="10.00">+ int playerOwnMax</text>
<text text-anchor="start" x="320" y="-572.5" font-family="Helvetica,sans-Serif" font-size="10.00">+ Rigidbody unitRigidbody</text>
<text text-anchor="start" x="320" y="-561.5" font-family="Helvetica,sans-Serif" font-size="10.00">+ Road road</text>
<text text-anchor="start" x="320" y="-550.5" font-family="Helvetica,sans-Serif" font-size="10.00">+ UnitType unitType</text>
<text text-anchor="start" x="320" y="-539.5" font-family="Helvetica,sans-Serif" font-size="10.00">+ int costFood</text>
<text text-anchor="start" x="320" y="-528.5" font-family="Helvetica,sans-Serif" font-size="10.00">+ int costWood</text>
<text text-anchor="start" x="320" y="-517.5" font-family="Helvetica,sans-Serif" font-size="10.00">+ int costGold</text>
<text text-anchor="start" x="320" y="-506.5" font-family="Helvetica,sans-Serif" font-size="10.00">+ bool isDieImmediately</text>
<text text-anchor="start" x="320" y="-495.5" font-family="Helvetica,sans-Serif" font-size="10.00">+ int deathReward</text>
<text text-anchor="start" x="320" y="-484.5" font-family="Helvetica,sans-Serif" font-size="10.00">+ UnityEvent&lt; GameObject,</text>
<text text-anchor="start" x="320" y="-473.5" font-family="Helvetica,sans-Serif" font-size="10.00"> Transform &gt; navStopEventHandler</text>
<text text-anchor="start" x="320" y="-462.5" font-family="Helvetica,sans-Serif" font-size="10.00">+ UnityEvent&lt; Player.Player,</text>
<text text-anchor="start" x="320" y="-451.5" font-family="Helvetica,sans-Serif" font-size="10.00"> IMilitaryUnit &gt; UnitDeathEvent</text>
<text text-anchor="start" x="320" y="-440.5" font-family="Helvetica,sans-Serif" font-size="10.00">Handler</text>
<text text-anchor="start" x="320" y="-429.5" font-family="Helvetica,sans-Serif" font-size="10.00">+ int??? HP</text>
<text text-anchor="start" x="320" y="-418.5" font-family="Helvetica,sans-Serif" font-size="10.00">+ float Speed</text>
<text text-anchor="start" x="320" y="-407.5" font-family="Helvetica,sans-Serif" font-size="10.00">+ Transform InitTarget</text>
<text text-anchor="start" x="320" y="-396.5" font-family="Helvetica,sans-Serif" font-size="10.00">+ bool IsAtEnemyDoor</text>
<text text-anchor="start" x="320" y="-385.5" font-family="Helvetica,sans-Serif" font-size="10.00"># bool Death</text>
<text text-anchor="start" x="320" y="-374.5" font-family="Helvetica,sans-Serif" font-size="10.00"># UnityEvent StartEventHandler</text>
<text text-anchor="start" x="320" y="-363.5" font-family="Helvetica,sans-Serif" font-size="10.00"># UnityEvent&lt; IMilitaryUnit</text>
<text text-anchor="start" x="320" y="-352.5" font-family="Helvetica,sans-Serif" font-size="10.00"> &gt; BeAttackedEventHandler</text>
<polyline fill="none" stroke="black" points="312,-345.5 478,-345.5 "/>
<text text-anchor="start" x="320" y="-333.5" font-family="Helvetica,sans-Serif" font-size="10.00">+ virtual void Start()</text>
<text text-anchor="start" x="320" y="-322.5" font-family="Helvetica,sans-Serif" font-size="10.00">+ virtual void Update()</text>
<text text-anchor="start" x="320" y="-311.5" font-family="Helvetica,sans-Serif" font-size="10.00">+ virtual void BeAttacked</text>
<text text-anchor="start" x="320" y="-300.5" font-family="Helvetica,sans-Serif" font-size="10.00">(IMilitaryUnit attacker)</text>
<text text-anchor="start" x="320" y="-289.5" font-family="Helvetica,sans-Serif" font-size="10.00"># virtual void Awake()</text>
<text text-anchor="start" x="320" y="-278.5" font-family="Helvetica,sans-Serif" font-size="10.00"># void Goto(Transform tr)</text>
<text text-anchor="start" x="320" y="-267.5" font-family="Helvetica,sans-Serif" font-size="10.00"># static float GetTwoPoint</text>
<text text-anchor="start" x="320" y="-256.5" font-family="Helvetica,sans-Serif" font-size="10.00">DistanceOnNav(Vector3</text>
<text text-anchor="start" x="320" y="-245.5" font-family="Helvetica,sans-Serif" font-size="10.00"> oriPoint, Vector3 targetPoint)</text>
</a>
</g>
</g>
<!-- Node3&#45;&gt;Node6 -->
<g id="edge7" class="edge">
<title>Node3&#45;&gt;Node6</title>
<path fill="none" stroke="#404040" d="M310.79,-684.4C313.11,-674.47 315.51,-664.65 318,-655 318.56,-652.81 319.14,-650.62 319.73,-648.41"/>
<polygon fill="none" stroke="#404040" points="319.8,-648.14 317.53,-641.29 322.98,-636.57 325.25,-643.41 319.8,-648.14"/>
<text text-anchor="middle" x="345.5" y="-658" font-family="Helvetica,sans-Serif" font-size="10.00"> +sidePlayer</text>
</g>
<!-- Node4 -->
<g id="node4" class="node">
<title>Node4</title>
<g id="a_node4"><a xlink:title=" ">
<polygon fill="white" stroke="#bfbfbf" points="281.5,-1384.5 281.5,-1441.5 364.5,-1441.5 364.5,-1384.5 281.5,-1384.5"/>
<text text-anchor="middle" x="323" y="-1429.5" font-family="Helvetica,sans-Serif" font-size="10.00">MonoBehaviour</text>
<polyline fill="none" stroke="#bfbfbf" points="281.5,-1422.5 364.5,-1422.5 "/>
<text text-anchor="middle" x="323" y="-1410.5" font-family="Helvetica,sans-Serif" font-size="10.00"> </text>
<polyline fill="none" stroke="#bfbfbf" points="281.5,-1403.5 364.5,-1403.5 "/>
<text text-anchor="middle" x="323" y="-1391.5" font-family="Helvetica,sans-Serif" font-size="10.00"> </text>
</a>
</g>
</g>
<!-- Node4&#45;&gt;Node3 -->
<g id="edge3" class="edge">
<title>Node4&#45;&gt;Node3</title>
<path fill="none" stroke="midnightblue" d="M316.87,-1374.12C315.55,-1365.98 314.06,-1356.75 312.43,-1346.68"/>
<polygon fill="none" stroke="midnightblue" points="313.45,-1374.88 318.5,-1384.19 320.36,-1373.76 313.45,-1374.88"/>
</g>
<!-- Node4&#45;&gt;Node6 -->
<g id="edge6" class="edge">
<title>Node4&#45;&gt;Node6</title>
<path fill="none" stroke="midnightblue" d="M353.15,-1376.2C359.17,-1367.19 364.65,-1357.18 368,-1347 409.74,-1220.05 408.06,-863.4 402.15,-636.56"/>
<polygon fill="none" stroke="midnightblue" points="350.2,-1374.31 347.28,-1384.49 355.91,-1378.35 350.2,-1374.31"/>
</g>
<!-- Node5 -->
<g id="node5" class="node">
<title>Node5</title>
<g id="a_node5"><a xlink:href="class_units_1_1_farmer.html" target="_top" xlink:title="农民">
<polygon fill="white" stroke="black" points="128.5,-0.5 128.5,-200.5 279.5,-200.5 279.5,-0.5 128.5,-0.5"/>
<text text-anchor="middle" x="204" y="-188.5" font-family="Helvetica,sans-Serif" font-size="10.00">Units.Farmer</text>
<polyline fill="none" stroke="black" points="128.5,-181.5 279.5,-181.5 "/>
<text text-anchor="start" x="136.5" y="-169.5" font-family="Helvetica,sans-Serif" font-size="10.00">+ float workTime</text>
<text text-anchor="start" x="136.5" y="-158.5" font-family="Helvetica,sans-Serif" font-size="10.00">+ int[] maxLoad</text>
<text text-anchor="start" x="136.5" y="-147.5" font-family="Helvetica,sans-Serif" font-size="10.00">+ UnityAction&lt; Farmer,</text>
<text text-anchor="start" x="136.5" y="-136.5" font-family="Helvetica,sans-Serif" font-size="10.00"> Transform &gt; farmerBackEvent</text>
<text text-anchor="start" x="136.5" y="-125.5" font-family="Helvetica,sans-Serif" font-size="10.00">Handler</text>
<text text-anchor="start" x="136.5" y="-114.5" font-family="Helvetica,sans-Serif" font-size="10.00">+ int ResouceCarried</text>
<text text-anchor="start" x="136.5" y="-103.5" font-family="Helvetica,sans-Serif" font-size="10.00"># Transform _home</text>
<text text-anchor="start" x="136.5" y="-92.5" font-family="Helvetica,sans-Serif" font-size="10.00"># Transform _targerResource</text>
<polyline fill="none" stroke="black" points="128.5,-85.5 279.5,-85.5 "/>
<text text-anchor="start" x="136.5" y="-73.5" font-family="Helvetica,sans-Serif" font-size="10.00">+ override void Start()</text>
<text text-anchor="start" x="136.5" y="-62.5" font-family="Helvetica,sans-Serif" font-size="10.00"># void OnNavStop(GameObject</text>
<text text-anchor="start" x="136.5" y="-51.5" font-family="Helvetica,sans-Serif" font-size="10.00"> gm, Transform tr)</text>
<text text-anchor="start" x="136.5" y="-40.5" font-family="Helvetica,sans-Serif" font-size="10.00"># void GenerateWorkPath()</text>
<text text-anchor="start" x="136.5" y="-29.5" font-family="Helvetica,sans-Serif" font-size="10.00"># virtual void Work()</text>
<text text-anchor="start" x="136.5" y="-18.5" font-family="Helvetica,sans-Serif" font-size="10.00"># void Drop(Farmer farmer,</text>
<text text-anchor="start" x="136.5" y="-7.5" font-family="Helvetica,sans-Serif" font-size="10.00"> Transform tr)</text>
</a>
</g>
</g>
<!-- Node5&#45;&gt;Node3 -->
<g id="edge4" class="edge">
<title>Node5&#45;&gt;Node3</title>
<path fill="none" stroke="#404040" d="M184.47,-200.76C182.63,-213.25 181.06,-225.89 180,-238 164.59,-414.66 161.74,-460.61 180,-637 181.21,-648.68 182.62,-660.52 184.21,-672.46"/>
<polygon fill="none" stroke="#404040" points="184.22,-672.54 189,-677.94 185.85,-684.43 181.07,-679.03 184.22,-672.54"/>
<text text-anchor="middle" x="212" y="-435" font-family="Helvetica,sans-Serif" font-size="10.00"> +farmerPrefab</text>
</g>
<!-- Node6&#45;&gt;Node5 -->
<g id="edge5" class="edge">
<title>Node6&#45;&gt;Node5</title>
<path fill="none" stroke="midnightblue" d="M306.99,-253.72C304,-248.4 301.01,-243.14 298,-238 290.81,-225.7 282.89,-213.06 274.79,-200.66"/>
<polygon fill="none" stroke="midnightblue" points="304.08,-255.7 311.98,-262.75 310.2,-252.31 304.08,-255.7"/>
</g>
<!-- Node8 -->
<g id="node8" class="node">
<title>Node8</title>
<g id="a_node8"><a xlink:href="class_units_1_1_door.html" target="_top" xlink:title="基地门">
<polygon fill="white" stroke="black" points="317,-66.5 317,-134.5 435,-134.5 435,-66.5 317,-66.5"/>
<text text-anchor="middle" x="376" y="-122.5" font-family="Helvetica,sans-Serif" font-size="10.00">Units.Door</text>
<polyline fill="none" stroke="black" points="317,-115.5 435,-115.5 "/>
<text text-anchor="middle" x="376" y="-103.5" font-family="Helvetica,sans-Serif" font-size="10.00"> </text>
<polyline fill="none" stroke="black" points="317,-96.5 435,-96.5 "/>
<text text-anchor="start" x="325" y="-84.5" font-family="Helvetica,sans-Serif" font-size="10.00">+ override void Start()</text>
<text text-anchor="start" x="325" y="-73.5" font-family="Helvetica,sans-Serif" font-size="10.00">+ override void Update()</text>
</a>
</g>
</g>
<!-- Node6&#45;&gt;Node8 -->
<g id="edge10" class="edge">
<title>Node6&#45;&gt;Node8</title>
<path fill="none" stroke="midnightblue" d="M383.17,-227.92C381.11,-191.57 379.2,-157.97 377.87,-134.56"/>
<polygon fill="none" stroke="midnightblue" points="379.69,-228.45 383.76,-238.24 386.68,-228.06 379.69,-228.45"/>
</g>
<!-- Node7 -->
<g id="node7" class="node">
<title>Node7</title>
<g id="a_node7"><a xlink:href="interface_units_1_1_i_military_unit.html" target="_top" xlink:title="攻击性单位接口">
<polygon fill="white" stroke="black" points="415,-926.5 415,-1104.5 555,-1104.5 555,-926.5 415,-926.5"/>
<text text-anchor="middle" x="485" y="-1092.5" font-family="Helvetica,sans-Serif" font-size="10.00">Units.IMilitaryUnit</text>
<polyline fill="none" stroke="black" points="415,-1085.5 555,-1085.5 "/>
<text text-anchor="start" x="423" y="-1073.5" font-family="Helvetica,sans-Serif" font-size="10.00">+ int AttackValue</text>
<text text-anchor="start" x="423" y="-1062.5" font-family="Helvetica,sans-Serif" font-size="10.00">+ float AttackColdDownTime</text>
<text text-anchor="start" x="423" y="-1051.5" font-family="Helvetica,sans-Serif" font-size="10.00">+ float AttackRange</text>
<text text-anchor="start" x="423" y="-1040.5" font-family="Helvetica,sans-Serif" font-size="10.00">+ int DefenceValue</text>
<text text-anchor="start" x="423" y="-1029.5" font-family="Helvetica,sans-Serif" font-size="10.00">+ float SpeedValue</text>
<text text-anchor="start" x="423" y="-1018.5" font-family="Helvetica,sans-Serif" font-size="10.00">+ Vector3 OriginalVelocity</text>
<text text-anchor="start" x="423" y="-1007.5" font-family="Helvetica,sans-Serif" font-size="10.00">+ Player.Player SidePlayer</text>
<text text-anchor="start" x="423" y="-996.5" font-family="Helvetica,sans-Serif" font-size="10.00">+ UnityEvent&lt; Unit &gt;</text>
<text text-anchor="start" x="423" y="-985.5" font-family="Helvetica,sans-Serif" font-size="10.00"> AttackEvent</text>
<text text-anchor="start" x="423" y="-974.5" font-family="Helvetica,sans-Serif" font-size="10.00">+ UnityEvent&lt; IMilitaryUnit</text>
<text text-anchor="start" x="423" y="-963.5" font-family="Helvetica,sans-Serif" font-size="10.00"> &gt; UnderAttackedEvent</text>
<polyline fill="none" stroke="black" points="415,-956.5 555,-956.5 "/>
<text text-anchor="start" x="423" y="-944.5" font-family="Helvetica,sans-Serif" font-size="10.00">+ void Attack()</text>
<text text-anchor="start" x="423" y="-933.5" font-family="Helvetica,sans-Serif" font-size="10.00">+ Unit GetUnit()</text>
</a>
</g>
</g>
<!-- Node7&#45;&gt;Node6 -->
<g id="edge8" class="edge">
<title>Node7&#45;&gt;Node6</title>
<path fill="none" stroke="#404040" d="M471.23,-926.39C459.71,-852.65 442.8,-744.41 427.83,-648.6"/>
<polygon fill="none" stroke="#404040" points="427.82,-648.54 422.94,-643.23 425.97,-636.68 430.84,-641.99 427.82,-648.54"/>
<text text-anchor="middle" x="454.5" y="-658" font-family="Helvetica,sans-Serif" font-size="10.00"> #_attacker</text>
</g>
<!-- Node8&#45;&gt;Node3 -->
<g id="edge9" class="edge">
<title>Node8&#45;&gt;Node3</title>
<path fill="none" stroke="#404040" d="M342.04,-134.76C318.32,-160.45 288.57,-198.24 275,-238 247.95,-317.29 243.39,-502.57 245.86,-672.26"/>
<polygon fill="none" stroke="#404040" points="245.86,-672.45 249.95,-678.39 246.05,-684.45 241.96,-678.51 245.86,-672.45"/>
<text text-anchor="middle" x="289" y="-435" font-family="Helvetica,sans-Serif" font-size="10.00"> +door</text>
</g>
</g>
</svg>
