<?xml version="1.0" encoding="UTF-8" standalone="no"?>
<!DOCTYPE svg PUBLIC "-//W3C//DTD SVG 1.1//EN"
 "http://www.w3.org/Graphics/SVG/1.1/DTD/svg11.dtd">
<!-- Generated by graphviz version 2.47.1 (20210417.1919)
 -->
<!-- Title: Video.VideoPlayerManager Pages: 1 -->
<svg width="235pt" height="507pt"
 viewBox="0.00 0.00 235.00 507.00" xmlns="http://www.w3.org/2000/svg" xmlns:xlink="http://www.w3.org/1999/xlink">
<g id="graph0" class="graph" transform="scale(1 1) rotate(0) translate(4 503)">
<title>Video.VideoPlayerManager</title>
<polygon fill="white" stroke="transparent" points="-4,4 -4,-503 231,-503 231,4 -4,4"/>
<!-- Node1 -->
<g id="node1" class="node">
<title>Node1</title>
<g id="a_node1"><a xlink:title="视频播放管理">
<polygon fill="#bfbfbf" stroke="black" points="0,-0.5 0,-101.5 134,-101.5 134,-0.5 0,-0.5"/>
<text text-anchor="middle" x="67" y="-89.5" font-family="Helvetica,sans-Serif" font-size="10.00">Video.VideoPlayerManager</text>
<polyline fill="none" stroke="black" points="0,-82.5 134,-82.5 "/>
<text text-anchor="start" x="8" y="-70.5" font-family="Helvetica,sans-Serif" font-size="10.00">+ VideoPlayer videoPlayer</text>
<text text-anchor="start" x="8" y="-59.5" font-family="Helvetica,sans-Serif" font-size="10.00">+ RawImage rawImage</text>
<text text-anchor="start" x="8" y="-48.5" font-family="Helvetica,sans-Serif" font-size="10.00">+ string videoClipName</text>
<polyline fill="none" stroke="black" points="0,-41.5 134,-41.5 "/>
<text text-anchor="start" x="8" y="-29.5" font-family="Helvetica,sans-Serif" font-size="10.00">+ void Play()</text>
<text text-anchor="start" x="8" y="-18.5" font-family="Helvetica,sans-Serif" font-size="10.00">+ void Pause()</text>
<text text-anchor="start" x="8" y="-7.5" font-family="Helvetica,sans-Serif" font-size="10.00">+ void Stop()</text>
</a>
</g>
</g>
<!-- Node2 -->
<g id="node2" class="node">
<title>Node2</title>
<g id="a_node2"><a xlink:title=" ">
<polygon fill="white" stroke="#bfbfbf" points="22.5,-441.5 22.5,-498.5 105.5,-498.5 105.5,-441.5 22.5,-441.5"/>
<text text-anchor="middle" x="64" y="-486.5" font-family="Helvetica,sans-Serif" font-size="10.00">MonoBehaviour</text>
<polyline fill="none" stroke="#bfbfbf" points="22.5,-479.5 105.5,-479.5 "/>
<text text-anchor="middle" x="64" y="-467.5" font-family="Helvetica,sans-Serif" font-size="10.00"> </text>
<polyline fill="none" stroke="#bfbfbf" points="22.5,-460.5 105.5,-460.5 "/>
<text text-anchor="middle" x="64" y="-448.5" font-family="Helvetica,sans-Serif" font-size="10.00"> </text>
</a>
</g>
</g>
<!-- Node2&#45;&gt;Node1 -->
<g id="edge1" class="edge">
<title>Node2&#45;&gt;Node1</title>
<path fill="none" stroke="midnightblue" d="M64.27,-431.31C64.81,-355.87 66.03,-186.3 66.64,-101.81"/>
<polygon fill="none" stroke="midnightblue" points="60.77,-431.29 64.2,-441.32 67.77,-431.34 60.77,-431.29"/>
</g>
<!-- Node3 -->
<g id="node3" class="node">
<title>Node3</title>
<g id="a_node3"><a xlink:href="class_u_i_1_1_chinese_sports_1_1_battle_1_1_result_u_i.html" target="_top" xlink:title=" ">
<polygon fill="white" stroke="black" points="79,-149.5 79,-393.5 227,-393.5 227,-149.5 79,-149.5"/>
<text text-anchor="start" x="87" y="-381.5" font-family="Helvetica,sans-Serif" font-size="10.00">UI.ChineseSports.Battle.</text>
<text text-anchor="middle" x="153" y="-370.5" font-family="Helvetica,sans-Serif" font-size="10.00">ResultUI</text>
<polyline fill="none" stroke="black" points="79,-363.5 227,-363.5 "/>
<text text-anchor="start" x="87" y="-351.5" font-family="Helvetica,sans-Serif" font-size="10.00">+ bool isWin</text>
<text text-anchor="start" x="87" y="-340.5" font-family="Helvetica,sans-Serif" font-size="10.00">+ GameObject resultPanel</text>
<text text-anchor="start" x="87" y="-329.5" font-family="Helvetica,sans-Serif" font-size="10.00">+ GameObject winPanel</text>
<text text-anchor="start" x="87" y="-318.5" font-family="Helvetica,sans-Serif" font-size="10.00">+ GameObject losePanel</text>
<text text-anchor="start" x="87" y="-307.5" font-family="Helvetica,sans-Serif" font-size="10.00">+ List&lt; ItemDict &gt; itemDicts</text>
<text text-anchor="start" x="87" y="-296.5" font-family="Helvetica,sans-Serif" font-size="10.00">+ Image itemImage</text>
<text text-anchor="start" x="87" y="-285.5" font-family="Helvetica,sans-Serif" font-size="10.00">+ GameObject itemPanel</text>
<text text-anchor="start" x="87" y="-274.5" font-family="Helvetica,sans-Serif" font-size="10.00">+ GameObject root</text>
<text text-anchor="start" x="87" y="-263.5" font-family="Helvetica,sans-Serif" font-size="10.00">+ GameObject nextButton</text>
<text text-anchor="start" x="87" y="-252.5" font-family="Helvetica,sans-Serif" font-size="10.00">+ GameObject backButton</text>
<text text-anchor="start" x="87" y="-241.5" font-family="Helvetica,sans-Serif" font-size="10.00">+ GameObject videoManager</text>
<text text-anchor="start" x="87" y="-230.5" font-family="Helvetica,sans-Serif" font-size="10.00">+ UnityEvent onWinResultEnd</text>
<text text-anchor="start" x="87" y="-219.5" font-family="Helvetica,sans-Serif" font-size="10.00">+ int? CurState</text>
<polyline fill="none" stroke="black" points="79,-212.5 227,-212.5 "/>
<text text-anchor="start" x="87" y="-200.5" font-family="Helvetica,sans-Serif" font-size="10.00">+ void ShowResult()</text>
<text text-anchor="start" x="87" y="-189.5" font-family="Helvetica,sans-Serif" font-size="10.00">+ void BackToLobby()</text>
<text text-anchor="start" x="87" y="-178.5" font-family="Helvetica,sans-Serif" font-size="10.00">+ void BackToMap()</text>
<text text-anchor="start" x="87" y="-167.5" font-family="Helvetica,sans-Serif" font-size="10.00">+ void OnNextClick()</text>
<text text-anchor="start" x="87" y="-156.5" font-family="Helvetica,sans-Serif" font-size="10.00">+ void ShowButton()</text>
</a>
</g>
</g>
<!-- Node2&#45;&gt;Node3 -->
<g id="edge3" class="edge">
<title>Node2&#45;&gt;Node3</title>
<path fill="none" stroke="midnightblue" d="M80.84,-431.83C85.95,-420.54 91.87,-407.47 98.08,-393.76"/>
<polygon fill="none" stroke="midnightblue" points="77.5,-430.71 76.56,-441.26 83.88,-433.6 77.5,-430.71"/>
</g>
<!-- Node3&#45;&gt;Node1 -->
<g id="edge2" class="edge">
<title>Node3&#45;&gt;Node1</title>
<path fill="none" stroke="#404040" d="M105.35,-149.43C100.38,-136.8 95.49,-124.39 90.96,-112.87"/>
<polygon fill="none" stroke="#404040" points="90.95,-112.84 85.03,-108.73 86.55,-101.68 92.47,-105.8 90.95,-112.84"/>
<text text-anchor="middle" x="118.5" y="-123" font-family="Helvetica,sans-Serif" font-size="10.00"> +resultUI</text>
</g>
<!-- Node4 -->
<g id="node4" class="node">
<title>Node4</title>
<g id="a_node4"><a xlink:title=" ">
<polygon fill="white" stroke="#bfbfbf" points="135.5,-441.5 135.5,-498.5 170.5,-498.5 170.5,-441.5 135.5,-441.5"/>
<text text-anchor="middle" x="153" y="-486.5" font-family="Helvetica,sans-Serif" font-size="10.00">Text</text>
<polyline fill="none" stroke="#bfbfbf" points="135.5,-479.5 170.5,-479.5 "/>
<text text-anchor="middle" x="153" y="-467.5" font-family="Helvetica,sans-Serif" font-size="10.00"> </text>
<polyline fill="none" stroke="#bfbfbf" points="135.5,-460.5 170.5,-460.5 "/>
<text text-anchor="middle" x="153" y="-448.5" font-family="Helvetica,sans-Serif" font-size="10.00"> </text>
</a>
</g>
</g>
<!-- Node4&#45;&gt;Node3 -->
<g id="edge4" class="edge">
<title>Node4&#45;&gt;Node3</title>
<path fill="none" stroke="#404040" d="M153,-441.26C153,-431.22 153,-419.1 153,-406.01"/>
<polygon fill="none" stroke="#404040" points="153,-405.76 149,-399.76 153,-393.76 157,-399.76 153,-405.76"/>
<text text-anchor="middle" x="189.5" y="-415" font-family="Helvetica,sans-Serif" font-size="10.00"> +itemNameText</text>
</g>
</g>
</svg>
