<?xml version="1.0" encoding="UTF-8" standalone="no"?>
<!DOCTYPE svg PUBLIC "-//W3C//DTD SVG 1.1//EN"
 "http://www.w3.org/Graphics/SVG/1.1/DTD/svg11.dtd">
<!-- Generated by graphviz version 2.47.1 (20210417.1919)
 -->
<!-- Title: GameManager.GameManager.PlayerLose Pages: 1 -->
<svg width="478pt" height="39pt"
 viewBox="0.00 0.00 478.00 39.00" xmlns="http://www.w3.org/2000/svg" xmlns:xlink="http://www.w3.org/1999/xlink">
<g id="graph0" class="graph" transform="scale(1 1) rotate(0) translate(4 35)">
<title>GameManager.GameManager.PlayerLose</title>
<polygon fill="white" stroke="transparent" points="-4,4 -4,-35 474,-35 474,4 -4,4"/>
<!-- Node1 -->
<g id="node1" class="node">
<title>Node1</title>
<g id="a_node1"><a xlink:title="我方失败">
<polygon fill="#bfbfbf" stroke="black" points="0,-0.5 0,-30.5 150,-30.5 150,-0.5 0,-0.5"/>
<text text-anchor="start" x="8" y="-18.5" font-family="Helvetica,sans-Serif" font-size="10.00">GameManager.GameManager.</text>
<text text-anchor="middle" x="75" y="-7.5" font-family="Helvetica,sans-Serif" font-size="10.00">PlayerLose</text>
</a>
</g>
</g>
<!-- Node2 -->
<g id="node2" class="node">
<title>Node2</title>
<g id="a_node2"><a xlink:href="class_u_i_1_1_chinese_sports_1_1_battle_1_1_result_u_i.html#aee0048338efe9f7d4867ec3a61e7aae4" target="_top" xlink:title=" ">
<polygon fill="white" stroke="black" points="186,-0.5 186,-30.5 310,-30.5 310,-0.5 186,-0.5"/>
<text text-anchor="start" x="194" y="-18.5" font-family="Helvetica,sans-Serif" font-size="10.00">UI.ChineseSports.Battle.</text>
<text text-anchor="middle" x="248" y="-7.5" font-family="Helvetica,sans-Serif" font-size="10.00">ResultUI.ShowResult</text>
</a>
</g>
</g>
<!-- Node1&#45;&gt;Node2 -->
<g id="edge1" class="edge">
<title>Node1&#45;&gt;Node2</title>
<path fill="none" stroke="midnightblue" d="M150.01,-15.5C158.54,-15.5 167.23,-15.5 175.73,-15.5"/>
<polygon fill="midnightblue" stroke="midnightblue" points="175.98,-19 185.98,-15.5 175.98,-12 175.98,-19"/>
</g>
<!-- Node3 -->
<g id="node3" class="node">
<title>Node3</title>
<g id="a_node3"><a xlink:href="class_u_i_1_1_chinese_sports_1_1_battle_1_1_result_u_i.html#a64e79da353dfd6c9d0cb12581041077f" target="_top" xlink:title=" ">
<polygon fill="white" stroke="black" points="346,-0.5 346,-30.5 470,-30.5 470,-0.5 346,-0.5"/>
<text text-anchor="start" x="354" y="-18.5" font-family="Helvetica,sans-Serif" font-size="10.00">UI.ChineseSports.Battle.</text>
<text text-anchor="middle" x="408" y="-7.5" font-family="Helvetica,sans-Serif" font-size="10.00">ResultUI.ShowButton</text>
</a>
</g>
</g>
<!-- Node2&#45;&gt;Node3 -->
<g id="edge2" class="edge">
<title>Node2&#45;&gt;Node3</title>
<path fill="none" stroke="midnightblue" d="M310.09,-15.5C318.51,-15.5 327.23,-15.5 335.81,-15.5"/>
<polygon fill="midnightblue" stroke="midnightblue" points="335.82,-19 345.82,-15.5 335.82,-12 335.82,-19"/>
</g>
</g>
</svg>
