<?xml version="1.0" encoding="UTF-8" standalone="no"?>
<!DOCTYPE svg PUBLIC "-//W3C//DTD SVG 1.1//EN"
 "http://www.w3.org/Graphics/SVG/1.1/DTD/svg11.dtd">
<!-- Generated by graphviz version 2.47.1 (20210417.1919)
 -->
<!-- Title: ResourceDroperUI Pages: 1 -->
<svg width="250pt" height="354pt"
 viewBox="0.00 0.00 249.50 354.00" xmlns="http://www.w3.org/2000/svg" xmlns:xlink="http://www.w3.org/1999/xlink">
<g id="graph0" class="graph" transform="scale(1 1) rotate(0) translate(4 350)">
<title>ResourceDroperUI</title>
<polygon fill="white" stroke="transparent" points="-4,4 -4,-350 245.5,-350 245.5,4 -4,4"/>
<!-- Node1 -->
<g id="node1" class="node">
<title>Node1</title>
<g id="a_node1"><a xlink:title=" ">
<polygon fill="#bfbfbf" stroke="black" points="0,-0.5 0,-57.5 95,-57.5 95,-0.5 0,-0.5"/>
<text text-anchor="middle" x="47.5" y="-45.5" font-family="Helvetica,sans-Serif" font-size="10.00">ResourceDroperUI</text>
<polyline fill="none" stroke="black" points="0,-38.5 95,-38.5 "/>
<text text-anchor="middle" x="47.5" y="-26.5" font-family="Helvetica,sans-Serif" font-size="10.00"> </text>
<polyline fill="none" stroke="black" points="0,-19.5 95,-19.5 "/>
<text text-anchor="start" x="8" y="-7.5" font-family="Helvetica,sans-Serif" font-size="10.00">+ void Collect()</text>
</a>
</g>
</g>
<!-- Node2 -->
<g id="node2" class="node">
<title>Node2</title>
<g id="a_node2"><a xlink:title=" ">
<polygon fill="white" stroke="#bfbfbf" points="2,-288.5 2,-345.5 85,-345.5 85,-288.5 2,-288.5"/>
<text text-anchor="middle" x="43.5" y="-333.5" font-family="Helvetica,sans-Serif" font-size="10.00">MonoBehaviour</text>
<polyline fill="none" stroke="#bfbfbf" points="2,-326.5 85,-326.5 "/>
<text text-anchor="middle" x="43.5" y="-314.5" font-family="Helvetica,sans-Serif" font-size="10.00"> </text>
<polyline fill="none" stroke="#bfbfbf" points="2,-307.5 85,-307.5 "/>
<text text-anchor="middle" x="43.5" y="-295.5" font-family="Helvetica,sans-Serif" font-size="10.00"> </text>
</a>
</g>
</g>
<!-- Node2&#45;&gt;Node1 -->
<g id="edge1" class="edge">
<title>Node2&#45;&gt;Node1</title>
<path fill="none" stroke="midnightblue" d="M44.03,-278.05C44.85,-219.66 46.39,-109.18 47.11,-57.7"/>
<polygon fill="none" stroke="midnightblue" points="40.53,-278.27 43.89,-288.32 47.53,-278.37 40.53,-278.27"/>
</g>
<!-- Node3 -->
<g id="node3" class="node">
<title>Node3</title>
<g id="a_node3"><a xlink:href="class_player_1_1_resource_droper.html" target="_top" xlink:title="资源掉落">
<polygon fill="white" stroke="black" points="59.5,-105.5 59.5,-250.5 241.5,-250.5 241.5,-105.5 59.5,-105.5"/>
<text text-anchor="middle" x="150.5" y="-238.5" font-family="Helvetica,sans-Serif" font-size="10.00">Player.ResourceDroper</text>
<polyline fill="none" stroke="black" points="59.5,-231.5 241.5,-231.5 "/>
<text text-anchor="start" x="67.5" y="-219.5" font-family="Helvetica,sans-Serif" font-size="10.00">+ float dropColdTime</text>
<text text-anchor="start" x="67.5" y="-208.5" font-family="Helvetica,sans-Serif" font-size="10.00">+ int dropValue</text>
<text text-anchor="start" x="67.5" y="-197.5" font-family="Helvetica,sans-Serif" font-size="10.00">+ int dropCountMax</text>
<text text-anchor="start" x="67.5" y="-186.5" font-family="Helvetica,sans-Serif" font-size="10.00">+ int dropCountMin</text>
<text text-anchor="start" x="67.5" y="-175.5" font-family="Helvetica,sans-Serif" font-size="10.00">+ GameResourceType gameResource</text>
<text text-anchor="start" x="67.5" y="-164.5" font-family="Helvetica,sans-Serif" font-size="10.00">TypeType</text>
<text text-anchor="start" x="67.5" y="-153.5" font-family="Helvetica,sans-Serif" font-size="10.00">+ GameObject dropPrefab</text>
<text text-anchor="start" x="67.5" y="-142.5" font-family="Helvetica,sans-Serif" font-size="10.00">+ GameObject dropArea</text>
<polyline fill="none" stroke="black" points="59.5,-135.5 241.5,-135.5 "/>
<text text-anchor="start" x="67.5" y="-123.5" font-family="Helvetica,sans-Serif" font-size="10.00">+ void DropResource()</text>
<text text-anchor="start" x="67.5" y="-112.5" font-family="Helvetica,sans-Serif" font-size="10.00">+ void CollectResource()</text>
</a>
</g>
</g>
<!-- Node2&#45;&gt;Node3 -->
<g id="edge3" class="edge">
<title>Node2&#45;&gt;Node3</title>
<path fill="none" stroke="midnightblue" d="M71.47,-280.19C78.62,-271.04 86.56,-260.87 94.57,-250.61"/>
<polygon fill="none" stroke="midnightblue" points="68.55,-278.24 65.15,-288.28 74.07,-282.55 68.55,-278.24"/>
</g>
<!-- Node3&#45;&gt;Node1 -->
<g id="edge2" class="edge">
<title>Node3&#45;&gt;Node1</title>
<path fill="none" stroke="#404040" d="M100.21,-105.22C91.14,-92.28 82.02,-79.26 73.97,-67.78"/>
<polygon fill="none" stroke="#404040" points="73.8,-67.54 67.09,-64.92 66.92,-57.71 73.64,-60.33 73.8,-67.54"/>
<text text-anchor="middle" x="124.5" y="-79" font-family="Helvetica,sans-Serif" font-size="10.00"> +resourceDroper</text>
</g>
</g>
</svg>
