<?xml version="1.0" encoding="UTF-8" standalone="no"?>
<!DOCTYPE svg PUBLIC "-//W3C//DTD SVG 1.1//EN"
 "http://www.w3.org/Graphics/SVG/1.1/DTD/svg11.dtd">
<!-- Generated by graphviz version 2.47.1 (20210417.1919)
 -->
<!-- Title: 类继承关系图 Pages: 1 -->
<svg width="296pt" height="88pt"
 viewBox="0.00 0.00 296.00 88.00" xmlns="http://www.w3.org/2000/svg" xmlns:xlink="http://www.w3.org/1999/xlink">
<g id="graph0" class="graph" transform="scale(1 1) rotate(0) translate(4 84)">
<title>类继承关系图</title>
<polygon fill="white" stroke="transparent" points="-4,4 -4,-84 292,-84 292,4 -4,4"/>
<!-- Node76 -->
<g id="node1" class="node">
<title>Node76</title>
<g id="a_node1"><a xlink:title=" ">
<polygon fill="white" stroke="#bfbfbf" points="0,-30 0,-49 100,-49 100,-30 0,-30"/>
<text text-anchor="middle" x="50" y="-37" font-family="Helvetica,sans-Serif" font-size="10.00">MonoBehaviourPun</text>
</a>
</g>
</g>
<!-- Node0 -->
<g id="node2" class="node">
<title>Node0</title>
<g id="a_node2"><a xlink:href="class_u_i_1_1_online_1_1_farmer_dispatch_u_i_online.html" target="_top" xlink:title=" ">
<polygon fill="white" stroke="black" points="148,-49.5 148,-79.5 276,-79.5 276,-49.5 148,-49.5"/>
<text text-anchor="start" x="156" y="-67.5" font-family="Helvetica,sans-Serif" font-size="10.00">UI.Online.FarmerDispatch</text>
<text text-anchor="middle" x="212" y="-56.5" font-family="Helvetica,sans-Serif" font-size="10.00">UIOnline</text>
</a>
</g>
</g>
<!-- Node76&#45;&gt;Node0 -->
<g id="edge1" class="edge">
<title>Node76&#45;&gt;Node0</title>
<path fill="none" stroke="midnightblue" d="M110.41,-48.78C122.66,-50.7 135.6,-52.72 147.98,-54.65"/>
<polygon fill="midnightblue" stroke="midnightblue" points="110.73,-45.29 100.31,-47.2 109.65,-52.21 110.73,-45.29"/>
</g>
<!-- Node78 -->
<g id="node3" class="node">
<title>Node78</title>
<g id="a_node3"><a xlink:href="class_u_i_1_1_online_1_1_unit_d_ispatch_manager_u_i_online.html" target="_top" xlink:title=" ">
<polygon fill="white" stroke="black" points="136,-0.5 136,-30.5 288,-30.5 288,-0.5 136,-0.5"/>
<text text-anchor="start" x="144" y="-18.5" font-family="Helvetica,sans-Serif" font-size="10.00">UI.Online.UnitDIspatchManager</text>
<text text-anchor="middle" x="212" y="-7.5" font-family="Helvetica,sans-Serif" font-size="10.00">UIOnline</text>
</a>
</g>
</g>
<!-- Node76&#45;&gt;Node78 -->
<g id="edge2" class="edge">
<title>Node76&#45;&gt;Node78</title>
<path fill="none" stroke="midnightblue" d="M110.32,-30.6C118.68,-29.35 127.36,-28.05 135.96,-26.76"/>
<polygon fill="midnightblue" stroke="midnightblue" points="109.68,-27.16 100.31,-32.1 110.72,-34.08 109.68,-27.16"/>
</g>
</g>
</svg>
