<?xml version="1.0" encoding="UTF-8" standalone="no"?>
<!DOCTYPE svg PUBLIC "-//W3C//DTD SVG 1.1//EN"
 "http://www.w3.org/Graphics/SVG/1.1/DTD/svg11.dtd">
<!-- Generated by graphviz version 2.47.1 (20210417.1919)
 -->
<!-- Title: 类继承关系图 Pages: 1 -->
<svg width="342pt" height="104pt"
 viewBox="0.00 0.00 342.00 104.00" xmlns="http://www.w3.org/2000/svg" xmlns:xlink="http://www.w3.org/1999/xlink">
<g id="graph0" class="graph" transform="scale(1 1) rotate(0) translate(4 100)">
<title>类继承关系图</title>
<polygon fill="white" stroke="transparent" points="-4,4 -4,-100 338,-100 338,4 -4,4"/>
<!-- Node79 -->
<g id="node1" class="node">
<title>Node79</title>
<g id="a_node1"><a xlink:title=" ">
<polygon fill="white" stroke="#bfbfbf" points="0,-38.5 0,-57.5 143,-57.5 143,-38.5 0,-38.5"/>
<text text-anchor="middle" x="71.5" y="-45.5" font-family="Helvetica,sans-Serif" font-size="10.00">MonoBehaviourPunCallbacks</text>
</a>
</g>
</g>
<!-- Node0 -->
<g id="node2" class="node">
<title>Node0</title>
<g id="a_node2"><a xlink:href="class_network_1_1_network_lobby_manager.html" target="_top" xlink:title="网络对战管理">
<polygon fill="white" stroke="black" points="179.5,-76.5 179.5,-95.5 333.5,-95.5 333.5,-76.5 179.5,-76.5"/>
<text text-anchor="middle" x="256.5" y="-83.5" font-family="Helvetica,sans-Serif" font-size="10.00">Network.NetworkLobbyManager</text>
</a>
</g>
</g>
<!-- Node79&#45;&gt;Node0 -->
<g id="edge1" class="edge">
<title>Node79&#45;&gt;Node0</title>
<path fill="none" stroke="midnightblue" d="M128.75,-59.68C154.71,-65.07 185.12,-71.39 209.65,-76.48"/>
<polygon fill="midnightblue" stroke="midnightblue" points="129.18,-56.2 118.68,-57.59 127.76,-63.05 129.18,-56.2"/>
</g>
<!-- Node81 -->
<g id="node3" class="node">
<title>Node81</title>
<g id="a_node3"><a xlink:href="class_network_1_1_network_player_manager.html" target="_top" xlink:title="网络玩家管理">
<polygon fill="white" stroke="black" points="179,-38.5 179,-57.5 334,-57.5 334,-38.5 179,-38.5"/>
<text text-anchor="middle" x="256.5" y="-45.5" font-family="Helvetica,sans-Serif" font-size="10.00">Network.NetworkPlayerManager</text>
</a>
</g>
</g>
<!-- Node79&#45;&gt;Node81 -->
<g id="edge2" class="edge">
<title>Node79&#45;&gt;Node81</title>
<path fill="none" stroke="midnightblue" d="M153.47,-48C161.91,-48 170.47,-48 178.86,-48"/>
<polygon fill="midnightblue" stroke="midnightblue" points="153.25,-44.5 143.25,-48 153.25,-51.5 153.25,-44.5"/>
</g>
<!-- Node82 -->
<g id="node4" class="node">
<title>Node82</title>
<g id="a_node4"><a xlink:href="class_u_i_1_1_online_1_1_network_room_u_i.html" target="_top" xlink:title=" ">
<polygon fill="white" stroke="black" points="192,-0.5 192,-19.5 321,-19.5 321,-0.5 192,-0.5"/>
<text text-anchor="middle" x="256.5" y="-7.5" font-family="Helvetica,sans-Serif" font-size="10.00">UI.Online.NetworkRoomUI</text>
</a>
</g>
</g>
<!-- Node79&#45;&gt;Node82 -->
<g id="edge3" class="edge">
<title>Node79&#45;&gt;Node82</title>
<path fill="none" stroke="midnightblue" d="M128.75,-36.32C154.71,-30.93 185.12,-24.61 209.65,-19.52"/>
<polygon fill="midnightblue" stroke="midnightblue" points="127.76,-32.95 118.68,-38.41 129.18,-39.8 127.76,-32.95"/>
</g>
</g>
</svg>
