<?xml version="1.0" encoding="UTF-8" standalone="no"?>
<!DOCTYPE svg PUBLIC "-//W3C//DTD SVG 1.1//EN"
 "http://www.w3.org/Graphics/SVG/1.1/DTD/svg11.dtd">
<!-- Generated by graphviz version 2.47.1 (20210417.1919)
 -->
<!-- Title: Units.IMilitaryUnit.GetUnit Pages: 1 -->
<svg width="521pt" height="78pt"
 viewBox="0.00 0.00 521.00 77.50" xmlns="http://www.w3.org/2000/svg" xmlns:xlink="http://www.w3.org/1999/xlink">
<g id="graph0" class="graph" transform="scale(1 1) rotate(0) translate(4 73.5)">
<title>Units.IMilitaryUnit.GetUnit</title>
<polygon fill="white" stroke="transparent" points="-4,4 -4,-73.5 517,-73.5 517,4 -4,4"/>
<!-- Node1 -->
<g id="node1" class="node">
<title>Node1</title>
<g id="a_node1"><a xlink:title="获取单位">
<polygon fill="#bfbfbf" stroke="black" points="384,-28 384,-47 513,-47 513,-28 384,-28"/>
<text text-anchor="middle" x="448.5" y="-35" font-family="Helvetica,sans-Serif" font-size="10.00">Units.IMilitaryUnit.GetUnit</text>
</a>
</g>
</g>
<!-- Node2 -->
<g id="node2" class="node">
<title>Node2</title>
<g id="a_node2"><a xlink:href="class_units_1_1_neutral_units.html#aa02fa503b0291da079375a3e54e85657" target="_top" xlink:title="被攻击">
<polygon fill="white" stroke="black" points="195.5,-50 195.5,-69 344.5,-69 344.5,-50 195.5,-50"/>
<text text-anchor="middle" x="270" y="-57" font-family="Helvetica,sans-Serif" font-size="10.00">Units.NeutralUnits.BeAttacked</text>
</a>
</g>
</g>
<!-- Node1&#45;&gt;Node2 -->
<g id="edge1" class="edge">
<title>Node1&#45;&gt;Node2</title>
<path fill="none" stroke="midnightblue" d="M373.8,-46.69C364.12,-47.89 354.2,-49.13 344.53,-50.34"/>
<polygon fill="midnightblue" stroke="midnightblue" points="374.29,-50.15 383.78,-45.44 373.42,-43.21 374.29,-50.15"/>
</g>
<!-- Node3 -->
<g id="node3" class="node">
<title>Node3</title>
<g id="a_node3"><a xlink:href="class_u_i_1_1_chinese_sports_1_1_main_1_1_property_line.html#ab3e320f2d2586e7d8614b286d5b609a7" target="_top" xlink:title=" ">
<polygon fill="white" stroke="black" points="192,-0.5 192,-30.5 348,-30.5 348,-0.5 192,-0.5"/>
<text text-anchor="start" x="200" y="-18.5" font-family="Helvetica,sans-Serif" font-size="10.00">UI.ChineseSports.Main.Property</text>
<text text-anchor="middle" x="270" y="-7.5" font-family="Helvetica,sans-Serif" font-size="10.00">Line.SetPropertyString</text>
</a>
</g>
</g>
<!-- Node1&#45;&gt;Node3 -->
<g id="edge2" class="edge">
<title>Node1&#45;&gt;Node3</title>
<path fill="none" stroke="midnightblue" d="M373.63,-28.29C365.22,-27.24 356.63,-26.17 348.17,-25.12"/>
<polygon fill="midnightblue" stroke="midnightblue" points="373.42,-31.79 383.78,-29.56 374.29,-24.85 373.42,-31.79"/>
</g>
<!-- Node4 -->
<g id="node4" class="node">
<title>Node4</title>
<g id="a_node4"><a xlink:href="class_u_i_1_1_chinese_sports_1_1_main_1_1_property_line.html#ab46410d3cf66d2f3b913c95902750e58" target="_top" xlink:title=" ">
<polygon fill="white" stroke="black" points="0,-0.5 0,-30.5 156,-30.5 156,-0.5 0,-0.5"/>
<text text-anchor="start" x="8" y="-18.5" font-family="Helvetica,sans-Serif" font-size="10.00">UI.ChineseSports.Main.Property</text>
<text text-anchor="middle" x="78" y="-7.5" font-family="Helvetica,sans-Serif" font-size="10.00">Line.Set</text>
</a>
</g>
</g>
<!-- Node3&#45;&gt;Node4 -->
<g id="edge3" class="edge">
<title>Node3&#45;&gt;Node4</title>
<path fill="none" stroke="midnightblue" d="M181.94,-15.5C173.32,-15.5 164.62,-15.5 156.12,-15.5"/>
<polygon fill="midnightblue" stroke="midnightblue" points="181.99,-19 191.99,-15.5 181.99,-12 181.99,-19"/>
</g>
</g>
</svg>
